<svg id='boundary__svg' xmlns="http://www.w3.org/2000/svg" xmlns:xlink="http://www.w3.org/1999/xlink" viewBox="0 0 936.46 693.53">
<style>
  .boundary{
    fill:none;
    stroke:cyan;
    stroke-miterlimit:10;
    stroke-width:1px;
  }
</style>
  
      <g id="boundary">
      <path class="boundary" d="M504.24,504.31l-317.49-12-5.63-7.61L177.26,370c13.14-19,39.35-50.86,82.28-71,27.81-13.06,51.23-15.86,56.1-16.39A181.6,181.6,0,0,1,427,307.72c10.15,6.27,37.14,23.39,56.62,57.47,22.4,39.19,21.38,77.19,20.12,92.43" transform="translate(0.02)"/>
       <path class="boundary" d="M171.32,271.87c17.39-19.12,126.62-137.32,229.05-156.56a248.47,248.47,0,0,1,50.25-3.87c62.57,2.71,106.78,32.74,125.64,45.91,45.25,31.58,68.55,68.71,83.6,93.26a367.48,367.48,0,0,1,49.29,134.33L709,551.27l-561.3,89.85Z" transform="translate(0.02)"/>
       </g>
  </g>
</svg>
