<svg xmlns="http://www.w3.org/2000/svg" xmlns:xlink="http://www.w3.org/1999/xlink" viewBox="0 0 936.46 693.53">
<style>
  .shadow{
    opacity:0.1;
  }
  .vectorised{

  }
</style>
  <g id="bridge_Image" data-name="bridge Image">
    <path d="M731,56.42l0,0,0,0Zm2.68-.56c.83-.73,1.61-1.52,2.49-2.18s1.81-1.14,2.72-1.7l-.24-.68a5.07,5.07,0,0,1-4.27-3.95c-.3-1-2.21-1.49-3.39-2.23-.49-.3-.94-.68-1.45-.93-1.28-.62-2.34-2.25-4.49-1.12,2.2,2,4.12,3.68,6,5.41.42.38,1.22.92,1.14,1.17-.7,2.21.94,4.86-1.22,6.77h3.12ZM224,1.54l-.05,0h0v0L221.4.91l1.77,3.31,1.45,1.19C224.42,4.12,224.23,2.83,224,1.54ZM727.24,33.2c-1,1.87-2.33.88-3.67.64a6.77,6.77,0,0,0-2.32.43l.08,1c1.34.22,2.75.78,4,.57,1.86-.3,2.8,0,3,2,.07.59.68,1.12,1,1.67l.67-.25c.26-2,.25-3.95-1.19-5.63A2.41,2.41,0,0,0,727.24,33.2ZM504.13,457.67l-.41-.05v8.14h.41Zm230-423.73a1.63,1.63,0,0,1,.54.71c.85,1.81,3,2.67,5.51,2.06l-6.31-7.09C731.17,32,731.19,32.16,734.17,33.94ZM715.66,54.82c-.22.23-.44.45-.67.67.71,1.09,1.37,2.22,2.17,3.24.21.28.84.22,1.28.32.09-.51.44-1.26.23-1.49A39.12,39.12,0,0,0,715.66,54.82ZM781.38,98.4c-.44,0-1.64,1.87-1.49,2.69.53,2.77,2.44.13,3.72,1C783.71,100,783.18,98.57,781.38,98.4Zm114.81,91,4,3.52c-.28-1.57-.22-2.53,1.39-2.68l-5.22-1.38Zm33.62-45.06,5.69-.46V604.56c-8.42-.92-16.83-2.38-25.27-2.63-12.9-.38-25.82.12-38.73.14-4.21,0-8.37.29-12.57-1.2-21-7.46-42.15-14.59-63.18-22a222.42,222.42,0,0,0-40.42-10c-13.23-2-26.6-3.19-39.92-4.67-5.25-.58-5.41-.48-6.47-5.7-.58-2.85-1.73-4.29-4.78-5-21.7-4.79-43.36-9.81-65-14.75l-95-21.67q-19-4.33-38-8.67c-2.52-.58-2.71-1-1.48-3.26.49.44.91,1.1,1.47,1.27,3.4,1,6.83,1.89,10.27,2.75.34.08.81-.37,1.22-.58a6.86,6.86,0,0,0-1-1.6c-.49-.46-1.51-.58-1.72-1.08-1.21-3-3.71-3.83-6.51-4.32-.87-.16-1.75-.28-2.58-.4l-.84,2-.78-.09-.84-30.44.52,0,.49,1.48a9.89,9.89,0,0,0,1.49-4.44,79.7,79.7,0,0,0,.05-8.18c-.09-2.31-.39-4.62-.69-6.92-.06-.49-.54-.92-.84-1.38s-.84-.84-.79-1.18a24.62,24.62,0,0,0-1.08-12.76,4.1,4.1,0,0,1-.18-1.48c0-5.31.2-10.63.1-15.93a26.22,26.22,0,0,0-1.07-5.57c-1.4-5.68-5-10.78-4.41-17a6.37,6.37,0,0,0-.56-3.17c-3-6.27-3.38-13.67-8.13-19.21a1.55,1.55,0,0,1-.21-.45c-1.49-3.77-4.9-6.77-4.51-11.3,0-.31-.46-.67-.72-1-2.74-3.3-5.46-6.62-8.23-9.9-.68-.81-1.66-1.4-2.26-2.25-2.2-3.2-4-6.74-6.51-9.65A179.16,179.16,0,0,0,452.16,328a170.77,170.77,0,0,0-17.56-14.69,168.26,168.26,0,0,0-21.56-13,195.62,195.62,0,0,0-24.64-10.24,162.64,162.64,0,0,0-22.46-5.56,147.39,147.39,0,0,0-21-2.44c-8-.29-16,.13-23.94.56-6.22.34-12.52.64-18.58,1.92a234.62,234.62,0,0,0-24.64,6.79,175.6,175.6,0,0,0-18.2,7.53c-4.21,1.94-8.17,4.39-12.25,6.61-3.2,1.75-6.58,3.23-9.57,5.28q-10.64,7.29-20.94,15a58.6,58.6,0,0,0-7.59,7.11c-1.72,1.86-3,4.11-4.58,6.14a5.7,5.7,0,0,1-1.47,1.18,53.17,53.17,0,0,0-6,3.84A83.64,83.64,0,0,0,190,351.3a4.93,4.93,0,0,0-1.33,3.07c.17,6.68-2.71,10.94-8.86,13.11-.79.27-1.36,1.48-1.76,2.38-.14.32.58,1.46.87,1.45,1.88-.09,2.68.75,2.43,2.52a9.26,9.26,0,0,1-1,3.85c-1.22,1.79-1.2,3.27.32,4.74a14.15,14.15,0,0,1,3.4,4.2c.75,1.73,1.71,2.12,3.25,1.7,1.8-.49,2.48.4,3.17,1.9,1,2.19,2.69,4.12,3.43,6.38.67,2,3.5,3.28,2.38,5.92-.84,2-1.54,4.17-2.92,5.72-1.91,2.16-2,3.79-.2,5.19-.37,1.74-.67,3.13-1.08,5.08-1.11-.05-2.82-.54-4.24-.09s-2.61,2.19-4.12,2.72c-1.8.63-2,1.78-2,3.22s.29,2.82.26,4.23c-.42,16-2.91,32-1.55,48.08.5,6,1.4,11.51,6.25,15.63.62.54,1,1.33,1.63,1.89,2.63,2.45,3.89,5.26,2.75,8.91a23.33,23.33,0,0,0-.54,3.95q-3.39,26.37-6.77,52.72c-.92,7.25-2,14.42-.94,21.83a207.91,207.91,0,0,1,1.56,21.62c.17,5.31-.29,10.64-.45,15.95-.22,7.56-.17,15.14-.7,22.68-.87,12.2-2.1,24.36-3.23,36.54-.45,4.88-1,9.74-1.56,14.61H.5V389.22a6.49,6.49,0,0,0,.49-.76,17.09,17.09,0,0,1-.29-5.81c-.07-.14-.13-.28-.2-.43v-2.49l0,0c-.11-2.6-.13-5.19,0-7.78v-1.74H.58c0-.71.06-1.42.11-2.13l-.19.12V171.54a31.81,31.81,0,0,1-.5-4.29,23.08,23.08,0,0,1,.5-5.89V101.43c.36.15.74.28,1.12.41.07-.29.14-.59.22-.88L.5,100.43V1L74.72.92q21.61,0,43.22,0c2.88,0,5.89-.39,7.5,2.89a2.1,2.1,0,0,0,.46-.11c-.09-.8-.17-1.59-.27-2.48C131.79,1.14,137.79,1,143.8,1c6.18,0,12.37,0,18.8,0-.79,1.75-1.15,2.56-.94,3.22l2.22.08c.16-.61.33-1.23.5-1.84.13-.44.28-.87.36-1.15,2.08-.6,3.3.14,4.54,1.58.79.93,2.25,1.29,3.41,1.91l.52-.77-1.65-3H209c.25,0,.62,0,.72.11,1,1.32,2,.22,3,.2a34.06,34.06,0,0,1,7.59.81c1.07.23,1.94,1.37,2.9,2.09l1.45,1.19c1.73.78,2.77.24,3.25-1.79L224,1.54v0l18.09-.4a14.26,14.26,0,0,1,2.52-.07c2.9.44,6.25-1.35,8.09,1.17,2.27-.46,4.12-1.14,6-1.17C265.86.93,273,1,280.17,1c4.43,0,8.85,0,13.28,0,1.84,0,3.69,0,5.68,0-1.13,4.26-.5,5.63,2.35,5.74-.24-.5-.45-.94-.67-1.37-1-2-.23-3.7,1.87-4A34.25,34.25,0,0,1,307.84,1q14.48,0,29,0c19.32.06,38.64.2,57.95.21,8.83,0,17.66-.3,26.48-.29,11.83,0,23.65.14,35.47.3a4,4,0,0,1,2.25,1l.67.61c1-.09,2-.12,3-.11-.37-.3-.75-.59-1.12-.9l.65-1.06,4.51,1.66c1.27-.61,2-1.29,2.79-1.3C478.88,1,488.29.89,497.7.89c19.4,0,38.8.11,58.21.13,15.74,0,31.48-.05,47.22,0a15.6,15.6,0,0,1,3.7,1,10.63,10.63,0,0,1,1.09-1c1.66,1.49,3.28.09,4.91,0,6.32-.15,12.64-.21,19-.13a24,24,0,0,1,4.82,1.11c2.2-3.56,3.28,1.78,5.47,1.43V1.05c3.1,0,6,0,9,0,8.82,0,17.64.13,26.46.12,10.21,0,20.42-.11,30.63-.18,4.05,0,8.09-.13,12.13-.09,3.41,0,7-.46,10.16.56s5.31,1.3,8-.3c.61-.36,2.16.14,2.79.75,1.71,1.66,2.82,4.06,6,3.68-.1.35-.21.7-.31,1L738.28,6,740,2.53c-1.83.63-3.08,1-4.29,1.49-2.44,1,.42,2.13-.37,3.78a30.66,30.66,0,0,1-2.59-1.74c-1.08-.88-2.05-1.32-3.11,0a14.35,14.35,0,0,0,8.82,4.31v8.29c-.63-.3-1-.36-1.19-.59-3-4.59-7.72-3.35-12-3.3-.78,0-1.55.6-2.87,1.14,2.14.93,4.18,2.52,5,2,2.88-1.68,4.24.54,6.29,1.51l-1.31,1.77,2.73,1.83-2.38.58c.36,1,1.35,2.71-.9,2.12-2.65-.7-5.1-2.15-7.66-3.19a17.59,17.59,0,0,0-4-1.19c-.4-.06-.95.87-1.43,1.35.52.39,1,1.05,1.56,1.13a17.09,17.09,0,0,0,3.19-.11,8.8,8.8,0,0,1-3.66,1.55c-1.34.32-2.73.5-4,.94-1.95.67-1.41,1.59,0,2.68,1.34-2.26,2-1,2.73.37a29.55,29.55,0,0,0,1.91,2.79c-1.21-.09-2.53-.18-3.84-.31s-2.67-.27-4-.41l-.1.5,4.78,2.07-.11.6a19.93,19.93,0,0,1-2.79-.39,27.43,27.43,0,0,1-3-1.13c-.1.24-.21.49-.32.73L717.29,37l-3.91.39c1.45,1.82,2.42,4.14,4,4.79s3.9-.43,5.89-.75c.11.26.22.52.34.78l-2.91,1.7.49,1.21-4.52-.62-.33.62c1.5,1.85,3,3.69,5,6.07-2.4-.61-4.38-.83-6.1-1.62s-3.69-2-3.22-4.64a2.77,2.77,0,0,0-.91-1.92,25.07,25.07,0,0,0-4.36-4,60.69,60.69,0,0,0-6.69-3.24l-.41.71a7,7,0,0,1,.8,1.75A4,4,0,0,0,704.08,42c.92.16,1.66,1.29,2.44,1.94l-2.82,1.69c.69.84,1.37,1.68,2.08,2.51.1.11.31.1.47.15,1.85.61,3.72,1.15,5.52,1.87a9.21,9.21,0,0,1,2,1.52l-6.59,1.94c.13.59.38,1.68.75,3.3l-4.46-2.73-.44.7,4.5,3.87-.51.7-1.79-.13-.24.43,2,1.48A9.16,9.16,0,0,0,708,59.56c.59-1.48,1.44-1.87,2.91-1.12a33.47,33.47,0,0,0,3.21,1.29,31.77,31.77,0,0,0,2.85,3.2,8.17,8.17,0,0,0,2.35.92c0-.83-.07-1.66-.11-2.49,4-.17,4.15-.25,5.88-2.74a12.86,12.86,0,0,1,1.8-2.37,2.84,2.84,0,0,1,1.84-.26,16.71,16.71,0,0,1,2.21.47l2.6,2.86c-.79,6.73-5,1.39-7.56,1.89-.17,4.17,4.42,2.38,5.68,5-1.61,1.27-4.57,1-4.8,4.12l1.87-1.49c.46.82.85,1.48,1.41,2.48,2.93-2.86,5-6.59,9.48-7L736,62.17c2.12-2,3.95-.19,5.3-.47l2.51,7.49-4.8-.43a8.15,8.15,0,0,0-3.07-.18c-.4.07-1,1.08-1,1.11.94.92,2,1.78,2.87,2.58l2.52-2.5c-.54,4.22-.54,4.21-3.65,4-.4,0-1,0-1.18.18a39.1,39.1,0,0,0-3.56,4.79c-.34.58.17,1.65.3,2.49a11.73,11.73,0,0,1,2.17-.37,21.64,21.64,0,0,1,2.76.33,27.43,27.43,0,0,1-1.35,2.78c-.2.31-.82.35-1.53.63.64,1.16,1.16,2.11,2,3.63,1.38-3.68,2.14-6.74,3.63-9.39s1.19-6.77,5.85-6.34c.13-.87.24-1.6.36-2.32A5.4,5.4,0,0,0,749,68.3a17.8,17.8,0,0,0,1.66-2.72A3.9,3.9,0,0,1,756.16,64l-7.52,6.26c1.7.85,4.84.64,1.88,3.08-.2.17.22,1.45.66,1.91s1.22.46,1.86.66l-1.18,1.4L748.05,75c-2.5,3.18-.23,5.33,1.88,7.57h-6.41c.43,1.83,1.3,2.28,2.79,2.14a3.94,3.94,0,0,1,2.74.48,2.77,2.77,0,0,0,4.45-.41c1.44-2,2.26-1.42,3.41,0,.47.56,1,1.08,1.44,1.61,2.38-1.86,3.66-1.58,4.42.71a7.74,7.74,0,0,0-2.63.94,45.41,45.41,0,0,0-3.57,4l2.62,1-2,1.56c.48,1.46.89,2.71,1.31,4-3.81-2.34-6.14-1.25-8.55,3.7.86,0,2.1-.39,2.76.07,2.32,1.6,4.05,1.11,5.64-1,.11-.14.45-.11.17,0a46.65,46.65,0,0,0,4.79,2.25c.48.16,1.41-.39,1.81-.88a1.72,1.72,0,0,0-.5-1.6c-1.11-.6-2-1-.77-2.34s2.48-1.46,3.52.07a16.12,16.12,0,0,1,1.2,3.43l6.71-5.81c-.17-.31-.33-.63-.5-1l-6.45,1.42c-1.06-2.25-2.34-5-3.84-8.2L767.58,90c.56-1.6.93-3.3,3.19-2.68.27,2,.52,4,.79,6L776,86.63c.07,1,0,1.53.15,1.8,1,1.27,1.91,3.36,3,3.47s2.77-1.49,3.75-2.7c1.24-1.55,3.93-2.93,6.17-2.11-4.25.63-5,4-5.81,6.78-1.36-.11-2.6-.58-3.06-.18-3.18,2.8-6.2,5.79-9.43,8.86l9,2c-.78.4-1.58.84-2.4,1.24a16.54,16.54,0,0,1-1.67.73,8.64,8.64,0,0,1-2.36.75c-1.14.07-2.31-.22-3.46-.21-3.32,0-4.88,2.15-4.09,5.49,2.13-2.23,4.4-3.67,7.63-2a3.46,3.46,0,0,0,2.77-.2,5,5,0,0,1,7,2.16c-2.77-.1-6-1.07-8.49-.06s-6.63.67-7.22,5.47c3-.64,5.44-1.53,7-3.25,1.06.41,1.79.68,2.5,1,.41.17.8.4,1.2.6-.32.39-.61,1.08-1,1.12-1.49.17-2,.75-1.67,2.31.14.59-.33,1.32-.53,2l-.37-.07c-.13-.74-.26-1.49-.37-2.1a10.38,10.38,0,0,1-2.39,0c-2.48-.63-6.44,1-7.82,3.41,1.12,0,2.25,0,3.37,0,.76,0,1.73.11,2.25-.29,1.42-1.1,2.25-.44,3.12.66-.41.3-.93.51-1.15.89a57.1,57.1,0,0,1-2.81,5.1c-3.07,4.24-3.14,4.2.22,8.34.36.45.62,1.06,1.08,1.35a8.33,8.33,0,0,0,3,1.42c3.29.42,6.61.63,9.92.86,2.65.19,5.31.25,8,.44,1.26.09,2.51.34,3.77.52,0,.31-.09.61-.14.92l-21-1.69a33.24,33.24,0,0,0,2.69,4.69c3.81,4.62,7.65,9.23,11.74,13.61a27.88,27.88,0,0,1,3.44,4.2c2.09,3.28,2.35,3.22,6.08,1.86-.64,1.15-1.14,2-1.74,3.12,2.12,1.38,2.47,5,6,4.4.26,3.14,3.93,4.9,6.88,3.43l-2.08-1.31c5.22.23,2.2-2.74,2.15-4.71l2.13.51c0-.89-.33-2,.06-2.41,1.61-1.72,2-3.23-.42-4.84.75-.86,1.35-2.14,2-2.17,1,0,1.93.83,3.14,1.43a17.62,17.62,0,0,1,1.22-3.46,9.08,9.08,0,0,1,2.69-3c.64-.4,1.82.06,3.14.16,0-.17.21.53.06.63-1.31.85-2.7,1.6-4.34,2.54a17.38,17.38,0,0,0,1.17,3.86c.77,1.37.54,1.79-.85,2.34-.9.35-1.54,1.34-2.3,2,4.47.64,5.15.22,5.17-2.94a17.94,17.94,0,0,0,2.3,2.15c.42.28,1.11.13,1.68.17,0-1.66.58-4.1-.26-4.81-1.89-1.59.25-3.4-.89-4.76,0,0,.46-.67.55-.64.39.16,1,.42,1,.71.43,3.12,1.8,2.06,3.38.54l4.07,3.25c.36-1,.71-1.93,1.06-2.88,2.45,4.21,2.21,5.62.19,6.64l-4.28-4.07c-1.15,1.15-2,1.75-.19,3.15,1.4,1.09,2.89,2.92,1,5.1a2.33,2.33,0,0,0,.15,2c1.49.45,3.17,1.7,4.43-.38l2.49.8c-.18-2.84-1.7-3.59-4.18-3.67a24.69,24.69,0,0,1,3.3-2.93,4.83,4.83,0,0,0,1.6-1.75,35.81,35.81,0,0,0,1-4.57l-5.57-1.91,3.36-1.85c-.58-1.86-1.12-3.6-1.67-5.33,3.34,1.6,3.31,4.54,3.18,7.74,1.07-.41,2.42-1,2.41-1.45a25.13,25.13,0,0,0-1.06-4.9l3.8-2.16c-.18,1.74-.27,2.63-.37,3.53l.81.21c.49-1.45,1-2.9,1.45-4.36l-.82.06-3.42-2.66-2.19,2.9-2.66-3,3.15-4.37c.26,1.37.41,2.13.55,2.88l3.49-2.16,2.32,2.51.59-.48a8,8,0,0,1-.93-1.43c-.27-.73-.79-1.82-.49-2.23,1.55-2.12.33-2.7-1.74-3l3.17-5.91,1.08.64-1.88,2.88a5.67,5.67,0,0,1,.7,1.44,7,7,0,0,0,5,4.95c1.54.23,2.5,0,1.91-2a19.6,19.6,0,0,1-.64-3.9c-.15-1.45.33-2.43,2.06-2.39a19.92,19.92,0,0,0,2.85-.38c-.62,1.21-1.09,2.12-1.55,3,1.87.47,4.37.13,3.93-1.79-.62-2.73,2-4.4.69-6.91l.68-.07,2.82,3.18-.44.1,3.28,8.76.57-.21c-1.32-8.23-1.13-9.63,1.48-10.3-.23,1.14-.44,2.25-.69,3.52,4-.86,6.87.35,6,4.7-.25,1.29-.6,2.57-.9,3.85l-.51,2.16a72.94,72.94,0,0,0,4.4-8.31.67.67,0,0,0,0-.25c-.12-2.37-.24-4.75-.36-7.22l2.34.84a10.35,10.35,0,0,1,1.77-1.45c2.64-1.3,5-2.79,6.54-5.49,1-1.77,2.15-.47,3,.24.45.37.58,1.14.93,1.9l3.55-2.53c1.11,2.11-2.15,4.45.39,6a10.44,10.44,0,0,1,1-2,6,6,0,0,0,1.18-5.61c-.59-2.08-.08-2.52,2-2s2.14,1.45,1.11,3.07c-.85,1.32-2.17,2.7-1,3.92l-1.22,3.39c2.82.11,6.24-1.62,6.72-3.58s2.15-4.25-.23-5.93l2.59-3.24c.15,2.3.27,4.16.43,6.55l5.65-3.8c-.24,2.21-.53,4.63-.77,7.06-.18,1.79-.3,3.58-.46,5.54,1.08.29,2.47.68,1.74,2.73-.13.37.44,1.26.9,1.51a2,2,0,0,0,1.81,0,35.34,35.34,0,0,0,2.94-3.16l-.21-.46-2.57.48L917,129.21c1.2-.06,2.06-.07,2.92-.14s2-.21,3-.32c0,1.05-.08,2.11-.15,3.17a2.36,2.36,0,0,1-.07.46c.94.6,2.06,1,2.06,1.39a56.24,56.24,0,0,1-.37,5.78l.49.44,3.77-4.62c.67,3.17,2.38,2.8,4.32,1.72-.05.31-.09.63-.13.94l2.66.37v3c-.39-.4-.75-1.07-1.19-1.14C932.88,140,929.92,143.11,929.81,144.36ZM724.44,6.81l2.65,2.39C728.16,7.07,727.66,6.64,724.44,6.81ZM143.35,4.86l.62.92c.54-.13,1.08-.26,1.63-.37.11,0,.23,0,.34-.06a10.31,10.31,0,0,0-2.18-1.2C143.62,4.39,143.49,4.63,143.35,4.86ZM136.19,4,139,7.39l.5-.2L139.65,6l1.2.7c.38-.13.75-.26,1.13-.37-.43-1.82-.65-3.71-2.91-3.87C138.19,2.41,137.24,3.44,136.19,4Zm-2.67,6c.79-.46,1.59-.91,2.41-1.32-.24-.58-.49-1.16-.72-1.75l-.81,0a12.74,12.74,0,0,0-.83,2.56C133.55,9.75,133.53,9.91,133.52,10.07Zm22.63-5.86-1.33-.58c0,.22.07.43.1.64Zm3.11,0c-.17-.76-.39-1.51-.59-2.27-.38.76-.75,1.52-1.14,2.27h1.73Zm46.65.52a26,26,0,0,0-3.06-.32c-.19,0-.39.25-.78.53a6.86,6.86,0,0,0,1,.5c.91.22,1.83.39,2.74.58A10.5,10.5,0,0,0,205.91,4.68Zm30.4,3.18a48,48,0,0,0-4.48-2.37c-.48-.2-1.27.37-1.92.59l1.23,3.57.67-.21.35-1.39,3.84.78C236.1,8.5,236.21,8.18,236.31,7.86Zm212.56-2-2.05-1.54a4.87,4.87,0,0,0,.69,2.24C448,6.28,448.41,6,448.87,5.82ZM617.66,8.34c-.27-.3-.55-.6-.82-.91l-2.39,1.94a10.07,10.07,0,0,0,1.37,1.09A19.7,19.7,0,0,0,617.66,8.34Zm81.78,44c.49.47,1.3,1.4,1.42,1.32a16.64,16.64,0,0,0,2.12-2c-.3-.37-.6-.73-.89-1.1Zm-2.38,9.85,4.39,1.22c1.75-2.57-1.33-3-1.68-5Zm.82-6.22a30.36,30.36,0,0,0,2.65,1.58l.58-.9-2.6-2A7.33,7.33,0,0,0,697.88,55.93ZM714.71,6.12l.3,1,3.6-1c-.12-.37-.23-.74-.34-1.11Zm-5,19.87c.53.45,2-.15,3.05-.43a17.2,17.2,0,0,0,2.62-1.12c.52-.25,1-.57,1.49-.86a6.78,6.78,0,0,0-1.28-1.13c-1.08-.59-2.26-1-3.32-1.6a33.14,33.14,0,0,1-2.83-2.08l-.33.4,1.2,2.18-.4.55-4.38-2.44C705.06,23,707.71,24.36,709.67,26Zm-9.53-2a2.5,2.5,0,0,0-.58,2,4.6,4.6,0,0,0,2.61.86,20.57,20.57,0,0,0,4-1,31.48,31.48,0,0,0-3.7-1.85A3,3,0,0,0,700.14,24Zm-2.78-13.2c.59,0,1.56.24,1.7,0A12.33,12.33,0,0,0,700,8.13l-1.38-.44C698.17,8.72,697.77,9.76,697.36,10.79Zm-6.18,24.63.26.69,6-2.66C694.29,31.6,693.63,31.86,691.18,35.42Zm2.52,3.27c.91-.53,1.65-.94,2.38-1.36l-.57-1c-1.3.91-2.63,1.77-3.83,2.8a3.42,3.42,0,0,0,1,1.82,11.84,11.84,0,0,0,2.61,1.16l.35-.78ZM671.4,14.23c.12,1.86.22,3.31.31,4.75l.91-.06C672.93,17.44,674.31,15.87,671.4,14.23Zm-45.95.29c-.42-1.17-1.09-2.5-2.84-1.5.4,1,.76,2,1.48,3.85C624.79,15.71,625.6,15,625.45,14.52ZM630.24,12l.87-.25c.12-1.35.25-2.7.37-4.05l-.64-.35c-.69.68-1.85,1.31-1.93,2.06S629.75,11.1,630.24,12Zm3.58,10.8-.83-.45-2.51,1.44,2.45,1.37Zm4.44.71-1.33-1.36c-2.69,2.85-2.8,4.88-.67,7.62C636.88,27.78,637.5,25.84,638.26,23.48Zm2.29-12.12c-.75,0-1.6-.25-2.09.06a9.59,9.59,0,0,0-1.82,2.07c.07-1.22.14-2.31.2-3.4l-.62-.3L633.37,12c1.63,1,1.46,1.83-1,2.56l4.77,2C638.26,14.92,639.26,13.38,640.55,11.36Zm.23,6,2.82-2.68C640.48,14.17,640,14.72,640.78,17.37Zm4.94,20.41c-.18-.72-1.42-1.89-1.64-1.78a10.66,10.66,0,0,0-2.26,2l3.72,3A10.73,10.73,0,0,0,645.72,37.78Zm.45-5.89-5.63-5.38c.29,3.09.57,6.12.86,9.15a4.67,4.67,0,0,0,1.46-2.11A3.38,3.38,0,0,1,644,32.13,6.88,6.88,0,0,1,646.17,31.89Zm6,6.67a19,19,0,0,0-2.75-3.43c-.54-.44-1.8-.1-2.68.1a1.75,1.75,0,0,0-.23,1.45,8.74,8.74,0,0,0,2.44,1.46,15.72,15.72,0,0,0,2.48.59Zm1-4.29c-.21-3.51-.37-6.32-.54-9.14l-.67-.39-.66,1.54-.5-.24c-.12-.87-.22-1.75-.37-2.62-.1-.54-.26-1.08-.39-1.61a9.32,9.32,0,0,0-1.17,1.27c-.53.87-.72,2.08-1.44,2.65-1.72,1.33-2,2.26-.35,3.58,1,.74,2.35.92,3.66,1.39-.08.17-.37.72-.74,1.42ZM668.23,15c0-.34-1.1-.58-1.7-.87l-.54.6,1,2.6h.68A6.55,6.55,0,0,0,668.23,15Zm10.1,50.79c-1.31-4.15-3.79-4.42-6.6-3.43l-1.09,2.35C672.87,67.51,675.6,64.21,678.33,65.74Zm5.53,5.92c-.52-.35-1-1-1.58-1a34.14,34.14,0,0,0-4.22.25,31,31,0,0,0,4.24,2.16C682.63,73.18,683.33,72.16,683.86,71.66Zm-1.23-12.77c-1.63,2.94-1.35,5.16.81,6.82C684,63.34,684.4,61.22,682.63,58.89Zm6.64-48.37A30.33,30.33,0,0,0,692.66,9a1.69,1.69,0,0,0,.51-1.43c0-.26-.8-.62-1.2-.59-1.19.1-2.36.38-3.64.61a6.33,6.33,0,0,0,.16,1C688.7,9.19,689,9.78,689.27,10.52ZM694.9,73.3l2.39-1.41c-1-2.06-1-2.06-6.11-3.5Zm2.85,5.83,1.89-3.28c-.88-.06-2-.49-2.57-.1C695.87,76.6,695.87,77.8,697.75,79.13Zm6.3,3-3.88-2.91-.77,1,4.23,2.52Zm2.31-8.48a6.06,6.06,0,0,0-2.22-.26c.52,1.22,1.05,2.45,1.7,3.94C707.93,75.63,707.86,74.49,706.36,73.64ZM708,64.08c.06.61.16,1.22.17,1.83.06,2,1.11,2,1.87.61.28-.49-.9-1.81-1.42-2.75Zm3.55,14.79-2.19-2.05c-.39.43-.79.85-1.19,1.28a8.89,8.89,0,0,0,1.71,1.5C710.18,79.74,710.79,79.23,711.58,78.87ZM712,65.59c.34,2.74,1.82,1.73,4,1.47l-4.79-5.69-1.26.82C710.68,63.32,711.89,64.39,712,65.59Zm2.29,25.11c-2.26,2.54-2.45,4.55-1.07,5.5.17-.92.38-2,.59-3.12l.51.1L715,95C717.06,93.1,715.6,92,714.33,90.7Zm8.22-7.51,1.56-.33,2.58,4.47c1.55-2.36,1.34-5.24-.09-6.07C724.54,80.06,723.66,81.91,722.55,83.19Zm-.61,16.31c1.59,1.82,2.66,1,3.85-.32C724.27,97.38,723.22,98.41,721.94,99.5Zm-.29-23.69c.21,1.53.33,2.4.44,3.28l.76.45L725,76.83Zm-2,37.56a18.82,18.82,0,0,0-1.78-2.71,27.7,27.7,0,0,0,.33,3.29c.09.33.66.54,1,.8C719.42,114.28,719.83,113.71,719.69,113.37Zm1-24.84h4l-1.79-2.8-.56.28c.12.56.25,1.12.37,1.69l-2.06.3Zm1.7,23.07c-1.72,5.92-1.62,6.33,2.73,8.9.35-1.78.71-3.27.91-4.78C726.42,112.66,725.59,111.77,722.37,111.6Zm6.07-9.15c-.5-.71-1.58-1.68-2.11-1.53a5.18,5.18,0,0,0-2.23,2,5.37,5.37,0,0,0-.44,2l-1.6-.49-.49.66a21.78,21.78,0,0,0,3.17,3.26,3.63,3.63,0,0,0,3,.33C729.93,107.77,730.22,105,728.44,102.45Zm2.2,24.83-.75-3.37C728,125.47,728.16,126.12,730.64,127.28Zm3.65-25.75-1.21-.29-.84,3.51,1.08.27Zm29.86,41.25,9.48,10.88c1.24-5.26,0-9.31-3.15-11.46C768.57,140.91,766.62,141.22,764.15,142.78ZM764,122.91c-3.1,2.47-3.18,2.77-1.18,4.36-3.29,1.81,0,2.83.61,4,.65,1.34,1.78.95,2.51-.15s1.47-2.38,2.14-3.61c1-1.92.55-2.59-1.53-3C765.64,124.38,764.85,123.49,764,122.91Zm-.45,12.51a25.66,25.66,0,0,0-2.55,3.29c-.19.33.58,1.2.91,1.82.56-.33,1.49-.55,1.62-1a24.3,24.3,0,0,0,.51-3.84ZM749,109.47c3.13-.83,6.06-2.62,7.93-1.85,2.43,1,2.5-.61,3.58-1.13l-.2-.84c-1.35.13-2.7.31-4.05.37-.69,0-1.39-.22-2.08-.23-1.24,0-2.74-.34-3.63.24S749.61,108.09,749,109.47Zm-3.42-14,3.72,3.9c.22-1.22.35-1.9.46-2.5.72,0,1.35.19,1.75,0a14.83,14.83,0,0,0,3.2-2.21A13.76,13.76,0,0,0,756.5,92c-.26-.29-.67-.58-.68-.88-.06-1.47.18-3.08-2.21-2.3-.16,0-.5-.58-.73-.57-1.17.08-2.51,0-3.45.52a2.85,2.85,0,0,0-1,2.58c.55,1.49-.05,2.19-1.07,2.91C746.74,94.66,746.13,95.14,745.62,95.52Zm-3.26,3.2-1.26-.45a12.61,12.61,0,0,0-.6,2c0,.13.73.36,1.13.55C741.87,100.15,742.12,99.44,742.36,98.72Zm1.29-6a25.26,25.26,0,0,0,2.84-1.84c-.91-.63-1.69-1.37-1.85-1.25a17.2,17.2,0,0,0-2.15,2.12C742.89,92.05,743.45,92.77,743.65,92.68Zm2.15,9.59-.38-.5a8.68,8.68,0,0,0-2.09,1.4c-.27.32,0,1.13.11,1.73l.6.07Zm5.48,10.15c-.45-.24-1.23-.78-1.3-.7a15.44,15.44,0,0,0-1.35,2l1.08.71ZM755,147.16c-1.13,2.75-.31,4.24,2.84,5.53C758.69,149.84,755.75,149.07,755,147.16Zm2-.38.87-.67v-2.89h-3.53Zm1.44-34.29c-.25-.51-1.56-.76-2.34-.65-.48.06-1,1-1.23,1.57-.77,1.65-1.44,3.35-2.4,5.62,2.06-1.56,3.82-2.73,5.35-4.15A2.62,2.62,0,0,0,758.43,112.49Zm.75,6.46.58.31,1.87-2.32.14.41,3.7-1.35c0-.26-.07-.51-.1-.76l-5.1-1.52C759.94,115.34,759.56,117.15,759.18,119Zm4,15.19L759.62,130C759,133.57,759.94,134.65,763.17,134.14Zm2.55,24.46-5.81-5.28C759.21,156,761.65,158.66,765.72,158.6Zm6.79,7.18c-1.59-2-3.36-3.94-5.06-5.89l-1.17.53c.24,1,.22,2.16.77,2.92a25.23,25.23,0,0,0,3.55,3.76,5.24,5.24,0,0,0,1.85.7C772.49,167.11,772.83,166.19,772.51,165.78Zm.22-10.74c-2.46-2.47-4.72-5.13-7.09-7.68-.52-.56-1.13-1-2.14-1.94l-.75,3.73-.7.14c-.47-1.39-.95-2.78-1.62-4.75-1.15,2.72-1.14,4.57.52,6.28,2.94,3,5.85,6.11,8.75,9.18,1.27,1.35,2.49,2.74,3.74,4.11l.88-.4C774,160.8,775.43,157.74,772.73,155Zm14.8,28.24a37.79,37.79,0,0,0-2.24-4,39.56,39.56,0,0,0-3.13-3.5l-5.16-5.6-.66.61c2.34,5.17,6.22,9.14,10.34,12.92Zm1.56-10L776.45,159c-1.48,3.32-1.11,6.75.74,8.89,2,2.36,4.08,4.75,6.28,7,1.85,1.85,3.94,3.47,6,5.24C791,177.71,785.09,175.89,789.09,173.3Zm.07-9.74c-3.76-4.55-7.67-9-11.55-13.41a16.89,16.89,0,0,0-1.84-1.51c-.34,3.64-.93,6.65,1.71,9.3,2.22,2.23,4.16,4.74,6.29,7.08,1.68,1.85,3.44,3.62,5.16,5.43l.62-.49-1.41-2.48C790.39,166.67,790.38,165,789.16,163.56Zm8.55,9.93-2,1.7c-.48-4.6-.48-4.6-3.81-5.11-1.57,2.38-1.47,2.92.79,4.28a4.32,4.32,0,0,1,1,.66c2.62,2.95,5.21,5.92,8,9.17C802.78,181.13,800.24,175.11,797.71,173.49Zm128.08,13.43a7.91,7.91,0,0,0,1.72,2c.12.11.89-.57,1.82-1.2l-2.94-1.9C926.17,186.2,925.68,186.74,925.79,186.92Zm-2,17.7c-.72-.12-1.24-1.25-1.94-1.8a5.7,5.7,0,0,0-2.26-1.32c-.43-.08-1,.78-1.56,1.21.74.31,1.47.61,2.2.94.14.06.24.22.75.71l-1.69,2.49c1.32,1.31,4.22,1.8,7.09.78C926.19,206.08,925.71,204.94,923.82,204.62ZM923.37,223c-2.69.09-5.2,1.88-5.12,3.65C922.12,227.31,923.52,226.32,923.37,223ZM920,211.58c-.47-.22-1-.36-1.48-.54-.12.51-.44,1.11-.29,1.51s.79,1.21,1.21,1.21a12.81,12.81,0,0,0,3.15-.85C921.2,212.22,920.59,211.87,920,211.58Zm-2.8-70.34.38.35,5.59-1.66c-1.14-.66-2.26-1.72-2.71-1.49A17.48,17.48,0,0,0,917.15,141.24ZM914.59,200l-3.45,1.81.52.92,3.36-2Zm-1.74,8.89a7.1,7.1,0,0,0-2.08,1.07l3.85,2.11C915.62,209.15,914.47,208.67,912.85,208.89ZM912,179.78c-.08,1.84-.14,3.35-.21,4.91C914.16,183.27,914.34,181.43,912,179.78Zm-.56-52.46c.31-1.2.63-2.4,1-3.6l-1-.3C910.13,124.42,909.46,125.54,911.41,127.32Zm-4,71.57c-.15.26.53,1,1.08,2,1-2.24,1.82-4,2.62-5.79l-.75-.44C909.34,196,908.27,197.41,907.4,198.89ZM906.48,132c2.34,1,2.77.44,2.36-3.47C907.83,130,907.16,131,906.48,132Zm-4.21,53.21c.32.88.62,1.68,1,2.63,3-1,3.69.73,3.74,3.36.9-1,1.48-1.66,2.18-2.45C906.86,187.4,905.93,184.18,902.27,185.21Zm-.58-53c0,.06.56.4.86.61l1.63-2.68-1-.66C902.64,130.35,902.13,131.25,901.69,132.18Zm-8-5.09,2.49,4.09.86-.53-2.73-3.92Zm-3,66.16c.71,1.09,1.54,2.1,2.32,3.15h0c1.63,2.38,3.91,2.12,6.6,1.39-1.9-1.64-.71-2.35.77-3,2.12-1,3-2.37,1.29-4.49l0,0-.07,0h.1c.24-.25.69-.59.63-.72-.42-1.05-.95-2.06-1.15-2.47-1.88-.37-3.19-.57-4.46-.89s-2.63-.35-2.21,1.15c.77,2.71-.91,2.6-2.56,3A3,3,0,0,0,890,191.4C889.81,191.78,890.32,192.69,890.69,193.25Zm-1.77.91-1.06,1.27c-.33-.42-.66-.83-1-1.24l-1.65-2.05c-2.46,3.43,3.59,4.24,1.45,7.18.75.41,1.32,1,1.91,1,1.67.11,3.36,0,5,0-.21-1.32-.43-2.63-.64-3.95Zm-.34-61.5h.65v-8.57h-.65Zm-3.75,54.55.68.43c.75-1.47,3.22-1.82,2.76-4.08l-.76-.33Zm-2.76-56.75a4.49,4.49,0,0,0,4,3.64l.57-.57-2.94-2.94c3-3.39,3-3.39,2.38-4.35C885.33,128.33,881.31,127.18,882.07,130.46Zm-2.39,2c.71,2.07,1.27,3.68,1.83,5.29l.8.24c.57-.81,1.67-1.66,1.61-2.42C883.77,133.59,882,133.06,879.68,132.5Zm-6.3,27.87c.13-1.36.24-2.48.39-4.08C870.91,157.73,870.88,158.53,873.38,160.37Zm-3.56,18.21c1.41,1.24,3.11,1.06,4.65.08l-.09-.86-3,.46c.06-.77.12-1.56.18-2.36l-.81-.24C870.41,176.67,869.51,178.31,869.82,178.58Zm3.31,2.67a3,3,0,0,0-2.08,1.41,11.68,11.68,0,0,0-.72,3.28l4.19-3.29C874.21,182.31,873.64,181.23,873.13,181.25Zm-6.87,28.13.36,1.18c2.73-.32,5.46-.61,8.18-1,.26,0,.68-1.07.52-1.36a1.87,1.87,0,0,0-1.44-.83,26.29,26.29,0,0,0-4.75.69A15,15,0,0,0,866.26,209.38Zm6,1.53-3.77.61.21,1.15,3.79-.52C872.4,211.74,872.33,211.32,872.25,210.91Zm-7.5-12.38s-.63,1.39-.41,1.62a7.3,7.3,0,0,0,2.1,1.17,20.27,20.27,0,0,0,2-1c.09-.06,0-.79-.17-.84A29,29,0,0,0,864.75,198.53Zm1.68-8.37-.94-.26-.84,2.38,1.26.36C866.08,191.81,866.26,191,866.43,190.16Zm-3.65-7.54-2.1-1.46c1.18-.57,2.76-.84,3-1.55.55-1.66-.74-2.4-2.31-2.75-.5-.11-.84-.87-1.25-1.33a5.94,5.94,0,0,0-1.8,6c.18.47.91.76,1.43,1.05,1.56.87,3.44,1.36,3.43,3.73a9.9,9.9,0,0,0,.6,2.38c.64-.27,1.64-.39,1.84-.85.37-.87.7-2.23.27-2.84C865.17,184,863.85,183.38,862.78,182.62Zm-5.31,15.26-5.08.55C854.39,200.46,856.66,200.09,857.47,197.88Zm-5.68,20.86-.25.94,4.64,1.32.3-.87C855.24,218.39,853.52,218.57,851.79,218.74Zm9.68-23.56c-1.47-3.34-3.32-3.68-6.06-2a7.51,7.51,0,0,1-4.71.82c-2.07-.36-2.62.45-3.05,2.42Zm-11.53,2.21-.8-.29c-.38.85-1.18,1.8-1,2.52s1.42.93,2.2,1.38l.41-.58C850.47,199.41,850.2,198.4,849.94,197.39Zm11.48-31.28L856,168.55C858.2,169.65,860.35,169,861.42,166.11ZM857,183c-.44,1.06-1.07,1.84-.89,2.33a3.85,3.85,0,0,0,1.72,1.87c.46.24,1.26-.15,1.91-.26-.45-.56-.93-1.1-1.34-1.68S857.65,184.09,857,183Zm-3.58-9.9-1.21.91,3.19,3.3.8-.66Zm-2.9,12.27a2,2,0,0,0-3.33,1.44,29.54,29.54,0,0,0,.23,4.28c1.36,0,2.49.06,3.62,0,1.61-.11,3-.81,2.23-2.62A8.5,8.5,0,0,0,850.5,185.36Zm-5.49,18,2.45,1.21.62-.37-.6-2.13ZM861.37,201c.5-2.12.83-3.52,1.29-5.51-1,.81-2.37,1.34-2.52,2.1S860.8,199.61,861.37,201Zm-2.76-53.5c-1.27,4.33-1.27,4.33.35,5.21.22-.79.44-1.55.6-2.1,2.09-.78,4.66,0,5.8-2.31Zm-3.24-9.65c.54.51,1,1.29,1.64,1.47,1.75.49,2.91,1.26,2.93,3.66l3.51-3.39c.26-1.42.49-2.4.59-3.39a4.16,4.16,0,0,0-.31-1.31c-.39.2-.91.3-1.14.62-.76,1.06-1.42,2.19-2.15,3.36-1.57-.41-3.53,0-3.48-2.48Zm-3.3,7.9,1.91,2.09,1.14-3.51-.82-.38Zm1.92,2.13c-1.61-.25-1.92,1-1.67,2,.15.58,1.36.89,2.09,1.32l.43-.53C854.56,149.75,854.28,148.84,854,147.92ZM842.61,159l12.09,2.9.31-.71c-1-1.63-2.07-3.27-3.3-5.22l2.31.21c-.82-1.23-1.47-2.32-2.26-3.31-.25-.3-1.06-.56-1.28-.39a1.84,1.84,0,0,0-.66,1.38,6.93,6.93,0,0,0,.48,1.76l-3.95,2C845,155.93,844,157.2,842.61,159Zm2.57,2.25-1,.84,1.32,3.16,2-2.24Zm-2.87,6.94,0,.47c1.12.19,2.23.46,3.36.54a2.22,2.22,0,0,0,1.42-.57,1.14,1.14,0,0,0-.14-1.1,2,2,0,0,0-1.44-.45A31.4,31.4,0,0,0,842.31,168.16Zm-1.92,6.29.58-.06,2.46-3.42-.26-.53c-.73.41-1.71.65-2.11,1.27A8.48,8.48,0,0,0,840.39,174.45Zm-.94,30.89c2.62,1.06,3.87-1,5.44-2C843,203.37,841,202.89,839.45,205.34Zm-3.15-14.89a6.7,6.7,0,0,0-.09,2.38l.78.07,1.78-2.64C837.58,190.33,836.41,190.17,836.3,190.45Zm1.87-8.6c-2.29.48-4.35.85-6.36,1.42-.36.1-.49,1-.72,1.59.48.16,1,.55,1.42.43a26.68,26.68,0,0,0,3-1.3l1.94,2.46C837.71,184.65,837.92,183.4,838.17,181.85ZM813.39,168l1.31.42c.3-.88.63-1.74.84-2.63a9.33,9.33,0,0,0-1.37-.49Zm1.29,18.85c-.85-.54-1.74-1-2.62-1.49l-.66,1.13,2.66,1.54C814.27,187.59,814.71,186.84,814.68,186.82Zm.92-10.62c-1,.65-2.71,1.33-2.7,2,.07,2.3-.78,1.94-2.4,1.57-.92-.22-2.06.53-3.1.84.28.8.52,1.6.85,2.38s.79,1.65,1.19,2.48l1-.81c.58-.91,1.17-1.82,2-3.07.39,1,.63,1.62,1.16,3a57.7,57.7,0,0,0,2.58-5.79C816.38,178,815.81,177.05,815.6,176.2ZM821,193.4l-.38-.57-3.28.85c1.08.78,1.78,1.5,2,1.38A8.79,8.79,0,0,0,821,193.4Zm5.16-9.62,4.53-1.74-.95-2.73c3.85,2,3.85,2,3.78-.62l3.2-1.59v-.67c-.94-.25-1.9-.46-2.81-.78-.75-.27-1.72-.49-2.11-1.06-3.92-5.76-10.37-5.36-16.19-1.68l3.6,2.67a4.77,4.77,0,0,0-.7,1.9c0,.33,1.42.91,1.49.83a28.47,28.47,0,0,0,1.88-3l4.76,1.1v.72a14.87,14.87,0,0,0-2.54,1.13c-.84.55-1.92,1.19-2.2,2-.84,2.42-1.77,1.32-2.73.12-.85,1.75-.57,2.41.89,2.26a8,8,0,0,0,2-.84C824.24,180.85,825.86,181.65,826.14,183.78Zm2.89.69-3.14,1.11.39,1.13,3.14-1.11Zm.65,7.59a12.67,12.67,0,0,0,1.25-2.88c.18-.42.43-.81.65-1.22-.53,0-1.27-.22-1.56,0-2.14,2-5,3.51-4.19,8A51.16,51.16,0,0,0,829.68,192.06Zm3.64,4.86c-2.42-.49-2.82,1.53-3.68,3.21,2.09,1.3,3,1.28,3.55-.2A6.19,6.19,0,0,0,833.32,196.92Zm2.11-3.41-3.44-1-.48.6a6.76,6.76,0,0,0,1.85,1.38C833.76,194.65,834.4,194.05,835.43,193.51Zm2.4,12.35L834,203.3l-.37.68,2.8,3.42C836.76,207.05,837.29,206.45,837.83,205.86Zm.43-2.44c2-4.37,1.89-4.24-.51-5.36-1.89-.88-2.49-.08-3,1.55C833.81,203.11,837.33,201.59,838.26,203.42Zm8.47,11.84c-2.4,1.89-3.46,1.87-5.69,0l-2.69,1.06c1.07,1.5,4.6.67,3.63,4.82,1.31-.64,2.13-1,2.86-1.43.44-.28.67-1,1.11-1.13C848.82,217.54,848.88,217.38,846.73,215.26Zm4.46-6.34-6.83,1.87C847.4,212.81,849.33,212.25,851.19,208.92Zm4.46,29.92c-.87-.48-1.73-1-2.61-1.44-.6-.32-1.22-.63-1.83-.94l-.79.43,3.13,4.16Zm5.54-1.93c-.41-1.41-.83-2.82-1.12-3.82h-4.6l-1.17,0c.18.45.24,1.08.57,1.3a12.32,12.32,0,0,0,2.44,1.13C858.59,236,859.9,236.46,861.19,236.91Zm4-21.15-.86-.55c-.72.94-1.45,1.87-2.3,3-.33-.82-.56-1.42-.88-2.22-2.41.39-4.26,0-4.92-2.86-.64,1.11-1.44,2.36-1.1,3.07s1.76,1.14,2.77,1.52a23.53,23.53,0,0,0,2.7.6c.89.21,2.18,1,2.56.63A12.53,12.53,0,0,0,865.22,215.76Zm3.29,51.35a1.86,1.86,0,0,0-1.89-2.11Zm2.46-23-4.59-.54-.16,1.46,4.64.32C870.9,244.91,870.94,244.49,871,244.08Zm4.7-1.89-3.83-1.06-.41,1c.77,1.2,1.49,2.62,3.37,1.84C875.26,243.81,875.39,242.82,875.67,242.19Zm.72-5.2-3.63,1.91,3.44,1.45C876.27,239,876.32,238.28,876.39,237Zm3-66,.69-.77-3.24-3.1C876.51,170.4,877.14,171.09,879.41,171Zm1.63,24.8c.35-.55,1-1.12,1-1.64a33.59,33.59,0,0,0-.84-4.26c-3,.88-1.07,3-1.49,4.44C879.6,194.61,880.57,195.25,881,195.75Zm1.75,48.81v-4.51C881,242.52,880.94,243.15,882.79,244.56Zm4.51,28-3.85-.91c-.17.33-.33.66-.5,1l2.3,1.13-.48.55-2-.23C885.13,275.83,885.68,275.64,887.3,272.57Zm2.11-31.73-3.29,1,1.65,2.49ZM890.67,212c.8-2.07,1.64-4.13,2.38-6.22a1.36,1.36,0,0,0-.37-1,9,9,0,0,0-3.55.31,2.91,2.91,0,0,0-1.15,2.33c0,.64.88,1.27,1.76,2.41v2Zm3.17,23.82a32.55,32.55,0,0,0-1-3.12c-.12-.28-.71-.36-1.09-.53-.06.41-.32.95-.15,1.22a30.45,30.45,0,0,0,2,2.58Zm7.87-.68L895,230.94c.36,2.61-.55,4.8,1.81,5.93C898.88,237.87,900.3,236.62,901.71,235.15Zm2.89,1.59-3.39,1.82,2.87,1.42C904.26,238.82,904.4,238,904.6,236.74Zm5.6-13.6,2.29.64a19.6,19.6,0,0,1,.66-2.56c.76-1.9.57-2.65-1.39-4.13l.25,3.63-.5,0c-.59-1.62-1.18-3.24-1.54-4.26-1.91,1.28-3.44,2.36-5,3.35-2,1.25-2.05,1.62-.06,3.47.25-.9.48-1.7.9-3.16.58,1,.83,1.54,1.16,2,.87,1.25,1.73,2.52,2.7,3.7.22.27.86.21,1.3.3a6.8,6.8,0,0,0,.11-1.49C911,224.36,910.72,224.06,910.2,223.14Zm7.3-.11a32.76,32.76,0,0,1,5.58-2.32c-2.65-3.94-7.48-6.26-10.29-5.05,1.43,1,2.73,2,4,2.85-.85,2-1.68,3.87-2.53,5.81l-1.7-.48c.12.84.23,1.68.34,2.52l.81.44C914.94,225.52,916,224,917.5,223Zm4.15,28.34h-4.89l1.91,1.7Zm3.79-24.55c-1.06.58-3,1.32-3,1.71.56,3.34-1.44,2-3,1.95-.64,0-1.31.7-2,1.08a15.65,15.65,0,0,0,1.89,1.12,2.55,2.55,0,0,0,1.23,0c1.73-.2,3.45-.43,4.72-.59,0-1.13,0-2.61,0-4.09C925.37,227.61,925.41,227.21,925.44,226.82Zm4.75.75a6.59,6.59,0,0,1-1.87-1.1c-1.21-1.45-2-1-2.83.31l4.45,1.51Zm-.29-81.33a13,13,0,0,1,.9,1.94c.21.77.05,2.13.42,2.27a8.59,8.59,0,0,0,3,.11C932.88,148.49,932.66,145.85,929.9,146.24ZM929.43,202l-.51.07c.2.82.41,1.63.61,2.45-.72.75-1.51,2.05-1.2,2.41a4.51,4.51,0,0,0,5.42,1.22Zm-204.7-83.73-.62-4.11C722,115.48,722.06,115.87,724.73,118.23Zm61.69-18.39L792,101C789.37,98,788,97.7,786.42,99.84Zm40.41,45.81L823,147.1l3.58,1.91C826.69,147.84,826.74,147,826.83,145.65Zm-11.18,2.17c-.15,2.7,1.84,2.29,3.33,2.55-.06-.79-.11-1.58-.17-2.37Zm3.33,2.57a33,33,0,0,1-3.09,1.28,24,24,0,0,1-3.16.5l3.8,2.26,1.81-1.5c1.1,1.93,2.48,2.43,4.31.83,0-.85-.09-1.77-.13-2.7l-.55-.31-1.18,1.85L819,150.42l0,0,0,0Zm-9.07,15.25c-.51.82-1,1.63-1.77,2.81C810.5,168.29,811.16,167.57,809.91,165.64Zm-79-109.22,0,0h0Zm97.63,87.72a11.33,11.33,0,0,0,2.36-2.15l-.46-.45-4.06.55C827.35,143,828.31,144.27,828.55,144.14Zm-27.84,23.47c1.68.14,2.9.56,3.91.26,1.21-.35,2.88-1.11,3.19-2.07.54-1.62-1.15-1.25-2.16-1.3a3,3,0,0,1-1-.27c-2-.85-3.49-.92-3,1.92l-2.16.48Zm33.19-13.38,2-6.13-3.13,1.48c.26,1.65.48,3.1.71,4.55Zm9.9-26.6-.73.35c.37,1,.75,2,1.12,3C845.9,129.28,845.31,128.32,843.8,127.63ZM830.21,146a6.2,6.2,0,0,0-.09,2.41l.73.4-4,3.14,2.92,3.61c1-2.94,2-5.26,2.64-7.64.2-.7-.24-1.59-.39-2.39C831.42,145.69,830.36,145.66,830.21,146ZM819,150.38h0v0ZM752.31,70.12l2,1.4,3.38-2.34C755.74,68.7,753.82,67.9,752.31,70.12Zm5.84-16.61-.77-.78-3.92,3.7.93.94Zm-12.78,7.9,2.31,5.27c2-1.11.14-3,.79-4.48Zm4.38-33.06-5.47-7.09c-1.81,1.89-1.78,3.24.57,4.35.69.33,1.09,1.23,1.7,1.77s1.59,1.21,2.39,1.81ZM806,173.23c.36-1.28.58-2,.94-3.34l-3.5.92ZM774.5,2.53,768.76.69C770.44,4.07,772,4.55,774.5,2.53ZM761.64,80.22l4.91,3.14C765.55,79.75,764.06,78.84,761.64,80.22ZM759.4,98.43a1.13,1.13,0,0,0,1,.49c1.09-.41,2.13-1,3.19-1.46l-.3-1c-1.21.29-2.43.54-3.61.92C759.46,97.46,759.27,98.17,759.4,98.43Zm.08-16.26c-2-2.26-4.36-2.42-7.07-.33Z" transform="translate(0.96)"/>
    <image id="bridge_Imageremove" data-name="bridge Imageremove" width="1870" height="1385" transform="translate(0.96) scale(0.5)" xlink:href="bridge_october1.png"/>
  </g>
  
  <g id="path_Image" data-name="path Image">
    <g id="path_Imageremove_hc" class="hc" data-name="path Imageremove_hc">
      <path d="M178.5,689.51c.46-4.12,1-8.23,1.37-12.36,1.17-12.4,2.47-24.8,3.38-37.22.57-7.86.55-15.77.78-23.66.15-5.06.58-10.14.34-15.18-.32-6.63-.91-13.28-1.87-19.85-1.1-7.56.17-14.9,1.12-22.3q3.13-24.36,6.29-48.7c.43-3.29.93-6.58,1.19-9.89a4.92,4.92,0,0,0-.83-3.12c-2.48-3.23-5.19-6.28-7.72-9.48a7,7,0,0,1-1.43-3.06c-1.8-12.06-1.39-24.16-.46-36.27.46-5.88.6-11.78.93-17.67.06-1.13.29-2.24.54-4.11,1.71,3.28,4,2.67,6.39,2.53,2.14-.12,4.33.58,6.49,1a1,1,0,0,1,.62.7c.07,1.49.53,3.19,0,4.44-.91,2.1-.15,3.13,1.7,4-1.24,1.89-.51,3.17.82,4.61,3.32,3.59,6.45,7.37,9.65,11.07,2.31,2.68,4.4,5.6,7,8a126.17,126.17,0,0,0,9.89,7.93c3.43,2.61,7,5.1,10.43,7.65,3.73,2.74,7.49,5.44,11.17,8.25q8.5,6.48,16.91,13.1a98.11,98.11,0,0,1,8.53,7.07c4.42,4.37,8.5,9.09,12.85,13.53,6.51,6.65,13.22,13.1,19.68,19.79,4.4,4.55,8.5,9.4,12.8,14a69.69,69.69,0,0,0,6.34,6.29,155.59,155.59,0,0,1,19.46,20c1.64,2,3.95,3.33,5.69,5.21,5.52,6,10.78,12.21,16.4,18.09,6.6,6.9,13.51,13.51,20.21,20.31,2.68,2.71,5.17,5.61,7.78,8.39,5.92,6.33,11.64,12.89,17.91,18.86,3.19,3,7.38,5.06,11.13,7.52,3.59,2.34,7.29,4.54,10.77,7,1.6,1.14,3.51,2.45,2.89,4.9.75.24,1.78.26,2.2.77,5.78,7,11.48,14.17,17.2,21.28H178.5Zm53.11-81.67.25-.63,8.1,3.28-.23,1.16c-1.52-.21-3.46.09-4.44-.74-1.62-1.37-2.34-1-3.33-.25l-8.29,1.21a5.53,5.53,0,0,0,3,.58l7.14-.14c3.43-.06,6.87,0,10.29-.24.59,0,1.66-1.36,1.54-1.84-.3-1.19-1.15-3.16-1.8-3.17-1.81,0-2.23-.85-2.59-2.37l2.7.13c-.21-2.41,1.19-2.58,3.12-2.7,7-.47,13.92-2.13,21-1.74a10,10,0,0,0,3-.31,13.49,13.49,0,0,0,2.42-1.21c-4.47-.26-8.36-.48-12.24-.73-.49,0-1.25,0-1.4-.32-1.27-2.36-3.44-1.54-5.32-1.56-3.23,0-6.48-.08-9.69.19-1,.09-2.75,1.07-2.85,1.81-.47,3.62-4,2.8-5.77,4.86-.14.4-.31,1.84-.75,1.94a22.78,22.78,0,0,1-4.53.11Zm39.1-.27c6.94.25,13.32-1.87,19.88-2.12-5.82-2.73-11.93-3.41-18.17-3.35-3.08,0-6.16-.07-9.23-.05a15,15,0,0,0-2.27.39,9.21,9.21,0,0,0,1.41,2.41c1.66,1.53,3.78,1.59,5.92,1.37.17,0,.37.18.65.32l-1.64.6,2.53,2Zm-17.3-39.27c-1-.76-2.17-1.22-2.56-2.06-.71-1.49-1.48-1.3-2.78-1a63,63,0,0,1-6.3,1c-.8.12-1.59.3-2.39.45l-.14,1c3.84.44,5.57,5.85,10.5,3.82a1.58,1.58,0,0,1,1.43.23c2.13,2.26,4.8.6,7.22.92l-4.73-.93,1.32-1.74-2.53-.46Zm.77,39.88c.2.26.45,1,.88,1.08a21.28,21.28,0,0,0,9.58.65c.4-.06.71-.75,1.05-1.16-.4-.34-.79-1-1.21-1a34.55,34.55,0,0,0-3.94.09Zm-33.34-38.07a15.34,15.34,0,0,0-.36-3.35c-.24-.71-1-1.24-1.49-1.86a9.9,9.9,0,0,0-.9,2.83,36.54,36.54,0,0,0,.6,4.79h3.94Zm21.6,72.21.18.72,8-2.19C247.31,638.28,246,638.63,242.44,642.32Zm-29.79-76.55-6.15-1.52v3.41l.51,0,1.24-1.81c.36.55.55.9.79,1.22s.51.57.76.85l.13-.59h2.91ZM223,603.21c-1.73-.17-3.23-.42-4.73-.43-2,0-2.17.32-1.32,1.93a17.3,17.3,0,0,1,2.82.27C222.05,605.56,222.94,605.09,223,603.21Zm24-44.76c-.09-.84.09-1.83-.31-2.22s-1.49-.52-2.27-.74c0,.63-.29,1.38,0,1.86,1.11,2.12,2.8,2.88,5.76,1.61Zm-42-.72a28.44,28.44,0,0,0,.73,3.32,1.66,1.66,0,0,0,1.19,1,1.74,1.74,0,0,0,1.29-.9C208.82,559.65,206.83,557.48,205,557.73Zm33.88-12.2L238,546c.58,1,.95,2.31,1.82,2.94s2.21.55,3.75.87ZM192.8,600.89l.09-.76-5.91-1C188.83,601.43,190.56,602.18,192.8,600.89ZM276,658.22l.07-1.14-6.13-.43-.07,1.19Zm-67.91-88.7c-2.54.37-2.69,1.66-2.42,3,.09.43.86.73,1.31,1.09Zm42.17,51.08-1,.22c0,1.2-.07,2.41,0,3.6,0,.31.61.69,1,.8.19,0,.8-.49.77-.69C250.82,623.21,250.5,621.91,250.23,620.6Zm-44-8.86.37.74,5.08-2.57C208.22,608.17,207.86,611.21,206.21,611.74Zm13.12-29.64-.19-.65c-3.54-.62-4.16-.42-4.39,1.78Zm-7.35-12-1.35.31c.37,1,.7,1.95,1.15,2.88.05.09.82-.17,1.26-.27Zm44.69,33.44-.19-1.19-4.27.59.1,1ZM235.74,636l.86-.24-1.53-5-.78.2Q235,633.44,235.74,636ZM259.59,659c-1.7-3.37-2.21-3.68-5-3.51Z"  transform="translate(0.96)"/>
    </g>
    <image id="path_Imageremove" data-name="path Imageremove" width="555" height="533" transform="translate(178.96 426) scale(0.5)" xlink:href="bridge_october3.png"/>
  </g>
  <g id="water_Image" data-name="water Image">
    <g id="water_Imageremove_hc" data-name="water Imageremove_hc">
       <path d="M431.05,663.37l0,0h0v-.07Zm0,0,0,0,0,0Zm505,23.32v5.59H493a25.66,25.66,0,0,1-4.63.44,27.22,27.22,0,0,1-7.58-1.08,2.42,2.42,0,0,1,.25.64h-25.5c-4.89-5.95-9.73-11.93-14.69-17.82-3.18-3.78-6.53-7.42-9.81-11.12h0a4.92,4.92,0,0,0,.63-.66l-.58-.43-.07,1.05c-.45-.73-.9-1.46-1.42-2.32l-.24-.22-1.54.58-.69-2.12a25.89,25.89,0,0,1-6.18-2.49l-.44.68c-3.06-2-6.47-3.68-9.1-6.17a142.44,142.44,0,0,1-11.29-12.5,5.32,5.32,0,0,1-.58-.85,25.61,25.61,0,0,1-2.29-2s0,0,0,.05l-.11-.17a28.15,28.15,0,0,1-3.32-3.9,29.42,29.42,0,0,1-9-9.35l-.11-.19c-8.67-7.16-22.29-20.94-23.87-25l1.07.65c-1.47-1.92-2.84-3.78-4.14-5.29-1.66-1.91-3.33-3.81-5-5.68a31.68,31.68,0,0,1-4.11-2.95c-4.64-2-6.93-6.46-10.28-9.81l.62-.65c1.55,1.68,3.06,3.39,4.66,5q-.36-.5-.69-1a19.27,19.27,0,0,1-1.3-2.42c-1.21-1.24-2.42-2.48-3.65-3.7l-1.24.3c-2.93-2.88-5.76-5.6-8.51-8.38a6.1,6.1,0,0,1-2-3.24q-4.83-4.45-9.77-8.76a5.49,5.49,0,0,1-1.81-2.74c-.67-.23-1.44-.56-2.45-.89l2.1-1.09c-.13-.1-.27-.3-.36-.29-2.8.54-3.94-1.83-5.47-3.28-7.18-6.8-14.36-13.59-21.33-20.6-5.65-5.7-11-11.71-16.48-17.58a46.64,46.64,0,0,1-10-9.74,5.07,5.07,0,0,1-.36-.54A6,6,0,0,1,258,493.4a51.55,51.55,0,0,1-4.43-4.44c-4.08-.61-7.46-3.35-10.89-5.87-5.87-4.32-11.7-8.68-17.55-13L225,470a5.23,5.23,0,0,1-1.77-1.28,77.91,77.91,0,0,1-6.86-5.22c-1.59-1.42-2.56-3.53-4-5.65,4.48-1.73,8.25-2.63,12.14-.08a6.18,6.18,0,0,0,2.3.76c.23,0,.46,0,.7,0a6,6,0,0,1,2.78.64,22.86,22.86,0,0,0,3.85.4,40.66,40.66,0,0,0,8.1-.78c.81-.16,1.31-1.7,2-2.54.53-.64,1.18-1.67,1.78-1.68,2.47,0,4.94.3,7.4.41,1.29.06,2.58,0,3.87-.1,2.81-.12,5.61-.32,8.42-.34.52,0,1,.75,1.57,1.09a9.6,9.6,0,0,0,2.11,1.14c1.76.53,3.61.82,5.36,1.4,2.31.77,4.62,1.59,7,2.15l4.1.17c1.34.06,2.68.13,4,.22,2.6-.44,5.15-1.28,7.76-1.64,1.26-.17,2.62.4,3.94.64,0,.34-.07.69-.1,1l-6.43.42q5.31.54,10.54,1.42a170.7,170.7,0,0,1,30.23.77c1.48,0,2.94,0,4.4.1a4.09,4.09,0,0,1,1.67.61l2.28.3a26.19,26.19,0,0,1,5.95-.81,130,130,0,0,1,16.16.74c2-1.5,3.91-3.45,6.92-2.46.54.17,1.37,0,1.66.35,2.81,3.28,6.69,3.36,10.52,3.65a1.87,1.87,0,0,1,1,.22c5.12,3.72,10.92,1.94,16.46,2,2.79,0,5.59-.68,8.38-.65a5.08,5.08,0,0,1,3.49,1.65c2.82,3.47,4.63,4,8.74,2.89a5.23,5.23,0,0,1,3.83.91,4.08,4.08,0,0,0,3.59.86c.91-.19,2.13.68,3.1,1.26a29.89,29.89,0,0,1,3.87,2.72c1.79,1.52,3.91,2.39,4.84,5.19.63,1.91,1.42,5,4.72,5.39.81.09,1.44,1.29,2.28,1.74,1.45.77,3,1.37,4.54,2,.37.16.87.09,1.2.31,1.84,1.22,3.84,4.33,4.91-.73a2.28,2.28,0,0,1,3.58.32,2,2,0,0,0,1.56.76c2.87-.44,2.87-.49,5.29,1.42-.23.86-.48,1.77-.75,2.77,2.53.2,4.91.9,6.29-2.11.25-.55,2.32-.87,3.14-.46a5.93,5.93,0,0,0,6.26-.29c1.52-.94,2.15-.12,2.31,1.32.28,2.65.54,2.8,3.17,2.14a12.38,12.38,0,0,1,2.73-.19c1.48,0,2.71-.26,2.51-2.2a1.14,1.14,0,0,1,.23-.91c2.4-1.86,4.84-3.67,7.26-5.49l.73.23c0,3.26,0,6.51,0,9.77,0,1.91-.16,3.81-.26,5.71-.12,2.26.84,3.31,3.17,3.82,14.56,3.19,29.07,6.55,43.6,9.85l111.55,25.3c14.28,3.24,28.54,6.57,42.85,9.68a4.77,4.77,0,0,1,4.18,4.07c1.45,6,1.56,5.82,7.64,6.49,20.67,2.31,41.48,3.91,61.66,9.13,10.93,2.83,21.52,7,32.23,10.6,17.08,5.83,34.13,11.78,51.22,17.6a14.24,14.24,0,0,0,4.44.41c16.57-.1,33.15-.48,49.72-.22,6.53.1,13,1.58,19.55,2.44v79.43A6.86,6.86,0,0,1,936.05,686.72ZM410.5,646.33c-.34-.59-.67-1.19-1-1.81-.44-.24-.89-.49-1.32-.76A17.2,17.2,0,0,0,410.5,646.33Zm4,5.42a25.53,25.53,0,0,1-2.07-2.45l-.92.14Z" transform="translate(0.02)"/>
    </g>
    <image id="water_Imageremove" data-name="water Imageremove" width="1450" height="530" transform="translate(210.96 427.5) scale(0.5)" xlink:href="bridge_october4.png"/>
  </g>
  <g id="beyond1_Image" data-name="beyond1 Image">
    <path d="M220.54,453.37c.14.31.27.62.4.93a12.38,12.38,0,0,1-2.6,1.19,60.28,60.28,0,0,1-6.28,1c-2.47.25-3.87-1.34-5.45-3.38,2.26-.61,3.67-.62,5.53.46,1.58.92,4.07.33,6.16.31A11.24,11.24,0,0,0,220.54,453.37ZM469,353.88Zm-226.13,99c-2.7,1.75-5.55,1.65-8.49,1.08-1.47-.29-2.34.1-2,1.77.15.83.43,1.64.63,2.37,1.44-.74,2.6-1.31,3.72-1.93,2.66-1.45,2.8-1.38,2.88,2.15,1.09-.46,2.06-.6,2.57-1.15a53.63,53.63,0,0,0,3.3-4.35C244.6,452.84,243.49,452.5,242.87,452.9Zm11,1.92c1.14.55,2.34.77,3.29-1.72l-3.67.33C253.6,453.91,253.58,454.69,253.86,454.82Zm-10.28-25.2v.61h12.31A31.14,31.14,0,0,0,243.58,429.62ZM439.17,334l-.42.06V356h.42ZM503.76,474.4a52.13,52.13,0,0,0-1,8.25c-.11,2.23-.27,4.55-.42,6.9a9.56,9.56,0,0,1-1,.73c-2.28,1.4-3.9,3.85-5.8,5.86-.1.11-.09.43-.18.44-2.55.47-5.11.93-7.68,1.26a6.82,6.82,0,0,1-.47-2.14c0-1.53-.81-2.23-2-1.26-2,1.67-4.1.9-6.09.51s-3.26-.63-4.4,1.42c-1.29,2.34-3.44,1.16-5.29.92a19.75,19.75,0,0,0-.59-3.6c-.17-.48-1.34-1.14-1.58-1-2.67,1.68-4.64-1.89-7.09-.84a2.85,2.85,0,0,0-1.13,1.73c-.49,1.71-1.28,1.59-2.55.73a23.15,23.15,0,0,0-4-2.25,22.44,22.44,0,0,1-8.83-6.09,2.57,2.57,0,0,1-.57-1.6c.06-2,0-3.72-2.56-4.33-.72-.17-1.11-1.69-1.73-2.72-2.44,1-3.82-.55-5.36-2.22-.75-.82-2.46-1.65-3.29-1.33-1.63.64-2.46,0-3.46-.9-1.58-1.45-3.08-2.42-5.1-.37-1.58,1.61-5.15.16-6.27-1.89-2.15-3.92-5.18-2.76-8.21-2.5-1.65.13-3.29.57-4.93.6-4,.07-8,.08-12-.12-1.16-.05-2.26-1-3.42-1.4a18.69,18.69,0,0,0-3.25-1c-3.19-.54-6.6-.42-8.86-3.41a2.3,2.3,0,0,0-1.55-.63c-4.07-.26-8.13-.6-12.2-.64-9.66-.09-19.31,0-29,0-9.16-.07-18.32-.17-27.47-.48a9.37,9.37,0,0,1-5-1.86,3.1,3.1,0,0,0-3.64-.38,22.26,22.26,0,0,1-11.48,2.47c-4.34-.2-8-2.06-11.88-3.58a5.66,5.66,0,0,0-2.29-.68,3.89,3.89,0,0,1-3.85-1.68c-.54-.68-1.82-.91-2.8-1.06-1.44-.22-2.91-.17-4.89-.27l1.44-2.47c1.32,2.06,2.78,1.84,4.64,1.44,3-.63,6.22-.65,9.32-1.05a8.13,8.13,0,0,0,2.24-1c-.65-.49-1.28-1.37-2-1.4-3.92-.18-7.86-.19-11.79-.2-4.33,0-8.66,0-13,.07-.91,0-1.81.19-2.72.18-2.23,0-4.45-.15-6.68-.22,0-.44,0-.89,0-1.33l19-.73,0-1a29.16,29.16,0,0,0-4.71-.53c-7.79.36-15.4-.9-23.07-2.05-5.63-.84-11.41-.67-17.13-.95-2.9-.15-5.8-.43-8.7-.41-1.07,0-2.13.73-3.21,1.07-.92.29-1.87.5-2.81.74l-.55,1.08a18.36,18.36,0,0,1-1.42-2.31,1.52,1.52,0,0,1,.07-1.34c1-1.07.94-.93-.32-1.85-1.54-1.11-3.77-2-2.06-4.64a.81.81,0,0,0,.05-.71c-1.68-3.12.35-3.36,2.7-3.76a57.24,57.24,0,0,1,18.24-.1,24.92,24.92,0,0,0,3,.23c4.3.12,8.61.37,12.91.25,2.15-.06,4.28-.82,6.43-1.23a1.72,1.72,0,0,1,1.26.26l-4.35.73,0,.24,3.38.33c0,.28,0,.56.07.84a40,40,0,0,0-4.51.55,3.33,3.33,0,0,0-2.12,1.37,3.5,3.5,0,0,0,.23,2.6c1.94,4,5.82,3.1,9.19,3.33.37,0,1-.63,1.12-1.05.43-2.39.72-4.8,1.1-7.48,3.35-1.22,16-.41,16.77.7,2.17-.37,4-.8,5.84-.95a39.75,39.75,0,0,0,5.72-.47h-8.69v-.13H278.4c.15,4,1.58,5.35,5.36,5.44.66,0,1.52-.18,2,.15,2.64,2,4.87.1,7.13-.76.59-.22,1.07-1.57,1.06-2.4,0-2.73-.29-5.46-.45-8.19-.12-1.92.83-2.68,2.71-2.68,4.16,0,8.33-.19,12.49-.11.87,0,1.73.88,3.1,1.63,6-1.82,12.64-.66,19.31-.51,4.78.11,9.57-.47,14.35-.65,3.83-.14,7.66-.2,11.49-.15a2.86,2.86,0,0,1,1.76,1.24c.91,1.24,3.27,1.84,4.34.71,3.23-3.42,7.05-1.81,10.74-1.48a14.25,14.25,0,0,0,2,0c2.73-.13,5.47-.42,8.2-.34.72,0,1.45,1.09,2.12,1.74s1.07,1.1,1.59,1.67l1,.1,2.12-2-2.52-.65c3.86-.19,7.77-1.94,11.36,1.09,1.93,1.63,7.77.86,10-.4,3.83-2.2,7.88-4,11.73-6.14a63.29,63.29,0,0,0,7.15-4.8c1.64-1.25,3-2.86,4.53-4.25,2.17-2,1.54-4.64,1.78-7s.68-3.56,1.77-4.08c1.41-2.78,3.13-5.38,3.39-8.78.08-1.15.1-2.3.08-3.45-.44,0-1,.13-1.78.25.24-2.39-1.15-4.49,0-7.11.81-1.83.38-4.26.29-6.41-.12-2.73-.61-5.44-.64-8.17a34.26,34.26,0,0,1,.77-5.48l.68,0c0,2.85,0,5.69,0,8.54,0,3.71-.17,7.43-.07,11.14a2.89,2.89,0,0,0,.44,1.27c-.11-1.84-.2-3.67-.14-5.51.18-6,1.41-11.87,1.52-17.86a121.22,121.22,0,0,0-1.45-18,4.1,4.1,0,0,1,1.44-3.49c-.54-1.22-1.07-2.44-1.6-3.65-2.64-5.93,4.76-10.2,8.63-5,3.75,5,7.54,10.21,11.54,15.26l1.56.53a7.6,7.6,0,0,1-.59.68c1.79,2.22,3.62,4.41,5.51,6.51a5.5,5.5,0,0,1,.9-.31l-.69-2.24c1.76,0,3.73,3.52,4.07,7.07.75.75,1.5,1.47,2.27,2.19a1.36,1.36,0,0,1,1.25,1.14c3.82,3.41,7.71,6.35,10.08,11.08a38.42,38.42,0,0,1,3.18,10,23.85,23.85,0,0,1,2.16,1.75c.43.41.86,1.36.67,1.78s-.48,1-.72,1.45c.17.28.33.57.49.86l.06-.28c1.25,1.61,2.45,2.64,3,4a57.29,57.29,0,0,1,4.48,16.73c.34,3.69,2.52,7.17,3.51,10.85,1.45,5.38,2.29,10.86,1.13,16.46a5.29,5.29,0,0,0,0,1.86c.67,4.46,1.9,8.91,1.95,13.37C504,455.92,503.87,465.16,503.76,474.4ZM210.24,433.69c-1.22-1.87-5-2.16-7.35-.72C205.1,435.12,207.58,433.49,210.24,433.69Zm12.11-.8a1.85,1.85,0,0,0-1-1.48,7,7,0,0,0-2.64.16c-2,.33-3.92.72-5.82,1.08.67.72,7.2,2.37,8.42,1.73A2.07,2.07,0,0,0,222.35,432.89Zm36.35.59c-1.58,0-3.55-.44-3.86.09-.64,1.1-.4,2.71-.52,4.11l.8.3Zm125.63-9.74-3.88-.28a11.72,11.72,0,0,1-.47,2.24l.9,0C381.33,424.65,382.25,424.3,384.33,423.74Z" transform="translate(0.96)"/>
    <image id="beyond1_Imageremove" data-name="beyond1 Imageremove" width="624" height="366" transform="translate(193.96 316.5) scale(0.5)" xlink:href="bridge_october5.png"/>
  </g>
  <g id="beyond2_Image" data-name="beyond2 Image">
    <g id="beyond2_Imageremove_hc" data-name="beyond2 Imageremove_hc">
      <path d="M310.31,423.43a41.34,41.34,0,0,1,4.89-.61h-2.55A4.62,4.62,0,0,0,310.31,423.43Z" transform="translate(0.96)"/>
      <path d="M338.08,424.14l-.65.12c2.71,0,5.4.14,7.83.14,1.67,0,3.56-.1,5.52-.16-.12-.07-.24-.14-.37-.2C346.3,424.18,342.19,424.19,338.08,424.14Z" transform="translate(0.96)"/>
      <path d="M437.65,388.16a4.08,4.08,0,0,0-5.89-3.68,19.62,19.62,0,0,1-4.46.83c.2-6,.2-6-5.33-6.13-1.74-.06-3.5-.15-5.23-.38-1.38-.18-2.73-.61-4.1-.92l-.2.67-.71-1.51a9.72,9.72,0,0,1-2.74,1.07c-4.73.14-9.46.16-14.19.17-2.48,0-3.46-1.21-3.39-3.76.21-8.13.19-16.25.33-24.38q.35-19.42.78-38.83c.05-2.32.29-4.64.34-7,.06-2.84,0-5.68,0-8.76-2.32.72-2.16,1.89-1.7,3.42,1.25,4.12.37,5.19-3.83,4.94s-8.15-.37-12.2-.78c-1.95-.2-2.61.51-2.61,2.27,0,1.49,0,3,0,4.55-2.16.2-2.61,1.37-2.2,3.26a18.11,18.11,0,0,1,.21,4q-.53,28.25-1.07,56.51c0,.41,0,.83,0,1.24.11,1.95-.8,2.68-2.73,2.52-2.16-.17-4.33-.16-6.49-.24l-13.48-.52c-1.45-.05-2.31-.6-2.26-2.26.25-7.46.34-14.91.66-22.36q.51-11.69,1.39-23.36c.1-1.31,1.1-2.55,1.58-3.87a5.09,5.09,0,0,0,0-1.61l-.84-.13c-1,2.62-2.1,5.19-2.79,7.87-.42,1.67-1.25,1.91-2.65,1.79-2.16-.17-4.32-.35-6.48-.4-1.91,0-2.87.68-2.53,2.9.18,1.16-.5,2.45-.8,3.68a7,7,0,0,0-.36,1.64c0,2.3.21,4.61.18,6.92-.09,8.38-.23,16.76-.37,25.14-.05,3-.6,3.58-3.77,3.5-6.57-.16-13.13-.39-19.69-.59-16.23-.49-32.46-1-48.69-1.42a9.21,9.21,0,0,1-7-3.11c-.84-.9-2.58-1.77-3.62-1.51-1.74.44-3.22,1.83-4.84,2.76a8.34,8.34,0,0,1-1.6.53,12.56,12.56,0,0,1-.39-1.58,17,17,0,0,1,0-1.89l-1.52,1.33c-.46-.85-.59-2.08-.14-2.36,1.71-1,3.37-.57,4.72.86,2-2.61,4.86-1,7.44-1.65-.81-1-2-1.53-2.6-2.43s-.76-2.24-1.27-3.94l-6.64,1.66a32.36,32.36,0,0,0,4.69-2.66c1.26-1,2.25-1,3.26.05,1.63,1.66,3.1,1.68,4.16.3l-.39-4.7-3.14,2.53-1-2.87-3.29,2.28c.1.21.21.41.32.62H240.9a4.59,4.59,0,0,0-.65,1.17c-.57,2.13-1.95,1.71-2.89.64a4,4,0,0,1-.41-3,19.6,19.6,0,0,1,1.38-3.64l1.77,1,3.51-2.85-3.28-.63,2.42-2.56,1.83.4,1.17-1.94-2.5-1.34c-.32.52-.59,1-.58.95L238,347c-.63-1.6-1.79-1.42-3.3-.69-.78.37-1.85.16-3.06.24,1.13-3.23,3.11-2.82,5.16-2.23-1-2.76-1.88-3-4-1.54-.65.43-1.7.28-3.16.47.78-1.24,1.1-1.76,1.51-2.4-2.2-1-1.69-2.49-1-4,1-2.17.62-4.11-.93-6.23l-3.62,2.05,2.16,1.6a6.11,6.11,0,0,1-1.51.39c-2.11-.18-4.21-.45-6.31-.62-1.73-.15-2.09-1.08-1.64-2.57l-3.64,1.19-2.48-3c-1.38,1.41-2.79,2.81-4.15,4.25-2.15,2.25-4.15,4.67-6.45,6.76-1.85,1.68-4.12,2.9-6.07,4.5-1.27,1-2.13,2.62-3.46,3.54-3.71,2.56-4.82,6.07-4.86,10.37a4.18,4.18,0,0,1-2.82,4.3c-.53.16-.82,1-1.31,1.39-.8.68-1.59,1.65-2.51,1.84-2,.4-3.47,1.44-3.31,3.36.09,1,1.63,1.93,2.52,2.89l1-.3c-.35,1.51-.34,3.27-1.14,4.49a4.32,4.32,0,0,0,.88,6.18c1.09.81,2.64,2,2.64,3.06,0,3.19,2,3.1,4,2.78,1.49-.23,2,.31,2.6,1.55a36.41,36.41,0,0,0,3.72,6.63c2.06,2.7,3.05,5.24.72,8.19a18.94,18.94,0,0,0-1.44,1.69c-.68,1.08-1.72,2.21-1.76,3.36a52.46,52.46,0,0,0,.64,7.11c-.22.08-.47.26-.68.22-2.39-.49-4.63-.74-5.87,2.12-.18.41-1.15.51-1.77.7a3.4,3.4,0,0,0-2.05,3.95,7,7,0,0,0,6.71,4.28,13.87,13.87,0,0,1,3.13.28,59,59,0,0,0,7.29,1.14l.63,0c10-2.06,21.4-1.14,31.54-.65,2.26.11,4.5.33,6.74.59,4.95-.4,9.93-.45,14.92-.44,4.52,0,9.77-.31,14.76.22l5.47,0a57.73,57.73,0,0,1,6.08.69,4.32,4.32,0,0,0,.8,3.88q.24.21.48.45a5,5,0,0,0,2,.93c2.06.47,4.1,1.06,6.18,1.42a6.06,6.06,0,0,0,2.35-.44c.7-.2,1.39-.76,2.06-.71,2,.15,2.21-1,2.05-2.52-.3-2.87-.65-5.73-1-8.59-.25-2.23.68-3.17,3-3.08,5.82.23,11.64.39,17.47.43q6.92,0,13.82.05c2.19,0,4.38,0,6.56,0,10.23-1.56,21.09-1.23,31.29-.93,3.41.1,8.25.09,12.34,1.32q8.48.12,16.94.26l.34,0-16.61-.07a13.68,13.68,0,0,1,2,.85c1.14-.15,2.55-.37,2.87-.39,3.53-.19,7.08-.22,10.61-.22s7.08,0,10.61.22c.35,0,3.76-.07,4.39.53.09.08.18.18.27.27,2-1.08,3.86-2.66,5.8-3.9,1.29-.82,2.41-1.89,3.73-2.64,1.67-.95,3.62-1.47,5.17-2.56,3.22-2.26,6.31-4.69,9.32-7.22a3.85,3.85,0,0,0,.91-2.69c0-1.47-.41-2.93-.55-4.41-.2-2-.31-3.78,2.26-4.81,1-.4,1.51-2.51,1.78-3.93S437.65,389.52,437.65,388.16ZM199,348.69l-4.14-1.92c1.82-.92,3.24-2,4.77-2.22.65-.07,1.53,1.86,2.46,3.1Zm9.71-15.2c2.76,1.84,4.19-.37,6-.85.58,1.12.69,2-.91,2.36-.85.21-1.57,1-2.42,1.18a4.36,4.36,0,0,1-2.63-.13C208.43,335.92,208.68,334.61,208.68,333.49Zm-1.79,12.66a23.8,23.8,0,0,1-.79,3.71c-.15.37-1.14.43-1.89.68.46-1.17,1.29-2.21,1-2.86-.87-2.42.92-2.58,2.33-3.05a2.4,2.4,0,0,1,1.57.18c.2.09.33.94.22,1a4.32,4.32,0,0,1-1.49.51A3,3,0,0,1,206.89,346.15Zm1.82,4.25-.67-.62a15.68,15.68,0,0,1,1.64-2c1.63-1.5,3.11-2.93,3.72-5.3.27-1,2.38-1.57,3.65-2.33l.46.64Zm134.48-9.5c-.47-.22-1.37-.51-1.35-.62a20,20,0,0,1,.83-2.59l1.29.38C343.7,339,343.45,340,343.19,340.9Zm37.26,35.28h-.36V360.9h.36Zm5-19a26.5,26.5,0,0,1-3.13-.68l-.06-.79a27.53,27.53,0,0,1,3.49-.29c.37,0,.7.74,1.05,1.14C386.31,356.8,385.84,357.24,385.41,357.2Zm.51-11.09c-.59,0-1.4-1.19-1.61-2-.11-.39.93-1.08,1.88-2.1l2.33,2.75C387.65,345.27,386.77,346.13,385.92,346.11Zm4.52-26.93c-.05.76-1.39,1.59-2.31,2.06a9.17,9.17,0,0,1-2.75.49c-1.41-1.77-.31-5.06-3.5-6.06.08,1.26.59,2.69.12,3.17a12.69,12.69,0,0,1-4,2.41c-.28.13-1.34-.62-1.45-1.1-.59-2.44-2-4.78-.87-7.48.23-.53-.34-1.4-.51-2.12-.54-2.32.07-3.08,2.45-2.87,3.45.31,6.89.75,10.34,1.07a17.68,17.68,0,0,0,2.56-.1C390.55,312.19,390.69,315.7,390.44,319.18Z" transform="translate(0.96)"/>
      <path d="M223.53,432.7a4.83,4.83,0,0,0-.43.58c1,0,2-.07,3-.09l-.52-.11C224.91,432.94,224.22,432.82,223.53,432.7Z" transform="translate(0.96)"/>
      <path d="M213.75,328.57a12.1,12.1,0,0,1,6.82-5.11,5.85,5.85,0,0,0,2-1.59c.68-.63,1.29-1.33,2.13-2.22.39,2.51.39,2.51,5.5,4.8l-2.62,2.31,1.93,2.23c-3.73-.23-7-.53-10.32-.61-2.13-.05-1.17,1.17-.66,2.11Z" transform="translate(0.96)"/>
      <path d="M431.7,375.16l-2.07-2.5.16-.31c.69.35,1.6.52,2,1.07,1.62,2.06,3.08,4.25,4.81,6.69a5.56,5.56,0,0,1-1.74-.28c-4.27-2.54-8.39-5.35-12.8-7.61-1.63-.84-3.91-.42-5.74-.57l2.88-3.49H416a7.09,7.09,0,0,1,1.15-1.51c.46-.35,1.21-.76,1.64-.61s1.12,1,1,1.44c-.36,1.54.36,2.26,1.59,2.92,3.23,1.76,6.42,3.61,9.62,5.42Z" transform="translate(0.96)"/>
      <path d="M233.05,335.61c-.07-2.74,1.37-3.42,6.95-3.15-.53,1.13-.53,1.13,2.24,3.15Z" transform="translate(0.96)"/>
      <path d="M316.07,346.64c3-4.15,8.5-5.46,11.69-9.4-1.92,5.28-7.5,6.52-10.82,10.24Z" transform="translate(0.96)"/>
      <path d="M315.08,364.5c0-4.61,0-9.22,0-13.84,0-.23.59-.45,1-.72v14.57Z" transform="translate(0.96)"/>
      <path d="M353.19,320c-2.2,2.92-2.67,3.09-4.22,1.79Z" transform="translate(0.96)"/>
    </g>
    <image id="beyond2_Imageremove" data-name="beyond2 Imageremove" width="528" height="315" transform="translate(175.96 280.5) scale(0.5)" xlink:href="bridge_october6.png"/>
  </g>
  <g id="Layer_9" data-name="Layer 9">
    <image width="2000" height="1481" transform="translate(1.44 1.18) scale(0.47 0.47)" class="vectorised bridge__background" xlink:href="not_bridge_vector.png"/>
  </g>
  <g id="Layer_8" data-name="Layer 8">
    <image width="2000" height="1481" transform="translate(0 0.37) scale(0.47 0.47)" class="vectorised bridge__foreground" xlink:href="bridge_only_vector.png"/>
  </g>
  <g id="under">
    <g id="lJ8o4e.tif">
      <path d="M702,550.64a65,65,0,0,1,4.27,5c3,4.22,3.58,8.79,1.17,13.44s-6.42,6.6-11.62,6.86c-9.36.46-18.75.88-28.05,2-7.72.91-15.33,2.76-23,4.22C639.9,583,635,584,630.15,585c-5.13,1-10.24,2.14-15.37,3.1-4.48.85-9,1.44-13.49,2.33-5.13,1-10.25,2.1-15.32,3.38-7.88,2-15.66,4.3-23.9,4.73-5.61.3-11.16,1.64-16.74,2.43-2.71.39-5.45.55-8.17.89-5.11.65-10.2,1.36-15.3,2-5.27.68-10.53,1.39-15.81,2-7.18.79-14.37,1.48-21.56,2.21-4.46.45-8.93.84-13.39,1.34-7.76.87-15.51,1.82-23.26,2.72-9.25,1.07-18.48,2.07-27.83,1.82a130.09,130.09,0,0,0-26.78,2.22c-6.77,1.24-13.59,2.3-20.27,3.92-8.39,2-16.65,4.63-25,6.85-3.68,1-7.43,1.7-11.17,2.45-8.51,1.73-17.16,1.64-25.79,2-7,.3-14.06,1.31-21.1,1.75-4.81.3-9.66,0-14.47.29a114.7,114.7,0,0,0-14.82,1.68c-8.78,1.74-17.47,3.94-26.21,5.92-5.26,1.19-10.48,2.64-15.81,3.42a119.2,119.2,0,0,1-14.16.84c-9,.26-17.94.34-26.91.58-4.71.13-9.11.88-12.79,4.49-2.87,2.82-6.72,3.54-10.72,2.46a39.12,39.12,0,0,1-6.42-1.95,12.27,12.27,0,0,1-6.61-12.4,44.67,44.67,0,0,0,.23-8.17c-.31-3.95,1-7.56,1.83-11.27,1.51-7,3.41-13.87,5-20.83,2.23-9.88,4.57-19.75,6.4-29.71,1.87-10.21,3.75-20.45,3.35-30.93a23.83,23.83,0,0,1,10.59-21.31c5.6-3.65,12-4.66,18.59-4.39,4.14.17,8.26.73,12.4,1,6.63.41,13.26.82,19.9,1,4.91.16,9.84.26,14.73-.07,7.53-.51,15.09-1.07,22.54-2.24a168.42,168.42,0,0,1,27.83-1.72c8.15.08,16.33.33,24.46-.11,6.62-.35,13.19-1.56,19.76-2.48,5.18-.74,10.33-1.64,15.5-2.44,12.75-2,25.58-.6,38.37-.9,8.07-.19,16.15.06,24.22-.12,7.56-.17,15.12-.49,22.66-1.07,5.28-.41,10.5-1.54,15.78-2s10.45-.64,15.68-.89c3.47-.16,6.94-.31,10.42-.32,2.89,0,5.79.13,8.68.29,5.38.32,10.77.7,16.15,1.06,1.16.08,2.32.18,3.48.28,2.77.24,3.89-1.4,3-4-1.67-5.12-3.25-10.28-4.67-15.47a16.45,16.45,0,0,1-.06-4.44c0-.33.13-.66.13-1-.09-5.46-.2-10.92-.29-16.39,0-1,0-2,0-3,0-.5.24-1,.24-1.48q-.12-7.93-.27-15.89a6.23,6.23,0,0,1-.09-1.48c.86-3.69-.21-7.28-.6-10.89-.15-1.38-.84-2.7-1.05-4.08-.85-5.74-1.59-11.49-2.42-17.23-.31-2.14-.76-4.25-1.15-6.37-.64-3.59-1-7.24-2-10.73a52.84,52.84,0,0,0-3.58-8.18c-.9-1.86-2-3.63-3-5.44s-1.81-3.34-2.7-5a36.14,36.14,0,0,1-2.13-4.21c-1.4-3.82-2.58-7.72-4-11.52a5.58,5.58,0,0,0-2.08-2.59,24.49,24.49,0,0,1-7.8-6.87,5,5,0,0,0-1.19-1.28c-5.2-3.6-7.8-9.42-11.91-14a55.09,55.09,0,0,1-5.74-8.4,35,35,0,0,0-10.59-10.7c-3.92-2.66-7.87-5.28-11.87-7.81a10.05,10.05,0,0,0-3.25-1.22,19.64,19.64,0,0,1-8.67-4.21,56.14,56.14,0,0,0-15.46-8.91c-5.31-2.14-10.72-4.07-16.21-5.69-5.87-1.74-11.88-3.07-17.85-4.48a21.18,21.18,0,0,0-4.7-.54c-7.4-.06-14.82-.3-22.21,0-8.11.36-16.25.8-24.18,3-4.07,1.12-8.32,1.55-12.42,2.55a71.73,71.73,0,0,0-9.49,3c-4.24,1.67-8.3,3.79-12.55,5.43a161.52,161.52,0,0,1-16.43,5.75c-6.7,1.79-13.26,3.66-18.86,8-2.82,2.18-5.82,4.11-8.63,6.3-1.15.9-1.94,2.26-3,3.26-2.32,2.1-4.69,4.17-7.15,6.11-1.61,1.27-3.43,2.29-5.15,3.44a13.24,13.24,0,0,1-2.28,1.51c-5.9,2.21-10.34,6.55-15.1,10.38a27.91,27.91,0,0,0-4.92,5.57c-3.34,4.64-8.81,6.63-14.05,4.89a12.16,12.16,0,0,1-8.32-12.07c.08-2.65.36-5.3.59-7.95a4.15,4.15,0,0,1,.39-1.69c2.23-3.82,1.69-7.94,1.51-12.07a18.29,18.29,0,0,1,3.16-10.85,7.51,7.51,0,0,0,1.24-3.18,21.82,21.82,0,0,1,6.67-13.86c2.48-2.44,4.74-5.09,7.17-7.58a11.78,11.78,0,0,1,2.87-2.37c6.05-3.14,11.1-7.58,16-12.18a43,43,0,0,0,5.33-6.24c2.37-3.28,4.46-6.78,6.78-10.1,3.79-5.42,7.56-10.87,12.38-15.46,1.39-1.32,2.8-2.61,4.28-3.81,2.38-1.93,4.88-3.69,7.2-5.69a30.07,30.07,0,0,0,3.84-4.13c1.69-2.14,3.22-4.4,4.86-6.58,1.19-1.59,2.5-3.1,3.66-4.71a22.11,22.11,0,0,1,7.13-6.51,26.1,26.1,0,0,0,3.39-2.49c.65-.51,1.16-1.22,1.83-1.69,3.8-2.66,7.63-5.27,11.45-7.9.69-.47,1.44-.86,2.08-1.39,3.39-2.79,6.69-5.69,10.14-8.4,1.82-1.43,3.88-2.55,5.81-3.83,1-.69,2-1.51,3.07-2.12q4.08-2.31,8.26-4.47c3.51-1.82,7.06-3.56,10.6-5.35,2.64-1.33,5.27-2.71,7.93-4,1.26-.62,2.58-1.12,3.86-1.69.31-.14.57-.36.88-.48q7.85-3.12,15.71-6.2c.7-.27,1.43-.45,2.11-.75,5.16-2.28,10.39-4.41,15.45-6.91,4-2,7.7-4.59,11.69-6.6,5.46-2.76,11-5.43,16.66-7.74a53.28,53.28,0,0,1,9.85-2.51c4.71-.93,9.47-1.65,14.21-2.47,1.47-.26,2.93-.55,4.39-.84a35,35,0,0,1,5.37-1.08c5.37-.25,10.75-.31,16.12-.4s10.44-.12,15.65-.15a12,12,0,0,1,2,.15c4,.62,8,1.26,12,1.89a7.62,7.62,0,0,1,1,.23c5.05,1.61,10.1,3.25,15.15,4.85,1,.33,2.09.55,3.13.82a41.07,41.07,0,0,1,4.81,1.3c3.69,1.46,7.31,3.12,11,4.63,1.07.44,2.23.65,3.33,1,6.52,2.12,13.19,3.55,19.55,6.43,5.43,2.45,10.27,5.69,15.36,8.59a24.58,24.58,0,0,1,6.86,5.68,64,64,0,0,0,6.16,5.81c1.94,1.79,3.84,3.64,5.85,5.35a26.31,26.31,0,0,0,3,1.77c2.23,1.43,4.44,2.87,6.64,4.34,1,.65,1.86,1.38,2.81,2,1.89,1.33,3.8,2.65,5.7,4,.69.47,1.35,1,2,1.41,4.68,3,9.79,5.5,13.92,9.11,4.39,3.83,9.41,7,12.93,11.93,2.46,3.45,6.09,6.06,9.17,9.06,1.25,1.21,2.46,2.46,3.67,3.7,1.39,1.41,2.76,2.85,4.15,4.26a15.93,15.93,0,0,1,1.6,1.58c3.29,4.67,6.54,9.37,9.79,14.06.85,1.22,1.74,2.43,2.48,3.71a57.86,57.86,0,0,1,4,7.42c1.45,3.6,2.43,7.4,3.7,11.08a22.37,22.37,0,0,0,1.54,2.84,33.18,33.18,0,0,1,2,4,92.71,92.71,0,0,1,3.82,11.3c1.43,6.39,4.7,11.86,7.88,17.41.78,1.34,2.17,2.33,3,3.66,2.53,4.19,5.1,8.37,7.28,12.74,1,2,1.18,4.46,1.68,6.72a23.71,23.71,0,0,0,.38,2.7c1.55,4.55,3.23,9.06,4.78,13.6,1.15,3.37,2.15,6.8,3.26,10.18,1.32,4,3,7.95,4,12,1.3,5.39,2.08,10.9,3.09,16.36.18,1,.45,1.94.57,2.92.81,6.47,2.44,12.85,2.08,19.45a28.34,28.34,0,0,0,.47,4c.15,1.73.26,3.47.35,5.21.1,2.22.08,4.45.26,6.66.37,4.79.78,9.57,1.27,14.35.21,2.06.87,4.1.91,6.15.12,5.47,0,10.94,0,16.42,0,.41-.14.83-.12,1.23.22,4.3.59,8.59.65,12.88.08,5.81-.09,11.62-.12,17.43,0,1.49.21,3,.19,4.47-.07,5.55-.3,11.11-.23,16.66a11,11,0,0,0,1.41,4.7,20.62,20.62,0,0,1,2.45,12,3.22,3.22,0,0,0,0,1.24c1.76,5.63.33,11.41.83,17.1s-2,10.51-5.57,14.79C703.42,548.64,702.69,549.72,702,550.64Z" id="bridge__under" class="interact shadow" transform="translate(0.96)"/>
    </g>
  </g>
</svg>
