<?xml version="1.0" encoding="UTF-8" standalone="no"?>
<!DOCTYPE svg PUBLIC "-//W3C//DTD SVG 1.1//EN" "http://www.w3.org/Graphics/SVG/1.1/DTD/svg11.dtd">
<svg xmlns:xl="http://www.w3.org/1999/xlink" version="1.1" xmlns:dc="http://purl.org/dc/elements/1.1/" xmlns="http://www.w3.org/2000/svg" viewBox="360 484.875 73 73" width="73" height="73">
  <defs>
    <clipPath id="artboard_clip_path">
      <path d="M 360 484.875 L 433 484.875 L 433 557.875 L 360 557.875 Z"/>
    </clipPath>
  </defs>
  <g id="Canvas_1" stroke="none" fill="none" stroke-dasharray="none" stroke-opacity="1" fill-opacity="1">
    <title>Canvas 1</title>
    <g id="Canvas_1_Layer_1" clip-path="url(#artboard_clip_path)">
      <title>Layer 1</title>
      <g id="Group_114">
        <g id="Graphic_127">
          <path d="M 396.49676 505.2184 C 387.58997 505.2184 380.34302 512.4663 380.34302 521.3745 C 380.34302 530.28275 387.5909 537.5292 396.49676 537.5292 C 405.40594 537.5292 412.6529 530.2813 412.6529 521.3745 C 412.6527 512.46535 405.40594 505.2184 396.49676 505.2184 Z M 396.49676 533.1177 L 396.49676 509.63137 C 402.973 509.63137 408.2423 514.89923 408.2423 521.3745 C 408.2423 527.8508 402.973 533.1177 396.49676 533.1177 Z" fill="white"/>
        </g>
        <g id="Graphic_126">
          <path d="M 396.49676 502.9144 C 397.4308 502.9144 398.1866 502.1586 398.1866 501.2257 L 398.1866 497.47255 C 398.1866 496.53853 397.4308 495.78387 396.49676 495.78387 C 395.565 495.78387 394.8081 496.53744 394.8081 497.47255 L 394.8081 501.2255 C 394.8092 502.1584 395.565 502.9144 396.49676 502.9144 Z" fill="white"/>
        </g>
        <g id="Graphic_125">
          <path d="M 384.9615 504.7698 C 385.27315 505.312 385.8418 505.6148 386.42402 505.6148 C 386.7117 505.6148 387.0018 505.54175 387.2666 505.3875 C 388.07612 504.9216 388.35243 503.88836 387.88654 503.08 L 386.0107 499.83045 C 385.5448 499.02316 384.51155 498.74923 383.70317 499.21275 C 382.8959 499.67864 382.61734 500.7119 383.08324 501.51913 Z" fill="white"/>
        </g>
        <g id="Graphic_124">
          <path d="M 374.9548 510.8859 L 378.2021 512.7619 C 378.46933 512.916 378.75924 512.9892 379.0471 512.9892 C 379.6293 512.9892 380.19797 512.68666 380.50963 512.1455 C 380.97775 511.33714 380.7014 510.305 379.8941 509.838 L 376.64234 507.96196 C 375.83506 507.49384 374.80294 507.7713 374.33595 508.57857 C 373.8712 509.38675 374.1475 510.4189 374.9548 510.8859 Z" fill="white"/>
        </g>
        <g id="Graphic_123">
          <path d="M 378.039 521.3755 C 378.039 520.4426 377.2832 519.6868 376.35033 519.6868 L 372.59494 519.6868 C 371.66315 519.6868 370.90625 520.4426 370.90625 521.3755 C 370.90625 522.30726 371.66206 523.06416 372.59494 523.06416 L 376.35033 523.06416 C 377.283 523.06416 378.039 522.30726 378.039 521.3755 Z" fill="white"/>
        </g>
        <g id="Graphic_122">
          <path d="M 378.20695 529.98684 L 374.95518 531.86397 C 374.1479 532.32986 373.8716 533.3631 374.33748 534.1715 C 374.64912 534.7151 375.21664 535.0165 375.8024 535.0165 C 376.08786 535.0165 376.37797 534.94347 376.64277 534.79034 L 379.89454 532.9132 C 380.70406 532.4473 380.98037 531.41406 380.5145 530.6057 C 380.0486 529.7973 379.01647 529.5221 378.20695 529.98685 Z" fill="white"/>
        </g>
        <g id="Graphic_121">
          <path d="M 387.2712 537.3603 C 386.46394 536.89444 385.4318 537.1719 384.9637 537.9792 L 383.08547 541.2298 C 382.61735 542.0382 382.8959 543.07144 383.70317 543.53733 C 383.968 543.6914 384.2603 543.7635 384.54576 543.7635 C 385.1304 543.7635 385.6966 543.45984 386.00827 542.9198 L 387.88764 539.66804 C 388.35483 538.8595 388.0785 537.82736 387.2712 537.3603 Z" fill="white"/>
        </g>
        <g id="Graphic_120">
          <path d="M 396.49914 539.83465 C 395.56736 539.83465 394.81046 540.5893 394.81046 541.52334 L 394.81046 545.2763 C 394.81046 546.2092 395.56403 546.96613 396.4969 546.96613 L 396.49914 546.96613 C 397.4309 546.96613 398.1878 546.2092 398.1878 545.27745 L 398.19005 541.5245 C 398.18894 540.59046 397.43315 539.83465 396.49913 539.83465 Z" fill="white"/>
        </g>
        <g id="Graphic_119">
          <path d="M 408.0368 537.97927 C 407.5709 537.172 406.53763 536.89453 405.7304 537.3593 C 404.9209 537.8252 404.64457 538.8585 405.11046 539.66686 L 406.9865 542.91864 C 407.30056 543.4609 407.8668 543.76364 408.45144 543.76364 C 408.7369 543.76364 409.0292 543.6906 409.2918 543.5375 C 410.1013 543.0716 410.37985 542.0383 409.9117 541.22995 Z" fill="white"/>
        </g>
        <g id="Graphic_118">
          <path d="M 418.0454 531.86363 L 414.79586 529.9854 C 413.98857 529.5173 412.9542 529.79475 412.48833 530.602 C 412.02244 531.4104 412.29877 532.44256 413.10603 532.90955 L 416.3578 534.78777 C 416.6226 534.9418 416.9127 535.0139 417.19815 535.0139 C 417.7828 535.0139 418.35125 534.7103 418.6631 534.17025 C 419.129 533.3628 418.85265 532.32957 418.0454 531.8637 Z" fill="white"/>
        </g>
        <g id="Graphic_117">
          <path d="M 420.40506 519.6847 L 416.64986 519.6847 C 415.7181 519.6847 414.96117 520.4405 414.96117 521.3734 C 414.96117 522.30626 415.717 523.0632 416.64986 523.0632 L 420.40506 523.0632 C 421.33685 523.0632 422.09375 522.3074 422.09375 521.3745 C 422.09263 520.44165 421.33666 519.6847 420.40506 519.6847 Z" fill="white"/>
        </g>
        <g id="Graphic_116">
          <path d="M 413.9488 512.98676 C 414.2365 512.98676 414.52435 512.9137 414.7914 512.7606 L 418.04316 510.88456 C 418.85044 510.4187 419.129 509.3854 418.6631 508.57704 C 418.1972 507.76975 417.1662 507.49454 416.3567 507.9582 L 413.10275 509.8342 C 412.29546 510.30123 412.0169 511.3334 412.4828 512.14175 C 412.798 512.6842 413.36645 512.98676 413.94885 512.98676 Z" fill="white"/>
        </g>
        <g id="Graphic_115">
          <path d="M 405.72707 505.3873 C 405.9919 505.54135 406.2842 505.61215 406.5721 505.61215 C 407.1543 505.61215 407.72075 505.3085 408.0346 504.7696 L 409.9128 501.5178 C 410.38093 500.7094 410.10237 499.67616 409.2951 499.21027 C 408.49007 498.7444 407.4557 499.02183 406.98873 499.82797 L 405.10937 503.07974 C 404.64347 503.88684 404.9198 504.9214 405.72707 505.3873 Z" fill="white"/>
        </g>
      </g>
    </g>
  </g>
</svg>
