<?xml version="1.0" encoding="UTF-8" standalone="no"?>
<!DOCTYPE svg PUBLIC "-//W3C//DTD SVG 1.1//EN" "http://www.w3.org/Graphics/SVG/1.1/DTD/svg11.dtd">
<svg xmlns:xl="http://www.w3.org/1999/xlink" version="1.1" xmlns:dc="http://purl.org/dc/elements/1.1/" xmlns="http://www.w3.org/2000/svg" viewBox="360 401.625 73 73" width="73" height="73">
  <defs>
    <clipPath id="artboard_clip_path">
      <path d="M 360 401.625 L 433 401.625 L 433 474.625 L 360 474.625 Z"/>
    </clipPath>
  </defs>
  <g id="Canvas_1" stroke="none" fill="none" stroke-dasharray="none" stroke-opacity="1" fill-opacity="1">
    <title>Canvas 1</title>
    <g id="Canvas_1_Layer_1" clip-path="url(#artboard_clip_path)">
      <title>Layer 1</title>
      <g id="Group_72">
        <g id="Graphic_77">
          <path d="M 374.91273 452.3379 C 375.52984 452.3379 376.04087 451.77727 376.0698 451.0596 C 376.63876 438.51194 385.5767 428.5548 396.50034 428.5548 C 407.42446 428.55503 416.3526 438.5236 416.93087 451.0596 C 416.95983 451.77727 417.47083 452.3379 418.08795 452.3379 L 419.75586 452.3379 C 420.4212 452.3379 420.95144 451.68755 420.9225 450.91373 C 420.2861 435.8768 409.6033 423.901 396.50957 423.901 C 383.40627 423.9123 372.71365 435.8768 372.0775 450.92485 C 372.04854 451.6986 372.57876 452.349 373.24414 452.349 L 374.91225 452.349 Z" fill="white"/>
        </g>
        <g id="Graphic_76">
          <path d="M 413.5181 452.3379 C 414.06756 452.3379 414.51114 451.79964 414.47264 451.1606 C 413.92316 440.38465 405.87215 431.3921 396.5006 431.3921 C 387.1291 431.3921 379.0782 440.37353 378.51856 451.1606 C 378.4896 451.79963 378.92344 452.3379 379.47312 452.3379 L 380.8518 452.3379 C 381.35307 452.3379 381.76767 451.8894 381.79666 451.30617 C 382.25946 442.33586 388.66136 435.2268 396.4908 435.2268 C 404.3198 435.2268 410.72197 442.33586 411.185 451.30673 C 411.21394 451.8897 411.62853 452.33843 412.12983 452.33843 Z" fill="white"/>
        </g>
        <g id="Graphic_75">
          <path d="M 408.051 452.3379 C 408.4753 452.3379 408.80304 451.92307 408.77406 451.4409 C 408.3789 443.8835 402.97933 437.8953 396.3844 437.8953 C 389.78946 437.8953 384.3898 443.88294 383.98517 451.4409 C 383.9562 451.92307 384.29364 452.3379 384.70823 452.3379 L 385.711 452.3379 C 386.0871 452.3379 386.4053 451.9902 386.43406 451.55304 C 386.75225 445.28506 390.8693 440.7437 396.38435 440.7437 C 401.89926 440.7437 406.01655 445.2738 406.33463 451.55304 C 406.35387 451.99045 406.67206 452.3379 407.0577 452.3379 Z" fill="white"/>
        </g>
        <g id="Graphic_74">
          <path d="M 404.37757 452.3379 C 404.63784 452.3379 404.8596 452.09125 404.8404 451.77727 C 404.58964 446.664 400.9547 442.61616 396.4905 442.61616 C 392.03607 442.61616 388.3913 446.6754 388.14066 451.77727 C 388.1214 452.07996 388.3432 452.3379 388.60347 452.3379 L 389.4519 452.3379 C 389.70263 452.3379 389.905 452.10233 389.9147 451.81094 C 390.11723 447.59485 392.7782 444.67964 396.4905 444.67964 C 400.2026 444.67964 402.8635 447.595 403.0663 451.81094 C 403.076 452.10255 403.27837 452.3379 403.5291 452.3379 Z" fill="white"/>
        </g>
        <g id="Graphic_73">
          <path d="M 392.4605 452.3379 C 392.6436 452.3379 392.7884 452.1697 392.7979 451.95653 C 392.9233 449.60175 394.28273 448.15524 396.38467 448.15524 C 398.4866 448.15524 399.83634 449.60175 399.9714 451.95653 C 399.98113 452.16947 400.12575 452.3379 400.30885 452.3379 L 401.2247 452.3379 C 401.41753 452.3379 401.5911 452.1473 401.57187 451.92307 C 401.41753 449.0077 399.61453 446.29423 396.3846 446.29423 C 393.386 446.29423 391.3805 448.9967 391.1973 451.91194 C 391.1876 452.1362 391.35165 452.33805 391.54447 452.33805 Z" fill="white"/>
        </g>
      </g>
    </g>
  </g>
</svg>
