<?xml version="1.0" encoding="UTF-8" standalone="no"?>
<!DOCTYPE svg PUBLIC "-//W3C//DTD SVG 1.1//EN" "http://www.w3.org/Graphics/SVG/1.1/DTD/svg11.dtd">
<svg version="1.1" xmlns="http://www.w3.org/2000/svg" xmlns:xl="http://www.w3.org/1999/xlink" xmlns:dc="http://purl.org/dc/elements/1.1/" viewBox="452.25 234 73 73" width="73" height="73">
  <defs>
    <clipPath id="artboard_clip_path">
      <path d="M 452.25 234 L 525.25 234 L 525.25 307 L 452.25 307 Z"/>
    </clipPath>
  </defs>
  <g id="Canvas_1" stroke-opacity="1" stroke-dasharray="none" stroke="none" fill="none" fill-opacity="1">
    <title>Canvas 1</title>
    <g id="Canvas_1_Layer_1" clip-path="url(#artboard_clip_path)">
      <title>Layer 1</title>
      <g id="Graphic_169">
        <title>Bézier</title>
        <path d="M 488.74996 298.24658 C 483.3335 298.24658 478.4272 296.04988 474.8773 292.4989 C 471.3265 288.94867 469.12963 284.04223 469.12963 278.62625 C 469.12963 267.30157 475.82735 259.0549 481.51637 252.05165 C 484.0135 248.97655 486.31136 246.1483 487.6661 243.49219 C 487.8358 243.05913 488.25715 242.75263 488.75006 242.75263 C 489.24355 242.75263 489.6664 243.06065 489.83534 243.49505 C 491.1902 246.1496 493.4873 248.97747 495.9836 252.0521 L 496.5953 252.80605 C 496.6241 252.83844 496.65174 252.87064 496.6771 252.90645 C 502.2027 259.72638 508.3704 267.75918 508.3704 278.62704 C 508.3704 284.0435 506.17294 288.9498 502.6227 292.49968 C 499.07246 296.05047 494.166 298.24737 488.75004 298.24737 Z M 506.0367 278.1093 L 489.91434 287.41704 L 489.91434 292.0209 L 505.4732 283.0381 C 505.8443 281.62963 506.0417 280.1513 506.0417 278.62596 L 506.03695 278.109 Z M 489.91434 284.74105 L 505.85483 275.53805 C 505.68226 274.1167 505.39564 272.7454 505.0149 271.4188 L 489.91434 280.13684 Z M 504.1594 286.47875 L 489.91434 294.7036 L 489.91434 295.87903 C 494.22535 295.5924 498.10524 293.72626 500.97715 290.85392 C 502.25355 289.5775 503.3307 288.10257 504.1595 286.4789 Z M 499.31235 260.14566 L 489.9144 265.57134 L 489.9144 270.17236 L 501.4898 263.48773 C 500.8052 262.33707 500.0724 261.22493 499.31225 260.14512 Z M 489.9144 262.88944 L 497.9365 258.25734 C 497.1172 257.16866 496.28273 256.11427 495.4566 255.08806 L 489.91454 258.28896 Z M 502.62265 265.51654 L 489.9144 272.8549 L 489.9144 277.45532 L 504.26617 269.1684 C 503.7905 267.9098 503.2366 266.694 502.6228 265.51644 Z M 489.9144 255.60696 L 493.9759 253.261 C 492.5049 251.44924 491.1076 249.71834 489.9144 248.0259 Z M 476.5228 290.85305 C 479.3945 293.72544 483.2739 295.5916 487.58563 295.87913 L 487.58563 248.02613 C 486.3367 249.79734 484.8638 251.61063 483.31725 253.51534 C 477.8707 260.22034 471.45863 268.11445 471.45863 278.62586 C 471.45863 283.40156 473.3943 287.7246 476.523 290.85305 Z" fill="white"/>
      </g>
      <g id="Graphic_173">
        <path d="M 506.1279 278.1093 L 506.12814 278.109 L 506.1327 278.62596 C 506.1327 280.1513 505.943 281.62963 505.5864 283.0381 L 490.63564 292.0209 L 490.63564 287.41704 Z M 490.63564 284.74105 L 490.63564 280.13684 L 505.146 271.4188 C 505.5119 272.7454 505.7873 274.1167 505.95314 275.53805 Z M 490.6357 262.88944 L 490.6358 258.28896 L 495.9613 255.08806 C 496.75514 256.11427 497.557 257.16866 498.3443 258.25734 Z M 490.6357 255.60696 L 490.6357 248.0259 C 491.7823 249.71834 493.125 251.44924 494.53846 253.261 Z M 504.32405 286.4789 C 503.52765 288.10257 502.4926 289.5775 501.2661 290.85392 C 498.5064 293.72626 494.7782 295.5924 490.63564 295.87903 L 490.63564 294.7036 L 504.324 286.47875 Z M 504.324 286.47875 L 504.32405 286.4789 M 499.66635 260.14566 Z M 499.66654 260.14554 C 500.3969 261.2252 501.10093 262.33722 501.7587 263.48773 L 490.6357 270.17236 L 490.6357 265.57134 Z M 499.66635 260.14566 L 499.66626 260.14512 C 499.66635 260.14526 499.66645 260.1454 499.66654 260.14554 Z M 502.8474 265.51645 C 503.43725 266.69402 503.9695 267.9098 504.42657 269.1684 L 490.6357 277.45532 L 490.6357 272.8549 Z M 502.8474 265.51644 Z M 502.8473 265.51654 Z M 502.8474 265.51644 C 502.8474 265.51645 502.8474 265.51645 502.8474 265.51645 Z M 488.8125 298.23314 C 489.0462 298.24207 489.281 298.24658 489.51677 298.24658 L 489.51684 298.24737 C 494.72116 298.24737 499.43584 296.05047 502.8473 292.49968 C 506.2588 288.9498 508.3704 284.0435 508.3704 278.62704 C 508.3704 267.75918 502.44375 259.72638 497.1341 252.90645 C 497.1097 252.87064 497.08315 252.83844 497.0555 252.80605 L 496.4677 252.0521 C 494.06896 248.97747 491.86165 246.1496 490.55973 243.49505 C 490.3974 243.06065 489.99107 242.75263 489.51686 242.75263 C 489.2499 242.75263 489.0048 242.85 488.8125 243.01252 Z" fill="#c0ffff"/>
      </g>
    </g>
  </g>
</svg>
