<?xml version="1.0" encoding="UTF-8" standalone="no"?>
<!DOCTYPE svg PUBLIC "-//W3C//DTD SVG 1.1//EN" "http://www.w3.org/Graphics/SVG/1.1/DTD/svg11.dtd">
<svg xmlns:xl="http://www.w3.org/1999/xlink" version="1.1" xmlns:dc="http://purl.org/dc/elements/1.1/" xmlns="http://www.w3.org/2000/svg" viewBox="452.25 153 73 73" width="73" height="73">
  <defs>
    <clipPath id="artboard_clip_path">
      <path d="M 452.25 153 L 525.25 153 L 525.25 226 L 452.25 226 Z"/>
    </clipPath>
  </defs>
  <g id="Canvas_1" stroke="none" fill="none" stroke-dasharray="none" stroke-opacity="1" fill-opacity="1">
    <title>Canvas 1</title>
    <g id="Canvas_1_Layer_1" clip-path="url(#artboard_clip_path)">
      <title>Layer 1</title>
      <g id="Graphic_150">
        <text transform="translate(457.25 199.77054)" fill="#00c800">
          <tspan font-family="Zapf Dingbats" font-size="24" fill="#00c800" x="0" y="20">✔</tspan>
        </text>
      </g>
      <g id="Graphic_151">
        <path d="M 503.2407 185.60152 C 502.6278 184.86294 501.74255 184.4033 500.78575 184.32727 C 499.837 184.24582 498.89484 184.54347 498.16525 185.15517 C 497.4935 185.72773 497.05525 186.52705 496.9342 187.40132 C 496.4804 187.13652 495.9742 186.97454 495.45116 186.92617 C 494.5024 186.84473 493.56025 187.14237 492.83065 187.75408 C 492.1562 188.3253 491.71547 189.12486 491.5924 190.00023 C 491.153 189.73858 490.66145 189.57637 490.15255 189.52508 C 489.28865 189.45309 488.4279 189.69516 487.7282 190.20699 C 487.02857 190.7188 486.5372 191.46592 486.3442 192.31117 L 482.92457 188.26522 C 483.0584 187.7723 483.1286 187.26407 483.13335 186.7534 L 486.59616 186.7534 L 484.94754 188.402 C 484.8112 188.53722 484.7345 188.72125 484.7345 188.91315 C 484.7345 189.10505 484.8112 189.28908 484.94754 189.4243 C 485.0834 189.55905 485.26723 189.6342 485.4587 189.63307 C 485.64743 189.63217 485.82854 189.55725 485.9626 189.4243 L 488.8423 186.54462 C 488.97864 186.4094 489.05535 186.22538 489.05535 186.03347 C 489.05535 185.84157 488.97864 185.65754 488.8423 185.52233 L 485.9626 182.64266 C 485.68186 182.36346 485.2283 182.36346 484.94754 182.64266 C 484.8112 182.77787 484.7345 182.9619 484.7345 183.1538 C 484.7345 183.3457 484.8112 183.52973 484.94754 183.66494 L 486.59616 185.31356 L 482.99656 185.31356 C 482.6166 183.70094 481.5986 182.31172 480.1752 181.46378 C 478.75175 180.61606 477.0453 180.38234 475.44646 180.8163 C 473.84755 181.25029 472.49324 182.31466 471.6939 183.76573 C 469.8464 182.6035 468.42616 180.87298 467.6466 178.83429 C 466.8671 176.79577 466.7706 174.55912 467.37126 172.461 C 467.97196 170.36263 469.2374 168.51607 470.9776 167.19885 C 472.718 165.8814 474.83883 165.16464 477.02146 165.15606 L 487.82024 165.15606 C 488.21776 165.15606 488.54015 164.83367 488.54015 164.43614 C 488.54015 164.03862 488.21776 163.71622 487.82024 163.71622 L 477.02146 163.71622 C 474.5015 163.71712 472.0513 164.54413 470.0463 166.07082 C 468.04153 167.59774 466.5927 169.7397 465.92186 172.16882 C 465.2512 174.59788 465.3954 177.17991 466.33267 179.5189 C 467.2699 181.85795 468.94845 183.82534 471.1109 185.11918 C 470.9692 185.6427 470.8965 186.1824 470.89494 186.7246 C 470.89674 188.3469 471.54217 189.90237 472.6893 191.04952 C 473.83647 192.19667 475.39195 192.84212 477.01424 192.8439 L 477.3382 192.8439 L 484.4798 201.35334 L 484.96215 201.92928 L 485.3725 202.41882 L 489.6416 207.50145 L 485.09893 207.1055 C 483.7705 206.98963 482.4503 207.4047 481.4276 208.2603 C 480.4046 209.11585 479.76255 210.3418 479.64195 211.66978 C 479.58795 212.24301 479.76523 212.81422 480.1342 213.2563 C 480.5034 213.69816 481.03363 213.97467 481.6073 214.02391 L 495.2858 215.21898 C 495.7681 215.26217 496.24327 215.28377 496.7256 215.28377 C 500.52586 215.28647 504.2041 213.94225 507.10684 211.4898 C 509.88504 209.15882 511.6239 205.82024 511.9411 202.20746 C 512.25856 198.5948 511.1281 195.00424 508.7987 192.22478 Z M 472.34176 186.7534 C 472.34176 185.08163 473.23354 183.53668 474.6815 182.70094 C 476.12946 181.86491 477.913 181.86491 479.361 182.70094 C 480.80893 183.53674 481.7007 185.08163 481.7007 186.7534 L 481.7007 186.82538 L 479.8001 184.56484 C 479.1895 183.82736 478.3067 183.36776 477.3524 183.29058 C 476.40055 183.1952 475.4498 183.4827 474.7103 184.0897 C 473.98905 184.70318 473.5384 185.57612 473.4563 186.51922 C 473.3742 187.46254 473.6669 188.40022 474.27115 189.12912 L 476.07094 191.28888 C 475.02574 191.07088 474.0862 190.50238 473.40817 189.67759 C 472.7299 188.85285 472.3537 187.82112 472.34176 186.7534 Z M 510.49746 202.10897 C 510.3618 203.70944 509.91006 205.26694 509.1688 206.69169 C 508.42726 208.11643 507.41085 209.38015 506.17794 210.40963 C 504.7012 211.65734 502.99095 212.5991 501.14704 213.18 C 499.3031 213.76088 497.36205 213.9692 495.43676 213.79325 L 481.7583 212.59819 C 481.5657 212.58176 481.38777 212.48863 481.2645 212.3397 C 481.1412 212.19076 481.08316 211.99863 481.1032 211.80628 C 481.1891 210.85667 481.6483 209.98016 482.3797 209.3687 C 483.1113 208.75722 484.05553 208.46113 485.00513 208.54504 L 489.5478 208.941 C 489.9271 208.97362 490.30397 208.8546 490.59574 208.61006 C 490.8875 208.36551 491.07066 208.01547 491.10485 207.63639 C 491.1393 207.25708 491.02206 206.87978 490.77886 206.58686 L 486.0634 200.9715 L 475.3798 188.23642 C 475.01084 187.7975 474.83154 187.22986 474.8815 186.65847 C 474.9314 186.08726 475.20657 185.55947 475.64615 185.19116 C 476.0851 184.8231 476.65225 184.64447 477.2228 184.69442 C 477.78386 184.75111 478.30064 185.0249 478.6626 185.45753 L 489.3318 198.1425 C 489.39885 198.22192 489.48254 198.28559 489.5766 198.32968 L 489.6198 198.32968 C 489.6974 198.3632 489.7802 198.38255 489.86455 198.38727 L 489.95814 198.38727 C 490.0036 198.39132 490.0495 198.39132 490.0949 198.38727 C 490.14824 198.36388 490.19886 198.33508 490.2461 198.30088 C 490.2747 198.29076 490.30145 198.27636 490.3253 198.2577 C 490.39863 198.19515 490.4598 198.11956 490.5053 198.03451 C 490.63643 197.7758 490.59954 197.46353 490.4117 197.2426 L 488.12234 194.45652 C 487.7534 194.0176 487.5741 193.44996 487.624 192.87857 C 487.67397 192.30736 487.9491 191.77957 488.3887 191.41126 C 488.8276 191.0423 489.39526 190.863 489.96664 190.91294 C 490.53785 190.9629 491.06564 191.23803 491.43395 191.67761 L 494.6664 195.54358 C 494.7343 195.6203 494.8178 195.6817 494.91116 195.72356 L 495.00475 195.72356 C 495.0666 195.73436 495.13006 195.73436 495.1919 195.72356 C 495.2374 195.7276 495.28326 195.7276 495.3287 195.72356 L 495.4151 195.72356 C 495.5015 195.69476 495.5818 195.6509 495.6527 195.59397 C 495.7998 195.4718 495.8925 195.29633 495.91005 195.10577 C 495.9276 194.91545 495.86865 194.7258 495.74626 194.57889 L 493.4281 191.8576 C 492.93183 191.2661 492.78855 190.45467 493.05265 189.72888 C 493.31676 189.00309 493.94805 188.47351 494.70846 188.33944 C 495.4691 188.20535 496.24344 188.48725 496.7398 189.0787 L 497.6613 190.18738 L 499.51147 192.39033 C 499.76726 192.69 500.2163 192.7287 500.51935 192.47672 C 500.66874 192.35681 500.7641 192.18223 500.7844 191.99168 C 500.8046 191.80112 500.74816 191.61034 500.62734 191.46164 L 498.77715 189.25869 C 498.4082 188.82269 498.2271 188.25846 498.2732 187.68926 C 498.3207 187.11423 498.5963 186.58214 499.03857 186.21165 C 499.48087 185.84111 500.05296 185.6627 500.62734 185.7167 C 501.1884 185.7734 501.7052 186.04719 502.0672 186.47981 L 507.62495 193.10306 C 508.6758 194.33413 509.4722 195.76158 509.96786 197.30244 C 510.46325 198.84352 510.64815 200.4676 510.51184 202.08045 Z" fill="white"/>
      </g>
    </g>
  </g>
</svg>
