<?xml version="1.0" encoding="UTF-8" standalone="no"?>
<!DOCTYPE svg PUBLIC "-//W3C//DTD SVG 1.1//EN" "http://www.w3.org/Graphics/SVG/1.1/DTD/svg11.dtd">
<svg xmlns:xl="http://www.w3.org/1999/xlink" version="1.1" xmlns:dc="http://purl.org/dc/elements/1.1/" xmlns="http://www.w3.org/2000/svg" viewBox="360 153 73 73" width="73" height="73">
  <defs>
    <clipPath id="artboard_clip_path">
      <path d="M 360 153 L 433 153 L 433 226 L 360 226 Z"/>
    </clipPath>
  </defs>
  <g id="Canvas_1" stroke="none" fill="none" stroke-dasharray="none" stroke-opacity="1" fill-opacity="1">
    <title>Canvas 1</title>
    <g id="Canvas_1_Layer_1" clip-path="url(#artboard_clip_path)">
      <title>Layer 1</title>
      <g id="Graphic_27">
        <path d="M 410.8013 185.8774 C 410.19786 185.15014 409.32615 184.69753 408.384 184.62267 C 407.48547 184.55023 406.5932 184.82315 405.8885 185.38538 C 405.184 185.94784 404.7201 186.75728 404.59144 187.64963 C 404.1446 187.38889 403.6462 187.22939 403.13113 187.18176 C 402.19693 187.10156 401.2692 187.39465 400.55077 187.99698 C 399.88663 188.55944 399.45267 189.34677 399.3315 190.20872 C 398.89884 189.95108 398.4148 189.79136 397.9137 189.74085 C 397.06303 189.66996 396.2155 189.90833 395.5265 190.41231 C 394.83757 190.91629 394.3537 191.65196 394.16367 192.48426 L 389.7969 187.29518 L 394.8513 187.29518 L 393.22794 188.91854 C 393.09436 189.05101 393.01904 189.23134 393.01837 189.41941 C 393.0177 189.6075 393.0919 189.78804 393.2244 189.92162 C 393.5004 190.19963 393.94945 190.20119 394.2275 189.92516 L 397.06306 187.0896 C 397.1973 186.95646 397.27285 186.77525 397.27285 186.5863 C 397.27285 186.39733 397.1973 186.21612 397.06306 186.08298 L 394.2275 183.24742 C 393.95104 182.9725 393.50443 182.9725 393.22797 183.24742 C 393.0937 183.38056 393.0182 183.56177 393.0182 183.75073 C 393.0182 183.9397 393.0937 184.1209 393.22797 184.25404 L 394.85133 185.8774 L 388.59154 185.8774 L 387.7125 184.82825 C 387.11127 184.10206 386.242 183.6495 385.3023 183.5735 C 384.36344 183.48955 383.4297 183.78285 382.70776 184.38873 C 382.2401 184.78593 381.88567 185.29946 381.67987 185.8774 L 375.43483 185.8774 L 396.80815 165.8368 C 397.02015 165.63831 397.0897 165.33039 396.98337 165.05992 C 396.87704 164.78965 396.6165 164.61155 396.3261 164.61043 L 373.6416 164.61043 C 373.25018 164.61043 372.93272 164.92789 372.93272 165.31932 C 372.93272 165.71076 373.25018 166.02821 373.6416 166.02821 L 394.5329 166.02821 L 373.15957 186.06881 C 372.94756 186.2673 372.878 186.57523 372.98434 186.8457 C 373.09068 187.11596 373.3512 187.29407 373.64162 187.29518 L 381.4394 187.29518 C 381.4753 188.06056 381.76174 188.7927 382.25464 189.37932 L 392.33505 201.36693 L 392.81 201.93404 L 393.21407 202.41609 L 397.4178 207.42085 L 392.9447 207.03096 C 391.6366 206.91687 390.33666 207.3256 389.3296 208.16808 C 388.3223 209.01052 387.69006 210.21767 387.5713 211.52532 C 387.51814 212.08977 387.6927 212.65223 388.056 213.08754 C 388.41955 213.52263 388.94167 213.7949 389.50657 213.8434 L 402.9755 215.02015 C 403.45044 215.06268 403.9183 215.08395 404.39326 215.08395 C 408.13 215.09082 411.7487 213.77494 414.6081 211.36937 C 417.3437 209.0741 419.05594 205.78666 419.3683 202.22922 C 419.6809 198.6719 418.5677 195.13635 416.27403 192.39947 Z M 417.9611 202.1036 C 417.8275 203.67956 417.3827 205.2132 416.6528 206.61612 C 415.9226 208.01904 414.9218 209.2634 413.70777 210.2771 C 412.25256 211.50394 410.5685 212.43015 408.7531 213.00214 C 406.93764 213.5739 405.02676 213.78016 403.13113 213.6089 L 389.66222 212.43213 C 389.4726 212.41596 389.29737 212.32425 389.17597 212.1776 C 389.05457 212.03095 388.9974 211.84176 389.01713 211.65235 C 389.10176 210.7173 389.5539 209.85421 390.2741 209.2521 C 390.9945 208.65 391.92426 208.35845 392.8593 208.44108 L 397.3324 208.83097 C 397.7059 208.8631 398.07697 208.7459 398.36427 208.5051 C 398.6516 208.2643 398.8319 207.91962 398.8656 207.54635 C 398.8995 207.17285 398.78406 206.80133 398.5446 206.5129 L 393.90136 200.98356 L 383.36726 188.47193 C 383.00396 188.03973 382.8274 187.4808 382.87658 186.91816 C 382.92576 186.3557 383.1967 185.836 383.62953 185.47333 C 384.06173 185.1109 384.6202 184.93502 385.182 184.9842 C 385.7345 185.04002 386.24335 185.30962 386.5998 185.73562 L 387.734 187.0825 L 397.10553 198.22626 C 397.17154 198.30446 397.25395 198.36715 397.34655 198.41057 L 397.3891 198.41057 C 397.4655 198.44358 397.54704 198.46263 397.6301 198.46728 L 397.72226 198.46728 C 397.767 198.47127 397.8122 198.47127 397.85695 198.46728 C 397.90945 198.44424 397.9593 198.41589 398.0058 198.38221 C 398.03395 198.37225 398.0603 198.35807 398.0838 198.33968 C 398.156 198.2781 398.21627 198.20366 398.261 198.11992 C 398.39017 197.86517 398.35384 197.55768 398.16886 197.34015 L 395.9146 194.59674 C 395.5513 194.16454 395.37473 193.6056 395.4239 193.04297 C 395.4731 192.4805 395.744 191.9608 396.17686 191.59814 C 396.60907 191.23483 397.168 191.05828 397.73064 191.10746 C 398.2931 191.15664 398.8128 191.42756 399.17547 191.8604 L 402.3584 195.66715 C 402.4253 195.74269 402.50747 195.80316 402.5994 195.84437 L 402.69156 195.84437 C 402.7525 195.855 402.81495 195.855 402.87587 195.84437 C 402.9206 195.84836 402.9658 195.84836 403.01056 195.84437 L 403.09563 195.84437 C 403.1807 195.81602 403.2598 195.77282 403.32956 195.71677 C 403.47444 195.59648 403.5657 195.42369 403.583 195.23605 C 403.60027 195.04864 403.54223 194.8619 403.4217 194.71724 L 401.1391 192.03763 C 400.6504 191.4552 400.5093 190.6562 400.76936 189.94153 C 401.02944 189.22686 401.65105 188.7054 402.3998 188.57337 C 403.1488 188.44134 403.9113 188.71892 404.4 189.30132 L 405.3074 190.393 L 407.12924 192.5622 C 407.3811 192.85729 407.82327 192.8954 408.1217 192.64728 C 408.2688 192.5292 408.3627 192.3573 408.38265 192.16966 C 408.4026 191.98203 408.347 191.79417 408.228 191.64774 L 406.40617 189.47854 C 406.04287 189.04922 405.86454 188.49364 405.90995 187.93316 C 405.9567 187.36693 406.22807 186.843 406.6636 186.47818 C 407.0991 186.11332 407.66244 185.93765 408.228 185.99081 C 408.7805 186.04664 409.28937 186.31624 409.6458 186.74224 L 415.11843 193.26402 C 416.1532 194.47623 416.9374 195.88181 417.42544 197.39906 C 417.91325 198.91654 418.0953 200.51574 417.9611 202.10388 Z" fill="white"/>
      </g>
      <g id="Graphic_86">
        <text transform="translate(365 199.77054)" fill="#00c800">
          <tspan font-family="Zapf Dingbats" font-size="24" fill="#00c800" x="0" y="20">✔</tspan>
        </text>
      </g>
    </g>
  </g>
</svg>
