<?xml version="1.0" encoding="UTF-8" standalone="no"?>
<!DOCTYPE svg PUBLIC "-//W3C//DTD SVG 1.1//EN" "http://www.w3.org/Graphics/SVG/1.1/DTD/svg11.dtd">
<svg xmlns:xl="http://www.w3.org/1999/xlink" version="1.1" xmlns:dc="http://purl.org/dc/elements/1.1/" xmlns="http://www.w3.org/2000/svg" viewBox="360 153 73 73" width="73" height="73">
  <defs>
    <clipPath id="artboard_clip_path">
      <path d="M 360 153 L 433 153 L 433 226 L 360 226 Z"/>
    </clipPath>
  </defs>
  <g id="Canvas_1" stroke="none" fill="none" stroke-dasharray="none" stroke-opacity="1" fill-opacity="1">
    <title>Canvas 1</title>
    <g id="Canvas_1_Layer_1" clip-path="url(#artboard_clip_path)">
      <title>Layer 1</title>
      <g id="Graphic_86">
        <text transform="translate(365 199.77054)" fill="#00c800">
          <tspan font-family="Zapf Dingbats" font-size="24" fill="#00c800" x="0" y="20">✔</tspan>
        </text>
      </g>
      <g id="Graphic_87">
        <path d="M 410.9907 185.60152 C 410.3778 184.86294 409.49255 184.4033 408.53575 184.32727 C 407.587 184.24582 406.64484 184.54347 405.91525 185.15517 C 405.2435 185.72773 404.80525 186.52705 404.6842 187.40132 C 404.2304 187.13652 403.7242 186.97454 403.20116 186.92617 C 402.2524 186.84473 401.31025 187.14237 400.58065 187.75408 C 399.90617 188.3253 399.46547 189.12486 399.3424 190.00023 C 398.903 189.73858 398.41145 189.57637 397.90255 189.52508 C 397.03865 189.45309 396.1779 189.69516 395.4782 190.20699 C 394.77857 190.7188 394.2872 191.46592 394.0942 192.31117 L 390.67457 188.26522 C 390.80843 187.7723 390.87862 187.26407 390.88335 186.7534 L 394.34616 186.7534 L 392.69754 188.402 C 392.5612 188.53722 392.4845 188.72125 392.4845 188.91315 C 392.4845 189.10505 392.5612 189.28908 392.69754 189.4243 C 392.83343 189.55905 393.01723 189.6342 393.2087 189.63307 C 393.39743 189.63217 393.57854 189.55725 393.71263 189.4243 L 396.5923 186.54462 C 396.72864 186.4094 396.80535 186.22538 396.80535 186.03347 C 396.80535 185.84157 396.72864 185.65754 396.5923 185.52233 L 393.71263 182.64266 C 393.43186 182.36346 392.9783 182.36346 392.69754 182.64266 C 392.5612 182.77787 392.4845 182.9619 392.4845 183.1538 C 392.4845 183.3457 392.5612 183.52973 392.69754 183.66494 L 394.34616 185.31356 L 390.74656 185.31356 C 390.3666 183.70094 389.3486 182.31172 387.92517 181.46378 C 386.50175 180.61606 384.7953 180.38234 383.19646 180.8163 C 381.59755 181.25029 380.24324 182.31466 379.4439 183.76573 C 377.5964 182.6035 376.17616 180.87298 375.39663 178.83429 C 374.6171 176.79577 374.52057 174.55912 375.12126 172.461 C 375.72196 170.36263 376.9874 168.51607 378.7276 167.19885 C 380.468 165.8814 382.58883 165.16464 384.77146 165.15606 L 395.57024 165.15606 C 395.96776 165.15606 396.29015 164.83367 396.29015 164.43614 C 396.29015 164.03862 395.96776 163.71622 395.57024 163.71622 L 384.77146 163.71622 C 382.2515 163.71712 379.8013 164.54413 377.7963 166.07082 C 375.79153 167.59774 374.3427 169.7397 373.67186 172.16882 C 373.0012 174.59788 373.14542 177.17991 374.08267 179.5189 C 375.0199 181.85795 376.69845 183.82534 378.8609 185.11918 C 378.7192 185.6427 378.6465 186.1824 378.64494 186.7246 C 378.64674 188.3469 379.29217 189.90237 380.4393 191.04952 C 381.58647 192.19667 383.14195 192.84212 384.76424 192.8439 L 385.0882 192.8439 L 392.2298 201.35334 L 392.71215 201.92928 L 393.1225 202.41882 L 397.3916 207.50145 L 392.84893 207.1055 C 391.5205 206.98963 390.2003 207.4047 389.17758 208.2603 C 388.1546 209.11585 387.51255 210.3418 387.39195 211.66978 C 387.33795 212.24301 387.51523 212.81422 387.8842 213.2563 C 388.2534 213.69816 388.78363 213.97467 389.3573 214.02391 L 403.03578 215.21898 C 403.5181 215.26217 403.99327 215.28377 404.4756 215.28377 C 408.27586 215.28647 411.95413 213.94225 414.85684 211.4898 C 417.63504 209.15882 419.3739 205.82024 419.6911 202.20746 C 420.00856 198.5948 418.8781 195.00424 416.5487 192.22478 Z M 380.09176 186.7534 C 380.09176 185.08163 380.98354 183.53668 382.4315 182.70094 C 383.87946 181.86491 385.663 181.86491 387.11097 182.70094 C 388.55893 183.53674 389.4507 185.08163 389.4507 186.7534 L 389.4507 186.82538 L 387.5501 184.56484 C 386.9395 183.82736 386.05672 183.36776 385.1024 183.29058 C 384.15055 183.1952 383.1998 183.4827 382.4603 184.0897 C 381.73905 184.70318 381.2884 185.57612 381.2063 186.51922 C 381.1242 187.46254 381.4169 188.40022 382.02115 189.12912 L 383.82094 191.28888 C 382.77574 191.07088 381.8362 190.50238 381.15817 189.67759 C 380.4799 188.85285 380.1037 187.82112 380.09176 186.7534 Z M 418.24746 202.10897 C 418.1118 203.70944 417.66006 205.26694 416.91877 206.69169 C 416.17726 208.11643 415.16085 209.38015 413.92794 210.40963 C 412.4512 211.65734 410.74095 212.5991 408.89704 213.18 C 407.0531 213.76088 405.11205 213.9692 403.18676 213.79325 L 389.5083 212.59819 C 389.3157 212.58176 389.13777 212.48863 389.0145 212.3397 C 388.8912 212.19076 388.83316 211.99863 388.85318 211.80628 C 388.9391 210.85667 389.3983 209.98016 390.1297 209.3687 C 390.8613 208.75722 391.80553 208.46113 392.75513 208.54504 L 397.2978 208.941 C 397.67713 208.97362 398.05397 208.8546 398.34574 208.61006 C 398.63753 208.36551 398.82066 208.01547 398.85485 207.63639 C 398.88927 207.25708 398.77206 206.87978 398.52886 206.58686 L 393.8134 200.9715 L 383.1298 188.23642 C 382.76084 187.7975 382.58154 187.22986 382.6315 186.65847 C 382.68143 186.08726 382.95657 185.55947 383.39615 185.19116 C 383.83508 184.8231 384.40225 184.64447 384.97277 184.69442 C 385.53386 184.75111 386.05064 185.0249 386.4126 185.45753 L 397.0818 198.1425 C 397.14885 198.22192 397.23254 198.28559 397.3266 198.32968 L 397.36977 198.32968 C 397.4474 198.3632 397.5302 198.38255 397.61455 198.38727 L 397.70814 198.38727 C 397.7536 198.39132 397.79947 198.39132 397.8449 198.38727 C 397.89824 198.36388 397.94886 198.33508 397.9961 198.30088 C 398.02467 198.29076 398.05145 198.27636 398.0753 198.2577 C 398.14863 198.19515 398.20983 198.11956 398.25527 198.03451 C 398.38643 197.7758 398.34954 197.46353 398.1617 197.2426 L 395.87234 194.45652 C 395.5034 194.0176 395.3241 193.44996 395.37403 192.87857 C 395.42397 192.30736 395.6991 191.77957 396.1387 191.41126 C 396.5776 191.0423 397.14526 190.863 397.71664 190.91294 C 398.28785 190.9629 398.81564 191.23803 399.18395 191.67761 L 402.4164 195.54358 C 402.48433 195.6203 402.5678 195.6817 402.66116 195.72356 L 402.75475 195.72356 C 402.8166 195.73436 402.88006 195.73436 402.94193 195.72356 C 402.98737 195.7276 403.03326 195.7276 403.0787 195.72356 L 403.1651 195.72356 C 403.2515 195.69476 403.3318 195.6509 403.40268 195.59397 C 403.5498 195.4718 403.6425 195.29633 403.66005 195.10577 C 403.6776 194.91545 403.61865 194.7258 403.49626 194.57889 L 401.17813 191.8576 C 400.68183 191.2661 400.53855 190.45467 400.80265 189.72888 C 401.06676 189.00309 401.69805 188.47351 402.45846 188.33944 C 403.2191 188.20535 403.99344 188.48725 404.4898 189.0787 L 405.4113 190.18738 L 407.26147 192.39033 C 407.51726 192.69 407.9663 192.7287 408.26935 192.47672 C 408.41874 192.35681 408.51413 192.18223 408.5344 191.99168 C 408.5546 191.80112 408.49816 191.61034 408.37734 191.46164 L 406.52715 189.25869 C 406.1582 188.82269 405.9771 188.25846 406.0232 187.68926 C 406.0707 187.11423 406.34627 186.58214 406.78857 186.21165 C 407.23087 185.84111 407.80296 185.6627 408.37734 185.7167 C 408.93843 185.7734 409.4552 186.04719 409.8172 186.47981 L 415.37495 193.10306 C 416.4258 194.33413 417.2222 195.76158 417.71786 197.30244 C 418.21325 198.84352 418.39815 200.4676 418.26184 202.08045 Z" fill="white"/>
      </g>
    </g>
  </g>
</svg>
