<?xml version="1.0" encoding="UTF-8" standalone="no"?>
<!DOCTYPE svg PUBLIC "-//W3C//DTD SVG 1.1//EN" "http://www.w3.org/Graphics/SVG/1.1/DTD/svg11.dtd">
<svg xmlns:xl="http://www.w3.org/1999/xlink" version="1.1" xmlns:dc="http://purl.org/dc/elements/1.1/" xmlns="http://www.w3.org/2000/svg" viewBox="360 652.5 73 73" width="73" height="73">
  <defs>
    <clipPath id="artboard_clip_path">
      <path d="M 360 652.5 L 433 652.5 L 433 725.5 L 360 725.5 Z"/>
    </clipPath>
  </defs>
  <g id="Canvas_1" stroke="none" fill="none" stroke-dasharray="none" stroke-opacity="1" fill-opacity="1">
    <title>Canvas 1</title>
    <g id="Canvas_1_Layer_1" clip-path="url(#artboard_clip_path)">
      <title>Layer 1</title>
      <g id="Graphic_148">
        <path d="M 395.2556 681.0179 L 395.2556 679.0444 C 395.2556 674.23324 391.3555 670.3332 386.54434 670.3332 C 381.73315 670.3332 377.8331 674.23324 377.8331 679.0444 C 377.8331 683.8556 381.73315 687.7557 386.54434 687.7557 L 406.4555 687.7557 C 412.6411 687.7557 417.65573 692.77 417.65573 698.9556 C 417.65573 705.1412 412.64145 710.1558 406.4555 710.1558 C 400.2699 710.1558 395.2556 705.1415 395.2556 698.9556 L 395.2556 694.5982 C 395.2556 694.2598 395.5367 693.9778 395.88364 693.9778 L 397.11636 693.9778 C 397.46854 693.9778 397.7444 694.2556 397.7444 694.5982 L 397.7444 698.9556 C 397.7444 703.7668 401.6445 707.6668 406.45566 707.6668 C 411.26685 707.6668 415.1669 703.7668 415.1669 698.9556 C 415.1669 694.1444 411.26685 690.2443 406.45566 690.2443 L 386.5445 690.2443 C 380.3589 690.2443 375.34427 685.23 375.34427 679.0444 C 375.34427 672.8588 380.35855 667.8442 386.5445 667.8442 C 392.7301 667.8442 397.7444 672.8585 397.7444 679.0444 L 397.7444 681.0179 L 399.5355 679.2268 C 399.77886 678.9834 400.17443 678.9855 400.41973 679.2308 L 401.29146 680.1025 C 401.5405 680.3515 401.53786 680.74434 401.29394 680.9881 L 397.3801 684.9023 C 396.89406 685.3882 396.1062 685.3882 395.62016 684.9023 L 391.70633 680.9881 C 391.46323 680.745 391.4635 680.3478 391.7088 680.1025 L 392.58054 679.2308 C 392.82956 678.9818 393.2217 678.9837 393.4648 679.2268 Z" fill="white"/>
      </g>
    </g>
  </g>
</svg>
