<?xml version="1.0" encoding="UTF-8" standalone="no"?>
<!DOCTYPE svg PUBLIC "-//W3C//DTD SVG 1.1//EN" "http://www.w3.org/Graphics/SVG/1.1/DTD/svg11.dtd">
<svg xmlns:xl="http://www.w3.org/1999/xlink" version="1.1" xmlns:dc="http://purl.org/dc/elements/1.1/" xmlns="http://www.w3.org/2000/svg" viewBox="360 318.599 73 73" width="73" height="73">
  <defs>
    <clipPath id="artboard_clip_path">
      <path d="M 360 318.599 L 433 318.599 L 433 391.599 L 360 391.599 Z"/>
    </clipPath>
  </defs>
  <g id="Canvas_1" stroke="none" fill="none" stroke-dasharray="none" stroke-opacity="1" fill-opacity="1">
    <title>Canvas 1</title>
    <g id="Canvas_1_Layer_1" clip-path="url(#artboard_clip_path)">
      <title>Layer 1</title>
      <g id="Graphic_9">
        <title>Bézier</title>
        <path d="M 384.78864 385.53515 C 382.97485 386.0321 381.0804 386.1645 379.2151 385.9249 C 377.34975 385.6853 375.5503 385.07845 373.921 384.13942 L 373.8768 384.1139 C 371.0983 382.50974 369.06885 379.8699 368.23255 376.77217 C 367.3963 373.67474 367.822 370.37176 369.4158 367.58768 L 373.2452 360.955 C 373.25298 360.9475 373.25856 360.93784 373.26116 360.92736 C 373.6843 360.1945 374.3814 359.6596 375.19883 359.44046 C 376.01637 359.22155 376.8875 359.3362 377.62035 359.7593 C 378.2912 360.1519 378.79567 360.77597 379.03906 361.51435 C 379.538 361.09375 380.15393 360.83632 380.8037 360.77666 C 381.4535 360.717 382.1061 360.85797 382.67336 361.18063 C 383.35263 361.57097 383.86154 362.20126 384.09993 362.9476 C 384.4546 362.6464 384.8709 362.42634 385.31954 362.3031 C 386.13595 362.08287 387.0065 362.19576 387.73976 362.61705 C 388.34014 362.9593 388.81074 363.4901 389.0788 364.1271 L 393.5464 356.389 C 393.9682 355.6521 394.6663 355.11344 395.48626 354.89273 C 396.29555 354.66217 397.16326 354.76034 397.9003 355.1663 C 398.6332 355.58943 399.16807 356.28653 399.3872 357.10398 C 399.6061 357.9215 399.4915 358.79263 399.06836 359.5255 L 392.0895 371.7537 L 388.5312 377.91676 L 392.4379 376.85595 C 393.5806 376.54726 394.7989 376.7048 395.82574 377.29377 C 396.8468 377.8743 397.5953 378.83683 397.9069 379.96926 C 398.0401 380.46255 397.9745 380.9882 397.72465 381.43377 C 397.47274 381.87606 397.05515 382.19967 396.56406 382.33344 Z M 396.65174 380.30517 C 396.42917 379.49684 395.89726 378.80858 395.1712 378.38916 C 394.44233 377.97824 393.5811 377.87 392.7731 378.08795 L 388.8664 379.14876 C 388.5459 379.22924 388.2065 379.18207 387.91988 379.0175 C 387.63337 378.8528 387.4218 378.58346 387.32968 378.2659 C 387.23775 377.94844 387.2724 377.6076 387.42667 377.31526 L 390.78376 371.5006 L 397.96637 358.88126 C 398.22027 358.4415 398.28916 357.9189 398.1576 357.42837 C 398.0263 356.9378 397.70534 356.51966 397.26555 356.26575 C 396.824 356.01335 396.30026 355.9468 395.80976 356.08115 C 395.3172 356.2127 394.8975 356.53557 394.64365 356.97762 L 387.3427 369.7126 C 387.25803 369.85924 387.11865 369.96624 386.9552 370.01004 C 386.7917 370.05383 386.6175 370.03087 386.47086 369.9462 C 386.3242 369.86154 386.2172 369.72216 386.17342 369.5587 C 386.12963 369.3952 386.1526 369.221 386.23725 369.07437 L 387.83282 366.31075 C 388.08628 365.87097 388.15464 365.3485 388.02295 364.85816 C 387.88976 364.36925 387.5683 363.95315 387.1288 363.70077 C 386.68905 363.44687 386.16645 363.378 385.6759 363.50952 C 385.18533 363.64082 384.7672 363.9618 384.5133 364.4016 L 382.2795 368.27065 C 382.19482 368.4173 382.05544 368.5243 381.89197 368.5681 C 381.7285 368.6119 381.5543 368.58893 381.40765 368.50426 C 381.261 368.4196 381.154 368.2802 381.1102 368.11674 C 381.0664 367.95327 381.08938 367.77907 381.17404 367.63242 L 382.7696 364.8688 C 383.0235 364.42905 383.0924 363.90645 382.96086 363.4159 C 382.82956 362.92533 382.5086 362.5072 382.0688 362.2533 C 381.629 361.9994 381.10643 361.9305 380.6159 362.06205 C 380.1253 362.19335 379.7072 362.51433 379.45328 362.9541 L 377.5386 366.27046 C 377.4539 366.4171 377.31454 366.5241 377.15107 366.5679 C 376.9876 366.6117 376.8134 366.58873 376.66675 366.50407 C 376.5201 366.4194 376.4131 366.28 376.3693 366.11655 C 376.3255 365.95308 376.34847 365.77887 376.43314 365.63223 L 377.7096 363.42133 C 377.96403 362.98304 378.03436 362.46194 377.90525 361.97193 C 377.77206 361.483 377.4506 361.06692 377.0111 360.81454 C 376.57135 360.56064 376.04875 360.49175 375.5582 360.6233 C 375.06763 360.7546 374.6495 361.07557 374.3956 361.51536 L 370.5662 368.14804 C 369.1415 370.6393 368.762 373.59344 369.5102 376.36423 C 370.2588 379.1347 372.0744 381.4959 374.55964 382.93075 L 374.62596 382.96904 C 376.10786 383.826 377.74482 384.38097 379.44244 384.60224 C 381.14 384.82324 382.86436 384.70623 384.5165 384.25756 L 396.2508 381.12756 C 396.41724 381.085 396.55945 380.9771 396.6453 380.8284 C 396.73117 380.6797 396.7535 380.5026 396.70714 380.33717 Z" fill="white"/>
      </g>
      <g id="Group_17">
        <g id="Graphic_103">
          <path d="M 384.2298 334.22306 L 384.2298 334.22306 C 384.2298 333.91502 384.35215 333.6195 384.57015 333.40167 C 384.788 333.18366 385.0835 333.0613 385.39155 333.0613 C 385.6996 333.0613 385.9951 333.18366 386.21295 333.40167 C 386.43096 333.6195 386.5533 333.915 386.5533 334.22306 C 386.5533 334.5311 386.43096 334.8266 386.21295 335.04446 C 385.9951 335.26247 385.6996 335.3848 385.39155 335.3848 C 385.0835 335.3848 384.788 335.26247 384.57015 335.04446 C 384.35215 334.82664 384.2298 334.5311 384.2298 334.22306 Z M 384.2298 345.84048 L 384.2298 345.84048 C 384.22435 345.4522 384.41314 345.08697 384.73316 344.867 C 385.053 344.64698 385.4618 344.60123 385.8223 344.74536 C 386.183 344.8893 386.44766 345.20407 386.5281 345.5838 C 386.60833 345.96374 386.4936 346.35856 386.22223 346.63626 C 386.00495 346.8488 385.7129 346.96754 385.409 346.96735 C 385.10388 346.97207 384.8091 346.85645 384.58836 346.6457 C 384.3678 346.43477 384.23893 346.1456 384.22986 345.84047 Z M 414.33065 375.0759 L 414.29 375.0759 C 412.732 375.0772 411.18907 374.77006 409.7503 374.17176 C 408.31176 373.57365 407.00587 372.69635 405.90803 371.5907 L 398.09555 363.6732 C 397.98827 363.565 397.92782 363.4189 397.9271 363.2666 C 397.9262 363.1094 397.989 362.95837 398.10136 362.84836 C 398.64956 362.3047 399.39145 362.00155 400.16345 362.0061 C 400.93382 362.00937 401.67153 362.3187 402.21392 362.8658 L 404.8104 365.4797 C 405.02734 365.69844 405.32233 365.82206 405.6305 365.82333 C 405.93855 365.8246 406.23443 365.70352 406.45335 365.48642 C 406.6721 365.2695 406.7957 364.9745 406.79697 364.66647 L 406.79697 358.18395 L 406.83763 345.36995 C 406.83963 344.90707 407.0255 344.46397 407.3546 344.1385 C 407.6806 343.8152 408.121 343.6335 408.58024 343.63314 C 409.0424 343.63314 409.48566 343.81666 409.81243 344.14357 C 410.13935 344.4703 410.32285 344.91357 410.32285 345.37576 L 410.2764 358.73578 C 410.2764 358.8899 410.33756 359.03765 410.44647 359.14656 C 410.5554 359.25547 410.70314 359.31665 410.85725 359.31665 C 410.93694 359.3163 411.0159 359.3005 411.0896 359.2702 C 411.30416 359.17924 411.44375 358.96885 411.44393 358.73578 L 411.44393 355.83143 C 411.44393 355.36927 411.62745 354.926 411.95436 354.59924 C 412.2811 354.2723 412.72436 354.0888 413.18655 354.0888 C 413.64873 354.0888 414.09196 354.27233 414.41873 354.59924 C 414.74566 354.92597 414.92916 355.36924 414.92916 355.83143 L 414.92916 359.8975 C 414.92916 360.05163 414.99033 360.1994 415.09925 360.3083 C 415.20816 360.4172 415.3559 360.4784 415.51003 360.4784 C 415.66414 360.4784 415.8119 360.4172 415.9208 360.3083 C 416.0297 360.1994 416.0909 360.05163 416.0909 359.8975 L 416.0909 356.99317 C 416.0909 356.531 416.2744 356.08775 416.6013 355.76098 C 416.92806 355.43405 417.3713 355.25055 417.8335 355.25055 C 418.2957 355.25055 418.7389 355.43407 419.0657 355.76098 C 419.3926 356.0877 419.5761 356.531 419.5761 356.99317 L 419.5761 360.4784 C 419.5761 360.6325 419.6373 360.78026 419.7462 360.88917 C 419.8551 360.9981 420.0029 361.05926 420.157 361.05926 C 420.3111 361.05926 420.45886 360.9981 420.56777 360.88917 C 420.6767 360.78026 420.73786 360.6325 420.73786 360.4784 L 420.73786 358.1549 C 420.73786 357.69275 420.9214 357.2495 421.2483 356.9227 C 421.575 356.5958 422.0183 356.4123 422.48047 356.4123 C 422.94245 356.41266 423.3854 356.59654 423.7119 356.92346 C 424.0381 357.25238 424.22 357.69746 424.2173 358.1607 L 424.2053 365.24155 C 424.1946 367.85347 423.1494 370.3546 421.29877 372.19806 C 419.448 374.04104 416.94243 375.0759 414.33065 375.0759 Z M 397.71642 359.6717 C 397.87293 359.62166 398.02537 359.5546 398.17095 359.47053 C 398.8898 359.05557 399.3327 358.28844 399.3327 357.45835 C 399.32943 357.07824 399.2316 356.70503 399.04807 356.37212 L 405.67 349.65726 L 405.63514 359.32294 L 405.63514 364.67857 L 403.04446 362.06465 C 402.28514 361.2901 401.24794 360.8508 400.16334 360.84483 C 399.09616 360.8381 398.07 361.25598 397.31127 362.00657 C 396.97527 362.3302 396.7865 362.7773 396.7885 363.2438 C 396.76743 363.70707 396.9375 364.15853 397.259 364.4927 L 405.0891 372.3693 C 406.2919 373.5877 407.72446 374.55537 409.30387 375.2165 C 410.8833 375.8776 412.578 376.21884 414.29006 376.22047 L 414.33653 376.22047 C 417.25557 376.22047 420.05555 375.06416 422.1244 373.00444 C 424.19284 370.94472 425.3609 368.1493 425.37326 365.23054 L 425.37326 358.2601 L 425.37326 358.23105 C 425.39014 357.45724 425.09735 356.7086 424.56004 356.15153 L 424.55987 356.15116 C 424.0166 355.60607 423.2791 355.2989 422.5094 355.2973 C 421.802 355.30145 421.1204 355.56376 420.59253 356.035 C 420.39067 355.4764 420.02235 354.99323 419.53734 354.6505 C 419.05234 354.3078 418.4738 354.12192 417.87986 354.1181 C 417.16957 354.12247 416.4856 354.38695 415.9572 354.86163 C 415.8087 354.45865 415.57254 354.09362 415.26595 353.79283 C 414.72267 353.24774 413.98515 352.94057 413.21547 352.93895 C 412.5865 352.93604 411.9742 353.14007 411.47286 353.5198 L 411.47286 345.38763 C 411.47286 344.61744 411.1668 343.8786 410.62223 343.3339 C 410.07747 342.78932 409.3387 342.48328 408.5685 342.48328 C 407.7983 342.48328 407.0595 342.7893 406.5148 343.3339 C 405.9702 343.87867 405.66416 344.61744 405.66416 345.38763 L 405.66416 348.00155 L 398.2699 355.49478 C 397.9105 355.2568 397.4906 355.1261 397.0597 355.11793 C 396.62877 355.10977 396.2044 355.2243 395.83606 355.4483 L 387.38416 347.00245 C 387.7619 346.37766 387.81963 345.61036 387.5399 344.936 C 387.26 344.26162 386.67604 343.76063 385.9668 343.58693 L 385.9668 336.44826 C 386.70327 336.2582 387.29994 335.7196 387.5644 335.00645 C 387.82887 334.2934 387.7276 333.496 387.2932 332.87173 C 386.859 332.24727 386.1465 331.875 385.38595 331.875 C 384.6254 331.875 383.9129 332.2473 383.4787 332.87173 C 383.0443 333.496 382.94304 334.2934 383.2075 335.00645 C 383.472 335.71967 384.06863 336.25825 384.8051 336.44826 L 384.8051 343.58135 C 384.07756 343.77885 383.49106 344.31706 383.23186 345.025 C 382.97282 345.7329 383.0732 346.5227 383.5014 347.14316 C 383.92963 347.76376 384.6321 348.1379 385.386 348.147 C 385.79605 348.1441 386.19777 348.02973 386.54773 347.8159 L 394.95514 356.23484 L 395.67857 355.5 L 397.60714 355.5 L 398.25 356.625 L 398.8125 357.75 L 398.25 358.765 Z" fill="white"/>
        </g>
        <g id="Graphic_22">
          <path d="M 397.00895 331.8996 C 396.39267 331.8996 395.80167 332.14445 395.366 332.58013 C 394.93037 333.0158 394.68547 333.60683 394.68547 334.22306 C 394.68547 334.8393 394.93034 335.43035 395.366 335.866 C 395.8017 336.30165 396.3927 336.54655 397.00895 336.54655 C 397.6252 336.54655 398.21623 336.30167 398.6519 335.866 C 399.08754 335.43032 399.33243 334.8393 399.33243 334.22306 C 399.33243 333.60683 399.08756 333.0158 398.6519 332.58013 C 398.2162 332.14448 397.6252 331.8996 397.00895 331.8996 Z M 397.00895 335.3848 C 396.7009 335.3848 396.4054 335.26246 396.18756 335.04445 C 395.96955 334.82663 395.8472 334.5311 395.8472 334.22306 C 395.8472 333.915 395.96955 333.6195 396.18756 333.40166 C 396.4054 333.18365 396.7009 333.0613 397.00895 333.0613 C 397.317 333.0613 397.6125 333.18365 397.83035 333.40166 C 398.04836 333.6195 398.1707 333.915 398.1707 334.22306 C 398.1707 334.5311 398.04836 334.8266 397.83035 335.04445 C 397.6125 335.26246 397.317 335.3848 397.00895 335.3848 Z" fill="white"/>
        </g>
        <g id="Graphic_21">
          <path d="M 406.3029 334.22306 C 406.3029 334.83934 406.54775 335.43035 406.98343 335.866 C 407.4191 336.30165 408.01013 336.54655 408.62636 336.54655 C 409.2426 336.54655 409.83364 336.30167 410.2693 335.866 C 410.70495 335.43032 410.94985 334.8393 410.94985 334.22306 C 410.94985 333.60683 410.70497 333.0158 410.2693 332.58013 C 409.8336 332.14448 409.2426 331.8996 408.62636 331.8996 C 408.01013 331.8996 407.4191 332.14445 406.98343 332.58013 C 406.5478 333.0158 406.3029 333.60683 406.3029 334.22306 Z M 409.7881 334.22306 C 409.7881 334.5311 409.66576 334.8266 409.44775 335.04446 C 409.22992 335.26247 408.9344 335.3848 408.62635 335.3848 C 408.3183 335.3848 408.0228 335.26247 407.80496 335.04446 C 407.58695 334.82664 407.4646 334.5311 407.4646 334.22306 C 407.4646 333.915 407.58695 333.6195 407.80496 333.40167 C 408.0228 333.18366 408.3183 333.0613 408.62635 333.0613 C 408.9344 333.0613 409.2299 333.18366 409.44775 333.40167 C 409.66576 333.6195 409.7881 333.915 409.7881 334.22306 Z" fill="white"/>
        </g>
        <g id="Graphic_20">
          <path d="M 397.00895 343.517 C 396.39267 343.517 395.80167 343.76186 395.366 344.19754 C 394.93037 344.6332 394.68547 345.22424 394.68547 345.84048 C 394.68547 346.4567 394.93034 347.04776 395.366 347.4834 C 395.8017 347.91906 396.3927 348.16396 397.00895 348.16396 C 397.6252 348.16396 398.21623 347.9191 398.6519 347.4834 C 399.08754 347.04773 399.33243 346.4567 399.33243 345.84048 C 399.33243 345.22424 399.08756 344.6332 398.6519 344.19754 C 398.2162 343.7619 397.6252 343.517 397.00895 343.517 Z M 397.00895 347.0022 C 396.7009 347.0022 396.4054 346.87987 396.18756 346.66186 C 395.96955 346.44404 395.8472 346.1485 395.8472 345.84047 C 395.8472 345.5324 395.96955 345.2369 396.18756 345.01907 C 396.4054 344.80106 396.7009 344.6787 397.00895 344.6787 C 397.317 344.6787 397.6125 344.80106 397.83035 345.01907 C 398.04836 345.2369 398.1707 345.5324 398.1707 345.84047 C 398.1707 346.1485 398.04836 346.444 397.83035 346.66186 C 397.6125 346.87987 397.317 347.0022 397.00895 347.0022 Z" fill="white"/>
        </g>
        <g id="Graphic_19">
          <path d="M 387.71502 357.4579 C 387.71502 356.8416 387.47015 356.2506 387.03448 355.81495 C 386.5988 355.3793 386.00778 355.1344 385.39154 355.1344 C 384.7753 355.1344 384.18426 355.37928 383.7486 355.81495 C 383.31295 356.25063 383.06806 356.84165 383.06806 357.4579 C 383.06806 358.0741 383.31293 358.66517 383.7486 359.1008 C 384.1843 359.53647 384.7753 359.78137 385.39154 359.78137 C 386.00778 359.78137 386.59882 359.5365 387.03448 359.1008 C 387.47013 358.66514 387.71502 358.0741 387.71502 357.4579 Z M 385.39154 358.61963 C 385.0835 358.61963 384.788 358.4973 384.57014 358.27927 C 384.35214 358.06145 384.2298 357.76592 384.2298 357.45788 C 384.2298 357.14983 384.35214 356.85433 384.57014 356.6365 C 384.78797 356.41847 385.0835 356.29613 385.39154 356.29613 C 385.6996 356.29613 385.9951 356.41847 386.21294 356.6365 C 386.43095 356.8543 386.5533 357.14983 386.5533 357.45788 C 386.5533 357.76592 386.43095 358.06142 386.21294 358.27927 C 385.9951 358.4973 385.6996 358.61963 385.39154 358.61963 Z" fill="white"/>
        </g>
      </g>
      <g id="Graphic_105">
        <text transform="translate(365 366.36954)" fill="#00c800">
          <tspan font-family="Zapf Dingbats" font-size="24" fill="#00c800" x="0" y="20">✔</tspan>
        </text>
      </g>
    </g>
  </g>
</svg>
