<?xml version="1.0" encoding="UTF-8"?>
<svg width="1200pt" height="1200pt" version="1.1" viewBox="0 0 1200 1200" xmlns="http://www.w3.org/2000/svg">
 <path d="m1139.6 602.95c-10.332-293.79-244.48-525.17-539.56-530.86-298.11-5.7383-534.36 250.46-539.94 539.91-5.7617 298.09 250.48 534.31 539.94 539.89 294.96 5.6875 529.23-245.11 539.54-530.77 0.28906-2.9414 0.45703-5.9531 0.39453-9.1211 0.0625-3.1406-0.10547-6.1406-0.37891-9.0547zm-546.82 281.34c2.7969 3.2266 5.7969 4.8008 9 4.8008 5.6055 0 10.992-2.3984 16.199-7.2109 14.797-11.988 32.195-33.574 52.199-64.766l16.789 9.6016c-48.781 84.77-100.59 127.16-155.35 127.16-20.809 0-37.402-5.9141-49.777-17.699-12.406-11.785-18.602-26.711-18.602-44.711 0-11.977 2.7852-27.18 8.3984-45.574l67.176-230.9c6.3945-21.984 9.6133-38.578 9.6133-49.777 0-7.2109-3.1211-13.57-9.3008-19.211-6.2148-5.5938-14.508-8.375-24.887-8.375-5.207 0-11.016 0.20313-17.41 0.58984l6.0117-19.188 163.75-26.398h28.789l-98.992 343.09c-5.207 19.609-7.7891 32.578-7.7891 38.977 0.003906 3.2188 1.3828 6.4102 4.1797 9.5898zm122.98-492.7c-13.992 13.789-30.793 20.664-50.387 20.664-19.188 0-35.688-6.875-49.488-20.664-13.789-13.801-20.688-30.492-20.688-50.09 0-19.57 6.7812-36.383 20.375-50.398 13.609-13.969 30.203-20.977 49.789-20.977 19.992 0 36.887 7.0078 50.699 20.977 13.777 14.016 20.699 30.816 20.699 50.398 0 19.598-7.0078 36.277-21 50.09z" fill="#fff"/>
</svg>
