<?xml version="1.0" encoding="UTF-8"?>
<svg width="1200pt" height="1200pt" version="1.1" viewBox="0 0 1200 1200" xmlns="http://www.w3.org/2000/svg">
 <g fill="#fff">
  <path d="m522.66 844.22v-203.53c0-9.7734-3.8828-19.145-10.793-26.051-6.9062-6.9102-16.277-10.793-26.051-10.793h-1.3125c-9.9453 0-19.484-3.9492-26.516-10.984-7.0352-7.0312-10.984-16.57-10.984-26.516v-77.719c0-9.9453 3.9492-19.484 10.984-26.516 7.0312-7.0352 16.57-10.984 26.516-10.984l80.719-0.46875h76.031c9.9453 0 19.484 3.9492 26.516 10.984 7.0352 7.0312 10.984 16.57 10.984 26.516v282.09c0 9.7734 3.8828 19.145 10.793 26.051 6.9062 6.9102 16.277 10.793 26.051 10.793 9.9453 0 19.484 3.9492 26.516 10.984 7.0352 7.0312 10.984 16.57 10.984 26.516v76.031c0 9.9453-3.9492 19.484-10.984 26.516-7.0312 7.0352-16.57 10.984-26.516 10.984h-155.44c-9.9453 0-19.484-3.9492-26.516-10.984-7.0352-7.0312-10.984-16.57-10.984-26.516z"/>
  <path d="m675 316.88c0 51.777-41.973 93.75-93.75 93.75s-93.75-41.973-93.75-93.75 41.973-93.75 93.75-93.75 93.75 41.973 93.75 93.75"/>
  <path d="m600 150c119.35 0 233.81 47.41 318.2 131.8s131.8 198.85 131.8 318.2-47.41 233.81-131.8 318.2-198.85 131.8-318.2 131.8-233.81-47.41-318.2-131.8-131.8-198.85-131.8-318.2c0.125-119.31 47.574-233.7 131.94-318.06 84.367-84.363 198.75-131.81 318.06-131.94m0-150c-159.13 0-311.74 63.215-424.27 175.73-112.52 112.52-175.73 265.14-175.73 424.27s63.215 311.74 175.73 424.27c112.52 112.52 265.14 175.73 424.27 175.73s311.74-63.215 424.27-175.73c112.52-112.52 175.73-265.14 175.73-424.27 0-105.32-27.723-208.79-80.383-300-52.664-91.211-128.41-166.95-219.62-219.62-91.211-52.66-194.68-80.383-300-80.383z"/>
 </g>
</svg>
