<?xml version="1.0" encoding="UTF-8"?>
<svg width="1200pt" height="1200pt" version="1.1" viewBox="0 0 1200 1200" xmlns="http://www.w3.org/2000/svg">
 <path d="m550.8 135.6c-211.2 25.199-373.2 176.4-411.6 375.6-48 253.2 116.4 500.4 367.2 552 13.199 2.3984 148.8 15.602 250.8-18 172.8-67.199 278.4-190.8 309.6-375.6 1.1992-3.6016 16.801-154.8-45.602-277.2-82.801-169.2-265.2-282-470.4-256.8zm42 752.4c-38.398 0-67.199-28.801-67.199-66 0-40.801 27.602-69.602 67.199-69.602 39.602-1.1992 69.602 28.801 69.602 68.398-0.003906 38.402-28.801 67.203-69.602 67.203zm148.8-313.2c-16.801 14.398-33.602 27.602-51.602 39.602-26.398 17.996-42 45.598-42 81.598h-108c-4.8008-38.398-2.3984-81.602 32.398-109.2 20.398-15.602 42-28.801 58.801-45.602 15.602-16.801 31.199-37.199 38.398-57.602 8.3984-26.398-12-57.602-34.801-66-33.602-12-74.398-2.3984-88.801 25.199-8.3984 15.602-13.199 34.801-20.398 54h-100.8c-10.801-54 19.199-120 69.602-152.4 69.602-43.199 188.4-33.602 249.6 21.602 61.199 54 60 154.8-2.3984 208.8z" fill="#fff"/>
</svg>
