<?xml version="1.0" encoding="UTF-8"?>
<svg width="1200pt" height="1200pt" version="1.1" viewBox="0 0 1200 1200" xmlns="http://www.w3.org/2000/svg">
 <path d="m600 60c-298.8 0-540 241.2-540 540s241.2 540 540 540 540-241.2 540-540-241.2-540-540-540zm-56.398 758.4c0 20.398-15.602 36-36 36h-96c-19.199 0-36-15.602-36-36v-436.8c0-19.199 16.801-36 36-36h96c20.398 0 36 16.801 36 36zm278.4 0c0 20.398-15.602 36-36 36h-96c-19.199 0-36-15.602-36-36v-436.8c0-19.199 16.801-36 36-36h96c20.398 0 36 16.801 36 36z" fill="#fff"/>
</svg>
