<?xml version="1.0" encoding="UTF-8" standalone="no"?>
<!DOCTYPE svg PUBLIC "-//W3C//DTD SVG 1.1//EN" "http://www.w3.org/Graphics/SVG/1.1/DTD/svg11.dtd">
<svg version="1.1" xmlns="http://www.w3.org/2000/svg" xmlns:xl="http://www.w3.org/1999/xlink" xmlns:dc="http://purl.org/dc/elements/1.1/" viewBox="452.25 317.54773 73 73" width="73" height="73">
  <defs>
    <clipPath id="artboard_clip_path">
      <path d="M 452.25 317.54773 L 525.25 317.54773 L 525.25 390.54773 L 452.25 390.54773 Z"/>
    </clipPath>
  </defs>
  <g id="Canvas_1" stroke-opacity="1" stroke-dasharray="none" stroke="none" fill="none" fill-opacity="1">
    <title>Canvas 1</title>
    <g id="Canvas_1_Layer_1" clip-path="url(#artboard_clip_path)">
      <title>Layer 1</title>
      <g id="Group_180">
        <g id="Graphic_184">
          <path d="M 512.56323 337.39192 C 510.2606 337.39192 508.39134 334.71024 508.39134 331.4061 C 508.39134 330.9328 508.1225 330.55592 507.7988 330.55592 C 507.4751 330.55592 507.20626 330.94162 507.20626 331.4061 C 507.20626 334.70995 505.3372 337.39192 503.03437 337.39192 C 500.7317 337.39192 498.8625 334.71024 498.8625 331.4061 C 498.8625 330.9328 498.59365 330.55592 498.26993 330.55592 C 497.94007 330.55592 497.6774 330.94162 497.6774 331.4061 C 497.6774 334.70995 495.80836 337.39192 493.5055 337.39192 C 491.20284 337.39192 489.3336 334.71024 489.3336 331.4061 C 489.3336 330.9328 489.0648 330.55592 488.74107 330.55592 C 488.41737 330.55592 488.1485 330.94162 488.1485 331.4061 C 488.1485 334.70995 486.27334 337.39192 483.97663 337.39192 C 481.674 337.39192 479.80474 334.71024 479.80474 331.4061 C 479.80474 330.9328 479.5359 330.55592 479.2122 330.55592 C 478.8885 330.55592 478.61966 330.94162 478.61966 331.4061 C 478.61966 334.70995 476.75063 337.39192 474.44777 337.39192 C 472.1451 337.39192 470.2759 334.71024 470.2759 331.4061 C 470.2759 330.9328 470.00705 330.55592 469.68333 330.55592 C 469.35347 330.55592 469.0908 330.94162 469.0908 331.4061 C 469.0908 334.70995 467.22176 337.39192 464.9189 337.39192 C 464.58904 337.39192 464.32636 337.77762 464.32636 338.2421 C 464.32636 338.70657 464.5952 339.09227 464.9189 339.09227 C 467.0078 339.09227 468.80366 337.35687 469.68333 334.85068 C 470.5689 337.35716 472.3648 339.09227 474.4537 339.09227 C 476.54265 339.09227 478.3385 337.35687 479.21816 334.85068 C 480.10373 337.35716 481.8996 339.09227 483.9826 339.09227 C 486.0715 339.09227 487.86735 337.35687 488.753 334.85068 C 489.63855 337.35716 491.43444 339.09227 493.5174 339.09227 C 495.6004 339.09227 497.4022 337.35687 498.28184 334.85068 C 499.1674 337.35716 500.9633 339.09227 503.05223 339.09227 C 505.14116 339.09227 506.937 337.35687 507.81666 334.85068 C 508.70224 337.35716 510.4981 339.09227 512.5811 339.09227 C 512.91096 339.09227 513.17364 338.70657 513.17364 338.2421 C 513.17403 337.77765 512.8869 337.39192 512.56323 337.39192 Z" fill="white"/>
        </g>
        <g id="Graphic_183">
          <path d="M 512.56323 350.21352 C 510.2606 350.21352 508.39134 347.53184 508.39134 344.2277 C 508.39134 343.7544 508.1225 343.37753 507.7988 343.37753 C 507.4751 343.37753 507.20626 343.76323 507.20626 344.2277 C 507.20626 347.53155 505.3372 350.21352 503.03437 350.21352 C 500.7317 350.21352 498.8625 347.53184 498.8625 344.2277 C 498.8625 343.7544 498.59365 343.37753 498.26993 343.37753 C 497.94007 343.37753 497.6774 343.76323 497.6774 344.2277 C 497.6774 347.53155 495.80836 350.21352 493.5055 350.21352 C 491.20284 350.21352 489.3336 347.53184 489.3336 344.2277 C 489.3336 343.7544 489.0648 343.37753 488.74107 343.37753 C 488.41737 343.37753 488.1485 343.76323 488.1485 344.2277 C 488.1485 347.53155 486.27334 350.21352 483.97663 350.21352 C 481.674 350.21352 479.80474 347.53184 479.80474 344.2277 C 479.80474 343.7544 479.5359 343.37753 479.2122 343.37753 C 478.8885 343.37753 478.61966 343.76323 478.61966 344.2277 C 478.61966 347.53155 476.75063 350.21352 474.44777 350.21352 C 472.1451 350.21352 470.2759 347.53184 470.2759 344.2277 C 470.2759 343.7544 470.00705 343.37753 469.68333 343.37753 C 469.35347 343.37753 469.0908 343.76323 469.0908 344.2277 C 469.0908 347.53155 467.22176 350.21352 464.9189 350.21352 C 464.58904 350.21352 464.32636 350.59922 464.32636 351.0637 C 464.32636 351.52817 464.5952 351.91387 464.9189 351.91387 C 467.0078 351.91387 468.80366 350.17847 469.68333 347.6723 C 470.5689 350.17876 472.3648 351.91387 474.4537 351.91387 C 476.54265 351.91387 478.3385 350.17847 479.21816 347.6723 C 480.10373 350.17876 481.8996 351.91387 483.9826 351.91387 C 486.0715 351.91387 487.86735 350.17847 488.753 347.6723 C 489.63855 350.17876 491.43444 351.91387 493.5174 351.91387 C 495.6004 351.91387 497.4022 350.17847 498.28184 347.6723 C 499.1674 350.17876 500.9633 351.91387 503.05223 351.91387 C 505.14116 351.91387 506.937 350.17847 507.81666 347.6723 C 508.70224 350.17876 510.4981 351.91387 512.5811 351.91387 C 512.91096 351.91387 513.17364 351.52817 513.17364 351.0637 C 513.17403 350.59897 512.8869 350.21352 512.56323 350.21352 Z" fill="white"/>
        </g>
        <g id="Graphic_182">
          <path d="M 512.56323 363.02636 C 510.2606 363.02636 508.39134 360.34468 508.39134 357.04054 C 508.39134 356.56725 508.1225 356.19036 507.7988 356.19036 C 507.4751 356.19036 507.20626 356.57606 507.20626 357.04054 C 507.20626 360.3444 505.3372 363.02636 503.03437 363.02636 C 500.7317 363.02636 498.8625 360.34468 498.8625 357.04054 C 498.8625 356.56725 498.59365 356.19036 498.26993 356.19036 C 497.94007 356.19036 497.6774 356.57606 497.6774 357.04054 C 497.6774 360.3444 495.80836 363.02636 493.5055 363.02636 C 491.20284 363.02636 489.3336 360.34468 489.3336 357.04054 C 489.3336 356.56725 489.0648 356.19036 488.74107 356.19036 C 488.41737 356.19036 488.1485 356.57606 488.1485 357.04054 C 488.1485 360.3444 486.27334 363.02636 483.97663 363.02636 C 481.674 363.02636 479.80474 360.34468 479.80474 357.04054 C 479.80474 356.56725 479.5359 356.19036 479.2122 356.19036 C 478.8885 356.19036 478.61966 356.57606 478.61966 357.04054 C 478.61966 360.3444 476.75063 363.02636 474.44777 363.02636 C 472.1451 363.02636 470.2759 360.34468 470.2759 357.04054 C 470.2759 356.56725 470.00705 356.19036 469.68333 356.19036 C 469.35347 356.19036 469.0908 356.57606 469.0908 357.04054 C 469.0908 360.3444 467.22176 363.02636 464.9189 363.02636 C 464.58904 363.02636 464.32636 363.41206 464.32636 363.87653 C 464.32636 364.341 464.5952 364.7267 464.9189 364.7267 C 467.0078 364.7267 468.80366 362.9913 469.68333 360.4851 C 470.5689 362.9916 472.3648 364.7267 474.4537 364.7267 C 476.54265 364.7267 478.3385 362.9913 479.21816 360.4851 C 480.10373 362.9916 481.8996 364.7267 483.9826 364.7267 C 486.0715 364.7267 487.86735 362.9913 488.753 360.4851 C 489.63855 362.9916 491.43444 364.7267 493.5174 364.7267 C 495.6004 364.7267 497.4022 362.9913 498.28184 360.4851 C 499.1674 362.9916 500.9633 364.7267 503.05223 364.7267 C 505.14116 364.7267 506.937 362.9913 507.81666 360.4851 C 508.70224 362.9916 510.4981 364.7267 512.5811 364.7267 C 512.91096 364.7267 513.17364 364.341 513.17364 363.87653 C 513.17403 363.4121 512.8869 363.02636 512.56323 363.02636 Z" fill="white"/>
        </g>
        <g id="Graphic_181">
          <path d="M 512.56323 375.8392 C 510.2606 375.8392 508.39134 373.1575 508.39134 369.85337 C 508.39134 369.3801 508.1225 369.0032 507.7988 369.0032 C 507.4751 369.0032 507.20626 369.3889 507.20626 369.85337 C 507.20626 373.15722 505.3372 375.8392 503.03437 375.8392 C 500.7317 375.8392 498.8625 373.1575 498.8625 369.85337 C 498.8625 369.3801 498.59365 369.0032 498.26993 369.0032 C 497.94007 369.0032 497.6774 369.3889 497.6774 369.85337 C 497.6774 373.15722 495.80836 375.8392 493.5055 375.8392 C 491.20284 375.8392 489.3336 373.1575 489.3336 369.85337 C 489.3336 369.3801 489.0648 369.0032 488.74107 369.0032 C 488.41737 369.0032 488.1485 369.3889 488.1485 369.85337 C 488.1485 373.15722 486.27334 375.8392 483.97663 375.8392 C 481.674 375.8392 479.80474 373.1575 479.80474 369.85337 C 479.80474 369.3801 479.5359 369.0032 479.2122 369.0032 C 478.8885 369.0032 478.61966 369.3889 478.61966 369.85337 C 478.61966 373.15722 476.75063 375.8392 474.44777 375.8392 C 472.1451 375.8392 470.2759 373.1575 470.2759 369.85337 C 470.2759 369.3801 470.00705 369.0032 469.68333 369.0032 C 469.35347 369.0032 469.0908 369.3889 469.0908 369.85337 C 469.0908 373.15722 467.22176 375.8392 464.9189 375.8392 C 464.58904 375.8392 464.32636 376.2249 464.32636 376.68937 C 464.32636 377.16266 464.5952 377.53954 464.9189 377.53954 C 467.0078 377.53954 468.80366 375.80414 469.68333 373.29796 C 470.5689 375.80444 472.3648 377.53954 474.4537 377.53954 C 476.54265 377.53954 478.3385 375.80414 479.21816 373.29796 C 480.10373 375.80444 481.8996 377.53954 483.9826 377.53954 C 486.0715 377.53954 487.86735 375.80414 488.753 373.29796 C 489.63855 375.80444 491.43444 377.53954 493.5174 377.53954 C 495.6004 377.53954 497.4022 375.80414 498.28184 373.29796 C 499.1674 375.80444 500.9633 377.53954 503.05223 377.53954 C 505.14116 377.53954 506.937 375.80414 507.81666 373.29796 C 508.70224 375.80444 510.4981 377.53954 512.5811 377.53954 C 512.91096 377.53954 513.17364 377.15384 513.17364 376.68937 C 513.15574 376.22493 512.8869 375.8392 512.56323 375.8392 Z" fill="white"/>
        </g>
      </g>
    </g>
  </g>
</svg>
