<?xml version="1.0" encoding="UTF-8" standalone="no"?>
<!DOCTYPE svg PUBLIC "-//W3C//DTD SVG 1.1//EN" "http://www.w3.org/Graphics/SVG/1.1/DTD/svg11.dtd">
<svg xmlns:xl="http://www.w3.org/1999/xlink" version="1.1" xmlns:dc="http://purl.org/dc/elements/1.1/" xmlns="http://www.w3.org/2000/svg" viewBox="360 72 73 73" width="73" height="73">
  <defs>
    <clipPath id="artboard_clip_path">
      <path d="M 360 72 L 433 72 L 433 145 L 360 145 Z"/>
    </clipPath>
  </defs>
  <g id="Canvas_1" stroke="none" fill="none" stroke-dasharray="none" stroke-opacity="1" fill-opacity="1">
    <title>Canvas 1</title>
    <g id="Canvas_1_Layer_1" clip-path="url(#artboard_clip_path)">
      <title>Layer 1</title>
      <g id="Group_10">
        <g id="Graphic_15">
          <path d="M 404.60856 133.16005 C 402.40236 133.16005 400.19628 132.31892 398.51863 130.64142 C 396.894 129.01678 396 126.85376 396 124.54664 C 396 122.23953 396.894 120.07653 398.51863 118.45671 L 407.7038 109.27154 C 408.75166 108.22368 410.45796 108.22368 411.5154 109.27154 L 419.8885 117.64466 C 420.93637 118.68773 420.93637 120.39882 419.8885 121.44656 L 410.6982 130.63174 C 409.0207 132.31878 406.80973 133.16005 404.6083 133.16005 Z M 409.6073 109.42039 C 409.1507 109.42039 408.70364 109.59818 408.3672 109.93465 L 399.1769 119.12495 C 397.73017 120.57168 396.93697 122.49903 396.93697 124.55636 C 396.93697 126.6088 397.73005 128.53628 399.1769 129.98292 C 400.62363 131.43456 402.551 132.22763 404.6083 132.22763 C 406.66563 132.22763 408.5928 131.43456 410.0397 129.98292 L 419.2249 120.79775 C 419.5518 120.47085 419.73915 120.02393 419.73915 119.55763 C 419.73915 119.08177 419.56135 118.64441 419.2249 118.31751 L 410.85177 109.93499 C 410.50576 109.58898 410.0587 109.42073 409.60686 109.42073 Z" fill="white"/>
        </g>
        <g id="Graphic_14">
          <path d="M 413.7892 124.31496 C 411.4628 124.31496 409.16526 123.42097 407.45885 121.70499 C 404.6566 118.90754 404.03663 114.53356 405.9496 111.05836 C 406.07454 110.8276 406.35816 110.75071 406.584 110.87088 C 406.80986 110.99583 406.89164 111.27465 406.77147 111.50528 C 405.0555 114.61049 405.60823 118.53743 408.1173 121.04136 C 410.62157 123.54564 414.5436 124.09844 417.6582 122.3824 C 417.8841 122.25745 418.1677 122.3439 418.2926 122.56987 C 418.41756 122.80063 418.3311 123.07935 418.10514 123.20427 C 416.74964 123.95406 415.26443 124.31454 413.78884 124.31454 Z" fill="white"/>
        </g>
        <g id="Graphic_13">
          <path d="M 407.78584 121.84435 C 407.66567 121.84435 407.5455 121.79629 407.45894 121.70973 C 407.27624 121.53193 407.27624 121.22908 407.45894 121.05129 L 409.4536 119.0566 C 409.6314 118.87391 409.93427 118.87391 410.11206 119.0566 C 410.29476 119.2344 410.29476 119.53725 410.11206 119.71504 L 408.1174 121.70973 C 408.02603 121.79629 407.90587 121.84435 407.7857 121.84435 Z M 413.3998 116.22553 C 413.28444 116.22553 413.1643 116.18225 413.0729 116.0958 C 412.89512 115.9131 412.89512 115.61515 413.0729 115.43246 L 415.0388 113.46657 C 415.2166 113.28387 415.51946 113.28387 415.69725 113.46657 C 415.87505 113.64436 415.87505 113.94722 415.69725 114.125 L 413.73615 116.09568 C 413.64 116.18225 413.51985 116.22541 413.3997 116.22541 Z" fill="white"/>
        </g>
        <g id="Graphic_12">
          <path d="M 410.41994 120.11886 C 410.06424 120.11886 409.7134 119.98423 409.44417 119.7103 C 408.9059 119.16713 408.9059 118.29718 409.44417 117.75398 L 411.7802 115.42761 C 412.3234 114.88444 413.19335 114.88444 413.73654 115.42761 C 414.2748 115.96588 414.2748 116.84073 413.73654 117.37903 L 411.4005 119.71019 C 411.12656 119.98411 410.77563 120.11875 410.41994 120.11875 Z M 412.756 115.9612 C 412.6406 115.9612 412.53013 116.00449 412.44356 116.09583 L 410.1075 118.4222 C 409.9345 118.59522 409.9345 118.8836 410.1075 119.0566 C 410.2805 119.22962 410.5689 119.22962 410.7419 119.0566 L 413.07306 116.72545 C 413.25086 116.55244 413.25086 116.27362 413.07306 116.09583 C 412.9817 115.9997 412.86634 115.9612 412.75585 115.9612 Z" fill="white"/>
        </g>
        <g id="Graphic_11">
          <path d="M 415.3657 114.25964 C 415.24555 114.25964 415.1254 114.21157 415.0388 114.12023 C 414.8561 113.93753 414.8561 113.63958 415.0388 113.45689 L 419.6291 108.86658 C 420.05215 108.43877 420.29246 107.86677 420.29246 107.25163 C 420.29246 106.64124 420.0617 106.06434 419.6291 105.63667 C 418.7062 104.71867 417.2595 104.77629 416.2647 105.7713 C 414.9092 107.1219 412.857 107.17485 411.58326 105.90103 C 410.97287 105.30021 410.6412 104.4927 410.6412 103.63231 C 410.6412 102.77193 410.9729 101.95481 411.58326 101.34923 L 413.79425 99.13335 C 413.97694 98.95555 414.2749 98.95555 414.4576 99.13335 C 414.6354 99.31114 414.6354 99.614 414.4576 99.79179 L 412.2417 102.00767 C 411.8091 102.44503 411.5736 103.01705 411.5736 103.63231 C 411.5736 104.2427 411.8139 104.80991 412.2417 105.23769 C 413.1646 106.1606 414.61134 106.10765 415.6061 105.11275 C 416.26455 104.44941 417.11057 104.07936 417.9853 104.05532 C 418.85527 104.03607 419.67236 104.36296 420.28765 104.97822 C 420.89325 105.58383 421.2297 106.39135 421.2297 107.25173 C 421.2297 108.11211 420.89325 108.91966 420.28765 109.53002 L 415.69734 114.12033 C 415.606 114.21167 415.48583 114.25974 415.36565 114.25974 Z" fill="white"/>
        </g>
      </g>
      <g id="Graphic_16">
        <path d="M 376.7159 104.94261 C 377.5375 104.94526 378.35416 104.81368 379.13334 104.55302 C 379.24135 104.51494 379.33313 104.44095 379.39307 104.34324 L 381.89044 107.34009 L 385.47166 111.60559 L 382.34496 111.32589 C 381.4242 111.24675 380.50953 111.53551 379.8009 112.12896 C 379.09246 112.72242 378.64777 113.57212 378.56394 114.49255 C 378.5265 114.88948 378.6487 115.285 378.90374 115.59156 C 379.1588 115.89811 379.52544 116.09039 379.9225 116.12583 L 389.4125 116.95995 C 389.74716 116.95995 390.0818 116.99991 390.41146 116.99991 C 393.0373 117.01037 395.582 116.09007 397.5939 114.40265 C 398.87347 113.33205 399.84824 111.94288 400.41984 110.37529 C 400.99144 108.80786 401.1397 107.11732 400.8497 105.47445 C 400.55954 103.83134 399.8414 102.29388 398.7677 101.01674 L 394.91176 96.42158 C 394.49564 95.93054 393.90594 95.61931 393.2657 95.5525 C 392.62557 95.48585 391.9844 95.66878 391.47586 96.06336 C 390.9673 96.45795 390.63083 97.03358 390.53637 97.67027 C 390.22216 97.48515 389.87067 97.37246 389.50745 97.34062 C 388.8492 97.28411 388.19555 97.49061 387.68936 97.91501 C 387.2292 98.30382 386.9272 98.84731 386.84026 99.4434 C 386.52543 99.25969 386.17424 99.1473 385.81134 99.11375 C 385.19823 99.06349 384.58827 99.24143 384.09815 99.61322 C 384.6076 98.05986 384.61213 96.38522 384.1114 94.82906 C 383.61054 93.27306 382.63 91.91525 381.3103 90.95067 C 379.9906 89.98604 378.39927 89.46379 376.76467 89.45896 C 375.13 89.45427 373.5357 89.96702 372.21027 90.92381 C 370.88494 91.88061 369.8963 93.23246 369.38636 94.78567 C 368.8764 96.33871 368.8711 98.01335 369.37138 99.56983 C 369.8715 101.12615 370.85154 102.48428 372.1709 103.44934 C 373.4903 104.41457 375.0813 104.9373 376.7161 104.94277 Z M 381.39096 98.94892 L 380.81657 98.26464 C 381.11297 97.11537 380.9141 95.89434 380.26822 94.89851 C 379.6225 93.90268 378.5889 93.22307 377.4186 93.02484 C 376.2484 92.82661 375.0486 93.12786 374.11083 93.85537 C 373.17306 94.58304 372.58324 95.67034 372.4846 96.85313 C 372.38578 98.03596 372.7874 99.20597 373.59154 100.07893 C 374.3957 100.95177 375.529 101.44781 376.7159 101.44625 L 376.95064 101.44625 L 377.535 102.14552 C 377.2639 102.18735 376.9901 102.20904 376.7159 102.21045 C 375.3912 102.21045 374.1208 101.68428 373.18412 100.74747 C 372.2473 99.81081 371.72115 98.54043 371.72115 97.21571 C 371.72115 95.89098 372.2473 94.62064 373.18412 93.68395 C 374.1208 92.74713 375.39116 92.22097 376.7159 92.22097 C 378.0406 92.22097 379.31095 92.74713 380.24765 93.68395 C 381.18446 94.6206 381.71062 95.89098 381.71062 97.21571 C 381.7086 97.80788 381.60027 98.39495 381.39096 98.94888 Z M 374.8179 98.88899 L 376.07156 100.38741 C 375.2643 100.22399 374.54925 99.75979 374.07147 99.08877 C 373.5937 98.41792 373.3886 97.59051 373.498 96.77417 C 373.6074 95.95783 374.0231 95.21346 374.6607 94.69217 C 375.2983 94.17067 376.11024 93.91111 376.9322 93.96605 C 377.754 94.02084 378.5243 94.38609 379.087 94.98761 C 379.6495 95.58918 379.96263 96.38207 379.96247 97.20576 L 379.96247 97.2557 L 378.64385 95.68736 C 378.221 95.17478 377.60807 94.85575 376.94564 94.80329 C 376.2868 94.7471 375.6325 94.95454 375.1263 95.38004 C 374.62013 95.80567 374.30343 96.41459 374.2457 97.07326 C 374.1878 97.73192 374.39365 98.38671 374.8179 98.89398 Z M 384.60757 100.45234 C 384.9121 100.19636 385.3059 100.07196 385.70234 100.10661 C 386.09864 100.14126 386.4648 100.33215 386.72035 100.63713 L 387.3397 101.41631 L 388.948 103.3293 C 388.9936 103.3819 389.04977 103.42451 389.11283 103.45417 L 389.17776 103.45417 C 389.2224 103.46119 389.268 103.46119 389.3126 103.45417 L 389.46746 103.45417 C 389.5274 103.43419 389.5831 103.40375 389.6323 103.36426 C 389.73374 103.27888 389.79695 103.15667 389.8082 103.02462 C 389.81943 102.89241 389.77775 102.7613 389.6922 102.66 L 388.0889 100.74702 C 387.84494 100.43531 387.73444 100.03964 387.78126 99.64662 C 387.82793 99.25359 388.02835 98.89505 388.33864 98.64923 C 388.64316 98.39387 389.03666 98.26994 389.4325 98.30459 C 389.82176 98.34392 390.1803 98.53388 390.43143 98.83403 L 391.07575 99.60322 L 392.33443 101.13161 C 392.4295 101.24571 392.57043 101.31173 392.719 101.31142 C 392.8364 101.31017 392.94956 101.26788 393.0387 101.19155 C 393.2466 101.01408 393.27344 100.70254 393.09862 100.49228 L 391.83495 98.9589 C 391.58085 98.65563 391.4569 98.26431 391.4903 97.87005 C 391.52294 97.47296 391.7126 97.10505 392.01696 96.848 C 392.3215 96.59093 392.71575 96.46575 393.1127 96.50009 C 393.50977 96.53443 393.87672 96.72548 394.13253 97.03093 L 397.98847 101.62609 C 399.43415 103.35115 400.13573 105.57973 399.93906 107.82197 C 399.7424 110.06412 398.6635 112.13662 396.9396 113.5835 C 395.91474 114.44867 394.72815 115.10174 393.4489 115.50475 C 392.16976 115.90761 390.8232 116.05262 389.48743 115.93103 L 379.9974 115.1019 C 379.86475 115.08972 379.74253 115.02495 379.6578 114.92209 C 379.5713 114.81938 379.52995 114.68609 379.5429 114.55248 C 379.60253 113.89473 379.9203 113.28725 380.4268 112.86318 C 380.93316 112.4391 381.587 112.23304 382.24505 112.28986 L 385.39673 112.56457 C 385.6599 112.5872 385.92134 112.50463 386.12377 112.33497 C 386.3262 112.1653 386.45327 111.92244 386.477 111.65944 C 386.50087 111.39628 386.41955 111.13451 386.2508 110.93129 L 382.6696 106.66058 L 375.58186 98.24944 C 375.23753 97.83908 375.13812 97.27611 375.32135 96.77256 C 375.5046 96.26901 375.94258 95.9016 376.47014 95.80857 C 376.99786 95.71555 377.5351 95.91112 377.87946 96.32147 L 381.11605 100.17741 L 385.2565 105.11222 C 385.30456 105.16778 385.3642 105.21211 385.4313 105.24208 L 385.45628 105.24208 C 385.5103 105.26471 385.5677 105.27829 385.6261 105.28204 L 385.69602 105.28204 C 385.726 105.28438 385.75596 105.28438 385.78593 105.28204 C 385.8251 105.26705 385.8621 105.24692 385.8958 105.2221 C 385.91345 105.21398 385.9303 105.204 385.94576 105.19213 C 385.99805 105.15014 386.04066 105.09739 386.07063 105.0373 C 386.16303 104.85873 386.13946 104.64224 386.0107 104.48787 L 384.42237 102.5649 C 384.1664 102.26037 384.042 101.86655 384.07664 101.47013 C 384.1113 101.07383 384.3022 100.70765 384.60716 100.45212 Z M 376.7159 90.46286 C 378.50384 90.46411 380.2181 91.17507 381.48247 92.43922 C 382.7466 93.70353 383.4576 95.4178 383.45882 97.2058 C 383.4585 98.32913 383.1732 99.43425 382.6297 100.41742 L 382.13022 99.79307 C 382.88834 98.22005 382.92283 96.39445 382.2245 94.79394 C 381.52616 93.19326 380.16447 91.9769 378.49563 91.46277 C 376.82674 90.94863 375.01665 91.1879 373.53885 92.118 C 372.0609 93.04794 371.06194 94.57633 370.80345 96.30359 C 370.54497 98.03069 371.0524 99.78444 372.19322 101.10653 C 373.33406 102.42858 374.9948 103.18746 376.74123 103.1845 C 377.2624 103.18466 377.7814 103.11582 378.2846 102.97972 L 378.7841 103.60905 C 378.1162 103.82555 377.4183 103.93527 376.71626 103.93371 C 374.928 103.93371 373.2129 103.22338 371.9485 101.95875 C 370.6839 100.69416 369.9735 98.97909 369.9735 97.19097 C 369.9735 95.40286 370.68385 93.68762 371.9485 92.4232 C 373.21307 91.15861 374.92814 90.44823 376.71626 90.44823 Z" fill="white"/>
      </g>
      <g id="Graphic_38">
        <text transform="translate(365 118.77054)" fill="#00c800">
          <tspan font-family="Zapf Dingbats" font-size="24" fill="#00c800" x="0" y="20">✔</tspan>
        </text>
      </g>
    </g>
  </g>
</svg>
