<?xml version="1.0" encoding="UTF-8" standalone="no"?>
<!DOCTYPE svg PUBLIC "-//W3C//DTD SVG 1.1//EN" "http://www.w3.org/Graphics/SVG/1.1/DTD/svg11.dtd">
<svg xmlns:xl="http://www.w3.org/1999/xlink" version="1.1" xmlns:dc="http://purl.org/dc/elements/1.1/" xmlns="http://www.w3.org/2000/svg" viewBox="360 569.25 73 73" width="73" height="73">
  <defs>
    <clipPath id="artboard_clip_path">
      <path d="M 360 569.25 L 433 569.25 L 433 642.25 L 360 642.25 Z"/>
    </clipPath>
  </defs>
  <g id="Canvas_1" stroke="none" fill="none" stroke-dasharray="none" stroke-opacity="1" fill-opacity="1">
    <title>Canvas 1</title>
    <g id="Canvas_1_Layer_1" clip-path="url(#artboard_clip_path)">
      <title>Layer 1</title>
      <g id="Group_129">
        <g id="Graphic_146">
          <rect x="400.20436" y="585.8214" width="2.2883012" height="39.95379" fill="white"/>
        </g>
        <g id="Graphic_145">
          <path d="M 386.4113 595.60616 L 400.54044 584.6585 L 401.94195 586.4673 L 387.8128 597.415 Z" fill="white"/>
        </g>
        <g id="Graphic_144">
          <path d="M 386.73425 616.15504 L 388.1362 614.3465 L 401.8756 624.9961 L 400.47365 626.80465 Z" fill="white"/>
        </g>
        <g id="Graphic_143">
          <rect x="375.93184" y="596.6947" width="2.2883012" height="19.409171" fill="white"/>
        </g>
        <g id="Graphic_142">
          <rect x="377.07354" y="595.3827" width="11.223014" height="2.2883012" fill="white"/>
        </g>
        <g id="Graphic_141">
          <rect x="377.0784" y="614.9038" width="11.213067" height="2.2883012" fill="white"/>
        </g>
        <g id="Graphic_140">
          <rect x="386.29016" y="596.3011" width="2.2883012" height="20.152754" fill="white"/>
        </g>
        <g id="Graphic_139">
          <path d="M 407.98764 619.74754 L 407.10333 617.6389 C 411.87427 615.6422 414.78927 611.09484 414.78927 605.77466 C 414.78927 600.4545 411.78183 595.9315 407.01593 593.9782 L 407.8808 591.8599 C 413.52145 594.1531 417.0486 599.4972 417.0777 605.7649 C 417.10685 612.0322 413.62824 617.38616 407.98774 619.7473 Z" fill="white"/>
        </g>
        <g id="Graphic_138">
          <path d="M 408.177 611.3038 L 406.53 609.7005 C 407.24803 608.96805 407.7601 608.05905 408.01464 607.06525 C 408.269 606.0716 408.25667 605.0283 407.97897 604.04086 C 407.7013 603.05346 407.16796 602.1567 406.43283 601.4413 L 408.02157 599.7943 C 409.05367 600.79084 409.80293 602.0433 410.19316 603.4237 C 410.5834 604.8041 410.6006 606.2637 410.2431 607.6532 C 409.8855 609.0425 409.1658 610.31236 408.15757 611.3328 Z" fill="white"/>
        </g>
        <g id="Graphic_137">
          <path d="M 402.49266 585.70965 C 402.49266 586.4127 401.9359 586.9825 401.24892 586.9825 C 400.56197 586.9825 400.0052 586.4127 400.0052 585.70965 C 400.0052 585.00675 400.56197 584.4368 401.24892 584.4368 C 401.9359 584.4368 402.49266 585.00675 402.49266 585.70965" fill="white"/>
        </g>
        <g id="Graphic_136">
          <path d="M 402.49266 625.79035 C 402.49266 626.49325 401.9359 627.0632 401.24892 627.0632 C 400.56197 627.0632 400.0052 626.49325 400.0052 625.79035 C 400.0052 625.0873 400.56197 624.5175 401.24892 624.5175 C 401.9359 624.5175 402.49266 625.0873 402.49266 625.79035" fill="white"/>
        </g>
        <g id="Graphic_135">
          <path d="M 378.4243 596.6556 C 378.4243 597.3587 377.86736 597.9286 377.18055 597.9286 C 376.4936 597.9286 375.93667 597.3587 375.93667 596.6556 C 375.93667 595.9527 376.4936 595.38276 377.18055 595.38276 C 377.86736 595.38276 378.4243 595.9527 378.4243 596.6556" fill="white"/>
        </g>
        <g id="Graphic_134">
          <path d="M 378.4097 615.91914 C 378.4097 616.6222 377.8528 617.19215 377.16584 617.19215 C 376.47903 617.19215 375.9221 616.6222 375.9221 615.91914 C 375.9221 615.2162 376.47903 614.6463 377.16584 614.6463 C 377.8528 614.6463 378.4097 615.2162 378.4097 615.91914" fill="white"/>
        </g>
        <g id="Graphic_133">
          <path d="M 408.4541 600.67374 C 408.4541 601.3231 407.94063 601.8495 407.30754 601.8495 C 406.6743 601.8495 406.16083 601.3231 406.16083 600.67374 C 406.16083 600.0244 406.6743 599.4979 407.30754 599.4979 C 407.94063 599.4979 408.4541 600.0244 408.4541 600.67374" fill="white"/>
        </g>
        <g id="Graphic_132">
          <path d="M 408.4637 610.5556 C 408.4637 611.20494 407.95037 611.73134 407.31713 611.73134 C 406.6839 611.73134 406.17057 611.205 406.17057 610.5556 C 406.17057 609.9063 406.6839 609.3799 407.31713 609.3799 C 407.95037 609.3799 408.4637 609.90625 408.4637 610.5556" fill="white"/>
        </g>
        <g id="Graphic_131">
          <ellipse cx="407.4532" cy="592.9246" rx="1.11743392124823" ry="1.14656938334767" fill="white"/>
        </g>
        <g id="Graphic_130">
          <ellipse cx="407.4532" cy="618.7322" rx="1.11743392124823" ry="1.14656938334767" fill="white"/>
        </g>
      </g>
    </g>
  </g>
</svg>
