<?xml version="1.0" encoding="UTF-8" standalone="no"?>
<!DOCTYPE svg PUBLIC "-//W3C//DTD SVG 1.1//EN" "http://www.w3.org/Graphics/SVG/1.1/DTD/svg11.dtd">
<svg xmlns:xl="http://www.w3.org/1999/xlink" version="1.1" xmlns:dc="http://purl.org/dc/elements/1.1/" xmlns="http://www.w3.org/2000/svg" viewBox="360 234 73 73" width="73" height="73">
  <defs>
    <clipPath id="artboard_clip_path">
      <path d="M 360 234 L 433 234 L 433 307 L 360 307 Z"/>
    </clipPath>
  </defs>
  <g id="Canvas_1" stroke="none" fill="none" stroke-dasharray="none" stroke-opacity="1" fill-opacity="1">
    <title>Canvas 1</title>
    <g id="Canvas_1_Layer_1" clip-path="url(#artboard_clip_path)">
      <title>Layer 1</title>
      <g id="Graphic_89">
        <text transform="translate(365 280.77054)" fill="#00c800">
          <tspan font-family="Zapf Dingbats" font-size="24" fill="#00c800" x="0" y="20">✔</tspan>
        </text>
      </g>
      <g id="Group_91">
        <g id="Graphic_94">
          <path d="M 376.1371 263.0359 C 377.28404 263.0359 378.3841 262.58694 379.19493 261.78774 C 380.006 260.9888 380.4617 259.90484 380.4617 258.7748 C 380.4617 257.64474 380.00603 256.56077 379.19493 255.76184 C 378.3841 254.96268 377.284 254.51367 376.1371 254.51367 C 374.9902 254.51367 373.8901 254.96264 373.07926 255.76184 C 372.2682 256.56077 371.8125 257.64474 371.8125 258.7748 C 371.8125 259.90484 372.26816 260.9888 373.07926 261.78774 C 373.8901 262.5869 374.9902 263.0359 376.1371 263.0359 Z M 376.1371 255.93404 C 376.9018 255.93404 377.63514 256.23343 378.1757 256.7661 C 378.7163 257.29877 379.02016 258.02137 379.02016 258.7748 C 379.02016 259.5282 378.7163 260.25084 378.1757 260.78348 C 377.6351 261.31612 376.90174 261.61553 376.1371 261.61553 C 375.37245 261.61553 374.63906 261.31615 374.0985 260.78348 C 373.5579 260.2508 373.25403 259.5282 373.25403 258.7748 C 373.25403 258.02137 373.5579 257.29874 374.0985 256.7661 C 374.6391 256.23346 375.37245 255.93404 376.1371 255.93404 Z" fill="white"/>
        </g>
        <g id="Graphic_93">
          <path d="M 376.1371 259.66224 L 377.57863 259.66224 C 377.97662 259.66224 378.2994 259.3442 378.2994 258.95205 C 378.2994 258.5599 377.97662 258.24186 377.57863 258.24186 L 376.85786 258.24186 L 376.85786 257.35413 C 376.85786 256.96198 376.5351 256.64395 376.1371 256.64395 C 375.7391 256.64395 375.41633 256.96198 375.41633 257.35413 L 375.41633 258.7745 C 375.41385 258.80513 375.41385 258.8362 375.41633 258.86683 C 375.41295 258.89524 375.41295 258.92364 375.41633 258.95205 C 375.41633 259.14047 375.49224 259.32113 375.6274 259.45428 C 375.76253 259.58744 375.94587 259.66224 376.1371 259.66224 Z" fill="white"/>
        </g>
        <g id="Graphic_92">
          <path d="M 414.22237 258.32027 C 413.6057 257.59542 412.72093 257.1429 411.76456 257.06324 C 410.8499 256.9889 409.94056 257.2612 409.22273 257.82467 C 408.5049 258.38838 408.03214 259.20045 407.90125 260.09574 C 407.46136 259.83762 406.9692 259.6776 406.4597 259.627 C 405.5466 259.544 404.63595 259.807 403.9127 260.36248 C 403.1897 260.91798 402.70857 261.72428 402.5676 262.6169 C 402.1169 262.3537 401.6119 262.19367 401.09 262.14817 C 400.13837 262.0705 399.1937 262.3639 398.4592 262.9649 C 397.86254 263.46513 397.44767 264.14312 397.27716 264.8966 L 393.9112 260.94086 C 394.3369 259.30856 394.0486 257.57503 393.1168 256.16153 C 392.185 254.74826 390.6948 253.78417 389.00796 253.5039 C 387.32137 253.2236 385.5927 253.65237 384.24168 254.68633 C 382.8909 255.7203 382.04155 257.26476 381.9001 258.94432 C 381.75866 260.6241 382.3382 262.28533 383.4975 263.52434 C 384.657 264.7636 386.2905 265.46736 388.00096 265.4647 L 388.3325 265.4647 L 395.4825 273.8591 L 400.6504 279.92408 L 396.08075 279.51217 C 394.75073 279.39788 393.429 279.80735 392.40507 280.65137 C 391.3809 281.49536 390.7381 282.70472 390.61734 284.01476 C 390.5633 284.58024 390.74077 285.14373 391.11017 285.57984 C 391.4798 286.0157 392.01066 286.2885 392.58503 286.33707 L 406.2796 287.52308 C 406.7625 287.52308 407.2382 287.5799 407.7211 287.5799 C 411.51257 287.5952 415.1871 286.28667 418.0932 283.88692 C 419.9397 282.36468 421.34636 280.38945 422.1712 278.16055 C 422.99605 275.93187 423.21003 273.52814 422.7915 271.1922 C 422.3728 268.8559 421.3365 266.66985 419.7871 264.85393 Z M 383.28017 259.42816 C 383.28017 257.779 384.173 256.25493 385.62266 255.4305 C 387.07233 254.60577 388.858 254.60577 390.30764 255.4305 C 391.7573 256.255 392.65013 257.779 392.65013 259.42816 L 392.65013 259.49918 L 390.7473 257.2621 C 390.13103 256.54168 389.24944 256.09204 388.2967 256.01216 C 387.3446 255.92983 386.39815 256.22367 385.6659 256.82888 C 384.9438 257.43407 384.4926 258.2952 384.41045 259.22556 C 384.32824 260.15613 384.62127 261.08113 385.22624 261.80018 L 387.02816 263.93074 C 385.9743 263.71746 385.0267 263.15374 384.3442 262.33396 C 383.66195 261.51412 383.28623 260.48838 383.28017 259.42816 Z M 421.48077 274.57615 C 421.34495 276.15498 420.8927 277.69143 420.15053 279.0969 C 419.40814 280.5024 418.39053 281.74903 417.1562 282.7646 C 415.6773 283.99476 413.96497 284.92334 412.11894 285.49638 C 410.2731 286.0692 408.32996 286.27537 406.40235 286.10248 L 392.7078 284.92357 C 392.515 284.90737 392.33682 284.8155 392.2134 284.66857 C 392.08996 284.52165 392.03185 284.3321 392.0519 284.14236 C 392.13794 283.2056 392.59765 282.34093 393.3299 281.73773 C 394.06237 281.13452 395.00773 280.84244 395.95845 280.92522 L 400.5065 281.31582 C 400.88533 281.34578 401.26104 281.22705 401.5516 280.9856 C 401.84215 280.74412 402.02414 280.39925 402.05793 280.02615 C 402.0915 279.65308 401.97436 279.28176 401.7318 278.99348 L 397.44323 273.94406 L 386.329 260.91924 C 385.93935 260.48958 385.74318 259.92276 385.7846 259.3482 C 385.8263 258.77362 386.1022 258.23985 386.54978 257.86924 C 386.99733 257.4984 387.57822 257.32196 388.1598 257.3801 C 388.7416 257.43825 389.2745 257.7261 389.63737 258.17795 L 400.2978 270.69144 C 400.3649 270.76978 400.4487 270.8326 400.54284 270.8761 L 400.5861 270.8761 C 400.6638 270.90915 400.7467 270.92824 400.83115 270.9329 L 400.93206 270.9329 C 400.9753 270.93623 401.01855 270.93623 401.0618 270.9329 L 401.21316 270.84768 L 401.29244 270.80507 C 401.3679 270.74537 401.4294 270.67035 401.47263 270.5849 C 401.60394 270.3297 401.567 270.02164 401.37893 269.8037 L 399.0869 267.05528 C 398.7175 266.6223 398.538 266.06233 398.588 265.49867 C 398.638 264.93518 398.91346 264.41453 399.35356 264.0512 C 399.793 263.68723 400.3613 263.51035 400.93337 263.5596 C 401.50525 263.6089 402.03366 263.8803 402.4024 264.31395 L 405.63864 268.12765 C 405.70666 268.20333 405.79023 268.2639 405.8837 268.3052 L 405.9774 268.3052 C 406.038 268.32694 406.10083 268.34115 406.1648 268.3478 L 406.38824 268.3478 C 406.47473 268.3194 406.55514 268.27612 406.6261 268.21997 C 406.7734 268.09946 406.8662 267.92635 406.88377 267.73837 C 406.90134 267.55062 406.8423 267.36353 406.7198 267.2186 L 404.3989 264.4986 C 404.0347 264.05717 403.8649 263.49036 403.92705 262.92488 C 403.98944 262.35917 404.27865 261.84165 404.7305 261.4874 C 405.16994 261.12344 405.73825 260.94656 406.3103 260.99583 C 406.8822 261.0451 407.4106 261.31652 407.77934 261.75016 L 408.7019 262.84384 L 410.49663 265.017 C 410.7527 265.31263 411.2023 265.3508 411.5057 265.10224 C 411.653 264.98173 411.7458 264.80862 411.7634 264.62064 C 411.78094 264.43288 411.72193 264.2458 411.5994 264.10087 L 409.77586 261.9277 C 409.40917 261.4965 409.23033 260.9401 409.27853 260.3795 C 409.34137 259.82622 409.6175 259.31774 410.04975 258.95912 C 410.48874 258.59737 411.0554 258.42183 411.62575 258.4711 C 412.19583 258.52036 412.72287 258.79046 413.0914 259.2219 L 418.6557 265.75562 C 419.69585 266.96913 420.48264 268.37286 420.97114 269.88646 C 421.45965 271.40007 421.6403 272.99373 421.5027 274.57613 Z" fill="white"/>
        </g>
      </g>
    </g>
  </g>
</svg>
