<svg xmlns:xlink="http://www.w3.org/1999/xlink" xmlns="http://www.w3.org/2000/svg" viewBox="0,0,239,1356" style="filter:hue-rotate(-90deg)" aria-hidden="true" version="1.1" class="waveform inactive" id="left">
	<defs>
		<mask id="wave">
			<path d="M0,1356L118,1356L111,1307L112,1264L110,1244L113,1225L113,1205L115,1181L106,1140L114,1104L114,1084L107,1065L114,1048L109,1032L103,1012L103,992L115,952L106,915L99,900L103,885L107,847L116,810L112,760L115,716L109,622L106,579L96,543L92,529L81,512L86,507L102,493L108,453L106,410L85,377L101,357L89,317L103,280L100,237L103,220L109,202L97,158L94,139L90,118L89,118L90,109L93,78L85,49L99,22L114,0L0,0L0,1356Z" fill="#000000"/>
			<path d="M118,1356L121,1356L129,1308L127,1262L128,1223L126,1200L126,1178L133,1135L128,1119L128,1102L128,1081L129,1063L128,1045L128,1027L132,1008L134,991L124,949L130,913L142,898L135,881L136,842L122,799L128,749L127,727L123,703L126,656L128,604L138,560L143,542L151,522L169,509L145,502L135,462L131,418L149,379L166,369L143,361L137,338L147,321L134,290L133,244L143,227L135,212L138,168L140,149L147,131L148,105L138,91L139,86L140,63L155,56L145,47L144,17L124,0L114,0L99,22L85,49L93,78L90,109L90,118L94,139L97,158L109,202L103,220L100,237L103,280L89,317L101,357L85,377L106,410L108,453L102,493L86,507L81,512L92,529L96,543L106,579L109,622L115,716L112,760L116,810L107,847L103,885L99,900L106,915L115,952L103,992L103,1012L109,1032L114,1048L107,1065L114,1084L114,1104L106,1140L115,1181L113,1205L113,1225L110,1244L112,1264L111,1307L118,1356Z" fill="#FEFEFE"/>
			<path d="M121,1356L239,1356L239,0L124,0L144,17L145,47L155,56L140,63L139,86L138,91L148,105L147,131L140,149L138,168L135,212L143,227L133,244L134,290L147,321L137,338L143,361L166,369L149,379L131,418L135,462L145,502L169,509L151,522L143,542L138,560L128,604L126,656L123,703L127,727L128,749L122,799L136,842L135,881L142,898L130,913L124,949L134,991L132,1008L128,1027L128,1045L129,1063L128,1081L128,1102L128,1119L133,1135L126,1178L126,1200L128,1223L127,1262L129,1308L121,1356Z" fill="#000000"/>
			<path d="M89,118L90,118L90,109L89,118Z" fill="#7A7A7A"/>
			<path d="M0,1356C19.6231,1356 40.5963,1356 59,1356C78.3314,1356 97.6686,1356 117,1356C118.473,1337.21 115.005,1323.15 112,1309C110.985,1290.24 123.627,1281.16 113,1264C111.346,1260.92 108.183,1257.05 107,1255C117.895,1238.15 96.3783,1252.24 108,1243C111.909,1233.22 114.092,1215 113,1198C106.277,1180.43 123.832,1172.21 115,1154C104.917,1144.56 106.263,1123.44 107,1120C123.338,1112.61 102.18,1093.66 113,1083C94.5559,1067.49 124.489,1057.58 111,1045C102.063,1037.37 116.297,1016.55 104,1012C107.521,1010.79 108.855,1005.08 108,1001C93.5534,986.403 120.591,993.245 117,977C111.235,962.752 118.317,944.813 112,930C87.6557,921.576 124.675,908.087 100,900C89.1014,893.28 108.245,879.248 104,868C120.169,853.83 93.2076,836.091 109,835C121.958,826.547 112.674,802.086 118,787C124.2,762.531 102.643,760.592 110,741C115.207,729.094 114.309,708.684 116,695C112.74,679.342 108.999,662.834 113,648C114.294,632.663 101.388,616.458 111,602C116.02,585.891 97.5711,577.519 102,559C99.1435,547.022 96.4256,541.278 89,532C95.7213,528.699 76.4276,504.375 73,508C90.8561,506.525 103.563,499.895 107,484C99.2836,462.166 109.499,456.535 107,438C110.359,421.453 103.839,409.387 104,389C104.82,375.243 63.4581,379.001 78,369C95.4265,364.636 103.589,357.839 102,339C100.07,322.429 79.319,313.427 104,307C105.905,290.171 101.127,275.456 107,260C116.813,243.835 86.9095,234.563 101,222C104.806,205.105 113.834,195.86 104,182C96.5764,167.24 98.2119,150.879 95,139C96.6812,128.026 83.6655,107.649 96,96C96.6472,83.7804 93.3495,71.5641 96,58C69.633,54.9478 104.994,33.7266 87,43C88.0183,39.2837 93.5916,37.8214 95,36C87.9222,32.9574 104.655,25.022 94,16C88.6611,6.30396 136.619,-1.00305 96,0C76.6686,0 57.3314,0 38,0C19.4483,1.07141 -11.3102,-8.71399 0,21C0,40.3314 0,59.6686 0,79C0,98.3314 0,117.669 0,137C0,156.331 0,175.669 0,195C0,214.331 0,233.669 0,253C0,272.331 0,291.669 0,311C0,330.331 0,349.669 0,369C0,388.331 0,407.669 0,427C0,446.623 0,467.596 0,486C0,505.331 0,524.669 0,544C0,563.331 0,582.669 0,602C0,621.331 0,640.669 0,660C0,679.331 0,698.669 0,718C0,737.331 0,756.669 0,776C0,795.331 0,814.669 0,834C0,853.331 0,872.669 0,892C0,911.331 0,930.669 0,950C0,969.331 0,988.669 0,1008C0,1027.33 0,1046.67 0,1066C0,1085.33 0,1104.67 0,1124C0,1143.33 0,1162.67 0,1182C0,1201.33 0,1220.67 0,1240C0,1259.33 0,1278.67 0,1298C0,1317.33 0,1336.67 0,1356ZM121,1356C140.331,1356 159.669,1356 179,1356C198.331,1356 217.669,1356 237,1356C240.218,1339.89 238.234,1318.57 239,1300C239,1280.67 239,1261.33 239,1242C239,1222.67 239,1203.33 239,1184C239,1164.67 239,1145.33 239,1126C239,1106.67 239,1087.33 239,1068C239,1048.67 239,1029.33 239,1010C239,990.669 239,971.331 239,952C239,932.669 239,913.331 239,894C239,874.669 239,855.331 239,836C239,816.669 239,797.331 239,778C239,758.669 239,739.331 239,720C239,700.669 239,681.331 239,662C239,642.669 239,623.331 239,604C239,585.052 239,564.723 239,547C239,527.669 239,508.331 239,489C239,469.669 239,450.331 239,431C239,411.669 239,392.331 239,373C239,353.669 239,334.331 239,315C239,295.669 239,276.331 239,257C239,237.669 239,218.331 239,199C239,179.669 239,160.331 239,141C239,121.669 239,102.331 239,83C239,63.6686 239,44.3314 239,25C248.569,-3.90051 227.672,-2.34033 206,0C186.669,0 167.331,0 148,0C111.163,-3.48291 132.965,7.1084 147,13C134.383,24.7642 142.159,40.9302 150,52C175.324,55.033 116.303,60.8042 145,73C134.692,83.433 141.086,100.61 150,104C147.662,118.226 146.01,143.785 139,146C152.002,160.043 129.978,170.362 134,187C125.422,197.158 134.788,218.179 143,224C146.755,227.764 147.961,229.774 144,226C141.145,224.062 142.63,236.96 133,244C125.904,257.099 139.811,276.069 135,290C121.168,309.436 154.346,310.763 150,321C138.416,328.424 133.661,341.789 141,358C140.943,362.791 146.516,364.254 149,365C175.308,366.001 163.444,369.881 155,370C173.935,380.93 127.863,374.668 134,393C134.567,409.978 128.994,425.234 131,444C138.231,457.597 128.497,475.904 134,491C138.114,504.684 159.702,506.402 169,510C144.21,505.564 152.22,531.299 145,542C140.365,545.706 141.297,554.061 135,574C125.804,587.133 124.614,601.528 131,616C127.108,629.77 124.659,652.063 127,666C126.748,681.324 118.576,697.66 125,711C123.557,728.297 134.198,740.685 128,758C117.297,766.358 121.158,791.937 123,807C114.103,829.368 139.644,831.932 133,849C130.964,865.809 140.921,877.387 141,887C151.451,900.433 112.582,906.538 137,919C124.195,926.47 121.85,941.144 124,960C112.154,978.114 130.016,992.557 136,994C128.96,1014.64 138.31,1010.18 128,1030C146.087,1039.75 107.199,1052.49 131,1063C130.141,1074.58 125.009,1088.48 126,1104C127.86,1118.92 134.586,1123.11 133,1139C122.362,1145.34 117.461,1169.45 125,1179C133.96,1192.03 119.188,1208.66 127,1223C130.461,1240.91 132.597,1248.77 126,1264C116.134,1280.69 126.951,1291.85 128,1308C122.084,1323.1 121.87,1337.53 121,1356Z" fill="#250000" fill-opacity="0.379767"/>
		</mask>
	</defs>
	<g id="left__bg" mask="url(#wave)">
		<rect x="0" y="0" width="239" height="1356" fill="black"/>
	</g>
	<g id="line">
		<rect class="vertical" x="141" y="0" width="1" height="1600" fill="#000000" style="opacity:0;"/>
	</g>
	<g mask="url(#wave)">
		<image class="mix" id="left__wave" x="0" y="0" width="282" height="1600" href="texture.jpg"/>
		<rect id="pos__left" class="vertical" x="0" y="0" width="100%" height="8" fill="beige" opacity="0.5"/>
	</g>
</svg>
