<svg xmlns="http://www.w3.org/2000/svg" viewBox="0 0 243.34 1374" class="waveform" id="left">
  <g id="Layer_2" data-name="Layer 2">
    <g id="Layer_1-2" data-name="Layer 1">
      <g>
        <path fill="white" d="M111.52,1287a23,23,0,0,0-.09-3.81A15.54,15.54,0,0,0,110,1280l-4.35-.21,0-.53c.79-.09,2,.12,2.31-.32,2.09-2.89,12.65.86,6.64-8.36,4-3.61,1.74-7.95,1.06-11.91-.34-2-2.13-3.77-3.35-5.77,2.44-2,2.37-3.56-1.08-5-3.61-1.47-3.8-2-3.24-6.07.08-.6-1.24-1.33-1.28-2-.1-1.64-.47-4,.42-4.84,3.81-3.77.22-3.79-2-4.66-.89-.34-1.72-.83-3.92-1.92,2.82-.18,4.39,0,5.74-.45,1-.35,1.8-1.5,2.82-2.43l-7-4.34,4.19-.44-2.6-1.26,3.08-.89-3.16-4.39c3.43-.59,7.84-.84,5.66-6.74l3.22-1.08a47.71,47.71,0,0,1-4.85-4.68,4.08,4.08,0,0,1-.67-3.4c1.41-3.19.87-4.18-1.88-4.45l-2.55-3.71,3.31-.36-2-1.29,1.55-.6c-.42-1.75-.82-3.37-1.21-5l1.4-.64-3.59-.83,5.72-.87-5.94-1.11,4.11-2-2.56-1,3.26-2.85-8.58-1,6.59-2.64-7.57-2v-.67l5.31-.67-11.87-3.54,8.84-4.45-7.39-4.16,8.49-1.6c-3-3.7,1.58-9.68,8.58-11.57-2.55-2.2-1.74-6.36,1.71-8.87l-7.68-2.78c-.59-3-1.16-5.88-1.91-9.74l-2.6-1.39,2.41-1.43H90.86l-.15-1.23,9.84-1.33-11.64-3.27-.2-.63,11.81-.85.13-.91L90,1107.51l0-.39h9.5v-.89H89.89l3.41-3.13H76.15v-.66l14.69-1.55c-2.66-1.39-4.11-2.46-5.74-2.91-2-.55-4.15-.57-6.28-1.55l3.55-.83-3.11-2.37,4.43-.41-3.15-2.44,3.2-.63,0-.6-8.14-.47,9.83-1.77c-.13-1.41-.26-2.77-.45-4.87l-3.25-.31,0-.53,5.78-.35,0-.49c-2.36-.38-4.95-.29-7-1.25-4.3-2-8.34-4.53-13.41-3.83H85.39l-.56-1,3.57-3-11.4-.52,0-.36,11.62-1.72v-.43l-21.68-1.57V1066H82.23l.15-1.43-14.91-2.08,11.74-1.66v-.65H59.85l0-.8,5.09-.61L57.58,1055h7.91l0-1H40.84c9-2.47,18.55,1.51,28.66-3.7l-8.56-.53v-.65h10.4v-1H59l5.16-3.77-24.74-1.61c-.07-.45-.14-.89-.22-1.34,2.72-.44,5.41-1.05,8.14-1.26s5.55-.05,8.35-.9l-12.57-.78c0-.38,0-.77,0-1.16l12-1.64c0-.38.05-.76.08-1.14l-11.88-.85,0-.52H58.52v-1H45.06l-.06-1.09h9.65c0-.37,0-.74,0-1.12H38.43v-1.4H51.68l-.06-1.39H42l-.05-.83,5.79-.55v-.6L.06,1019.37l-.06-.32H10.35c10.67,0,21.34.26,32-.09A101.18,101.18,0,0,0,62.62,1016H41.27l0-.68,22.47-1.64-4-.94,30.66-5.64v-1.2H77.18l-.15-.61,6.87-2.11-7.7-.38,0-.36L88.67,1001l.11-.62-4.73-1,7.94-.83.17-1.26-5-2-.42-1.25,9.73-1.64v-.4l-5.93-.3,7.06-2.19-.3-1.35-5.56-.64,7.64-4.84-8.46-1.41,7.17-.57-3.54-1.1,3.44-5.4H89.17l-.1-.9,4.16-.61c-2.64-4.85-1.92-5.64,7-7.33L89.36,963.6l2.88-1.49-8.42-.45-.26-1.27,4.12-1.9A19.59,19.59,0,0,1,84.56,957a2.2,2.2,0,0,1-.55-1.73c0-.42.72-1.21.9-1.15,4.51,1.44,6.23-2.9,10.44-4.63l-5.09-1,10.81-2.2c-1.5-1.2-2.4-1.91-3-2.37l4.94-2.93-.4-1.3-9-2.48,9.17-.41,0-.63-6.2-.5,5-3.17-6.21-2.09,4.3-1.16-.89-1.19H89l-.15-.72,8.78-3.09-1.82-1.66,2.79-3.26-9-2.86,10.44-1.9-6.69-1.25,8.17-.6-4.72-1.48,4.73-.45,0-.69-7.5-.49-.19-.81,5.09-1.65-7.77-.39L103,901.24l-7.64-.48,2.86-1.26-2.77-1.11,2.27-.56-6.15-5.36,3.23-2.08-5.09-.69,0-.45,4.94-.39.11-.66-10.12-2.05.17-1h8.82l.32-1.09-4.36-1.73,4.26-.56-.06-.5L85,880.42l.13-.72,6.24-2.05c-1.75-2.73-3-4.62-4.15-6.46l4.21-1.51-3-2.07,6.8-2.55-.21-.91-7.1-.37,0-.68h8.79l0-.92-5.35-.56,4.3-.85.06-.51H86.93l-.06-1,4.83-.33c.18-3.69.18-3.69-12.19-4.17l5-1V853l-25.7-1.51-.07-.79H74.51l0-1.59-17.8-1.61,2.61-1.93H20.05v-1.49H36.51v-1H5.11l0-1.66H54.36c0-.7,0-1.4.08-2.1l-21.61-1.83,0-.29,6.66-.45v-.75H22l0-.85c1.36-.06,2.72-.11,4.07-.18,15-.83,30-1.66,45.09-2.86H54v-1H65.39l.1-.94-7.4-1.74c3.9-.46,9.75.54,11.9-1.82,2.87-3.13,5.89-2,8.64-3.07,2.15-.86,4.72-.65,7.07-1.5H76.85l-.15-.65,11.83-4.2-12.76-1.72-.23-.88,12.75-2.1,0-.38H72.05l0-.66,17.33-2.44,0-.76-10.6-1.21,0-1.27,8.08-1.23.19-.91-6.35-1.3,4.54-3.92-6.6-1,6.64-.83-3.47-1.14,2.41-1-2.5-.92.08-.58h5.7l0-.68-13.78-1.59,10.7-2.23-.11-1.37L73,785.5l0-.35h8.5l0-.91-5.79-.57,2.92-3.5-10.27-1.68,5.38-.77V777H65.5l8.74-4.87H53.18l0-.95,17-1.49,0-1H46.14l0-1.53H73.43l.06-1H63.85l-.09-.85,2.69-.68-.11-.72H58.05l0-.81,25.62-1.45v-.59H72.83l-.11-1.55,12.06-.78.18-.65-4.78-1.51,14.95-4.11-4.74-3.14L99.2,746l-.11-.83h-10v-.92H97.2c.3-1.7.51-3,.83-4.84l-11.9-1.67,0-.45,5.4-.4c-.47-1.57-.91-3.08-1.43-4.81l-6.82-.41,5.05-3.45-5.67-.49L93.74,725l-12.4-4.46,16-2.9-11-3.14,8.84-1.05L95,712.19H87l-.11-.64,7.58-2.31-5.56-3.84L96.7,702l-7.4-1.65c2-5.28,6.17-6,11.19-5.33l-.23-1.48-7.39-1.13.09-1,5.89-.65,0-.56-6-.45,10.66-4.65-5.06-1.61,4.54-2-3.93-.78,1.08-2.41-7.92-1.11,4-2.94L83.6,671.48l4.11-1.87c-1.4-1.59-2.48-3.92-4.16-4.48-3-1-6.42-.94-9.67-1.8l11.87-1.78-8.34-2.08,3.12-.93-10-2.61,0-1.07,14.88-2.28v-.49H62v-.92H85l.09-1.42H67.83L67.74,648l12.78-1.36v-.51H68.15v-.73l24.29-1.07.14-1.67L81.35,641.1l-.06.54,11.39-.74,0-.74-8.86-.4v-.68H89.6l.05-.76-5.87-.8,5.8-1,.06-.94-4.78-1.09-.37-1,9-3.53-3.39-3.68,7.53-.34c-3-5.84-8.52-5.09-13.59-5.41l21-2.37.24-1-5-2.38,4.62-1.11-7.59-4.34c3.12-.87,1.25-3.56.93-5.9l-8.6-1.56,0-.56,5.47-.52-3.56-1.19,3.55-2.46-9-4.93,5.29-.23.05-.83-6.74-.3v-.56l7.81-.49.08-1.42-13.57-3.28h8.72l-3.67-1.84h7.49L89,579,75.87,577.7l10.31-3.12L85.9,573H75.06l0-.92H83.4l.07-.88H76.25l0-1,8.18-.37-12.48-4.54,5.13-.59-8.59-3.13,3.63-.91.22-1.06-9.66-2.45L80.86,553l.16-.52H66.85v-.88l14-3-.08-.75H69.94v-.68H85.82c.32-3.67.32-3.67-9.89-4.92l10.44-1.65,0-.48H75.06l-.37-1.87,9.6-2-25.23-1.62v-.33l16.52-.86V532l-23.7-1.45,0-.26,20.57-1.56.12-.44-11.28-1.8,0-1.1,8.37-.6v-.43l-10-1.34.06-.58,9.17-2-5-.85.06-.69H72c-4.56-3.08-11.79-.25-13.63-7.67l7.29-1.55.08-1.14-14.56-1-.08-.44h7.16l0-1h-8l3.22-1.86L49,503.67l0-.53,20.11-1.41,0-.32L47,499.57,47,498l15.29-1.33.11-1.06-14.74-1.09,16.18-1.19,0-1.18-5.29-.42-.07-1,10.94-1v-.9H56.7l0-1.23,12.08-1.72,0-.61-12-.9.11-1.33H68.55a7.23,7.23,0,0,0,.4-.62c-.43-.37-.89-.72-1.87-1.48h6.48l.07-.52-8.06-1.57.07-.66,15-1.58,0-.42-6.86-.6.06-1.32H85.77l0-.9-11.57-1.62,0-.37,17.58-1.54.09-.49L80.31,466.7l5.26-1.11L63.26,461.2h17l0-1.09H59.91v-1h7.82l.11-.78-10.49-3c3.4-2.27,9.69,2.76,13-4.17l-7.5-.42c0-.29-.07-.53,0-.55.57-.2,1.16-.38,2.9-.92l-5.06-.63.12-.78h7.81l0-.7-6.65-.45V446h15.4l.19-1.38-6.77-1.27.06-1.05H86.62l.1-1.06-6.08-1.81,4.68-1.12-5.61-.57v-.51l4.52-.4v-.94c-3.34,0-6.7.23-10-.06A21.43,21.43,0,0,1,65.09,433H79.32l.05-.9H71.92V431h9.74v-.94l-17.15-1.54,4.07-1.19-16-1.12,0-1.07,24.19-3.95a4.12,4.12,0,0,0-1.23-.25Q55.82,419.81,36,418.71l0-1.21H65.72l-.11-1.57H54.81v-.7l7.75-.36v-.75H47.19l0-.64,23.27-1.55v-1.69l-10.37-.5-.1-.89,18.79-2.54-5.55-.57,0-.62H83.51v-1H56.15v-1H79.35v-1.07H65.83v-.87H76.17l.17-.81-7-2,12.92-1.68,0-.52H73.9l-.05-.87,4.13-.44,0-1.34H55.13v-1.44H77.46l0-.87H65.14l0-.93h13.2l.1-.91-3.89-.73,0-1.06c2.3-.17,4.61-.22,6.88-.56a14.39,14.39,0,0,0,3.24-1.31c-1.13-.58-2.25-1.65-3.39-1.67-7.65-.15-15.31-.08-23-.92H83.42l.07-.92-10.75-1.66,10.81-1.61v-.57l-25.75-3.65.16-1.54H71.39l0-1H51.56c1.93-1.34,3.37-2.33,5.88-4.05l-6.41-.3c-.34-1.16-.7-2.4-1.17-4.05h-8l0-.17,35.87-1.92,0-1.53L71,359.79l0-.33,11.77-1.69-3.34-1.44c6-.81,11.57-1.43,17.06-2.39,1-.17,1.65-1.77,2.47-2.71l-1.18-1.06h5.62l.39-.95-4.83-3.1h4.55l4.33-4.41c-2-3.71-4.32-7.38-9.83-6.53l4.8-.25.07-.54-5.09-1,6.5-.63L88.57,327h8.89l.05-.81-4.63-.42,0-.48,4.53-.45.06-.58H87.22l-.1-.8,5.14-1.11-7.34-.66,0-.65h8.33l0-.9H80.4L94,315l-7.2-1.58,3-2.09-3.45-.7,8.07-3.09L94.3,307H84.91l0-.48,9.83-1.65.09-.5-4.16-.65-.31-.93,12.17-4.35-6.71-1.83.78,1c3.36-2.83,7.13-5.32,9.87-8.66,1-1.18-.56-4.41-1-6.78l2.14-.54L103,280.21l2.38-2.68a10.08,10.08,0,0,1-2.43-1.71,9.34,9.34,0,0,1-1-2.66l1.31-.84-3.61-.94,4.1-.56,0-.67H92.59l11.68-3.28c-4.8-2.52-5.45-9-11.7-7.28l4.62-1.76-3.85-2.66,6.68-1.32c-2-1.11-3.16-1.78-4.33-2.44l8-1.3-3.93-2.69,7.89-4-4.85-.82,5.25-6.3-3.26-.7,3.17-2.4c-.71-1.89-.92-4-2-5.12-1.33-1.37-3.47-2-4.86-2.68-.61-1.08-1.21-2.15-1.81-3.2l3.16-.2c-.58-1.32-1.21-2.74-2.22-5l-10.94-1.34,10.46-1.67c-.06-.63-.13-1.27-.2-1.9H84.78v-.88H95.06l.23-1.21L80,206.26l5.62-1.63.08-.83-22.84-1.89V201h21.6l0-.74-22.57-1.19-.08-1.45,7.84-1V196H60.25c8.13-3.49,16.79.25,24.59-4.43l-5.46-1.38.14-1H93.68l.07-1.07-5-.28c.22-.58.45-1.16,1-2.6l5.07-.55,0-.63H68l8-3.53-7-3.66h17.7V175.5H65.83v-1.4H77l.21-1.51c-2.46-.21-4.92-.52-7.38-.62a30.29,30.29,0,0,1-7.78-.82H91.88l.34-1.75-11.74-2.17,7.78-.36.07-1.18H77l1.63-5.53H69.3l0-.41,8.11-2.14L77,156.22l-2.19-.57v-.44h11.7l.13-.82L82,153.5l4.6-.73.06-.61H76.89l0-.67,13.86-2.41c-2.62-2-5.72.08-6.79-4-.44-1.67-5.83-2-9-3l10.78-3.53-12-4.49,10.5-1.51.14-.88-7.57-1.19,0-.48H89.77l.06-.62-13.67-3.16,3.53-.73A58,58,0,0,0,72.93,124c-2.47-.25-5,.24-7.48-.15-2-.32-3.88-1.45-5.81-2.22v-1.52l25.21-1.5L85,118l-14.68-2.51,11.59-1.86-5.68-1.18v-1.11l12.38-.59,0-.63H71.25l-.1-.69,2.55-.71,0-.56H55.94v-1.12H74.44l0-.45L50,102.76l0-.75H70L56,98.75l0-.57H78.45l.09-1-6.73-.45L71.73,96l29.82-2.9.11-.76-4.48-.65,10.89-2.84.65-.64-3.33-.39.91-1.21,2.55-1.17-2.29-1.86c.15-.52.14-.72.24-.83,1.53-1.72,3.86-3.21,4.44-5.21,1.08-3.66,1-7.64,1.68-11.45a8.79,8.79,0,0,1,1.73-4.49c3.72-3.9,4.25-7.9,1-12.22-3.91-5.26-6.77-11.63-13.92-14,.81-.12,2,0,2.39-.43,2.25-2.7,4.15-5.71,6.53-8.28.75-.81,2.59-.62,4.19-.94l-2.18-7.2c5.67-4.67,3.7-12.64,6.9-18.54h2c1.31,5,2.26,10.2,4.07,15,1,2.57,3.48,4.56,2.8,7.74a22.58,22.58,0,0,1-1,2.66c3.94,2.6,5.64,9.29,12.86,8.56-2,1-4.11,2-6,3.15-.7.43-4.11.7-.66,2.46l-5.2,3.14,2.63,1c-2,1.6-4.11,2.64-5.19,4.36-2.78,4.41-3.88,8.86.53,13.36,1.26,1.28.84,4.13,1.38,6.21.72,2.77,1.64,5.5,2.47,8.25l1.43-.44-2.64,1.17,5.75,6.47c-.67,1-2.06,2.29-1.82,2.75,1.55,2.95,3,6.33,7.6,5.54L138,92.64l31.05,4.14-6.59.44,0,.77h22.81l.06.67-9.85,1.75,0,.68H193.9l-23.13,4.33.15,1.51h14.46v.9H165l4.37,2.15H150.63l0,1.35h16.06l0,1.43H151.72l-.08.74L163.82,116l0,.94-8.41,1.48,31.74,3.06,0,.43H165.77v1H176l.16,1.92L154,126.34l6.27,2.62H153.4l-.1.62,4.62,1.58-7,1.38,11.55,2.59-.05.64a13.65,13.65,0,0,0-2.57.18,31.12,31.12,0,0,0-3.34,1.23,22,22,0,0,0,3.17,1.85c2.53,1,5.12,1.78,7.87,2.72l-5.28.42v.61l4.25.49.16.94-12.36,2.44c1.1,4.17-3.19,1.49-5.74,3.2h11.11l-4.5,2,0,.85,5.93.56.06.37-4.76.59-.05.69,10.79,1.55,0,.34h-9.83l-.12.71,6.19,2.64-2.68,1.68,5.24.46c-3.36,3.85-9.64-1.39-11.78,4.77h7l0,.77H150.3c6.3,5.66,13,1.82,19,3.6l-3.48,1.61,10.52,1.45.06.92H157.63v1.33l16,.8,0,1.12-9.92,1.72,4.41,1.09-3.41.78,0,.56,6.44.4v.69H143.45v1h13.76l0,.44-8.6,2.39.12,1h17.43l.18,1.44-11.59,1.42V193l20,2.24-.15,1.45-2.83.58,0,.54h34.37v.92l-50.46,1.52,0,.57H173l.06,1-24,2.52,7.93,2.11-10.75,3,3.45,1.58-8.73,1.34-.18,1,16.91,2.44-17.73.89-.22,1.44,4,1.62-5,.63,5,1.71-.11.73-5.3.61,4.71,1.4c-4.47,2.12-11.32.26-10.44,8.06l3.19,2.54-2.44,2.6,6.49,5.16-3.85,2.82,8.7,1.59L139,248.74l.08.84,10.1,1.75-8.68,1.45.16,1.67,7.72.35c-2.11,2.64-3.18,5.78-6.74,6.35a20.69,20.69,0,0,0,0,3.48l-5,.62c1.55,1.28,7.12.39,2.33,4.15.6.75,1.61,1.45,1.71,2.26a29.18,29.18,0,0,1-.21,5l-5.65.7,1.85,3-2.68.9c2.86,2.47,1.27,5.79,1.86,8.73.14.69.18,1.7.62,2,5.29,3.17,5.31,3.14.83,6.74l9,1.75-3.37.8,0,.61,9.29.43.07.83-4.11,1.4,4,1.25-5.55,2.34,10.29,5.43-10.66,1.05.08,1.28h14l0,.56-7.85,1.69.06.77h7.52l0,.84H149.38l-.08.87,5,.86L144,324.64l4.16.79-4,1.27,5.13.57.39,1.52-13.66,4,6.08,2.47-11.83,6.14L141.33,345l-4.65,4.87,7.81.36c-.5.71-.93,1.33-2.24,3.24l31,5.9-13.31.84c11,4,22.48,2.41,33.95,4l-8.16,1.3,11.76,1.57-.07.51-14.56,1.66-.22,1,4.51,1.17,0,.55H168.5v.66L184.1,374l0,1.46H161.61l0,1.13,14.06,3.13-23.88,2.59v.49h9.57l.2,1.05-6.09,1.75,10.86,1.61-.06.73h-6.35l-.1.64,7.06,1.31L163.6,392h10.63l0,.5L156.48,394l0,.76,5.62.47-1,.95c1.75,1.27,3.33,3.15,5.28,3.67,2.68.73,5.64.44,8.42,1.38l-14.13,2.47v1.15h15.67v1.07H161l0,.92h18.25v.92l-7.56.38v.79H183l-14.39,4.71.09,1h13.44l.12,1.16-8.79,1.76,0,.49h20.66V419a56.22,56.22,0,0,0-5.66,0c-8.85.91-17.69,1.92-26,2.84l22.32,1.64-6.29.79.08.75h34.63l0,1.3H172.91l-.08,1.57,5.55.34,0,.68H164.57l-.11.86,5.91.68-5.65,4.32,4.53.51L153.65,438l0,.67,4.27.58c-.33.83-.66,1.64-1.06,2.63l13.08,1.58-8.67,1.86,24.15,3.94,0,.57h-8.24c1.6,1.43,2.4,2.15,3.67,3.27H170.48l0,1.12,16.67,1.22L165.66,457l0,1h15.22l0,.61-18,1.56-.14,1.26,5.28,1.05-12.7,3.12,7.07,2-14.78,1.25,0,1,19.35,1.51-6.37,2.59c5.56,7.32,13.26,2.63,20.63,4.87l-22.68,1.52-.16.85,26.82,3.49v.25H172.47l-.11,1.78c9.24.92,18.62,0,27.89.51v1.47h-28.6l-.07,1.36,17.21,3.42-.09,1.63-8.36,1.31,0,.44,5.23.45.1.6-18.32,4.23h7.76c2.84,0,5.68-.16,8.5.06,2.38.18,4.74.79,7.1,1.21l-.23,1.6h-9.74l0,.89,7.37.38.26,1-10.81,2.36-.2.91,25.75,2.64.06-.77H178.25l8.82,2.16.11.87-17.69,2v.51h11.22l.16,1.46-8.33.89,0,.49,10.25.79.05,1.19a42,42,0,0,1-5.15,1.15c-1.95.2-3.94,0-6,1h13.61l0,1-23.81,2.34c8,1.86,16.25-.45,24,2.93H164.79l-.07.71,12.59,2.48-.09.51L160,536.27l0,.38,14.47,1.18-.05.81-15.94,1-.08.9,4.07,1.06.06.85-9.17,2,19,3v.35H156.54l-.26,1.29c7.88,3.49,15.37,8.3,25.16,5.2l-.27,1.44h-12.4l0,1H181l0,.92H166.75l-.12.94,5.1.75-2.94,1,.11.63h5.25l0,.81H163l0,1.07h13.28v.84l-13.64.6.06,1.57h11.55v1H162l1.7,2.67-8.34,1.86,10.14,3.34a85.39,85.39,0,0,0-8.72,2.33c-1.17.44-2,1.79-2.86,2.86a16.85,16.85,0,0,0,1.89,2H150.7l-.09.78,4.67.51c-.35,1.94-.69,3.81-1.14,6.27l3.94,1.1c-2.58.73-4.64,1.3-7.71,2.15l5.75.42V594c-1.51,0-3.11-.31-4.52.08s-2.67,1.47-4.6,2.6l5.41.72v.43l-5,.35,4.45,3.34-10.37,2.44.13,1,4.74.36v.58l-5.67.27-.09.55,2.83.77-6.89,7.33,2.93.66-4.64,2.35,19.52,2.35v.5l-12.72,1.53,0,.51,6,1-4.72,2.08,10.54,1.81-5.84.74,0,.48,4.65.56,0,.42-6.24.49-.19,1.12,16.81,2.82L149,637.05l3.4,2.63-3.13.53v.59l10.19.72-6.88,2-.09.8,23.59,1.12v.53h-19.3l0,1h18.4v1.5H155.26l0,1.25,7.76,1.86-3.48.73,0,.63h19.87v1H164.6l-.06.84,12.77,1.72v.84H161.44l-.17,1.24,2.72,1-3.42.64c.37-.39.74-.77,1.1-1.16l3.11,2.62-1.73,1.56L152,668c.69.86,1.67,1.55,1.72,2.3,0,.57-1.13,1.79-1.7,1.75-4.82-.31-6.94,4.63-11.15,5.59v4.15l3,1.39-4.31,3.19,8.63,2.57-.15.91h-7.64l-.12.67,6.36,2.12-4.23,1.85,9.6,3.27-5.31.34-.06.69,5.65.47v.47h-6.84c-.34,1.33-.63,2.45-1,3.86l7.2,1.86-6.6,2.32,7.26.48v.68H141l5.25,2.54-.66.86,12.57,3.11-9.78,1.33.06,1.86,10.17,1.93-4.74.77,4.58,1.89-.08.67h-8.08l-.09,1.75,11.82.64,0,.51h-6.23l-.12,1.09,7.72,1.69,0,.38H150.18l4.51,3.72L146,736.44c.94.87,2.14,2,3.62,3.31l-6.86.39,0,.69,4.66.4v.55l-3.76.34,0,.65,6,.53-2.89.66-2.51,5.28,4.58,2.45-3.16.57v.62h8.56l.08.71-2.92.7-.27,1.56L165,758.76l-3.57.82v1.58l18.68,1.31-9.32,3.8v.61h21.4v1.3H168.87l0,1.58,35.33,1.63,0,.55c-6.13,0-12.28-.28-18.39.12-2.79.18-5.44,2-8.25,2.5-3.23.55-6.57.42-9.93,1.24h7.83l.05.72-6.34,1.23,0,.85,3.38,1-15.4,3.2,9.59.44-3.13,1,0,.6h11.74V786H158.51l-.17,1.49,6.6,1-9.49,1.63-.07.55,4.33.75-4.22,1.81,5.46,1.35-2.61.59,5.35,5c-3.52,1.77-7.58,1-7.68,5.55l5.31,1.74,0,.56H149.8l0,.88L169,811.71l0,.27H157.15l-.21,1.25,8.33,2.34-12.6,1.55v1.07l17.62,1.22,0,.44h-9.19v2.95l6.57.66-2.94,2.65,14.45,1.37c-4.41,4.38-10,1.2-15.83,3.4h12l.08.83-4,.46.11.45,64.73,2.73v.52H193.7l0,.74,11.89,1.26-.11.82-16,.85.07,1.16,35.46,1.51,0,.65H197.7v1h26.49l0,1.5H179.46v1.46h8.66l0,.65-16.81,1.59,0,.91h12.83l0,.83-33.19,2.74-.12,1,2.88.88-1.78,1.44,6.52.39-13.18,4.94,0,.69h8.91l0,.8-5.2.59,4,2.68-5.32,1.73,8,4.11-4.9.38-.29.82,3.77,1.84-2.59,2.55,7.53.94-11.95,3.76,6.75,2.49-3.91,2.8,3.77,1.4-7.53.36-.16,1,4.32,2.39-7,3.15,3.85.72,0,.48h-5.64c-.6,5.57-.41,10.5,6.44,12a24.81,24.81,0,0,0-3.34,0,6.41,6.41,0,0,0-3.67,1.63l4.1,1-2.33,3.28,10.06.5.12,1L143.8,919l-.15,1.1,4.54,1.32-4.58,3.3,3.56.63-5,3.59c1.49.78,3.35,1.74,5.07,2.65L138,933.14l-.13.91,5.89,1.54-4,.6-.07.61h9.82l-13.2,4.36-.05,1.26,6.58,1.28-3.59,1.88,9.61,2.48-4.64,1.73,9,.47-5.74,2,8.21,3.46-5.74.42,4.89,2.14c-2.76,1.22-3.48,2.43,1.58,4l-8.85,1.05,4.36,4.8-6.72,1.34,3.59,1.2-5.15.51,2.26,2-4.6,2.64,4.58.44c-2.63,2.48-2.23,4.11,1.08,4.74a23.9,23.9,0,0,0,4.4,0l.07,1.27-11.17,1,10.84,8.52-5.55.33,0,.61,6,.48-3.75,2.31,4.73,1.09-7.94.58,0,.48,14.66,1.44,0,.56-6.63.44,3.79,2.32-2.72,1.58h10.72v.64l-16.64,1.57-.05.45,16.62,1.7L158.6,1010l.17.67,23,1.59-5.35,1.42,24.53,1.65.09,1.07H183.7v2h59.63v1.46H228.5l-.07.79,4.54.65,0,.61c-4.09,0-8.19.18-12.26,0-8.72-.46-17.08,1-25.46,3.43-4,1.14-8.43.67-12.66,1.34l16.9,1.19-.05,1.79H178.71l0,1.16h20.2l0,1H187.74l0,.89,6.77.69.1,1.15-14,1.9.05.51H195l0,.86H179.74l0,1.11H193.3l0,1H179.63l0,.73,4.62.74.22,1.26-13.89,3.1,0,.68H190l-.05,1.41h-22.4v1h11.77l0,.88-4.61.32.08.93h15.55v.91H173.59v1H184.4v1H170.58v.88H190.1l0,.74-22.5,1.19,0,.87,11.56,1.55,0,.72h-8.73v1h10.66v.86H170.77c-.36.52-.55.76-.54.77.4.36.82.69.84.7l-11.66,2.82,0,.66,4,.54-.07.66h-8.9l-.1.48,5.74,1.86-4,2-.1,1.13,19,2,0,.3H157.93l0,1h9.24l.1,1-11.62,1.73-.07,1.32,11.25,1.71-11.18,2.89,0,.48,6.25.33-2.86,1.36,3.15.76,0,.52h-5.72l-.14.62,5.23,1.91-6.89,4.21,7.67.66c-2.95,6-8.69,2.61-13.12,4.82l8.81,1.38.05.34h-8.2l0,1.11H156l-14.35,4.51,9.17,1.84-4.17,1.89,2.91,1.59-7.08.41,0,.76h8.24c-4.27,1.55-8.24,2.34-11.39,4.39-2,1.28-3.1,4.34-3.8,6.83-.29,1,1.52,2.65,2.61,4.38l-8.36,1.93c6.94,2.42,1.06,5.8.85,9.3h7.47l1.39,7.59-1.47.36,8.22,2.71-5.46.87,0,.75h9.69l.21.81-6.63,2.74,5.09,6-10.31,3.1,3.42,1c-6.31,1.25-6.27,6.18-6.13,11.27l3.16.95-6.64,1.82,5,2.1-3.53,1.78,3.49,2.15-3.84.5-.13.78,4.88,1.46-4.55,1.76,2.26,1.23c-4.38,1-5.42,4.42-2.29,8.49l-5.92,4.33,5.87,4.43-3.34.86-.18,1.1,5.28,1.82c-3.6,3.29-3.22,4.24,3.62,8.17l-9,1.73L139,1229l-6.49,3c1.58,2.72-1.14,7.57,4.18,8.44-1.15.51-2.29,1-3.69,1.67l2.67,2c-6.66,2.45-8.76,7.78-9.35,14-.55,5.75-1,11.52-1.5,17.8l10.55,3.5a29.66,29.66,0,0,0-3.94,3c-1,1-1.67,2.51-3,4.66Z"/>
        <path fill="white" d="M119.59,1374c1.5-8.63-1.55-15.48-7.36-21.87-4.38-4.8-10.12-5.59-16.59-8.09l6.49-4H94.92l0-.79,5.72-.41-4.86-2.38,13-1.55.26-1.08-11.16-3.1L98,1330h7.58v-5.7l-10.24-4.92L102,1318l-.12-.79-2.73-.53,0-.46,7.77-.44-2-4.72,4.29-1.36-6-5,11-1c-1.1-2.25-2.18-4.2-3-6.25a4,4,0,0,1,.25-2.5c2-5.76,8.35-9.16,14-7.06,1.3.48,2.32,2.91,2.63,4.6.6,3.24.6,6.6.92,11a20.28,20.28,0,0,1,3.91.64,18,18,0,0,1,3.62,2.06l-2.49,3.94,2.7,1.41-3.14,1.2c2.43,6.87,9.6,4.18,14.32,7.9l-8,.51,1.7,1.49-7.89,1.79,3.43,1.2-4.65.59,0,.6,6,.44-4.23,1-.09.77,7.17,1.41a1.84,1.84,0,0,1-.47.4q-3.54,1.57-7.1,3.12c2.46.7,4.89,1.5,7.38,2,1.26.27,2.62,0,4.59,1.14L141,1341c1.43,5.22-.27,6.71-7.35,7-7.58,7.62-14.88,14.74-13.08,26Z"/>
      </g>
    </g>
  </g>
</svg>
