<svg xmlns:xlink="http://www.w3.org/1999/xlink" xmlns="http://www.w3.org/2000/svg" viewBox="0,0,282,1600" style="enable-background:new 0 0 282 1600;" version="1.1">
	<defs />
	<g id="layer0">
		<path d="M-0.313667,1600C45.9573,1600 91.7164,1600.28 139.14,1600.28C139.14,1595.47 139.314,1588.46 139.314,1585C136.552,1579.13 137.704,1571.91 138.312,1566.03C137.665,1560.84 132.465,1558.43 133.31,1553.05C135.183,1547.74 128.119,1539.9 133.267,1532.17C130.676,1523.63 136.273,1519.62 139.267,1515.16C137.954,1509.25 137.779,1500.16 134.214,1497.77C134.794,1491.35 130.755,1487.86 129.258,1484.82C125.885,1483.43 126.581,1481.56 128.017,1479.17C129.453,1476.79 131.68,1474.02 131.308,1471.94C128.299,1465.74 122.581,1461.87 131.188,1458.25C128.858,1441.55 135.388,1436.78 134.31,1422.95L133.314,1423C133.314,1419.23 133.314,1413.37 133.314,1411C130.316,1397.66 138.265,1393.63 134.241,1385.8C138.827,1384.82 139.661,1380.74 139.271,1375.98C138.88,1371.23 137.339,1365.99 137.314,1363C134.354,1356.67 133.503,1346.41 126.141,1345.72C130.09,1337.2 126.69,1329.59 125.266,1325.83C136.051,1323.59 124.663,1318.18 131.164,1315.27C132.937,1313.47 135.314,1311.32 136.378,1309.25C137.442,1307.19 137.181,1304.67 134.154,1302.73C130.735,1301.19 129.223,1296.45 129.367,1291.69C129.511,1286.94 131.291,1282.73 135.134,1282.28C131.167,1276.57 130.989,1269.35 128.226,1265.78C124.385,1263.66 126.455,1255.67 129.156,1253.27C133.764,1252.38 134.189,1245.5 138.146,1245.28C137.658,1239.58 130.96,1233.79 126.811,1228.93C122.663,1224.06 121.094,1220.12 131.175,1216.26C133.791,1210.83 129.724,1205.29 126.499,1200.97C123.274,1196.65 120.897,1193.56 127.183,1191.26C127.183,1188.18 127.314,1182.64 127.314,1181C119.46,1169.56 124.189,1168.19 135.159,1165.27C139.726,1156.68 140.323,1141.88 135.179,1134.74L134.314,1135C134.512,1133.66 134.276,1131.33 134.234,1129.37C134.192,1127.42 134.136,1126.14 135.107,1126.29C139.531,1118.44 133.982,1109.99 135.31,1101.05C132.748,1095.01 124.452,1093.05 122.283,1087.86C118.469,1084.27 119.849,1082.66 122.43,1081.18C125.012,1079.7 128.809,1078.57 129.297,1077.1C133.368,1069.61 125.63,1065.98 122.175,1064.74C120.354,1060.37 111.479,1061.62 110.299,1057.91C107.855,1047.92 122.006,1048.53 123.303,1041.08C121.091,1040.4 118.491,1037.19 117.251,1034.11C116.01,1031.03 115.931,1028.28 119.106,1027.3C123.706,1025.36 126.407,1019.53 128.273,1016.15C130.705,1012.55 130.023,1006.62 129.294,1002.89C126.857,1002.75 126.513,1000.12 126.068,997.683C125.623,995.249 124.885,992.828 122.101,993.703C119.457,985.436 137.211,984.525 136.312,973.973C140.83,959.611 132.995,947.019 139.281,935.139C139.281,926.884 139.314,917.009 139.314,910C129.095,897.271 126.606,878.263 132.286,866.128C132.515,864.646 132.29,862.009 132.233,859.879C132.175,857.749 131.997,856.313 133,856.314L135.314,854C135.314,848.848 135.314,841.816 135.314,838C137.063,829.385 140.53,814.423 134.262,805.828C132.641,794.6 131.515,788.026 132.313,775.022C139.057,766.663 129.617,755.757 132.286,750.129C132.465,741.01 129.45,733.272 125.228,729.785C124.597,721.242 131.228,718.577 131.314,712.005C136.676,706.05 130.233,699.414 131.308,693.057C126.843,686.74 120.659,677.085 120.313,670.982C116.389,660.427 126.363,655.797 117.171,651.737C114.072,647.776 123.334,644.234 115.185,640.747C113.199,634.478 107.003,630.811 102.102,628.703C109.571,626.904 109.537,625.701 107.6,624.019C105.663,622.337 102.035,620.5 102.313,617.027C107.534,608.504 99.0309,604.845 92.3397,603.061C85.6486,601.277 80.601,601.62 92.1439,599.279C93.5705,597.283 100.703,598.863 102.13,598.285C111.517,593.292 122.875,588.825 124.311,577.041C129.968,567.446 125.586,560.789 126.312,552.035C121.479,549.423 121.394,545.158 122.945,541.139C124.495,537.12 127.595,533.532 129.225,532.218C130.461,525.799 126.18,518.799 126.314,514.01C122.279,509.421 131.532,502.215 126.225,497.782C130.204,486.79 119.81,480.045 124.278,472.146C124.283,464.916 124.477,455.415 121.189,452.749C117.632,450.462 110.527,450.114 109.269,446.839C104.135,445.437 98.0732,442.819 92.9573,442.689C90.1517,443.572 87.9825,442.397 86.9489,440.898C85.9152,439.399 86.1724,438.178 89.1127,438.293C94.7473,430.563 110.442,431.584 116.247,425.194C117.888,417.942 122.511,404.72 118.247,393.807L117.314,394C117.314,391.263 117.314,386.278 117.314,385C114.486,381.983 111.945,376.452 108.143,375.721C105.638,372.162 109.173,370.008 113.685,367.42C118.198,364.832 123.83,362.218 125.286,359.129C122.806,342.705 121.398,328.793 125.298,317.097C125.496,315.757 125.276,313.327 125.234,311.375C125.192,309.422 125.148,308.14 126.119,308.29C127.899,302.126 131.122,295.009 127.168,289.735C120.707,290.005 123.029,279.716 118.137,279.718C119.823,272.869 110.1,272.093 113.234,268.209C119.872,262.839 125.601,255.102 125.314,243.992C122.983,238.842 134.628,236.153 129.253,228.814C125.162,223.322 125.418,218.883 123.3,211.91C122.062,206.699 119.571,205.435 119.313,198.986C110.265,185.599 115.918,179.619 115.312,166.972C99.8526,165.993 120.451,144.192 106.048,139.69L105.314,140C105.851,136.425 104.066,128.93 106.145,128.278C110.337,124.215 108.244,112.408 115.13,112.285C116.649,109.235 118.313,105.979 118.425,103.624C118.536,101.269 117.083,99.2396 113.12,98.71C104.081,90.2127 115.162,84.1789 117.301,77.0891C116.514,70.1157 109.809,68.1165 107.25,61.8111C101.562,61.4104 100.598,60.69 101.272,59.2683C101.946,57.8467 104.242,56.1208 105.235,54.2081C112.848,53.043 108.727,44.9369 113.136,43.2825C116.498,41.0524 113.586,38.8702 111.277,37.4875C108.968,36.1047 107.203,35.5428 113.078,34.3039C117.329,32.9984 117.989,28.8355 116.772,25.4098C115.555,21.9842 112.519,18.7084 110.134,18.7165C107.906,11.9435 113.263,10.2151 119.647,8.37667C126.031,6.53823 133.566,5.05219 135.258,0.178901C90.2621,0.178901 44.8552,-0.280552 -0.140276,-0.280552C-0.140276,532.999 -0.313667,1066.72 -0.313667,1600Z" fill="#000000" />
		<path d="M138.686,1600L140.314,1600C139.718,1595.44 141.038,1586.4 138.927,1584.69C138.927,1588.15 138.686,1595.19 138.686,1600Z" fill="#B6B6B6" />
		<path d="M139.697,1600.08L142.314,1600C142.919,1595.11 141.123,1586.28 143.232,1584.21C146.276,1578.82 144.671,1571.55 144.313,1565.98C148.129,1552.28 150.747,1544.93 149.311,1532.96C152.871,1522.59 136.028,1512.73 146.254,1499.18C161.29,1473.99 151.038,1457.11 147.311,1428.96C156.644,1402.6 144.528,1392.22 144.314,1366C143.279,1353.39 163.27,1347.4 155.217,1337.77C150.896,1335.51 154.423,1332.37 156.75,1329.28C159.078,1326.2 160.086,1323.1 151.097,1322.7C155.352,1319.44 154.632,1316.82 152.514,1314.41C150.396,1312 147.071,1309.96 146.288,1307.88C153.389,1301.26 155.712,1287.15 148.234,1279.79C154.169,1267.58 165.34,1256.34 148.165,1247.73C142.367,1242.66 145.549,1238.87 149.813,1234.74C154.078,1230.62 159.54,1226.29 158.282,1221.86C150.796,1220.69 149.853,1215.98 151.242,1210.68C152.63,1205.38 156.332,1199.81 158.262,1197.17C157.729,1191.16 151.957,1182.14 159.238,1173.2C163.106,1169.44 158.622,1168 153.742,1166.72C148.863,1165.44 143.646,1164.23 145.296,1159.1C139.281,1150.73 147.83,1138.07 146.304,1131.92C150.253,1122.61 142.1,1115.67 148.225,1110.22C143.212,1101.08 150.79,1095.85 154.195,1093.25C155.667,1091.97 158.847,1090.45 160.81,1088.63C162.774,1086.82 163.526,1084.24 160.201,1081.76C157.104,1078.32 150.114,1077.51 151.306,1071.07C154.674,1068.25 159.603,1065.52 161.21,1062.23C167.363,1062.89 168.407,1056.52 170.251,1054.19C176.026,1044.19 154.773,1047.9 160.238,1039.2C162.834,1038.1 164.644,1034.64 164.987,1031.52C165.331,1028.4 164.015,1025.11 161.044,1024.69C154.911,1023.83 156.251,1016.02 155.275,1013.85C154.175,1013.06 153.497,1010.54 153.538,1008.03C153.58,1005.51 154.19,1003.44 156.124,1003.29C168.609,987.785 149.391,987.052 148.312,974.969C140.052,963.695 150.501,946.292 143.183,935.746L142.314,936C142.888,926.95 141.341,914.547 143.298,908.099C156.353,891.404 155.451,872.642 147.236,853.794L146.314,854C146.919,849.107 145.124,840.277 147.233,838.21C135.591,816.622 159.7,789.558 148.283,766.865C148.481,765.524 148.276,763.327 148.234,761.375C148.192,759.422 148.005,758.162 148.976,758.313L150.314,756C150.929,750.08 149.173,740.339 151.258,737.178C154.018,733.881 158.433,721.835 154.215,718.772C152.306,713.457 148.777,708.516 149.313,702.026C147.623,691.637 160.097,689.291 158.31,676.95C163.15,670.848 162.039,665.26 163.309,657.056C165.416,654.942 167.18,652.552 167.535,650.512C167.889,648.472 166.62,646.426 163.094,645.701C179.324,638.329 172.896,621.785 180.275,609.15C179.523,604.99 187.364,603.872 193.087,603.023C198.81,602.174 202.177,601.132 192.038,598.689C189.3,598.689 184.278,598.686 183,598.686L183.314,598C161.344,593.765 152.498,574.77 155.31,557.051C164.259,535.548 144.835,528.074 157.26,509.175C146.628,495.102 166.096,478.756 158.289,460.879C159.91,443.734 184.47,449.172 193.188,440.251C187.832,438.347 190.031,437.308 192.636,436.367C195.241,435.425 198.137,434.028 194.075,432.696C183.727,431.036 169.088,432.928 166.296,424.897C162.759,415.469 159.508,392.747 166.214,388.229C167.416,380.491 175.716,378.518 181.171,376.263C178.456,372.443 170.292,372.27 170.314,367.003C163.329,367.051 158.291,362.567 156.402,357.115C154.512,351.664 155.681,345.463 161.223,341.221C162.598,329.395 154.497,318.78 156.309,308.056C150.074,297.859 154.805,287.788 161.208,283.235C166.362,274.444 173.907,270.261 166.173,261.739C154.975,260.022 162.753,247.771 158.214,241.771C149.134,238.578 150.903,229.475 157.197,225.244C162.029,219.091 158.201,209.59 160.299,203.094C160.073,194.956 169.646,194.974 169.313,187.983C175.391,180.636 160.167,181.258 165.216,176.227C160.785,172.523 163.392,169.809 166.688,167.121C169.983,164.432 174.035,161.409 172.284,157.867C172.378,151.111 174.639,140.76 175.31,136.046C174.396,133.95 173.814,129.852 174.125,126.461C174.436,123.069 175.445,120.631 178.114,121.292C178.152,118.617 169.454,116.78 169.313,112.981C162.458,111.351 162.532,106.796 164.799,102.222C167.066,97.6475 171.401,93.3245 173.188,92.2513C169.177,87.4703 164.963,82.5096 163.926,78.3884C162.889,74.2672 165.014,70.9956 174.173,68.2614C173.989,67.2038 175.137,67.1522 176.479,67.2399C177.822,67.3277 179.398,67.0642 179.214,66.7707C185.865,65.7839 185.481,64.7969 183.295,63.8289C181.109,62.8608 177.151,61.9451 176.245,60.8041C172.344,56.0713 170.137,52.3763 169.308,47.9406C163.385,33.8196 164.448,25.2975 174.216,13.2272C164.853,8.8872 152.026,6.39385 146.155,-0.272772C142.733,-0.272772 136.871,-0.283619 134.866,-0.283619C133.174,4.58967 125.857,5.9354 119.473,7.77384C113.089,9.61228 107.51,12.3999 109.738,19.1728C112.123,19.1647 114.964,22.1941 116.181,25.6198C117.397,29.0454 117.172,32.3911 112.921,33.6965C107.046,34.9354 108.646,36.6429 110.955,38.0257C113.264,39.4084 116.212,40.4942 112.85,42.7243C108.441,44.3787 112.467,52.5572 104.854,53.7223C103.861,55.635 101.38,57.5779 100.706,58.9996C100.032,60.4213 101.171,61.8799 106.86,62.2806C109.419,68.586 115.901,70.0624 116.688,77.0358C114.549,84.1257 103.808,90.7763 112.847,99.2736C116.81,99.8031 117.909,101.24 117.798,103.595C117.687,105.95 116.294,108.731 114.776,111.781C107.89,111.904 109.953,123.735 105.761,127.797C105.761,131.564 105.686,137.632 105.686,140C120.089,144.502 99.3929,166.298 114.853,167.277C115.458,179.924 109.684,185.777 118.733,199.164C118.99,205.613 121.457,206.863 122.695,212.073C124.812,219.046 124.657,223.695 128.748,229.187C134.124,236.525 122.381,238.975 124.712,244.124C124.999,255.235 119.428,262.398 112.79,267.767C109.656,271.651 119.404,273.013 117.719,279.861C122.61,279.86 120.428,290.564 126.889,290.293C130.844,295.567 127.479,301.749 125.698,307.914C125.5,309.255 125.724,311.673 125.766,313.625C125.808,315.578 125.854,316.86 124.883,316.709C120.983,328.405 122.21,342.625 124.69,359.049C123.234,362.139 117.886,364.288 113.373,366.876C108.861,369.464 105.288,372.677 107.794,376.236C111.596,376.967 113.967,382.219 116.794,385.237C118.82,386.289 117.136,393.096 117.724,394.149C121.988,405.062 117.337,417.67 115.696,424.922C109.891,431.312 94.4632,430.007 88.8285,437.737C85.8883,437.623 85.3987,439.755 86.4324,441.254C87.466,442.753 90.2391,444.193 93.0447,443.31C98.1606,443.44 103.701,445.865 108.835,447.267C110.093,450.542 117.264,450.969 120.821,453.257C124.109,455.923 123.692,464.77 123.686,472C119.219,479.899 129.691,486.884 125.712,497.876C131.019,502.31 121.715,509.6 125.75,514.189C125.616,518.978 129.931,525.509 128.695,531.928C127.064,533.242 123.91,536.895 122.36,540.913C120.809,544.932 120.966,549.629 125.799,552.241C125.073,560.995 129.382,567.255 123.725,576.849C122.289,588.634 111.202,592.753 101.816,597.746C100.389,599.741 93.3344,598.123 91.9073,598.7C80.3643,601.042 85.487,601.884 92.1781,603.668C98.8692,605.451 106.948,608.323 101.727,616.846C101.45,620.319 105.252,622.81 107.189,624.492C109.126,626.174 109.373,626.903 101.903,628.702C106.805,630.809 112.727,634.86 114.714,641.128C122.862,644.615 113.683,648.264 116.782,652.225C125.973,656.285 115.78,660.552 119.705,671.106C120.051,677.21 126.271,686.852 130.736,693.169C129.66,699.526 136.113,705.854 130.751,711.809C130.665,718.381 124.057,721.485 124.688,730.028C128.909,733.515 131.865,740.874 131.686,749.994C129.017,755.621 138.488,766.461 131.744,774.819C130.946,787.824 132.069,794.821 133.69,806.049C139.958,814.644 136.443,829.322 134.693,837.936C135.881,841.37 136.454,851.789 134.838,853.731L132.686,856C132.458,857.482 132.71,859.991 132.767,862.121C132.825,864.251 132.874,865.715 131.871,865.714C126.19,877.849 128.526,897.453 138.744,910.181C139.781,916.91 140.295,929.577 138.701,934.907C132.415,946.786 140.218,959.546 135.7,973.908C136.599,984.46 119.126,985.947 121.771,994.214C124.554,993.339 125.006,995.362 125.451,997.796C125.896,1000.23 126.418,1003.14 128.855,1003.28C129.584,1007.01 130.169,1012.22 127.738,1015.83C125.872,1019.21 123.491,1024.77 118.891,1026.71C115.716,1027.69 115.428,1031.26 116.669,1034.34C117.909,1037.43 120.614,1040.58 122.826,1041.26C121.529,1048.71 107.251,1048.09 109.696,1058.08C110.876,1061.79 119.912,1060.79 121.732,1065.16C125.188,1066.4 132.794,1069.37 128.722,1076.85C128.234,1078.32 124.699,1079.15 122.118,1080.64C119.536,1082.12 117.954,1084.62 121.767,1088.21C123.937,1093.4 132.148,1095.08 134.71,1101.12C133.381,1110.06 139.146,1118 134.722,1125.85C134.722,1128.59 134.686,1133.72 134.686,1135C139.831,1142.14 139.324,1156.21 134.758,1164.8C123.788,1167.72 118.897,1169.75 126.75,1181.19C127.481,1181.84 127.788,1184.21 127.791,1186.58C127.794,1188.95 127.714,1190.81 126.972,1190.69C120.686,1192.99 122.771,1197.03 125.996,1201.35C129.222,1205.66 133.357,1210.39 130.742,1215.82C120.66,1219.69 122.186,1224.47 126.334,1229.33C130.483,1234.19 137.202,1239.36 137.69,1245.05C133.733,1245.27 133.483,1251.82 128.875,1252.71C126.174,1255.11 123.974,1264.13 127.815,1266.25C130.578,1269.82 130.834,1276.53 134.801,1282.24C130.958,1282.69 128.884,1286.92 128.74,1291.67C128.596,1296.43 130.436,1301.74 133.855,1303.28C136.881,1305.23 136.884,1306.9 135.82,1308.97C134.757,1311.03 132.576,1312.95 130.804,1314.76C124.303,1317.67 135.627,1323.48 124.842,1325.73C126.266,1329.49 129.709,1337.28 125.76,1345.8C133.122,1346.49 133.754,1356.8 136.713,1363.13C136.738,1366.12 138.255,1371.28 138.645,1376.03C139.035,1380.79 138.432,1384.74 133.846,1385.73C137.871,1393.56 129.761,1397.86 132.759,1411.2C133.812,1410.67 133.845,1413.01 133.758,1415.91C133.672,1418.82 133.41,1422.18 133.701,1423.09C134.778,1436.93 128.363,1441.36 130.692,1458.06C122.086,1461.68 127.706,1465.93 130.715,1472.13C131.087,1474.21 128.916,1476.47 127.48,1478.85C126.044,1481.23 125.449,1483.86 128.822,1485.26C130.318,1488.29 134.268,1491.54 133.688,1497.96C137.253,1500.35 137.382,1509.16 138.695,1515.07C135.701,1519.53 130.111,1523.56 132.702,1532.1C127.554,1539.83 134.577,1547.58 132.703,1552.9C131.859,1558.28 137.041,1560.84 137.689,1566.04C137.08,1571.91 135.965,1579.28 138.726,1585.15C140.836,1586.86 139.1,1595.52 139.697,1600.08Z" fill="#FEFEFE" />
		<path d="M141.696,1599.92L143.314,1600C143.314,1594.85 143.314,1587.82 143.314,1584C141.205,1586.07 142.301,1595.03 141.696,1599.92Z" fill="#B6B6B6" />
		<path d="M142.686,1600C188.957,1600 234.716,1600.28 282.14,1600.28C282.14,1067 282.314,533.28 282.314,0C237.038,0 192.321,-0.293673 145.89,-0.293673C151.761,6.37295 164.464,8.92181 173.827,13.2618C164.059,25.3321 162.786,33.997 168.709,48.118C169.538,52.5537 171.856,56.4658 175.757,61.1986C176.663,62.3396 180.855,63.4344 183.041,64.4025C185.227,65.3705 185.495,65.741 178.844,66.7277C179.029,67.7853 177.863,67.8478 176.521,67.7601C175.178,67.6723 173.587,67.9213 173.771,68.2148C164.612,70.949 162.281,74.4203 163.318,78.5415C164.355,82.6627 168.768,87.4412 172.779,92.2222C170.992,93.2954 166.504,97.3689 164.237,101.943C161.97,106.517 161.977,111.635 168.832,113.265C168.973,117.063 177.724,118.313 177.687,120.988C175.017,120.327 173.811,123.012 173.5,126.403C173.189,129.794 173.797,134.025 174.711,136.121C174.039,140.836 171.78,151.239 171.686,157.995C173.437,161.537 169.587,163.946 166.291,166.635C162.996,169.323 160.362,172.531 164.793,176.236C159.744,181.266 174.823,180.469 168.746,187.817C169.078,194.808 159.46,194.871 159.686,203.009C157.588,209.505 161.6,218.635 156.769,224.788C150.475,229.019 148.759,239.076 157.839,242.269C162.377,248.269 154.673,260.569 165.871,262.286C173.604,270.808 165.898,274.029 160.743,282.82C154.34,287.373 149.492,297.958 155.727,308.155C153.916,318.879 162.065,329.129 160.69,340.955C155.147,345.197 153.919,351.869 155.809,357.321C157.698,362.773 162.876,367.33 169.861,367.281C169.839,372.548 178.06,372.397 180.775,376.218C175.32,378.472 166.894,380.201 165.692,387.939C158.986,392.457 162.169,415.682 165.706,425.11C168.498,433.141 183.579,431.646 193.927,433.305C197.99,434.637 195.027,434.835 192.423,435.777C189.818,436.718 187.491,438.371 192.847,440.274C184.129,449.195 159.309,443.824 157.688,460.969C165.495,478.846 146.115,495.113 156.748,509.186C144.322,528.086 163.658,535.381 154.709,556.883C151.897,574.602 160.977,594.074 182.947,598.309C184.288,598.507 186.673,598.276 188.625,598.234C190.578,598.192 191.846,597.953 191.696,598.924C201.836,601.367 198.718,601.553 192.995,602.402C187.272,603.252 178.94,604.899 179.692,609.059C172.313,621.694 179.13,638.331 162.9,645.703C166.426,646.428 167.271,648.365 166.917,650.405C166.562,652.445 164.867,654.685 162.759,656.799C161.489,665.003 162.583,670.718 157.743,676.82C159.53,689.161 147.001,691.661 148.69,702.05C148.154,708.54 151.804,713.812 153.713,719.127C157.931,722.189 153.506,733.518 150.747,736.815C150.132,742.736 151.896,752.589 149.811,755.75L148.686,758C148.488,759.341 148.724,761.673 148.766,763.625C148.808,765.578 148.861,766.857 147.89,766.706C159.307,789.399 135.078,816.553 146.72,838.141C146.72,843.294 146.686,850.184 146.686,854C154.9,872.848 155.797,891.127 142.742,907.822C142.742,917.104 142.686,927.943 142.686,936C150.004,946.547 139.477,963.898 147.738,975.172C148.817,987.255 168.309,987.238 155.823,1002.74C153.889,1002.89 152.952,1005.5 152.911,1008.02C152.87,1010.53 153.688,1013.44 154.788,1014.23C155.764,1016.4 154.824,1024.45 160.956,1025.31C163.928,1025.73 164.708,1028.33 164.364,1031.45C164.02,1034.57 162.421,1037.64 159.825,1038.74C154.361,1047.43 175.507,1043.83 169.732,1053.84C167.888,1056.17 167.037,1062.36 160.884,1061.71C159.277,1064.99 154.139,1067.96 150.772,1070.78C149.58,1077.22 156.681,1078.78 159.778,1082.22C163.103,1084.7 162.348,1086.36 160.385,1088.17C158.421,1089.99 155.271,1091.49 153.799,1092.76C150.394,1095.36 142.721,1101.03 147.734,1110.17C141.609,1115.62 149.659,1122.57 145.71,1131.88C147.236,1138.03 138.723,1150.8 144.738,1159.17C143.088,1164.3 148.704,1166.05 153.584,1167.33C158.463,1168.6 162.643,1169.02 158.775,1172.78C151.494,1181.71 157.155,1191.01 157.688,1197.03C155.758,1199.67 152.024,1205.22 150.635,1210.52C149.246,1215.82 150.36,1221.1 157.846,1222.27C159.104,1226.7 153.641,1230.17 149.377,1234.29C145.113,1238.42 142.016,1243.18 147.814,1248.25C164.989,1256.86 153.66,1267.64 147.725,1279.85C155.203,1287.21 152.868,1301.18 145.767,1307.79C146.551,1309.88 149.925,1312.41 152.043,1314.83C154.161,1317.24 155.136,1319.45 150.881,1322.71C159.869,1323.1 158.577,1325.82 156.25,1328.91C153.922,1331.99 150.499,1335.99 154.821,1338.26C162.874,1347.88 142.653,1353.42 143.687,1366.03C143.902,1392.25 156.036,1402.54 146.704,1428.9C150.431,1457.05 160.77,1473.64 145.733,1498.83C135.508,1512.38 152.262,1522.53 148.703,1532.9C150.139,1544.87 147.514,1552.21 143.697,1565.92C144.055,1571.49 145.766,1578.46 142.722,1583.85C142.722,1587.67 142.686,1594.85 142.686,1600Z" fill="#000000" />
		<path d="M132.686,1423L134.314,1423C134.023,1422.09 134.299,1418.84 134.386,1415.93C134.472,1413.03 133.856,1410.23 132.803,1410.76C132.803,1413.12 132.686,1419.23 132.686,1423Z" fill="#898989" />
		<path d="M126.686,1191C127.429,1191.12 128.421,1188.95 128.419,1186.58C128.416,1184.21 127.662,1181.34 126.931,1180.69C126.931,1182.33 126.686,1187.92 126.686,1191Z" fill="#646464" />
		<path d="M133.699,1134.91L135.314,1135C135.314,1133.72 135.314,1128.74 135.314,1126C134.343,1125.85 133.564,1127.44 133.607,1129.39C133.649,1131.34 133.898,1133.57 133.699,1134.91Z" fill="#686868" />
		<path d="M141.689,935.961L143.314,936C143.314,927.943 143.314,917.282 143.314,908C141.357,914.448 142.263,926.911 141.689,935.961Z" fill="#B7B7B7" />
		<path d="M138.686,935C140.281,929.67 140.025,916.416 138.988,909.687C138.988,916.696 138.686,926.745 138.686,935Z" fill="#B7B7B7" />
		<path d="M131.7,865.908C132.703,865.909 133.452,864.234 133.395,862.104C133.337,859.974 133.071,857.575 133.3,856.092C132.297,856.091 131.548,857.766 131.605,859.896C131.663,862.026 131.929,864.425 131.7,865.908Z" fill="#A2A2A2" />
		<path d="M134.686,854C136.302,852.058 136.162,841.121 134.974,837.687C134.974,841.504 134.686,848.848 134.686,854Z" fill="#424243" />
		<path d="M145.696,853.925L147.314,854C147.314,850.184 147.314,843.152 147.314,838C145.205,840.066 146.301,849.032 145.696,853.925Z" fill="#434343" />
		<path d="M147.696,766.922C148.667,767.073 149.436,765.564 149.393,763.612C149.351,761.659 149.106,759.419 149.304,758.078C148.333,757.927 147.564,759.436 147.607,761.388C147.649,763.341 147.894,765.581 147.696,766.922Z" fill="#8B8B8B" />
		<path d="M149.808,755.752C151.893,752.591 150.577,743.168 151.192,737.248C149.107,740.409 150.423,749.832 149.808,755.752Z" fill="#D3D3D3" />
		<path d="M91.8894,598.706C93.3165,598.129 100.684,600.289 102.111,598.294C100.683,598.871 93.316,596.711 91.8894,598.706Z" fill="#707070" />
		<path d="M183,599C184.278,599 189.402,599.281 192.139,599.281C192.29,598.31 190.564,597.564 188.612,597.607C186.659,597.649 184.364,597.885 183.023,597.687L183,599Z" fill="#7C7C7C" />
		<path d="M116.686,394L118.314,394C117.726,392.947 118.935,385.752 116.909,384.7C116.909,385.978 116.686,391.263 116.686,394Z" fill="#C6C6C6" />
		<path d="M124.696,316.922C125.667,317.073 126.436,315.564 126.393,313.612C126.351,311.659 126.106,309.419 126.304,308.078C125.333,307.927 124.564,309.436 124.607,311.388C124.649,313.341 124.894,315.581 124.696,316.922Z" fill="#A9A9A9" />
		<path d="M104.7,139.91L106.314,140C106.314,137.632 106.314,131.767 106.314,128C104.234,128.652 105.237,136.334 104.7,139.91Z" fill="#666666" />
		<path d="M173.883,68.291C173.699,67.9976 175.137,68.2983 176.48,68.3861C177.822,68.4738 179.302,67.7665 179.117,66.709C179.301,67.0024 177.863,66.7017 176.52,66.6139C175.178,66.5262 173.698,67.2335 173.883,68.291Z" fill="#858585" />
	</g>
</svg>
