<svg xmlns:xlink="http://www.w3.org/1999/xlink" xmlns="http://www.w3.org/2000/svg" viewBox="0,0,237,1344" style="filter:hue-rotate(90deg)" aria-hidden="true" version="1.1" class="waveform" id="right">
	<defs>
		<mask id="wave2">
			<path d="M0,1344L116,1344L110,1318L108,1300L106,1284L91,1270L106,1261L95,1244L91,1238L104,1226L93,1215L99,1203L104,1186L102,1169L93,1154L105,1145L98,1130L87,1122L100,1111L96,1099L95,1088L97,1075L108,1064L102,1045L98,1014L94,1010L94,1004L104,986L92,970L111,960L108,941L97,923L95,903L100,887L90,887L90,886L88,886L77,886L77,885L64,870L96,856L101,844L100,830L110,800L95,735L99,728L92,718L95,702L93,684L89,669L86,657L88,646L89,636L86,628L93,618L100,596L101,575L103,560L101,549L106,537L104,524L115,490L114,490L114,479L112,464L105,448L107,429L114,417L100,385L100,355L101,337L111,320L105,303L99,288L104,274L104,255L98,238L93,224L95,209L99,192L95,177L98,161L93,145L96,133L83,123L94,111L99,99L102,89L102,74L94,63L104,48L99,34L103,15L104,0L0,0L0,1344Z" fill="#000007"/>
			<path d="M116,1344L121,1344L127,1319L129,1302L130,1286L146,1274L126,1263L138,1248L146,1237L137,1226L148,1216L137,1206L132,1190L129,1171L145,1156L130,1146L138,1131L150,1119L142,1110L151,1102L133,1091L143,1079L127,1066L141,1053L127,1038L141,1020L137,1012L144,1004L135,988L145,971L123,959L131,938L140,918L147,902L136,887L146,886L147,886L157,885L175,869L166,869L166,868L139,851L142,835L139,821L126,800L124,768L136,736L147,730L138,724L144,698L144,685L143,673L146,659L150,650L154,639L142,630L141,611L141,595L134,574L135,560L132,548L133,536L132,522L123,494L122,494L123,479L128,469L129,454L132,425L129,398L127,372L135,350L129,324L137,298L138,285L134,273L139,245L143,219L144,188L139,161L146,148L148,136L154,122L134,102L137,93L137,81L137,76L141,58L140,41L134,19L133,0L104,0L103,15L99,34L104,48L94,63L102,74L102,89L99,99L94,111L83,123L96,133L93,145L98,161L95,177L99,192L95,209L93,224L98,238L104,255L104,274L99,288L105,303L111,320L101,337L100,355L100,385L114,417L107,429L105,448L112,464L114,479L115,490L104,524L106,537L101,549L103,560L101,575L100,596L93,618L86,628L89,636L88,646L86,657L89,669L93,684L95,702L92,718L99,728L95,735L110,800L100,830L101,844L96,856L64,870L77,885L88,886L90,886L100,887L95,903L97,923L108,941L111,960L92,970L104,986L94,1004L94,1010L98,1014L102,1045L108,1064L97,1075L95,1088L96,1099L100,1111L87,1122L98,1130L105,1145L93,1154L102,1169L104,1186L99,1203L93,1215L104,1226L91,1238L95,1244L106,1261L91,1270L106,1284L108,1300L110,1318L116,1344Z" fill="#FEFEFE"/>
			<path d="M121,1344L237,1344L237,0L133,0L134,19L140,41L141,58L137,76L137,81L137,93L134,102L154,122L148,136L146,148L139,161L144,188L143,219L139,245L134,273L138,285L137,298L129,324L135,350L127,372L129,398L132,425L129,454L128,469L123,479L123,494L132,522L133,536L132,548L135,560L134,574L141,595L141,611L142,630L154,639L150,650L146,659L143,673L144,685L144,698L138,724L147,730L136,736L124,768L126,800L139,821L142,835L139,851L166,868L175,869L157,885L147,886L146,886L136,887L147,902L140,918L131,938L123,959L145,971L135,988L144,1004L137,1012L141,1020L127,1038L141,1053L127,1066L143,1079L133,1091L151,1102L142,1110L150,1119L138,1131L130,1146L145,1156L129,1171L132,1190L137,1206L148,1216L137,1226L146,1237L138,1248L126,1263L146,1274L130,1286L129,1302L127,1319L121,1344Z" fill="#000007"/>
			<path d="M90,887L100,887L90,886L90,887Z" fill="#33333A"/>
			<path d="M77,886L88,886L77,885L77,886Z" fill="#39383C"/>
			<path d="M166,869L175,869L166,868L166,869Z" fill="#3E3E54"/>
			<path d="M122,494L123,494L123,479L122,494Z" fill="#2F2F4B"/>
			<path d="M114,490L115,490L114,479L114,490Z" fill="#2F2F4B"/>
			<path d="M0,1344C12.1771,1344 26.134,1344 37,1344C49.1771,1344 63.134,1344 74,1344C86.1771,1344 100.134,1344 111,1344C120.573,1342.16 114.484,1321.21 110,1319C98.1405,1310.66 119.547,1309.22 107,1299C101.527,1289.35 118.638,1287.09 101,1282C92.5854,1278.67 84.174,1266 100,1266C118.673,1264.57 116.189,1264.95 104,1258C98.3633,1252.89 99.8389,1239.01 84,1243C64.745,1239.77 98.687,1237.23 101,1239C115.881,1231.72 90.0233,1235.49 82,1235C74.7657,1235.5 97.0815,1230.77 101,1228C125.857,1228.08 96.9324,1222.4 92,1222C82.1795,1216.1 104.206,1211.69 108,1209C96.4446,1208.79 90.9844,1193.26 104,1192C93.4905,1177.01 120.581,1177.18 108,1172C101.558,1168.71 89.1178,1160.33 89,1158C92.5734,1150.37 111.143,1152.41 115,1149C104.531,1147.44 93.7291,1138.66 105,1136C99.3847,1129.62 89.0223,1127.98 79,1126C76.1924,1118.82 95.705,1118.37 100,1114C123.95,1111.26 96.477,1110.37 91,1108C79.9753,1104.36 99.2152,1094.98 105,1095C120.481,1090.31 89.9943,1092.76 92,1084C81.5511,1078.13 118.267,1076.79 105,1076C85.5289,1075.23 101.05,1062.6 113,1067C118.917,1065.37 97.0191,1059.11 99,1054C96.7573,1042.23 115.485,1041.35 106,1031C103.312,1025.34 83.9407,1018.45 95,1015C114.535,1012.07 104.639,1010.36 90,1010C75.5127,1000.54 115.092,1014.29 102,1005C86.1956,1010.11 96.7155,995.205 100,989C107.983,984.326 92.0761,974.654 87,973C92.2236,973.499 109.743,982.797 107,976C117.724,968.53 95.4668,976.512 90,970C95.312,969.773 121.36,964.353 107,965C94.8858,965.446 124.294,959.759 115,950C104.89,945.719 108.686,932.265 104,928C88.7142,926.569 104.904,907.632 98,905C84.236,897.852 93.3064,897.472 100,889C100.356,884.273 78.59,886.079 72,884C66.0348,878.765 52.1371,876.13 48,873C58.0488,870.872 70.5199,869.386 79,867C81.1404,860.242 103.913,862.043 99,857C82.3305,851 118.359,845.792 101,844C87.256,840.845 106.193,826.659 96,820C94.8909,810.921 107.288,805.932 111,800C104.385,793.963 107.274,779.095 112,773C116.394,763.143 113.642,748.3 107,745C107.737,734.531 84.6186,736.834 88,731C102.294,729.009 109.654,726.164 95,721C83.6369,713.933 104.064,701.233 100,704C89.4905,699.916 99.1367,686.468 93,678C82.5729,672.16 99.3479,664.228 88,658C65.0884,656.379 91.931,648.184 83,648C91.1952,648.468 73.8832,635.641 92,635C112.912,630.265 84.7643,631.192 83,625C91.2473,621.07 95.4293,611.295 103,608C120.395,604.286 102.031,595.894 95,595C77.0543,592.085 94.6899,586.699 98,580C96.2963,569.885 103.913,556.84 102,555C87.5696,549.245 115.414,546.403 107,538C104.351,526.503 110.532,526.63 102,516C110.411,512.412 109.405,499.404 115,493C118.959,479.062 108.553,469.508 106,469C116.443,466.511 104.642,454.333 105,447C112.093,438.635 111.367,424.909 98,427C104.127,426.667 119.281,421.627 111,410C113.191,395.632 97.7673,397.099 99,385C107.41,380.285 113.062,369.837 103,364C92.3206,351.704 114.113,347.721 101,343C102.002,332.003 107.419,325.418 111,317C117.112,305.104 95.8554,302.502 102,295C89.719,284.203 116.25,280.836 103,273C99.9825,263.93 107.024,252.878 99,246C101.782,236.717 89.5445,233.181 93,230C87.169,222.305 104.507,210.156 94,208C103.995,200.033 93.9675,188.899 97,182C92.0028,173.383 104.613,161.634 96,156C91.9419,147.427 91.114,144.869 89,137C107.244,131.085 89.6331,128.099 82,125C78.4609,118.772 106.104,118.776 94,112C92.9105,100.126 121.018,104.667 100,99C80.2484,97.2471 98.5614,91.4247 105,88C91.4342,85.6566 105.371,69.3844 104,70C94.2616,68.2869 89.431,52.8051 101,50C113.975,42.8112 87.1671,41.4083 100,30C96.4397,21.8677 107.602,8.63037 106,8C99.62,1.66931 108.17,-2.17786 87,0C74.8229,0 60.866,0 50,0C37.8229,0 23.866,0 13,0C-5.45407,-6.45532 0.844697,11.8459 0,23C0,35.1771 0,49.134 0,60C0,71.9988 0,84.0012 0,96C0,108.177 0,122.134 0,133C0,144.999 0,157.001 0,169C0,181.177 0,195.134 0,206C0,218.177 0,232.134 0,243C0,255.177 0,269.134 0,280C0,291.999 0,304.001 0,316C0,328.177 0,342.134 0,353C0,365.177 0,379.134 0,390C0,402.177 0,416.134 0,427C0,438.999 0,451.001 0,463C0,475.177 0,489.134 0,500C0,512.177 0,526.134 0,537C0,549.177 0,563.134 0,574C0,585.999 0,598.001 0,610C0,622.177 0,636.134 0,647C0,659.177 0,673.134 0,684C0,696.177 0,710.134 0,721C0,732.999 0,745.001 0,757C0,769.177 0,783.134 0,794C0,806.177 0,820.134 0,831C0,843.177 0,857.134 0,868C0,879.999 0,892.001 0,904C0,916.177 0,930.134 0,941C0,953.177 0,967.134 0,978C0,990.177 0,1004.13 0,1015C0,1027 0,1039 0,1051C0,1063.18 0,1077.13 0,1088C0,1100.18 0,1114.13 0,1125C0,1137.18 0,1151.13 0,1162C0,1174 0,1186 0,1198C0,1210.18 0,1224.13 0,1235C0,1247 0,1259 0,1271C0,1283.18 0,1297.13 0,1308C0,1320 0,1332 0,1344ZM121,1344C133.177,1344 147.134,1344 158,1344C170.177,1344 184.134,1344 195,1344C207.177,1344 221.134,1344 232,1344C241.846,1341.67 234.322,1320.19 237,1312C237,1299.82 237,1285.87 237,1275C237,1262.82 237,1248.87 237,1238C237,1225.82 237,1211.87 237,1201C237,1188.82 237,1174.87 237,1164C237,1151.82 237,1137.87 237,1127C237,1114.82 237,1100.87 237,1090C237,1077.82 237,1063.87 237,1053C237,1040.82 237,1026.87 237,1016C237,1003.82 237,989.866 237,979C237,966.823 237,952.866 237,942C237,929.823 237,915.866 237,905C237,892.823 237,878.866 237,868C237,855.823 237,841.866 237,831C237,818.823 237,804.866 237,794C237,781.823 237,767.866 237,757C237,744.823 237,730.866 237,720C237,707.823 237,693.866 237,683C237,670.823 237,656.866 237,646C237,633.823 237,619.866 237,609C237,596.823 237,582.866 237,572C237,559.823 237,545.866 237,535C237,522.823 237,508.866 237,498C237,485.823 237,471.866 237,461C237,448.823 237,434.866 237,424C237,411.823 237,397.866 237,387C237,374.823 237,360.866 237,350C237,337.823 237,323.866 237,313C237,301.001 237,288.999 237,277C237,264.823 237,250.866 237,240C237,227.823 237,213.866 237,203C237,190.823 237,176.866 237,166C237,153.823 237,139.866 237,129C237,116.823 237,102.866 237,92C237,79.8229 237,65.866 237,55C237,42.8229 237,28.866 237,18C242.518,0.304443 232.077,-3.21069 218,0C205.823,0 191.866,0 181,0C168.823,0 154.866,0 144,0C126.204,-1.73254 144.259,5.30579 133,12C132.768,20.9614 137.613,31.9205 142,38C125.057,44.12 141.039,47.1879 141,56C144.353,69.2628 120.032,68.9192 135,75C143.379,88.3069 116.756,86.6544 136,91C146.923,100.921 114.7,101.964 138,104C149.541,109.815 135.675,121.283 152,121C166.592,126.329 142.189,129.562 138,132C125.574,134.711 161.173,134.123 150,143C144.377,145.618 145.246,159.096 136,162C138.534,165.754 137.079,182.66 143,186C135.82,190.715 140.26,210.608 141,215C144.947,224.691 150.738,232.738 143,240C136.446,245.999 133.989,255.188 134,264C137.592,272.598 124.329,283.25 139,286C130.735,296.43 139.8,297.742 130,306C120.286,310.05 127.697,327.699 133,330C145.772,335.681 122.193,351.315 139,351C141.057,357.428 131.44,367.771 128,373C133.293,379.148 142.486,389.249 132,396C127.47,401.048 120.863,416.25 127,422C143.727,427.992 135.932,425.902 128,435C128.965,443.134 131.995,457.238 127,463C137.659,471.652 134.257,468.145 124,477C117.552,487.945 126.699,498.374 128,506C132.64,514.741 143.567,520.086 130,525C142.888,533.533 120.072,541.735 132,548C140.262,557.143 130.847,556.392 138,563C134.103,572.762 133.091,586.591 145,587C159.882,591.045 135.339,596.971 132,599C114.004,605.945 137.078,605.752 141,611C139.798,620.712 165.55,621.872 148,629C126.175,628.668 147.908,636.556 154,638C157.17,645.448 149.631,646.427 151,650C168.125,656.031 135.83,655.655 146,668C132.779,675.239 153.49,680.022 141,688C153.535,698.573 131.942,703.996 137,705C147.309,706.518 147.354,724.476 137,724C117.658,726.425 148.434,728.559 150,732C148.989,735.968 129.129,735.215 130,745C122.44,749.794 120.847,763.387 125,771C128.967,777.331 133.753,794.204 125,798C123.566,799.598 137.4,809.152 141,813C144.086,819.722 130.011,830.943 142,837C136.224,845.869 139.055,860.713 149,861C161.134,861.043 165.623,870.511 177,870C191.743,873.298 166.492,879.37 164,882C158.326,887.281 137.847,884.188 135,888C137.568,892.823 157.979,900.696 148,902C131.959,902.654 138.34,913.42 139,922C133.115,926.709 129.396,934.168 127,943C117.373,950.334 122.327,960.945 131,964C139.038,971.154 154.503,966.332 142,978C144.094,987.222 114.762,987.494 135,989C158.314,992.254 127.101,1002.76 140,1001C152.282,1004.47 125.496,1011.96 135,1013C151.371,1015.23 134.844,1026.63 132,1031C119.519,1040.32 141.696,1043 142,1050C142.463,1054.77 122.537,1037.27 128,1055C145.054,1050.66 149.758,1056.65 133,1059C120.821,1065.35 116.514,1068.19 135,1068C142.945,1076.97 130.409,1079.4 149,1081C146.573,1083.55 137.224,1093.31 127,1092C131.186,1096.39 146.289,1097.82 152,1102C173.45,1107.27 147.83,1108.87 141,1110C118.24,1111.42 132.296,1115.5 145,1115C163.289,1121.85 144.056,1123.27 138,1121C142.176,1129.09 167.398,1118.21 148,1128C140.419,1128.43 121.515,1139.71 139,1138C143.102,1143.05 119.443,1148.79 124,1150C133.601,1150.29 152.272,1154.1 140,1163C139.363,1169.09 114.468,1175.73 131,1177C139.636,1178.26 124.528,1197.43 140,1197C146.564,1209.19 115.485,1207.45 136,1212C142.855,1212.69 164.675,1220.83 149,1222C143.443,1224.03 115.03,1226.17 134,1228C140.104,1229.21 166.429,1234.71 145,1236C130.299,1226.9 129.85,1245.78 147,1239C170.922,1242.07 139.965,1242.67 138,1247C142.842,1256.49 129.262,1261.76 121,1263C130.539,1265.64 145.744,1264.39 147,1274C136.618,1275.32 121.06,1283.86 140,1278C159.897,1271.17 141.651,1282.78 134,1283C113.734,1289.27 136.7,1288.87 131,1299C115.979,1308.79 132.821,1309.59 129,1316C122.827,1321.83 120.107,1331.11 121,1344Z" fill="#250000" fill-opacity="0.379767"/>
		</mask>
	</defs>
	<g id="line">
		<rect x="141" y="0" width="1" height="1600" fill="#000000" opacity="0"/>
	</g>
	<g>
		<image mask="url(#wave2)" id="right__wave" x="0" y="0" width="237" height="1344" href="texture2.jpg">
		</image>
	</g>
</svg>
