<svg xmlns:xlink="http://www.w3.org/1999/xlink" xmlns="http://www.w3.org/2000/svg" viewBox="0,0,282,1600" style="filter:hue-rotate(90deg)" aria-hidden="true" version="1.1" class="waveform" id="right">
	<defs>
		<mask id="wave2">
			<path d="M-0.313667,1600C45.6817,1600 92.1449,1600.28 138.14,1600.28C138.14,1596.51 138.314,1590.37 138.314,1588C142.625,1580.28 135.486,1573.88 130.014,1568.84C124.542,1563.81 120.599,1560.41 131.175,1557.26C131.198,1550.43 124.085,1544.15 122.301,1537.91C122.98,1536.41 126.134,1536.69 128.666,1536.25C131.197,1535.82 132.995,1534.51 130.19,1531.75C118.384,1526.81 114.618,1525.25 111.272,1517.84C105.823,1514.59 107.039,1511.5 110.683,1509.06C114.327,1506.62 120.075,1505.29 123.949,1506.31C132.194,1506.86 131.451,1504 128.142,1501.2C124.833,1498.4 119.265,1495.19 118.258,1493.82C119.862,1490.35 120.97,1480.59 109.976,1480.69C106.757,1481.15 101.023,1480.02 97.7599,1478.58C94.4972,1477.14 93.7541,1476 101.024,1475.31C107.384,1474.94 110.137,1474.25 110.671,1473.21C111.205,1472.17 109.753,1470.28 108.257,1467.82C112.097,1464.78 115.485,1460.38 122.022,1461.31C127.542,1459.69 125.78,1458.29 122.501,1457.68C119.222,1457.07 114.66,1456.75 114.255,1455.82C107.903,1454.6 107.608,1452.27 109.421,1449.61C111.234,1446.94 114.996,1444.42 117.096,1443.3C125.898,1442.48 126.541,1440.58 124.723,1438.71C122.905,1436.84 118.823,1434.61 118.294,1431.89C113.945,1431.7 112.346,1429.28 112.751,1426.9C113.156,1424.53 115.263,1422.63 118.992,1423.31C125.381,1422.5 125.191,1418.07 125.313,1414.01C119.487,1407.83 122.747,1404.74 126.275,1402.24C129.803,1399.73 133.456,1397.55 128.171,1394.74C124.156,1391.07 115.666,1387.49 110.666,1383.73C105.666,1379.98 104.164,1376.57 114.18,1372.26C115.232,1370.23 122.03,1371.89 123.083,1371.3C130.207,1371.37 132.491,1369.8 131.993,1368.19C131.495,1366.58 128.248,1364.35 125.114,1362.71C121.903,1361.95 119.038,1359.75 118.071,1357.5C117.104,1355.26 118.047,1353.55 123.125,1353.29C120.284,1349.25 117.094,1343.17 110.98,1343.69C104.869,1343.96 100.293,1342.27 98.8974,1340.42C97.502,1338.57 99.363,1337.18 107.056,1337.31C101.404,1335.01 103.344,1333.36 106.691,1331.88C110.038,1330.39 115.038,1328.84 115.301,1327.09C120.028,1326.88 122.894,1325.53 123.271,1324.28C123.648,1323.03 121.337,1321.49 116.102,1321.7C113.28,1318.68 104.82,1320.06 105.312,1315.03C104.199,1311.15 113.506,1308 119.779,1305.15C126.053,1302.29 129.132,1299.42 115.153,1297.73C115.985,1291.59 106.886,1289.63 108.258,1287.18C110.924,1285.49 115.453,1284.16 117.85,1282.75C120.247,1281.33 120.296,1279.35 114.041,1277.69L111.314,1278C110.76,1276.25 110.9,1274.83 111.507,1273.85C112.114,1272.87 112.852,1272.65 113.978,1273.31C116.498,1272.26 123.716,1271.48 128.274,1270.48C132.833,1269.48 134.795,1267.64 127.039,1265.69L125.314,1266C125.314,1264.56 124.686,1260.89 124.686,1261C116.968,1260.52 115.999,1255.94 117.513,1251.09C119.026,1246.25 123.486,1241.42 128.15,1240.28C134.346,1231.4 119.869,1220.18 113.161,1216.73C107.662,1212.49 112.347,1210.09 116.067,1207.93C119.787,1205.76 122.532,1203.84 113.153,1202.73C113.558,1198.2 112.627,1193.23 113.312,1187.04C110.353,1176.72 126.076,1178.75 123.285,1172.87C122.764,1170.97 119.665,1168.75 117.292,1166.93C114.92,1165.11 113.12,1164.09 115.131,1163.28C119.615,1160.81 115.833,1158.89 112.461,1157.71C109.088,1156.54 106.163,1156.08 112.169,1154.26C113.029,1151.93 117.977,1152.36 122.197,1152.39C126.417,1152.41 129.99,1151.57 127.251,1147.81C128.415,1146.43 132.98,1144.27 135.983,1141.09C138.986,1137.9 140.395,1133.66 135.219,1129.78C133.288,1123.58 121.85,1118.43 128.246,1111.19C129.752,1107.6 127.339,1105.49 124.327,1104.45C121.316,1103.42 117.685,1103.04 116.224,1101.78C115.103,1099.54 114.943,1096.44 115.35,1093.58C115.757,1090.71 116.639,1088.57 118.131,1088.28C123.023,1083.24 120.919,1079.41 117.241,1076.64C113.562,1073.88 108.447,1071.74 107.269,1068.84C113.92,1066.55 118.155,1060.82 121.242,1056.2C117.385,1053.87 106.705,1056.03 104.128,1053.71C99.6693,1053.71 93.0942,1053.69 90,1053.69L90.3137,1053C78.9607,1051.33 73.5064,1042.17 63.1133,1040.71C70.6949,1034.59 85.258,1034.89 95.168,1032.26C96.0668,1028.72 103.318,1027.3 109.014,1025.84C114.71,1024.37 118.892,1022.35 113.21,1018.77C112.663,1015.37 117.405,1012.34 120.027,1009.46C122.649,1006.57 123.081,1003.78 114.141,1002.72C108.659,992.636 124.548,988.813 118.216,982.773C112.64,977.464 112.393,969.863 117.128,965.286C125.82,965.723 123.944,954.135 130.111,953.293C132.736,951.239 131.75,948.632 130.037,946.589C128.323,944.546 126.08,942.82 126.31,941.045C130.954,935.041 127.747,920.284 135.17,918.263C136.631,910.045 136.134,902.112 135.311,894.96C132.084,890.962 125.951,888.256 125.309,882.945C121.062,881.347 120.18,874.018 113.977,875.687C103.815,874.478 104.372,872.818 107.976,870.748C111.581,868.678 118.386,866.796 121.13,866.285C123.315,864.056 120.851,862.216 117.713,861.144C114.575,860.072 110.919,859.359 110.288,857.876C113.522,851.528 106.587,844.032 116.186,840.253C116.158,839.562 115.494,838.476 114.909,837.976C114.325,837.476 113.851,837.537 114.216,837.228C107.172,827.867 120.297,820.532 111.255,807.817C116.444,800.99 104.864,801.805 105.31,798.046C107.427,796.508 110.197,794.517 111.448,792.351C112.698,790.185 112.245,787.511 108.127,785.713C102.098,783.02 98.3045,781.356 97.214,779.252C96.1235,777.147 97.8006,775.136 103.191,771.249C100.722,769.059 98.26,765.429 97.9612,762.427C97.6623,759.424 99.3705,757.111 106.036,756.312C113.121,755.548 114.448,752.942 112.864,751.087C111.279,749.232 106.771,747.505 103.023,747.687C97.8705,746.661 97.1618,744.301 98.4693,741.896C99.7768,739.492 103.059,737.668 106.981,738.313C115.625,737.934 110.461,727.777 115.1,726.297C120.18,724.498 127.552,723.141 130.227,720.216C133.381,717.284 131.628,714.948 129.001,713.509C126.375,712.069 122.885,711.106 122.238,709.796C117.095,709.094 111.012,707.382 108.141,705.72C101.73,703.192 103.679,701.241 107.497,698.996C111.314,696.752 117.118,694.674 118.258,693.179C121.636,682.534 117.378,682.251 120.275,675.15C115.973,672.922 116.612,670.597 118.66,668.58C120.708,666.564 124.095,664.94 125.207,664.236C123.872,660.418 117.489,659.231 115.168,657.735C128.198,649.658 135.667,643.802 123.189,630.75C128.641,628.913 128.779,626.95 127.207,625.027C125.636,623.104 122.423,621.29 121.256,619.819C119.013,609.664 129.091,610.511 130.306,605.068C130.535,603.585 130.29,601.009 130.233,598.879C130.175,596.749 130.114,595.29 131.117,595.291C133.461,592.137 138.182,588.958 137.296,583.896L136.314,584C136.314,579.541 136.314,573.094 136.314,570C123.181,561.014 143.186,554.878 129.197,547.756C127.324,534.734 123.921,532.047 130.28,520.14C130.28,517.403 130.314,512.278 130.314,511C123.533,512.006 122.145,510.436 123.421,508.44C124.697,506.444 128.435,504.315 132.113,504.293C138.112,497.209 134.558,494.129 133.31,485.953C132.72,478.974 128.151,474.023 125.145,470.722C117.673,470.989 121.091,464.012 118.181,462.744C120.35,458.46 126.127,453.516 128.925,448.288C131.723,443.06 131.535,437.543 122.173,433.739C114.078,420.56 127.42,415.277 120.259,405.823C120.628,404.136 120.233,401.288 120.167,398.827C120.1,396.366 120.058,394.778 121.956,395.311L122.686,394C125.551,394.635 126.479,392.201 126.413,389.58C126.348,386.959 125.689,384.451 127.087,384.302C134.284,380.527 135.057,374.845 133.044,370.035C131.03,365.224 126.262,360.692 123.12,358.71C110.964,356.668 130.889,345.93 117.156,343.728C116.016,339.25 120.171,338.132 123.675,336.661C127.179,335.19 130.077,333.398 126.2,329.758C117.331,324.313 119.282,314.5 124.263,306.171C112.556,293.835 121.524,278.916 106.098,275.702C112.072,272.746 111.8,269.261 112.313,260.018C111.772,257.471 114.762,256.063 116.701,254.506C118.639,252.95 119.396,250.973 114.182,248.745C111.371,242.115 128.125,229.261 113.159,220.73C122.479,214.922 107.14,205.364 118.22,197.223C117.721,191.191 112.268,183.431 108.277,175.852C109.35,174.025 106.007,170.843 104.319,167.836C102.631,164.83 102.376,162.456 110.055,161.309C116.466,159.97 116.993,156.96 114.828,155.062C112.663,153.163 107.742,151.755 103.991,152.686C98.1813,151.574 97.2926,149.545 98.276,147.093C99.2593,144.641 102.174,142.39 105.051,141.31C119.076,141.936 107.168,134.353 112.2,130.242C109.415,127.858 111.264,126.507 114.185,125.525C117.107,124.542 121.025,123.974 122.125,123.288C125.778,122.506 124.835,120.215 122.555,118.791C120.275,117.367 116.516,116.211 114.983,116.687C107.657,115.247 109.164,113.829 112.405,111.693C115.645,109.556 120.942,107.08 121.307,105.066C128.501,98.5815 110.206,98.5746 118.184,90.2542C120.213,89.6643 123.254,88.2338 124.876,86.6799C126.498,85.126 126.637,82.9052 123.121,81.7107C119.313,79.6748 115.886,75.5182 112.148,74.7233C104.561,63.1426 122.115,61.3439 126.273,54.154C127.835,50.6916 124.591,49.5411 121.43,48.8113C118.269,48.0815 115.217,47.7121 116.299,44.0938C119.524,38.3729 123.455,32.8437 120.281,26.86C120.388,25.7676 120.24,23.9577 120.248,22.38C120.255,20.8024 120.159,19.91 121.021,20.313C135.317,11.0245 109.512,7.32727 124.074,0.304927C82.7769,0.304927 42.3253,-0.280552 -0.140276,-0.280552C-0.140276,532.999 -0.313667,1066.72 -0.313667,1600Z" fill="#000007" />
			<path d="M137.686,1600L139.314,1600C138.776,1596.42 139.971,1588.36 137.892,1587.71C137.892,1590.07 137.686,1596.23 137.686,1600Z" fill="#C1BFD6" />
			<path d="M138.7,1600.09C140.136,1600.09 144.25,1599.72 144.139,1599.72C141.75,1580.14 147.433,1571.57 157.123,1563.29L155.314,1563C154.917,1560.78 151.104,1559.65 148.659,1558.92C146.214,1558.19 145.013,1558.11 149.19,1556.25C149.625,1553.24 153.847,1549.2 156.569,1545.46C159.29,1541.73 160.397,1537.74 155.078,1535.7C149.483,1535.03 150.663,1532.99 153.723,1530.74C156.783,1528.48 161.648,1526.63 164.003,1527.31C173.726,1524.24 158.554,1517.91 173.105,1517.3C175.196,1515.41 174.022,1512.22 171.611,1510.11C169.201,1508 165.432,1506.36 162.984,1506.69C159.389,1506.58 154.963,1506.13 152.459,1505.17C149.955,1504.21 149.511,1503.34 154.121,1501.29C167.16,1496.36 165.96,1491.13 165.312,1484.97C165.493,1481.3 170.051,1481.09 174.423,1480.61C178.795,1480.12 182.902,1479.18 181.233,1475.79C174.853,1475.26 173.627,1474.45 174.598,1473.11C175.57,1471.76 178.644,1470.38 181.138,1469.28C176.768,1466.77 168.275,1466.52 167.297,1461.9C157.924,1459.38 162.359,1458.35 168.906,1456.76C175.454,1455.17 184.091,1452.97 182.274,1449.85C181.222,1446.53 170.76,1444.52 163.64,1442.67C156.52,1440.82 152.636,1439.54 164.169,1436.26C163.615,1434.51 163.9,1432.83 164.507,1431.85C165.114,1430.87 165.785,1430.63 166.911,1431.3L169.314,1430C169.314,1428.56 168.686,1424.89 168.686,1425C139.392,1427.18 175.16,1397.05 151.11,1399.71C156.491,1390.77 175.438,1385.46 170.234,1372.79C160.125,1373.54 153.949,1371.7 152.37,1368.95C150.791,1366.2 153.646,1363.04 162.073,1360.31C167.274,1359.54 167.625,1357.22 166.051,1355.64C164.476,1354.07 161.01,1352.63 159.107,1352.71C162.424,1348.8 164.481,1342.77 170.98,1343.31C177.693,1343.6 180.879,1340.19 180.877,1336.94C180.875,1333.69 177.807,1330 173.103,1329.7C169.726,1326.94 164.074,1325.57 161.58,1324.44C159.086,1323.31 159.712,1323.03 169.067,1321.31C171.233,1320.75 177.969,1320.06 182.799,1319.11C187.629,1318.15 190.578,1316.33 185.092,1314.7C178.334,1312.52 175.532,1304.93 166.065,1306.69C163.717,1304.95 159.858,1303.05 158.066,1301.38C156.273,1299.7 156.489,1298.86 163.006,1298.31C170.929,1298.67 168.358,1286.85 177.11,1289.29C177.418,1287.09 174.992,1285.18 172.082,1284.2C169.171,1283.22 165.728,1282.56 164.061,1281.69C166.452,1281.96 168.093,1279.03 168.315,1276.2C168.537,1273.37 167.34,1270.66 165.061,1272.69C164.496,1270.68 161.336,1270.73 158.429,1270.75C155.523,1270.78 153.117,1271.15 153.309,1269.05C149.764,1268.69 150.98,1266.1 153.643,1263.44C156.306,1260.77 160.086,1258.29 161.979,1258.31C177.801,1260.24 165.491,1253.11 168.174,1252.26C169.448,1247.51 160.942,1243.18 159.237,1239.79C157.332,1239.52 154.493,1238.72 152.706,1237.54C150.92,1236.36 150.182,1235.22 152.233,1233.21C154.958,1228.09 161.969,1223.28 166.424,1218.78C170.878,1214.28 172.739,1209.62 165.197,1205.76C165.001,1204.9 168.558,1202.26 170.853,1198.81C173.148,1195.37 174.163,1191.11 169.179,1188.74C170.44,1186.93 170.441,1181.74 170.312,1179.97C167.435,1178.49 162.905,1177.28 160.573,1176.18C158.242,1175.07 157.982,1174.35 163.186,1172.25C162.641,1168.82 166.067,1167.41 168.687,1166.05C171.307,1164.69 173.118,1162.88 169.183,1159.75C174.585,1156.58 173.466,1154.76 170.468,1153.65C167.47,1152.55 162.56,1152.15 160.149,1151.72C157.644,1147 152.094,1143.74 148.156,1141.73C142.887,1138.12 143.936,1134.29 146.474,1130.3C149.011,1126.31 153.161,1122.58 154.281,1120.14C157.184,1116.77 155.795,1112.11 155.359,1108.72C154.923,1105.32 155.181,1103.36 162.021,1104.31C170.46,1101.94 163.433,1096.46 167.247,1090.19C158.653,1085.49 159.99,1081.81 164.341,1078.74C168.691,1075.67 175.903,1073.31 179.096,1071.3C169.585,1071.19 169.996,1059.25 163.131,1057.72C160.196,1055 163.217,1055.23 167.277,1055.22C171.337,1055.22 176.573,1055.42 177.269,1054.16C179.071,1052.2 186.262,1053.87 188.065,1053.31C194.911,1052.58 198.755,1047.24 204.115,1046.29C208.027,1043.32 217.332,1043.62 217.314,1038C213.999,1032.72 198.472,1038.13 197.307,1031.94C194.166,1028.2 186.628,1026.81 182.126,1025.71C179.042,1023.3 171.503,1023.84 170.291,1020.88C168.483,1015.84 161.038,1010.1 167.219,1003.22C170.889,1000.72 170.858,997.204 169.396,994.511C167.934,991.819 164.973,989.446 163.149,988.724C160.707,986.697 161.693,984.534 163.497,982.225C165.301,979.915 167.943,978 169.168,977.265C166.973,975.718 172.374,970.362 168.148,968.723C164.686,965.877 159.611,962.039 156.021,958.048C152.431,954.058 150.423,950.387 153.245,947.196C159.357,933.863 147.934,921.355 146.299,910.906L145.314,911C145.512,909.659 145.276,907.327 145.234,905.375C145.192,903.422 145.136,902.144 146.107,902.295C153.162,889.621 158.38,876.746 172.033,874.312C180.628,874.05 179.71,871.625 176.174,869.9C172.638,868.174 166.48,866.525 165.027,866.688C158.868,864.861 159.809,864.11 162.391,862.893C164.973,861.677 169.433,860.476 170.263,859.17C178.786,847.081 159.647,839.379 172.152,831.274C151.66,822.717 185.614,811.412 170.142,805.721C176.985,800.437 170.593,790.588 175.212,784.231C189.923,780.134 182.034,776.718 177.226,768.783C182.354,767.599 185.558,765.906 186.09,763.833C186.621,761.76 184.295,759.213 179.041,757.689C176.381,757.762 172.052,755.863 169.599,753.862C167.146,751.86 166.545,750.38 172.018,750.313C174.907,750.011 178.713,748.888 181.321,747.3C183.929,745.712 185.596,743.194 184.275,740.849C182.097,735.802 169.678,739.619 170.312,733.03C169.917,727.927 165.295,724.666 162.088,723.699C158.328,722.653 154.029,720.32 151.162,719.731C149.654,712.884 160.466,710.653 166.022,709.313C169.067,709.611 173.037,707.92 175.548,705.909C178.059,703.898 179.259,700.989 177.168,699.735C172.736,696.599 163.439,697.006 161.28,692.858C162.746,688.909 157.547,680.723 163.159,679.27C165.597,674.504 164.842,666.582 158.14,663.719C160.744,662.121 163.4,660.725 164.256,658.967C165.112,657.21 164.13,655.075 160.102,653.703C139.381,646.538 165.326,640.15 158.196,628.755C156.759,628.755 153.029,629.281 153.14,629.281C153.095,628.363 153.193,626.589 153.292,625.433C153.391,624.277 153.276,623.764 153.926,624.305C160.815,622.408 162.06,618.162 160.526,614.222C158.993,610.282 154.879,606.056 152.123,603.711L151.314,604C151.314,601.263 151.314,596.278 151.314,595C149.667,593.225 148.034,588.654 145.997,588.686L145.314,589C145.929,583.08 144.184,573.322 146.269,570.161C146.473,564.521 151.464,562.204 154.092,560.3C149.413,560.717 148.31,558.118 148.568,555.474C148.827,552.83 150.545,550.09 152.19,549.25C158.01,537.195 151.195,524.533 153.31,511.049C153.63,510.001 155.381,510.385 157.076,510.332C158.771,510.279 160.322,509.517 159.221,507.778C152.582,506.295 146.243,499.241 147.307,494.063C148.284,485.757 152.388,479.304 154.281,473.14C159.038,472.052 161.137,466.613 163.249,464.191C164.946,458.752 159.5,454.066 155.491,450.039C151.482,446.012 148.834,442.715 156.173,438.262C163.027,432.982 161.528,424.502 170.184,421.254C170.172,418.44 166.367,417.175 163.154,416.526C159.94,415.878 157.398,415.763 159.263,413.17C159.137,411.505 159.102,409.207 159.342,407.537C159.582,405.867 159.78,404.964 160.945,405.309C164.131,405.485 165.115,402.98 164.754,400.611C164.393,398.242 162.875,395.418 162.134,394.717C160.389,394.717 156.218,394.686 156,394.686L156.314,393C154.146,385.098 146.988,376.349 148.308,369.061C150.146,366.37 155.207,363.745 158.96,360.762C162.712,357.78 165.047,354.137 161.199,350.757C166.521,347.075 167.571,343.516 166.099,340.479C164.627,337.442 160.604,334.907 156.171,333.737C155.606,325.559 167.459,321.34 161.245,314.804C160.331,300.759 161.922,293.084 172.17,283.263C177.194,282.008 176.927,275.635 174.476,269.2C172.026,262.765 167.457,255.798 164.236,252.794C165.546,241.753 164.117,226.94 169.243,220.198C162.959,214.197 165.097,196.046 163.254,193.816C164.066,188.539 168.567,186.38 171.901,184.025C175.235,181.669 177.334,179.048 173.185,174.747C174.655,174.291 178.525,170.725 179.787,167.128C181.049,163.53 179.529,159.84 171.011,160.687C164.498,159.565 165.197,158.23 167.974,156.552C170.752,154.874 175.617,153.479 178.021,153.313C184.543,152.91 186.943,149.793 186.246,147.158C185.55,144.522 181.716,141.741 176.981,141.687C170.827,142.497 169.607,139.663 169.745,136.005C169.883,132.348 171.663,128.348 172.266,127.166C170.552,126.001 165.879,124.677 162.552,123.538C159.226,122.398 157.098,121.569 160.117,119.291C163.61,119.159 166.399,116.349 166.824,114.093C167.249,111.838 165.279,109.544 160.085,110.698C152.841,102.035 171.18,94.9767 161.151,87.7251C155.209,85.8234 156.297,84.6203 158.808,82.7314C161.319,80.8425 165.415,78.5299 165.313,75.9872C165.924,74.1358 167.544,71.0261 168.458,68.0072C169.372,64.9884 169.459,61.8249 167.192,60.7518C166.141,56.6505 158.558,57.5492 158.313,53.9784C157.814,50.7303 160.137,50.4679 162.942,50.2316C165.746,49.9954 169.029,49.8548 169.31,48.0479C169.869,39.1812 154.01,28.3485 160.259,16.1765C148.154,10.0445 175.942,4.45397 158.041,-0.310925C146.713,-0.310925 134.068,-0.30652 123.933,-0.30652C109.372,6.71582 135.084,10.4805 120.788,19.769C120.68,20.8613 120.76,23.0423 120.752,24.62C120.745,26.1976 120.785,27.0989 119.923,26.696C123.097,32.6797 118.948,38.1307 115.724,43.8516C114.641,47.4699 118.128,48.6927 121.289,49.4225C124.45,50.1524 127.278,50.4059 125.715,53.8683C121.557,61.0582 104.197,63.6464 111.784,75.2271C115.522,76.022 119.063,80.2502 122.871,82.2861C126.387,83.4806 126.064,84.6731 124.442,86.227C122.82,87.7809 119.885,89.1319 117.855,89.7218C109.877,98.0423 127.961,98.3058 120.767,104.79C120.402,106.804 115.3,109.032 112.059,111.169C108.819,113.305 107.691,115.874 115.017,117.313C116.549,116.837 119.943,117.899 122.223,119.323C124.503,120.747 125.542,121.925 121.889,122.707C120.789,123.393 116.907,123.948 113.985,124.93C111.064,125.913 109.012,127.856 111.798,130.24C106.766,134.352 118.978,141.316 104.952,140.69C102.076,141.771 98.6771,144.408 97.6937,146.86C96.7104,149.311 98.1983,152.201 104.008,153.314C107.759,152.382 112.25,153.635 114.415,155.533C116.58,157.431 116.356,159.352 109.944,160.691C102.265,161.838 102.084,165.137 103.772,168.144C105.46,171.15 108.802,174.016 107.729,175.843C111.72,183.421 117.188,191 117.688,197.032C106.608,205.173 122.158,214.923 112.838,220.731C127.804,229.262 110.919,242.53 113.73,249.16C118.944,251.389 118.247,252.461 116.308,254.017C114.369,255.573 111.152,257.518 111.693,260.065C111.18,269.308 111.867,272.749 105.893,275.705C121.319,278.919 112.056,293.871 123.763,306.206C118.782,314.535 116.95,324.811 125.819,330.256C129.696,333.895 126.936,334.611 123.432,336.082C119.928,337.553 115.573,339.648 116.713,344.126C130.446,346.328 110.739,357.254 122.895,359.296C126.037,361.278 130.451,365.466 132.465,370.277C134.479,375.088 133.997,379.984 126.8,383.758C126.729,385.917 127.056,389.287 126.793,391.58C126.53,393.873 125.947,395.024 123.071,393.694L121.686,395C120.378,395.748 120.532,398.488 120.687,401.037C120.841,403.585 121.187,405.653 119.878,405.711C127.039,415.165 113.666,421.025 121.761,434.203C131.123,438.007 131.17,442.764 128.372,447.992C125.574,453.22 119.912,458.536 117.743,462.82C120.653,464.088 117.424,471.563 124.896,471.296C127.901,474.597 132.098,479.048 132.687,486.027C133.935,494.203 137.839,496.646 131.84,503.73C128.162,503.752 124.168,506.106 122.892,508.102C121.617,510.098 123.159,512.314 129.94,511.308C130.709,511.793 130.813,513.878 130.799,516.079C130.785,518.28 130.632,519.987 129.917,519.697C123.558,531.604 126.819,535.038 128.692,548.061C142.681,555.182 122.664,561.253 135.797,570.239C137.674,573.167 136.165,581.126 136.691,584.055C137.577,589.117 133.083,591.672 130.739,594.826C130.51,596.309 130.71,598.991 130.767,601.121C130.825,603.251 130.866,604.719 129.863,604.718C128.648,610.162 118.453,609.92 120.695,620.075C121.862,621.546 125.15,623.501 126.722,625.424C128.293,627.347 128.301,628.888 122.849,630.725C135.327,643.777 127.863,649.657 114.833,657.734C117.154,659.23 123.379,660.31 124.714,664.128C123.602,664.832 120.267,666.117 118.22,668.134C116.172,670.15 115.505,673.019 119.807,675.247C116.909,682.348 121.082,682.252 117.704,692.897C116.564,694.393 110.996,696.211 107.179,698.456C103.361,700.7 101.457,703.757 107.867,706.284C110.738,707.947 116.712,709.577 121.855,710.278C122.502,711.589 126.073,712.619 128.7,714.059C131.327,715.498 132.936,716.842 129.782,719.775C127.106,722.7 119.98,723.903 114.899,725.703C110.26,727.182 115.662,737.308 107.019,737.687C103.096,737.042 99.2256,739.192 97.9181,741.597C96.6107,744.001 97.8241,747.287 102.977,748.313C106.725,748.13 110.802,749.64 112.387,751.494C113.971,753.349 113.05,754.925 105.965,755.688C99.2995,756.488 97.0381,759.486 97.3369,762.489C97.6358,765.491 100.329,769.051 102.799,771.241C97.4084,775.129 95.5665,777.435 96.657,779.54C97.7475,781.645 101.844,783.594 107.873,786.287C111.991,788.085 112.155,789.872 110.904,792.037C109.654,794.203 106.897,796.237 104.781,797.776C104.334,801.534 115.939,800.985 110.749,807.812C119.792,820.526 106.854,827.935 113.897,837.296C116.915,836.046 118.326,837.009 118.629,838.29C118.931,839.572 118.227,840.561 116,839.686C106.402,843.466 112.953,851.512 109.72,857.859C110.351,859.343 114.372,860.666 117.51,861.737C120.649,862.809 123.015,863.506 120.831,865.736C118.086,866.246 111.268,868.134 107.664,870.204C104.059,872.274 103.86,875.104 114.022,876.313C120.225,874.644 120.57,881.657 124.817,883.255C125.459,888.566 131.517,891.184 134.744,895.181C135.567,902.334 136.158,909.696 134.698,917.915C127.275,919.936 130.385,934.819 125.741,940.822C125.511,942.597 127.842,944.949 129.556,946.992C131.27,949.035 132.49,950.663 129.865,952.717C123.698,953.559 125.596,965.139 116.904,964.701C112.168,969.278 112.207,977.918 117.784,983.227C124.116,989.267 108.292,993.133 113.774,1003.22C122.714,1004.28 122.185,1006.15 119.563,1009.04C116.941,1011.92 112.146,1015.66 112.693,1019.06C118.375,1022.65 114.554,1023.76 108.858,1025.23C103.162,1026.7 95.6077,1028.34 94.7089,1031.88C84.799,1034.51 70.4429,1034.6 62.8613,1040.72C73.2544,1042.18 78.6027,1051.64 89.9557,1053.31C94.1789,1053.89 102.396,1052.07 103.745,1054.18C106.321,1056.5 116.948,1053.91 120.806,1056.25C117.719,1060.87 113.478,1066.45 106.827,1068.74C108.005,1071.64 113.185,1074.38 116.864,1077.14C120.542,1079.91 122.721,1082.7 117.829,1087.74C116.336,1088.02 115.136,1090.62 114.729,1093.49C114.321,1096.35 114.607,1099.91 115.728,1102.16C117.189,1103.42 121.112,1104.01 124.123,1105.04C127.135,1106.08 129.222,1107.27 127.715,1110.87C121.319,1118.1 132.776,1123.92 134.707,1130.11C139.884,1133.99 138.53,1137.47 135.527,1140.66C132.523,1143.84 127.92,1146.41 126.757,1147.8C129.496,1151.56 126.42,1151.78 122.2,1151.76C117.981,1151.74 112.586,1151.51 111.727,1153.85C105.72,1155.66 108.882,1157.13 112.254,1158.31C115.627,1159.48 119.346,1160.25 114.862,1162.72C112.852,1163.52 114.538,1165.6 116.91,1167.43C119.283,1169.25 122.177,1171.18 122.698,1173.09C125.489,1178.96 109.739,1176.77 112.698,1187.09C112.013,1193.28 113.095,1198.42 112.69,1202.95C122.069,1204.06 119.471,1205.22 115.752,1207.38C112.032,1209.55 107.325,1213.02 112.825,1217.26C119.533,1220.71 133.983,1230.9 127.787,1239.77C123.123,1240.91 118.427,1246.06 116.914,1250.91C115.4,1255.75 117.334,1260.83 125.052,1261.31C126.877,1260.52 126.841,1261.48 126.8,1262.94C126.759,1264.4 126.648,1266.37 126.988,1266.31C134.744,1268.26 132.699,1268.86 128.14,1269.86C123.581,1270.86 116.332,1271.69 113.812,1272.75C113.812,1274.19 114.314,1278.11 114.314,1278C120.569,1279.66 119.929,1280.79 117.531,1282.21C115.134,1283.62 110.465,1285.07 107.799,1286.76C106.428,1289.21 115.527,1291.79 114.695,1297.93C128.674,1299.62 125.793,1301.72 119.52,1304.58C113.246,1307.43 103.585,1311.2 104.698,1315.09C104.206,1320.11 113.036,1319.26 115.858,1322.28C121.093,1322.07 123.047,1322.85 122.67,1324.1C122.293,1325.35 119.582,1326.52 114.856,1326.72C114.593,1328.48 109.784,1329.82 106.437,1331.3C103.09,1332.79 101.289,1335.01 106.94,1337.31C99.2472,1337.18 97.0013,1338.95 98.3967,1340.8C99.7921,1342.65 104.909,1344.58 111.02,1344.31C117.134,1343.8 119.97,1349.21 122.811,1353.25C117.733,1353.51 116.528,1355.51 117.495,1357.75C118.461,1360 121.683,1362.54 124.895,1363.3C128.028,1364.94 130.896,1366.77 131.394,1368.37C131.891,1369.98 129.998,1370.78 122.874,1370.71C121.821,1372.74 114.912,1371.13 113.859,1371.72C103.843,1376.03 105.289,1380.48 110.289,1384.23C115.289,1387.99 123.793,1391.58 127.808,1395.25C133.093,1398.06 129.44,1399.22 125.912,1401.72C122.384,1404.23 118.928,1408.02 124.754,1414.2C124.632,1418.25 125.398,1421.87 119.008,1422.69C115.279,1422.01 112.537,1424.43 112.132,1426.8C111.727,1429.17 113.508,1432.09 117.857,1432.28C118.386,1435 122.456,1437.28 124.274,1439.15C126.092,1441.01 125.717,1441.88 116.915,1442.7C114.815,1443.82 110.715,1446.59 108.902,1449.26C107.089,1451.92 107.495,1455.06 113.846,1456.27C114.251,1457.21 119.108,1457.68 122.386,1458.29C125.665,1458.91 127.497,1459.07 121.977,1460.69C115.44,1459.75 111.625,1464.73 107.785,1467.77C109.282,1470.24 110.647,1471.88 110.113,1472.92C109.579,1473.96 107.336,1474.31 100.976,1474.69C93.7059,1475.38 94.2433,1477.71 97.506,1479.15C100.769,1480.6 106.805,1481.78 110.024,1481.31C121.018,1481.21 119.323,1490.39 117.718,1493.86C118.726,1495.23 124.428,1498.88 127.737,1501.68C131.046,1504.47 132.295,1506.24 124.05,1505.69C120.176,1504.67 113.977,1506.09 110.334,1508.54C106.69,1510.98 105.351,1514.99 110.8,1518.24C114.146,1525.65 118.035,1527.33 129.841,1532.27C132.645,1535.03 131.091,1535.2 128.559,1535.64C126.028,1536.07 122.392,1536.37 121.713,1537.87C123.497,1544.11 130.709,1550.17 130.686,1557C120.111,1560.15 124.117,1564.27 129.589,1569.3C135.061,1574.34 142.07,1580.08 137.759,1587.8C139.838,1588.45 138.162,1596.52 138.7,1600.09Z" fill="#FEFEFE" />
			<path d="M143.695,1600.07C189.691,1600.07 236.145,1600.28 282.14,1600.28C282.14,1067 282.314,533.28 282.314,0C241.017,0 200.426,-0.311104 157.96,-0.311104C175.86,4.45379 147.706,10.1186 159.811,16.2507C153.562,28.4227 169.246,39.1135 168.687,47.9802C168.406,49.7871 165.693,49.3703 162.889,49.6065C160.084,49.8428 157.191,50.7993 157.69,54.0474C157.935,57.6182 165.654,57.0037 166.704,61.1051C168.971,62.1782 168.772,64.8066 167.858,67.8255C166.944,70.8443 165.312,74.0527 164.701,75.904C164.803,78.4467 160.942,80.3412 158.431,82.2301C155.92,84.119 154.925,86.3825 160.867,88.2841C170.896,95.5357 152.632,102.626 159.876,111.288C165.07,110.134 166.633,111.722 166.208,113.977C165.782,116.233 163.398,118.569 159.904,118.701C156.886,120.979 159.023,122.992 162.349,124.131C165.675,125.27 170.079,126.07 171.793,127.236C171.19,128.417 169.256,132.325 169.118,135.982C168.98,139.639 170.864,143.123 177.019,142.313C181.754,142.367 184.943,144.682 185.64,147.318C186.337,149.954 184.502,152.284 177.98,152.687C175.576,152.853 170.427,154.337 167.65,156.015C164.872,157.693 164.475,160.192 170.989,161.313C179.507,160.467 180.457,163.322 179.195,166.92C177.933,170.518 174.323,174.268 172.853,174.723C177.001,179.024 174.873,181.157 171.539,183.512C168.205,185.868 163.503,188.67 162.691,193.947C164.534,196.177 162.491,214.218 168.775,220.219C163.649,226.961 164.999,241.916 163.689,252.956C166.911,255.96 171.44,262.988 173.89,269.423C176.341,275.858 176.887,281.462 171.864,282.717C161.615,292.538 159.773,300.979 160.687,315.024C166.902,321.56 155.124,325.857 155.688,334.034C160.122,335.204 164.062,337.716 165.535,340.753C167.007,343.79 166.135,347.067 160.812,350.749C164.66,354.129 162.322,357.289 158.57,360.271C154.817,363.254 149.572,366.143 147.734,368.834C146.414,376.122 153.557,385.249 155.725,393.151C158.136,393.141 161.614,394.188 161.688,395.032C162.428,395.733 163.773,398.336 164.134,400.705C164.495,403.074 164.062,404.888 160.877,404.712C159.779,407.113 160.847,410.923 158.779,412.777C156.913,415.371 159.816,416.493 163.03,417.141C166.243,417.79 169.675,418.187 169.686,421.002C161.03,424.249 162.672,432.465 155.818,437.745C148.479,442.197 151.037,446.455 155.046,450.482C159.055,454.509 164.401,458.458 162.704,463.897C160.592,466.319 158.594,471.644 153.838,472.732C151.945,478.896 147.665,485.657 146.689,493.963C145.624,499.142 152.233,506.804 158.872,508.286C160.952,510.082 159.811,510.345 158.073,510.821C156.335,511.298 153.89,511.498 153.762,511.796L152.686,511C150.571,524.484 157.556,536.776 151.736,548.831C150.091,549.672 148.203,552.769 147.944,555.413C147.686,558.057 149.244,560.721 153.924,560.304C151.295,562.209 145.89,564.348 145.687,569.989C145.687,576.179 145.686,584.11 145.686,589C147.723,588.967 149.147,593.46 150.793,595.236C152.819,596.288 151.148,603.116 151.736,604.169C154.492,606.514 158.408,610.51 159.942,614.449C161.475,618.389 160.727,621.835 153.838,623.731C151.226,629.081 158.128,627.209 157.697,628.918C164.828,640.314 139.177,647.132 159.898,654.297C163.926,655.668 164.548,656.935 163.692,658.692C162.836,660.45 160.456,662.125 157.852,663.724C164.553,666.586 165.193,674.038 162.755,678.804C157.143,680.257 162.173,688.939 160.707,692.888C162.866,697.036 172.394,697.124 176.826,700.261C178.916,701.515 177.667,703.408 175.156,705.419C172.645,707.43 169.024,708.985 165.978,708.687C160.422,710.027 149.198,713.261 150.705,720.108C153.573,720.696 158.153,723.256 161.913,724.301C165.121,725.269 169.292,727.921 169.687,733.024C169.053,739.613 181.535,736.08 183.713,741.127C185.034,743.472 183.602,745.176 180.994,746.764C178.386,748.352 174.87,749.385 171.982,749.687C166.509,749.754 166.749,752.346 169.202,754.348C171.656,756.349 176.301,758.384 178.961,758.311C184.215,759.835 186.014,761.604 185.482,763.677C184.95,765.75 181.975,767.542 176.848,768.726C181.656,776.66 189.558,779.629 174.847,783.726C170.228,790.083 176.681,800.448 169.838,805.732C185.309,811.423 151.367,822.723 171.859,831.28C159.354,839.385 178.265,846.732 169.742,858.821C168.911,860.127 164.706,861.109 162.124,862.326C159.541,863.543 158.812,865.486 164.972,867.312C166.424,867.15 172.363,868.738 175.899,870.463C179.435,872.189 180.564,873.426 171.968,873.688C158.315,876.122 152.776,889.182 145.722,901.855C145.722,904.593 145.686,909.722 145.686,911C147.321,921.449 158.832,933.526 152.72,946.859C149.898,950.05 151.964,954.477 155.554,958.468C159.144,962.459 164.368,966.417 167.83,969.264C172.056,970.903 166.63,975.714 168.826,977.261C167.601,977.997 164.807,979.529 163.002,981.839C161.198,984.148 160.386,987.236 162.828,989.262C164.652,989.985 167.383,992.118 168.845,994.811C170.306,997.503 170.475,1000.25 166.805,1002.75C160.624,1009.63 167.897,1016.07 169.705,1021.11C170.918,1024.07 178.766,1023.86 181.851,1026.28C186.352,1027.37 193.606,1028.45 196.747,1032.19C197.912,1038.38 213.414,1032.87 216.728,1038.16C216.746,1043.78 207.774,1042.75 203.862,1045.72C198.502,1046.66 194.724,1051.99 187.878,1052.71C186.076,1054.68 178.638,1053.17 176.836,1053.73C176.14,1054.99 171.336,1054.59 167.276,1054.6C163.216,1054.6 159.901,1055.55 162.836,1058.27C169.701,1059.81 169.406,1071.19 178.918,1071.3C175.725,1073.31 168.329,1075.16 163.979,1078.23C159.628,1081.3 158.216,1085.55 166.81,1090.25C162.996,1096.52 170.417,1101.32 161.979,1103.69C155.139,1102.73 154.301,1105.4 154.737,1108.8C155.173,1112.19 156.657,1116.44 153.753,1119.81C152.634,1122.25 148.482,1125.97 145.944,1129.96C143.407,1133.95 142.566,1138.66 147.835,1142.27C151.773,1144.28 157.26,1147.49 159.765,1152.21C162.176,1152.64 167.254,1153.14 170.252,1154.24C173.249,1155.35 174.23,1156.57 168.828,1159.74C172.763,1162.87 171.018,1164.14 168.398,1165.5C165.779,1166.86 162.15,1168.64 162.694,1172.07C157.49,1174.17 157.973,1175.64 160.305,1176.75C162.636,1177.85 166.956,1178.78 169.833,1180.27C170.51,1180.86 170.883,1183.3 170.849,1185.63C170.815,1187.96 170.556,1189.61 169.015,1188.69C174,1191.06 172.626,1195.02 170.331,1198.46C168.035,1201.91 164.505,1205.24 164.701,1206.09C172.243,1209.96 170.432,1213.84 165.978,1218.34C161.523,1222.84 154.455,1227.72 151.73,1232.84C149.68,1234.85 150.574,1236.88 152.36,1238.06C154.147,1239.24 156.95,1240.01 158.855,1240.28C160.56,1243.66 168.984,1247.13 167.71,1251.88C165.027,1252.73 177.843,1259.61 162.021,1257.69C160.128,1257.67 155.862,1260.33 153.199,1263C150.536,1265.66 149.303,1268.92 152.849,1269.27C152.657,1271.37 155.529,1271.41 158.435,1271.38C161.342,1271.35 164.284,1271.26 164.849,1273.28C167.128,1271.24 167.911,1273.32 167.69,1276.15C167.468,1278.98 166.337,1281.96 163.946,1281.69C165.613,1282.56 168.971,1283.81 171.881,1284.79C174.791,1285.77 177.015,1286.68 176.707,1288.89C167.955,1286.44 170.917,1298.04 162.994,1297.69C156.476,1298.24 155.845,1300.16 157.637,1301.84C159.43,1303.51 163.575,1305.56 165.922,1307.3C175.389,1305.55 178.148,1313.12 184.907,1315.3C190.393,1316.93 187.508,1317.54 182.678,1318.49C177.848,1319.45 171.097,1320.14 168.932,1320.69C159.577,1322.42 158.827,1323.88 161.322,1325.01C163.816,1326.14 169.494,1327.53 172.872,1330.29C177.576,1330.58 180.247,1333.69 180.249,1336.94C180.252,1340.19 177.733,1342.98 171.02,1342.69C164.52,1342.14 162.165,1348.82 158.847,1352.73C160.751,1352.65 164.032,1354.51 165.607,1356.09C167.181,1357.66 167.131,1358.92 161.93,1359.69C153.503,1362.43 150.247,1366.51 151.826,1369.26C153.405,1372.02 159.768,1374.03 169.877,1373.29C175.081,1385.96 156.197,1390.81 150.816,1399.75C174.865,1397.09 139.763,1427.49 169.058,1425.31C170.99,1424.7 171.115,1426.23 170.878,1427.95C170.641,1429.66 170.155,1431 169.169,1429.74L166.686,1431C167.24,1432.75 167.1,1434.17 166.493,1435.15C165.886,1436.13 165.169,1436.36 164.043,1435.69C152.51,1438.97 156.362,1441.42 163.482,1443.27C170.602,1445.12 180.65,1446.78 181.702,1450.1C183.519,1453.22 175.306,1454.56 168.758,1456.15C162.211,1457.74 157.457,1459.75 166.831,1462.26C167.808,1466.89 176.485,1466.77 180.856,1469.28C178.361,1470.37 175.061,1471.4 174.09,1472.74C173.119,1474.09 174.482,1475.75 180.862,1476.28C182.531,1479.67 178.725,1479.5 174.353,1479.98C169.981,1480.47 164.868,1481.32 164.687,1484.98C165.335,1491.14 166.921,1495.78 153.882,1500.71C149.272,1502.76 149.731,1504.8 152.234,1505.76C154.738,1506.72 159.422,1507.21 163.016,1507.31C165.465,1506.99 168.788,1508.47 171.198,1510.58C173.609,1512.69 174.955,1514.84 172.865,1516.72C158.313,1517.33 173.719,1523.62 163.996,1526.69C161.641,1526 156.411,1527.98 153.351,1530.23C150.291,1532.49 149.332,1535.64 154.927,1536.3C160.245,1538.35 158.783,1541.36 156.061,1545.1C153.34,1548.83 149.127,1552.93 148.692,1555.94C150.101,1556.67 153.006,1558.01 155.033,1559.2C157.059,1560.39 158.298,1561.28 156.784,1562.77C147.093,1571.05 141.306,1580.5 143.695,1600.07Z" fill="#000007" />
			<path d="M154.705,1563.11L157.314,1563C158.828,1561.51 157.378,1559.85 155.351,1558.66C153.325,1557.47 150.418,1556.42 149.01,1555.69C144.833,1557.54 146.035,1558.8 148.48,1559.53C150.925,1560.26 154.308,1560.88 154.705,1563.11Z" fill="#78777F" />
			<path d="M163.71,1436.12C164.836,1436.79 166.419,1436.46 167.026,1435.48C167.633,1434.5 167.844,1432.63 167.29,1430.88C166.164,1430.21 164.581,1430.54 163.974,1431.52C163.367,1432.5 163.156,1434.37 163.71,1436.12Z" fill="#B4B4BE" />
			<path d="M169.314,1430C170.3,1431.26 171.263,1429.75 171.499,1428.03C171.736,1426.32 170.756,1424.14 168.824,1424.74C168.824,1426.18 169.314,1430.11 169.314,1430Z" fill="#252531" />
			<path d="M113.875,1371.71C114.928,1371.12 122.072,1373.31 123.125,1371.29C122.072,1371.88 114.928,1369.69 113.875,1371.71Z" fill="#494857" />
			<path d="M110.735,1278.17L114.314,1278C114.314,1276.56 113.686,1272.89 113.686,1273C112.56,1272.33 111.581,1272.54 110.974,1273.52C110.367,1274.5 110.181,1276.41 110.735,1278.17Z" fill="#C4C4CB" />
			<path d="M125.314,1266L126.686,1266C126.347,1266.06 127.386,1264.42 127.427,1262.96C127.468,1261.5 126.635,1259.96 124.81,1260.75C124.81,1262.19 125.314,1266.11 125.314,1266Z" fill="#2C2C3A" />
			<path d="M168.761,1188.8C170.302,1189.72 171.442,1187.97 171.477,1185.64C171.511,1183.31 170.608,1180.29 169.931,1179.69C170.06,1181.46 170.023,1186.98 168.761,1188.8Z" fill="#C3C3CD" />
			<path d="M90,1054C93.0942,1054 99.6625,1054.29 104.122,1054.29C102.773,1052.18 94.2448,1053.27 90.0216,1052.69L90,1054Z" fill="#CACAD3" />
			<path d="M176.903,1053.7C178.706,1053.14 186.294,1055.26 188.097,1053.3C186.294,1053.86 178.706,1051.74 176.903,1053.7Z" fill="#CFCFD4" />
			<path d="M144.699,910.911L146.314,911C146.314,909.722 146.314,904.737 146.314,902C145.343,901.849 144.564,903.436 144.607,905.388C144.649,907.341 144.898,909.57 144.699,910.911Z" fill="#686788" />
			<path d="M115.827,839.739C118.054,840.614 119.541,839.428 119.239,838.146C118.937,836.865 116.83,835.498 113.812,836.749C113.84,837.439 114.506,838.524 115.091,839.024C115.675,839.524 116.192,839.429 115.827,839.739Z" fill="#C6C5CB" />
			<path d="M152.688,629.031C154.124,629.031 158.248,628.718 158.137,628.718C158.568,627.009 151.66,629.505 154.272,624.155C153.623,623.615 152.766,624.224 152.667,625.38C152.568,626.535 152.643,628.113 152.688,629.031Z" fill="#7C7C87" />
			<path d="M129.7,604.908C130.703,604.909 131.452,603.234 131.395,601.104C131.337,598.974 131.071,596.575 131.3,595.092C130.297,595.091 129.548,596.766 129.605,598.896C129.663,601.026 129.929,603.425 129.7,604.908Z" fill="#525270" />
			<path d="M150.686,604L152.314,604C151.726,602.947 152.935,595.752 150.909,594.7C150.909,595.978 150.686,601.263 150.686,604Z" fill="#51516F" />
			<path d="M144.693,588.936L146.314,589C146.314,584.11 146.314,576.19 146.314,570C144.229,573.161 145.308,583.016 144.693,588.936Z" fill="#51516F" />
			<path d="M135.686,584L137.314,584C136.787,581.071 137.832,572.618 135.955,569.69C135.955,572.784 135.686,579.541 135.686,584Z" fill="#525271" />
			<path d="M129.686,520C130.401,520.289 131.413,518.284 131.426,516.083C131.44,513.882 130.686,511.182 129.917,510.698C129.917,511.976 129.686,517.263 129.686,520Z" fill="#6C6C88" />
			<path d="M154.314,512C154.441,511.703 156.501,511.903 158.239,511.426C159.977,510.95 161.041,509.485 158.961,507.689C160.061,509.429 158.751,509.652 157.056,509.705C155.361,509.758 153.053,509.788 152.732,510.836L154.314,512Z" fill="#6F6F78" />
			<path d="M158.715,413.131C160.783,411.276 160.159,407.581 161.257,405.179C160.092,404.835 158.961,405.778 158.721,407.448C158.481,409.118 158.589,411.465 158.715,413.131Z" fill="#888790" />
			<path d="M119.715,405.869C121.023,405.812 121.467,403.547 121.313,400.999C121.159,398.45 120.818,396.035 122.127,395.287C120.229,394.755 119.473,396.383 119.54,398.844C119.606,401.305 120.084,404.182 119.715,405.869Z" fill="#535361" />
			<path d="M156,395C156.218,395 160.394,395.281 162.14,395.281C162.066,394.437 158.41,392.676 155.999,392.686L156,395Z" fill="#C7C6CF" />
			<path d="M122.968,393.688C125.844,395.018 127.153,393.945 127.416,391.652C127.679,389.359 127.242,386.181 127.313,384.023C125.915,384.172 125.721,386.974 125.786,389.596C125.852,392.217 125.832,394.323 122.968,393.688Z" fill="#8A8A92" />
			<path d="M119.689,26.9571C120.551,27.36 121.372,26.2006 121.38,24.623C121.387,23.0453 121.203,21.1353 121.311,20.0429C120.449,19.64 119.628,20.7994 119.62,22.377C119.613,23.9547 119.797,25.8647 119.689,26.9571Z" fill="#4B4B57" />
		</mask>
	</defs>
	<g>
		<image mask="url(#wave2)" x="0" y="0" width="282" height="1600" href="texture2.jpg">
		</image>
	</g>
</svg>
