<svg xmlns="http://www.w3.org/2000/svg" viewBox="0 0 262.68 1374.68" class="waveform" id="right">
  <g id="Layer_2" data-name="Layer 2">
    <g id="Layer_1-2" data-name="Layer 1">
      <path fill="white" d="M132.17,0c2.42,7.12,6.29,9.77,10.63,11.59l-2.44,2.91,4.86.81v.47l-4.16.34v.75l3.11.36-1.67,1c3.08,3.15,7.53,0,9.46,8l-3.51,2.59,3.86.4v.66h-6.84l0,1.28,13.39,2.78,0,1.49-5.15.77v.72l16.24,1.52,0,.79-10.28,1-.06.57L165,42.48l.07,1.09-17.57,1.85v.45h4.71l.06,1.39-11.15,2.18,1.19,1-5.59,5.72c2.46,8.29,6.91,4.86,9.83,8.46l-1.88,1.06h8.49l.08.75-2.78,1.66,6.89,2.16-.11,1.66h-9.64v.78l8.61.84-.1.67-6.37,3.26c4.36.57,8,1,11.69,1.61.4.06.7,1.36,1.12,1.81.77.81,1.57,1.91,2.4,2a100.49,100.49,0,0,1,12,1.93h-6.89v.92l4.24.42v.71H162.41v1h11.4v1.46l-22.76,2.15v.27h6.79l0,.72-7.47,2.87v.48h5.83l0,1.46h-8.23v1.57H161l0,.68-1.28.72,0,.66H171l0,1-10.21,1.41v.5h21.62v1H171.26v1h7.35v1H160.79v1H189c0,.63,0,1.26,0,1.89-4.6.43-9.22,0-13.82.26a132.08,132.08,0,0,0-13.87,1.75l12.42,1.19v.56l-19,2.58,0,.81,21,1.53v.5H162.52l0,.69c.24.16.47.44.71.46,8,.69,15.92,1.35,23.88,2a1.22,1.22,0,0,1,1,.67l-19.57,1.5v.56h11.81l.07,1.33-12.28,2.68,0,.38h7l0,2H158.52c0,.81,0,1.61,0,2.42h12.07l0,1-21.91,2.66v1.13h30.6l0,2.17c-7.24.9-14.53,0-21.78.5v1.22H182.4l0,2.12c-2.52.18-5,.44-7.57.53-2.84.09-5.67,0-8.51,0h-8.18l0,1.44h19.44l0,1.09-14.14,2.88v.57h7v1.47H158.16l.05,2h28.53v1.55H160.81v.93h8.43l0,.8-3.06.54,0,.79h22.89v.95h-14.5v1l11.7,1.52-11.26,2.85-.07.56h3.16l0,.49-16.86,2.22-.11.84,2.52,2-7.34,1.92,2.07,1v.52H151v1h26v1h-8v1.07h5.87v1.06H159.62v.94h22.84v.82l-3.65.35v.82h10.23v1H164.55l0,1,19.91,4c-2.76,0-5.73.41-8.66-.09-5.26-.91-10.2,1.84-15.24,3.54a30.73,30.73,0,0,1-4.83.85v1.26h21.34v1.49H164.56v.82l4.77.44v.66H159.23l0,1h10.73v1.11h-9.2v1H187v.91H180l-.05.91,1.52.46-.11.8H168.05v1.43h14.58c0,.69,0,1.39,0,2.08H158.5v1.42h16.35v.87h-9.68l0,1h6.43v1.06h-24v.91h11.84l0,.84-4.61.48,0,.73h10.6v.87H149.13l-.11,1.18,5.56,2.69-4.42.49,0,.67,6.62,1.59,0,.45-7.05,1.48,0,.48,7.47,1.61,0,.57-11.91,2.53v.3h5.28l.06.8L145,232.56c.08.83.2,2.19.36,3.9-1.72.13-3.43.66-2.48,5.33l2.71.41-3.34,2.47,2.23,1.59-2.64.82.06.61,2.43.35c-1.33,4-.19,5.09,1.82,5-.61,4-.3,4.24,4.77,4.19l-4.63,3,2.58.92.1.83-3.32,1.17-.12,1.09,4,.89-1.94,3.59,4.29,1.56-3.59,3.48h5.13l.29.74-1,1,1.84,1-3.28.6,0,.77h8.11v.76H150.9l-.08.95a31.84,31.84,0,0,0,5.53,2.23c1.94.38,3.92.08,5.88.54l-7.73,1.58-.06,1.23,7.26,1.66,0,.75-3.57,1.69-.1.9,9.15,1.86v.72H157l0,.93h10.2v1l-3.12.26,0,.87h6.47v1h-8.13v1.48h28.44v1.42h-16.6l-.1,1.28a10.6,10.6,0,0,0,2.86.89c7.84.07,15.67,0,23.51,0v2.32H180v1.43l18.48,1.52v.95H179.86c0,.74-.05,1.47-.07,2.2l8.8.81,0,.73-14,2-.12.8,3.33,1.83.13,1-5.17,1.91v.49h4.76v.94h-7.52v1h10.3l0,1.53h-8.14v1.34h10.31l0,1-5.6,1.52-.11.66,2.85,1.44v.41H159.22v.82l20.43,1.64.1,1.33-9.13,1.8,0,1.13,20.75,2v.69H169.63l0,1.52c7.53,2.69,15.2.28,22.78,2.05H180.55v1H188v1H173v1.1h17.76v.94h-15l0,1h7.38l0,1.09h-5.92v1h5.31v1h-6.38v.94h8v1H168v1.61h25.65l0,1.5-8.59,1.35v1.05h18.41v1l-24.55,3v.61h21.75l0,.85-2.55.29v.82h13v.65L192,366.81v1.35h25.08v1.29c-10.87,2.55-21.82.44-33.24,1.51.73.5.95.79,1.18.8q18,1,36,2a59.71,59.71,0,0,1,6.53.38c-16.79,1.25-33.64-1.1-50.38,3.61H232v.32q-22.58.89-45.13,1.82c-.22,0-.44.49-1.35,1.57h43v1.14H182.1v.65l28.46,3v.34H186.51l0,.91,9.12,2.55.06.43-3.65.37v.57l8.7,1.6,0,.72h-13v.86h16.1v1H186.7v1.6h28.22v1.41h-20.2l0,1.74,20.79.75,0,1.48H196.53v1h14l0,1-3.07.32v.88h5.83v.83H209l0,.75,2.08.78,0,.72H202l-.06,1.46,3.47,1-12,1.63-.07,1.72c2.7.06,5.4.16,8.11.19,2.93,0,5.85,0,8.78,0h8.48V416H185v1.48h19l0,.9-3.66.46,0,.73H234.5v1H191v1.33l49.65,2.44v.42H209.16l0,1.95H228.6l0,1.78H206.5v1h25.41v1H194.26v1h30.47v1H213.51l0,1,5.4,1.71,0,.44H212.9v.88h6.31v1H209.14v1h10.09v1h-13l0,1.39,13.19,1.25-11.89,1.66v.66l22.29,1.57v1H187.18v2h40.37v2H186.15v1.44L222.65,454v.54h-7.48v1h9v.95H190.66v1h29.16v1h-26v1.06h36.59v1H194.2l0,1.53c5.34.54,10.68,1.29,16,1.56s10.78.06,16.18.92H193.29c1.08,4,2.63,4.12,4.18,4.12,5.31,0,10.62,0,15.93,0h2.69v.86H190.44v1h14.64v1.09H195.9v.95h13.61v1h-5.35v.88l4.23.38v.69H196.51v.92l11.65,1.62.06.92H190.66l-.06,1.9a14.39,14.39,0,0,0,2.39.76,4.12,4.12,0,0,1,2.67.84h-5.92l-.06,1.32,6.58,1.17-12,2.75,0,1.27H206.6l0,1.25-3,.57v.54L214.92,493v.71h-4.79v.83H216l.07.71-1.63.82.06.7h25.13v.88H214.14v1h12.79v1H209.18v1.05h43.15V501l-34.46,2v2h15.73l0,2.15L203.25,509v.54H228v2H201V514h26.44v1.37L199.67,518v.47h14.69l0,.62L208.89,521l2.26,1.11-.05.63h-4.58v.87h13.38v.84c-6,.72-12,1.45-17.94,2.12a29.91,29.91,0,0,1-3.28,0l-.07,1.57,16.62,2.11L202,531.81,202,533l18.32,1.69v.71H201l0,.78c.26.14.53.39.8.41l32.21,2a2.74,2.74,0,0,1,.71.25v1.43l-22.66.41V543h31.41v2H207.07v1.59h24.83L232,548a23.45,23.45,0,0,1-2.94.57c-8.07.63-16.14,1.21-24.21,2.87h15.53l0,1h-6.69l0,1h6.14v1H199.36v1h11.7l0,.87-2.57.56v.66H212l0,.95h-7.29v1.43h21.72l.08,2.22c-2.35.48-4.71,1.33-7.07,1.39-7.82.17-15.63.06-23.45.06v2.17a82.43,82.43,0,0,1,9.3.07,41.51,41.51,0,0,1,10.77,2.85H197.55v1h16.32v1H184.38c7.94,1.32,15.92.93,23.88,1.33l0,2.29H182.17v1.56h22.35v1.46l-27.24,1.65v1.1h26v1.71l-29.27,1.78c11.65,1.33,23.29,1.09,34.94,1.35l0,2.31H174.07v1.4h32v1.31L175.4,592l29.21,2.17c0,.62,0,1.23,0,1.84H169.08v1.34l35.38,1.51v.57H171.56l-.08,1.43,11,2V604H162.93v1.44h8.55l.05,1.59-7.74.77,8,2.54-.09,1-3.49.33,2.49,1.88h-7.21l0,.71,2.76.6,0,.7h-5.37v.8H172l0,1H166.7l-.11,1.45,9.26,3.65h-6.3l-.07,1,11,3.91H166.27v.69l17.84,2.56v.72H170.85l0,.89,18.35,3.12-.06,1.14H175v.88l26.77,1.52,0,.59-17.73,3.94c.5.05,1.25.07,2,.21a67.33,67.33,0,0,1,11.15,2.84h-22.3v.74l16.93,3,.07.77-4.64.7,1.62,1.84h-5v.88h13.43v1h-9v1h4.12v1H169.58V658L187,660.7v1.38H165.63v1.22l14.12,1.51v1.08H161.35v1.39L178,668.94v1.74H162.11l0,1.51,12.69,1.62v.52H160.23l0,1h3.14l0,1.09h-4.69v.93h8.48v.93h-8.44l0,1.07h6.94v1h-9.75v.9l4.17.44-3.59,2.43,3.81.65L156.78,686l3.31.84,0,.56h-5.29l0,1h9.56v.73l-1,.69L173,693l-2,.91.06.6L183.15,696l0,.27-4.74.46,0,.78h6.77v.9H172.42v1h20v1h-5.3v1h10.71v.93H176.76v.89h17.87l-1.5,1.86,2.35,1.23,0,.87-2.92.49,0,.88h7.53v.35l-7,1.66.06,1.74L198,714l0,.56H179.43v.81h10.23l.08.81-.79.43-.07.77,6.88,1.67v.44H180.47v.35l8,3v.53h-6.77v1.54h23.38v1.57H193.27l0,.4,24.86,5.92v.55H203.63v1H217.2V735l-10,1.57-.06,1.47c2.4.15,4.79.36,7.19.43,2.56.07,5.12,0,7.72,1.17H206.46L206.4,742l17.85,2v.24H208.58l0,1h4l0,1.11h-6.12v1h14.37l0,1.23h-18l0,1.57,5.64.6v.66h-9.71v.94h19.5v.9H199.24l0,1.1,3.07.28v.82H187.09v.88h15.69v1.06H186.55v.73l9.66,1.57v.73H184.9v.94h16.23v1h-4.68v1H222v.94l-21.54,1.67.05,1.49h50.17v.54l-53.18,2.21c0,.61,0,1.23,0,1.84H252.4v1.88H188.83v2h46.93v2.58H194.69c0,.65,0,1.3,0,2h12.77L205.39,782l2.05.81-17.36,3.73v.7h27v1H194.9v1h10.66v1.08h-8.64v1H216v.93h-10.2v.95h7.41v1h-8.43l0,.88,3.07.56,0,.65h-7.46v.9h11.86l0,.84-1.63.57,0,.64,4.37.35v.9l-13.51,2.49v.85h21.72v1.29H200.84l-.09.86,2.48.81-2.37.84.06.65h25.36l0,.83c-.69.05-1.38.16-2.06.17-8.06,0-16.12-.36-24.17.11-5.24.31-10.47,1.81-15.73,3.31h41.92v2H188.14v2.11h28.45v1.94h-30v2h17.92v1l-28.26,2.76v1.17h32.08l0,1.26-16.85,1.59v1.51h12l0,1.95h-7v1.8h35v2h-21.2v1.9h36.42v1.55H223.85v.52l27.93,2.93v.58h-8.61v.7l6.45,1.17,0,.95-5.91.5v1.47h6.46v1.21l-43.65,1.84-.1,1.53,14.09,4.44,0,.72H202.69v1.61c.91,0,1.82-.07,2.73,0l29.19,2.76h-37v1h13.35v1.07H192.06v1h46.51v.95H199.22v1H205v1H190v1h53.45v1.53H196.59v1.41l28.24,1.58,0,.52-7,1.47v.4l6.93.64-.05,1.25-4.18.55,0,1.25h33.29v1.44H235v1.05h6.93v.91H229.14v1h33.54v1H240.55l0,.92h7.3v1.07h-35v1H245.1v.93H233.87v.94H239l.05,1.57L212,895v.23h16.67l0,1.24c-7.19,4.36-14.9-.41-22,3.26,4.51.88,9.11,2.39,13.71,2.56,10.41.39,20.82.12,31.23,1H202.48v1.41h19.67v2H203.56v1.6h10.76v1h-15v1h26.08v1.48H185.54v2h37.13v1.53H208v1h15.72v1H209v1h9.76v1H206.32v1h28.43v1.44H208.94l-.06,2,15.24,1.75v.82H198.67v.46l21.12,2.71v.31l-29.86,2.86,0,.45,19.48,1.54v.49H189.91l0,1.09,11.9,3,0,.65H182.65v1.45h6.48v1H183.4v1h7.74l0,.72-6.86,1,0,1.36h8v1.4h-24.9c0,.64,0,1.28,0,1.93h34.72l0,1.44-10.73,1.59v.75L218.19,956v.31H193.08v.92h22.36l0,1-15.2,1.44v.54h22.82l0,1.44H208.85l-.12,2.06,5.16,1.1v1H194.38v1.38h25.39v1H190v1.08h8.48v1h-6.44v.93H213.2v1H185.67l2.12,2h-6.52v1h14.9v1.12c-4.57,0-9.16-.28-13.72.1a35.87,35.87,0,0,0-9.61,2.62l8.07,1.6v.6h-7.42l0,.88,3.44.51-2.09,1.55,8.87,1.67v.31l-4.25.34v.71H188l0,.75-2.57.68v.66h5.78v.9H185c7.33,2.74,14.93-1.22,22.63,3.81l-15,1.57v1.16h48v1.56c-8.21,0-16.42-.13-24.63,0s-16.37.66-24.55,1v1.46h51.38v1.5h-47v.95h8.61l0,1h-5.92v1h41.05v1h-3c-8.79,0-17.58-.34-26.37.09-9.89.48-19.78,1.66-29.68,2.81H222l.08,1.23a12.35,12.35,0,0,1-2.94.79c-6.87.07-13.73,0-20.6,0H182.23V1013h32.22l.06,1.12a12.51,12.51,0,0,1-3.26,1c-4.66.11-9.33,0-14,.06H169.11c0,.83,0,1.66,0,2.49h37.66v2.05h-30v1.53h32.09v.55l-8.56,1.4v1.47h26.16v1.53c-5.25,0-10.51-.39-15.75.11a71.82,71.82,0,0,0-16.95,3.92h33.35v1.25H195.42l0,1.57,20.18,2.44,0,1.68h-9.11l0,1c3.62.38,7.23.91,10.85,1.1s7.29,0,10.94.69l-20.09,1.5,0,.63H218.3v1h-17.4v.95h23.83v.44l-28.83,2.58v1.06H216v1H192.09l0,.71,17.28,1.48,0,1.82H198.12v1.12h5.62l0,1.53H191.5V1057h8c.07.47.13.94.19,1.41-1.68.9-3.33,2.2-5.05,2.6-2,.45-4,.1-6,.91l3.17.56-1.89,1.5,5.44.48-25.25,2.82v.79l25.06,1.53v.37h-24l0,1.41c8.46,3.57,17.16,1,25.72,3.21H171.79v1.94h24.45v1.6a20,20,0,0,0-2.79,0,90.53,90.53,0,0,0-15,3h15v1.39H174.11v2.08H193l0,.92-17.78,2.12,0,1.4h24.12v1H180.67l0,.78,1.24.74,0,.58h-8.37v.86h34.23v.81l-26.05,1.51v.63l19.46,2.76v.39H175v.64l27.17,2.54v1.24H180.53v2H203.3c0,.65,0,1.31,0,2H158.68l0,1.47c.74.08,1.47.17,2.21.22,9.91.73,19.81,1.46,29.73,2.88H180.3c-3,0-6.05-.12-9.06.09-.62,0-1.21,1.29-1.51,3h6.56l0,.66-13.52,2.81,0,1.25,3.39.47c-2.45,2.34-5.58-1.91-7.82,3.56l3.3.38v.5l-7.54,1.61,0,.42,2.21.57,0,.63-7.43,2.61,4.24,2.19-.17.81-5,1.49v.76l2.78.38c-1.63,5-4.46,1.55-6.7,3.17l2.67,2-1.28,1.06,5,3-1.25,1.37,11.87,3-4.78.39,0,.76,11.25,3H155.88l0,.84,11.29,1.59,0,1-7.62,1v.36l12.24,2.41c-2.64,2.48-5.73-1.79-7.66,4h5.12v.24l-12.49,2.82,0,.75,3.75.3,0,.38-6.22,1.85,3.11,1.2-4.07.6c5.17,4.76,10.18,1.84,14.87,3.67H153.79l0,1.23,15,1.33v.44H158.6l0,1.06H171v1.1H156.32v1H186.4v1H159.72v.86h9.52l.05.7-2.33.68v1.12h19.84v1.55H168v.91l4.77.42v.8H155.89v.85h15l0,.78-4.17.52v.42l4.11,1.11,0,1.09H159.11v.66l10.1,3,0,.36H154.73v1H161v1H149.31l0,1h8.59v.88l-3.69.41,0,.74h8.08l0,.47-14.05,3.31,0,1.25h11.13v1.53H149l0,1.12,3.85,1.66,0,.59-7.22,1.78,6,1.81-8.72,5.77,11.15,6.22v1.09l-7.72.74v.42l6.6,1.3,0,.57-5.32,1.77,1.44,1.91-4.63,2.6v1.22l2.58,1.48-3.57,1.68c-.11.45-.23.89-.34,1.34l3.49,3.36c-1.44,1.81-4.77-3.24-5.48,3.76l-3.89,1-.08,1.33,4.77,2.8-2.78,2.58a6.61,6.61,0,0,1,.42,1.61c-1.58,3.26-3.22,6.41-5.29,10.45l6.37,2.6-3.78,1.94c4.78,5.79,10.25,5.4,15.55,6.8l-13,1.56-.06,1,15.36,3,0-.77a70.09,70.09,0,0,0-8.2.07,66.87,66.87,0,0,0-7.85,1.81l0,1.6,4.23,1.55v.37h-4.46l6.94,6-9.79,6.31.21,1.58h17.6l.11,1.05-7.81,4.9,1.67.78-2.15.73,0,.62,3.84.34,0,.62-7,1.5,16.41,5.75v.79h-9.39v1l2.81.27.06.88-10,3.56.1,1.22,5.85,1.6v.34h-5.61c-.11.51-.22,1-.32,1.52,1.16.92,2.31,2.55,3.5,2.65,10.1.86,20.19,1.43,30.29,2.11.25,0,.5.2.75,1l-30.87,1.6,5,4.48c-3.08,3.38-6.24,6.81-10.63,5.51.61,1.93,1,3,1.22,3.82-1.34,1-2.73,2.9-4.2,3.15-4.42.75-4.76,6.21-4.77,12.34,0,.49-.05,1-.09,1.48,0,.14-.11.25,0,.1-.6-4.07-.57-9.42-2-12.27s-4.42-3.33-6.71-4.84c.22-.88.5-1.94.81-3.16l-6.8-1.67c.24-1.1.46-2.14.68-3.15l-7.4-2.26.06-.83,7.41-1.88-.06-1.9H90.7v-1l30.72-2.11c-.81-1.26-1-1.62-1.38-2.13l2.57-1.05-3.2-3,2.1-1.13-8.45-3.89,0-.71,2.61-1,0-1.29h-9.8l.1-.41,16.46-5.49-6.86-1.78,4.71-3.08-9.41-2.59v-.65l2.68-.51,0-.64-3.71-.43v-.6h18.87l.27-1.52-9.15-6.43,1.74-.43-2.17-1.93,7.41-3.76H121.9l0-.55,3.73-1.63c-4.15-5.83-8.92-2.32-12.86-3.42,1.86,0,4.24.43,6.54-.13,1.91-.46,3.73-2.07,5.39-3.06l-11.19-1.62c4.9-2,10-.81,14.7-6l-4.24-2c1.76-1,3.47-1.87,6-3.28-1.3-2.6-2.18-4.63-3.21-6.37s-2.16-3.1-3.35-4.77l3.31-.29-3.69-2.7,4.2-2.87a18.27,18.27,0,0,0-2.28-2.3,14.31,14.31,0,0,0-2.9-1l1.85-1.44,0-1.23-5.36-.55,0-.38,3.14-.63-3.71-2.49,3.65-.38-2.17-3.09,2.18-1.63-4.54-.37,1.69-1,0-.53h-4.55l0-.72,3.45-1.37-.1-.79-5.74-1.22,0-.87,5.5-1.65,0-.65h-9.72l0-.76,3.63-.31,0-.61-1-.43,10.64-4.24c-.07-.37-.13-.73-.19-1.09l-6.53-2.23,0-.88,2.07-.85-5-1.61,0-.6,7.61-1.6,0-.66-10.15-1.64,7.9-1.69,0-.55-7.84-1.61,8.43-2.77,0-.54L106.07,1206v-.74h7.53v-1h-4.79l0-.89,3.54-.33v-.81H101v-1h9.78v-.89h-4.74l0-.94,3.66-.35,0-.79h-9.11l0-.94h6.23v-.69l-13.71-3.12,15.38-1.61V1191A94.94,94.94,0,0,1,98,1191a117.77,117.77,0,0,1-14.65-2.73h15.3l.16-1.17-3.62-2h4.49v-.92H81.22v-1.07H108v-.9H98.19l0-.79,2.77-.47v-.86H95.64v-.95H107.2l.06-1.75-5.59-.5v-.77h10.78l.06-1.51-5.3-.81-.22-1.23,3.9-2.47h-6v-.88h7v-.85h-5.24l-.07-.73,1.46-.76,0-.62H98.78v-1.07h7v-1h-4.74v-.82l4.72-.4v-.67l-20.55-2v.62l22.62-1.61v-.83l-13-1.19,0-.74,12.48-1.45.06-.46-4.37-1.54,0-1.22,6-1,.06-.49-.94-.35,9-5.26-.51-.75,3-3.58-.09-1.29-4.2-1.64,3.77-2.21-5.74-1.56c.45-.68,1.12-1.69,2-3-2.4-1.32-5,.44-5.94-4.81-.12-.65-1.45-.69-2.23-.78a7.57,7.57,0,0,1-3.45-.72l3.07-.38-1.67-1.39,1.35-.83-.07-.61H100l0-.69,1.61-.58v-.58l-2.26-.41,0-.43,2.12-.54,0-.45L91.56,1116l0-.68,4.58-1.73,0-1H76.47l0-.9c2.92-.81,5.83-2,8.77-2.36a75.15,75.15,0,0,1,9.61-.11h9.26v-1.53H59.82v-1.21l19-1.54c-9-3.33-18.15-1-27.21-2.52.61-.08,1.23-.19,1.85-.22,7.3-.33,14.59-.58,21.88-1s14.73-1,22.1-2h-48v-.53l33.13-1.88c0-.73,0-1.47,0-2.21H49.34v-1.4H86.62l-2.2-2h4.74v-1H59.79c8.73-2.13,17.64,1,26.25-4.18H68.55v-.67l19.16-1.53v-.39L78.57,1082v-.36l9.58-1,0-1.37-16.69-1.43v-.24L95.36,1076v-1.2H74.13v-1.13L96,1072.1v-1.33H79.62v-2.08H96.32l0-.79-28.15-3.72v-.71h8.94l0-1.89-22.69-2v-.23H79.24v-1H66.93l0-.8,3.24-.61,0-.77H47.25c0-.45,0-.9,0-1.35H68.91l0-1.72a19,19,0,0,1-2.61,0c-5.84-.8-11.69-1.64-17.54-2.85H73.39v-.83H56.62l-.08-.72,1.88-.89c0-.38,0-.77,0-1.15H39.46c0-.61,0-1.23,0-1.84H60.11c0-.51,0-1,0-1.52-6.71-.68-13.49.54-20.18-.75l0-1.4H55.79v-.82H48.35l0-.85,3-.45,0-.84H44.59v-.85H63.48c0-.5,0-1,0-1.52H45.57c0-.45,0-.89,0-1.34L72.91,1033v-.9h-60v-.27l56-2,0-.49H63l0-1.46H71.2v-1.46H37.41c9.49-1.18,19-1,28.51-1.21v-2.44H50.55v-1.44H83.84v-.77L59.75,1019v-1.24h34c0-.64,0-1.28,0-1.92H47.3v-2H87.16c0-.67,0-1.34,0-2H27v-2H78.72v-1.68H76.22c-8,0-16,1.53-23.87-.33-14.87-3.52-29.74,0-44.57-2.57,8.55,0,17.1.23,25.65-.06s17.22,1.35,25.76-1.06v-1.46H9.36v-1.81h60.5v-1.47L30.26,998v-.41l43-1.53v-.54H62.13c0-.4,0-.8,0-1.2l6.24-1.35v-.54H55.52v-1H80v-1H67.55v-.91h15.1l0-1.05H76.82v-.94H88l.07-.71-1.91-1,0-1h8.53l-4.07-3.88.27-1.47,2.81-.23v-1l-19-2.35v-1.14H86.53v-1.94H60.62l0-1.31c5.6-.63,11.27.54,16.84-.58l-.05-2.24H53.25v-1.37H74.56l.08-1.35L61.3,963.78v-1l1.21-.72,0-.6H52.1v-1H68.42v-.89H59.38c0-.36-.07-.72-.11-1.08L62.15,957l0-.49H53.81v-1.1l32.72-2.58,0-.91H54.33c0-.67,0-1.35,0-2H99.07c0-.65,0-1.3,0-1.94H65.38v-2h22.9l0-2.07-24-2.19V941H88.75v-1.74c-3.91,0-7.82.22-11.72-.06s-7.91-1.08-12.37-1.72l3.13-2.89H57.72v-1.12H75.64v-1h-18v-.93H70.52v-1.08H47.7l0-.33,10.68-2.71,0-.81L34.76,925l24.44-1.91,0-1.78H25.22v-.9H61.33v-1H55v-.79l4.73-.47v-.84H29v-.91H47.89c2.2,0,4.74,1.29,6.53-.26,4.74-4.11,9.87.77,14.32-3.58H44.63V911H62.45c0-.71,0-1.41,0-2.12H43.29v-1.31h6.41l-2.22-2.25,1.84-2.09H41.38v-.38l25.26-2.39,0-.79a3.83,3.83,0,0,0-1.1-.36q-19.95-1-39.91-2c-.34,0-.67-.17-1-1.29H52c0-.7,0-1.4,0-2.1-9.58-1.4-19.23-.17-28.84-1.28l17.22-1.91,0-1.32H31.8v-.93H53v-.62l-25-2.74v-.65H50.78v-1.05H35.05v-1H51.89v-1H40.6v-.86H46l.09-.82L44.2,879l1.32-1.15-.91-1,5.9-1.82-2.21-1v-.52H62.82v-.75l-23.34-2.35c0-.5,0-1,0-1.49H73.36v-2H20.89c0-.3,0-.6,0-.9l39.18-2v-1.62H13.77v-1H58.59v-1H50.17v-.88h12.2v-1.08L30.77,857v-.52h32c0-.49,0-1,0-1.46H42.88v-1.23l21.67-1.56v-.53c-2.83-.44-5.66-1.23-8.49-1.28-9.53-.16-19-.06-28.57-.06H2.11v-1.86H35.48l0-1.4L0,845v-.57H19.6l0-.86-2.54-.48,0-1.27,23.35-2v-.5H9.46c0-.32,0-.64,0-1h4.69c8,0,15.94.38,23.89-.12,6.14-.37,12.25-1.84,19-2.92H25.79v-1.31h37.9l.05-1.47c-3.22-3.94-7.07-1.39-10.91-2.68,5.35-1.74,10.61,1.52,15.45-3.37H63.85v-1H88.09l0-1.28-23.84-3.48,0-.84H80.48v-1.55H47.28v-.38l30.41-2.4,0-1.24H31.22v-1.5H81.53c0-.75,0-1.5,0-2.25l-50.42-1.85,40.52-2.15v-1.24h-32v-.65l27.15-1.5v-.63L50,801.05v-.18l13-1.43v-.91H53.26l0-.81,4.3-.49v-.64l-3.12-.38V795H62.1l0-1.17c-.43-.32-.87-.64-.76-.57,1.51-1.11,3.27-3,5.15-3.62s4.16-.15,6.27-1.12H60.89c0-.54,0-1.09,0-1.63H74v-1.43H66.55l0-.72L74,783.08l0-.56H59.79c0-.39,0-.78,0-1.16L72.37,779l0-.54H40.62v-1L77.08,775v-.67H24.7v-1.79c9.7,0,19.4.12,29.1-.14a119.71,119.71,0,0,0,20.71-2.31L21.57,767.9v-.8H72.21c0-.68,0-1.37,0-2.06H40.63l0-2H72.86l0-1.62-12-2.64v-.37H80.56v-1.08c-1,0-2.07.06-3.1,0q-19-1.36-37.94-2.85H71.14v-1h-14c0-.35,0-.7,0-1.05H63L63,751H31.92v-1.46H75.64v-.85l-43.9-1.57,0-1.38c11.87-.5,23.76,0,35.64-1.22H41.93v-.95H61.26v-1.1H38.52v-1H60.09v-.9H47.3c0-.3,0-.59,0-.89h10l0-1-6.51-.61.1-.54,7.74-4,0-1H51v-.89l25.24-2.58c-4.45-1.89-8.67,1.17-12.37-1.91L64,725H84.67l0-1.36H72.48v-1H82.63v-.69l-16.15-2.16,0-1.21H79.22l0-1.92c-5-.46-10,0-15-1.06H80v-1.06H66.42v-.66l11.46-1v-1l-5.64-1.5,1.9-1.21v-.54H65.26c0-.32,0-.64,0-1l10.14-1.49,0-.37L60.9,704.2v-.69H89.35v-1H72v-.94H85.89v-1H73.13v-1H88.59v-.91H77.09v-1H93.62v-1H83.49l0-1.14L95,692.51l0-.73-2.77-.62,0-.48h6.64L99,690l-1.67-1.17,7.91-.87,0-1.34-3.59-.37v-.64h5.75v-.91h-4.21l0-.79,1.43-.77c-.34-.48-.65-.91-.71-1l3.43-2.45-.1-1h-5.6l-.17-1.11,3.7-2.93H94.93L94.84,673l9.82-2v-1H91.14v-1.32l14.16-1.51v-.43l-18.4-1.56v-.41l11.69-1.6V663l-22.12-2.65v-.72H91.53v-1.06l-22.36-2.46v-.51a50.44,50.44,0,0,0,6.27-.06,28.77,28.77,0,0,0,4.85-1.5c0-.59,0-1.18,0-1.77l-5.41-2.37L85,649v-1.25l-8.71-.77v-1l2.56-.6,0-.47-6.74-1.22.12-1.87h3.37l.06-1.34L68,639.05v-.32l11.49-1.51v-.29l-9.33-1.42,0-.79,1.33-.13,21.53-2.17,0-1.27H80.76l0-2.13h19.58c-5.49-2.77-11.21.3-16.61-4.31,2.15-.36,4.31-.86,6.47-1s4.54,0,6.82-1.16H91.64l-.12-2.08,11.2-2.32L92.22,615v-.42H103.1l0-.41-10.74-3-.11-.8,8.65-2.26v-.47H90.12l0-.9,10.27-1.58c-7.45-3.14-14.4-.85-21.25-2.25l13-1.66,0-1.4H62c0-.54,0-1.08,0-1.62H87.12l.07-1.55A17.06,17.06,0,0,0,83,595.54c-7.68-.11-15.36-.06-23-.78l23.27-1.65,0-1.54-16.14-1.42v-.3L92,588.3v-1H66.48v-2.1H94.87v-1.33l-21.81-2.09,0-1.66H95.93v-.88l-35-2.45c0-.34,0-.69,0-1H87.08v-.58l-30.07-2,0-1.57H71.76v-.86H55.52v-.85H67.76l.1-.83-1.75-.86,1.3-1.48H57.84v-1h20.4l0-1.81L45.11,563l0-1.89,21.63-1.65V559l-13.5-1.74,0-1.38h17.5l0-.57-23.93-2.72v-.89H65.63v-.74L34.08,548.1v-.89H49.73v-2.12H28.33c0-.63,0-1.25,0-1.88H43.88l0-2.21c-6-1.06-12.12,0-18.16-.58v-1.27l28.84-2,0-1H36.72c0-.78,0-1.55,0-2.32,9.15-.29,18.31.14,27.46-.24l0-1.87c-3.91-.37-7.81-.89-11.71-1.08s-7.84,0-11.77-.42c8.52-1.07,17.2,1.35,25.5-5.07H39.54c0-.41,0-.82,0-1.23l21.3-1.58v-.72l-23-2.49,17.52-2.75v-.72H31.82v-.56l17.82-1.44v-1.48h-25v-1.95H51.89v-1.42H13.65v-.63l35.58-2.82v-.56H21.46v-1.59H47v-1.61H28.5v-.84H45.17l0-.91H40.68v-1.09H54v-1.09H26.84v-1H53.63v-.95H43.39v-1h17.4v-.77l-8.71-1v-1.35l25.63-3.47L77.66,486H59.28v-1.14H75.57l.05-.86-8.13-2.22.06-1h9.06v-1.42H59l0-1.49H75.8c-.94-.84-1.11-1.12-1.3-1.15-6.32-.83-12.65-1.64-19-2.83,4.56-2.25,9.33-.32,13.95-2.08H58.83l0-.79,4.22-.53v-.75H58.77c0-.31,0-.61,0-.91H72.18l0-1.2c-1.91,0-3.84.39-5.71-.09a33.53,33.53,0,0,1-8.36-3.61l11.24-1.65c-6.16-3.15-11.75-.64-17.19-2.39H68.35c0-.34,0-.69,0-1H45.51v-1H68.39l0-1.14L44,454l28.87-1.53V451.2H40.55V450l37.15-1.52,0-.7-26.07-1.51v-.44H72.71v-1H51.22c0-.36,0-.72,0-1.07H62.31v-1H56.52l0-.9h4.44c-3.26-5.06-7.18-4.07-11-4.31l0-1.33H72.27v-1.39H41L41,433.68a9,9,0,0,1,2.63-.9c5.49-.09,11,.13,16.47-.1a109.17,109.17,0,0,0,16.59-2H40.13v-1H62.26v-.95H49.91v-1h4.83v-.84l-3.93-.63,3.78-1.09,0-1.21H50v-1.66H68.46V421L53.79,419.5v-.8H77.3v-1.43h-19v-1.46H73.4l0-.86-3.12-.52v-.65h5.35l0-1.06H61.55v-1h5.87c0-.32,0-.64,0-1H62.6v-1h13v-1.05H58.71v-.95H69.57v-1.49H53.74c0-.42,0-.84,0-1.26l11.4-1.56c-5.38-1.73-10.92.67-16.25-1.93l0-1.39H70.13V399L43.49,397.4v-.57H85v-1.14l-34.51-2.61v-.2H71.22l.08-1-10.4-3.49v-.57H79.36v-1H38l33.24-2.65,0-1.44H48.28V382H78.9l.11-.76-1.5-1,0-.61H84.9v-.81H52.7v-1H83.18v-1H77.94l0-.78,3.23-.63,0-.78H56.54v-1.46h21l0-2.4h-29l0-2.42H76.7v-2.11H53.27c0-.35,0-.7,0-1l18.14-1.88-.06-1.63H59.69l-.06-1.29,14.93-1.66,0-1.48-9.35-.91v-.6H77.71L77,354.43l6.35-2.59-.07-1.09H78v-1.37H92.72l0-1.89h-12l-.06-1.65,10.19-2.69v-.45H76.85v-.57l16.82-1.55v-.71l-16.82-1.53,0-.8,23.5-2.3,0-.32-12-1.64,0-.9,14.68-1.7V330H88l-.05-.88,2.53-.54,0-.82-7.71-1.9,0-1.09h12V324l-12.42-1.52v-.7H94.87v-1H82.35V320H92l.08-1.67-15.14-2,0-.33H89.68c-7-5-14.47-2.21-22.27-5.11H88.23v-1.32l-26.76-1.65v-1.43H78.56V305h-16c0-.42,0-.84,0-1.26l26.19-3.34,0-.43H73.13l0-.94c.69-.06,1.38-.14,2.07-.17,6.38-.33,12.77-.5,19.14-1.09,1.5-.13,3-1.7,4.54-2.67l-1.58-.62,0-.75h10.17V293l-5.18-.81.06-.8,6.71-3.35-6.46-.82.06-1.64h8l.08-1.34-8.27-2,11.88-2-.07-1.41h-8.59l9.49-2.93,0-1h-6.34V274h6l.24-1.28L112.22,270l6.8-1.6v-.59h-5.75l6-3.63-.2-1.44h-5.92v-.52l4.94-1.07,0-1.12-5.65-2.56c2.33-.64,4.1-1.14,6.58-1.84l-2.4-1.42-.08-.88,5.06-2.11-1.49-.64,1.55-3.6-1.33-.34c.39-1.89.77-3.77,1.18-5.75l-2-.49,2.44-1-3.78-3.11,2.05-1.85-1.44-1.27,2.55-.93-7.94-1.43,0-1.75,5.63-.47,0-.26-13.61-2.79v-.39l10.32-1.1v-1l-9.22-1.72,6.08-1.39.06-.82-1.5-.8,3.85-3.48h-13.9v-.64l17.35-3.07a20.07,20.07,0,0,0-2.45-.41c-4.67,0-9.34.17-14-.07-3.66-.19-7.3-.88-10.95-1.35l0-1.65h14.06v-1.41h-25V205l13.46-1.53c-4.71-2.29-9.42,1.85-14-3.62h23.5l0-.91H94v-1h8.78l0-1H96.07v-1h5.26v-1H89c5.35-2.39,11,1.3,16.64-4.07L82.9,186.86l0-.29H93l0-1.1L91,183.82h7.7V183H75.88l0-1.23c7.51-.61,15-1.24,22.53-1.8,1.89-.14,3.79,0,5.68-1.11H91.64v-1H98v-.94H86.84V176h23.35l0-1H104.4V174h5.07v-.44l-11.74-3,4.34-1.87,0-1.07-14.67-1.18,0-.42h5.39l.05-1.55L80.3,163l0-1.61h7.88V160H84l0-.35,20.72-2.93v-.74H81.83v-.46l25.58-2.24V152H92.34v-1h9.18l0-1.32-22.45-2.14v-.44l24-1.5V145H82.42l0-1.32,29.92-2.27,0-1H93.7l0-1.93h24.7v-1.21l-25.58-3.14L92.9,133h12.33l.06-1.39-17.05-2,0-1h8.61v-2H79V125H96.39v-1.44H73.56v-1.46H97.85l0-1h-5.6V120h5.36l0-1H87.54l0-1.49h21.57v-1.23l-16.4-3,5.18-1.94-19.31-2.45V108H105.2v-.93H86.8l0-.81,3-.51,0-.74h-8v-1h25.43v-1L90.62,101.5V101H104l0-1-1.91-.35V99h14.54v-.93H107l0-.85,7.21-1.68-10.41-3.13V92h12.35v-.61L90,89.66c0-.6,0-1.2,0-1.81h4.41l.08-2L86,84.38l16.85-1.49.06-.64-2.37-.59-.28-1.23c1.09-.8,2.16-2.22,3.26-2.29,4.42-.26,8.84-.11,13.28-.77l-8.39-3.22h3.81l.06-.73-5.57-2.07.06-1,7.79-1.7,0-.49-3.69-.67-.05-1h8.81c-1-4-1-4,5.52-5.59l2.93-4.24c-4.48-6.9-9.76-9.92-15.59-10.65h4.82v-.82H106.07l-.1-.71,1.28-1.14L92.82,39.21l16.69-2,0-1.26H101.1l0-.69c2.7-.76,5.39-1.55,8.09-2.26a29.73,29.73,0,0,0,8.19-3h-5.82v-1H115l0-.89h-6.72l0-.92h4.22l.1-.89-1.44-.89,1.43-.85,0-.54h-3.35v-.48l14.22-6.29,0-1.14-4.18-.48,0-.69h5c-.94-1.53-1.63-2.67-2.39-3.9,2.18-.29,4.72.87,5.68-4.92,2.49,1,3.39-2.27,4-6.2Z"/>
    </g>
  </g>
</svg>
