<?xml version="1.0" encoding="UTF-8"?>
<svg width="1200pt" height="1200pt" version="1.1" viewBox="0 0 1200 1200" xmlns="http://www.w3.org/2000/svg">
 <path d="m600 148.74c-249.23 0-451.26 202.04-451.26 451.26 0 249.24 202.04 451.27 451.26 451.27 249.24 0 451.26-202.03 451.26-451.27 0-249.23-202.02-451.26-451.26-451.26zm0.79297 244.19c21.516 0 37.656 16.766 37.656 38.914 0 19.934-16.141 37.645-38.281 37.645-19.934 0-37.98-17.711-37.98-37.645 0.011719-22.152 18.047-38.914 38.605-38.914zm75.945 390.12h-143.34v-19.922c35.125-4.7539 39.551-7.2852 39.551-48.121v-119.28c0-38.281-3.1562-39.539-35.438-44.605v-18.996c34.812-4.4297 69.289-12.023 99.023-22.465v205.33c0 40.199 3.1914 43.355 40.199 48.121z" fill="#fff"/>
</svg>
