<?xml version="1.0" encoding="utf-8"?>
<!-- Generator: Adobe Illustrator 19.0.0, SVG Export Plug-In . SVG Version: 6.00 Build 0)  -->
<svg version="1.1" id="layer" xmlns="http://www.w3.org/2000/svg" xmlns:xlink="http://www.w3.org/1999/xlink" x="0px" y="0px"
	 viewBox="-153 100 652 330" style="enable-background:new -153 -46 652 652;" xml:space="preserve">
	 <!-- viewBox="-153 -46 652 652" -->
<style type="text/css">
	.st0{fill:#ffffff;}
</style>
<title>CanalRiverTrust_Logo_RGB_Black_English_Welsh_XXX</title>
<path class="st0" d="M-13.8,153.3c65.1,0,117.9,52.8,118,117.9h-66c0-28.7-23.3-51.9-52-51.9c-28.7,0-51.9,23.2-51.9,51.9h-66
	C-131.8,206.1-78.9,153.3-13.8,153.3 M36.9,295.8c-4.2,0-11.4,1.6-16,1.7h-69.6c-4.6,0-11.8-1.7-16-1.7h-64.6
	c0.4,1.6,0.7,3.3,1.1,4.9h63.5c4.1,0,10.6-1.7,15.9-1.7H21c5.3,0,11.8,1.7,15.9,1.7h63.5c0.4-1.6,0.8-3.3,1.1-4.9H36.9z M29.8,309.3
	c-4.1,0-11.5,2.4-15.9,2.3h-55.5c-4.4,0-11.8-2.3-15.9-2.3h-68c0.7,2.1,1.5,4.1,2.3,6.1h65.8c4.1,0,10.3-2.2,15.9-2.2h55.5
	c5.7,0,11.8,2.2,15.9,2.2h65.8c0.8-2,1.6-4,2.3-6.1H29.8z M78.3,344.9c2.2-2.7,4.3-5.6,6.2-8.5h-196.7c1.9,2.9,4,5.8,6.2,8.5H78.3z
	 M-91.9,359.7H64.3c3.4-3,6.7-6.3,9.8-9.7h-175.7C-98.6,353.4-95.3,356.6-91.9,359.7 M-65,377.5c32.4,15.6,70.1,15.6,102.5,0H-65z
	 M18.6,322.9c-5.3,0-13.5,2.8-21.6,2.8h-21.7c-8.1,0-16.3-2.8-21.6-2.8h-73.6c1.2,2.5,2.5,4.9,3.9,7.3h73.2c5.2,0,10.1-2.9,18.2-2.9
	H-3c8.1,0,13,2.8,18.2,2.9h73.1c1.4-2.4,2.7-4.8,3.9-7.3H18.6z M27.5,283h-82.6c-4.7,0-8.7-1.4-11.7-1.4h-64.4
	c0.1,1.2,0.3,3.1,0.5,4.3h63.9c2.9,0,7-1.3,11.7-1.3h82.6c4.7,0,8.8,1.3,11.7,1.3l63.9,0c0.2-1.2,0.4-3.1,0.5-4.3H39.2
	C36.2,281.6,32.2,283,27.5,283 M44.4,373.8c5.2-3,10.2-6.3,14.9-10H-86.9c4.7,3.7,9.7,7.1,14.9,10H44.4z M135.5,208.7
	c0-15,10.2-25.9,24.7-25.9c10.5,0,18.8,5.3,22.2,15.5l-8.3,2.7c-1.8-6-6.3-10.2-13.8-10.2c-9.4,0-16.1,7.8-16.1,17.9
	c0,10.7,7,17.8,16.4,17.8c7.7,0,11.8-4.3,13.5-9.2l8.2,2.7c-3.5,9.1-10.7,14.5-21.8,14.5C146,234.5,135.5,224.4,135.5,208.7
	 M208.6,221.2v-4.1l-7,1.1c-4.4,0.6-6.4,2.1-6.4,5c0,2.7,2.3,4.5,6.3,4.5C205.2,227.7,208.6,225.4,208.6,221.2 M187,223.7
	c0-5.2,2.7-10.2,14-11.7l7.6-1.1v-0.4c0-4.1-2-6.5-6.5-6.5c-4.5,0-6.5,2.1-7,5.8l-7.5-1.8c1.9-7,6.4-10.7,14.9-10.7
	c7.9,0,14.8,3.9,14.8,13.2v23.3h-7.2l-0.9-3.2c-1.4,2-4.2,4.2-9.9,4.2C192.4,234.6,187,230.4,187,223.7 M224.9,198.1h7l1.2,4.3
	c2.2-2.9,5.5-5.3,10.8-5.3c8,0,12.7,4.6,12.7,15v21.5h-8.5v-20.3c0-6.3-2.9-8.2-6.9-8.2c-4.3,0-7.8,3.1-7.8,9.1v19.5h-8.5V198.1z
	 M284.8,221.2v-4.1l-7,1.1c-4.4,0.6-6.4,2.1-6.4,5c0,2.7,2.3,4.5,6.3,4.5C281.4,227.7,284.8,225.4,284.8,221.2 M263.2,223.7
	c0-5.2,2.7-10.2,14-11.7l7.6-1.1v-0.4c0-4.1-2-6.5-6.5-6.5c-4.5,0-6.5,2.1-7,5.8l-7.5-1.8c1.9-7,6.4-10.7,14.9-10.7
	c7.9,0,14.8,3.9,14.8,13.2v23.3h-7.2l-0.9-3.2c-1.4,2-4.2,4.2-9.9,4.2C268.6,234.6,263.2,230.4,263.2,223.7 M301.5,183.9h8.5v24.8
	v25h-8.5V183.9z M356,210.6h-7.3c-4.8,0-8.7,3.2-8.7,8.2c0,5,3.8,8,8.2,8c4.3,0,7.8-3.1,7.8-8L356,210.6z M368.6,210.7H364v8.2
	c0,9.4-7.1,15.8-15.9,15.8c-9.8,0-16.9-6.3-16.9-15.7c-0.1-5,2.4-9.6,6.6-12.2c-2.7-2.5-4.2-6-4.1-9.7c0-8.3,6.8-14.1,15.3-14.1
	c8,0,12.9,4.3,14.3,10.6l-7.5,1.9c-0.7-3.2-3.5-5.1-6.8-5.1c-4.1,0-7.2,2.6-7.2,6.7c0,4.1,3.1,6.7,7,6.7h7.1v-4.3h8v4.3h4.6V210.7z
	 M157.1,273.7c5.2,0,8.2-3,8.2-7.5c0-4.6-3.1-7.4-8.3-7.4h-8.8v14.9H157.1z M139.4,251.1h18.2c10.5,0,16.2,6.5,16.2,14.8
	c0,8-4.6,12.6-9.7,14.3l11.9,20.7h-9.6l-10.9-19.5h-7.4v19.5h-8.7V251.1z M182.6,265.3h8.5v35.5h-8.5V265.3z M181.7,255.5
	c0-2.8,2.2-5,5-5c0,0,0,0,0,0c2.8,0,5.1,2.2,5.1,5c0,2.8-2.2,5.1-5,5.1c0,0-0.1,0-0.1,0C183.9,260.5,181.7,258.2,181.7,255.5
	C181.7,255.5,181.7,255.5,181.7,255.5 M232.4,265.3L219,300.8h-9l-13.4-35.5h8.7l9.2,25.8l9.2-25.8H232.4z M251.1,271.4
	c-5.8,0-9,3.9-9.7,8h18.9C260,276.2,257.2,271.4,251.1,271.4 M241.3,285.9c0.5,5.1,4.7,8.9,9.8,8.9c5,0,7.8-3,8.7-5.4l7.2,2.2
	c-2.1,5.7-7.2,10.2-15.9,10.2c-10.2,0-18-7.8-18-18.8c0-10.7,7.8-18.7,17.9-18.7c10.3,0,16.8,7.5,16.8,18.3v3.3H241.3z M274.4,265.3
	h7l1.2,4.1c1.8-3.2,5.3-5.2,9-5.1c2.2-0.1,4.3,0.5,6.1,1.7l-3.1,7.5c-1.3-0.9-2.8-1.3-4.3-1.2c-4.1,0-7.5,3.3-7.5,9.2v19.3h-8.5
	V265.3z M321.9,259.1h-14.4v-8H345v8h-14.4v41.7h-8.7V259.1z M346.3,265.3h7l1.2,4.1c1.8-3.2,5.3-5.2,9-5.1c2.2-0.1,4.3,0.5,6.1,1.7
	l-3.1,7.5c-1.3-0.9-2.8-1.3-4.3-1.2c-4.1,0-7.5,3.3-7.5,9.2v19.3h-8.5L346.3,265.3z M404.6,300.8h-7l-1.2-4.3
	c-2.2,2.9-5.5,5.3-10.8,5.3c-8.1,0-12.7-4.7-12.7-15.1v-21.4h8.5v20.3c0,6.3,2.9,8.2,6.9,8.2c4.3,0,7.8-3.1,7.8-9.1v-19.4h8.5
	L404.6,300.8z M411.2,291.2l7.5-2.4c0.9,3.1,2.7,5.9,7.3,5.9c3.8,0,6.3-1.5,6.3-4.1c0-1.8-1.1-3.3-6.5-4.2
	c-7.4-1.4-13.6-3.6-13.6-11c0-6.1,5.2-11.1,13.8-11.1c7.1,0,12,3.8,13.5,10.2l-7.5,2.1c-0.6-2.6-2.1-5.2-6-5.2
	c-4.1,0-5.8,1.8-5.8,3.6c0,2.4,2.6,3.3,7.1,4.1c7.9,1.4,13.1,4.2,13.1,11.3c0,6.3-5.6,11.3-14.4,11.3
	C418.2,301.8,413,297.8,411.2,291.2 M449.5,291.3v-18.5h-6.1v-7.5h6.1v-9.2h8.5v9.2h9v7.5h-9v17.3c0,2.6,1.2,3.8,3.3,3.8
	c1.2,0,2.4-0.4,3.3-1.2l3.6,6c-1,1.2-3.8,3.1-8.7,3.1C454.1,301.8,449.5,298.3,449.5,291.3"/>
</svg>
