<?xml version="1.0" encoding="utf-8"?>
<!-- Generator: Adobe Illustrator 27.3.1, SVG Export Plug-In . SVG Version: 6.00 Build 0)  -->
<svg version="1.1" id="Layer_1" xmlns="http://www.w3.org/2000/svg" xmlns:xlink="http://www.w3.org/1999/xlink" x="0px" y="0px"
	 viewBox="0 0 252.35 96.83" style="enable-background:new 0 0 252.35 96.83;" xml:space="preserve">
<style type="text/css">
	.st0{fill:#FFFFFF;}
	.st1{clip-path:url(#SVGID_00000009591743085172173090000005147792264367449733_);}
	.st2{fill:#57388E;}
	.st3{fill:#19519F;}
	.st4{fill:#52AE32;}
	.st5{fill:#F9EC31;}
	.st6{fill:#F39200;}
	.st7{fill:#DC0D15;}
	.st8{fill:#8C5420;}
	.st9{fill:#231F20;}
	.st10{fill:#F5A6BF;}
	.st11{fill:#6BCBE2;}
	.st12{fill:none;stroke:#FFFFFF;stroke-miterlimit:10;}
</style>
<g>
	<g>
		<g>
			<path class="st0" d="M0.24,66.57c0-4.58,3.12-7.9,7.55-7.9c3.21,0,5.75,1.63,6.77,4.73l-2.54,0.82c-0.56-1.84-1.91-3.1-4.21-3.1
				c-2.86,0-4.93,2.37-4.93,5.47c0,3.25,2.15,5.45,4.99,5.45c2.34,0,3.6-1.3,4.12-2.82l2.5,0.82c-1.06,2.78-3.28,4.43-6.66,4.43
				C3.43,74.47,0.24,71.36,0.24,66.57"/>
			<path class="st0" d="M15.94,71.15c0-1.58,0.82-3.1,4.27-3.58l2.32-0.33v-0.13c0-1.24-0.61-1.97-2-1.97
				c-1.37,0-1.97,0.65-2.15,1.76l-2.3-0.56c0.59-2.15,1.95-3.28,4.54-3.28c2.41,0,4.51,1.19,4.51,4.01v7.12h-2.19l-0.28-0.98
				c-0.43,0.61-1.28,1.28-3.02,1.28C17.61,74.49,15.94,73.21,15.94,71.15 M22.54,70.39v-1.26l-2.15,0.33
				c-1.35,0.2-1.95,0.65-1.95,1.54c0,0.82,0.72,1.39,1.91,1.39C21.52,72.38,22.54,71.69,22.54,70.39"/>
			<path class="st0" d="M27.53,63.36h2.15l0.37,1.3c0.67-0.89,1.69-1.61,3.3-1.61c2.45,0,3.88,1.41,3.88,4.58v6.55h-2.6v-6.21
				c0-1.91-0.89-2.52-2.11-2.52c-1.32,0-2.39,0.93-2.39,2.78v5.95h-2.6V63.36z"/>
			<path class="st0" d="M39.2,71.15c0-1.58,0.82-3.1,4.27-3.58l2.32-0.33v-0.13c0-1.24-0.61-1.97-2-1.97
				c-1.37,0-1.97,0.65-2.15,1.76l-2.3-0.56c0.59-2.15,1.95-3.28,4.54-3.28c2.41,0,4.51,1.19,4.51,4.01v7.12h-2.19l-0.28-0.98
				c-0.43,0.61-1.28,1.28-3.02,1.28C40.87,74.49,39.2,73.21,39.2,71.15 M45.8,70.39v-1.26l-2.15,0.33c-1.35,0.2-1.95,0.65-1.95,1.54
				c0,0.82,0.72,1.39,1.91,1.39C44.78,72.38,45.8,71.69,45.8,70.39"/>
		</g>
		<polygon class="st0" points="50.9,59 53.5,59 53.5,66.57 53.5,74.19 50.9,74.19 		"/>
		<g>
			<path class="st0" d="M71.39,67.18h-1.41v2.5c0,2.86-2.17,4.82-4.84,4.82c-2.99,0-5.16-1.91-5.16-4.8c0-1.63,0.78-2.93,2.02-3.73
				c-0.78-0.74-1.26-1.74-1.26-2.95c0-2.54,2.06-4.32,4.67-4.32c2.45,0,3.95,1.32,4.36,3.23l-2.3,0.59
				c-0.22-0.98-1.06-1.56-2.06-1.56c-1.24,0-2.19,0.8-2.19,2.04c0,1.26,0.95,2.04,2.15,2.04h2.17v-1.3h2.45v1.32h1.41V67.18z
				 M67.52,67.16h-2.23c-1.45,0-2.67,0.98-2.67,2.5c0,1.52,1.15,2.45,2.52,2.45c1.3,0,2.39-0.93,2.39-2.45V67.16z"/>
			<path class="st0" d="M1.43,79.51h5.55c3.19,0,4.95,1.97,4.95,4.51c0,2.43-1.39,3.84-2.97,4.36l3.62,6.31H9.65l-3.32-5.95H4.07
				v5.95H1.43V79.51z M6.81,86.43c1.58,0,2.5-0.91,2.5-2.28c0-1.41-0.95-2.26-2.54-2.26H4.07v4.54H6.81z"/>
			<path class="st0" d="M14.34,80.85c0-0.85,0.67-1.54,1.52-1.54s1.56,0.69,1.56,1.54c0,0.85-0.72,1.54-1.56,1.54
				S14.34,81.7,14.34,80.85 M14.6,83.87h2.6v5.57v5.26h-2.6V83.87z"/>
		</g>
		<polygon class="st0" points="27.15,83.87 24.35,91.75 21.55,83.87 18.88,83.87 22.98,94.7 25.72,94.7 29.82,83.87 		"/>
		<g>
			<path class="st0" d="M32.51,90.14c0.11,1.37,1.28,2.71,2.99,2.71c1.52,0,2.39-0.91,2.65-1.65l2.19,0.67
				C39.72,93.61,38.15,95,35.51,95c-3.1,0-5.49-2.39-5.49-5.73c0-3.28,2.39-5.71,5.47-5.71c3.15,0,5.12,2.28,5.12,5.58v1H32.51z
				 M35.51,85.71c-1.76,0-2.73,1.19-2.97,2.43h5.77C38.24,87.17,37.37,85.71,35.51,85.71"/>
			<path class="st0" d="M42.62,83.87h2.15l0.37,1.26c0.46-0.78,1.37-1.56,2.73-1.56c0.87,0,1.52,0.26,1.87,0.52l-0.93,2.28
				c-0.22-0.17-0.67-0.37-1.3-0.37c-1.26,0-2.28,1-2.28,2.8v5.9h-2.6V83.87z"/>
		</g>
		<polygon class="st0" points="52.75,79.51 52.75,81.96 57.14,81.96 57.14,94.7 59.78,94.7 59.78,81.96 64.17,81.96 64.17,79.51 		
			"/>
		<g>
			<path class="st0" d="M64.57,83.87h2.15l0.37,1.26c0.46-0.78,1.37-1.56,2.73-1.56c0.87,0,1.52,0.26,1.87,0.52l-0.93,2.28
				c-0.22-0.17-0.67-0.37-1.3-0.37c-1.26,0-2.28,1-2.28,2.8v5.9h-2.6V83.87z"/>
			<path class="st0" d="M82.36,94.7h-2.15l-0.37-1.3c-0.67,0.89-1.69,1.61-3.3,1.61c-2.47,0-3.88-1.43-3.88-4.6v-6.53h2.6v6.19
				c0,1.93,0.89,2.52,2.1,2.52c1.32,0,2.39-0.93,2.39-2.78v-5.92h2.6V94.7z"/>
			<path class="st0" d="M84.38,91.77l2.3-0.74c0.26,0.95,0.82,1.8,2.21,1.8c1.17,0,1.93-0.46,1.93-1.24c0-0.54-0.35-1-2-1.28
				c-2.26-0.41-4.14-1.11-4.14-3.36c0-1.87,1.58-3.39,4.21-3.39c2.17,0,3.67,1.15,4.12,3.1l-2.28,0.65
				c-0.2-0.78-0.65-1.58-1.84-1.58c-1.24,0-1.78,0.54-1.78,1.11c0,0.74,0.78,1,2.17,1.26c2.41,0.43,3.99,1.28,3.99,3.45
				c0,1.93-1.71,3.45-4.38,3.45C86.53,95,84.93,93.79,84.38,91.77"/>
			<path class="st0" d="M96.08,91.79v-5.64h-1.87v-2.28h1.87v-2.82h2.6v2.82h2.76v2.28h-2.76v5.27c0,0.8,0.37,1.15,1.02,1.15
				c0.48,0,0.8-0.2,1-0.37l1.09,1.84c-0.3,0.37-1.15,0.95-2.65,0.95C97.47,95,96.08,93.92,96.08,91.79"/>
		</g>
		<path class="st0" d="M38.56,48.31c1.12-0.64,2.19-1.36,3.19-2.15H10.37c1.01,0.8,2.07,1.52,3.19,2.15H38.56z M34.92,28.82H17.2
			c-1.01,0-1.87-0.31-2.51-0.3H0.86c0.02,0.27,0.07,0.67,0.1,0.93h13.72c0.63-0.01,1.51-0.29,2.52-0.29h17.72
			c1.01,0,1.89,0.28,2.52,0.29l13.72,0c0.03-0.26,0.08-0.67,0.1-0.93H37.44C36.8,28.52,35.94,28.82,34.92,28.82 M33.03,37.38
			c-1.13,0-2.9,0.6-4.64,0.61h-4.65c-1.73-0.01-3.51-0.61-4.63-0.61H3.3c0.26,0.53,0.54,1.06,0.83,1.57h15.7
			c1.12,0,2.17-0.61,3.9-0.61h4.65c1.73,0,2.78,0.61,3.91,0.61h15.7c0.3-0.51,0.57-1.03,0.83-1.57H33.03z M15.07,49.1
			c3.32,1.61,7.05,2.51,10.99,2.51s7.67-0.9,10.99-2.51H15.07z M9.31,45.27h33.51c0.74-0.65,1.44-1.35,2.1-2.08H7.21
			C7.87,43.92,8.57,44.62,9.31,45.27 M45.83,42.11c0.47-0.59,0.92-1.2,1.33-1.83H4.96c0.42,0.63,0.86,1.24,1.33,1.83H45.83z
			 M35.43,34.47c-0.89,0-2.47,0.51-3.42,0.5h-11.9c-0.95,0.01-2.53-0.5-3.42-0.5H2.1c0.15,0.44,0.31,0.87,0.49,1.3H16.7
			c0.89,0,2.2-0.46,3.42-0.46h11.9c1.21,0,2.53,0.46,3.42,0.46h14.11c0.17-0.43,0.33-0.86,0.48-1.3H35.43z M36.95,31.57
			c-0.9,0-2.44,0.35-3.42,0.35H18.59c-0.98,0-2.52-0.35-3.42-0.35H1.3c0.08,0.35,0.16,0.7,0.25,1.05h13.64
			c0.89,0,2.27-0.35,3.41-0.35h14.94c1.14,0,2.52,0.35,3.41,0.35h13.64c0.09-0.35,0.17-0.7,0.25-1.05H36.95z M26.06,0.99
			c13.98,0,25.31,11.33,25.31,25.31H37.21c0-6.15-4.99-11.14-11.14-11.14S14.92,20.14,14.92,26.3H0.75
			C0.75,12.32,12.09,0.99,26.06,0.99"/>
	</g>
	<g>
		<defs>
			<path id="SVGID_1_" d="M200.81,95.67c39.49-32.62,48.58-55.17,48.58-55.17c1.41-3.43,2.19-7.2,2.19-11.16
				c0-15.68-12.21-28.39-27.26-28.39c-9.6,0-18.63,5.84-23.5,13.66c-4.87-7.82-13.9-13.66-23.5-13.66
				c-15.06,0-27.26,12.71-27.26,28.39c0,3.96,0.78,7.73,2.19,11.16C152.23,40.5,161.31,63.05,200.81,95.67z"/>
		</defs>
		<clipPath id="SVGID_00000057129906926926703150000016705270927474810504_">
			<use xlink:href="#SVGID_1_"  style="overflow:visible;"/>
		</clipPath>
		<g style="clip-path:url(#SVGID_00000057129906926926703150000016705270927474810504_);">
			<rect x="149.97" y="-32.33" class="st2" width="101.67" height="160.11"/>
			<rect x="149.97" y="-32.33" class="st3" width="84.73" height="160.11"/>
			<rect x="149.97" y="-32.33" class="st4" width="67.78" height="160.11"/>
			<rect x="149.97" y="-32.33" class="st5" width="50.84" height="160.11"/>
			<rect x="149.97" y="-32.33" class="st6" width="33.89" height="160.11"/>
			<rect x="149.97" y="-32.33" class="st7" width="16.95" height="160.11"/>
			<polygon class="st8" points="149.97,95.38 149.97,105.18 200.81,58.11 251.64,105.18 251.64,95.38 200.81,48.31 			"/>
			<polygon class="st9" points="149.97,85.57 149.97,95.36 200.81,48.3 251.64,95.36 251.64,85.57 200.81,38.5 			"/>
			<polygon class="st10" points="149.97,115 149.97,124.8 200.81,77.73 251.64,124.8 251.64,115 200.81,67.93 			"/>
			<polygon class="st11" points="149.97,105.19 149.97,114.99 200.81,67.92 251.64,114.99 251.64,105.19 200.81,58.12 			"/>
			<polygon class="st0" points="157.35,127.78 200.81,127.78 244.27,127.78 200.81,87.54 			"/>
			<polygon class="st0" points="149.97,124.81 149.97,127.78 157.31,127.78 157.35,127.78 200.81,87.54 244.27,127.78 244.3,127.78 
				251.64,127.78 251.64,124.81 200.81,77.75 			"/>
		</g>
	</g>
	<rect x="121.25" y="0.99" class="st0" width="1.47" height="93.92"/>
	<path class="st12" d="M200.81,95.67c39.49-32.62,48.58-55.17,48.58-55.17c1.41-3.43,2.19-7.2,2.19-11.16
		c0-15.68-12.21-28.39-27.26-28.39c-9.6,0-18.63,5.84-23.5,13.66c-4.87-7.82-13.9-13.66-23.5-13.66
		c-15.06,0-27.26,12.71-27.26,28.39c0,3.96,0.78,7.73,2.19,11.16C152.23,40.5,161.31,63.05,200.81,95.67z"/>
</g>
</svg>
