<svg id="canal-and-river-trust" xmlns="http://www.w3.org/2000/svg" viewBox="0 -12 101.55 114.02">
  <defs>
    <style>
      .cls-1 {
        fill: #fff;
      }
    </style>
  </defs>
  <g>
    <g>
      <path class="cls-1" d="M1.79,67.28c0-4.58,3.12-7.9,7.55-7.9a6.7,6.7,0,0,1,6.77,4.73l-2.54.82a4.09,4.09,0,0,0-4.21-3.1c-2.86,0-4.93,2.37-4.93,5.47,0,3.25,2.15,5.45,5,5.45a4,4,0,0,0,4.12-2.82l2.5.82a6.59,6.59,0,0,1-6.66,4.43c-4.4,0-7.59-3.11-7.59-7.9" transform="translate(-1.79 -1.7)"/>
      <path class="cls-1" d="M17.49,71.86c0-1.58.82-3.1,4.27-3.58L24.08,68v-.13a1.76,1.76,0,0,0-2-2,1.89,1.89,0,0,0-2.15,1.76l-2.3-.56c.59-2.15,1.95-3.28,4.54-3.28,2.41,0,4.51,1.19,4.51,4V74.9H24.49l-.28-1a3.4,3.4,0,0,1-3,1.28,3.41,3.41,0,0,1-3.7-3.34m6.6-.76V69.84l-2.15.33c-1.35.2-2,.65-2,1.54s.72,1.39,1.91,1.39a2,2,0,0,0,2.19-2" transform="translate(-1.79 -1.7)"/>
      <path class="cls-1" d="M29.08,64.07h2.15l.37,1.3a3.91,3.91,0,0,1,3.3-1.61c2.45,0,3.88,1.41,3.88,4.58v6.55h-2.6V68.68c0-1.91-.89-2.52-2.11-2.52s-2.39.93-2.39,2.78v6h-2.6Z" transform="translate(-1.79 -1.7)"/>
      <path class="cls-1" d="M40.75,71.86c0-1.58.82-3.1,4.27-3.58L47.34,68v-.13a1.76,1.76,0,0,0-2-2,1.89,1.89,0,0,0-2.15,1.76l-2.3-.56c.59-2.15,2-3.28,4.54-3.28,2.41,0,4.51,1.19,4.51,4V74.9H47.75l-.28-1a3.4,3.4,0,0,1-3,1.28,3.41,3.41,0,0,1-3.7-3.34m6.6-.76V69.84l-2.15.33c-1.35.2-2,.65-2,1.54S44,73.1,45.16,73.1a2,2,0,0,0,2.19-2" transform="translate(-1.79 -1.7)"/>
    </g>
    <polygon class="cls-1" points="50.66 58.01 53.26 58.01 53.26 65.58 53.26 73.2 50.66 73.2 50.66 58.01"/>
    <g>
      <path class="cls-1" d="M72.94,67.89H71.53v2.5a4.71,4.71,0,0,1-4.84,4.82c-3,0-5.16-1.91-5.16-4.8a4.31,4.31,0,0,1,2-3.73,4,4,0,0,1-1.26-3A4.39,4.39,0,0,1,67,59.41a4.07,4.07,0,0,1,4.36,3.23l-2.3.59a2.14,2.14,0,1,0-2.1,2.52h2.17v-1.3h2.45v1.32H73v2.12Zm-3.87,0H66.84a2.52,2.52,0,0,0-2.67,2.5,2.4,2.4,0,0,0,2.52,2.45,2.33,2.33,0,0,0,2.39-2.45v-2.5Z" transform="translate(-1.79 -1.7)"/>
      <path class="cls-1" d="M3,80.22H8.53c3.19,0,5,2,5,4.51a4.31,4.31,0,0,1-3,4.36l3.62,6.31H11.2l-3.32-6H5.62v6H3Zm5.38,6.92a2.22,2.22,0,0,0,2.5-2.28c0-1.41-.95-2.26-2.54-2.26H5.62v4.54Z" transform="translate(-1.79 -1.7)"/>
      <path class="cls-1" d="M15.89,81.56A1.52,1.52,0,0,1,17.41,80a1.54,1.54,0,1,1,0,3.08,1.53,1.53,0,0,1-1.52-1.54m.26,3h2.6V95.41h-2.6Z" transform="translate(-1.79 -1.7)"/>
    </g>
    <polygon class="cls-1" points="26.91 82.88 24.11 90.76 21.31 82.88 18.64 82.88 22.74 93.71 25.48 93.71 29.58 82.88 26.91 82.88"/>
    <g>
      <path class="cls-1" d="M34.06,90.85a3,3,0,0,0,3,2.71,2.7,2.7,0,0,0,2.65-1.65l2.19.67a4.76,4.76,0,0,1-4.83,3.13,5.73,5.73,0,0,1,0-11.44c3.15,0,5.12,2.28,5.12,5.58v1Zm3-4.43a2.9,2.9,0,0,0-3,2.43h5.77a2.72,2.72,0,0,0-2.8-2.43" transform="translate(-1.79 -1.7)"/>
      <path class="cls-1" d="M44.17,84.58h2.15l.37,1.26a3.12,3.12,0,0,1,2.73-1.56,3.21,3.21,0,0,1,1.87.52l-.93,2.28a2.18,2.18,0,0,0-1.3-.37c-1.26,0-2.28,1-2.28,2.8v5.9h-2.6V84.58Z" transform="translate(-1.79 -1.7)"/>
    </g>
    <polygon class="cls-1" points="52.51 78.52 52.51 80.97 56.9 80.97 56.9 93.71 59.54 93.71 59.54 80.97 63.93 80.97 63.93 78.52 52.51 78.52"/>
    <g>
      <path class="cls-1" d="M66.12,84.58h2.15l.37,1.26a3.12,3.12,0,0,1,2.73-1.56,3.21,3.21,0,0,1,1.87.52l-.93,2.28a2.18,2.18,0,0,0-1.3-.37c-1.26,0-2.28,1-2.28,2.8v5.9h-2.6V84.58Z" transform="translate(-1.79 -1.7)"/>
      <path class="cls-1" d="M83.91,95.41H81.76l-.37-1.3a3.91,3.91,0,0,1-3.3,1.61c-2.47,0-3.88-1.43-3.88-4.6V84.59h2.6v6.19c0,1.93.89,2.52,2.1,2.52s2.39-.93,2.39-2.78V84.6h2.6V95.41Z" transform="translate(-1.79 -1.7)"/>
      <path class="cls-1" d="M85.93,92.48l2.3-.74a2.13,2.13,0,0,0,2.21,1.8c1.17,0,1.93-.46,1.93-1.24,0-.54-.35-1-2-1.28-2.26-.41-4.14-1.11-4.14-3.36,0-1.87,1.58-3.39,4.21-3.39a3.9,3.9,0,0,1,4.12,3.1L92.28,88a1.81,1.81,0,0,0-1.84-1.58c-1.24,0-1.78.54-1.78,1.11,0,.74.78,1,2.17,1.26,2.41.43,4,1.28,4,3.45,0,1.93-1.71,3.45-4.38,3.45a4.31,4.31,0,0,1-4.51-3.23" transform="translate(-1.79 -1.7)"/>
      <path class="cls-1" d="M97.63,92.5V86.86H95.76V84.58h1.87V81.76h2.6v2.82H103v2.28h-2.76v5.27c0,.8.37,1.15,1,1.15a1.5,1.5,0,0,0,1-.37l1.09,1.84a3.42,3.42,0,0,1-2.65,1,2.93,2.93,0,0,1-3.06-3.2" transform="translate(-1.79 -1.7)"/>
    </g>
    <path class="cls-1" d="M40.11,49a25.8,25.8,0,0,0,3.19-2.15H11.92A24.4,24.4,0,0,0,15.11,49ZM36.47,29.53H18.75c-1,0-1.87-.31-2.51-.3H2.41c0,.27.07.67.1.93H16.23c.63,0,1.51-.29,2.52-.29H36.47c1,0,1.89.28,2.52.29H52.71c0-.26.08-.67.1-.93H39c-.64,0-1.5.3-2.52.3m-1.89,8.56c-1.13,0-2.9.6-4.64.61H25.29c-1.73,0-3.51-.61-4.63-.61H4.85c.26.53.54,1.06.83,1.57h15.7c1.12,0,2.17-.61,3.9-.61h4.65c1.73,0,2.78.61,3.91.61h15.7c.3-.51.57-1,.83-1.57Zm-18,11.72a25.31,25.31,0,0,0,22,0ZM10.86,46H44.37a25.76,25.76,0,0,0,2.1-2.08H8.76A25.76,25.76,0,0,0,10.86,46m36.52-3.16c.47-.59.92-1.2,1.33-1.83H6.51c.42.63.86,1.24,1.33,1.83ZM37,35.18c-.89,0-2.47.51-3.42.5H21.66c-.95,0-2.53-.5-3.42-.5H3.65c.15.44.31.87.49,1.3H18.25c.89,0,2.2-.46,3.42-.46h11.9c1.21,0,2.53.46,3.42.46H51.1c.17-.43.33-.86.48-1.3Zm1.52-2.9c-.9,0-2.44.35-3.42.35H20.14c-1,0-2.52-.35-3.42-.35H2.85c.08.35.16.7.25,1H16.74c.89,0,2.27-.35,3.41-.35H35.09c1.14,0,2.52.35,3.41.35H52.14c.09-.35.17-.7.25-1ZM27.61,1.7A25.31,25.31,0,0,1,52.92,27H38.76a11.15,11.15,0,0,0-22.29,0H2.3A25.31,25.31,0,0,1,27.61,1.7" transform="translate(-1.79 -1.7)"/>
  </g>
</svg>
