<svg id="RGB_Black" data-name="RGB Black" xmlns="http://www.w3.org/2000/svg" viewBox="100 100 1234.11437 419.43989">
    <title>CanalRiverTrust_Logo_RGB_Black_English_Welsh_XXX</title>
    <style type="text/css">
        path {
            fill: #ffffff;
        }

        polygon {
            fill: #ffffff;
        }
    </style>
    <path
        d="M309.99,111.81957c109.57968,0,198.41432,88.82694,198.427,198.40412H397.35155a87.36154,87.36154,0,0,0-174.72307,0H111.56291c.01278-109.57718,88.84735-198.40412,198.42711-198.40412m85.385,239.74819c-7.06149,0-19.11642,2.75722-26.83655,2.7802H251.44042c-7.72009-.023-19.77249-2.7802-26.83647-2.7802H115.8743q.88461,4.16259,1.93259,8.25622H224.70605c6.96188,0,17.80676-2.77755,26.73437-2.77755h117.0981c8.92765,0,19.77506,2.77755,26.73441,2.77755H502.17205q1.05318-4.09749,1.93263-8.25622Zm-11.9556,22.74949c-6.944,0-19.34368,3.97751-26.78544,3.89579H263.34452c-7.44176.08172-19.84136-3.89579-26.78536-3.89579H122.13647q1.76535,5.17357,3.80132,10.21175H236.55916c6.944,0,17.26806-3.61749,26.78536-3.61749H356.634c9.51735,0,19.84144,3.61749,26.78544,3.61749H494.0408q2.03343-5.03556,3.80128-10.21175Zm81.53569,59.867q5.53726-6.91965,10.45935-14.32452H144.564q4.917,7.39845,10.45939,14.32452ZM178.646,458.98039H441.33309a199.49437,199.49437,0,0,0,16.43578-16.32087H162.21019A199.89451,199.89451,0,0,0,178.646,458.98039m45.1538,30.0447a198.89633,198.89633,0,0,0,172.37944,0Zm140.77055-91.91316c-8.84849,0-22.7544,4.72809-36.33854,4.7919H291.74525c-13.58165-.06381-27.49-4.7919-36.336-4.7919H131.54073q3.05969,6.27642,6.53809,12.28991H261.13548c8.80252-.00772,17.02812-4.79954,30.60977-4.79954h36.48657c13.58414,0,21.80975,4.79182,30.61227,4.79954H481.89822q3.48092-6.0122,6.53808-12.28991Zm14.89255-67.05822H240.4835c-7.93453,0-14.66918-2.42021-19.678-2.364H112.4205c.19146,2.07559.53356,5.23864.7914,7.30145H220.76461c4.96038-.0536,11.80481-2.239,19.74188-2.239H379.43993c7.9396,0,14.78145,2.18022,19.74187,2.23383l107.5552.00257c.25531-2.06024.59741-5.22329.78892-7.29888H399.1409c-5.00888-.05617-11.741,2.364-19.678,2.364m28.52726,152.766a198.91834,198.91834,0,0,0,25.029-16.88509H186.95934a198.94365,198.94365,0,0,0,25.03158,16.88509Z"/><path
        d="M561.21867,204.97332c0-25.23636,17.223-43.53533,41.62232-43.53533,17.70077,0,31.696,8.96886,37.31658,26.07144l-13.9952,4.54661c-3.10738-10.1652-10.52252-17.10258-23.203-17.10258-15.78574,0-27.14936,13.03772-27.14936,30.14036,0,17.93962,11.84138,30.01985,27.50871,30.01985,12.91728,0,19.85466-7.17825,22.72319-15.54892l13.75634,4.54465c-5.85946,15.31-18.06012,24.39729-36.71844,24.39729-24.27887,0-41.86117-17.10258-41.86117-43.53337"/><path
        d="M684.1064,226.024v-6.93738l-11.84132,1.7946c-7.41716,1.0759-10.76339,3.5871-10.76339,8.491,0,4.54465,3.94645,7.654,10.52448,7.654,6.45766,0,12.08023-3.828,12.08023-11.00231m-36.36106,4.18531c0-8.73,4.54459-17.10258,23.5622-19.73618l12.79886-1.79258v-.71863c0-6.815-3.35027-10.88187-11.00629-10.88187-7.53558,0-10.88383,3.58716-11.84132,9.6875l-12.6764-3.10941c3.22978-11.83935,10.76542-18.06012,24.99946-18.06012,13.27461,0,24.87511,6.57809,24.87511,22.125v39.23161H686.3787l-1.55771-5.3817c-2.39071,3.34826-7.05377,7.05384-16.62279,7.05384-11.24318,0-20.45286-7.05384-20.45286-18.41745"/><path
        d="M711.61493,187.27193h11.84131l2.03345,7.17629c3.70956-4.90393,9.32815-8.85039,18.18056-8.85039,13.51345,0,21.40831,7.77443,21.40831,25.23636v36.11822H750.726V212.74517c0-10.52246-4.906-13.87071-11.60246-13.87071-7.29471,0-13.15613,5.14076-13.15613,15.308v32.77H711.61493Z"/><path
        d="M812.30306,226.024v-6.93738l-11.8393,1.7946c-7.41514,1.0759-10.76339,3.5871-10.76339,8.491,0,4.54465,3.94443,7.654,10.52448,7.654,6.45766,0,12.07821-3.828,12.07821-11.00231m-36.359,4.18531c0-8.73,4.54661-17.10258,23.5622-19.73618l12.79684-1.79258v-.71863c0-6.815-3.34826-10.88187-11.00427-10.88187-7.53356,0-10.88383,3.58716-11.84132,9.6875l-12.6764-3.10941c3.22978-11.83935,10.76542-18.06012,24.9975-18.06012,13.27454,0,24.879,6.57809,24.879,22.125v39.23161H814.57541l-1.55372-5.3817c-2.39273,3.34826-7.05782,7.05384-16.62684,7.05384-11.24116,0-20.45083-7.05384-20.45083-18.41745"/><polygon points="840.412 163.232 854.763 163.232 854.763 204.973 854.763 246.954 840.412 246.954 840.412 163.232"/><path
        d="M932.05933,208.20114h-12.319c-8.01334,0-14.71194,5.38574-14.71194,13.7564,0,8.37263,6.33925,13.51542,13.8728,13.51542,7.1763,0,13.15815-5.14279,13.15815-13.51542Zm21.288.12043h-7.77455V222.078c0,15.78575-11.9598,26.55117-26.67161,26.55117-16.50646,0-28.46613-10.52651-28.46613-26.43275a23.869,23.869,0,0,1,11.12471-20.5733,21.79207,21.79207,0,0,1-6.93738-16.26357c0-13.99519,11.36153-23.8011,25.71411-23.8011,13.51542,0,21.76767,7.2947,24.0399,17.82121L931.7,182.6055c-1.19628-5.37974-5.86142-8.60952-11.3635-8.60952-6.819,0-12.08023,4.42415-12.08023,11.24312,0,6.93542,5.26121,11.24318,11.84132,11.24318h11.96175V189.304h13.51346v7.29672h7.77455Z"/><path
        d="M597.41972,314.43784c8.73,0,13.75438-5.02438,13.75438-12.56,0-7.7724-5.26328-12.43749-13.99323-12.43749H582.34856v24.99751Zm-29.66253-38.1537h30.618c17.58236,0,27.2698,10.8839,27.2698,24.87707,0,13.39706-7.656,21.17149-16.386,24.042l19.97509,34.80336h-16.147l-18.299-32.77193H582.34856v32.77193H567.75719Z"/><path d="M640.35832,300.325h14.35252V360.0074H640.35832Zm-1.43525-16.62488a8.42171,8.42171,0,0,1,8.37263-8.491,8.49188,8.49188,0,1,1,0,16.98214,8.42172,8.42172,0,0,1-8.37263-8.4911"/><polygon points="724.241 300.324 701.634 360.005 686.563 360.005 663.96 300.324 678.67 300.324 694.101 343.741 709.531 300.324 724.241 300.324"/><path
        d="M755.58508,310.493c-9.68946,0-15.07116,6.57607-16.386,13.395h31.81445c-.35935-5.38372-5.14285-13.395-15.42848-13.395m-16.50641,24.39728A16.47891,16.47891,0,0,0,755.58508,349.841c8.37262,0,13.15612-5.02241,14.59137-9.0893l12.08023,3.7076c-3.47072,9.567-12.08023,17.221-26.6716,17.221-17.10264,0-30.26079-13.15411-30.26079-31.57554,0-18.0581,13.15815-31.45314,30.14035-31.45314,17.34345,0,28.22728,12.556,28.22728,30.73647v5.50213Z"/><path d="M794.81791,300.32435h11.8393l2.03344,6.93744a17.163,17.163,0,0,1,15.0692-8.61154,17.588,17.588,0,0,1,10.28765,2.87049l-5.14284,12.56a11.8964,11.8964,0,0,0-7.17826-2.03546c-6.93542,0-12.558,5.50213-12.558,15.42848v32.53106h-14.3505Z"/><polygon points="874.802 289.799 850.642 289.799 850.642 276.286 913.554 276.286 913.554 289.799 889.393 289.799 889.393 360.008 874.802 360.008 874.802 289.799"/><path
        d="M915.76054,300.32435h11.83923l2.03553,6.93744a17.15766,17.15766,0,0,1,15.06907-8.61154,17.58079,17.58079,0,0,1,10.2857,2.87049l-5.14285,12.56a11.89637,11.89637,0,0,0-7.17825-2.03546c-6.93542,0-12.55793,5.50213-12.55793,15.42848v32.53106h-14.3505Z"/><path
        d="M1013.8558,360.00759h-11.83935l-2.03553-7.17623c-3.70754,4.90191-9.32809,8.84836-18.18056,8.84836-13.63389,0-21.40832-7.8929-21.40832-25.35476V300.32514h14.35455v34.08877c0,10.645,4.902,13.87078,11.60044,13.87078,7.29673,0,13.15619-5.14077,13.15619-15.308V300.32514h14.35258Z"/><path
        d="M1024.98051,343.86053l12.67628-4.06486c1.43531,5.26126,4.54471,9.92635,12.20275,9.92635,6.45563,0,10.643-2.51121,10.643-6.819,0-2.98891-1.91509-5.50011-11.00427-7.05579-12.43762-2.27236-22.84363-6.10034-22.84363-18.53789,0-10.28766,8.73192-18.65826,23.20494-18.65826,11.95979,0,20.21192,6.33918,22.72318,17.10258l-12.56,3.5871c-1.076-4.30372-3.5871-8.73-10.16317-8.73-6.819,0-9.81,2.991-9.81,6.10033,0,4.06487,4.3058,5.50214,11.96175,6.93738,13.27467,2.39077,22.00658,7.05586,22.00658,19.01565,0,10.64492-9.44853,19.01761-24.15837,19.01761-13.0398,0-21.89019-6.69853-24.879-17.82128"/><path
        d="M1089.45674,343.98017V312.88436h-10.28569v-12.56h10.28569V284.77549h14.35247v15.54892h15.19159v12.56h-15.19159v29.06041c0,4.42617,2.03344,6.34322,5.62263,6.34322a8.08855,8.08855,0,0,0,5.50011-2.03546l5.9799,10.16722c-1.67214,2.03142-6.33729,5.26126-14.5915,5.26126-9.20961,0-16.86361-5.97989-16.86361-17.70084"/>
</svg>
