<?xml version='1.0' encoding='utf-8'?>
<svg xmlns:xlink="http://www.w3.org/1999/xlink" xmlns="http://www.w3.org/2000/svg" viewBox="0,0,524,524" style="enable-background:new 0 0 524 524;" version="1.1">
<defs/>
<g id="layer0" class="visual">
<path d="M374.915,318.153C377.572,317.714 381.653,318.21 385.115,318.307C388.576,318.403 391.669,318.002 392.166,316.054C398.52,311.76 405.657,307.033 408.153,300.084C424.702,295.05 438.372,276.372 443.436,256.687C448.501,237.001 444.88,216.066 427.073,206.841C424.74,205.945 423.43,208.294 423.121,207.874C421.822,207.427 422.077,203.359 422.167,203.051C420.533,199.879 417.093,196.275 415.071,194.841C411.024,194.215 413.157,201.907 409.11,199.864C409.338,198.381 409.039,195.906 409.051,193.846C409.062,191.785 409.293,190.45 411.019,191.174C392.51,177.52 382.152,157.533 367.957,148.831C368.295,149.886 367.181,149.991 366.013,149.906C364.844,149.822 363.698,149.89 364.035,150.171C366.44,142.441 356.423,138.846 353.14,134.895C351.182,129.972 344.635,128.069 343.164,123.94C335.417,109.476 323.16,106.525 312.079,110.343C300.998,114.161 290.766,124.744 286.837,136.936C290.519,139.748 291.396,141.05 290.389,141.908C289.383,142.765 286.573,143.088 282.918,143.846C280.258,147.99 273.093,154.13 269.852,158.908C268.465,164.578 263.277,172.441 262.828,174.967C260.12,179.483 259.204,187.209 255.899,189.858C251.77,192.152 253.069,193.741 255.245,195.065C257.421,196.39 260.406,197.553 259.83,199.96C260.624,208.212 268.044,206.42 260.926,211.842C255.821,212.582 255.606,220.255 255.826,225.008C255.668,226.289 255.563,229.539 256.173,232.204C256.783,234.869 258.273,237.114 260.992,236.174C306.528,257.143 347.412,279.808 374.915,318.153ZM385.94,296.836L383.825,298C383.527,298.017 384.151,296.519 384.239,295.01C384.326,293.501 384.05,291.808 382.999,291.825C381.253,291.825 377.218,291.825 377,291.825L377,290L376.175,289C374.087,287.764 375.903,285.466 376.011,285.174C374.123,288.986 370.355,288.772 367.04,287.379C363.724,285.987 361.022,283.271 361.172,281.029C347.102,283.979 343.62,275.691 339.123,267.876C331.505,266.897 331.951,256.384 327.111,253.865C326.798,251.766 324.689,249.171 322.348,247.781C320.007,246.391 317.183,246.237 315.859,248.896C308.706,251.244 309.57,243.819 307.085,242.848C302.757,238.858 299.838,234.049 299.79,230.066C299.743,226.084 302.416,223.243 309.934,223.162C317.037,233.759 340.566,232.382 342.829,244.035C343.918,246.367 347.385,248.493 347.833,250.05C351.911,257.3 358.473,263.474 368.924,263.157C367.821,273.903 373.987,276.506 375.897,285.141C379.792,281.721 379.881,282.525 381.847,286.083C380.252,289.424 384.73,288.829 383.941,289.836C386.312,288.963 387.422,290.378 387.691,292.082C387.96,293.787 387.388,295.783 385.94,296.836Z" fill="#040503"/>
<path d="M374.944,300.165C378.497,300.286 378.611,298.4 377.553,296.808C376.496,295.216 374.242,293.598 373.919,293.846C370.869,294.566 370.77,296.137 371.638,297.365C372.506,298.593 374.367,299.797 374.944,300.165Z" fill="#574D29"/>
<path d="M384.005,298.175L386.175,297C387.622,295.947 388.305,293.733 388.036,292.028C387.767,290.323 386.34,288.955 383.968,289.828L383,291L383.175,292C384.226,291.983 383.978,293.481 383.89,294.99C383.803,296.498 383.706,298.192 384.005,298.175Z" fill="#2C3422"/>
<path d="M377,292C377.218,292 381.254,292.175 383,292.175L383,291L380,291L377,290L377,292Z" fill="#373D25"/>
<path d="M406.927,291.841C408.922,290.415 407.496,283.586 408.073,282.159C406.078,283.585 407.504,290.414 406.927,291.841Z" fill="#2E3C29"/>
<path d="M380,291L383,291L384.175,290C384.963,288.993 380.478,289.499 382.073,286.159C380.349,287.172 378.404,289.917 376.039,288.83L377,290L380,291Z" fill="#384028"/>
<path d="M375.917,289.154C378.282,290.241 380.385,287.149 382.109,286.136C380.143,282.578 379.769,281.461 375.873,284.88C375.765,285.172 373.83,287.918 375.917,289.154Z" fill="#2D321E"/>
<path d="M392.917,281.154C394.348,281.313 396.453,280.514 397.426,279.709C398.4,278.904 398.336,277.766 396.013,277.826C392.864,277.276 391.53,277.79 391.366,278.492C391.202,279.194 392.114,280.412 392.917,281.154Z" fill="#414F38"/>
<path d="M403.827,272.027C408.635,271.514 407.485,267.387 407.173,264.974C405.326,262.96 404.204,264.344 403.903,266.414C403.602,268.484 403.776,271.294 403.827,272.027Z" fill="#42533E"/>
<path d="M346,250L348.175,250C347.727,248.443 344.217,246.213 343.128,243.881L343,247L344,248L346,250Z" fill="#4F5C45"/>
<path d="M344,249L344,248L344,249Z" fill="#040503"/>
<path d="M343,248L344,248L343,247L343,248Z" fill="#040503"/>
<path d="M341.973,247.173L343.175,247C343.385,244.865 342.602,244.684 342.187,245.183C341.773,245.681 341.525,247.033 341.973,247.173ZM326.174,198.02L325.175,199C325.691,198.514 325.079,196.003 325.019,193.871C324.959,191.739 325.333,190.152 328.057,191.165C327.838,187.294 330.718,187.449 333.415,189.254C336.111,191.06 338.455,194.217 336.887,196.867L338.175,194C340.03,186.942 342.428,186.548 343.943,188.436C345.458,190.324 345.788,194.375 342.872,196.881C343.057,197.939 341.854,197.987 340.512,197.899C339.169,197.811 337.707,197.843 337.891,198.137L336.825,197C337.05,198.259 336.095,198.592 334.862,198.78C333.629,198.968 332.373,198.856 332.081,198.845C332.098,197.793 330.499,197.674 328.99,197.761C327.481,197.849 326.156,198.319 326.174,198.02Z" fill="#040503"/>
<path d="M361.928,243.841C363.863,241.663 362.519,234.338 363.072,232.159C361.137,234.337 362.481,241.662 361.928,243.841Z" fill="#596449"/>
<path d="M395.946,244.166C397.388,244.227 399.527,243.226 400.775,242.103C402.024,240.98 402.498,239.407 401.062,238.837C398.284,237.834 396.306,238.847 395.493,240.193C394.68,241.539 394.915,243.547 395.946,244.166Z" fill="#5A6446"/>
<path d="M413,232L415,230L413.175,229C412.302,228.845 410.829,228.685 409.915,228.855C409,229.025 408.397,229.683 408.929,230.159L411,231L413,232Z" fill="#4B5841"/>
<path d="M326.904,231.146C330.844,232.766 333.238,231.231 333.945,229.227C334.652,227.224 333.797,224.433 332.029,223.828L329.175,224C329.147,223.31 328.403,222.582 327.819,222.082C327.235,221.582 326.698,221.472 327.063,221.163C322.115,221.452 321.451,223.5 322.468,225.747C323.484,227.995 326.021,230.424 326.904,231.146Z" fill="#3D3D28"/>
<path d="M401.872,231.119C404.61,231.119 409.722,231.175 411,231.175L408.825,230C407.733,230.108 405.955,229.752 404.378,229.759C402.8,229.767 401.469,230.257 401.872,231.119Z" fill="#45533C"/>
<path d="M416.175,231C420.757,230.143 420.357,228.688 418.691,228.005C417.025,227.322 413.803,227.28 412.886,228.868L415,230L416.175,231Z" fill="#8F936F"/>
<path d="M394.89,227.864C400.619,226.88 399.151,226.182 395.921,225.847C392.69,225.513 387.76,225.511 386.952,225.832C381.275,226.764 383.567,227.118 387.109,227.141C390.651,227.163 395.381,226.887 394.89,227.864Z" fill="#54593B"/>
<path d="M328.932,223.839L332.175,224C332.687,222.345 331.06,221.124 329.554,220.635C328.048,220.147 326.347,220.493 326.859,221.103C326.887,221.793 327.597,222.418 328.181,222.918C328.765,223.418 329.297,223.53 328.932,223.839Z" fill="#41442E"/>
<path d="M318.925,221.158L321.175,220C322.258,219.441 322.391,217.903 322.187,216.536C321.984,215.17 321.261,213.801 320.992,213.826L320.175,214C320.965,212.175 319.507,211.67 318.045,211.712C316.583,211.753 314.939,212.514 314.997,212.175C314.356,216.928 317.527,219.824 318.925,221.158Z" fill="#616747"/>
<path d="M320.953,219.832C324.201,219.945 325.426,217.568 325.241,215.023C325.056,212.478 323.531,209.76 322.023,209.827C320.967,209.49 320.661,210.844 320.745,212.012C320.83,213.181 321.379,214.192 321.097,213.855C321.367,213.83 321.638,215.221 321.842,216.588C322.045,217.954 322.036,219.273 320.953,219.832Z" fill="#515A41"/>
<path d="M319.868,213.886L321.175,214C321.02,213.127 321.029,211.893 321.199,210.978C321.368,210.064 321.552,209.641 322.029,210.172C321.307,207.493 319.154,207.24 317.439,208.196C315.724,209.152 314.271,211.236 314.851,212.092C314.794,212.431 316.592,212.102 318.054,212.061C319.517,212.02 320.659,212.061 319.868,213.886Z" fill="#565C3F"/>
<path d="M423.05,208.167C423.292,207.691 424.224,207.368 425.139,207.199C426.054,207.029 426.801,206.988 426.9,207.143C424.384,206.922 423.135,202.912 421.928,202.841C421.838,203.149 421.751,207.72 423.05,208.167Z" fill="#959572"/>
<path d="M312.951,203.168C314.269,203.425 315.859,203.09 316.615,202.379C317.371,201.667 317.368,200.238 316.026,198.827C314.644,199.67 312.874,200.358 312.024,200.976C311.174,201.593 311.168,202.481 312.951,203.168Z" fill="#40442B"/>
<path d="M408.829,199.964C412.876,202.006 410.939,194.548 414.987,195.174L414,194L413,194L413,193L411.175,191C409.448,190.276 408.713,191.783 408.702,193.844C408.69,195.904 409.057,198.481 408.829,199.964Z" fill="#807C63"/>
<path d="M324.926,198.842L326,198L326.175,197C325.906,195.697 325.908,194.146 326.23,193.048C326.552,191.949 326.961,191.466 327.941,192.165L328.175,191C325.451,189.987 324.61,191.749 324.67,193.881C324.73,196.012 325.442,198.356 324.926,198.842Z" fill="#444B31"/>
<path d="M331.825,198.994C332.118,199.006 333.682,199.313 334.915,199.125C336.147,198.937 337.396,198.226 337.172,196.967C338.74,194.318 336.306,190.77 333.609,188.964C330.912,187.159 327.607,187.148 327.826,191.02L327.825,192C328.242,193.45 328.011,194.731 327.533,195.674C327.054,196.616 326.539,197.049 326.037,196.829L325.825,198C325.808,198.299 327.502,198.197 329.01,198.11C330.519,198.022 331.843,197.943 331.825,198.994Z" fill="#54614C"/>
<path d="M338.175,198C337.99,197.707 339.147,198.16 340.489,198.247C341.831,198.335 343.35,198 343.165,196.942L340.175,197C339.909,196.548 339.046,195.939 338.462,195.439C337.878,194.939 337.469,194.707 338.072,194.159L337,197L338.175,198Z" fill="#3D4F4C"/>
<path d="M325.832,197.049C326.334,197.269 327.366,196.774 327.844,195.832C328.323,194.889 328.581,193.391 328.164,191.941C327.184,191.242 326.217,191.85 325.895,192.949C325.573,194.048 325.563,195.746 325.832,197.049Z" fill="#464E34"/>
<path d="M339.927,196.841L343.175,197C346.091,194.494 345.731,190.105 344.215,188.217C342.7,186.329 339.687,186.896 337.831,193.954C337.173,195.331 338.119,195.992 338.948,196.247C339.778,196.503 340.586,196.238 339.927,196.841Z" fill="#454A39"/>
<path d="M413,194L414,194L413,193L413,194Z" fill="#040503"/>
<path d="M379.841,189.073C381.353,189.329 384.421,189.342 386.238,189.11C388.054,188.877 388.783,188.151 386.006,187.825C385.374,187.854 383.678,187.342 382.232,187.204C380.787,187.066 379.428,187.549 379.841,189.073Z" fill="#8F8F67"/>
<path d="M340.944,177.835C342.811,176.851 342.681,174.891 341.8,173.624C340.918,172.358 339.172,171.908 338.83,173.958C336.044,174.997 336.994,175.684 338.36,176.165C339.726,176.645 341.621,176.796 340.944,177.835Z" fill="#464628"/>
<path d="M359.909,175.149C362.986,176.46 364.286,174.768 364.284,173.043C364.282,171.319 363.077,169.239 362.008,169.826C361.282,169.327 360.176,170.356 359.639,171.569C359.101,172.781 359.033,174.5 359.909,175.149Z" fill="#766A39"/>
<path d="M277.999,158.175C279.637,158.171 280.212,156.736 280.127,155.488C280.042,154.24 279.299,152.829 279.001,152.825C277.363,152.829 276.788,154.264 276.873,155.512C276.958,156.76 277.701,158.171 277.999,158.175Z" fill="#6E5F42"/>
<path d="M363.951,150.168C364.824,150.323 366.171,150.315 367.085,150.145C368,149.975 368.603,149.317 368.071,148.841L367,149L367,148L366,147L365,147L364.825,146C363.257,146.085 362.898,147.058 362.986,148.016C363.073,148.973 363.733,150.082 363.951,150.168Z" fill="#929470"/>
<path d="M367,149L368,149L367,148L367,149Z" fill="#040503"/>
<path d="M303.018,146.826C305.351,147.723 306.593,145.724 306.902,146.144L308.175,145C307.573,143.712 306.1,144.112 305.029,144.952C303.959,145.793 303.136,146.901 303.018,146.826Z" fill="#4A4729"/>
<path d="M306.825,147C310.622,147.091 313.029,146.339 313.238,145.665C313.446,144.991 311.617,144.219 307.985,144.826L307,146L306.825,147Z" fill="#434124"/>
<path d="M365,147L366,147L365,146L365,147Z" fill="#040503"/>
<path d="M325.987,144.826C329.817,146.426 331.083,144.968 331.291,142.62C331.498,140.272 330.652,137.381 330.992,136.174C330.68,138.092 330.309,140.374 329.656,142.276C329.002,144.178 328.06,145.351 325.987,144.826Z" fill="#828761"/>
<path d="M283.175,144C286.83,143.243 289.609,143.031 290.616,142.174C291.623,141.316 290.67,139.637 286.988,136.826C285.798,138.035 284.239,141.127 283.021,140.827L282,142L283.175,144Z" fill="#7B6D4E"/>
<path d="M282,142L283,141L282,142Z" fill="#040503"/>
</g>
</svg>
