<?xml version="1.0" encoding="utf-8"?>
<svg xmlns:xlink="http://www.w3.org/1999/xlink" xmlns="http://www.w3.org/2000/svg" viewBox="0,0,1600,789" style="enable-background:new 0 0 1600 789;" version="1.1">
	<defs />
	<g id="layer0">
		<path stroke="#FDFFFF" stroke-width="3.2" d="M-0.398167,789C532.882,789 1066.9,789.356 1600.18,789.356C1600.18,526.144 1600.4,262.164 1600.4,0C1413.36,0 1227.06,-0.356528 1036.82,-0.356528C1037,1.28929 1038.28,3.83051 1039.34,5.66178C1040.4,7.49305 1041.44,8.57398 1040.03,9.60309C1037.33,6.80866 1034.25,3.07613 1033.35,-0.193039C870.177,-0.193039 705.934,-0.364374 543.839,-0.364374C532.95,19.9245 522.633,41.0918 505.047,53.6046C518.503,37.2214 530.691,19.4475 540.281,0.281656C360.299,0.281656 179.804,-0.356131 -0.178066,-0.356131C-0.178066,262.856 -0.398167,526.836 -0.398167,789ZM1005.83,775.64C1006.17,776.696 1005.2,776.768 1004.03,776.683C1002.86,776.599 1001.69,777.116 1002.02,777.397C1010.04,768.788 1018.57,758.491 1032.18,754.353C1035.95,750.615 1042.46,749.997 1046.05,751.236C1049.64,752.475 1050.02,754.837 1040.88,758.619C1037.97,759.162 1034.2,762.108 1030.9,763.613C1027.56,763.723 1023.05,766.169 1020.76,768.684C1016.2,770.085 1013.09,775.675 1005.83,775.64ZM1474.78,770.668C1474.93,771.639 1473.58,771.724 1471.63,771.682C1469.67,771.639 1467.43,771.415 1466.09,771.613C1456.21,763.646 1470.29,744.773 1466.02,732.602C1468.91,738.815 1464.84,759.109 1467.65,767.189C1474,769.002 1475.32,762.47 1480.09,761.389C1482.81,760.809 1481.87,762.494 1480.3,765.031C1478.74,767.568 1476.25,770.235 1474.78,770.668ZM1291.83,761.36C1292.37,762.01 1291.72,761.525 1290.56,761.624C1289.4,761.723 1288.1,761.69 1287.18,761.645C1284.01,750.267 1300.46,742.498 1309.27,736.294C1310.09,734.415 1315.02,730.153 1318.38,726.382C1321.75,722.611 1323.18,718.654 1317.89,718.619C1316.03,720.039 1309.87,722.408 1308.37,717.859C1309.38,716.877 1314.5,718.92 1317.3,716.265C1319.27,711.146 1330.01,719.014 1330.4,711.019C1330.39,709.686 1333.09,705.854 1335.74,703.263C1338.4,700.672 1340.23,699.246 1339.61,703.942C1336.62,707.969 1331.2,712.055 1327.67,716.778C1328.8,722.445 1322.54,723.829 1320.66,727.791C1316.86,729.943 1313.99,735.587 1308.82,737.644C1304.85,740.332 1299.81,744.79 1295.78,748.67C1294,749.182 1291.04,752.027 1289.57,754.75C1288.11,757.474 1288.18,760.766 1291.83,761.36ZM895.798,750.657L894.398,752C898.172,743.921 905.968,738.072 914.24,733.318C915.528,731.527 918.528,729.36 920.169,729.36C920.989,727.102 924.378,725.301 926.103,725.385C930.116,722.518 934.257,718.029 939.182,717.354C946,704.536 949.947,712.024 938.783,716.666C936.071,720.49 930.774,723.354 927.819,725.645C925.529,726.092 923.692,729.137 921.893,728.616C920.606,730.407 917.517,732.622 915.875,732.622C909.748,738.004 901.627,743.799 895.798,750.657ZM1050.94,728.606L1049.4,730C1049.8,703.994 1071.07,677.763 1067.38,659.873C1066.31,659.627 1064.21,658.185 1062.6,656.735C1061,655.285 1059.79,654.239 1060.28,653.285L1058.4,651C1035.76,641.856 1048.14,628.819 1066.25,623.022C1084.37,617.225 1107.42,618.651 1106.6,639.983C1110.2,645.294 1102.48,649.342 1098.76,651.685C1095.13,656.114 1089.57,661.289 1084.72,665.718C1082.78,668.315 1079.27,672.644 1077.63,676.847C1075.29,680.105 1072.69,685.902 1069.68,689.767C1067.4,694.853 1064.26,701.833 1061.65,707.814C1056.29,711.898 1059.23,726.244 1050.94,728.606ZM1239.88,712.621L1239.4,714C1244.84,702.483 1253.16,692.177 1260.32,681.243C1264.18,678.448 1266.19,671.61 1271.87,669.377C1271.87,674.979 1266,677.265 1263.66,681.801C1262.09,683.334 1259.51,687.091 1257.7,689.737C1255.19,691.043 1253.56,696.379 1250.73,698.706C1247.56,702.545 1244.9,709.385 1239.88,712.621ZM48.9345,687.393L46.3982,688C37.937,687.017 26.3786,685.955 19.0771,682.609C28.6601,683.161 40.4406,684.558 48.9345,687.393ZM1228.73,685.71L1227.4,687C1228.61,670.577 1240.28,663.18 1251.2,655.342C1258.04,652.438 1256.11,654.201 1252.55,657.622C1248.99,661.043 1243.39,665.439 1241.8,666.657C1239.78,667.368 1237.4,671.22 1234.75,672.687C1233.13,675.953 1230.88,681.672 1228.73,685.71ZM987.757,667.685C988.16,668.547 987.197,668.66 985.62,668.668C984.042,668.675 982.203,668.51 981.11,668.617C978.877,666.587 976.258,663.512 975.246,660.098C974.234,656.684 974.854,653.687 980.135,651.375C984.754,650.14 988.042,653.243 989.782,657.337C991.522,661.431 991.336,665.827 987.757,667.685ZM1198.84,665.634L1197.4,667C1204.61,654.877 1221.5,650.991 1232.26,641.304C1239.01,636.39 1244.52,629.466 1250.93,625.392C1246.72,632.169 1239.38,636.537 1233.75,640.693C1224.67,650.61 1209.69,656.371 1198.84,665.634ZM40.761,648.682L39.3982,650C45.0782,643.484 41.401,626.085 56.0721,627.392C59.2108,625.787 59.5503,625.949 59.1566,626.95C58.763,627.951 57.6081,629.003 56.0439,628.604C45.8922,628.932 45.4257,641.678 40.761,648.682ZM120.655,646.801L120.398,648C117.066,640.18 104.966,638.749 101.067,643.608C101.644,638.545 107.159,637.828 112.34,638.718C117.521,639.608 121.955,642.297 120.655,646.801ZM155.682,638.76C156.174,639.533 155.475,639.605 154.1,639.651C152.725,639.698 151.052,639.565 150.059,639.606C148.539,639.06 144.425,637.64 141.423,635.789C138.421,633.938 136.363,632.433 139.891,630.383C140.181,633.289 146.239,633.037 151.152,633.301C156.064,633.566 159.623,633.725 155.682,638.76ZM873.745,634.306L872.398,635C864.95,624.132 857.66,610.933 850.348,598.806C850.18,595.721 845.649,591.838 842.588,588.966C839.528,586.094 837.436,584.795 842.847,585.367C844.88,587.51 847.846,591.617 850.7,594.262C850.827,597.951 855.44,600.183 856.629,604.145C859.698,605.966 861.13,612.573 863.67,616.223C866.596,621.355 870.259,628.51 873.745,634.306ZM1118.7,630.738C1119.19,631.511 1118.47,631.605 1117.1,631.651C1115.73,631.698 1114.11,631.579 1113.12,631.62C1106.92,625.962 1108.81,620.363 1114.37,615.883C1119.93,611.403 1128.99,608.819 1137.96,610.397C1142.99,610.424 1140.94,612.643 1137.4,615.841C1133.85,619.039 1128.59,622.522 1126.74,623.702C1125.95,626.368 1121.04,628.271 1118.7,630.738ZM1316.99,597.602L1314.4,599C1309.96,586.812 1298.42,579.569 1293.37,566.857C1293.87,563.325 1289.53,558.244 1287.14,554.754C1284.75,551.263 1283.77,549.872 1291.85,552.367C1294.49,553.901 1300.04,555.556 1303.77,557.323C1305.01,559.541 1311.02,560.194 1312.73,563.292C1317.89,563.375 1320.24,568.943 1321.62,574.103C1320.62,577.31 1321.66,583.112 1321.8,588.257C1321.95,593.401 1321.59,597.388 1316.99,597.602ZM1128.86,588.626C1129.27,589.488 1128.2,589.66 1126.62,589.668C1125.04,589.675 1123.14,589.497 1122.05,589.605C1111.57,585.835 1106.77,574.557 1098.25,567.688C1088.83,560.484 1072,558.99 1067.37,545.864C1065.48,542.158 1059.07,539.76 1055.26,536.696C1052.3,533.835 1042.14,532.976 1044.33,526.215C1051.07,526.14 1053.59,532.571 1058.76,535.315C1061.6,541.219 1072.6,541.659 1079.85,544.37C1082.52,545.515 1087.5,547.553 1090.84,549.366C1094.36,550.378 1099.01,553.355 1103.85,554.367C1107.19,556.974 1114.44,558.416 1118.76,561.32C1122.79,565.004 1128.13,570.038 1132.78,574.329C1135.84,575.359 1138.74,579.578 1139.01,583.455C1139.28,587.333 1137.01,590.166 1128.86,588.626ZM1165,586.602L1163.4,588C1166.16,582.84 1185.78,583.794 1193.95,582.395C1189.04,584.595 1176.11,586.757 1165,586.602ZM930.93,536.608L928.398,538C962.305,531.296 990.528,505.479 1030.96,513.396C1032.73,513.413 1035.61,515.786 1037.13,518.055C1038.65,520.324 1038.89,521.7 1034.05,520.605C1026.96,520.336 1024.35,512.84 1013.99,514.602C1008.47,513.972 1004.65,518.121 996.946,516.605C993.96,518.152 986.969,518.971 983.806,521.652C980.063,522.443 974.546,524.445 969.877,525.621C965.669,527.367 958.702,529.303 953.819,531.645C948.647,534.53 937.779,534.174 930.93,536.608ZM145.715,419.278L145.398,420C140.013,398.21 165.868,413.655 170.362,401.165C175.13,398.1 172.949,401.254 168.859,405.076C164.768,408.898 158.541,412.847 153.135,410.625C148.439,409.219 144.298,416.366 145.715,419.278ZM871.931,413.608L870.398,415C897.464,393.649 932.727,383.104 965.221,368.331C966.451,366.698 969.511,366.328 971.39,366.774C973.268,367.22 973.631,367.768 968.886,369.619C963.041,370.783 956.771,374.204 949.922,375.61C946.132,376.353 941.435,379.299 937.905,381.613C933.486,381.012 931.049,385.679 926.849,386.631C924.823,388.061 919.64,389.533 915.912,390.612C911.997,391.23 908.849,395.571 906.037,398.604C904.741,396.409 902.092,397.453 899.467,399.119C896.842,400.785 894.065,403.096 891.861,403.627C886.244,406.761 879.312,411.023 871.931,413.608ZM1106.94,396.394L1105.4,397C1105.45,395.668 1102.06,393.764 1101.32,391.764L1100.4,392C1096.86,386.598 1091.74,380.827 1088.2,376.657L1087.4,377C1082.74,372.705 1082.04,371.85 1083.48,372.307C1084.93,372.763 1087.85,374.816 1089.72,377.285C1095.81,379.798 1098.44,387.208 1101.72,391.284C1102.81,391.834 1104.57,395.689 1106.94,396.394ZM1078.74,368.299L1077.4,369C1068.01,362.255 1055.35,354.317 1042.06,352.606C1054.47,350.671 1063.25,355.121 1068.74,361.303C1071.68,362.535 1076.74,364.793 1078.74,368.299ZM300.058,324.606L299.398,326C290.403,324.835 293.663,324.314 300.475,323.772C307.286,323.229 317.28,323.062 321.028,323.397C323.519,322.81 326.074,319.897 327.176,319.357C331.784,317.085 332.135,309.081 334.05,305.395C337.887,310.044 331.563,318.279 327.77,319.675C327.379,321.684 324.55,323.272 322.963,322.604C319.009,325.268 306.762,326.58 300.058,324.606ZM1120.71,223.729L1120.4,225C1122.38,218.253 1118.88,215.51 1114.54,214.52C1110.2,213.53 1104.85,213.964 1102.23,212.673C1095.6,203.763 1077.15,197.604 1063.86,205.626C1059.11,206.114 1054.14,209.09 1047.14,208.628C1046.27,207.777 1048.09,207.706 1050.6,207.005C1053.12,206.304 1056.32,205.728 1058.11,205.382C1062.78,203.389 1069.16,200.46 1077.01,200.398C1083.33,200.036 1091.37,200.356 1094.69,204.254C1097.85,208.621 1105.5,215.309 1115.02,211.398C1119.15,212.702 1123.92,216.79 1120.71,223.729ZM1007.62,201.892L1006.4,203C1008,199.037 1004.01,197.468 1000.78,196.996C997.56,196.524 994.775,197.541 998.073,196.391C1004.26,196.257 1003.83,193.388 1001.81,190.419C999.796,187.451 996.493,184.136 997.371,181.144C1001.38,178.842 1003.56,178.951 1004.35,179.764C1005.14,180.577 1003.97,181.607 999.798,182.657C1002.14,187.453 1008.5,195.629 1007.62,201.892ZM1027.66,166.787L1027.4,168C1031.44,152.719 1001.54,167.063 1010.36,148.174C1012.63,144.798 1011.87,145.649 1011.8,147.762C1011.73,149.876 1011.88,153.458 1013.88,154.381C1020.67,155.299 1031.82,153.694 1027.66,166.787ZM1013.71,136.732L1013.4,138C1011.44,136.12 1013.61,135.094 1015.64,133.638C1017.67,132.183 1019.35,129.947 1016.19,127.648C1014.27,127.114 1011.59,123.689 1010.4,121.401C1009.2,119.114 1009.1,118.654 1013.79,123.339C1018.9,124.181 1017.76,134.483 1025.08,134.39C1028.3,133.027 1033.02,133.397 1035.18,134.181C1037.35,134.965 1036.82,135.377 1028.95,135.605C1023.92,136.77 1016.38,130.88 1013.71,136.732ZM1069.94,119.607C1070.48,120.256 1069.72,120.525 1068.56,120.624C1067.4,120.723 1066.06,120.673 1065.14,120.628C1064.34,119.83 1069.55,119.311 1075.48,117.129C1081.41,114.946 1088.28,111.656 1090.35,107.185C1096.51,101.121 1100.39,100.159 1101.27,101.557C1102.14,102.954 1099.48,106.162 1090.84,109.637C1088.8,110.691 1085.39,113.678 1082.87,115.623C1078.16,115.279 1075.95,123.029 1069.94,119.607Z" fill="#FDFFFF" stroke-linecap="round" fill-opacity="0" stroke-linejoin="round" />
		<path stroke="#06B0F8" stroke-width="3.2" d="M1001.78,776.668C1002.65,776.823 1004.21,777.534 1005.13,777.365C1006.04,777.195 1006.69,776.112 1006.16,775.636C1013.42,775.671 1016.64,770.751 1021.19,769.35C1023.48,766.835 1027.74,764.499 1031.09,764.389C1034.39,762.883 1038.2,759.925 1041.11,759.383C1050.25,755.601 1049.9,751.722 1046.31,750.483C1042.72,749.244 1035.54,749.935 1031.77,753.674C1018.15,757.812 1009.79,768.059 1001.78,776.668Z" fill="#06B0F8" stroke-linecap="round" fill-opacity="0" stroke-linejoin="round" />
		<path stroke="#0CB2F8" stroke-width="3.2" d="M1465.88,772.38C1467.22,772.182 1469.66,772.435 1471.61,772.478C1473.56,772.52 1475.54,771.878 1475.39,770.907C1476.85,770.473 1479.42,767.985 1480.98,765.449C1482.55,762.912 1482.64,760.031 1479.91,760.611C1475.15,761.692 1474.56,768.477 1468.21,766.664C1465.4,758.584 1468.87,738.815 1465.98,732.602C1470.25,744.772 1456,764.413 1465.88,772.38Z" fill="#0CB2F8" stroke-linecap="round" fill-opacity="0" stroke-linejoin="round" />
		<path stroke="#10B2F8" stroke-width="3.2" d="M1286.65,762.187C1287.57,762.232 1289.47,762.516 1290.63,762.418C1291.78,762.319 1292.77,761.327 1292.23,760.678C1288.58,760.084 1288.81,757.852 1290.28,755.128C1291.74,752.405 1294.4,749.868 1296.18,749.355C1300.21,745.475 1305.22,741.035 1309.19,738.347C1314.36,736.291 1317.45,730.462 1321.25,728.311C1323.13,724.348 1329.52,722.581 1328.39,716.914C1331.92,712.192 1337.35,708.247 1340.33,704.22C1340.96,699.524 1337.84,700.102 1335.19,702.693C1332.53,705.284 1329.6,709.669 1329.6,711.001C1329.22,718.996 1318.61,710.719 1316.64,715.839C1313.84,718.493 1308.71,716.757 1307.7,717.739C1309.2,722.288 1316.29,720.792 1318.14,719.372C1323.43,719.408 1321.16,722.08 1317.79,725.852C1314.42,729.623 1309.47,733.932 1308.65,735.811C1299.84,742.015 1283.48,750.809 1286.65,762.187Z" fill="#10B2F8" stroke-linecap="round" fill-opacity="0" stroke-linejoin="round" />
		<path stroke="#17B5F8" stroke-width="3.2" d="M893.709,751.728L896.398,751C902.227,744.142 910.032,738.747 916.16,733.365L913.602,733C905.33,737.754 897.483,743.649 893.709,751.728Z" fill="#17B5F8" stroke-linecap="round" fill-opacity="0" stroke-linejoin="round" />
		<path stroke="#1CB6F9" stroke-width="3.2" d="M694.844,740.634C699.586,738.495 709.783,740.319 711.312,736.247C704.754,736.569 696.966,737.155 694.844,740.634Z" fill="#1CB6F9" stroke-linecap="round" fill-opacity="0" stroke-linejoin="round" />
		<path stroke="#1BB6F9" stroke-width="3.2" d="M913.773,732.673L915.602,733C917.243,733.001 920.94,731.117 922.227,729.327L920.398,729C918.757,728.999 915.06,730.883 913.773,732.673Z" fill="#1BB6F9" stroke-linecap="round" fill-opacity="0" stroke-linejoin="round" />
		<path stroke="#02AFF8" stroke-width="3.2" d="M1048.6,729.988L1051.4,729C1059.68,726.639 1056.91,712.371 1062.28,708.288C1064.89,702.307 1068.09,695.258 1070.36,690.172C1073.37,686.308 1075.99,680.48 1078.33,677.222C1079.97,673.019 1083.37,668.847 1085.31,666.251C1090.16,661.821 1095.66,656.707 1099.29,652.277C1103.01,649.934 1110.94,645.103 1107.34,639.792C1108.15,618.459 1084.13,616.466 1066.01,622.263C1047.9,628.061 1035.38,642.254 1058.01,651.398C1051.92,648.375 1053.49,644.041 1056.93,641.298C1060.37,638.555 1065.46,637.345 1067.79,640.34C1072.22,640.183 1074.06,645.206 1073.84,650.31C1073.62,655.414 1071.76,659.919 1067.21,658.66C1065.92,655.839 1061.45,653.822 1059.93,652.607C1059.44,653.561 1060.46,655.876 1062.07,657.326C1063.67,658.776 1065.72,660.092 1066.79,660.339C1070.48,678.228 1049,703.982 1048.6,729.988Z" fill="#02AFF8" stroke-linecap="round" fill-opacity="0" stroke-linejoin="round" />
		<path stroke="#1AB5F9" stroke-width="3.2" d="M919.678,728.766L921.602,729C923.401,729.521 925.748,726.843 928.039,726.396L926.398,725C924.674,724.916 920.497,726.507 919.678,728.766Z" fill="#1AB5F9" stroke-linecap="round" fill-opacity="0" stroke-linejoin="round" />
		<path stroke="#18B5F9" stroke-width="3.2" d="M928.398,726C931.353,723.709 936.49,721.167 939.202,717.343C934.277,718.019 929.88,721.759 925.866,724.625L928.398,726Z" fill="#18B5F9" stroke-linecap="round" fill-opacity="0" stroke-linejoin="round" />
		<path stroke="#12B3F8" stroke-width="3.2" d="M938.692,716.748C942.284,715.188 946.567,712.327 947.308,709.252C943.716,710.812 939.433,713.673 938.692,716.748Z" fill="#12B3F8" stroke-linecap="round" fill-opacity="0" stroke-linejoin="round" />
		<path stroke="#12B3F8" stroke-width="3.2" d="M1238.71,713.726L1240.4,713C1245.42,709.764 1248.13,703.107 1251.3,699.267C1254.12,696.94 1255.72,691.628 1258.23,690.322C1260.05,687.676 1262.73,683.799 1264.3,682.266C1266.64,677.73 1272.4,674.602 1272.4,669C1266.72,671.232 1263.6,677.906 1259.74,680.701C1252.58,691.635 1244.16,702.209 1238.71,713.726Z" fill="#12B3F8" stroke-linecap="round" fill-opacity="0" stroke-linejoin="round" />
		<path stroke="#0FB3F8" stroke-width="3.2" d="M948.832,707.361C950.074,707.619 951.809,706.625 952.5,705.746C953.192,704.868 953.146,703.369 952.139,703.627C951.83,702.436 950.408,703.157 949.624,704.128C948.84,705.1 948.387,707.056 948.832,707.361Z" fill="#0FB3F8" stroke-linecap="round" fill-opacity="0" stroke-linejoin="round" />
		<path stroke="#A1E1FC" stroke-width="3.2" d="M1400.78,696.667C1405.01,696.084 1413.87,698.44 1415.22,696.333C1410.99,696.916 1402.13,694.56 1400.78,696.667Z" fill="#A1E1FC" stroke-linecap="round" fill-opacity="0" stroke-linejoin="round" />
		<path stroke="#84D8FC" stroke-width="3.2" d="M1399.88,692.619C1405.46,692.005 1415.32,694.476 1418.12,692.381C1412.54,692.995 1402.68,690.524 1399.88,692.619Z" fill="#84D8FC" stroke-linecap="round" fill-opacity="0" stroke-linejoin="round" />
		<path stroke="#18B5F9" stroke-width="3.2" d="M56.8786,691.621C60.0609,690.571 58.9925,689.414 57.0356,688.721C55.0786,688.029 52.1251,688.504 52.7705,689.325C48.7497,689.672 50.2465,690.097 52.4271,690.566C54.6077,691.035 57.5803,690.843 56.8786,691.621Z" fill="#18B5F9" stroke-linecap="round" fill-opacity="0" stroke-linejoin="round" />
		<path stroke="#11B3F8" stroke-width="3.2" d="M45.9769,688.397L49.3982,687C40.9043,684.166 28.5125,683.16 18.9295,682.608C26.231,685.954 37.5158,687.414 45.9769,688.397Z" fill="#11B3F8" stroke-linecap="round" fill-opacity="0" stroke-linejoin="round" />
		<path stroke="#0DB2F8" stroke-width="3.2" d="M1226.61,686.942L1229.4,686C1231.55,681.963 1233.71,676.481 1235.33,673.216C1237.98,671.749 1240.16,668.068 1242.18,667.356C1243.77,666.138 1249.54,661.617 1253.1,658.196C1256.66,654.775 1257.65,651.745 1250.81,654.648C1239.89,662.486 1227.82,670.519 1226.61,686.942Z" fill="#0DB2F8" stroke-linecap="round" fill-opacity="0" stroke-linejoin="round" />
		<path stroke="#03B0F8" stroke-width="3.2" d="M980.856,669.371C981.948,669.264 984.046,669.472 985.623,669.464C987.201,669.456 988.741,668.652 988.338,667.79C991.917,665.933 992.255,661.12 990.515,657.025C988.775,652.931 984.491,649.389 979.871,650.623C974.59,652.936 973.47,656.91 974.482,660.324C975.494,663.739 978.622,667.34 980.856,669.371Z" fill="#03B0F8" stroke-linecap="round" fill-opacity="0" stroke-linejoin="round" />
		<path stroke="#19B5F8" stroke-width="3.2" d="M1196.74,666.695L1199.4,666C1210.25,656.737 1225.11,651.266 1234.19,641.349L1231.6,641C1220.84,650.687 1203.95,654.572 1196.74,666.695Z" fill="#19B5F8" stroke-linecap="round" fill-opacity="0" stroke-linejoin="round" />
		<path stroke="#7CD5FB" stroke-width="3.2" d="M36.925,662.609C43.8852,662.001 54.8146,664.437 59.075,662.391C52.1148,662.999 41.1854,660.563 36.925,662.609Z" fill="#7CD5FB" stroke-linecap="round" fill-opacity="0" stroke-linejoin="round" />
		<path stroke="#FEFFFF" stroke-width="3.2" d="M1066.68,659.23C1071.23,660.489 1074.41,655.448 1074.63,650.344C1074.85,645.241 1072.57,639.471 1068.14,639.627C1065.81,636.633 1059.87,637.933 1056.43,640.676C1052.99,643.418 1051.81,648.364 1057.9,651.386L1059.6,653C1061.12,654.215 1065.38,656.409 1066.68,659.23Z" fill="#FEFFFF" stroke-linecap="round" fill-opacity="0" stroke-linejoin="round" />
		<path stroke="#18B4F8" stroke-width="3.2" d="M38.8019,649.655L41.3982,649C46.0629,641.997 45.8548,629.726 56.0064,629.398L56.3982,627C41.7271,625.694 44.4819,643.139 38.8019,649.655Z" fill="#18B4F8" stroke-linecap="round" fill-opacity="0" stroke-linejoin="round" />
		<path stroke="#12B3F8" stroke-width="3.2" d="M119.697,648.258L121.398,647C122.698,642.496 117.655,638.823 112.475,637.933C107.294,637.044 101.304,638.648 100.727,643.71C104.626,638.852 116.365,640.438 119.697,648.258Z" fill="#12B3F8" stroke-linecap="round" fill-opacity="0" stroke-linejoin="round" />
		<path stroke="#09B1F8" stroke-width="3.2" d="M291.604,648.04C296.339,648.048 297.9,644.924 296.985,642.066C296.069,639.208 293.067,636.177 290.995,636.602C286.32,635.773 286.197,638.584 287.602,641.281C289.008,643.978 291.552,646.998 291.604,648.04Z" fill="#09B1F8" stroke-linecap="round" fill-opacity="0" stroke-linejoin="round" />
		<path stroke="#1CB6F9" stroke-width="3.2" d="M1231.86,640.626L1234.4,641C1240.03,636.843 1246.9,632.159 1251.11,625.382C1244.71,629.456 1238.62,635.712 1231.86,640.626Z" fill="#1CB6F9" stroke-linecap="round" fill-opacity="0" stroke-linejoin="round" />
		<path stroke="#0BB1F8" stroke-width="3.2" d="M149.938,640.393C150.931,640.352 152.752,640.494 154.127,640.447C155.502,640.401 156.824,639.554 156.333,638.781C160.273,633.747 156.107,632.771 151.195,632.506C146.282,632.241 140.66,632.757 140.369,629.851C136.841,631.901 138.003,634.616 141.005,636.467C144.007,638.317 148.418,639.847 149.938,640.393Z" fill="#0BB1F8" stroke-linecap="round" fill-opacity="0" stroke-linejoin="round" />
		<path stroke="#17B4F8" stroke-width="3.2" d="M871.765,635.322L874.398,634C870.912,628.204 867.269,620.93 864.343,615.799C861.804,612.149 860.328,605.518 857.258,603.697C856.069,599.735 851.525,597.673 851.398,593.984C848.544,591.339 845.239,586.801 843.206,584.659C837.795,584.087 838.983,586.675 842.044,589.547C845.104,592.419 849.435,595.938 849.603,599.023C856.915,611.15 864.317,624.453 871.765,635.322Z" fill="#17B4F8" stroke-linecap="round" fill-opacity="0" stroke-linejoin="round" />
		<path stroke="#03B0F8" stroke-width="3.2" d="M1112.84,632.366C1113.84,632.325 1115.75,632.494 1117.13,632.447C1118.5,632.401 1119.82,631.549 1119.33,630.775C1121.67,628.308 1126.58,626.808 1127.37,624.141C1129.23,622.962 1134.39,619.63 1137.93,616.432C1141.47,613.234 1143.06,609.631 1138.04,609.603C1129.06,608.026 1119.43,610.783 1113.87,615.263C1108.31,619.743 1106.64,626.708 1112.84,632.366Z" fill="#03B0F8" stroke-linecap="round" fill-opacity="0" stroke-linejoin="round" />
		<path stroke="#0EB3F8" stroke-width="3.2" d="M55.6018,629C57.166,629.399 59.5041,628.242 59.8977,627.241C60.2913,626.24 59.0401,625.009 55.9014,626.614L55.6018,629Z" fill="#0EB3F8" stroke-linecap="round" fill-opacity="0" stroke-linejoin="round" />
		<path stroke="#A1E1FD" stroke-width="3.2" d="M457.626,622.136C458.967,621.938 461.658,622.435 463.61,622.478C465.562,622.52 467.525,621.835 467.374,620.864C466.033,621.062 463.342,620.565 461.39,620.522C459.438,620.48 457.475,621.165 457.626,622.136Z" fill="#A1E1FD" stroke-linecap="round" fill-opacity="0" stroke-linejoin="round" />
		<path stroke="#8EDBFC" stroke-width="3.2" d="M481.626,618.136C482.967,617.938 485.658,618.435 487.61,618.478C489.562,618.52 491.525,617.835 491.374,616.864C490.033,617.062 487.342,616.565 485.39,616.522C483.438,616.48 481.475,617.165 481.626,618.136Z" fill="#8EDBFC" stroke-linecap="round" fill-opacity="0" stroke-linejoin="round" />
		<path stroke="#1BB6F9" stroke-width="3.2" d="M1263.69,618.251C1266.55,618.032 1269.52,614.709 1269.39,612.944C1266.35,612.977 1262.72,615.636 1263.69,618.251Z" fill="#1BB6F9" stroke-linecap="round" fill-opacity="0" stroke-linejoin="round" />
		<path stroke="#1CB6F9" stroke-width="3.2" d="M810.697,602.742C813.179,600.765 817.076,598.325 818.193,596.348C814.874,597.488 811.116,600.068 810.697,602.742Z" fill="#1CB6F9" stroke-linecap="round" fill-opacity="0" stroke-linejoin="round" />
		<path stroke="#FEFFFF" stroke-width="3.2" d="M1313.68,599.234L1317.4,598C1322,597.786 1322.75,593.378 1322.6,588.234C1322.45,583.089 1321.39,577.325 1322.38,574.117C1321.01,568.958 1318.33,562.719 1313.16,562.636C1311.45,559.538 1305.56,558.979 1304.32,556.761C1300.59,554.994 1294.81,553.172 1292.17,551.638C1284.09,549.143 1284.09,551.713 1286.48,555.204C1288.88,558.695 1293.1,563.41 1292.61,566.943C1297.65,579.655 1309.24,587.046 1313.68,599.234Z" fill="#FEFFFF" stroke-linecap="round" fill-opacity="0" stroke-linejoin="round" />
		<path stroke="#02AFF8" stroke-width="3.2" d="M1121.95,590.395C1123.04,590.287 1125.05,590.472 1126.62,590.464C1128.2,590.456 1129.66,589.559 1129.26,588.697C1137.41,590.237 1140.08,587.277 1139.81,583.399C1139.53,579.522 1136.25,574.677 1133.19,573.648C1128.54,569.357 1123.28,564.379 1119.26,560.695C1114.93,557.791 1107.53,556.254 1104.18,553.647C1099.35,552.634 1094.67,549.642 1091.15,548.629C1087.81,546.816 1082.82,544.776 1080.15,543.631C1072.9,540.92 1062.18,540.691 1059.34,534.787C1054.17,532.043 1050.56,525.566 1043.83,525.641C1041.63,532.402 1051.77,534.431 1054.73,537.293C1058.55,540.357 1064.75,542.471 1066.64,546.177C1071.27,559.303 1088.34,561.11 1097.76,568.314C1106.28,575.183 1111.48,586.625 1121.95,590.395Z" fill="#02AFF8" stroke-linecap="round" fill-opacity="0" stroke-linejoin="round" />
		<path stroke="#16B5F8" stroke-width="3.2" d="M560.87,588.624C569.127,586.898 559.77,580.694 564.14,576.373C556.279,577.703 563.213,586.33 560.87,588.624Z" fill="#16B5F8" stroke-linecap="round" fill-opacity="0" stroke-linejoin="round" />
		<path stroke="#13B3F8" stroke-width="3.2" d="M1162.73,587.709L1164.6,587C1175.71,587.155 1189.14,584.595 1194.05,582.395C1185.88,583.794 1165.49,582.549 1162.73,587.709Z" fill="#13B3F8" stroke-linecap="round" fill-opacity="0" stroke-linejoin="round" />
		<path stroke="#21B7F9" stroke-width="3.2" d="M1209.67,570.227C1210.91,569.928 1213.17,569.738 1214.49,569.15C1215.81,568.562 1216.79,567.052 1216.27,565.704C1215.07,566.045 1212.98,566.428 1211.7,567.064C1210.43,567.701 1209.38,569.114 1209.67,570.227Z" fill="#21B7F9" stroke-linecap="round" fill-opacity="0" stroke-linejoin="round" />
		<path stroke="#0FB3F8" stroke-width="3.2" d="M1048.81,569.352C1050.91,569.933 1053.17,568.365 1054.01,566.651C1054.84,564.936 1054.53,562.335 1053.09,561.613C1051.26,561.634 1049.18,563.115 1048.32,564.63C1047.47,566.145 1047.54,568.433 1048.81,569.352Z" fill="#0FB3F8" stroke-linecap="round" fill-opacity="0" stroke-linejoin="round" />
		<path stroke="#1EB7F9" stroke-width="3.2" d="M878.654,561.803C882.036,560.38 887.273,558.394 887.394,555.059C884.398,556.869 879.162,558.855 878.654,561.803Z" fill="#1EB7F9" stroke-linecap="round" fill-opacity="0" stroke-linejoin="round" />
		<path stroke="#5BCBFA" stroke-width="3.2" d="M82.8322,554.639C84.7969,552.837 83.6022,546.164 84.1678,544.361C82.2031,546.163 83.3978,552.836 82.8322,554.639Z" fill="#5BCBFA" stroke-linecap="round" fill-opacity="0" stroke-linejoin="round" />
		<path stroke="#4AC6FA" stroke-width="3.2" d="M1250.63,552.136C1251.97,551.938 1254.66,552.435 1256.61,552.478C1258.56,552.52 1260.52,551.835 1260.37,550.864C1259.03,551.062 1256.34,550.565 1254.39,550.522C1252.44,550.48 1250.48,551.165 1250.63,552.136Z" fill="#4AC6FA" stroke-linecap="round" fill-opacity="0" stroke-linejoin="round" />
		<path stroke="#0AB1F8" stroke-width="3.2" d="M927.961,537.604L931.398,537C938.247,534.566 949.014,535.237 954.186,532.352C959.068,530.011 965.919,528.123 970.128,526.377C974.797,525.201 980.416,523.155 984.159,522.365C987.322,519.684 994.073,518.941 997.059,517.394C1004.76,518.909 1008.49,514.768 1014.01,515.398C1024.37,513.636 1026.86,521.126 1033.95,521.395C1038.79,522.489 1039.31,519.882 1037.79,517.612C1036.28,515.343 1032.81,512.621 1031.04,512.604C990.609,504.687 961.867,530.9 927.961,537.604Z" fill="#0AB1F8" stroke-linecap="round" fill-opacity="0" stroke-linejoin="round" />
		<path stroke="#17B4F8" stroke-width="3.2" d="M809.036,451.397C809.999,450.777 813.128,449.614 815.121,448.464C817.113,447.313 817.825,445.395 814.891,444.617C813.987,445.84 811.113,446.841 809.185,447.774C807.256,448.707 806.419,450.35 809.036,451.397Z" fill="#17B4F8" stroke-linecap="round" fill-opacity="0" stroke-linejoin="round" />
		<path stroke="#19B5F9" stroke-width="3.2" d="M144.643,420.176L146.398,419C144.981,416.088 148.173,409.969 152.869,411.376C158.275,413.597 165.312,409.479 169.402,405.658C173.493,401.836 174.505,397.636 169.737,400.701C165.243,413.19 139.258,398.387 144.643,420.176Z" fill="#19B5F9" stroke-linecap="round" fill-opacity="0" stroke-linejoin="round" />
		<path stroke="#4CC6FA" stroke-width="3.2" d="M1154.63,416.136C1155.97,415.938 1158.66,416.435 1160.61,416.478C1162.56,416.52 1164.52,415.835 1164.37,414.864C1163.03,415.062 1160.34,414.565 1158.39,414.522C1156.44,414.48 1154.48,415.165 1154.63,416.136Z" fill="#4CC6FA" stroke-linecap="round" fill-opacity="0" stroke-linejoin="round" />
		<path stroke="#15B4F8" stroke-width="3.2" d="M869.854,414.63L872.398,414C879.778,411.415 886.535,407.502 892.152,404.368C894.355,403.837 897.269,401.458 899.894,399.792C902.519,398.126 904.654,397.2 905.95,399.395C908.763,396.363 912.17,392.007 916.085,391.389C919.813,390.311 925.149,388.788 927.175,387.358C931.374,386.405 933.663,381.788 938.081,382.39C941.611,380.076 946.288,377.134 950.078,376.39C956.928,374.985 963.264,371.547 969.109,370.383C973.854,368.532 973.452,366.445 971.574,365.999C969.695,365.554 965.948,366.086 964.717,367.72C932.223,382.492 896.92,393.279 869.854,414.63Z" fill="#15B4F8" stroke-linecap="round" fill-opacity="0" stroke-linejoin="round" />
		<path stroke="#18B5F9" stroke-width="3.2" d="M146.75,406.31C148.614,404.752 152.708,402.213 152.38,399.881C149.283,400.206 146.207,403.762 146.75,406.31Z" fill="#18B5F9" stroke-linecap="round" fill-opacity="0" stroke-linejoin="round" />
		<path stroke="#0AB2F8" stroke-width="3.2" d="M1104.6,396.968L1107.4,396C1105.02,395.295 1103.19,391.163 1102.1,390.614L1100.6,392C1101.34,394.001 1104.66,395.635 1104.6,396.968Z" fill="#0AB2F8" stroke-linecap="round" fill-opacity="0" stroke-linejoin="round" />
		<path stroke="#21B8F9" stroke-width="3.2" d="M852.602,391.992C857.797,392.727 861.006,389.178 862.24,387.318C857.769,387.306 852.638,388.933 852.602,391.992Z" fill="#21B8F9" stroke-linecap="round" fill-opacity="0" stroke-linejoin="round" />
		<path stroke="#09B1F8" stroke-width="3.2" d="M1099.76,392.316L1101,392L1102.4,391C1099.12,386.924 1096.17,379.123 1090.08,376.61L1087.6,377C1091.14,381.17 1096.22,386.915 1099.76,392.316Z" fill="#09B1F8" stroke-linecap="round" fill-opacity="0" stroke-linejoin="round" />
		<path stroke="#09B1F8" stroke-width="3.2" d="M1086.83,377.362L1088,377L1090.4,377C1088.52,374.531 1085.17,372.004 1083.72,371.548C1082.28,371.091 1082.18,373.067 1086.83,377.362Z" fill="#09B1F8" stroke-linecap="round" fill-opacity="0" stroke-linejoin="round" />
		<path stroke="#04B0F8" stroke-width="3.2" d="M194.602,371.001C196.084,370.772 198.972,371.421 201.102,371.479C203.231,371.537 205.399,371.002 205.398,369.999C203.916,370.228 201.028,369.579 198.898,369.521C196.769,369.463 194.601,369.998 194.602,371.001Z" fill="#04B0F8" stroke-linecap="round" fill-opacity="0" stroke-linejoin="round" />
		<path stroke="#0FB3F8" stroke-width="3.2" d="M1076.87,369.375L1079.4,368C1077.41,364.494 1072.15,361.893 1069.21,360.661C1063.72,354.479 1054.36,350.671 1041.94,352.606C1055.24,354.317 1067.47,362.629 1076.87,369.375Z" fill="#0FB3F8" stroke-linecap="round" fill-opacity="0" stroke-linejoin="round" />
		<path stroke="#27B9F9" stroke-width="3.2" d="M237.805,363.347C240.558,364.156 243.518,363.197 244.848,362.276C246.179,361.354 246.003,359.731 243.928,360.608C241.126,360.463 238.5,360.053 237.114,360.137C235.727,360.221 235.457,361.538 237.805,363.347Z" fill="#27B9F9" stroke-linecap="round" fill-opacity="0" stroke-linejoin="round" />
		<path stroke="#C0EBFD" stroke-width="3.2" d="M1017.85,355.633C1022.74,355.028 1032.09,357.476 1034.15,355.367C1029.26,355.972 1019.91,353.524 1017.85,355.633Z" fill="#C0EBFD" stroke-linecap="round" fill-opacity="0" stroke-linejoin="round" />
		<path stroke="#1BB6F9" stroke-width="3.2" d="M175.888,337.618C178.141,337.095 178.149,336.12 177.25,334.943C176.351,333.766 174.942,333.048 175.285,332.279C172.788,332.484 172.569,333.802 173.515,335.186C174.461,336.571 176.176,337.361 175.888,337.618Z" fill="#1BB6F9" stroke-linecap="round" fill-opacity="0" stroke-linejoin="round" />
		<path stroke="#58CBFA" stroke-width="3.2" d="M169.833,327.638C171.829,326.212 170.589,319.789 171.167,318.362C169.171,319.788 170.411,326.211 169.833,327.638Z" fill="#58CBFA" stroke-linecap="round" fill-opacity="0" stroke-linejoin="round" />
		<path stroke="#12B3F8" stroke-width="3.2" d="M298.974,326.397L299.602,325C306.306,326.974 319.172,326.042 323.127,323.377L321.398,323C317.651,322.665 307.223,322.436 300.411,322.978C293.599,323.521 289.979,325.232 298.974,326.397Z" fill="#12B3F8" stroke-linecap="round" fill-opacity="0" stroke-linejoin="round" />
		<path stroke="#10B3F8" stroke-width="3.2" d="M320.953,322.605L322.602,323C324.188,323.668 327.98,322.153 328.371,320.144L327,320L326.602,319C325.501,319.54 323.445,322.018 320.953,322.605Z" fill="#10B3F8" stroke-linecap="round" fill-opacity="0" stroke-linejoin="round" />
		<path stroke="#11B3F8" stroke-width="3.2" d="M327,320L328.398,320C332.191,318.604 337.801,309.252 333.964,304.603C332.049,308.29 331.513,316.341 326.905,318.613L327,320Z" fill="#11B3F8" stroke-linecap="round" fill-opacity="0" stroke-linejoin="round" />
		<path stroke="#45C3FA" stroke-width="3.2" d="M219.845,315.633C221.871,314.581 220.568,308.42 221.155,307.367C219.129,308.419 220.432,314.58 219.845,315.633Z" fill="#45C3FA" stroke-linecap="round" fill-opacity="0" stroke-linejoin="round" />
		<path stroke="#36BFF9" stroke-width="3.2" d="M200.845,254.633C202.871,253.581 201.568,247.42 202.155,246.367C200.129,247.419 201.432,253.58 200.845,254.633Z" fill="#36BFF9" stroke-linecap="round" fill-opacity="0" stroke-linejoin="round" />
		<path stroke="#0EB2F8" stroke-width="3.2" d="M1119.66,224.799L1121.4,224C1124.61,217.06 1119.12,211.906 1114.98,210.602C1105.47,214.513 1098.47,208.129 1095.32,203.762C1091.99,199.865 1083.3,199.24 1076.99,199.602C1069.14,199.664 1062.55,202.628 1057.88,204.62C1056.08,204.967 1052.91,205.537 1050.39,206.238C1047.87,206.939 1045.94,208.5 1046.81,209.351C1053.81,209.813 1059.36,206.869 1064.12,206.38C1077.4,198.359 1095.08,204.366 1101.71,213.276C1104.33,214.567 1110.02,214.306 1114.36,215.296C1118.7,216.286 1121.64,218.051 1119.66,224.799Z" fill="#0EB2F8" stroke-linecap="round" fill-opacity="0" stroke-linejoin="round" />
		<path stroke="#1EB6F9" stroke-width="3.2" d="M168.617,211.893C171.461,211.339 171.613,209.89 170.401,208.771C169.189,207.652 166.604,207.039 166.608,207.068C163.814,208.13 164.503,209.396 165.715,210.261C166.926,211.125 168.671,211.412 168.617,211.893Z" fill="#1EB6F9" stroke-linecap="round" fill-opacity="0" stroke-linejoin="round" />
		<path stroke="#15B3F8" stroke-width="3.2" d="M1005.69,202.75L1008.4,202C1009.28,195.737 1002.63,187.518 1000.28,182.722L999,183L996.602,181C995.723,183.992 999.137,187.899 1001.15,190.867C1003.17,193.835 1004.12,195.473 997.931,195.608C994.634,196.757 997.445,197.312 1000.67,197.784C1003.89,198.256 1007.29,198.787 1005.69,202.75Z" fill="#15B3F8" stroke-linecap="round" fill-opacity="0" stroke-linejoin="round" />
		<path stroke="#19B5F8" stroke-width="3.2" d="M1052.81,197.349C1055.95,197.909 1057.72,196.907 1057.91,195.905C1058.09,194.903 1057.11,193.226 1056.23,192.675C1054.27,190.932 1052.53,191.794 1052.08,193.064C1051.63,194.335 1052.04,196.689 1052.81,197.349Z" fill="#19B5F8" stroke-linecap="round" fill-opacity="0" stroke-linejoin="round" />
		<path stroke="#20B7F9" stroke-width="3.2" d="M999,183L1000.4,183C1004.57,181.95 1005.71,180.022 1004.92,179.209C1004.13,178.396 1000.9,178.316 996.89,180.617L999,183Z" fill="#20B7F9" stroke-linecap="round" fill-opacity="0" stroke-linejoin="round" />
		<path stroke="#14B4F8" stroke-width="3.2" d="M1014.88,180.379C1018.1,181.73 1021.5,180.351 1022.95,179.112C1024.41,177.872 1023.94,176.006 1020.91,177.613C1017.59,177.452 1014.19,177.467 1012.55,177.767C1010.92,178.067 1011.03,179.418 1014.88,180.379Z" fill="#14B4F8" stroke-linecap="round" fill-opacity="0" stroke-linejoin="round" />
		<path stroke="#22B8F9" stroke-width="3.2" d="M981.301,173.739C982.311,173.797 982.644,172.377 982.51,170.915C982.376,169.452 981.188,167.933 980.713,168.724C979.352,169.016 979.302,170.767 979.665,172C980.029,173.233 981.392,173.964 981.301,173.739Z" fill="#22B8F9" stroke-linecap="round" fill-opacity="0" stroke-linejoin="round" />
		<path stroke="#09B1F8" stroke-width="3.2" d="M1026.65,167.814L1028.4,167C1032.55,153.908 1020.9,154.534 1014.11,153.616C1012.1,152.693 1012.53,149.902 1012.6,147.788C1012.67,145.675 1011.94,144.408 1009.67,147.785C1000.84,166.673 1030.69,152.533 1026.65,167.814Z" fill="#09B1F8" stroke-linecap="round" fill-opacity="0" stroke-linejoin="round" />
		<path stroke="#19B5F9" stroke-width="3.2" d="M956.602,146C961.847,146.573 963.521,145.301 962.587,144.417C961.652,143.532 958.43,142.644 955.925,143.609L954,145L956.602,146Z" fill="#19B5F9" stroke-linecap="round" fill-opacity="0" stroke-linejoin="round" />
		<path stroke="#75D3FB" stroke-width="3.2" d="M941.995,145.398C944.498,143.158 952.619,144.693 953.896,145.384L956.398,144C955.143,143.55 950.346,142.547 946.707,142.482C943.069,142.417 940.184,143.688 941.995,145.398Z" fill="#75D3FB" stroke-linecap="round" fill-opacity="0" stroke-linejoin="round" />
		<path stroke="#21B8F8" stroke-width="3.2" d="M1012.83,138.359L1014.4,137C1017.07,131.148 1024.02,137.56 1029.05,136.395C1036.92,136.167 1037.62,134.216 1035.45,133.432C1033.29,132.648 1028.13,132.248 1024.91,133.611C1017.6,133.704 1019.27,123.477 1014.16,122.636C1009.47,117.951 1008.5,119.482 1009.69,121.77C1010.88,124.057 1013.92,127.829 1015.84,128.364C1019,130.663 1017.2,131.536 1015.18,132.991C1013.15,134.446 1010.87,136.479 1012.83,138.359Z" fill="#21B8F8" stroke-linecap="round" fill-opacity="0" stroke-linejoin="round" />
		<path stroke="#4FC8FA" stroke-width="3.2" d="M840.866,132.625C846.1,132.014 855.704,134.479 858.134,132.375C852.9,132.986 843.296,130.521 840.866,132.625Z" fill="#4FC8FA" stroke-linecap="round" fill-opacity="0" stroke-linejoin="round" />
		<path stroke="#13B3F8" stroke-width="3.2" d="M1064.81,121.351C1065.73,121.396 1067.47,121.516 1068.63,121.418C1069.78,121.319 1070.62,120.26 1070.08,119.611C1076.09,123.033 1078.39,116.04 1083.1,116.384C1085.62,114.439 1089.13,111.415 1091.17,110.361C1099.81,106.886 1102.81,102.533 1101.94,101.136C1101.07,99.7381 1095.86,100.672 1089.7,106.736C1087.62,111.207 1081.14,114.199 1075.21,116.382C1069.28,118.564 1064.01,120.553 1064.81,121.351Z" fill="#13B3F8" stroke-linecap="round" fill-opacity="0" stroke-linejoin="round" />
		<path stroke="#11B3F8" stroke-width="3.2" d="M1090.63,117.153C1092.01,116.546 1095.08,115.583 1096.84,114.295C1098.61,113.006 1099.67,110.912 1098.23,109.674C1096.89,109.062 1094.53,110.065 1093.06,111.57C1091.6,113.075 1090.44,115.562 1090.63,117.153Z" fill="#11B3F8" stroke-linecap="round" fill-opacity="0" stroke-linejoin="round" />
		<path stroke="#1CB6F9" stroke-width="3.2" d="M975.893,113.383C977.519,113.364 978.706,111.779 978.893,110.529C979.08,109.279 978.221,107.611 977.848,107.632C977.102,108.53 975.953,109.678 975.409,110.572C974.866,111.465 974.972,112.856 975.893,113.383Z" fill="#1CB6F9" stroke-linecap="round" fill-opacity="0" stroke-linejoin="round" />
		<path stroke="#39BFF9" stroke-width="3.2" d="M383.607,86.9343C386.447,85.3147 389.077,81.2891 390.217,79.3341C386.55,80.1264 383.732,83.9653 383.607,86.9343Z" fill="#39BFF9" stroke-linecap="round" fill-opacity="0" stroke-linejoin="round" />
		<path stroke="#17B4F9" stroke-width="3.2" d="M1154.63,68.1362C1155.97,67.9379 1158.66,68.4353 1160.61,68.4777C1162.56,68.52 1164.52,67.8349 1164.37,66.8638C1163.03,67.0621 1160.34,66.5647 1158.39,66.5223C1156.44,66.48 1154.48,67.1651 1154.63,68.1362Z" fill="#17B4F9" stroke-linecap="round" fill-opacity="0" stroke-linejoin="round" />
		<path stroke="#11B3F8" stroke-width="3.2" d="M1045.66,63.2037C1047.26,63.434 1049.6,63.6053 1051.03,63.2908C1052.47,62.9762 1053.68,61.7684 1053.34,60.7963C1051.74,60.566 1049.4,60.3947 1047.97,60.7092C1046.53,61.0238 1045.32,62.2316 1045.66,63.2037Z" fill="#11B3F8" stroke-linecap="round" fill-opacity="0" stroke-linejoin="round" />
		<path stroke="#3EC1FA" stroke-width="3.2" d="M1074.68,61.2431C1077.1,61.2538 1081.32,59.9011 1081.39,59.057C1079.86,58.7245 1077.7,58.415 1076.51,58.8107C1075.32,59.2065 1074.39,60.4937 1074.68,61.2431Z" fill="#3EC1FA" stroke-linecap="round" fill-opacity="0" stroke-linejoin="round" />
		<path stroke="#10B2F8" stroke-width="3.2" d="M1034.9,57.6151C1037.28,56.851 1037.09,55.907 1036,55.3614C1034.92,54.8158 1032.65,55.0174 1032.6,55.964C1028.52,56.3561 1029.7,56.963 1031.39,57.2033C1033.08,57.4436 1035.58,56.9684 1034.9,57.6151Z" fill="#10B2F8" stroke-linecap="round" fill-opacity="0" stroke-linejoin="round" />
		<path stroke="#13B3F8" stroke-width="3.2" d="M504.94,53.6064C522.526,41.0936 533.382,20.5802 544.271,0.291339L539.602,0C530.011,19.1659 518.396,37.2232 504.94,53.6064Z" fill="#13B3F8" stroke-linecap="round" fill-opacity="0" stroke-linejoin="round" />
		<path stroke="#19B6F9" stroke-width="3.2" d="M360.898,13.6152C363.457,12.7865 363.006,12.0636 361.733,11.2603C360.461,10.457 358.698,10.2834 359.23,9.32536C356.39,9.87406 356.821,10.7658 358.221,11.6963C359.621,12.6269 361.658,12.8861 360.898,13.6152Z" fill="#19B6F9" stroke-linecap="round" fill-opacity="0" stroke-linejoin="round" />
		<path stroke="#1CB6F9" stroke-width="3.2" d="M1039.96,10.3965C1041.37,9.36736 1041.09,7.09454 1040.03,5.26327C1038.97,3.432 1037.56,1.56319 1037.39,-0.0826234L1032.6,0C1033.51,3.26917 1037.26,7.60204 1039.96,10.3965Z" fill="#1CB6F9" stroke-linecap="round" fill-opacity="0" stroke-linejoin="round" />
	</g>
	<g id="layer1">
		<path d="M47,789C47.3865,782.988 51.2454,770.082 49,761C46.6801,770.618 44.814,777.905 47,789ZM885,789C887.308,777.679 885.549,756.281 897,751C904.741,741.409 915.232,734.564 926,728C936.757,721.425 945.612,712.943 954,704C960.481,688.565 982.97,699.668 984,699C979.114,683.154 955.849,694.718 951,702C944.924,713.256 933.254,718.922 923,726C912.975,733.307 901.682,739.35 894,749C885.222,755.916 880.838,773.435 885,789ZM51,782C57.0787,776.302 56.1112,759.53 57,753C57.6953,741.518 60.4159,730.282 61,720C63.3419,710.165 65.289,698.155 67,689C68.1654,678.167 67.9046,665.903 71,657C71.1628,644.986 73.6824,633.548 75,624C75.439,612.262 80.8825,603.748 84,596C89.6192,588.39 85.5502,572.674 85,564C81.9588,553.178 85.3983,541.188 88,533C91.18,524.003 93.0366,511.903 96,504C100.676,496.499 102.997,484.863 112,483C115.351,479.173 112.286,472.764 118,462C116.087,448.088 128.342,448.341 134,442C143.776,439.599 148.287,430.153 148,419C144.067,406.717 165.1,413.098 169,406C175.288,400.111 178.166,389.032 186,386C187.462,378.251 193.27,361.535 184,376C187.565,387.661 172.943,390.04 171,398C171.328,407.107 148.682,409.34 150,404C156.602,398.425 162.894,390.76 166,383C168.918,373.92 173.172,366.171 178,359C183.189,350.718 180.437,335.794 175,331C169.753,321.382 176.482,308.151 177,300C179.905,290.728 181.342,278.208 184,270C186.1,260.101 189.269,251.268 192,242C194.782,232.604 197.388,221.254 202,215C205.245,206.068 207.85,194.716 210,186C211.11,174.932 216.937,166.803 216,155C211.829,154.962 211.451,172.663 208,179C205.191,188.368 203.805,200.939 201,209C196.067,216.066 193.829,225.831 191,235C188.733,244.91 184.267,254.401 182,263C180.465,273.464 176.963,281.964 176,293C173.539,302.716 170.144,313.278 170,324C170.542,334.672 181.121,341.094 177,352C173.673,360.85 168.508,369.642 165,377C161.834,385.833 157.371,393.373 151,399C143.192,404.355 144.998,418.562 144,427C142.562,437.739 129.833,438.967 124,444C112.658,444.835 116.706,462.84 113,470C110.032,482.691 98.1526,472.889 90,471C81.3845,467.438 73.0158,461.85 67,457C59.1314,452.691 52.5654,445.301 45,442C37.314,437.509 31.5517,429.314 24,426C11.7025,426.557 32.1625,436.034 35,439C41.9692,444.208 50.4719,449.662 57,454C63.5961,459.403 71.7297,463.271 78,469C85.6718,473.505 97.2493,475.885 103,481C100.667,490.665 94.7941,496.795 92,506C89.7543,515.931 86.0541,526.188 84,535C79.1072,541.883 81.0969,559.678 82,568C84.4854,578.705 85.1055,592.661 79,598C74.9511,605.95 72.315,615.316 71,626C69.4386,636.616 68.4582,649.592 66,658C51.8478,658.596 60.0754,638.045 62,633C61.5452,619.075 41.0365,629.63 43,637C40.1363,646.135 36.4096,654.411 32,662C37.1343,669.043 58.6168,661.517 64,667C63.9324,670.636 67.3445,697.263 57,689C48.7985,685.024 35.7399,684.126 26,683C11.6682,677.463 6.2428,682.882 24,685C33.7674,687.41 47.2876,687.846 55,691C67.9899,692.28 59.26,708.909 59,717C57.6361,727.813 54.6075,738.741 55,750C53.7636,760.762 52.6145,771.616 51,782ZM1002,777C1013.56,776.564 1017.82,768.814 1026,765C1034.22,761.221 1044.45,759.444 1048,751C1035.41,750.408 1027.89,754.894 1021,760C1013.18,764.175 1008.5,771.501 1002,777ZM1467,772C1482.06,776.91 1484.82,752.388 1474,766C1460.89,772.669 1468.43,750.409 1467,742C1468.34,728.484 1462.06,720.807 1457,715C1454.11,705.715 1442.14,703.725 1439,696C1430.59,692.235 1416.37,692.497 1406,692C1394.79,694.482 1381.24,692.228 1372,691C1366.12,684.707 1354.03,682.836 1349,677C1341.13,672.872 1335.81,666.189 1331,659C1326.16,651.662 1325.88,637.984 1322,631C1321.99,622.237 1312.01,608.358 1319,603C1329.96,601.784 1325.07,582.938 1327,574C1325.97,562.849 1316.28,558.587 1309,555C1301.22,551.827 1291.58,544.083 1282,547C1270.88,544.606 1258.67,548.207 1247,547C1236.35,549.07 1225.93,542.955 1219,540C1215.08,534.019 1205.98,524.793 1212,515C1216.59,508.048 1219.38,493.165 1214,486C1210.07,477.748 1204.27,469.596 1201,462C1197.96,452.865 1191.97,444.893 1189,437C1185.25,428.576 1177.82,422.049 1171,418C1162.77,414.054 1148.12,414.747 1141,411C1135.13,404.69 1119.31,406.554 1118,397C1114.72,388.099 1107.68,381.187 1103,375C1096.27,366.152 1103.77,356.359 1110,352C1119.03,348.854 1128.6,344.469 1127,332C1123.72,319.995 1127.87,308.331 1131,301C1134.14,291.962 1136.68,280.55 1137,270C1137.35,257.476 1133.01,247.858 1130,240C1123.63,234.196 1123.31,220.557 1119,214C1111.52,209.666 1097.68,212.745 1094,204C1089.5,197.28 1068.88,199.877 1064,203C1053.91,204.912 1045.91,208.916 1033,208C1022.97,205.855 1009.11,205.752 1007,197C1001.49,186.374 998.614,180.19 1011,180C1024.32,185.562 1029.55,172.415 1028,164C1032.06,149.701 1002.61,159.578 1015,144C1008.67,128.364 1032.82,140.484 1038,134C1037.6,118.589 1052.75,122.56 1057,130C1069.66,130.486 1074.48,121.345 1081,117C1088.06,112.062 1094.98,106.984 1103,103C1111.16,98.9828 1105.21,79.0789 1115,78C1124.6,75.4214 1138.7,75.57 1146,72C1153.34,69.1938 1178.64,67.2003 1154,67C1144.62,69.7937 1134.09,73.2224 1123,73C1112.98,76.448 1101.17,79.5978 1098,69C1093.59,62.4523 1084.1,54.5594 1073,59C1068.27,58.1905 1041.5,62.9548 1048,57C1053.75,51.4768 1052.58,35.128 1050,27C1051.01,18.025 1042.06,9.58551 1039,3C1026.57,-3.05701 1044.42,14.8287 1045,18C1048.42,24.3551 1047.68,40.0691 1047,49C1046.55,64.2653 1030.12,51.26 1028,55C1042.92,56.4998 1035.22,67.5064 1033,77C1030.95,91.225 1046.39,89.7412 1046,101C1045.38,112.56 1034.24,115.375 1037,129C1030.54,138.597 1016.42,130.227 1015,123C1009.63,116.197 1001.04,110.83 995,106C986.084,96.5777 975.165,105.909 974,114C969.09,134.024 979.864,110.192 981,106C992.067,102.902 998.945,113.41 1005,117C1012.47,124.601 1017.18,130.815 1012,135C1009.9,145.305 1005.32,159.568 1018,160C1032.89,157.335 1024.79,183.351 1014,177C1002.11,174.231 989.306,183.675 1002,191C996.693,199.974 986.197,188.088 986,180C982.596,171.227 979.251,160.615 974,155C972.849,143.974 960.58,142.286 950,142C941.167,143.09 924.679,149.114 921,140C914.781,133.949 921.178,156.286 909,141C925.938,137.718 902.125,135.117 894,135C880.435,136.388 870.033,132.833 860,132C854.432,131.288 827.105,128.923 837,133C848.472,133.705 861.42,134.714 870,137C877.104,137.842 906.359,136.697 891,141C883.73,145.907 874.145,150.279 868,155C859.796,158.973 850.624,163.758 842,166C833.585,169.762 821.923,172.057 815,176C799.736,185.67 823.936,175.264 828,174C837.35,171.173 848.398,168.264 855,164C863.791,160.792 871.239,156.238 879,152C885.631,146.454 896.828,143.694 904,140C911.307,144.469 918.674,152.908 924,155C929.36,164.857 918.752,173.825 914,178C907.369,183.546 904.147,194.281 901,202C904.675,209.111 908.636,187.108 913,185C915.434,175.257 930.309,176.175 930,165C940.827,163.65 934.796,143.662 947,145C958.583,147.008 968.702,143.35 970,156C976.769,161.408 979.425,172.709 983,180C983.183,191.594 994.713,195.869 993,205C994.135,215.159 999.927,183.505 1007,204C1014.71,209.686 1032,206.65 1019,219C1021.4,220.623 1027,203.69 1042,211C1052.3,209.121 1063.61,206.477 1072,204C1083.25,200.717 1095.32,206.034 1099,212C1105.52,217.478 1124.19,210.814 1120,227C1123.64,235.541 1127.94,245.195 1131,253C1134.38,264.114 1131.88,275.422 1131,286C1123.38,290.555 1122.9,304.035 1122,314C1121.02,325.198 1125.4,343.538 1116,345C1107.12,348.301 1098.37,353.505 1096,362C1089.57,372.923 1101.28,380.79 1105,386C1115.13,393.421 1113.32,404.952 1104,392C1099.63,384.368 1092.87,379.129 1087,373C1081.25,366.577 1071.98,361.883 1065,358C1058.87,351.949 1045.16,351.703 1034,352C1023.2,353.372 1009.13,353.265 1002,357C992.313,359.49 978.675,359.809 973,365C963.781,367.958 953.097,371.231 946,375C937.089,378.266 928.443,383.577 921,387C911.804,389.981 901.959,394.093 895,398C885.613,400.612 879.703,406.704 872,411C864.863,416.04 853.976,419.11 849,425C841.607,429.784 831.74,433.874 826,439C818.018,443.195 808.671,447.805 802,452C793.517,455.695 786.103,462.237 778,465C771.56,470.737 761.92,475.054 755,479C747.717,483.895 738.031,488.165 731,492C723.242,496.419 714.944,502.078 707,505C699.959,509.957 691.448,513.449 684,518C676.371,522.548 667.881,528.015 660,531C651.414,534.591 643.677,540.811 637,545C629.036,549.213 621.153,555.287 614,559C604.656,561.833 595.479,566.613 590,572C581.364,575.541 572.906,581.04 565,584C561.9,563.873 561.291,589.347 557,589C549.826,594.003 540.386,598.52 534,603C525.27,606.269 517.204,610.206 508,613C497.501,614.679 487.771,618.905 477,619C465.534,618.289 452.821,617.045 444,615C432.952,613.871 423.267,609.599 415,607C405.765,604.058 394.392,601.474 387,598C379.503,593.32 369.704,589.162 363,585C354.886,580.937 344.378,577.488 337,574C328.681,570.142 317.822,567.044 310,564C301.052,560.949 293.142,556.857 285,553C275.65,550.173 264.602,547.264 258,543C250.144,538.679 241.44,533.426 233,531C224.58,527.243 214.307,523.559 207,520C199.239,515.584 187.127,513.739 181,509C172.3,505.522 162.817,501.049 155,498C140.447,494.748 155.16,482.529 157,477C160.714,468.537 168.452,462.318 170,453C173.635,444.636 180.815,439.814 184,431C188.661,423.484 192.521,413.387 198,408C203.923,401.746 213.961,397.827 221,394C229.904,390.726 240.737,387.603 248,384C256.63,380.453 263.863,373.729 271,370C276.891,363.714 287.307,360.173 293,355C301.635,351.457 309.079,344.945 317,342C321.065,333.887 333.928,332.794 339,327C344.273,320.274 352.904,316.902 356,308C360.574,300.397 363.133,288.999 365,280C368.282,271.105 370.038,258.904 374,252C375.798,241.621 379.414,231.28 382,223C383.48,212.303 388.585,203.451 390,194C392.266,184.089 394.664,172.53 398,165C401.066,155.889 404.375,145.241 409,139C414.623,132.446 420.334,124.2 428,121C432.782,113.784 443.534,112.532 449,106C456.204,101.027 464.999,95.8655 472,92C478.877,86.6998 487.655,81.5207 492,75C498.828,69.6513 504.728,61.5941 508,54C513.13,46.9526 519.973,39.8394 525,34C528.791,25.6136 535.479,18.345 538,10C548.127,-6.35986 535.249,2.90863 533,12C529.134,20.3115 523.973,29.1068 519,35C513.78,41.7792 508.871,48.8726 503,55C499.134,63.3112 491.823,69.9567 487,76C481.065,82.2424 472.459,87.5925 465,91C457.762,95.9388 449.779,101.913 443,106C436.391,111.568 426.704,115.838 421,121C414.662,126.84 407.818,133.952 404,141C398.263,147.44 397.417,160.551 393,167C390.819,176.997 388.247,188.381 386,197C383.515,206.514 379.719,214.72 378,225C374.133,233.31 372.232,245.366 369,253C366.225,262.402 362.802,272.936 361,282C359.202,292.379 355.971,303.105 351,309C347.729,317.906 337.426,321.56 332,327C324.951,332.128 314.738,335.872 309,341C302.067,346.244 292.393,350.527 286,355C278.192,359.369 270.22,365.354 263,369C257.621,375.62 248.721,378.723 240,382C232.833,387.01 220.938,389.072 214,393C206.115,397.292 197.83,402.964 193,409C188.062,416.239 183.088,425.222 179,432C173.3,438.477 168.702,447.836 165,455C162.16,464.337 155.77,471.904 151,478C151.149,489.69 138.872,495.09 130,488C111.959,479.319 129.302,491.828 135,494C141.662,499.337 153.145,499.856 160,505C168.934,508.243 180.696,510.438 184,518C193.364,520.813 205.92,522.214 207,532C213.148,522.357 224.725,531.708 232,534C241.628,536.549 249.455,542.679 257,546C263.428,551.749 276.745,552.389 284,556C292.423,559.754 300.705,565.429 309,568C318.746,570.431 328.27,574.864 336,578C344.751,581.248 353.295,584.706 361,589C369.256,592.921 378.387,597.747 386,601C394.015,605.162 405.985,607.149 414,610C422.548,613.629 433.507,616.627 442,619C451.915,621.262 465.837,621.297 476,622C487.108,620.931 499.282,619.148 508,617C516.229,613.052 526.531,609.397 534,606C542.609,602.432 550.743,596.609 557,592C565.754,588.755 572.415,583.413 581,580C589.214,576.037 596.904,569.77 604,566C613.364,563.187 621.164,557.03 629,554C637.328,550.151 646.06,544.926 652,540C659.6,535.423 668.777,530.643 676,527C683.944,522.767 692.242,517.108 700,514C707.124,508.947 717.543,505.409 724,501C731.141,495.964 740.919,491.785 747,487C756.466,484.467 762.994,478.992 771,475C776.271,468.094 788.211,466.077 794,461C800.983,455.806 810.431,451.297 817,447C826.292,444.115 833.08,436.946 841,434C848.609,429.432 856.715,423.581 864,420C870.698,414.521 881.526,411.392 887,406C894.799,400.339 905.272,398.201 910,396C916.021,389.844 929.129,388.995 934,383C942.626,379.627 951.08,376.079 960,373C969.231,370.054 978.02,364.886 987,363C999.091,362.913 1006.77,356.634 1018,357C1031.88,357.707 1039.77,352.519 1047,355C1058.12,356.055 1065,363.135 1073,366C1080.52,370.656 1087.21,377.927 1093,383C1097.23,390.948 1105.28,396.856 1111,402C1116.53,408.646 1128.92,410.212 1136,414C1148.42,413.575 1152.88,421.117 1164,422C1177.09,421.082 1180.34,431.798 1185,438C1189.11,446.07 1193.93,455.2 1197,463C1201.34,470.841 1206.35,479.784 1210,487C1218.93,495.553 1209.37,505.855 1207,513C1203.72,524.853 1210.18,534.93 1214,541C1224.88,541.923 1228.73,556.057 1220,562C1211.11,565.291 1205.22,573.35 1200,579C1190.09,581.085 1180.07,583.07 1169,584C1147.27,588.994 1176.62,588.486 1182,586C1191.48,583.306 1205.8,583.662 1207,574C1214.28,569.1 1223.39,564.259 1227,557C1227.91,544.792 1246.6,553.032 1255,552C1265.73,549.364 1282.13,549.963 1283,559C1286.64,567.533 1293.51,574.621 1297,582C1302.49,588.689 1309.54,595.598 1310,606C1313.5,614.495 1313.52,626.48 1318,634C1321.22,642.958 1321.82,656.318 1325,664C1328.59,672.585 1337.82,677.31 1343,683C1349.43,688.747 1360.41,691.725 1368,695C1377.16,698.318 1391.35,698.292 1401,697C1412.23,694.347 1425.11,698.003 1431,702C1439.74,705.442 1450.9,708.235 1453,717C1459.73,722.445 1465.51,730.621 1464,743C1466.24,754.357 1456.49,766.857 1467,772ZM818,765C832.862,757.198 851.417,753.081 871,750C847.333,748.998 829.487,753.823 818,765ZM1288,762C1295.42,762.971 1286.19,748.034 1300,746C1304.97,739.467 1315.31,736.485 1319,730C1326.83,725.828 1328.2,715.202 1335,710C1346.71,698.156 1335.1,698.943 1331,709C1328.35,716.144 1314.03,716.194 1307,715C1304.66,726.85 1330.85,713.153 1318,725C1315.22,734.216 1304.88,735.877 1299,742C1294.76,746.833 1281.93,754.194 1288,762ZM49,757C53.4669,748.159 53.9037,730.372 54,721C51.1865,731.276 49.2109,748.497 49,757ZM679,745C692.594,745.929 698.654,739.319 710,738C718.12,733.943 729.857,731.723 739,730C748.383,727.206 759.297,724.163 768,722C775.638,717.461 787.575,715.441 793,710C782.119,711.785 774.305,716.64 764,719C754.406,721.583 744.318,725.452 736,728C724.436,728.613 714.094,732.228 707,736C696.663,737.84 686.715,741.849 679,745ZM1048,730C1060.31,725.645 1058.33,706.995 1066,698C1072.9,688.659 1077.05,675.036 1084,667C1090.28,656.614 1103.79,653.454 1107,640C1103.07,629.84 1094.82,614.035 1081,621C1069.69,622.083 1053.24,625.779 1047,635C1044.04,646.789 1060.21,653.848 1066,661C1076.77,669.327 1058.95,682.324 1059,694C1055.47,705.772 1049.1,720.189 1048,730ZM1234,727C1239.9,713.571 1248.85,703.186 1257,692C1263.38,679.813 1275.34,670.449 1281,660C1268.88,667.215 1261.91,679.575 1253,690C1247.79,702.964 1233.52,711.135 1234,727ZM1481,710C1486.69,699.174 1470.13,691.935 1456,693C1454.86,699.277 1481.1,696.838 1481,710ZM1221,708C1231.44,700.755 1229.35,686.22 1234,675C1240.58,666.008 1252.55,660.855 1258,652C1249.86,656.47 1237.59,662.456 1232,672C1225.88,681.443 1227.17,699.867 1221,708ZM1495,692C1501.92,691.53 1505.73,667.056 1498,668C1490.65,671.263 1485.99,687.921 1495,692ZM1195,672C1200.15,661.58 1213.62,657.921 1221,651C1229.71,644.381 1240.05,639.38 1247,631C1256.19,614.79 1269.36,627.956 1253,637C1238.75,650.908 1248.91,650.434 1257,637C1264.71,632.436 1267.71,609.445 1272,611C1261.97,616.301 1252.71,622.38 1244,629C1237.27,637.603 1227.25,642.917 1218,649C1211.09,657.423 1195.83,657.496 1195,672ZM982,669C995.96,669.861 990.237,651.735 983,651C970.07,654.182 975.584,664.913 982,669ZM62,661C61.4774,662.58 42.0998,662.295 36,661C43.2213,658.405 56.6171,657.178 62,661ZM119,649C128.315,641.291 106.256,632.843 102,642C98.0953,649.646 116.489,633.644 119,649ZM292,648C300.662,647.256 293.12,638.028 292,637C282.169,637.276 293.438,645.602 292,648ZM1074,648C1075.77,663.759 1060.13,655.766 1056,648C1048.78,637.047 1075.66,635.602 1074,648ZM779,647C789.443,636.779 799.198,625.863 807,613C812.519,598.955 825.941,588.864 842,589C851.544,600.121 858.512,613.823 866,627C883.581,650.652 875.966,634.677 867,619C861.46,605.875 847.328,593.942 846,582C858.634,574.336 873.49,567.574 885,560C888.754,543.09 913.51,547.175 927,540C940.726,533.428 961.404,532.488 973,525C987.536,520.87 1005.26,512.53 1022,516C1050.13,533.011 1029.63,500.722 1011,510C993.021,512.685 980.318,520.654 963,524C949.339,530.637 929.518,532.434 918,540C896.918,539.582 887.927,551.263 877,561C865.695,569.993 847.608,573.524 840,585C822.23,587.894 810.555,596.891 804,611C799.625,626.923 783.776,632.692 779,647ZM152,640C166.506,635.741 149.626,631.092 142,632C132.419,629.433 146.175,640.508 152,640ZM1099,638C1099.55,651.445 1084.27,656.123 1079,665C1070.79,677.979 1087.76,645.713 1077,641C1071.11,628.331 1043.64,638.126 1069,628C1084.43,624.632 1095.92,621.291 1099,638ZM1113,632C1123.34,628.316 1140.58,617.006 1137,610C1120.44,607.277 1102.64,619.886 1113,632ZM1123,590C1139.64,594.289 1143.86,578.479 1132,573C1125.25,566.89 1119.89,557.668 1109,557C1099.76,552.911 1090.35,548.986 1081,545C1071.55,541.593 1059.62,538.935 1055,532C1039.69,519.805 1045.2,535.65 1056,539C1066.06,541.801 1071.24,551.203 1077,557C1085.48,561.857 1095.69,564.978 1103,571C1104.44,582.412 1117.2,584.246 1123,590ZM1322,581C1329.98,599.994 1308.53,603.06 1307,588C1300.45,579.88 1294.34,571.323 1291,560C1275.21,545.756 1291.54,551.144 1302,557C1312.15,561.517 1323.85,564.48 1322,581ZM1128,577C1130,592.456 1111.17,577.618 1111,571C1103.13,565.338 1095.17,558.075 1085,556C1075.97,544.415 1099.26,560.251 1104,560C1114.82,562.717 1123.44,569.318 1128,577ZM770,464C772.821,454.194 766.773,441.37 766,430C763.245,418.756 762.205,405.794 759,395C757.971,382.03 747.67,378.329 734,378C722.743,375.258 711.47,372.529 700,370C701.189,375.796 719.483,376.374 729,379C738.782,383.217 752.798,383.204 756,394C758.431,405.567 760.151,417.851 763,429C765.09,440.908 767.034,452.967 770,464ZM194,372C213.083,374.418 214.783,359.448 230,358C242.004,372.241 254.231,355.055 258,346C270.857,342.192 279.911,334.576 290,328C302.831,324.587 324.361,328.352 330,319C332.181,304.516 349.278,304.943 352,291C349.101,277.609 352.59,261.895 356,249C359.032,233.367 352.317,220.141 352,205C353.499,190.255 351.946,170.937 359,163C364.06,151.395 360.843,131.508 368,122C374.679,112.014 380.512,101.177 385,89C391.803,79.1379 397.064,67.7291 401,55C405.002,39.0225 393.316,29.4665 383,26C372.73,19.6053 364.27,11.3948 354,5C336.987,-6.24451 361.481,16.8916 366,18C375,25.6647 387.482,29.8529 395,39C402.481,51.0311 392.79,67.7928 389,76C382.01,85.6753 378.288,98.6234 373,110C364.556,118.221 359.21,129.545 359,146C357.882,161.547 349.654,169.989 350,187C347.49,202.164 349.836,219.681 352,232C356.443,246.169 349.522,260.205 348,274C354.846,289.652 346.278,303.328 333,305C332.521,321.186 318.757,324.092 301,323C284.628,322.872 278.314,334.323 268,339C249.948,337.613 253.897,358.232 239,360C223.419,357.336 221.639,354.799 224,333C217.541,322.435 225.389,302.154 213,296C211.343,281.412 209.912,265.079 204,256C198.905,228.179 199.536,267.001 207,271C206.992,287.253 209.088,302.921 218,309C214.853,323.386 225.643,336.576 220,351C219.748,365.784 201.482,368.554 194,372ZM215,355C217.962,346.181 215.357,327.731 213,320C213.293,306.375 207.442,298.89 205,288C201.221,278.245 200.459,263.786 197,255C195.481,266.299 199.194,278.426 202,288C205.007,298.528 209.981,308.774 211,320C205.754,323.209 199.898,307.304 190,307C184.18,311 206.241,315.827 205,325C216.663,326.669 211.719,344.949 215,355ZM174,218C174.088,205.742 154.512,200.893 144,194C130.764,188.288 118.817,179.905 104,177C111.267,182.628 128.28,188.921 140,195C152.297,201.651 166.188,208.09 174,218ZM1066,122C1068.08,130.486 1050.69,125.219 1046,120C1039.43,114.114 1056.28,104.093 1048,94C1040.78,87.9701 1033.38,82.4125 1039,69C1041.46,58.9848 1060.4,63.757 1068,63C1079.89,59.2101 1090.78,61.2257 1095,70C1098.73,77.5621 1110.89,82.4924 1104,95C1100.69,104.358 1087.87,104.206 1083,112C1079.49,121.547 1055.84,112.473 1066,122ZM1090,118C1092.55,115.753 1099.61,113.442 1098,110C1095.6,109.436 1090.92,114.118 1090,118ZM486,27C488.532,11.3393 476.362,-6.29071 468,1C458.129,10.0433 491.663,3.63208 486,27Z" fill="#0014FF" />
	</g>
</svg>
