<?xml version='1.0' encoding='utf-8'?>
<!-- Generator: imaengine 6.0   -->
<svg xmlns:xlink="http://www.w3.org/1999/xlink" xmlns="http://www.w3.org/2000/svg" viewBox="0,0,1600,789" style="enable-background:new 0 0 1600 789;" version="1.1">
<defs/>
<g id="layer0">
<path stroke="#05B0F8" stroke-width="3.2" d="M255.957,749.604C305.211,730.326 342.809,697.521 378.274,663.288C381.938,659.943 385.886,654.102 389.3,649.261C394.585,646.142 398.695,639.095 401.371,632.146C404.297,626.32 408.298,619.522 415.12,616.38C420.254,615.56 425.7,612.147 431.147,610.37C437.334,607.271 446.768,610.7 448.645,616.18C454.478,618.242 461.691,626.818 472.158,622.365C476.203,620.566 484.962,621.886 489.007,621.398C539.779,625.68 563.898,593.691 608.085,587.389C616.105,584.929 624.529,580.429 633.141,577.373C638.371,575.244 646.879,573.623 652.199,570.345C658.21,567.258 666.38,563.776 672.233,559.323C678.385,555.34 686.036,550.487 693.213,546.336C700.591,540.834 711.793,536.899 719.247,530.312C728.039,524.859 738.67,519.15 748.235,513.321C756.442,504.566 770.383,499.456 779.291,490.272C788.197,479.51 803.589,473.399 814.269,463.294C817.664,460.47 823.068,455.253 828.604,452.938C834.14,450.624 839.171,451.072 842.632,460.153C848.84,467.848 855,477.841 860.672,487.225C870.34,495.535 876.616,509.239 885.698,519.26C894.195,531.444 905.859,542.196 913.653,556.195C920.581,567.921 929.853,579.324 938.696,590.257C947.591,599.339 957.179,610.073 972.958,613.396C978.457,613.396 985.851,613.397 990.027,613.397C1082.51,600.917 1171.48,572.485 1268.95,580.395C1276.75,581.698 1285.38,584.74 1294.03,586.397C1303.62,582.963 1311.35,590.407 1319.87,592.377C1328.14,596.306 1337.74,601.162 1347.89,604.382C1357.19,606.928 1365.69,612.487 1375.84,615.363C1383.44,620.977 1395.19,624.565 1404.8,629.343C1413.2,635.866 1429.14,636.957 1439.81,642.352C1452.17,649.327 1467.32,655.391 1479.81,663.35C1496.72,670.151 1515.34,677.061 1532.84,684.367C1553.83,693.475 1574.08,705.094 1599.96,710.396L1600.4,706C1569.51,693.596 1540.27,678.023 1511.12,669.62C1505.9,667.83 1499,665.054 1493.16,662.637C1487.61,659.786 1480.16,656.293 1473.18,653.646C1470.02,651.207 1464.12,648.545 1459.15,646.633C1454.62,644.51 1449.76,639.988 1444.19,637.648C1440.14,634.687 1431.97,633.04 1426.13,630.624C1420.04,629.004 1412.63,626.114 1406.17,623.639C1400.28,620.082 1392.46,616.063 1385.21,612.663C1383.7,611.107 1378.23,609.972 1374.39,608.181C1370.55,606.39 1368.41,604.568 1373.27,600.288C1376.61,596.264 1384.48,593.73 1385.4,586.05C1388.78,579.297 1389.15,567.256 1392.37,559.145C1395.02,550.283 1396.16,537.498 1397.4,526.043C1399.58,517.401 1401.97,506.752 1405.37,498.144C1407.88,489.829 1411.18,479.982 1413.36,470.162L1412.4,470C1412.4,466.922 1412.4,461.641 1412.4,460C1411.33,449.402 1409.88,450.283 1409.19,454.779C1408.5,459.274 1407.8,467.262 1406.62,470.879C1405,485.2 1396.56,494.849 1395.6,510.976C1393.99,515.666 1391.92,522.728 1391.6,529.982C1388.37,535.852 1389.61,548.525 1386.63,555.854C1385.13,566.55 1380.22,576.14 1377.61,586.9C1374.77,591.414 1368.4,594.926 1365.66,600.786C1360.53,603.179 1354.57,596.133 1348.07,595.608C1341.77,593.846 1334.54,590.584 1328.19,587.652C1324.14,584.699 1317.21,581.767 1311.11,579.616C1305.82,578.598 1298.82,576.381 1292.03,575.603C1284.53,575.392 1277.34,572.257 1269.05,571.605C1260.67,570.198 1250.22,568.385 1239.02,568.602C1224.94,567.063 1215.38,572.273 1201,571.602C1185.36,572.247 1168.73,573.988 1153.93,576.608C1136.67,579.687 1118.22,583.429 1098.94,585.607C1080.88,589.24 1060.12,592.114 1040.84,595.634C1038.66,597.569 1031.06,596.066 1028.89,596.619C998.363,607.524 955.63,611.976 943.365,581.84C940.316,577.879 935.129,573.272 932.345,567.8C926.337,562.298 922.5,552.163 915.269,546.707C912.551,542.066 907.886,536.809 904.326,531.771C901.058,526.982 895.843,521.519 892.318,515.761C886.967,512.36 882.478,505.6 878.332,499.781C876.067,493.295 868.818,489.297 865.346,482.803C860.778,477.236 855.998,469.373 850.302,463.741C849.409,460.907 845.13,457.068 842.572,453.085C840.014,449.101 839.091,445.568 845.216,442.335C850.695,437.335 859.406,433.148 866.242,428.316C873.335,421.846 880.883,413.665 889.248,407.312C897.54,399.999 905.014,389.805 914.257,382.304C922.463,374.566 932.478,366.507 940.307,357.254C947.726,347.372 950.66,331.093 961.28,323.283C961.35,316.25 956.242,318.906 951.466,324.884C946.69,330.861 941.578,339.784 940.612,343.909C935.683,360.335 918.456,366.084 909.676,379.768C895.339,392.507 881.065,406.879 865.729,419.708C860.064,426.76 851.261,434.647 842.696,437.123C834.131,439.599 826.455,436.839 822.381,421.884C810.606,408.262 802.751,388.717 788.271,376.708C774.803,359.406 754.586,346.839 717.974,351.603C714.207,351.603 708.366,351.602 705.998,351.602C626.955,352.551 598.247,404.146 545.778,431.669C542.005,435.604 533.64,437.568 527.792,440.66C522.086,445.089 512.31,447.708 503.891,450.617C498.642,451.752 487.255,449.529 481.057,447.606C472.131,447.78 465.131,443.562 458.11,440.617C449.552,439.385 442.657,434.064 433.115,432.619C426.574,429.369 415.876,427.887 407.146,425.629C399.099,420.856 389.38,421.888 379.061,419.607C366.891,418.555 352.278,417.706 338.001,417.602C335.264,417.602 330.263,417.602 328.985,417.602C312.913,418.794 305.712,414.208 287.871,414.623C285.692,416.558 278.129,415.052 275.95,415.605L275.602,415C242.108,417.259 211.999,410.67 191.964,397.603C190.051,399.471 190.937,401.534 192.702,402.736C194.467,403.938 196.865,404.954 197.717,406.28C201.876,407.367 206.343,411.208 210.765,413.321C212.419,416.557 220.313,416.616 223.784,419.335C229.163,421.665 239.544,421.902 247.988,422.398C251.067,422.398 256.365,422.398 258.006,422.398C279.661,421.742 299.077,422.483 320.001,422.398C323.423,422.398 329.013,422.398 331.017,422.398C409.309,415.666 444.455,455.454 508.992,456.398C514.369,456.529 519.076,452.773 524.189,451.351C527.055,447.91 533.524,445.283 538.169,442.36C543.4,440.932 548.601,436.673 553.19,433.35C558.826,431.627 563.924,426.606 569.237,423.32C573.299,418.978 579.627,414.434 586.175,411.358C593.079,407.782 600.562,402.342 607.22,397.332C615.928,392.818 624.279,385.702 632.259,379.302C640.334,371.093 654.648,367.341 666.108,361.383C684.053,360.673 702.409,358.608 721.973,358.397C723.314,358.596 725.675,358.361 727.627,358.318C729.58,358.276 730.772,357.906 730.621,358.877C791.459,356.033 795.949,410.128 825.756,438.315C829.806,440.291 829.599,441.886 828.023,444.088C826.446,446.29 823.456,448.51 821.711,450.726C818.673,452.579 815.362,457.143 811.733,459.704C809.53,464.16 802.682,466.67 798.773,470.673C792.951,472.21 788.752,478.038 782.783,480.666C779.72,484.613 773.373,488.031 768.765,491.679C763.795,494.766 757.238,498.981 752.706,503.732C748.267,509.427 738.247,511.881 732.738,517.7C724.152,522.335 716.239,529.629 705.858,533.628C693.32,538.391 683.794,548.18 670.826,553.642C658.201,561.022 641.493,566.113 626.881,572.62C608.917,575.676 596.578,586.155 576.908,588.613C560.088,594.834 546.299,605.993 527.812,611.649C515.902,624.314 484.152,609.802 467.897,617.615C456.504,618.185 452.89,608.976 447.202,602.657C432.285,601.984 419.991,606.476 410.786,612.664C393.448,622.74 389.142,647.598 372.741,659.697C358.775,677.171 337.265,688.756 321.715,705.722C302.597,722.093 278.138,735.113 255.957,749.604Z" fill="#05B0F8" stroke-linecap="round" fill-opacity="0" stroke-linejoin="round"/>
<path stroke="#06B0F8" stroke-width="3.2" d="M287.853,684.37C290.959,684.951 294.026,680.191 294.511,676.078C294.996,671.964 292.98,667.734 287.933,669.608C282.047,669.451 281.155,673.135 282.334,676.504C283.514,679.872 286.685,683.689 287.853,684.37Z" fill="#06B0F8" stroke-linecap="round" fill-opacity="0" stroke-linejoin="round"/>
<path stroke="#9FE1FC" stroke-width="3.2" d="M471.938,621.607C475.984,621.119 485.017,623.193 489.062,621.393C485.016,621.881 475.983,619.807 471.938,621.607Z" fill="#9FE1FC" stroke-linecap="round" fill-opacity="0" stroke-linejoin="round"/>
<path stroke="#5CCBFA" stroke-width="3.2" d="M973.398,614C977.444,613.512 986.042,615.188 990.086,613.389C985.911,613.389 978.498,612.602 973,612.602L973.398,614Z" fill="#5CCBFA" stroke-linecap="round" fill-opacity="0" stroke-linejoin="round"/>
<path stroke="#C4ECFD" stroke-width="3.2" d="M1028.89,596.617C1031.07,596.064 1038.93,598.318 1041.11,596.383C1038.93,596.936 1031.07,594.682 1028.89,596.617Z" fill="#C4ECFD" stroke-linecap="round" fill-opacity="0" stroke-linejoin="round"/>
<path stroke="#0CB2F8" stroke-width="3.2" d="M1027.88,507.381C1029.45,507.001 1030.27,503.478 1029.79,500.66C1029.31,497.842 1027.45,494.997 1025.81,495.649C1021.14,499.369 1026.11,505.711 1027.88,507.381Z" fill="#0CB2F8" stroke-linecap="round" fill-opacity="0" stroke-linejoin="round"/>
<path stroke="#0EB2F8" stroke-width="3.2" d="M939.894,499.384C941.103,499.225 943.348,499.452 945.117,499.473C946.887,499.494 948.598,498.677 948.311,497.751C955.149,499.264 969.5,500.627 971.33,495.223L967.602,495C962.048,499.343 950.995,496.717 943.116,495.013C935.237,493.309 930.824,492.911 939.894,499.384Z" fill="#0EB2F8" stroke-linecap="round" fill-opacity="0" stroke-linejoin="round"/>
<path stroke="#21B7F9" stroke-width="3.2" d="M967.722,494.715L971.398,495C972.997,488.409 972.709,485.911 972.125,486.456C971.541,487.001 969.985,490.302 967.722,494.715Z" fill="#21B7F9" stroke-linecap="round" fill-opacity="0" stroke-linejoin="round"/>
<path stroke="#1CB7F9" stroke-width="3.2" d="M966.783,480.666C967.986,479.544 967.608,478.259 966.375,477.126C965.141,475.994 963.308,474.952 963.038,474.604C962.152,475.408 962.947,477.203 964.215,478.301C965.483,479.399 966.969,479.861 966.783,480.666Z" fill="#1CB7F9" stroke-linecap="round" fill-opacity="0" stroke-linejoin="round"/>
<path stroke="#4FC7FA" stroke-width="3.2" d="M1411.6,470L1413.4,470C1412.82,468.573 1413.9,461.041 1411.9,459.614C1411.9,461.255 1411.6,466.922 1411.6,470Z" fill="#4FC7FA" stroke-linecap="round" fill-opacity="0" stroke-linejoin="round"/>
<path stroke="#D5F2FE" stroke-width="3.2" d="M248.398,423C249.825,422.423 256.802,424.322 258.228,422.326C256.587,422.326 251.078,421.602 248,421.602L248.398,423Z" fill="#D5F2FE" stroke-linecap="round" fill-opacity="0" stroke-linejoin="round"/>
<path stroke="#76D4FB" stroke-width="3.2" d="M320.398,423C322.201,422.434 329.388,424.314 331.191,422.35C329.186,422.35 323.422,421.602 320,421.602L320.398,423Z" fill="#76D4FB" stroke-linecap="round" fill-opacity="0" stroke-linejoin="round"/>
<path stroke="#32BDF9" stroke-width="3.2" d="M328.753,417.688C330.031,417.688 335.43,418.361 338.167,418.361C338.457,417.647 336.284,416.503 334.083,416.489C331.882,416.475 329.237,416.919 328.753,417.688Z" fill="#32BDF9" stroke-linecap="round" fill-opacity="0" stroke-linejoin="round"/>
<path stroke="#40C3FA" stroke-width="3.2" d="M276.398,416C278.577,415.447 285.983,417.299 288.162,415.364C285.793,415.364 279.767,414.602 276,414.602L276.398,416Z" fill="#40C3FA" stroke-linecap="round" fill-opacity="0" stroke-linejoin="round"/>
<path stroke="#05B0F8" stroke-width="3.2" d="M176.802,388.346L179.398,387C180.513,383.148 175.992,382.813 176.363,381.164L177.398,380C130.958,322.9 92.117,258.46 50.2388,195.681L49,196L49.3982,195C43.96,187.752 36.015,181.448 30.2567,175.696C24.0757,172.253 17.0011,168.117 10.0988,166.614C2.11296,164.211 -0.0291031,167.304 1.37298,170.043C2.77505,172.781 7.57723,175.947 11.9548,174.396C18.5839,178.754 27.1557,182.006 31.6951,187.256C80.9895,253.148 122.55,326.305 176.802,388.346Z" fill="#05B0F8" stroke-linecap="round" fill-opacity="0" stroke-linejoin="round"/>
<path stroke="#4AC6FA" stroke-width="3.2" d="M722,359C723.278,359 728.439,359.357 731.176,359.357C731.327,358.386 729.563,357.48 727.61,357.522C725.658,357.565 723.37,357.801 722.029,357.603L722,359Z" fill="#4AC6FA" stroke-linecap="round" fill-opacity="0" stroke-linejoin="round"/>
<path stroke="#79D5FB" stroke-width="3.2" d="M705.873,351.623C708.241,351.623 714.405,352.359 718.172,352.359C717.944,351.58 715.265,350.488 712.571,350.515C709.877,350.541 706.868,350.952 705.873,351.623Z" fill="#79D5FB" stroke-linecap="round" fill-opacity="0" stroke-linejoin="round"/>
<path stroke="#1FB6F9" stroke-width="3.2" d="M1412.83,331.641C1413.87,330.882 1413.87,329.432 1412.87,328.22C1411.86,327.007 1409.78,326.088 1408.74,326.698C1407.94,330.236 1413.63,329.563 1412.83,331.641Z" fill="#1FB6F9" stroke-linecap="round" fill-opacity="0" stroke-linejoin="round"/>
<path stroke="#1EB6F9" stroke-width="3.2" d="M1405.78,327.329L1409.4,327C1410.51,322.123 1404.8,321.135 1401.97,321.603L1401.4,323C1404.19,322.946 1405.23,326.592 1405.78,327.329Z" fill="#1EB6F9" stroke-linecap="round" fill-opacity="0" stroke-linejoin="round"/>
<path stroke="#4FC7FA" stroke-width="3.2" d="M1398.91,323.388L1401,323L1402.4,322C1400.67,320.333 1398.32,319.752 1397.5,320.179C1396.67,320.607 1396.87,322.432 1398.91,323.388Z" fill="#4FC7FA" stroke-linecap="round" fill-opacity="0" stroke-linejoin="round"/>
<path stroke="#10B2F8" stroke-width="3.2" d="M1365.72,303.282L1367.4,302C1367.79,297.422 1364.56,288.997 1362.33,285.779C1360.81,282.843 1358.83,278.319 1357.31,276.748C1356.85,273.891 1352.57,268.976 1348.7,265.76C1344.83,262.543 1340.67,261.393 1341.62,265.115C1352.72,274.798 1359.14,290.196 1365.72,303.282Z" fill="#10B2F8" stroke-linecap="round" fill-opacity="0" stroke-linejoin="round"/>
<path stroke="#0CB2F8" stroke-width="3.2" d="M1332.79,259.338L1335.4,258C1331.18,251.574 1326.04,244.201 1319.16,241.635C1314.67,239.249 1308.84,236.599 1305.19,234.65C1301.46,232.54 1295.37,231.011 1292.2,229.654C1289.05,226.952 1283.56,225.028 1281.31,222.747C1281.06,220.565 1278.7,219.712 1277.37,219.778C1276.04,219.845 1275.24,221.43 1277.8,222.347C1292.8,238.197 1319.52,242.843 1332.79,259.338Z" fill="#0CB2F8" stroke-linecap="round" fill-opacity="0" stroke-linejoin="round"/>
<path stroke="#07B1F8" stroke-width="3.2" d="M49,196L50.3982,196C53.3832,194.724 52.2759,188.654 50.2345,185.678L48.6018,187C48.6018,187.918 48.6018,192.6 48.6018,195L49,196Z" fill="#07B1F8" stroke-linecap="round" fill-opacity="0" stroke-linejoin="round"/>
<path stroke="#08B1F8" stroke-width="3.2" d="M47.7967,187.342L49,187L50.3982,186C46.1114,179.825 42.211,176.12 41.2848,176.135C40.3585,176.15 41.8051,180.227 47.7967,187.342Z" fill="#08B1F8" stroke-linecap="round" fill-opacity="0" stroke-linejoin="round"/>
<path stroke="#85D9FC" stroke-width="3.2" d="M1261.84,181.633C1263.87,180.581 1262.57,174.42 1263.16,173.367C1261.13,174.419 1262.43,180.58 1261.84,181.633Z" fill="#85D9FC" stroke-linecap="round" fill-opacity="0" stroke-linejoin="round"/>
<path stroke="#0AB2F8" stroke-width="3.2" d="M1080.62,181.108L1084.4,180C1091.58,176.88 1098.17,172.452 1100.17,165.359C1094.58,170.872 1079.46,172.895 1080.62,181.108Z" fill="#0AB2F8" stroke-linecap="round" fill-opacity="0" stroke-linejoin="round"/>
<path stroke="#74D3FB" stroke-width="3.2" d="M1313.73,114.288C1314.82,114.181 1317.05,114.472 1318.62,114.464C1320.2,114.456 1321.68,113.574 1321.27,112.712C1320.18,112.819 1317.95,112.528 1316.38,112.536C1314.8,112.544 1313.32,113.426 1313.73,114.288Z" fill="#74D3FB" stroke-linecap="round" fill-opacity="0" stroke-linejoin="round"/>
<path stroke="#11B3F8" stroke-width="3.2" d="M1550.62,44.8918C1552.83,45.2161 1553.16,44.0571 1552.3,42.9659C1551.44,41.8746 1549.68,41.3478 1549.91,41.3885C1547.53,42.0538 1547.64,42.7766 1548.5,43.5148C1549.36,44.2529 1550.68,44.5097 1550.62,44.8918Z" fill="#11B3F8" stroke-linecap="round" fill-opacity="0" stroke-linejoin="round"/>
<path stroke="#0DB2F8" stroke-width="3.2" d="M1563.84,44.6357L1567.4,44C1571.95,43.4039 1575.97,40.9184 1578.21,39.3389C1585.88,35.6787 1596.24,33.4429 1599.25,26.3118C1585.55,30.7029 1572.85,36.6848 1563.84,44.6357Z" fill="#0DB2F8" stroke-linecap="round" fill-opacity="0" stroke-linejoin="round"/>
</g>
<g id="layer1">
<path d="M256,750C276.64,747.975 286.334,734.998 302,728C314.369,717.705 326.937,707.601 340,698C354.917,690.253 363.513,676.177 376,666C385.457,653.137 397.736,641.858 404,627C410.754,616.445 434.956,602.091 448,615C458.516,629.25 485.062,617.536 504,621C530.483,624.819 537.756,609.421 556,605C571.171,597.851 591.644,594.766 605,587C621.983,581.318 638.184,574.848 655,569C670.07,561.405 682.977,551.642 697,543C713.4,536.735 724.289,524.953 740,518C753.167,508.847 766.805,498.927 779,490C790.201,478.536 805.852,471.516 818,461C831.82,437.84 847.748,464.836 853,475C862,488.664 873.48,499.856 882,514C889.804,528.516 904.028,537.85 911,552C920.132,565.533 929.317,579.018 940,591C952.076,601.588 960.84,615.495 985,614C1006.36,612.697 1024.28,607.944 1043,604C1061.02,599.703 1084.85,599.977 1099,593C1118.79,590.123 1138.38,587.043 1158,584C1178.62,581.954 1210.98,580.799 1229.92,577.078C1253.18,580.675 1263.7,575.634 1280,582C1299.71,584.615 1318.07,589.808 1332,597C1347.36,604.301 1364.95,609.382 1380,617C1395.33,624.332 1409.69,632.647 1428,637C1444.18,643.481 1458.98,651.355 1474,659C1488.92,666.405 1505.54,673.336 1521,679C1535.1,687.56 1553.62,691.72 1568,700C1581.61,708.011 1617.86,713.773 1586,699C1569.02,693.312 1553.96,685.707 1537,680C1523.77,670.908 1501.15,669.969 1489,661C1473.85,653.485 1457.87,646.798 1444,638C1428.42,630.92 1406.99,616.818 1387.67,611.127C1372.75,603.942 1357.97,606.833 1382.18,594.116C1386.97,576.584 1394.13,552.25 1396,533C1399.29,513.627 1404.85,496.515 1411,480C1419.45,457.268 1405.13,442.211 1396,431C1394.57,406.908 1404.92,394.588 1409,376C1412.78,361.554 1425.82,336.234 1410,326C1398.84,314.5 1375.22,315.44 1368,300C1361.82,283.514 1354.49,268.177 1340,260C1329.61,247.727 1316.4,238.266 1299,233C1280.56,229.116 1273.41,212.708 1269,196C1262.12,179.775 1264.55,152.307 1273,140C1280.75,125.426 1302.26,123.386 1318,118C1337.18,114.518 1354.34,109.007 1372,104C1386.91,96.5867 1405.22,91.347 1422,87C1443.17,85.501 1459.91,79.5719 1472,69C1481.68,56.0158 1495.86,47.5228 1513,42C1523.08,28.7408 1546.57,20.0745 1550,45C1567.4,51.5483 1582.8,34.9078 1596,30C1589.12,23.6484 1570.34,43.7606 1555,45C1551.19,27.8938 1531.18,14.5253 1519,34C1506.28,43.9403 1484.52,44.8557 1477,60C1468.8,74.1216 1449.23,78.1061 1433,83C1413.03,85.6983 1393.08,88.4133 1379,97C1361.91,102.575 1345.33,108.664 1326,112C1305.6,114.269 1287.74,119.075 1275,129C1261.91,137.538 1260.62,161.587 1263,182C1266.61,201.053 1270.94,219.393 1284,229C1297.68,237.636 1315.91,242.966 1326,254C1339.19,263.479 1352.71,272.623 1359,289C1363.46,306.86 1376.96,316.915 1394,321C1413.25,323.656 1421.93,343.69 1409,360C1403.65,377.311 1398.2,394.534 1393,412C1384.17,439.694 1408.13,441.299 1409,462C1407.27,482.586 1397.09,495.966 1394,514C1389.91,532.577 1389.1,554.438 1383,571C1380.19,587.565 1368.58,609.275 1349,597C1331.95,591.386 1319.88,580.786 1300,578C1281,574.68 1262.52,569.598 1242,569C1216.79,568.276 1205.21,575.408 1180,573C1160.44,576.103 1141.28,579.611 1122,583C1102.05,585.716 1083.2,589.535 1063,592C1045.72,597.038 1021.61,596.488 1006,602C987.884,606.748 961.463,609.991 955,593C942.254,583.426 932.136,569.986 924,557C913.554,544.782 903.574,532.09 894,519C882.264,508.416 874.445,492.677 864,482C859.233,468.189 836.427,456.853 844,442C859.5,434.835 871.039,423.704 883,413C894.332,401.668 905.668,390.332 917,379C927.784,367.464 943.823,359.945 948,343C960.349,327.927 966.573,305.896 947,332C943.215,350.879 930.765,361.1 918,371C906.525,382.19 895.33,393.665 884,405C871.315,414.635 860.357,427.235 847,435C828.577,446.143 822.985,417.597 813,409C804.532,394.804 793.997,382.668 782,372C771.057,360.278 758.25,350.415 734,352C713.341,350.702 689.534,351.418 671,354C654.851,360.515 638.291,366.627 625,376C613.668,386.988 596.862,393.74 586,404C572.231,412.895 557.243,420.578 546,432C531.772,439.404 515.847,448.809 500,451C477.738,450.597 462.392,443.273 446,437C429.085,431.25 411.315,426.349 393,422C373.611,418.724 351.719,417.945 330,417C310.621,417.143 288.557,413.877 268,414C249.145,413.987 222.222,415.35 210,406C179.017,388.671 201.726,412.803 217,417C232.321,424.343 257.97,421.365 280,422C300.501,423.411 317.758,420.578 340,423C360.895,424.769 385.835,422.5 401,430C420.496,433.168 434.203,442.132 453,446C469.896,450.53 484.591,462.049 508,457C524.536,451.216 538.782,441.904 552,434C567.142,426.478 576.981,413.645 593,407C606.522,398.202 620.637,388.759 632,379C645.075,369.411 660.052,361.717 681,360C702.215,358.332 724.462,357.537 744,360C766.621,360.044 777.127,372.209 788,384C796.572,398.092 806.532,410.804 816,424C834.533,437.53 826.948,450.612 811,461C797.988,470.308 784.38,480.258 772,489C758.395,498.059 747.814,510.15 733,518C720.439,527.759 703.433,534.311 691,543C675.941,550.606 662.234,559.57 646,566C630.758,573.078 610.576,576.454 597,584C579.169,588.834 560.972,593.308 549,604C532.04,608.049 519.404,623.532 497,616C475.61,619.941 451.791,620.294 446,603C424.72,604.04 407.295,610.173 400,624C389.307,635.971 384.132,653.467 370,662C361.132,675.452 346.678,684.556 335,694C324.852,706.517 309.517,713.852 297,724C285.717,735.038 266.129,739.007 256,750ZM287,683C293.773,684.997 296.933,670.046 290,670C279.002,668.612 283.609,679.558 287,683ZM1028,507C1033.28,507.889 1027.29,500.487 1028,497C1022.48,499.721 1026.64,503.145 1028,507ZM960,500C977.178,500.998 976.242,481.829 966,476C956.317,473.482 952.452,452.425 950,457C947.188,469.52 933.813,471.481 931,484C928.638,501.252 947.005,499.375 960,500ZM970,489C968.429,502.818 921.369,498.714 937,478C948.39,456.219 963.456,473.983 970,489ZM182,392C185.552,384.519 168.316,372.357 163,363C152.654,355.073 148.384,339.657 140,331C131.914,320.814 123.561,309.48 117,299C111.567,286.161 101.469,276.572 96,265C87.5693,255.158 79.9883,243.052 73,233C66.7692,220.958 57.8211,210.22 52,199C57.7705,186.42 30.5679,162.983 45,183C55.5665,209.322 35.5316,177.512 29,176C24.7299,165.193 -16.0211,165.309 14,175C26.0899,181.183 37.419,189.54 43,201C51.9324,210.34 58.6525,223.307 66,233C73.3133,243.959 78.9772,257.982 87,267C96.2836,275.989 101.449,290.51 109,300C117.04,310.233 125.355,321.604 132,332C140.502,341.771 148.561,353.398 155,364C161.115,376.157 170.997,385.962 182,392ZM1081,180C1091.35,178.347 1097.2,172.194 1101,164C1094.65,169.653 1084.03,171.028 1081,180ZM1120,148C1137.98,149.312 1136.04,130.706 1142,120C1143.23,108.859 1159,94.993 1148,85C1138.53,73.4517 1147.47,55.9073 1156,51C1165.73,45.329 1175.13,34.7679 1174,22C1163.5,28.1673 1161.84,43.173 1150,48C1139.15,52.9285 1136.3,71.2366 1143,82C1154.84,92.4113 1141.19,106.802 1138,117C1134.42,129.666 1131.18,144.186 1120,148Z" fill="#0014FF"/>
</g>
</svg>
