<?xml version='1.0' encoding='utf-8'?>
<!-- Generator: imaengine 6.0   -->
<svg xmlns:xlink="http://www.w3.org/1999/xlink" xmlns="http://www.w3.org/2000/svg" viewBox="0,0,1600,789" style="enable-background:new 0 0 1600 789;" version="1.1">
<defs/>
<g id="layer0">
<path d="M43.6029,788.97C48.7551,788.97 56.3616,789.356 60.1778,789.356C59.2896,775.357 65.4108,761.819 62.3862,749.903C61.2427,737.092 64.0589,727.335 67.3641,720.161C69.0442,711.535 73.4508,704.111 72.3959,693.958C76.0514,683.371 60.9202,682.2 67.2997,676.262C68.1583,669.209 72.9625,664.252 73.3972,658.028C74.2947,652.39 77.1532,647.021 77.3977,642.02C80.1611,634.818 83.3044,626.8 85.3789,620.122C89.0628,613.159 92.2716,604.521 95.3616,598.167C95.8,590.35 99.0119,583.592 98.3969,575.968C98.7214,547.863 96.1687,504.901 120.191,500.349C121.243,498.324 127.936,499.986 128.989,499.398C195.584,541.751 276.2,567.694 354.823,601.357C361.867,605.64 370.853,609.299 378.902,611.386C386.049,613.178 394.325,615.26 400.906,616.387C406.362,618.156 414.675,618.675 418.915,620.389C425.596,620.588 432.049,622.617 436.885,623.381C441.043,625.413 446.062,628.176 449.79,629.338C451.791,633.182 459.662,633.099 462.907,634.387C533.051,639.816 558.688,594.227 607.156,575.366C679.656,540.577 755.393,511.164 814.203,459.343C821.453,457.652 825.964,451.84 831.185,449.353C880.9,419.342 933.983,391.872 996.08,375.39C1003.02,374.416 1010.99,373.023 1017.02,372.398C1024.33,372.48 1031.1,370.497 1037.96,371.396C1047.08,372.239 1057.94,372.321 1062.72,376.287C1083.28,408.476 1120.62,425.014 1155.87,441.376C1164.66,443.237 1170.85,448.768 1175.75,453.312C1179.96,455.64 1180.13,463.563 1182.69,466.25C1183.55,470.884 1186.01,475.735 1187.68,478.236C1207.89,496.896 1182.59,545.284 1212.76,559.314C1213.52,565.772 1205.9,569.862 1201.78,572.669C1198.24,574.972 1192.56,576.672 1188.96,577.604C1184.55,577.305 1181.03,579.9 1178,579.602C1174.99,579.886 1167.45,581.88 1163.15,584.157C1158.85,586.435 1157.79,589.793 1167,591.398C1182.78,588.753 1201.27,587.565 1210.28,579.279C1213.68,574.418 1219.77,570.761 1223.29,567.272C1226.53,562.746 1230.31,563.878 1235.95,564.395C1248.71,566.376 1262.11,563.55 1271.89,561.382C1280.41,572.294 1288.32,584.182 1294.64,596.177C1288.98,651.831 1326.84,664.005 1344.65,696.19C1360.72,731.647 1428.68,689.701 1446.67,723.225C1451.02,725.758 1455.37,730.023 1457.72,733.279C1471.85,739.017 1448.79,752.39 1457.66,766.202C1458.09,774.725 1464.57,778.848 1470.9,778.931C1477.24,779.014 1484.16,774.931 1485.39,768.076C1487.18,765.509 1490.04,758.388 1487.26,755.701C1481.64,751.838 1473.43,759.198 1472.24,758.682C1471.01,749.669 1471.56,734.105 1470.39,728.913C1467.05,709.14 1492.26,729.933 1489.39,709.943C1481.04,675.086 1444.48,703.219 1425.24,681.684C1409.47,677.186 1390.95,681.911 1374.08,680.611C1364.18,676.81 1361.06,665.479 1354.28,659.718C1345.06,643.296 1316.49,628.058 1331.35,600.196C1348.03,579.228 1331.85,554.553 1314.16,549.636C1300.5,539.827 1283.12,532.905 1263.05,530.605C1254.49,529.333 1242.5,530.221 1233.87,528.23C1225.25,526.239 1220.31,521.909 1225.37,509.146C1230.68,493.501 1226.03,474.473 1217.23,468.676C1209.76,462.443 1206.01,451.863 1204.39,440.939C1200.31,433.018 1195.87,423.808 1188.2,420.657C1182.19,414.657 1173.98,409.526 1165.07,407.608C1154.93,406.087 1148.06,400.221 1137.17,400.639C1135.16,393.364 1125.66,392.363 1122.27,387.704C1115.72,385.992 1111.93,380.085 1108.29,376.722C1106.08,373.441 1108.56,371.519 1111.87,369.201C1115.19,366.883 1119.43,364.594 1120.37,362.147C1123.6,356.434 1128.22,350.707 1130.37,345.148C1133.14,340.349 1134.93,332.867 1135.4,327.032C1134.18,314.83 1136.27,304.862 1139.36,298.166C1141.72,292.761 1144.53,281.758 1142.38,275.866C1143.77,266.562 1139.44,261.395 1137.36,256.823C1135.01,254.017 1132.99,248.933 1131.33,246.776C1130.64,232.718 1137.76,216.054 1127.12,209.621C1110.96,209.036 1105.39,196.875 1093.05,193.605C1089.63,193.605 1083.99,193.602 1081.99,193.602C1074.17,194.041 1066,195.491 1061.12,197.622C1061.07,192.522 1059.1,187.16 1052.76,189.679C1052.63,199.819 1042.1,208.493 1032.22,204.671C1030.12,200.042 1023.32,201.385 1017.7,202.121C1012.09,202.857 1007.83,203.401 1009.39,196.085C1003.81,180.126 1025.03,186.889 1028.37,178.15C1032.11,172.854 1039.21,164.576 1036.37,156.859C1034.56,153.395 1031.32,151.144 1030.06,149.562C1028.8,147.981 1029.25,147.595 1035.1,146.384C1039.75,144.753 1048.41,145.628 1056.11,145.216C1063.82,144.805 1070.87,142.755 1071.4,136.032C1074.4,126.004 1088.52,126.612 1097.13,123.375C1104.83,120.76 1109.34,113.259 1112.36,107.176C1115.6,100.454 1116.31,90.3259 1124.12,89.3796C1132.03,84.7165 1141.74,88.3973 1151.1,86.3848C1158.36,84.0223 1166.55,81.2461 1174.1,80.3861C1179.91,77.9392 1183.08,70.9045 1185.36,66.174C1187.56,61.9793 1186.25,58.3596 1183.61,56.4724C1180.97,54.5852 1176.54,53.8706 1172.9,54.614C1166.33,56.6422 1157.85,58.2398 1151.87,59.6224C1146.96,61.9364 1139.51,63.31 1135.87,65.624C1126.07,66.1284 1116.32,68.2272 1111.71,72.7228C1108.52,76.6507 1106.27,75.4932 1103.79,73.0611C1101.3,70.6291 1099.13,66.8974 1097.26,65.6977C1095.26,61.5073 1090.21,58.7149 1088.3,55.7385C1084.96,54.2767 1080.7,51.3191 1076.96,51.6041C1052.7,54.9302 1050.5,55.1155 1056.39,33.1011C1056.49,18.42 1042.48,12.6991 1044.38,0.114973C1038.19,0.114973 1029.71,-0.3562 1024.82,-0.3562C1024.14,15.0415 1032.12,23.1039 1035.63,33.1517C1037.54,34.8195 1037.51,40.0856 1036.39,44.3034C1035.28,48.5211 1033.74,51.254 1031.28,47.7153C1028.74,46.9267 1026.01,48.633 1025.81,48.6502C1025.21,59.0002 1016.76,78.0479 1028.78,88.3319C1034.49,90.5121 1036.13,99.5782 1034.74,108.264C1033.34,116.949 1029.23,124.538 1022.1,123.615C1012.12,119.291 1009.53,102.761 998.196,98.6536C994.141,94.3838 971.574,92.2287 965.755,98.6865C956.876,101.535 959.305,120.737 963.691,125.251C963.986,129.177 966.879,133.26 969.946,135.023C973.014,136.786 976.948,136.086 978.383,131.108C979.241,119.519 984.738,118.753 991.765,125.321C1001.88,129.545 1002.52,135.714 997.645,144.82C999.072,152.675 1002.47,160.756 1007.9,163.385C1012.66,163.526 1016.68,164.035 1018.31,165.027C1019.93,166.02 1019.18,166.72 1013.92,168.611C1008.1,168.984 1002.34,171.264 998.831,172.64C995.818,174.433 992.616,178.303 991.657,180.799C990.045,181.287 987.541,181.034 985.311,179.989C983.081,178.945 981.832,177.472 983.364,174.161C983.765,167.57 983.26,159.936 982.389,155.916C981.08,148.285 975.804,142.926 972.292,138.73C968.26,135.537 961.056,133.593 955.085,133.611C949.749,131.009 940.243,133.561 935.919,133.61C932.346,135.189 928.294,138.013 925.074,138.609C904.256,124.768 863.455,129.692 839.073,120.609C835.995,120.609 830.478,120.636 828.838,120.636C822.59,133.002 831.755,137.58 842.356,139.651C852.958,141.722 864.76,141.634 864.602,146.986C853.473,157.313 837.518,162.733 819.046,164.604C808.171,160.805 799.601,168.387 796.869,175.75C794.138,183.113 797.366,191.012 808.168,187.361C819.58,179.671 839.171,179.338 851.171,173.36C863.02,168.128 866.586,153.767 881.137,152.374C887.063,147.507 897.38,147.593 901.872,152.377C904.664,151.614 908.889,151.057 911.52,151.461C914.151,151.865 915.014,152.593 911.698,155.74C912.942,167.765 899.662,170.886 895.646,178.818C891.708,185.552 890.187,199.112 894.667,205.218C894.831,210.705 898.462,214.125 901.98,214.751C905.497,215.377 909.629,213.052 910.394,208.06C912.091,198.43 920.003,194.043 924.325,188.23C927.772,181.711 932.841,175.223 933.397,167.028C936.114,161.148 944.683,160.245 950.161,158.364C955.985,154.871 962.531,151.916 964.618,160.113C968.808,164.227 965.509,175.656 965.602,180.009C966.408,186.082 968.753,192.617 971.704,195.266C973.24,205.059 994.665,195.723 991.612,208.911C991.256,213.268 994.175,216.409 996.815,216.9C999.456,217.391 1002.6,215.301 1002.4,210.98C1003.8,208.512 1004.75,209.549 1006.22,211.035C1007.68,212.521 1009.05,214.813 1009.79,215.337C1014.78,217.872 1007.2,222.738 1009.65,227.183C1011.61,238.382 1016.46,239.871 1020.75,237.239C1025.03,234.606 1029.46,227.815 1031.37,223.147C1032.56,217.737 1038.22,217.514 1045.21,218.13C1052.19,218.747 1060.33,220.402 1065.2,219.347C1066.25,217.321 1073.07,218.965 1074.13,218.378C1085.94,217.214 1095.88,218.721 1100.74,223.304C1103.07,224.821 1108.98,224.597 1113.25,225.186C1117.52,225.775 1120.07,226.663 1116.66,231.79C1114.49,238.761 1115.67,250.569 1118.68,254.234C1120.12,260.363 1123.77,265.699 1125.63,270.148C1126.47,282.66 1120.54,289.27 1117.63,296.845C1113.82,301.291 1111.57,308.961 1111.6,316.002C1110.4,320.99 1110.34,328.472 1107.71,330.728C1106.85,334.326 1102.5,336.615 1101.63,338.846C1081.2,365.174 1071.67,324.622 1036.79,335.662C1035.74,337.688 1028.92,336.038 1027.86,336.626C996.229,341.318 962.579,342.884 938.823,356.643C917.035,365.03 898.95,377.725 880.793,388.66C865.074,398.425 846.06,405.593 830.761,414.681C820.115,427.841 799.365,431.655 787.722,442.715C783.196,447.523 781.407,448.003 780.089,446.008C778.771,444.014 778.599,439.813 778.398,434.983C777.708,423.325 776.501,410.963 774.388,401.91C771.363,388.19 763.432,377.961 753.155,372.633C742.91,369.513 730.797,367.051 719.047,366.605C705.883,363.894 700.38,368.319 700.767,372.87C701.154,377.421 707.293,382.88 715.91,382.388C726.506,388.873 744.289,388.406 745.603,403.036C746.668,416.689 749.557,429.615 752.619,440.115C760.03,455.191 751.35,465.551 740.881,467.62C730.61,472.406 720.486,478.46 711.787,483.664C704.739,488.624 697.191,494.251 690.782,498.667C683.649,502.861 675.902,507.566 668.838,510.636C661.096,514.223 653.178,518.879 645.813,521.649C640.423,526.225 631.775,528.886 626.796,532.658C620.536,534.996 614.905,539.462 610.764,542.679C605.785,545.955 599.505,549.422 595.758,552.684C557.193,574.893 532.07,610.967 477.053,615.605C445.261,603.686 412.455,591.866 378.141,583.628C351.188,567.876 316.354,558.979 287.156,546.634C263.401,536.392 232.957,532.841 211.164,520.637C190.006,513.966 171.268,504.407 153.247,495.687C156.479,477.68 171.867,460.901 182.315,446.243C197.078,432.171 217.655,423.361 229.302,407.259C246.409,395.866 265.964,386.501 283.213,376.337C296.335,366.995 311.865,359.377 325.193,351.348C337.423,345.486 348.349,337.208 355.328,327.226C360.884,318.402 365.3,307.388 370.34,299.207C374.391,291.93 377.959,282.834 380.38,275.12C382.778,268.236 384.08,258.709 383.397,249.969C382.801,239.408 383.833,229.216 384.397,221.028C385.982,211.624 388.836,202.253 389.397,193.024C389.168,183.512 392.059,175.919 394.362,170.166C398.042,166.621 397.201,157.119 400.299,154.263C400.694,145.717 407.414,142.141 411.272,138.291C463.849,97.0722 533.024,73.9424 555.341,0.206181C548.805,0.206181 540.069,-0.356511 534.823,-0.356511C533.059,16.646 521.634,25.0824 514.678,35.7655C506.477,42.9589 498.294,50.9662 489.763,56.6797C483.101,62.7036 475.738,69.1333 468.769,73.6754C463.357,78.2288 457.398,83.5128 451.793,86.6599C446.729,90.1935 442.207,95.6814 436.814,97.648C431.813,101.929 425.095,105.909 419.791,108.661C414.712,112.865 408.05,116.953 403.739,120.699C365.067,153.976 376.502,235.95 353.044,285.604C352.886,272.082 357.057,261.81 355.395,247.952C353.166,237.012 354.313,220.802 358.345,214.198C362.002,201.166 356.819,188.951 357.398,177.02C359.622,167.236 362.599,157.256 366.352,150.186C369.441,143.993 372.555,136.346 374.381,130.116C376.779,125.29 378.49,118.245 380.363,114.164C383.211,106.706 386.07,98.1228 390.304,93.2575C393.589,88.975 396.577,82.9033 400.271,80.2914C401.886,75.7163 404.824,70.5131 406.363,67.1625C419.144,23.8702 368.026,23.565 354.261,-0.300858C350.494,-0.300858 344.207,-0.364142 341.839,-0.364142C354.109,22.9043 373.075,37.5359 389.696,55.2566C388.423,57.7997 388.499,64.3614 385.711,66.7257C384.428,71.0429 380.518,75.8674 378.628,80.8575C377.114,84.2331 374.136,89.1993 372.622,93.8749C370.225,99.1864 367.817,107.131 365.622,113.876C364.208,117.708 362.72,124.381 360.638,128.835C358.821,134.377 354.975,140.605 352.629,146.856C349.218,153.236 346.835,163.191 345.605,172.949C341.604,184.158 350.677,194.443 346.621,206.878C344.815,215.349 340.618,228.503 343.614,240.099C345.771,249.042 347.203,266.033 344.618,274.889C348.312,290.094 340.821,296.038 331.771,299.674C328.038,309.162 323.189,319.516 310.906,321.613C298.887,325.538 278.215,323.155 270.708,332.729C264.776,336.587 255.44,339.382 248.756,343.685C243.794,349.557 243.202,355.54 233.147,348.63C229.109,348.273 229.016,345.356 229.354,341.41C229.692,337.463 230.677,332.694 229.363,329.836C226.796,322.823 219.184,312.187 225.352,301.185C228.044,283.057 210.741,271.161 215.389,250.086C216.479,245.655 212.356,242.01 207.542,240.781C202.728,239.551 196.906,240.261 194.071,243.608C194.529,234.967 200.444,229.534 203.368,222.152C211.975,207.718 216.784,187.629 221.388,168.091C221.915,164.071 224.652,157.206 224.884,151.814C225.117,146.423 222.417,142.019 212.962,143.604C200.405,143.927 204.353,163.554 200.625,173.867C195.861,199.203 182.812,217.877 174.624,240.868C165.728,273.19 173.446,316.516 167.61,347.921C148.466,376.201 153.115,425.688 118.808,437.651C111.742,444.83 108.259,457.581 101.899,466.615C94.7045,462.299 84.6536,458.864 76.1838,454.647C72.813,452.772 67.0706,450.319 63.1989,447.655C57.5064,445.291 50.6255,441.511 45.1987,437.655C36.0918,434.146 23.9582,427.767 17.9135,422.611C16.007,434.563 26.3086,443.04 34.7847,448.335C38.1233,450.597 41.6735,455.564 45.7832,458.334C50.5859,461.24 56.2991,465.833 61.7569,469.315C69.0864,477.93 81.8616,483.079 91.7296,490.292C86.9366,500.424 83.0761,513.283 79.6166,525.893C77.6789,530.613 76.2291,538.602 74.6147,544.9C71.2676,553.896 73.2863,566.526 76.643,575.176C77.4121,575.661 77.7282,577.877 77.7145,580.078C77.7008,582.279 77.5873,583.912 76.8729,583.623C76.6652,596.295 71.945,606.699 68.8398,617.635C58.0857,606.419 40.3972,618.985 36.632,627.848C35.7052,631.811 30.3902,634.525 29.6077,639.932C26.8801,642.349 23.7925,651.031 26.6388,657.168C29.0897,662.425 32.113,670.417 43.0798,668.39C44.7857,668.004 50.5628,665.465 55.1609,664.79C59.759,664.115 62.7311,664.76 59.6329,671.846C60.2245,676.109 58.9263,676.045 56.3904,675.311C53.8545,674.578 50.3622,672.94 47.9141,673.611C43.793,674.287 33.3335,675.883 28.0791,673.61C26.0311,673.661 21.8124,671.029 18.2037,670.073C14.595,669.117 11.1199,670.254 11.6029,677.029C12.8065,683.184 17.8953,688.565 22.749,692.309C26.7759,695.991 35.6022,697.833 41.9776,700.398C48.9219,698.462 51.9834,700.107 52.9579,703.432C53.9325,706.756 52.5147,711.136 49.6723,714.774C48.8674,725.136 43.8228,733.92 45.605,748.05C47.8009,760.5 44.1231,774.976 43.6029,788.97ZM143.751,484.689L141.398,486C136.265,481.689 124.374,481.335 119.311,475.751C124.116,463.256 131.447,452.079 144.161,446.364C147.83,444.788 152.232,440.602 154.352,436.186C157.559,432.735 160.823,426.536 163.363,421.164C164.353,414.795 166.877,407.562 172.235,404.322C177.134,399.086 182.333,391.49 186.354,384.183C187.055,378.577 192.358,375.32 201.005,376.398C207.712,375.397 217.097,374.045 222.277,370.286C223.209,364.812 226.233,363.575 230.416,363.894C234.599,364.213 239.62,366.199 243.956,367.396C253.591,366.896 250.618,351.273 263.067,352.393C270.882,348.698 278.016,341.928 286.145,337.371C297.749,335.071 312.624,333.886 321.159,327.365C335.028,326.155 334.979,306.204 346.849,304.368C344.016,314.757 336.513,321.985 326.802,326.654C318.453,332.89 305.979,337.127 296.785,343.665C285.449,349.629 274.569,358.098 263.74,365.698C257.292,375.533 239.634,376.001 227.847,381.632C215.676,385.745 204.484,392.895 192.817,398.647C180.644,405.467 174.836,420.958 169.627,435.861C159.85,450.135 153.409,469.2 143.751,484.689ZM1055.68,119.767L1053.4,121C1052.56,112.029 1059.2,94.5008 1054.37,82.8501C1052.82,77.3919 1043.67,76.9267 1043.39,68.9495C1047.57,71.0792 1058,69.804 1064.97,70.3973C1068.27,70.5603 1073.12,72.3054 1076.86,73.3713C1079.81,74.9485 1082.78,79.1776 1084.64,83.1669C1086.38,87.2607 1096.57,92.3813 1091.7,98.7327C1085.18,103.032 1071.79,102.673 1065.78,108.671C1061.34,109.836 1057.5,114.71 1055.68,119.767Z" stroke="#06E7F9" stroke-width="3.2" stroke-linecap="round" fill="#06E7F9" stroke-linejoin="round"/>
<path d="M881.664,789.214C888.544,789.214 897.545,789.371 903.146,789.371C906.454,785.165 904.096,779.54 902.228,775.041C900.36,770.541 898.982,767.168 905.144,765.371C916.244,759.509 924.109,748.045 930.349,736.192C932.283,733.593 934.052,727.956 937.25,725.31C941.037,722.439 945.006,716.86 948.309,712.251C953.593,708.091 960.919,704.069 969.876,702.379C972.694,706.524 976.901,706.708 979.232,704.678C981.564,702.648 982.483,697.817 979.339,692.791C977.986,690.328 973.248,687.553 969.045,686.604C966.308,686.604 961.252,686.603 959.974,686.603C917.258,692.304 913.807,735.41 880.792,749.661C878.431,752.191 875.429,757.695 876.607,765.063C875.06,775.015 879.342,781.911 881.664,789.214Z" stroke="#02E7F9" stroke-width="3.2" stroke-linecap="round" fill="#02E7F9" stroke-linejoin="round"/>
<path d="M1004.84,789.363C1006.9,789.363 1011.55,789.382 1012.11,789.382C1022.39,782.022 1036.22,775.929 1043.31,764.253C1048.24,762.083 1050.68,755.438 1049.5,750.707C1048.32,745.977 1043.15,742.517 1033.93,746.609C1030.25,746.386 1026.52,749.426 1021.9,749.614C1019.17,751.053 1014.11,753.268 1008.95,753.605C1003.01,754.667 997.199,759.152 994.634,764.843C995.178,774.434 998.877,783.994 1004.84,789.363Z" stroke="#03E7F9" stroke-width="3.2" stroke-linecap="round" fill="#03E7F9" stroke-linejoin="round"/>
<path d="M821.855,779.371L823.398,778C829.868,775.187 830.787,766.135 838.095,765.387C842.689,763.445 847.782,760.321 853.093,760.387C857.48,757.894 865.48,756.965 867.333,753.218C870.377,751.651 873.718,744.527 870.966,741.603C868.572,745.4 860.197,744.853 855.06,744.606C840.326,740.724 825.767,744.673 818.212,751.816C810.658,758.959 809.904,770.061 821.855,779.371Z" stroke="#06E7F9" stroke-width="3.2" stroke-linecap="round" fill="#06E7F9" stroke-linejoin="round"/>
<path d="M1287.77,767.322C1288.64,767.477 1290.21,767.534 1291.13,767.365C1292.04,767.195 1292.75,766.142 1292.22,765.666C1300.66,763.034 1282.66,753.888 1297.1,751.385C1304.07,748.732 1312.86,746.302 1317.26,742.301C1321.94,738.722 1328.55,735.465 1331.33,731.229C1334.88,727.564 1338.23,721.895 1339.39,717.097C1341.22,713.504 1344.48,704.036 1340.19,701.651C1331.01,696.639 1329.83,714.956 1319.95,713.605C1314.57,715.791 1302.23,713.154 1300.63,717.861C1297.09,722.326 1303.18,727.459 1304.89,728.381C1310.32,728.665 1308.86,720.026 1315.04,722.396C1316.81,721.219 1319.38,720.8 1320.89,721.01C1322.4,721.22 1322.59,721.34 1319.77,722.676C1315.22,730.548 1301.51,734.751 1291.77,740.395C1282.04,746.039 1276.28,753.77 1287.77,767.322Z" stroke="#0AE7F9" stroke-width="3.2" stroke-linecap="round" fill="#0AE7F9" stroke-linejoin="round"/>
<path d="M1048.8,744.343C1049.67,744.498 1051.21,744.534 1052.13,744.365C1053.04,744.195 1053.78,743.164 1053.25,742.688C1058.64,739.482 1060.93,732.231 1064.31,728.251C1068.16,722.482 1066.68,709.798 1068.39,703.097C1068.7,696.873 1071.95,691.97 1073.37,688.147C1075.06,685.728 1076.41,681.176 1077.27,679.297C1108.45,684.787 1105.67,644.092 1127.24,633.32C1130.76,626.876 1135.99,620.856 1142.22,618.334C1143.23,616.849 1145.76,614.093 1147.08,611.658C1148.4,609.223 1148.35,606.38 1145.05,605.605C1141.49,605.52 1142.25,604.518 1143.51,602.726C1144.77,600.935 1146.8,598.522 1146.33,597.773C1151.83,592.441 1153.28,585.04 1151.48,578.865C1149.67,572.69 1144.28,567.57 1136.99,567.602C1120.84,568.022 1121.31,551.064 1110.16,547.634C1106.11,545.141 1102.19,540.677 1097.02,540.602C1058.23,537.268 1051.9,498.306 1007.97,503.603C960.663,505.556 939.51,532.872 894.862,538.626C868.712,558.472 840.815,576.62 806.837,588.637C802.538,591.218 799.274,596.635 795.739,598.7C795.69,607.013 784.93,620.132 779.105,630.685C773.281,641.237 772.767,649.904 792.114,648.382C812.628,636.045 816.114,606.331 842.955,601.396C864.758,611.105 860.078,647.539 877.745,660.306C882.321,665.684 887.215,663.837 890.356,659.603C893.497,655.37 895.538,648.429 895.398,643.985C885.578,635.376 881.031,620.428 875.349,608.809C867.358,600.731 856.566,594.539 852.357,583.823C859.222,579.36 870.995,579.337 878.158,576.365C894.716,568.781 906.793,556.205 929.027,555.397C946.736,553.668 956.411,542.981 969.124,537.378C983.065,534.575 994.603,528.563 1008.04,526.396C1024.5,525.671 1036.01,530.356 1042.69,538.254C1049.56,547.46 1060.28,553.999 1070.84,558.365C1080.86,563.06 1090.3,569.147 1097.72,575.285C1101.82,582.511 1107.85,589.039 1112.73,594.295C1118.61,597.699 1127.35,599.508 1130.68,604.234C1132.77,606.7 1129.82,607.296 1125.84,608.288C1121.85,609.28 1116.92,610.117 1115.76,611.683C1108.7,612.39 1100.57,617.365 1097.08,617.609C1091.42,614.672 1086.93,609.088 1079.05,609.605C1072.75,607.487 1063.4,609.617 1058.94,610.606C1053.12,610.972 1049.83,615.857 1046.76,617.682C1042.77,622.632 1040.08,630.792 1040.6,639.025C1040.76,645.748 1044.48,650.632 1045.61,655.098C1047.04,660.555 1054.04,662.259 1055.67,666.229C1057.37,666.49 1059.46,667.598 1060.7,668.942C1061.93,670.286 1062.39,671.316 1060.76,672.679C1043.93,682.109 1032.1,728.715 1048.8,744.343Z" stroke="#02E7F9" stroke-width="3.2" stroke-linecap="round" fill="#02E7F9" stroke-linejoin="round"/>
<path d="M1233.64,723.822C1234.52,723.976 1236.21,724.534 1237.13,724.365C1238.04,724.195 1238.79,723.17 1238.25,722.693C1242.94,719.466 1246.53,714.105 1249.32,710.237C1252.13,706.857 1255.68,702.409 1257.35,699.19C1259.39,696.423 1262.37,692.617 1263.37,690.155C1266.27,685.492 1269.27,679.582 1272.28,676.283C1276.85,672.937 1282.73,669.639 1287.13,667.378C1291.66,666.744 1293.95,657.216 1291.1,653.615C1263.14,667.829 1241.9,695.952 1233.64,723.822Z" stroke="#0EE7F9" stroke-width="3.2" stroke-linecap="round" fill="#0EE7F9" stroke-linejoin="round"/>
<path d="M1495.91,696.387C1496.82,696.432 1498.47,696.516 1499.63,696.418C1500.78,696.319 1501.83,695.38 1501.29,694.731C1502.71,693.597 1504.29,691.713 1504.94,689.489C1505.59,687.265 1505.18,684.616 1503.18,683.645C1499.72,681.778 1504.4,676.397 1507.01,671.404C1509.63,666.41 1509.93,661.767 1498.93,663.609C1490.34,665.409 1485.81,672.278 1485.48,679.077C1485.14,685.876 1488.99,693.382 1495.91,696.387Z" stroke="#08E7F9" stroke-width="3.2" stroke-linecap="round" fill="#08E7F9" stroke-linejoin="round"/>
<path d="M978.868,678.376C980.351,678.147 982.972,678.421 985.102,678.479C987.231,678.537 989.399,678.003 989.398,677C993.857,674.923 995.503,668.727 998.292,666.27C999.6,661.734 1002.6,656.658 1001.39,650.917C999.739,644.943 992.556,642.909 985.583,643.293C978.609,643.678 971.158,646.3 968.701,648.737C963.263,660.685 973.098,673.152 978.868,678.376Z" stroke="#02E7F9" stroke-width="3.2" stroke-linecap="round" fill="#02E7F9" stroke-linejoin="round"/>
<path d="M296.67,660.223C297.543,660.377 299.211,660.534 300.126,660.365C301.041,660.195 301.827,659.209 301.295,658.733C303.439,647.499 298.97,629.635 286.838,628.636C283.805,640.373 293.117,651.358 296.67,660.223Z" stroke="#11E8F9" stroke-width="3.2" stroke-linecap="round" fill="#11E8F9" stroke-linejoin="round"/>
<path d="M156.907,651.387C158.116,651.228 160.348,651.452 162.117,651.473C163.887,651.494 165.621,650.709 165.334,649.784C174.298,650.149 177.195,643.379 179.355,638.18C181.953,636.266 182.063,632.709 181.083,629.941C180.104,627.173 177.675,624.614 175.996,624.602C170.319,624.77 163.294,625.722 160.738,627.7C154.096,635.609 143.453,622.054 134.73,627.707C134.848,636.433 148.894,646.289 156.907,651.387Z" stroke="#07E7F9" stroke-width="3.2" stroke-linecap="round" fill="#07E7F9" stroke-linejoin="round"/>
<path d="M1051.89,578.383C1052.88,578.342 1054.75,578.494 1056.13,578.447C1057.5,578.401 1058.81,577.532 1058.32,576.758C1062.86,573.685 1064.73,568.117 1063.49,563.658C1062.26,559.199 1057.53,555.702 1049.92,557.61C1043.75,558.582 1043.11,563.577 1044.73,568.069C1046.35,572.561 1050.2,577.323 1051.89,578.383Z" stroke="#0AE7F9" stroke-width="3.2" stroke-linecap="round" fill="#0AE7F9" stroke-linejoin="round"/>
<path d="M849.842,394.365C851.052,394.207 853.348,394.452 855.117,394.473C856.887,394.494 858.658,393.782 858.371,392.856C870.883,384.19 867.42,383.19 861.81,385.098C856.2,387.006 847.914,392.331 849.842,394.365Z" stroke="#0CE7F9" stroke-width="3.2" stroke-linecap="round" fill="#0CE7F9" stroke-linejoin="round"/>
<path d="M707.971,280.397C706.88,272.924 718.855,271.343 715.311,265.752C711.25,263.428 708.72,265.735 707.945,269.138C707.169,272.542 707.809,277.689 707.971,280.397Z" stroke="#1FE9F9" stroke-width="3.2" stroke-linecap="round" fill="#1FE9F9" stroke-linejoin="round"/>
<path d="M162.831,233.36C163.923,233.253 166.046,233.472 167.623,233.464C169.201,233.456 170.744,232.657 170.341,231.795C175.611,228.704 180.859,219.455 177.301,211.739C170.132,211.339 171.736,200.523 168.257,197.696C165.056,194.708 160.816,190.977 158.228,188.674C152.142,186.163 147.107,180.977 140.108,180.617C135.374,177.783 123.994,180.668 123.396,174.959C123.194,172.698 119.904,170.49 116.712,169.748C113.52,169.007 109.783,169.464 108.752,171.689C104.419,170.633 102.803,173.195 102.653,175.969C102.503,178.744 103.786,182.326 104.719,183.282C123.585,200.413 145.57,214.625 162.831,233.36Z" stroke="#03E7F9" stroke-width="3.2" stroke-linecap="round" fill="#03E7F9" stroke-linejoin="round"/>
<path d="M486,38.3982C492.885,36.4664 495.126,27.4618 494.452,18.9072C493.778,10.3526 490.299,1.46733 487.111,-0.382403C478.171,-0.382403 467.563,-0.370664 459.855,-0.370664C464.67,5.72284 464.445,24.9068 480.048,18.3952C484.412,19.1009 477.65,36.076 486,38.3982Z" stroke="#04E7F9" stroke-width="3.2" stroke-linecap="round" fill="#04E7F9" stroke-linejoin="round"/>
</g>
</svg>
