<?xml version='1.0' encoding='utf-8'?>
<!-- Generator: imaengine 6.0   -->
<svg xmlns:xlink="http://www.w3.org/1999/xlink" xmlns="http://www.w3.org/2000/svg" viewBox="0,0,1472,726" style="enable-background:new 0 0 1472 726;" version="1.1">
<defs/>
<g id="layer0">
<path d="M107,726L119,724L120,723L133,723L149,726L183,717L182,717L182,716L180,714L179,714L179,713L131,682L132,681L136,672L135,672L135,671L131,662L132,661L103,657L102,657L102,656L96,656L95,657L87,677L86,678L86,702L92,708L107,726Z" fill="#E5EAE9"/>
<path d="M260,726L273,726L313,723L317,726L443,714L442,714L442,713L439,711L438,711L438,710L403,711L404,710L385,704L384,705L317,720L316,720L316,719L284,706L283,707L260,726Z" fill="#E5EAE9"/>
<path d="M1319,726L1400,726L1400,725L1364,720L1363,720L1363,719L1351,714L1350,714L1350,713L1335,688L1335,680L1281,647L1280,648L1261,645L1260,645L1260,644L1251,635L1252,635L1242,631L1241,632L1235,645L1244,654L1262,669L1265,672L1276,678L1292,682L1291,688L1290,688L1290,687L1288,687L1288,686L1286,683L1286,682L1285,682L1283,683L1296,696L1311,714L1319,726Z" fill="#E5EAE9"/>
<path d="M1410,726L1472,726L1472,696L1471,696L1472,693L1472,677L1472,646L1469,616L1470,615L1472,613L1466,601L1467,600L1467,598L1468,597L1472,594L1470,570L1469,570L1469,569L1464,567L1463,567L1456,567L1466,562L1467,561L1469,557L1470,556L1469,555L1469,554L1462,552L1461,552L1472,542L1433,547L1432,548L1430,550L1429,551L1417,560L1416,561L1448,590L1447,596L1436,659L1435,660L1410,726Z" fill="#E5EAE9"/>
<path d="M316,720L317,720L316,719L316,720Z" fill="#000000"/>
<path d="M1363,720L1364,720L1363,719L1363,720Z" fill="#000000"/>
<path d="M182,717L183,717L182,716L182,717Z" fill="#000000"/>
<path d="M179,714L180,714L179,713L179,714Z" fill="#000000"/>
<path d="M442,714L443,714L442,713L442,714Z" fill="#000000"/>
<path d="M1350,714L1351,714L1350,713L1350,714Z" fill="#000000"/>
<path d="M438,711L439,711L438,710L438,711Z" fill="#000000"/>
<path d="M519,709L521,709L519,708L519,709Z" fill="#000000"/>
<path d="M521,709L528,706L529,705L531,703L532,702L534,699L535,698L558,691L559,690L565,687L646,612L645,612L645,611L639,613L638,614L631,583L630,583L630,582L628,574L627,574L627,573L617,558L616,558L609,560L608,561L577,567L576,567L576,566L575,564L574,564L574,563L562,552L561,552L561,551L570,538L571,537L577,535L578,534L593,522L594,521L595,520L596,519L596,518L597,518L597,519L596,519L595,520L594,521L593,522L587,534L613,541L614,540L620,540L620,554L630,558L646,562L666,562L667,561L673,567L675,568L676,567L699,559L700,558L678,549L677,549L677,548L663,534L662,534L662,533L645,515L645,516L644,516L644,515L645,515L645,514L646,513L750,478L751,477L752,475L753,474L753,473L754,472L755,470L756,469L757,466L758,465L759,463L760,462L762,458L763,457L773,439L774,438L779,425L780,424L794,414L795,413L764,428L740,476L739,477L730,479L729,480L718,480L717,480L717,479L688,471L687,471L687,470L680,470L679,471L669,478L668,479L663,485L662,486L659,488L656,492L656,493L655,493L655,492L656,492L659,488L660,485L661,484L673,464L672,464L672,463L660,473L659,474L657,476L656,477L654,479L653,480L645,488L645,489L656,482L656,481L657,481L657,482L656,482L638,506L637,507L631,512L631,513L630,513L629,513L631,512L636,505L637,504L641,492L640,492L640,491L638,491L637,491L634,486L633,486L633,485L627,485L626,486L618,491L617,492L574,517L573,517L573,516L567,515L566,516L543,536L542,537L538,543L537,543L537,542L499,557L498,558L499,561L472,569L471,570L466,575L465,576L463,576L463,575L441,578L440,579L410,579L409,579L409,578L400,575L399,576L385,566L386,565L385,564L385,563L370,559L371,558L371,555L370,555L370,554L367,552L366,552L366,551L347,549L346,549L346,548L341,546L334,546L307,539L306,540L283,538L283,539L282,539L281,539L283,538L288,528L287,528L287,527L283,525L282,525L272,527L271,528L268,529L266,530L265,531L264,532L263,531L266,530L268,529L270,526L271,525L203,507L204,506L189,486L188,486L188,485L179,485L178,486L141,474L140,474L140,473L132,465L131,465L131,464L116,464L115,465L130,501L131,501L116,525L116,530L115,531L102,542L101,543L96,554L95,555L95,564L97,567L104,571L101,592L113,589L113,587L105,583L106,582L122,577L123,576L126,579L135,582L200,598L201,597L204,582L203,582L203,581L201,567L200,567L200,566L211,550L228,558L233,559L234,558L300,570L324,571L348,583L353,582L399,633L415,640L416,639L417,637L417,634L419,633L418,635L417,637L430,649L431,648L464,654L488,654L496,654L509,649L510,648L511,653L510,654L510,694L516,705L519,708L521,709ZM530,687L529,688L529,689L528,689L528,688L529,688L531,678L532,677L532,675L531,675L531,674L531,667L532,666L532,660L531,660L531,659L539,634L534,634L536,631L537,631L539,634L569,639L587,645L593,645L618,639L622,638L624,637L622,640L618,647L617,648L585,659L584,660L551,671L550,671L550,670L542,671L541,672L537,677L536,678L530,687ZM476,648L466,643L467,642L476,631L476,630L476,629L477,629L476,631L484,643L485,642L487,640L488,639L502,637L503,636L513,625L515,622L515,621L516,621L516,622L515,622L513,625L480,647L479,648L476,648ZM510,591L510,590L512,587L517,582L516,583L512,587L510,590L510,591Z" fill="#E5EAE9"/>
<path d="M1290,688L1291,688L1290,687L1290,688Z" fill="#000000"/>
<path d="M1288,687L1290,687L1288,686L1288,687Z" fill="#000000"/>
<path d="M1286,683L1286,681L1286,682L1286,683Z" fill="#000000"/>
<path d="M1285,682L1286,682L1286,681L1285,682Z" fill="#000000"/>
<path d="M531,675L532,675L531,674L531,675Z" fill="#000000"/>
<path d="M135,672L136,672L135,671L135,672Z" fill="#000000"/>
<path d="M550,671L551,671L550,670L550,671Z" fill="#000000"/>
<path d="M229,667L231,667L229,666L229,667Z" fill="#000000"/>
<path d="M231,667L255,657L234,636L233,636L233,635L228,633L227,633L227,632L208,624L207,624L207,623L209,616L209,614L206,610L207,609L213,599L212,600L206,602L205,603L202,605L201,606L199,657L208,658L224,660L226,662L229,666L231,667Z" fill="#E5EAE9"/>
<path d="M531,660L532,660L531,659L531,660Z" fill="#000000"/>
<path d="M641,660L647,658L648,658L669,640L670,639L672,637L673,636L647,628L651,638L650,639L639,653L641,660Z" fill="#E5EAE9"/>
<path d="M647,659L648,658L647,658L647,659Z" fill="#000000"/>
<path d="M102,657L103,657L102,656L102,657Z" fill="#000000"/>
<path d="M488,655L496,654L488,654L488,655Z" fill="#98BABC"/>
<path d="M587,646L593,645L587,645L587,646Z" fill="#000000"/>
<path d="M1260,645L1261,645L1260,644L1260,645Z" fill="#000000"/>
<path d="M618,640L622,640L622,638L618,639L618,640Z" fill="#B3C9C9"/>
<path d="M233,636L234,636L233,635L233,636Z" fill="#000000"/>
<path d="M1251,636L1252,635L1251,635L1251,636Z" fill="#000000"/>
<path d="M227,633L228,633L227,632L227,633Z" fill="#000000"/>
<path d="M261,625L262,625L261,624L261,625Z" fill="#000000"/>
<path d="M262,625L263,625L264,624L261,594L262,594L247,590L246,591L250,606L259,622L261,624L262,625Z" fill="#E5EAE9"/>
<path d="M207,624L208,624L207,623L207,624Z" fill="#000000"/>
<path d="M645,612L646,612L645,611L645,612Z" fill="#000000"/>
<path d="M2,605L4,605L2,604L2,605Z" fill="#000000"/>
<path d="M4,605L18,598L19,597L22,597L24,597L36,500L35,500L35,499L15,501L14,501L14,500L0,508L0,524L0,532L0,538L0,551L0,566L0,575L2,586L4,588L5,594L0,598L2,604L4,605ZM30,575L33,556L34,555L30,575Z" fill="#E5EAE9"/>
<path d="M1370,605L1371,605L1370,604L1370,605Z" fill="#000000"/>
<path d="M1371,605L1368,585L1368,584L1367,526L1368,525L1374,513L1373,513L1373,512L1423,498L1429,505L1432,507L1441,513L1449,519L1472,520L1447,492L1446,492L1446,491L1445,484L1446,483L1454,474L1455,473L1452,468L1451,468L1451,467L1440,461L1441,460L1460,457L1461,456L1472,451L1462,432L1461,432L1461,431L1437,425L1436,425L1436,424L1433,400L1434,399L1436,397L1437,396L1460,370L1461,369L1463,366L1464,365L1467,361L1468,360L1472,354L1469,333L1470,332L1472,328L1472,311L1472,276L1470,252L1469,252L1469,251L1472,248L1463,247L1464,246L1466,237L1465,237L1465,236L1466,233L1467,232L1471,222L1470,222L1470,221L1468,219L1467,219L1467,218L1463,215L1464,214L1472,219L1472,143L1472,110L1472,79L1472,71L1472,22L1385,0L1359,0L1281,0L1122,15L1121,15L1121,14L1111,10L1112,9L1103,0L996,15L1022,18L1051,21L1080,45L1086,57L1095,66L1096,82L1095,83L1051,105L1050,105L1050,104L1009,116L1008,117L1015,125L1016,124L1031,118L1032,117L1040,119L1041,121L1042,121L1043,120L1059,163L1071,180L1060,259L1061,258L1063,257L1064,256L1062,249L1080,252L1139,246L1141,247L1142,246L1141,254L1140,255L1130,259L1131,258L1133,256L1133,254L1119,258L1110,258L1110,257L1100,257L1089,258L1075,260L1074,261L1051,282L1050,283L1045,311L1044,312L1036,323L1035,324L1032,326L1031,327L1030,331L1027,338L1026,339L1035,360L1044,365L1045,366L1050,369L1055,372L1089,387L1104,403L1107,405L1112,411L1143,391L1143,389L1145,389L1146,391L1143,406L1153,411L1160,414L1166,414L1176,409L1177,408L1179,405L1180,404L1186,390L1185,390L1185,389L1232,412L1220,475L1223,489L1231,492L1232,492L1248,514L1247,515L1261,534L1248,562L1247,563L1245,563L1244,564L1307,561L1353,597L1370,604L1371,605ZM1320,534L1306,527L1320,534ZM1367,461L1355,462L1367,461ZM1379,441L1388,432L1387,433L1379,441ZM1304,436L1299,418L1300,417L1309,414L1330,424L1331,424L1331,425L1330,425L1330,424L1304,436ZM1287,412L1280,402L1281,401L1282,400L1284,397L1285,397L1285,396L1286,396L1286,397L1285,397L1287,412ZM1207,331L1183,309L1182,309L1182,308L1180,300L1179,300L1179,299L1177,291L1176,291L1176,290L1174,281L1173,281L1173,280L1173,268L1174,267L1176,265L1177,264L1179,260L1180,259L1179,258L1179,257L1185,241L1186,240L1227,238L1228,237L1207,331ZM1085,328L1082,295L1082,294L1081,293L1081,292L1080,291L1079,291L1079,290L1095,284L1101,291L1107,294L1117,297L1104,308L1103,309L1085,328ZM1340,238L1362,199L1363,198L1340,238ZM1156,237L1181,225L1185,226L1186,225L1189,216L1188,216L1188,215L1173,185L1174,184L1173,183L1173,182L1164,182L1163,183L1190,170L1189,170L1189,169L1250,176L1249,177L1242,182L1241,183L1227,215L1226,216L1156,237ZM1055,232L1052,231L1051,231L1051,230L1054,208L1055,207L1052,201L1051,201L1051,200L1088,203L1087,204L1084,206L1083,207L1055,232ZM1142,189L1156,179L1142,189ZM1158,170L1157,171L1151,165L1150,165L1150,164L1169,167L1168,168L1158,170ZM1278,157L1278,154L1278,152L1287,145L1288,144L1285,155L1284,156L1278,157ZM1274,139L1267,138L1266,138L1266,137L1246,132L1245,132L1245,130L1244,129L1243,129L1243,128L1247,87L1252,96L1255,75L1255,74L1257,67L1257,65L1274,63L1283,78L1289,81L1274,139ZM1147,79L1137,74L1147,79Z" fill="#E5EAE9"/>
<path d="M22,598L24,597L22,597L22,598Z" fill="#000000"/>
<path d="M261,595L262,594L261,594L261,595Z" fill="#000000"/>
<path d="M630,583L631,583L630,582L630,583Z" fill="#000000"/>
<path d="M203,582L204,582L203,581L203,582Z" fill="#000000"/>
<path d="M707,581L708,581L707,580L707,581Z" fill="#000000"/>
<path d="M708,581L749,547L749,546L751,534L750,534L750,533L746,533L745,534L730,532L731,531L737,526L738,525L737,524L737,523L717,536L716,537L714,540L714,550L713,551L711,557L710,558L707,580L708,581Z" fill="#E5EAE9"/>
<path d="M409,579L410,579L409,578L409,579Z" fill="#000000"/>
<path d="M627,574L628,574L627,573L627,574Z" fill="#000000"/>
<path d="M1469,570L1470,570L1469,569L1469,570Z" fill="#000000"/>
<path d="M646,569L647,563L646,563L646,569Z" fill="#000000"/>
<path d="M200,567L201,567L200,566L200,567Z" fill="#000000"/>
<path d="M576,567L577,567L576,566L576,567Z" fill="#000000"/>
<path d="M574,564L575,564L574,563L574,564Z" fill="#000000"/>
<path d="M646,563L647,563L646,562L646,563ZM174,523L183,522L184,522L184,523L183,523L183,522L174,523Z" fill="#E5EAE9"/>
<path d="M417,562L419,562L417,561L417,562Z" fill="#000000"/>
<path d="M419,562L501,536L520,532L521,532L549,517L550,516L552,515L553,514L555,512L556,511L573,505L574,504L579,499L580,498L585,475L586,474L588,472L589,471L630,472L631,471L633,470L634,469L636,466L637,465L651,460L652,459L660,454L661,453L663,451L664,450L675,436L676,435L689,412L697,415L698,414L660,342L676,345L687,348L699,367L698,368L705,379L704,380L710,406L743,403L744,402L748,406L749,406L758,400L759,399L761,396L762,395L767,391L768,390L770,388L771,387L771,385L771,384L770,382L770,381L752,355L753,354L755,352L756,351L814,342L835,345L847,348L875,337L876,336L887,331L888,330L901,310L908,318L926,319L929,318L952,318L964,319L999,325L1000,325L1009,325L1010,324L1012,322L1013,321L1018,316L1019,315L1021,310L1021,309L1021,307L1022,306L1024,301L1025,300L1030,275L1030,273L1027,269L1027,268L929,259L920,265L919,266L916,275L915,276L888,242L887,243L884,245L883,246L878,248L877,249L877,253L860,257L859,258L869,250L870,249L868,240L867,240L867,239L821,233L820,234L727,216L726,216L724,217L721,216L720,216L720,215L713,254L654,278L653,279L639,282L640,281L628,276L627,276L627,275L612,239L613,238L615,229L616,228L609,217L610,216L615,211L616,210L622,205L623,204L695,183L721,163L722,162L727,165L767,151L768,150L770,147L771,146L774,142L775,141L776,139L777,138L782,133L783,132L788,118L789,117L791,111L791,110L794,97L795,96L820,99L833,97L834,96L869,46L870,45L875,29L875,23L873,18L872,18L872,17L865,0L831,3L830,3L830,2L819,2L808,3L772,0L690,8L689,9L686,0L609,45L609,46L608,46L608,45L609,45L618,28L619,27L633,1L633,0L602,3L601,3L601,2L588,2L587,3L583,0L552,4L553,3L554,0L540,68L539,69L531,71L530,72L514,66L505,66L445,88L444,89L436,94L435,95L379,146L378,147L373,158L372,159L364,161L363,162L346,188L347,187L349,171L350,170L364,134L365,133L367,130L368,129L369,126L368,126L368,125L366,123L365,123L365,122L359,112L360,111L361,109L362,108L398,94L399,93L418,73L419,72L421,70L422,69L424,67L425,66L427,64L428,63L431,64L443,52L442,52L442,51L437,44L438,43L436,34L436,33L435,27L434,27L434,26L426,21L425,21L425,20L423,20L422,21L421,22L420,23L418,34L397,50L396,51L387,53L386,54L358,60L357,60L357,59L300,21L293,21L284,34L285,33L292,6L280,6L189,3L188,3L188,2L179,2L178,3L170,5L169,6L107,40L108,39L110,37L111,36L84,25L85,24L87,22L88,21L90,19L91,18L107,0L85,5L84,6L81,8L80,9L77,11L76,12L69,17L68,18L61,23L61,24L61,25L60,25L61,23L49,11L48,12L48,13L47,13L47,12L48,12L49,11L55,0L36,0L0,19L20,27L21,26L21,25L22,25L22,26L21,26L20,27L0,61L5,82L5,81L5,80L6,80L5,82L0,91L0,130L11,139L12,138L12,137L13,137L13,138L12,138L11,139L0,163L4,184L5,183L7,182L8,181L10,179L10,178L11,178L11,179L10,179L8,181L7,182L3,188L2,189L0,192L0,217L5,257L7,256L7,255L8,255L8,256L7,256L5,257L0,264L12,284L12,283L13,283L13,284L12,284L11,296L23,306L31,312L35,315L68,333L77,336L81,337L82,336L116,345L117,344L117,343L118,342L121,337L122,336L127,326L127,325L115,320L115,321L114,321L114,320L115,320L131,300L131,299L96,298L95,299L96,283L97,282L99,280L100,279L102,277L103,276L105,271L105,270L97,268L95,269L95,270L94,270L94,269L95,269L97,268L99,265L100,264L107,255L108,254L110,251L111,250L119,238L120,237L120,235L121,234L132,252L135,253L136,252L158,238L159,237L161,232L162,231L164,225L165,224L167,216L168,215L168,210L167,210L167,209L160,207L159,207L152,205L153,204L155,202L156,201L170,178L171,177L176,158L177,157L191,106L192,105L156,65L156,66L155,66L154,66L156,65L161,57L162,56L162,53L161,53L161,52L150,49L150,47L165,36L175,36L205,54L219,53L218,53L218,52L241,78L248,87L283,102L286,105L288,105L283,113L283,114L282,114L282,113L283,113L282,111L281,111L281,110L275,105L274,105L270,105L257,143L256,144L262,174L248,212L247,213L239,228L255,285L257,285L275,268L276,267L320,262L321,261L322,249L323,248L328,240L329,239L328,238L328,237L322,220L323,219L323,215L322,215L322,214L320,211L321,210L323,199L322,199L322,198L325,189L325,188L322,184L323,183L331,160L332,159L333,156L332,156L332,155L345,245L343,286L344,285L347,283L348,282L358,274L359,273L339,296L338,296L302,314L301,315L299,316L298,317L277,329L276,330L272,332L271,333L269,334L268,335L257,341L256,342L254,343L253,344L218,365L217,366L167,407L166,408L164,412L163,413L148,453L158,459L214,483L226,492L237,495L264,504L271,507L315,525L322,528L378,487L380,489L403,481L404,480L411,474L419,515L418,515L418,514L417,561L419,562ZM505,480L511,472L512,471L514,469L515,468L520,469L519,470L505,480ZM611,447L618,442L619,441L611,447ZM517,444L510,414L512,414L517,444ZM568,440L569,432L568,440ZM611,414L630,411L630,414L622,414L611,414ZM628,397L575,389L574,390L569,387L568,387L568,386L566,386L565,386L567,370L568,369L568,366L567,366L567,365L625,363L628,397ZM297,360L298,359L355,316L356,315L359,313L360,312L364,310L365,309L365,308L366,308L366,309L365,309L364,310L305,356L304,357L298,359L297,360ZM273,357L270,358L268,359L268,360L267,360L267,359L268,359L270,358L300,338L301,337L304,335L304,334L305,334L305,335L304,335L301,337L300,338L273,357ZM863,328L858,328L858,327L857,324L858,323L857,318L856,318L856,317L862,311L863,328ZM518,313L526,298L527,297L549,289L550,288L539,296L538,297L517,308L516,309L518,313ZM541,307L575,300L588,305L587,306L576,308L576,309L575,309L575,308L576,308L541,307ZM73,284L76,273L75,273L75,272L73,284ZM991,282L956,279L947,279L947,278L952,272L953,271L953,270L953,269L964,265L965,264L976,264L991,282ZM576,273L574,274L574,275L573,275L572,275L574,274L579,252L579,251L580,251L580,252L579,252L576,273ZM38,270L37,271L35,272L35,273L34,273L34,272L35,272L37,271L38,269L75,232L76,231L78,229L79,228L38,269L38,270ZM523,258L524,257L555,232L556,231L524,257L523,258ZM91,256L89,257L89,258L88,258L88,257L89,257L94,254L93,255L91,256ZM52,237L50,238L49,239L48,240L47,241L47,242L46,242L46,241L47,241L48,240L49,239L50,238L52,236L55,225L54,225L54,224L60,230L59,231L52,236L52,237ZM376,236L376,234L377,233L379,226L380,225L387,227L386,228L376,236ZM19,232L17,233L17,234L16,234L16,233L17,233L24,223L25,222L36,208L37,207L46,201L48,201L42,212L41,213L19,232ZM435,210L433,211L431,212L431,213L430,213L429,213L431,212L433,211L435,210ZM385,208L385,202L386,201L386,198L385,198L385,197L388,206L387,207L385,208ZM82,199L93,194L92,195L82,199ZM32,195L31,196L30,197L29,198L29,199L28,199L28,198L29,198L30,197L31,196L34,193L43,182L53,172L44,183L34,193L32,195ZM21,183L19,184L18,185L18,186L17,186L17,185L18,185L19,184L33,166L34,165L39,167L38,168L36,170L35,171L21,183ZM530,168L530,167L532,166L536,163L556,149L560,146L562,145L566,142L636,95L635,96L566,142L562,145L560,146L556,149L536,163L532,166L530,167L530,168ZM17,158L16,159L16,160L15,160L15,159L16,159L37,131L41,124L46,120L45,126L37,131L33,143L32,144L30,146L29,147L27,149L26,150L17,158ZM728,154L725,153L724,153L724,152L711,134L710,135L723,127L724,126L740,115L741,114L744,111L765,104L765,103L766,103L766,104L765,104L728,154ZM79,144L80,143L88,136L89,135L96,130L97,129L108,124L109,123L110,122L111,123L108,124L99,131L98,132L96,133L95,134L90,137L89,138L87,139L86,140L80,143L79,144ZM435,138L433,139L433,140L432,140L431,140L433,139L437,136L438,135L446,130L447,129L455,124L456,123L465,118L478,109L479,108L523,86L522,87L496,103L495,104L475,113L474,114L465,118L464,120L467,121L468,120L468,119L469,119L470,119L468,120L467,121L460,126L459,127L435,138ZM26,129L25,130L24,131L24,132L23,132L23,131L24,131L25,130L37,113L38,112L38,111L39,111L39,112L38,112L37,113L26,129ZM691,120L692,119L724,100L725,99L741,96L739,105L738,105L729,106L728,107L692,119L691,120ZM100,105L94,106L94,107L93,107L92,107L94,106L110,94L111,93L114,91L115,90L127,92L127,91L128,91L129,91L127,92L122,95L121,96L100,105ZM652,105L649,106L647,107L646,108L646,109L645,109L645,108L646,108L647,107L649,106L652,104L657,100L658,99L661,97L662,96L675,88L676,87L652,104L652,105ZM74,100L72,101L71,102L71,103L70,103L70,102L71,102L72,101L103,77L103,76L104,76L104,77L103,77L74,100ZM473,94L486,83L473,94ZM766,88L756,53L755,53L755,52L731,59L730,60L714,34L715,33L717,31L718,30L772,27L775,28L789,27L778,83L777,84L766,88ZM322,87L350,83L349,84L322,87ZM107,81L108,80L117,70L128,68L121,72L108,80L107,81ZM82,72L80,73L79,74L79,75L78,75L78,74L79,74L80,73L85,62L84,62L84,61L109,55L115,52L117,50L120,49L120,51L115,52L109,55L90,67L89,68L87,69L86,70L84,71L83,72L82,72ZM196,63L192,63L191,63L191,62L186,57L185,57L185,56L189,48L196,63Z" fill="#E5EAE9"/>
<path d="M370,555L371,555L370,554L370,555Z" fill="#000000"/>
<path d="M1189,553L1191,553L1189,552L1189,553Z" fill="#000000"/>
<path d="M1191,553L1194,553L1195,552L1202,547L1202,546L1201,543L1200,543L1200,542L1195,537L1194,537L1194,536L1192,524L1191,524L1191,523L1186,519L1185,519L1185,518L1122,534L1136,543L1149,546L1183,547L1184,547L1189,552L1191,553Z" fill="#E5EAE9"/>
<path d="M366,552L367,552L366,551L366,552Z" fill="#000000"/>
<path d="M561,552L562,552L561,551L561,552Z" fill="#000000"/>
<path d="M346,549L347,549L346,548L346,549Z" fill="#000000"/>
<path d="M677,549L678,549L677,548L677,549Z" fill="#000000"/>
<path d="M537,543L538,543L537,542L537,543Z" fill="#000000"/>
<path d="M1200,543L1201,543L1200,542L1200,543Z" fill="#000000"/>
<path d="M1194,537L1195,537L1194,536L1194,537Z" fill="#000000"/>
<path d="M662,534L663,534L662,533L662,534Z" fill="#000000"/>
<path d="M750,534L751,534L750,533L750,534Z" fill="#000000"/>
<path d="M520,533L521,532L520,532L520,533Z" fill="#000000"/>
<path d="M1082,529L1090,528L1082,528L1082,529Z" fill="#000000"/>
<path d="M287,528L288,528L287,527L287,528Z" fill="#000000"/>
<path d="M1076,528L1077,528L1076,527L1076,528Z" fill="#000000"/>
<path d="M1077,528L1082,528L1090,528L1097,527L1098,526L1104,523L1105,522L1100,495L1099,495L1099,494L1054,488L1053,489L1047,494L1046,495L1044,503L1065,515L1076,527L1077,528Z" fill="#E5EAE9"/>
<path d="M1191,524L1192,524L1191,523L1191,524Z" fill="#000000"/>
<path d="M1185,519L1186,519L1185,518L1185,519Z" fill="#000000"/>
<path d="M573,517L574,517L573,516L573,517Z" fill="#000000"/>
<path d="M418,515L419,515L418,514L418,515Z" fill="#000000"/>
<path d="M1373,513L1374,513L1373,512L1373,513Z" fill="#000000"/>
<path d="M130,502L131,501L130,501L130,502Z" fill="#000000"/>
<path d="M14,501L15,501L14,500L14,501Z" fill="#000000"/>
<path d="M35,500L36,500L35,499L35,500Z" fill="#000000"/>
<path d="M1099,495L1100,495L1099,494L1099,495Z" fill="#000000"/>
<path d="M30,493L31,493L30,492L30,493Z" fill="#000000"/>
<path d="M31,493L70,479L69,479L69,478L70,478L70,479L81,466L82,466L81,465L80,465L80,464L81,462L84,463L85,462L94,450L93,450L93,449L91,450L88,451L85,452L85,454L83,454L82,453L85,452L88,451L80,438L79,438L79,437L67,429L66,429L66,428L58,423L57,423L57,422L50,417L49,417L49,416L22,399L21,399L21,398L19,398L18,399L12,404L10,405L6,447L5,458L5,469L30,492L31,493Z" fill="#E5EAE9"/>
<path d="M1231,493L1232,492L1231,492L1231,493Z" fill="#000000"/>
<path d="M640,492L641,492L640,491L640,492Z" fill="#000000"/>
<path d="M1446,492L1447,492L1446,491L1446,492Z" fill="#000000"/>
<path d="M83,489L84,488L83,488L83,489Z" fill="#000000"/>
<path d="M644,489L645,489L645,488L644,489Z" fill="#000000"/>
<path d="M83,488L84,488L89,467L83,486L83,488Z" fill="#E5EAE9"/>
<path d="M188,486L189,486L188,485L188,486Z" fill="#000000"/>
<path d="M633,486L634,486L633,485L633,486Z" fill="#000000"/>
<path d="M717,480L718,480L717,479L717,480Z" fill="#000000"/>
<path d="M140,474L141,474L140,473L140,474Z" fill="#000000"/>
<path d="M687,471L688,471L687,470L687,471Z" fill="#000000"/>
<path d="M81,469L82,466L81,466L81,469Z" fill="#000000"/>
<path d="M113,468L114,467L113,467L113,468Z" fill="#000000"/>
<path d="M1451,468L1452,468L1451,467L1451,468Z" fill="#000000"/>
<path d="M89,467L91,465L89,465L89,467Z" fill="#E5EAE9"/>
<path d="M80,465L81,465L80,464L80,465Z" fill="#000000"/>
<path d="M89,465L91,465L91,464L89,465Z" fill="#000000"/>
<path d="M131,465L132,465L131,464L131,465Z" fill="#000000"/>
<path d="M91,464L92,462L91,462L91,464Z" fill="#000000"/>
<path d="M672,464L673,464L672,463L672,464Z" fill="#000000"/>
<path d="M89,462L91,462L89,461L89,462Z" fill="#000000"/>
<path d="M93,461L94,461L94,460L93,461Z" fill="#000000"/>
<path d="M95,459L96,459L96,458L95,459Z" fill="#000000"/>
<path d="M93,450L94,450L93,449L93,450Z" fill="#000000"/>
<path d="M126,448L127,448L126,447L126,448Z" fill="#000000"/>
<path d="M127,448L140,436L141,435L158,409L159,408L164,395L163,395L163,394L121,444L126,447L127,448Z" fill="#E5EAE9"/>
<path d="M79,438L80,438L79,437L79,438Z" fill="#000000"/>
<path d="M98,434L100,433L98,433L98,434Z" fill="#000000"/>
<path d="M97,433L98,433L97,431L97,433Z" fill="#000000"/>
<path d="M98,433L100,433L108,405L109,404L110,402L111,401L112,400L113,400L123,370L122,370L122,369L121,368L121,367L115,363L114,363L114,362L62,339L61,339L61,338L5,316L4,317L11,361L14,365L26,378L35,393L39,397L40,396L44,393L59,414L61,417L69,416L70,415L83,420L97,431L98,433Z" fill="#E5EAE9"/>
<path d="M1461,432L1462,432L1461,431L1461,432Z" fill="#000000"/>
<path d="M66,429L67,429L66,428L66,429Z" fill="#000000"/>
<path d="M1436,425L1437,425L1436,424L1436,425Z" fill="#000000"/>
<path d="M57,423L58,423L57,422L57,423Z" fill="#000000"/>
<path d="M49,417L50,417L49,416L49,417Z" fill="#000000"/>
<path d="M510,415L512,414L510,414L510,415Z" fill="#000000"/>
<path d="M1160,415L1166,414L1160,414L1160,415Z" fill="#000000"/>
<path d="M748,407L749,406L748,406L748,407Z" fill="#000000"/>
<path d="M1280,407L1281,406L1280,406L1280,407Z" fill="#000000"/>
<path d="M1280,406L1281,406L1283,401L1282,401L1281,401L1280,402L1280,406Z" fill="#E5EAE9"/>
<path d="M112,401L113,400L112,400L112,401Z" fill="#000000"/>
<path d="M1282,401L1283,401L1284,397L1282,400L1282,401Z" fill="#CCD9D8"/>
<path d="M21,399L22,399L21,398L21,399Z" fill="#000000"/>
<path d="M163,395L164,395L163,394L163,395Z" fill="#000000"/>
<path d="M1143,391L1146,391L1145,389L1143,389L1143,391Z" fill="#CCD9D8"/>
<path d="M1185,390L1186,390L1185,389L1185,390Z" fill="#000000"/>
<path d="M568,387L569,387L568,386L568,387Z" fill="#000000"/>
<path d="M122,370L123,370L122,369L122,370Z" fill="#000000"/>
<path d="M567,366L568,366L567,365L567,366Z" fill="#000000"/>
<path d="M1044,366L1045,366L1044,365L1044,366Z" fill="#000000"/>
<path d="M114,363L115,363L114,362L114,363Z" fill="#000000"/>
<path d="M61,339L62,339L61,338L61,339Z" fill="#000000"/>
<path d="M999,326L1000,325L999,325L999,326Z" fill="#000000"/>
<path d="M952,319L964,319L952,318L952,319Z" fill="#98BABC"/>
<path d="M856,318L857,318L856,317L856,318Z" fill="#000000"/>
<path d="M1182,309L1183,309L1182,308L1182,309Z" fill="#000000"/>
<path d="M1179,300L1180,300L1179,299L1179,300Z" fill="#000000"/>
<path d="M1079,291L1080,291L1079,290L1079,291Z" fill="#000000"/>
<path d="M1176,291L1177,291L1176,290L1176,291Z" fill="#000000"/>
<path d="M255,286L257,285L255,285L255,286Z" fill="#000000"/>
<path d="M1173,281L1174,281L1173,280L1173,281Z" fill="#000000"/>
<path d="M947,279L956,279L947,278L947,279Z" fill="#98BABC"/>
<path d="M627,276L628,276L627,275L627,276Z" fill="#000000"/>
<path d="M75,273L76,273L75,272L75,273Z" fill="#000000"/>
<path d="M1110,258L1119,258L1110,257L1110,258Z" fill="#98BABC"/>
<path d="M1469,252L1470,252L1469,251L1469,252Z" fill="#000000"/>
<path d="M995,248L996,248L995,247L995,248Z" fill="#000000"/>
<path d="M996,248L1001,210L1000,210L1000,209L967,197L966,198L955,200L954,201L943,203L942,204L927,215L926,216L923,218L922,219L818,210L817,211L822,222L881,228L922,238L933,240L952,243L995,247L996,248Z" fill="#E5EAE9"/>
<path d="M867,240L868,240L867,239L867,240Z" fill="#000000"/>
<path d="M1465,237L1466,237L1465,236L1465,237Z" fill="#000000"/>
<path d="M1051,231L1052,231L1051,230L1051,231Z" fill="#000000"/>
<path d="M54,225L55,225L54,224L54,225Z" fill="#000000"/>
<path d="M1470,222L1471,222L1470,221L1470,222Z" fill="#000000"/>
<path d="M1467,219L1468,219L1467,218L1467,219Z" fill="#000000"/>
<path d="M720,216L721,216L720,215L720,216Z" fill="#000000"/>
<path d="M1188,216L1189,216L1188,215L1188,216Z" fill="#000000"/>
<path d="M322,215L323,215L322,214L322,215Z" fill="#000000"/>
<path d="M167,210L168,210L167,209L167,210Z" fill="#000000"/>
<path d="M1000,210L1001,210L1000,209L1000,210Z" fill="#000000"/>
<path d="M46,202L48,201L46,201L46,202Z" fill="#000000"/>
<path d="M1051,201L1052,201L1051,200L1051,201Z" fill="#000000"/>
<path d="M322,199L323,199L322,198L322,199Z" fill="#000000"/>
<path d="M385,198L386,198L385,197L385,198Z" fill="#000000"/>
<path d="M1189,170L1190,170L1189,169L1189,170Z" fill="#000000"/>
<path d="M1150,165L1151,165L1150,164L1150,165Z" fill="#000000"/>
<path d="M332,156L333,156L332,155L332,156Z" fill="#000000"/>
<path d="M724,153L725,153L724,152L724,153Z" fill="#000000"/>
<path d="M1266,138L1267,138L1266,137L1266,138Z" fill="#000000"/>
<path d="M1245,132L1246,132L1245,130L1245,132Z" fill="#000000"/>
<path d="M1243,129L1244,129L1243,128L1243,129Z" fill="#000000"/>
<path d="M368,126L369,126L368,125L368,126Z" fill="#000000"/>
<path d="M1043,124L1041,121L1040,119L1043,124Z" fill="#000000"/>
<path d="M365,123L366,123L365,122L365,123Z" fill="#000000"/>
<path d="M281,111L282,111L281,110L281,111Z" fill="#000000"/>
<path d="M286,106L288,105L286,105L286,106Z" fill="#000000"/>
<path d="M1050,105L1051,105L1050,104L1050,105Z" fill="#000000"/>
<path d="M191,63L192,63L191,62L191,63Z" fill="#000000"/>
<path d="M84,62L85,62L84,61L84,62Z" fill="#000000"/>
<path d="M357,60L358,60L357,59L357,60Z" fill="#000000"/>
<path d="M185,57L186,57L185,56L185,57Z" fill="#000000"/>
<path d="M161,53L162,53L161,52L161,53Z" fill="#000000"/>
<path d="M218,53L219,53L218,52L218,53Z" fill="#000000"/>
<path d="M755,53L756,53L755,52L755,53Z" fill="#000000"/>
<path d="M442,52L443,52L442,51L442,52Z" fill="#000000"/>
<path d="M165,37L175,36L165,36L165,37Z" fill="#98BABC"/>
<path d="M434,27L435,27L434,26L434,27Z" fill="#000000"/>
<path d="M471,23L481,16L482,15L482,9L481,9L481,8L481,4L481,2L479,0L459,7L465,16L471,23Z" fill="#E5EAE9"/>
<path d="M425,21L426,21L425,20L425,21Z" fill="#000000"/>
<path d="M872,18L873,18L872,17L872,18Z" fill="#000000"/>
<path d="M1121,15L1122,15L1121,14L1121,15Z" fill="#000000"/>
<path d="M481,9L482,9L481,8L481,9Z" fill="#000000"/>
<path d="M188,3L189,3L188,2L188,3Z" fill="#000000"/>
<path d="M601,3L602,3L601,2L601,3Z" fill="#000000"/>
<path d="M830,3L831,3L830,2L830,3Z" fill="#000000"/>
<path d="M633,1L634,0L633,0L633,1Z" fill="#000000"/>
</g>
</svg>
