<?xml version='1.0' encoding='utf-8'?>
<!-- Generator: imaengine 6.0   -->
<svg xmlns:xlink="http://www.w3.org/1999/xlink" xmlns="http://www.w3.org/2000/svg" viewBox="0,0,1472,726" style="enable-background:new 0 0 1472 726;" version="1.1">
<defs/>
<g id="layer0">
<path d="M16,726L67,645L66,645L66,644L30,629L17,630L17,629L8,629L7,630L0,647L0,671L4,718L11,723L16,726Z" fill="#B3C9C9"/>
<path d="M178,726L228,681L227,681L227,680L192,660L191,660L191,659L146,647L145,648L143,649L142,650L142,681L178,726Z" fill="#B3C9C9"/>
<path d="M509,726L511,726L513,722L512,722L510,722L509,723L509,726Z" fill="#B3C9C9"/>
<path d="M511,726L560,726L571,726L632,724L633,723L634,721L635,720L636,718L637,717L634,701L633,701L633,700L631,699L630,699L630,698L515,720L514,721L513,722L511,726Z" fill="#B3C9C9"/>
<path d="M662,726L675,726L706,724L706,723L706,722L707,722L706,724L706,726L752,726L762,726L765,720L764,719L764,718L759,711L758,711L758,710L757,709L756,709L756,708L750,699L749,699L749,698L748,697L747,697L747,696L745,688L743,684L742,679L744,683L745,688L773,694L774,693L788,688L796,685L797,684L809,686L808,687L804,694L812,703L813,703L814,702L821,688L822,687L830,679L831,678L834,676L835,675L859,657L860,657L863,655L864,654L866,652L867,651L869,649L870,648L875,642L876,641L878,640L879,639L878,622L870,623L850,610L809,618L808,619L803,622L802,623L797,626L796,627L785,635L784,636L759,656L758,657L741,674L740,674L740,673L724,628L722,631L702,622L692,622L690,623L689,624L687,625L686,626L665,650L664,651L660,653L659,654L636,665L635,666L633,667L632,668L662,726Z" fill="#B3C9C9"/>
<path d="M762,726L768,723L767,723L767,722L765,720L762,726Z" fill="#98BABC"/>
<path d="M774,726L790,726L812,715L813,714L813,707L812,707L812,706L812,703L804,694L782,701L781,702L762,706L762,712L763,714L766,717L774,726Z" fill="#98BABC"/>
<path d="M831,726L835,726L880,726L966,726L972,726L1043,726L1047,726L1047,723L1073,663L1060,644L1059,643L1058,643L1058,642L1059,642L1059,643L1060,644L1074,656L1047,626L1048,627L1049,628L1047,628L1047,626L1035,610L1034,608L1032,607L1031,607L1029,603L1015,597L982,635L981,636L976,639L977,638L982,621L983,620L984,616L985,615L985,614L985,613L974,603L973,603L973,602L971,600L970,600L970,599L969,598L930,597L912,605L911,614L910,615L902,616L889,622L900,636L903,645L902,645L902,644L896,639L895,639L887,641L886,642L879,646L878,647L876,648L875,649L874,650L872,651L871,652L869,653L868,654L866,656L865,657L854,668L853,669L848,671L847,672L845,673L844,674L841,676L840,677L839,678L838,679L823,723L825,724L826,723L831,726Z" fill="#B3C9C9"/>
<path d="M1049,726L1059,717L1070,726L1075,706L1076,705L1078,703L1079,702L1073,663L1047,723L1048,725L1049,726Z" fill="#98BABC"/>
<path d="M1146,726L1199,716L1198,713L1195,707L1193,704L1192,703L1213,676L1214,674L1218,667L1219,666L1233,652L1234,651L1231,639L1230,639L1230,638L1229,636L1228,636L1228,635L1228,633L1227,633L1227,632L1226,630L1225,630L1225,629L1222,622L1221,622L1221,621L1220,619L1219,619L1219,618L1218,617L1218,616L1217,614L1216,614L1216,613L1215,612L1215,611L1213,608L1212,608L1212,607L1204,597L1203,597L1203,596L1201,594L1200,594L1200,593L1198,590L1197,590L1197,589L1116,662L1118,664L1126,713L1127,715L1140,716L1143,721L1146,726ZM1140,699L1139,693L1138,693L1138,692L1127,666L1126,666L1126,665L1115,646L1114,645L1113,645L1113,644L1114,644L1114,645L1115,646L1119,651L1143,675L1140,699Z" fill="#B3C9C9"/>
<path d="M1204,726L1296,726L1301,716L1300,716L1300,715L1299,714L1299,713L1297,710L1296,710L1296,709L1273,690L1272,690L1272,689L1262,680L1261,680L1261,679L1260,678L1260,677L1246,663L1245,663L1245,662L1243,660L1242,660L1242,659L1241,657L1240,657L1240,656L1229,659L1228,660L1214,674L1213,676L1192,703L1193,704L1195,707L1198,713L1199,716L1204,726Z" fill="#B3C9C9"/>
<path d="M1085,724L1095,710L1094,710L1094,709L1092,709L1091,710L1091,711L1092,711L1092,712L1091,712L1091,711L1088,708L1087,708L1087,707L1079,714L1080,714L1084,718L1085,724Z" fill="#98BABC"/>
<path d="M767,723L768,723L767,722L767,723Z" fill="#000000"/>
<path d="M357,717L359,716L357,716L357,717Z" fill="#000000"/>
<path d="M348,716L349,716L348,715L348,716Z" fill="#000000"/>
<path d="M349,716L357,716L359,716L367,712L368,711L398,705L431,705L497,663L496,663L496,662L488,654L488,652L450,656L449,656L383,650L382,650L382,649L380,642L379,642L379,641L379,619L380,618L386,597L385,597L385,596L255,555L247,555L235,557L247,583L265,585L273,624L279,629L278,635L304,645L251,664L250,665L253,681L348,715L349,716Z" fill="#B3C9C9"/>
<path d="M451,716L464,714L466,715L464,704L451,705L450,705L442,707L450,714L451,716Z" fill="#B3C9C9"/>
<path d="M1300,716L1301,716L1300,715L1300,716Z" fill="#000000"/>
<path d="M1393,716L1394,716L1393,715L1393,716Z" fill="#000000"/>
<path d="M1394,716L1406,713L1407,712L1407,710L1408,709L1415,701L1416,700L1418,695L1418,686L1416,676L1415,676L1415,675L1413,652L1412,652L1412,651L1410,644L1409,644L1409,643L1395,615L1394,615L1394,614L1392,611L1391,611L1391,610L1373,611L1372,612L1345,606L1344,606L1344,605L1324,588L1323,588L1323,587L1321,585L1320,585L1320,584L1318,582L1317,582L1317,581L1282,571L1281,572L1270,582L1275,600L1282,606L1289,612L1293,615L1300,621L1304,624L1314,630L1325,636L1337,642L1355,651L1364,657L1365,695L1364,696L1361,700L1361,701L1393,715L1394,716Z" fill="#B3C9C9"/>
<path d="M466,715L491,711L492,711L491,698L483,700L465,703L465,702L464,704L466,715Z" fill="#98BABC"/>
<path d="M1079,715L1080,714L1079,714L1079,715Z" fill="#000000"/>
<path d="M1125,715L1127,715L1126,713L1125,713L1125,715Z" fill="#000000"/>
<path d="M1358,714L1361,701L1360,701L1352,710L1352,711L1358,714Z" fill="#98BABC"/>
<path d="M1124,713L1125,713L1124,712L1124,713Z" fill="#000000"/>
<path d="M1125,713L1126,713L1118,664L1116,662L1197.37,589C1180.37,570 1179,570 1179,570L1179,569L1170,563L1169,564L1167,566L1166,567L1156,575L1155,576L1153,578L1152,579L1150,581L1149,582L1144,587L1143,588L1140,590L1139,591L1135,593L1134,594L1120,602L1119,603L1111,608L1110,609L1108,610L1107,611L1111,604L1112,603L1114,601L1115,600L1117,598L1118,597L1126,577L1133,572L1134,571L1135,570L1136,569L1139,565L1139,564L1140,564L1140,565L1139,565L1136,569L1135,570L1134,571L1133,572L1126,577L1122,584L1122,583L1123,583L1123,584L1122,584L1138,580L1139,579L1165,560L1166,560L1170,559L1171,558L1167,553L1166,554L1151,554L1149,554L1139,555L1106,553L1127,551L1077,561L1079,564L1082,565L1083,564L1084,563L1085,564L1082,565L1098,678L1099,693L1101,693L1105,692L1110,703L1118,708L1124,712L1125,713ZM1118,574L1120,569L1123,571L1124,570L1128,569L1128,568L1129,568L1130,568L1128,569L1126,571L1125,572L1118,574ZM1150,563L1149,564L1149,565L1148,565L1148,564L1149,564L1145,558L1150,563Z" fill="#98BABC"/>
<path d="M491,712L492,711L491,711L491,712Z" fill="#000000"/>
<path d="M758,711L759,711L758,710L758,711Z" fill="#000000"/>
<path d="M1351,711L1352,711L1352,710L1351,711Z" fill="#000000"/>
<path d="M1094,710L1095,710L1094,709L1094,710Z" fill="#000000"/>
<path d="M1296,710L1297,710L1296,709L1296,710Z" fill="#000000"/>
<path d="M756,709L757,709L756,708L756,709Z" fill="#000000"/>
<path d="M1087,708L1088,708L1087,707L1087,708Z" fill="#000000"/>
<path d="M812,707L813,707L812,706L812,707Z" fill="#000000"/>
<path d="M398,706L431,705L398,705L398,706Z" fill="#73A7AF"/>
<path d="M465,703L483,700L465,702L465,703Z" fill="#B3C9C9"/>
<path d="M1351,702L1354,702L1359,697L1360,696L1331,644L1330,645L1340,655L1351,702Z" fill="#B3C9C9"/>
<path d="M633,701L634,701L633,700L633,701Z" fill="#000000"/>
<path d="M1360,701L1361,701L1361,700L1360,701Z" fill="#000000"/>
<path d="M483,700L491,698L486,698L485,699L483,700Z" fill="#B3C9C9"/>
<path d="M630,699L631,699L630,698L630,699Z" fill="#000000"/>
<path d="M749,699L750,699L749,698L749,699Z" fill="#000000"/>
<path d="M747,697L748,697L747,696L747,697Z" fill="#000000"/>
<path d="M1099,694L1101,693L1099,693L1099,694Z" fill="#000000"/>
<path d="M1138,693L1139,693L1138,692L1138,693Z" fill="#000000"/>
<path d="M1272,690L1273,690L1272,689L1272,690Z" fill="#000000"/>
<path d="M227,681L228,681L227,680L227,681Z" fill="#000000"/>
<path d="M1261,680L1262,680L1261,679L1261,680Z" fill="#000000"/>
<path d="M1415,676L1416,676L1415,675L1415,676Z" fill="#000000"/>
<path d="M740,674L741,674L740,673L740,674Z" fill="#000000"/>
<path d="M1083,674L1086,674L1063,555L1062,555L1062,554L1010,559L1009,559L1009,558L908,572L907,573L860,584L836,596L835,597L835,600L1023,595L1024,595L1024,596L1023,596L1023,595L1015,597L1029,603L1029,602L1028,602L1028,601L1029,601L1029,602L1030,603L1031,604L1032,605L1034,608L1035,610L1074,656L1083,674Z" fill="#98BABC"/>
<path d="M1126,666L1127,666L1126,665L1126,666Z" fill="#000000"/>
<path d="M496,663L497,663L496,662L496,663Z" fill="#000000"/>
<path d="M1245,663L1246,663L1245,662L1245,663Z" fill="#000000"/>
<path d="M191,660L192,660L191,659L191,660Z" fill="#000000"/>
<path d="M1242,660L1243,660L1242,659L1242,660Z" fill="#000000"/>
<path d="M859,658L860,657L859,657L859,658Z" fill="#000000"/>
<path d="M1240,657L1241,657L1240,656L1240,657Z" fill="#000000"/>
<path d="M449,656L450,656L451,656L451,655L450,653L449,653L449,652L449,656Z" fill="#B3C9C9"/>
<path d="M549,655L551,655L595,647L595,646L549,655Z" fill="#98BABC"/>
<path d="M610,654L612,654L613,651L612,651L612,650L611,649L610,653L610,654Z" fill="#73A7AF"/>
<path d="M449,653L450,653L449,652L449,653Z" fill="#000000"/>
<path d="M1412,652L1413,652L1412,651L1412,652Z" fill="#000000"/>
<path d="M610,651L611,649L599,643L610,651Z" fill="#98BABC"/>
<path d="M612,651L613,651L612,650L612,651Z" fill="#000000"/>
<path d="M382,650L383,650L382,649L382,650Z" fill="#000000"/>
<path d="M739,648L767,634L768,633L773,631L774,630L777,628L778,627L781,624L731,632L734,641L739,648Z" fill="#98BABC"/>
<path d="M178,646L179,646L180,645L188,616L189,615L191,599L192,598L192,596L191,596L191,594L133,591L132,591L132,590L124,600L123,604L121,623L124,624L175,644L178,646Z" fill="#B3C9C9"/>
<path d="M66,645L67,645L66,644L66,645Z" fill="#000000"/>
<path d="M902,645L903,645L902,644L902,645Z" fill="#000000"/>
<path d="M1409,644L1410,644L1409,643L1409,644Z" fill="#000000"/>
<path d="M379,642L380,642L379,641L379,642Z" fill="#000000"/>
<path d="M1230,639L1231,639L1230,638L1230,639Z" fill="#000000"/>
<path d="M599,637L601,637L601,633L600,633L600,632L592,619L593,624L596,630L599,637Z" fill="#98BABC"/>
<path d="M1312,637L1314,637L1315,636L1298,626L1304,635L1312,637Z" fill="#B3C9C9"/>
<path d="M1228,636L1229,636L1228,635L1228,636Z" fill="#000000"/>
<path d="M275,635L278,635L279,629L273,624L252,615L251,615L251,614L243,595L242,595L242,594L239,595L238,596L238,612L241,619L275,635Z" fill="#98BABC"/>
<path d="M1283,635L1284,635L1283,634L1283,635Z" fill="#000000"/>
<path d="M1284,635L1304,635L1298,626L1256,600L1255,600L1238,618L1241,621L1246,625L1283,634L1284,635Z" fill="#98BABC"/>
<path d="M600,633L601,633L600,632L600,633Z" fill="#000000"/>
<path d="M1227,633L1228,633L1227,632L1227,633Z" fill="#000000"/>
<path d="M722,631L724,628L778,604L771,604L735,581L732,584L731,585L704,581L703,582L696,591L695,592L687,601L698,613L701,615L702,622L722,631Z" fill="#98BABC"/>
<path d="M17,630L30,629L17,629L17,630Z" fill="#73A7AF"/>
<path d="M1225,630L1226,630L1225,629L1225,630Z" fill="#000000"/>
<path d="M781,624L785,623L786,622L792,619L793,618L800,614L801,613L809,608L810,607L799,602L798,603L796,604L795,605L793,606L791,607L790,608L781,624Z" fill="#B3C9C9"/>
<path d="M117,623L121,623L123,604L117,623Z" fill="#98BABC"/>
<path d="M870,623L878,622L850,610L870,623Z" fill="#98BABC"/>
<path d="M888,622L889,622L888,621L888,622Z" fill="#000000"/>
<path d="M889,622L902,616L900,612L899,612L899,611L910,603L912,605L930,597L969,598L968,580L969,579L992,571L992,569L941,581L940,582L902,587L901,588L874,593L873,594L877,609L880,613L888,621L889,622Z" fill="#98BABC"/>
<path d="M1221,622L1222,622L1221,621L1221,622Z" fill="#000000"/>
<path d="M1219,619L1220,619L1219,618L1219,619Z" fill="#000000"/>
<path d="M1411,619L1413,618L1411,618L1411,619Z" fill="#000000"/>
<path d="M1408,618L1409,618L1408,617L1408,618Z" fill="#000000"/>
<path d="M1409,618L1411,618L1413,618L1428,576L1427,576L1427,575L1396,603L1399,609L1408,617L1409,618Z" fill="#98BABC"/>
<path d="M231,617L235,617L236,616L236,614L235,614L235,613L211,615L231,617Z" fill="#98BABC"/>
<path d="M251,615L252,615L251,614L251,615Z" fill="#000000"/>
<path d="M1394,615L1395,615L1394,614L1394,615Z" fill="#000000"/>
<path d="M46,614L47,614L46,613L46,614Z" fill="#000000"/>
<path d="M47,614L88,528L85,531L59,517L57,537L56,538L45,560L44,561L36,584L35,585L24,605L46,613L47,614Z" fill="#B3C9C9"/>
<path d="M235,614L236,614L235,613L235,614Z" fill="#000000"/>
<path d="M1216,614L1217,614L1216,613L1216,614Z" fill="#000000"/>
<path d="M899,612L900,612L899,611L899,612Z" fill="#000000"/>
<path d="M1391,611L1392,611L1391,610L1391,611Z" fill="#000000"/>
<path d="M658,610L659,610L658,609L658,610Z" fill="#000000"/>
<path d="M659,610L660,610L661,609L672,598L673,597L642,572L641,573L638,572L637,573L647,591L658,609L659,610Z" fill="#98BABC"/>
<path d="M1212,608L1213,608L1212,607L1212,608Z" fill="#000000"/>
<path d="M1230,608L1231,607L1230,607L1230,608Z" fill="#000000"/>
<path d="M1031,607L1032,607L1032,605L1031,604L1030,603L1029,603L1031,607ZM1029,580L1025,579L1024,579L1024,578L1043,566L1042,567L1030,575L1029,576L1029,580Z" fill="#98BABC"/>
<path d="M1228,607L1230,607L1231,607L1239,604L1240,603L1243,588L1242,588L1242,587L1220,573L1219,573L1219,572L1228,607Z" fill="#98BABC"/>
<path d="M586,606L588,605L584,593L586,606Z" fill="#98BABC"/>
<path d="M1344,606L1345,606L1344,605L1344,606Z" fill="#000000"/>
<path d="M980,605L988,602L988,601L973,597L980,605Z" fill="#B3C9C9"/>
<path d="M771,604L778,604L794,595L795,594L797,592L798,591L799,585L798,585L798,584L796,582L795,582L795,581L795,579L794,579L794,578L793,576L792,576L792,575L780,555L779,555L779,554L775,549L774,549L774,548L737,578L736,579L735,581L771,604Z" fill="#B3C9C9"/>
<path d="M973,603L974,603L973,602L973,603Z" fill="#000000"/>
<path d="M988,602L989,601L988,601L988,602Z" fill="#000000"/>
<path d="M988,601L989,601L989,594L988,594L988,593L986,590L985,590L985,589L972,597L973,597L988,601Z" fill="#98BABC"/>
<path d="M1211,601L1212,601L1211,600L1211,601Z" fill="#000000"/>
<path d="M1212,601L1214,601L1213,592L1212,592L1212,591L1210,579L1209,579L1209,578L1186,564L1185,564L1185,563L1184,570L1196,582L1202,589L1208,597L1211,600L1212,601Z" fill="#98BABC"/>
<path d="M970,600L971,600L970,599L970,600Z" fill="#000000"/>
<path d="M1274,600L1275,600L1270,582L1268,592L1274,600Z" fill="#98BABC"/>
<path d="M972,598L973,597L972,597L972,598Z" fill="#000000"/>
<path d="M385,597L386,597L385,596L385,597Z" fill="#000000"/>
<path d="M1203,597L1204,597L1203,596L1203,597Z" fill="#000000"/>
<path d="M191,596L192,596L191,594L191,596Z" fill="#000000"/>
<path d="M242,595L243,595L242,594L242,595Z" fill="#000000"/>
<path d="M988,594L989,594L988,593L988,594Z" fill="#000000"/>
<path d="M1200,594L1201,594L1200,593L1200,594Z" fill="#000000"/>
<path d="M232,592L233,592L232,591L232,592Z" fill="#000000"/>
<path d="M233,592L245,586L246,585L247,583L235,557L211,560L210,561L208,563L207,564L205,574L232,591L233,592Z" fill="#98BABC"/>
<path d="M1212,592L1213,592L1212,591L1212,592Z" fill="#000000"/>
<path d="M132,591L133,591L132,590L132,591Z" fill="#000000"/>
<path d="M827,591L833,588L833,586L832,586L830,587L829,588L827,591Z" fill="#B3C9C9"/>
<path d="M985,590L986,590L985,589L985,590Z" fill="#000000"/>
<path d="M1197,590L1198,590L1197,589L1197,590Z" fill="#000000"/>
<path d="M833,588L836,586L833,586L833,588Z" fill="#000000"/>
<path d="M1242,588L1243,588L1242,587L1242,588Z" fill="#000000"/>
<path d="M1323,588L1324,588L1323,587L1323,588Z" fill="#000000"/>
<path d="M826,586L827,586L826,585L826,586Z" fill="#000000"/>
<path d="M827,586L834,584L834,583L835,583L835,584L834,584L832,586L833,586L836,586L925,553L922,553L920,550L926,548L943,520L945,517L952,488L893,488L892,489L830,506L829,507L823,509L822,510L822,517L821,518L812,521L811,522L806,524L805,525L784,549L785,550L786,551L787,552L788,553L790,555L802,573L807,579L808,579L823,578L822,579L823,582L826,585L827,586Z" fill="#B3C9C9"/>
<path d="M798,585L799,585L798,584L798,585Z" fill="#000000"/>
<path d="M1320,585L1321,585L1320,584L1320,585Z" fill="#000000"/>
<path d="M1382,585L1383,584L1382,584L1382,585Z" fill="#000000"/>
<path d="M1378,584L1379,584L1378,583L1378,584Z" fill="#000000"/>
<path d="M1379,584L1382,584L1383,584L1385,583L1386,582L1398,571L1399,570L1421,550L1422,549L1436,536L1437,535L1428,509L1427,509L1427,508L1422,501L1421,501L1421,500L1419,498L1418,498L1418,497L1397,509L1396,510L1390,514L1389,515L1387,516L1363,551L1362,552L1358,554L1357,555L1352,564L1364,570L1375,582L1378,583L1379,584Z" fill="#B3C9C9"/>
<path d="M795,582L796,582L795,581L795,582Z" fill="#000000"/>
<path d="M1317,582L1318,582L1317,581L1317,582Z" fill="#000000"/>
<path d="M807,580L808,579L807,579L807,580Z" fill="#000000"/>
<path d="M794,579L795,579L794,578L794,579Z" fill="#000000"/>
<path d="M1024,579L1025,579L1024,578L1024,579Z" fill="#000000"/>
<path d="M1209,579L1210,579L1209,578L1209,579Z" fill="#000000"/>
<path d="M581,577L582,577L581,576L581,577Z" fill="#000000"/>
<path d="M582,577L583,577L584,576L606,556L607,555L600,547L601,546L582,544L583,543L581,540L580,540L567,553L566,554L583,563L583,562L584,562L584,563L583,563L581,576L582,577Z" fill="#98BABC"/>
<path d="M792,576L793,576L792,575L792,576Z" fill="#000000"/>
<path d="M1427,576L1428,576L1427,575L1427,576Z" fill="#000000"/>
<path d="M1219,573L1220,573L1219,572L1219,573Z" fill="#000000"/>
<path d="M1179,570L1180,570L1179,569L1179,570Z" fill="#000000"/>
<path d="M1185,564L1186,564L1185,563L1185,564Z" fill="#000000"/>
<path d="M1226,562L1246,550L1247,549L1231,509L1229,509L1230,551L1229,552L1226,562Z" fill="#98BABC"/>
<path d="M1165,561L1166,560L1165,560L1165,561Z" fill="#000000"/>
<path d="M1009,559L1010,559L1009,558L1009,559Z" fill="#000000"/>
<path d="M387,558L388,558L387,557L387,558Z" fill="#000000"/>
<path d="M388,558L391,558L392,557L398,541L399,540L400,536L401,535L402,530L390,497L389,496L388,496L388,495L380,489L379,489L379,488L369,485L368,486L364,488L363,489L378,552L387,557L388,558Z" fill="#B3C9C9"/>
<path d="M779,555L780,555L779,554L779,555Z" fill="#000000"/>
<path d="M1062,555L1063,555L1062,554L1062,555Z" fill="#000000"/>
<path d="M1151,554L1152,554L1152,553L1151,554Z" fill="#98BABC"/>
<path d="M787,553L788,553L787,552L787,553Z" fill="#000000"/>
<path d="M922,553L925,553L1014,504L1013,504L1013,503L1010,503L1023,514L1026,516L1038,522L1041,525L980,500L979,500L979,499L977,498L976,498L976,497L971,495L970,495L970,494L952,488L945,517L948,521L949,521L949,522L948,522L948,521L943,520L926,548L920,550L922,553Z" fill="#98BABC"/>
<path d="M1106,553L1147,553L1147,552L1127,551L1106,553Z" fill="#4B96AA"/>
<path d="M786,552L787,552L786,551L786,552Z" fill="#000000"/>
<path d="M785,551L786,551L785,550L785,551Z" fill="#000000"/>
<path d="M784,550L785,550L784,549L784,550Z" fill="#000000"/>
<path d="M774,549L775,549L774,548L774,549Z" fill="#000000"/>
<path d="M1209,547L1212,547L1213,546L1191,509L1190,510L1209,547Z" fill="#98BABC"/>
<path d="M672,545L673,545L672,544L672,545Z" fill="#000000"/>
<path d="M673,545L676,545L718,538L719,537L718,510L717,510L717,509L700,498L699,498L699,497L660,502L665,525L672,544L673,545Z" fill="#B3C9C9"/>
<path d="M751,539L752,539L751,538L751,539Z" fill="#000000"/>
<path d="M752,539L753,539L756,536L758,535L751,536L751,538L752,539Z" fill="#98BABC"/>
<path d="M753,539L757,536L756,536L753,539Z" fill="#B3C9C9"/>
<path d="M759,537L763,537L770,535L771,534L776,532L777,531L785,526L786,525L792,523L793,522L827,502L828,501L842,496L843,495L881,481L882,480L960,474L981,489L1008,502L1010,503L998,492L997,492L997,491L994,489L993,489L993,488L992,485L991,485L991,484L990,483L989,483L989,482L986,480L985,480L985,479L974,471L973,471L973,470L881,419L880,420L868,435L838,457L837,458L835,459L833,460L832,461L805,479L803,481L799,485L798,486L759,488L758,489L752,494L751,495L749,497L748,498L748,506L747,507L751,536L758,535L759,537Z" fill="#B3C9C9"/>
<path d="M756,536L757,536L758,535L756,536Z" fill="#B3C9C9"/>
<path d="M85,531L88,528L85,504L84,504L84,503L60,503L59,504L59,517L85,531Z" fill="#98BABC"/>
<path d="M99,530L113,515L114,514L126,506L125,506L125,505L105,506L104,507L100,509L99,510L99,530Z" fill="#98BABC"/>
<path d="M402,530L415,508L416,507L412,482L411,483L390,497L402,530Z" fill="#98BABC"/>
<path d="M1201,511L1207,511L1201,510L1201,511Z" fill="#000000"/>
<path d="M1207,511L1214,511L1215,510L1221,505L1222,504L1222,501L1221,501L1221,500L1220,500L1208,494L1190,506L1194,508L1201,510L1207,511Z" fill="#98BABC"/>
<path d="M717,510L718,510L717,509L717,510Z" fill="#000000"/>
<path d="M1198,510L1201,510L1194,508L1198,510Z" fill="#B3C9C9"/>
<path d="M1427,509L1428,509L1427,508L1427,509Z" fill="#000000"/>
<path d="M125,506L126,506L125,505L125,506Z" fill="#000000"/>
<path d="M1145,506L1190,506L1208,494L1195,480L1196,479L1212,463L1213,462L1213,456L1212,456L1212,455L1210,453L1209,453L1209,452L1201,447L1200,447L1200,446L1200,436L1201,435L1209,427L1210,426L1212,424L1213,423L1215,421L1216,420L1219,406L1218,406L1218,405L1217,402L1216,402L1216,401L1188,407L1187,408L1182,413L1181,414L1160,426L1159,426L1159,425L1137,410L1136,411L1126,416L1125,417L1123,420L1122,421L1114,431L1113,432L1122,495L1145,506Z" fill="#B3C9C9"/>
<path d="M84,504L85,504L84,503L84,504Z" fill="#000000"/>
<path d="M1013,504L1014,504L1013,503L1013,504Z" fill="#000000"/>
<path d="M1008,503L1010,503L1008,502L1008,503Z" fill="#98BABC"/>
<path d="M1221,501L1222,501L1221,500L1221,501Z" fill="#000000"/>
<path d="M1421,501L1422,501L1421,500L1421,501Z" fill="#000000"/>
<path d="M979,500L980,500L979,499L979,500Z" fill="#000000"/>
<path d="M699,498L700,498L699,497L699,498Z" fill="#000000"/>
<path d="M976,498L977,498L976,497L976,498Z" fill="#000000"/>
<path d="M1418,498L1419,498L1418,497L1418,498Z" fill="#000000"/>
<path d="M1027,497L1028,497L1027,496L1027,497Z" fill="#000000"/>
<path d="M1028,497L1045,490L1046,489L1057,481L1058,480L1060,478L1061,477L1063,475L1064,474L1061,435L1060,435L1060,434L1049,420L1048,420L1048,419L1026,393L1025,393L1025,392L906,354L884,378L895,402L898,408L913,430L919,435L928,441L934,444L993,474L999,477L1017,489L1023,495L1027,496L1028,497Z" fill="#B3C9C9"/>
<path d="M388,496L389,496L388,495L388,496Z" fill="#000000"/>
<path d="M970,495L971,495L970,494L970,495Z" fill="#000000"/>
<path d="M591,494L609,484L609,483L608,470L607,470L607,469L588,470L587,471L591,494Z" fill="#98BABC"/>
<path d="M997,492L998,492L997,491L997,492Z" fill="#000000"/>
<path d="M379,489L380,489L379,488L379,489Z" fill="#000000"/>
<path d="M993,489L994,489L993,488L993,489Z" fill="#000000"/>
<path d="M991,485L992,485L991,484L991,485Z" fill="#000000"/>
<path d="M787,484L788,484L787,483L787,484Z" fill="#000000"/>
<path d="M788,484L803,481L805,479L855,383L829,386L803,410L802,411L801,435L800,435L800,434L790,431L789,432L788,433L787,434L782,440L781,441L787,483L788,484Z" fill="#B3C9C9"/>
<path d="M1453,484L1454,484L1453,483L1453,484Z" fill="#000000"/>
<path d="M1454,484L1464,472L1463,472L1463,471L1462,471L1462,470L1453,483L1454,484Z" fill="#98BABC"/>
<path d="M989,483L990,483L989,482L989,483Z" fill="#000000"/>
<path d="M709,481L710,481L709,480L709,481Z" fill="#000000"/>
<path d="M710,481L712,481L714,481L715,480L729,466L730,465L737,457L738,456L736,448L735,448L735,447L738,430L739,429L745,422L744,422L744,421L730,427L729,428L725,434L724,435L721,438L720,438L720,437L710,440L709,441L708,442L706,447L704,450L706,452L707,451L708,450L709,449L709,451L707,451L706,452L705,454L702,458L701,459L701,478L709,480L710,481Z" fill="#98BABC"/>
<path d="M985,480L986,480L985,479L985,480Z" fill="#000000"/>
<path d="M1103,480L1112,450L1111,450L1111,449L1107,444L1106,444L1106,443L1102,435L1101,462L1100,463L1100,464L1099,467L1101,478L1103,480Z" fill="#B3C9C9"/>
<path d="M1463,472L1464,472L1463,471L1463,472Z" fill="#000000"/>
<path d="M973,471L974,471L973,470L973,471Z" fill="#000000"/>
<path d="M1462,471L1463,471L1462,470L1462,471Z" fill="#000000"/>
<path d="M607,470L608,470L607,469L607,470Z" fill="#000000"/>
<path d="M1092,464L1093,464L1092,463L1092,464Z" fill="#000000"/>
<path d="M1093,464L1100,464L1100,463L1101,462L1102,435L1047,386L1084,451L1092,463L1093,464Z" fill="#98BABC"/>
<path d="M1212,456L1213,456L1212,455L1212,456Z" fill="#000000"/>
<path d="M1209,453L1210,453L1209,452L1209,453Z" fill="#000000"/>
<path d="M1081,451L1084,451L1047,386L1030,378L1029,378L1027,379L1036,390L1050,406L1081,451Z" fill="#B3C9C9"/>
<path d="M1111,450L1112,450L1111,449L1111,450Z" fill="#000000"/>
<path d="M735,448L736,448L735,447L735,448Z" fill="#000000"/>
<path d="M1200,447L1201,447L1200,446L1200,447Z" fill="#000000"/>
<path d="M1106,444L1107,444L1106,443L1106,444Z" fill="#000000"/>
<path d="M678,442L680,442L687,439L688,438L678,442Z" fill="#98BABC"/>
<path d="M720,438L721,438L720,437L720,438Z" fill="#000000"/>
<path d="M519,437L520,437L519,436L519,437Z" fill="#000000"/>
<path d="M520,437L538,428L537,428L537,427L536,424L535,424L527,434L518,435L518,434L515,433L519,436L520,437Z" fill="#98BABC"/>
<path d="M692,437L696,436L697,435L690,424L689,425L692,437Z" fill="#98BABC"/>
<path d="M518,435L527,434L518,434L518,435Z" fill="#73A7AF"/>
<path d="M800,435L801,435L800,434L800,435Z" fill="#000000"/>
<path d="M1060,435L1061,435L1060,434L1060,435Z" fill="#000000"/>
<path d="M1306,434L1305,422L1304,423L1304,432L1306,434Z" fill="#98BABC"/>
<path d="M524,428L526,428L527,427L528,424L529,423L532,416L505,385L504,386L502,388L501,389L501,393L506,399L519,407L519,408L523,408L524,415L525,415L525,419L523,426L523,427L524,428Z" fill="#98BABC"/>
<path d="M537,428L538,428L537,427L537,428Z" fill="#000000"/>
<path d="M521,427L523,427L523,426L518,424L521,427Z" fill="#000000"/>
<path d="M1159,426L1160,426L1159,425L1159,426Z" fill="#000000"/>
<path d="M1445,425L1454,421L1455,420L1472,403L1472,386L1471,386L1459,377L1442,404L1441,405L1438,420L1441,423L1445,425Z" fill="#98BABC"/>
<path d="M535,424L536,424L535,420L535,424Z" fill="#000000"/>
<path d="M744,422L745,422L744,421L744,422Z" fill="#000000"/>
<path d="M518,420L521,420L525,419L525,415L524,415L517,415L518,420Z" fill="#98BABC"/>
<path d="M534,420L535,420L533,417L534,420Z" fill="#000000"/>
<path d="M1048,420L1049,420L1048,419L1048,420Z" fill="#000000"/>
<path d="M532,417L533,417L532,416L532,417Z" fill="#000000"/>
<path d="M1293,412L1297,406L1296,406L1296,405L1290,406L1293,412Z" fill="#98BABC"/>
<path d="M516,410L519,408L519,407L516,410Z" fill="#000000"/>
<path d="M763,407L773,404L773,403L763,407Z" fill="#000000"/>
<path d="M1218,406L1219,406L1218,405L1218,406Z" fill="#000000"/>
<path d="M1296,406L1297,406L1296,405L1296,406Z" fill="#000000"/>
<path d="M773,404L779,400L778,399L773,403L773,404Z" fill="#73A7AF"/>
<path d="M1216,402L1217,402L1216,401L1216,402Z" fill="#000000"/>
<path d="M779,400L796,390L795,390L795,389L778,399L779,400Z" fill="#000000"/>
<path d="M1025,393L1026,393L1025,392L1025,393Z" fill="#000000"/>
<path d="M605,391L609,391L605,390L605,391Z" fill="#000000"/>
<path d="M609,391L622,371L621,371L621,370L620,370L620,369L619,369L619,368L572,378L587,387L605,390L609,391Z" fill="#B3C9C9"/>
<path d="M776,390L778,389L776,389L776,390Z" fill="#000000"/>
<path d="M795,390L796,390L800,388L801,387L806,385L807,384L842,367L843,366L861,354L860,353L827,371L826,372L800,385L799,386L795,389L795,390Z" fill="#98BABC"/>
<path d="M775,389L776,389L775,388L775,389Z" fill="#000000"/>
<path d="M776,389L778,389L800,379L801,378L845,355L846,354L777,339L776,339L776,338L746,386L747,385L755,379L756,378L767,370L768,369L775,388L776,389Z" fill="#98BABC"/>
<path d="M147,388L157,387L147,387L147,388Z" fill="#4B96AA"/>
<path d="M144,387L147,387L157,387L171,386L171,384L169,384L162,384L149,384L150,383L158,382L157,380L142,383L141,383L136,384L144,387Z" fill="#98BABC"/>
<path d="M829,386L855,383L852,378L851,378L851,377L842,374L841,375L829,386Z" fill="#98BABC"/>
<path d="M1471,386L1472,386L1472,354L1471,354L1463,368L1462,369L1460,374L1459,375L1459,377L1471,386Z" fill="#B3C9C9"/>
<path d="M141,383L142,383L142,382L141,383Z" fill="#000000"/>
<path d="M158,382L178,378L177,378L177,377L139,377L138,378L139,379L160,378L160,379L157,380L158,382Z" fill="#98BABC"/>
<path d="M157,379L158,379L158,378L157,379Z" fill="#000000"/>
<path d="M158,379L160,379L160,378L158,378L158,379Z" fill="#001D12"/>
<path d="M177,378L178,378L177,377L177,378Z" fill="#000000"/>
<path d="M851,378L852,378L851,377L851,378Z" fill="#000000"/>
<path d="M884,378L906,354L871,355L870,355L866,355L865,356L877,372L884,378Z" fill="#98BABC"/>
<path d="M1016,377L1017,377L1016,376L1016,377Z" fill="#000000"/>
<path d="M1017,377L1019,377L1020,376L998,352L997,352L997,351L994,348L993,348L993,347L983,339L982,339L982,338L911,338L910,339L905,340L902,351L916,351L1016,376L1017,377Z" fill="#B3C9C9"/>
<path d="M621,371L622,371L621,370L621,371Z" fill="#000000"/>
<path d="M620,370L621,370L620,369L620,370Z" fill="#000000"/>
<path d="M619,369L620,369L619,368L619,369Z" fill="#000000"/>
<path d="M180,362L181,362L180,361L180,362Z" fill="#000000"/>
<path d="M181,362L203,358L204,357L245,337L246,336L266,325L267,324L293,310L294,309L305,301L306,300L312,292L312,291L302,296L301,297L254,320L253,321L251,322L250,323L248,325L247,327L206,335L159,314L171,330L170,330L170,329L168,328L167,328L167,327L158,315L157,315L157,314L155,314L154,315L143,332L142,333L141,351L151,354L169,357L180,361L181,362Z" fill="#98BABC"/>
<path d="M879,352L880,351L879,351L879,352Z" fill="#000000"/>
<path d="M885,352L892,352L898,351L902,351L905,340L879,351L880,351L885,352Z" fill="#98BABC"/>
<path d="M997,352L998,352L997,351L997,352Z" fill="#000000"/>
<path d="M993,348L994,348L993,347L993,348Z" fill="#000000"/>
<path d="M1010,344L1013,339L1012,339L1012,338L1010,344Z" fill="#98BABC"/>
<path d="M776,339L777,339L776,338L776,339Z" fill="#000000"/>
<path d="M982,339L983,339L982,338L982,339Z" fill="#000000"/>
<path d="M1012,339L1013,339L1012,338L1012,339Z" fill="#000000"/>
<path d="M209,336L211,336L209,335L209,336Z" fill="#000000"/>
<path d="M211,336L214,336L225,334L226,333L234,325L228,325L244,286L240,279L239,279L239,278L242,247L243,246L228,231L227,231L227,230L255,186L254,186L254,185L260,115L261,114L250,95L236,96L209,105L208,106L206,107L205,108L159,314L206,335L209,335L211,336Z" fill="#B3C9C9"/>
<path d="M898,334L899,334L898,333L898,334Z" fill="#000000"/>
<path d="M899,334L905,331L906,330L903,313L902,313L898,311L897,312L896,313L898,333L899,334Z" fill="#98BABC"/>
<path d="M170,330L171,330L170,329L170,330Z" fill="#000000"/>
<path d="M167,328L168,328L167,327L167,328Z" fill="#000000"/>
<path d="M228,325L234,325L239,322L240,321L293,298L294,297L260,293L259,294L244,286L228,325ZM268,297L264,298L264,299L263,299L263,298L264,298L291,276L302,283L301,284L268,297Z" fill="#98BABC"/>
<path d="M1204,324L1208,324L1222,316L1223,315L1245,300L1243,300L1246,295L1245,294L1245,293L1244,291L1243,291L1243,290L1243,251L1242,251L1242,250L1207,237L1206,237L1206,236L1184,244L1183,245L1175,273L1193,306L1203,320L1202,321L1204,324Z" fill="#B3C9C9"/>
<path d="M157,315L158,315L157,314L157,315Z" fill="#000000"/>
<path d="M1243,300L1245,300L1246,299L1246,295L1243,300Z" fill="#98BABC"/>
<path d="M1243,291L1244,291L1243,290L1243,291Z" fill="#000000"/>
<path d="M137,288L141,287L142,286L138,258L137,258L137,257L135,255L134,255L134,254L129,251L128,251L128,250L111,264L110,264L110,263L107,263L106,264L105,265L112,273L133,271L133,269L134,268L134,270L133,271L133,285L137,288Z" fill="#98BABC"/>
<path d="M239,279L240,279L239,278L239,279Z" fill="#000000"/>
<path d="M966,276L971,275L972,275L973,270L972,270L972,269L966,276Z" fill="#98BABC"/>
<path d="M971,276L972,275L971,275L971,276Z" fill="#000000"/>
<path d="M972,270L973,270L972,269L972,270Z" fill="#000000"/>
<path d="M608,265L609,265L608,264L608,265Z" fill="#000000"/>
<path d="M609,265L611,265L629,255L641,253L642,252L645,252L629,225L621,227L620,228L618,242L617,243L609,261L608,262L608,264L609,265Z" fill="#98BABC"/>
<path d="M110,264L111,264L110,263L110,264Z" fill="#000000"/>
<path d="M651,260L652,259L649,258L651,260Z" fill="#000000"/>
<path d="M652,259L705,248L706,247L703,216L702,216L702,215L700,198L699,198L699,197L684,197L683,198L657,206L656,207L642,209L641,210L630,224L629,225L645,252L647,256L649,258L652,259Z" fill="#B3C9C9"/>
<path d="M137,258L138,258L137,257L137,258Z" fill="#000000"/>
<path d="M1034,256L1035,256L1034,255L1034,256Z" fill="#000000"/>
<path d="M1035,256L1040,256L1041,255L1000,208L999,209L1007,223L1008,222L1014,225L1034,255L1035,256Z" fill="#98BABC"/>
<path d="M134,255L135,255L134,254L134,255Z" fill="#000000"/>
<path d="M128,251L129,251L128,250L128,251Z" fill="#000000"/>
<path d="M1242,251L1243,251L1242,250L1242,251Z" fill="#000000"/>
<path d="M1206,237L1207,237L1206,236L1206,237Z" fill="#000000"/>
<path d="M1348,236L1382,219L1383,218L1383,213L1382,213L1382,212L1365,206L1364,207L1348,236Z" fill="#98BABC"/>
<path d="M227,231L228,231L227,230L227,231Z" fill="#000000"/>
<path d="M1190,220L1192,220L1190,219L1190,220Z" fill="#000000"/>
<path d="M1192,220L1233,208L1234,207L1235,206L1235,205L1236,204L1237,185L1236,185L1236,184L1234,171L1233,171L1233,170L1232,167L1231,167L1231,166L1174,178L1174,191L1181,198L1188,216L1190,219L1192,220Z" fill="#B3C9C9"/>
<path d="M702,216L703,216L702,215L702,216Z" fill="#000000"/>
<path d="M1052,215L1078,203L1077,203L1076,202L1076,201L1076,200L1075,199L1075,198L1074,198L1074,197L1066,194L1065,195L1060,199L1059,200L1057,201L1056,202L1054,203L1053,204L1050,213L1052,215Z" fill="#98BABC"/>
<path d="M789,214L792,214L789,213L789,214Z" fill="#000000"/>
<path d="M792,214L812,208L813,207L872,202L873,201L882,207L1012,190L1038,180L1046,154L1047,153L1048,151L1049,150L1050,143L1049,143L1049,142L1026,126L1024,126L1000,134L999,135L983,139L982,139L982,138L980,129L979,129L979,128L976,128L975,129L968,133L967,133L967,132L1003,115L1004,114L1061,96L1070,96L1074,96L1085,109L1086,109L1087,86L1087,85L1079,57L1078,57L1078,56L1070,23L1069,23L1069,22L987,24L986,24L986,23L981,18L980,18L980,17L980,15L979,15L979,14L978,0L881,0L890,23L889,28L875,47L874,48L871,83L914,86L913,87L909,92L910,92L910,93L909,93L909,92L869,95L868,96L800,104L799,105L794,113L793,114L742,193L757,204L766,207L789,213L792,214Z" fill="#B3C9C9"/>
<path d="M1382,213L1383,213L1382,212L1382,213Z" fill="#000000"/>
<path d="M158,204L162,204L163,203L163,200L162,200L162,199L160,198L159,198L159,197L151,191L150,192L158,204Z" fill="#98BABC"/>
<path d="M1077,203L1078,203L1080,203L1080,201L1079,201L1079,200L1076,200L1076,201L1076,202L1077,203Z" fill="#98BABC"/>
<path d="M1079,201L1080,201L1079,200L1079,201Z" fill="#000000"/>
<path d="M162,200L163,200L162,199L162,200Z" fill="#000000"/>
<path d="M159,198L160,198L159,197L159,198Z" fill="#000000"/>
<path d="M699,198L700,198L699,197L699,198Z" fill="#000000"/>
<path d="M1074,198L1075,198L1074,197L1074,198Z" fill="#000000"/>
<path d="M1027,196L1028,196L1029,195L1033,190L1034,189L1051,172L1050,172L1050,171L1038,180L1012,190L1027,196Z" fill="#98BABC"/>
<path d="M83,194L90,170L89,171L87,175L86,176L83,194Z" fill="#98BABC"/>
<path d="M1171,191L1174,191L1174,178L1171,191Z" fill="#98BABC"/>
<path d="M254,186L255,186L254,185L254,186Z" fill="#000000"/>
<path d="M1236,185L1237,185L1236,184L1236,185Z" fill="#000000"/>
<path d="M342,179L343,179L344,178L342,179Z" fill="#98BABC"/>
<path d="M1050,172L1051,172L1050,171L1050,172Z" fill="#000000"/>
<path d="M1233,171L1234,171L1233,170L1233,171Z" fill="#000000"/>
<path d="M1231,167L1232,167L1231,166L1231,167Z" fill="#000000"/>
<path d="M1049,143L1050,143L1049,142L1049,143Z" fill="#000000"/>
<path d="M982,139L983,139L982,138L982,139Z" fill="#000000"/>
<path d="M1278,134L1279,134L1278,133L1278,134Z" fill="#000000"/>
<path d="M1279,134L1259,108L1262,111L1262,118L1278,133L1279,134Z" fill="#98BABC"/>
<path d="M967,133L968,133L967,132L967,133Z" fill="#000000"/>
<path d="M979,129L980,129L979,128L979,129Z" fill="#000000"/>
<path d="M1244,115L1245,115L1244,114L1244,115Z" fill="#000000"/>
<path d="M1245,115L1238,87L1237,87L1237,86L1244,114L1245,115Z" fill="#98BABC"/>
<path d="M1085,110L1086,109L1085,109L1085,110Z" fill="#000000"/>
<path d="M1061,97L1070,96L1061,96L1061,97Z" fill="#73A7AF"/>
<path d="M1237,87L1238,87L1237,86L1237,87Z" fill="#000000"/>
<path d="M791,74L796,63L796,62L783,42L782,42L782,41L773,39L772,40L772,43L791,74Z" fill="#98BABC"/>
<path d="M205,69L208,69L219,58L218,58L218,57L211,59L210,60L195,54L194,54L194,53L190,51L189,51L189,50L183,48L182,48L182,47L168,45L169,45L205,69Z" fill="#98BABC"/>
<path d="M527,67L536,66L527,66L527,67Z" fill="#73A7AF"/>
<path d="M520,66L527,66L536,66L544,61L545,60L546,58L547,57L549,52L550,51L550,36L549,36L549,35L548,33L547,33L547,32L545,30L544,30L544,29L541,27L540,27L540,26L535,24L534,24L534,23L530,9L529,9L529,8L528,8L528,7L502,3L501,4L500,5L499,6L495,8L494,9L493,10L492,11L484,19L483,20L467,21L466,21L466,20L431,6L430,6L430,5L425,3L424,3L424,2L420,0L321,0L313,9L333,27L351,37L360,43L363,45L372,48L427,22L428,21L441,38L444,44L447,48L506,63L520,66Z" fill="#B3C9C9"/>
<path d="M218,58L219,58L218,57L218,58Z" fill="#000000"/>
<path d="M1078,57L1079,57L1078,56L1078,57Z" fill="#000000"/>
<path d="M194,54L195,54L194,53L194,54Z" fill="#000000"/>
<path d="M189,51L190,51L189,50L189,51Z" fill="#000000"/>
<path d="M728,50L729,49L728,48L728,50Z" fill="#000000"/>
<path d="M729,49L732,41L732,40L731,40L735,34L737,34L738,34L759,33L758,33L758,32L756,19L755,19L755,18L737,16L737,27L726,27L726,26L724,26L723,26L722,28L725,37L728,48L729,49Z" fill="#98BABC"/>
<path d="M182,48L183,48L182,47L182,48Z" fill="#000000"/>
<path d="M168,46L169,45L168,45L168,46Z" fill="#000000"/>
<path d="M782,42L783,42L782,41L782,42Z" fill="#000000"/>
<path d="M732,41L733,40L732,40L732,41Z" fill="#000000"/>
<path d="M731,40L732,40L732,39L731,40Z" fill="#000000"/>
<path d="M732,40L733,40L737,35L737,34L735,34L734,35L732,39L732,40Z" fill="#98BABC"/>
<path d="M549,36L550,36L549,35L549,36Z" fill="#000000"/>
<path d="M737,35L738,34L737,34L737,35Z" fill="#000000"/>
<path d="M547,33L548,33L547,32L547,33Z" fill="#000000"/>
<path d="M758,33L759,33L758,32L758,33Z" fill="#000000"/>
<path d="M1138,31L1153,28L1154,27L1159,22L1160,21L1161,15L1161,8L1162,0L1138,31Z" fill="#B3C9C9"/>
<path d="M544,30L545,30L544,29L544,30Z" fill="#000000"/>
<path d="M540,27L541,27L540,26L540,27Z" fill="#000000"/>
<path d="M726,27L737,27L726,26L726,27Z" fill="#73A7AF"/>
<path d="M534,24L535,24L534,23L534,24Z" fill="#000000"/>
<path d="M986,24L987,24L986,23L986,24Z" fill="#000000"/>
<path d="M1069,23L1070,23L1069,22L1069,23Z" fill="#000000"/>
<path d="M466,21L467,21L466,20L466,21Z" fill="#000000"/>
<path d="M755,19L756,19L755,18L755,19Z" fill="#000000"/>
<path d="M980,18L981,18L980,17L980,18Z" fill="#000000"/>
<path d="M979,15L980,15L979,14L979,15Z" fill="#000000"/>
<path d="M529,9L530,9L529,8L529,9Z" fill="#000000"/>
<path d="M528,8L529,8L528,7L528,8Z" fill="#000000"/>
<path d="M430,6L431,6L430,5L430,6Z" fill="#000000"/>
<path d="M424,3L425,3L424,2L424,3Z" fill="#000000"/>
</g>
</svg>
