<svg id="painting" class="ripples" xmlns="http://www.w3.org/2000/svg" xmlns:xlink="http://www.w3.org/1999/xlink" viewBox="0 0 756 1025">
<style>
path{
    opacity:0;
}
</style>
    <g id="note_1_Image" data-name="note_1 Image">
      <g  id="note_1_hc" data-name="note_1 Imageremove_hc">
        <path id="note_1" class="ripple__interact"  d="M520,1a9.24,9.24,0,0,1,0,1.82,27.31,27.31,0,0,0-8-1.2c-10.64-.11-21.3.12-32,.18L448.93,2c-2.88,0-6.07-.24-9,.28-2.87-.08-5.74-.15-8.61-.24-.43-.32-.87-.73-1.31-1H419c-.2.23-.41.42-.61.62L412,1.42a6.14,6.14,0,0,0-3.52,1.16C407.35,2.08,406.17,1.5,405,1H284l.63,1.23c-.61,0-1.21,0-1.82,0a62.14,62.14,0,0,1-9.05,0l-.52-.1a32,32,0,0,0-13.18-.14c-.69-.35-1.38-.7-2.06-1.07H117c5.72,4.1,10.5,8.91,10.85,16.46.48,10,5.71,16.37,15.24,18.71,7.19,1.76,14.39,3.72,19.39,10.65l3.6-4.7,1.44.17c0,1.93.49,4-.12,5.74a31.09,31.09,0,0,1-3.93,6.83c-3.06,4.41-1.77,11.58,3.19,15,5.22,3.63,10.6,7.11,16.94,8.18l.36-.86.09,0c3.94,3.48,9.21,5.33,13.77,7.81a139,139,0,0,1,25.92,18.17h0c4,6.75,7.86,13.11,11.64,19.5,7.36,12.44,13.79,25.55,25.95,34.41a27.23,27.23,0,0,1,4.75,5.11c14.06,17.42,21.89,38.4,32.48,57.78,9.15,16.77,15.56,35.14,25.6,51.31A238.3,238.3,0,0,1,348,322.28c3.24,9.73,4.26,19.89-2.72,29.06-1,1.33-1.81,3.61-1.39,5.07a57.69,57.69,0,0,0,4.81,12.24c3.12,5.54,3.71,7.51-1.58,10.94a306.66,306.66,0,0,1-31,17.76c-6.29,3.12-9.05,5.22-7.62,12,1.29,6.13.11,10.82-4,15.51s-3.31,6.61.27,11.93a106,106,0,0,1,9.71,17.28c1.1,2.6.86,7-.7,9.28-6.33,9.12-4.72,17.92-.28,26.88,2.15,4.32,4.69,8.44,6.88,12.74s2.26,8.63-.92,12.21c-9.6,10.82-8.82,21.62-1.56,33.39,3,4.79,4.15,10.73,5.79,16.26,1.07,3.6-.61,6.06-4.29,7.17-4.14,1.24-8.32,2.43-12.35,4-9,3.47-10,8.38-3.38,15.25,3.09,3.23,5.55,7.11,8.87,10.06,6.71,6,5.45,11.56,1.24,18.51A87,87,0,0,0,301.31,659c-1.13,16.42-.41,33-.25,49.47,0,3.06.51,6.51,2,9.06,2.28,3.89,1.93,7.24-.92,10-2.42,2.32-5.54,4.68-8.69,5.31-5.18,1-6.73,4-6.23,8.39a114.41,114.41,0,0,0,3.1,18.17c5.13,18.25,11,36.31,16,54.6,3.39,12.31,3.74,24.84-3,36.32-8.16,13.93-16.61,27.7-25.48,41.19a15.69,15.69,0,0,1-9.29,6c-14.06,2.65-28.32,3.09-41.82-2.43-5.31-2.17-7.74-.43-10,3.56a11.73,11.73,0,0,0-1.86,5.05c-.4,12.81-.63,25.63-.78,38.45a8.41,8.41,0,0,0,1.28,4.25c3.77,6.07,7.24,12.41,11.7,17.94,5.5,6.82,12.49,12.48,17.68,19.49,4.5,6.07,7.51,13.27,11,20.07,3.54,7,6.83,14.06,10.23,21.1H438c-1.77-4.77-4.62-9.44-5.05-14.32-.59-6.61.57-13.39,1.15-20.07,1.23-14.06,2.45-28.11,3.91-42.13.71-6.78,1.77-13.54,3-20.24,2.46-13.22,6.5-26,14.73-36.77,9.35-12.28,12.83-26,12.39-41.15-.36-12.31.11-24.64-.24-36.94-.36-12.87,8.93-15.35,18-10.6,9.26,4.85,18.16,10.37,27.26,15.51,1.57.89,3.34,2,5,2,11.16.12,18.42-2.31,24.75-11.74,7.33-10.91,6.74-22.87,6.37-35a49.67,49.67,0,0,0-1.15-6.51c-4.2,2.12-7.89,3.6-11.17,5.72A31.8,31.8,0,0,1,515.7,778c-7.4-.78-14.9-.69-22.33-1.28-1.76-.13-4.4-1-5-2.24-4.17-9.07-12.62-13.84-19.59-20.08-.63-.56-2.4-.8-2.86-.36a2.19,2.19,0,0,0-.56.94,5,5,0,0,0-3.7-.14c-4.72-2.84-10.27-3.23-15.15-6.2a15.7,15.7,0,0,1-7.17-10.91l.33-7.18a5.32,5.32,0,0,0-.55-2.7,24.47,24.47,0,0,0,.64-3.55c.77-9.94,1.6-19.89,2.06-29.85a15.19,15.19,0,0,0-1.7-7.48c-6.92-12.93-13.9-25.8-16.53-40.49A46,46,0,0,0,411,621.92c-3.59-3.66-8-6.47-11.78-10-7.66-7.21-8.57-14.24-3.58-23.41a13.45,13.45,0,0,0,1.33-4.74,32.75,32.75,0,0,0-6.93-25.22c-7.26-9.28-7.39-18.72-.37-27.95,4.05-5.34,6.28-10.79,5.39-17.49a28.17,28.17,0,0,1,0-6.49c.81-8,2.73-15.21,10.81-19.5,12.89-6.84,26.26-8.63,40-3.9,8.2,2.83,16.32,4.59,24.93,3.74s17.51-1.67,26.2-3c5.17-.76,7.36-4.28,7.44-9.63.06-4.11,1.07-8.22,1.75-12.31,1-6.05,2.38-12.06,3-18.15a12.28,12.28,0,0,1,4.24-8.43q14.5-14,28.27-28.79c4.32-4.62,3.36-10.63,2-16.19-.29-1.23-2.7-2.87-4-2.78-5.58.42-11.14,1.32-16.67,2.23-3.88.64-7.7,1.59-11.54,2.41l-.79-1.87c1.83-2,3.64-4.11,5.5-6.13,4.39-4.77,9.15-9.24,13.13-14.33,4.28-5.48,4-9.95-.62-15.33-3.42-4-3.46-7.8-.47-11.72,2.82-3.69,5.85-7.23,9-10.64,2.07-2.26,4.5-4.18,6.78-6.25-2.94.54-5.27,2-7.75,3.19-8,3.69-15.56,8.34-24.87,8.18-4.73-.09-7.14-1.72-6.94-6.68a46.23,46.23,0,0,0-.66-6.27c-1.54,1.23-2.32,1.79-3,2.43-7.1,6.34-13.95,13.12-24.76,11.93-.9-.09-2.7,1.47-2.92,2.51-3,14.48-13.27,23.78-23.56,33a7.31,7.31,0,0,1-4.35,1.51c-2.9.12-5.9-.74-8.71-.29-12.38,2-24.79,3.61-37.23,1.15-7.56-1.49-15-3.82-18.94-11.49-5-9.58-8.42-19.58-8.21-30.55.09-4.27-1.19-7.8-4.75-10.43-3.9-2.87-5.26-6.76-5.46-11.65-.42-10.43,3.91-19.42,7.58-28.69,7.36-18.6,14.88-37.13,26.28-53.72,7.26-10.56,14.66-21,22.31-31.33,6.47-8.71,13.76-16.53,23.05-22.59,6.2-4.05,12.67-8.87,16.63-14.91,6.4-9.79,15.58-14.53,25.54-19,13.93-6.22,28.19-11.57,40.39-21.48,9.28-7.54,13.8-16.29,14.36-26.92,3.46-12.11,6.3-24.38,9.34-36.61C549.1,50.2,551,43,553.13,35.83c1-3.27,2-6.52,3.15-9.75.61-1.76,1.23-3.51,1.89-5.26.3-.81.62-1.62.94-2.42a4.08,4.08,0,0,0,.68-1,5.91,5.91,0,0,0,3.56-2.53h1.39a35.61,35.61,0,0,0,2-5.6c.87-5.44,4.67-7.08,9.34-7,5.15.07,10.45.08,15.41,1.26C611,8.17,630.77,8.84,650.56,7.35,668.43,6,686.19,3.18,704,1Z" transform="translate(-1 -0.6)"/>
      </g>
      <image class="note_1 ripple__interact__display" data-name="note_1 Imageremove" width="594" height="1024" transform="translate(115)" xlink:href="image_test_reduced1.png"/>
    </g>
    <g id="note_0_Image" data-name="note_0 Image">
      <g id="note_0_hc" data-name="note_0 Imageremove_hc">
        <path id="note_0" class="ripple__interact" d="M345.21,362.71c-1.07-3.41-1.26-8.51.59-11.18,6.69-9.65,5.52-19.62,2.49-29.62-6.11-20.19-16.87-38.14-27-56.51-13.77-24.86-25.66-50.78-38.27-76.28-7.75-15.68-17.29-29.75-30.84-41.29-5.46-4.65-8.55-12.13-12.6-18.39s-7.29-13.27-12.12-18.88c-10.32-12-20.5-24.47-36.6-29.33a6.58,6.58,0,0,0-2.56,0c-3.67-1.7-6.69-4.12-9.87-4.34-4.84-.34-7.86-3.39-11.12-5.83-6.28-4.72-7.54-11.71-6.75-19.16.78-7.25-.42-9.44-7.27-12.11-4-1.57-8.18-2.83-12.25-4.29-8.11-2.92-13-8.13-13.09-17.31C127.8,10.38,122.25,5.69,117,1H1V1025H266c-1.79-3.18-4.13-6.18-5.29-9.57-5.46-16-17.08-27.87-27-41-6.75-9-12.46-18.71-18.46-28.22A10.35,10.35,0,0,1,214,941c-.09-11-.1-22,.09-33a22.44,22.44,0,0,1,1.53-7.78c2.51-6.21,5.19-7.27,11.45-5.08,13.32,4.65,27,3,40.58,1.92,3.3-.26,6.91-3.87,9.28-6.82,3.44-4.3,5.69-9.53,8.81-14.13,2.9-4.3,6.27-8.29,9.43-12.41,11.65-15.15,16.26-31.89,10.88-50.62-5-17.27-10.52-34.37-15.27-51.69-1.91-7-2.51-14.38-3.39-21.62-.45-3.63,1.56-5.44,5.23-6.63a29,29,0,0,0,9.95-5.95c2.8-2.51,3-5.92.88-9.55a16.53,16.53,0,0,1-2.05-7.59c-.4-14.31-.76-28.63-.69-42.94.08-17.55,5.28-33.86,13.88-49,3.41-6,4.67-10.83-1.16-16-3.81-3.41-6.83-7.68-10.3-11.47-5.79-6.32-4.95-11,3-14.08,4.31-1.71,8.87-2.83,13.33-4.19,3.73-1.15,5.88-3.55,4.65-7.46-1.92-6.11-3.47-12.57-6.67-18-6.22-10.55-6.75-20.29,1.08-30,4-5,4.35-10.21,1.19-15.78-2.29-4.06-4.57-8.14-6.53-12.36-3.85-8.27-4.7-16.32.69-24.65a12.78,12.78,0,0,0,.86-10.19A96.27,96.27,0,0,0,305,436.63c-3.61-5.37-4.21-7.19-.05-11.85,3.84-4.28,5.26-8.49,4.25-14.43-1.5-8.83,0-9.77,8.42-13,13-5,25.2-11.38,34.34-22.36v-2C349.65,369.6,346.39,366.48,345.21,362.71Z" transform="translate(-1 -0.6)"/>
      </g>
      <image  class="note_0 ripple__interact__display" data-name="note_0 Imageremove" width="351" height="1024" xlink:href="image_test_reduced3.png" style="transform-origin:left center!important;"/>
    </g>
    <g id="note_2_Image" data-name="note_2 Image">
      <g id="note_2_hc" data-name="note_2 Imageremove_hc">
      <path id="note_2" class="ripple__interact" d="M756,446V1H705q-4.21,1-8.44,1.81Q673.4,1.76,650.21,1.19C641.06,1,631.78.38,622.64.69c-6,.2-12.11,1.26-17.38,4.05-5-.46-9.91-.92-14.87-1.33-4.48-.37-9-.53-13.46-.83-5.48-.36-9.06,2.44-10.61,7.31-2.69,8.49-4.2,17.41-7.46,25.65-3.83,9.64-8.81,18.85-13.64,28.07-5,9.53-9.17,19.2-8.26,30.28a26.46,26.46,0,0,1-8.39,21.64c-8,7.74-16.92,14.49-27.48,18.72-7.41,3-14.72,6.2-22,9.45-8.42,3.76-15.71,8.5-21.29,16.53C453.46,166.47,447,171.59,440.6,176a93.08,93.08,0,0,0-22.12,21.43c-7.58,10.11-14.8,20.51-22.12,30.82-12.76,18-20.69,38.28-28.5,58.65-2.31,6-4.57,12.1-6.86,18.15v13c2.62,2.76,5.87,5.16,7.69,8.37s2.24,7.1,3.11,10.75c1.8,7.55,3.12,15.23,5.31,22.66,3.82,13,14.22,17.86,26.39,18.17,11.74.3,23.58-2.35,35.27-1.72,10.1.53,15.78-4.36,21.29-11.21s11.67-12.86,13.15-22c.22-1.4,2.05-3.77,2.82-3.65,11,1.68,17.61-5.6,24.88-11.6.6-.5,1.25-.92,2.3-1.68.29,1.56.6,2.64.68,3.74.45,7,2.16,9.18,9.27,7.7,8-1.67,15.65-5.21,23.42-8a29.43,29.43,0,0,0,3.86-2.08L542,329c-1.24.64-2.77,1-3.69,2-3.34,3.47-6.91,6.85-9.6,10.8-4.66,6.85-4.54,9,.35,14,3.73,3.79,4.26,8.46.79,12.66-5,6-10.37,11.67-15.59,17.48L510,390.62c.19.59.37,1.18.55,1.77,2.83-.49,5.65-1,8.48-1.45,6.34-1,12.67-2.13,19.05-2.79,4.32-.45,6.21,2.23,6.6,6.37.73,7.71-2.88,13.68-7.94,18.67C528.81,421,520.3,428.27,512.28,436a13.62,13.62,0,0,0-3.33,6.67c-1.51,6.79-2.66,13.67-3.8,20.54a82.23,82.23,0,0,0-1.32,11.35c-.12,5.32-2.55,8.63-7.67,9.52a115.51,115.51,0,0,1-16.33,2c-12.1.35-23.89.11-35.92-3.75-14.49-4.64-29.11-1.48-41.88,7.3a13.45,13.45,0,0,0-4.85,7.59,98.4,98.4,0,0,0-2.29,18.25,22.27,22.27,0,0,1-4.37,12.88c-9.18,12.85-9,19.7.44,32.48,7.3,9.93,7.8,20.58,1.73,30.77-3.3,5.54-1.08,10.8,2.17,15.36a43.33,43.33,0,0,0,9,9.27c10.41,7.9,17.21,17.75,19.42,30.86,2.38,14.17,9.44,26.55,15.81,39.19a22,22,0,0,1,2,9.34,121,121,0,0,1-1.1,13.93c-.75,7,2.14,13.16,3.85,19.72,2.19,8.38,8.23,11.67,14,16.21,9.4,7.41,18.42,15.3,27.58,23,.76.63,1.86,1.39,2,2.19.76,6.35,5.72,6,10.06,6.32,7.44.6,14.95.64,22.35,1.52,5.73.68,10.33-1.2,15-4.08,4-2.48,8.44-4.34,13.62-6.95,3.16,15,4.32,28.5-4.91,41-4,5.41-8.6,9.62-15.4,11.06-6.11,1.3-11.68,1-17.13-2.77a213.81,213.81,0,0,0-20.48-12.38,27,27,0,0,0-10.36-2.79c-7.35-.6-11.28,2.93-11.55,10.38-.42,11.31-1,22.67-.46,34,.83,17.5-4,32.67-13.44,47.55a100.06,100.06,0,0,0-13.32,34.67,508.06,508.06,0,0,0-7.69,64.38c-.4,6.74.4,13.93.41,21,0,3.84,3.23,7.69,5,11.53H756V458l-2.09-.22a22.43,22.43,0,0,0,.45-5.52c0-.58-.08-1.16-.14-1.74a21.23,21.23,0,0,0,.14-3.3A10.75,10.75,0,0,1,756,446Z" transform="translate(-1 -0.6)"/>
        
      </g>
      <image class="note_2 ripple__interact__display" data-name="note_2 Imageremove" width="395" height="1024" transform="translate(360)" xlink:href="image_test_reduced2.png" style="transform-origin:right center;"/>
    </g>
  </svg>