<?xml version='1.0' encoding='utf-8'?>
<!-- Generator: imaengine 6.0   -->
<svg xmlns:xlink="http://www.w3.org/1999/xlink" xmlns="http://www.w3.org/2000/svg" viewBox="0,0,459,460" style="enable-background:new 0 0 459 460;" version="1.1">
<defs/>
<g id="layer0">
<path d="M-0.153167,460C6.38203,460 14.8212,460.138 20.067,460.138C22.8872,448.24 36.5958,446.268 47.0382,443.148C57.2274,440.99 67.3253,437.553 74.0734,433.134C81.469,430.223 88.3712,425.503 94.0902,422.124C98.6351,417.045 104.654,411.942 106.149,405.034C108.999,398.757 108.545,385.181 107.15,378.967C106.634,368.145 107.993,357.962 109.152,350.022C108.399,342.519 107.054,333.99 104.125,329.911C101.448,326.053 97.8693,321.307 94.0678,319.863C87.8672,315.578 77.342,317.775 69.9907,318.847C62.5904,318.671 55.4192,320.344 50.9712,321.85C45.365,322.088 39.2751,323.596 35.9925,324.847C13.1767,318.603 16.5571,309.2 27.9019,300.796C39.2467,292.393 58.6387,285.276 68.0753,284.133C68.0579,283.082 69.4823,283.001 70.9909,283.088C72.4995,283.176 74.17,283.29 74.1529,282.991C73.4708,280.936 66.7413,282.454 66.0586,281.858C49.7211,282.401 39.9066,282.924 27.9956,285.847C21.5804,284.656 21.8937,281.493 23.8344,277.847C25.775,274.201 29.4936,270.27 30.1462,268.046C33.4483,262.75 37.244,256.473 38.1516,250.022C42.74,232.138 56.8847,225.014 71.5138,225.606C86.143,226.199 100.99,234.588 106.885,248.101L110.153,248C103.067,245.462 100.669,236.703 95.0906,233.877C92.3829,229.36 86.6149,226.276 83.0717,223.865C31.431,206.781 43.9024,278.705 -0.0699498,279.864C-0.0699498,298.966 -0.153167,319.022 -0.153167,337C7.25825,337.501 13.6735,340.818 19.9964,341.153C28.2026,341.104 38.5656,341.684 44.0393,340.148C50.103,338.643 57.4159,336.844 63.0286,336.15C66.958,335.118 75.7018,332.608 78.9293,335.136C86.6156,336.732 90.711,343.065 89.8475,351.985C89.4394,359.146 88.576,367.402 87.8481,372.98C91.347,424.741 34.389,414.951 -0.0927783,429.878C-0.0927783,439.844 -0.153167,451.248 -0.153167,460Z" fill="#47478F"/>
<path d="M19.8616,459.934C33.9034,459.934 49.1856,460.139 62.0652,460.139C65.6134,450.322 76.3857,446.635 84.0779,442.132C91.1609,437.887 101.973,436.199 107.053,431.144C109.607,431.609 112.314,428.902 114.113,425.592C115.912,422.283 116.896,418.179 116.146,415.952C115.721,408.465 115.243,399.537 114.15,393.971C114.15,387.436 114.153,379.246 114.153,374C115.124,365.588 116.857,351.929 116.152,345.982C116.175,335.652 112.896,327.249 109.129,321.917C108,314.791 102.307,310.569 97.0192,308.848C91.5542,309.227 84.5562,309.904 80.9693,310.85C71.0329,312.257 53.4341,313.036 46.0926,309.878C46.4644,295.834 60.4048,289.295 71.036,284.149L67.8468,284C58.4102,285.142 39.0644,292.147 27.7196,300.55C16.3748,308.954 13.1915,318.909 36.0073,325.153C39.29,323.902 45.4213,322.389 51.0274,322.151C55.4754,320.645 62.6089,318.977 70.0092,319.153C77.3605,318.081 87.7244,315.849 93.925,320.134C97.7265,321.578 101.197,326.229 103.874,330.088C106.804,334.167 108.095,342.513 108.848,350.015C107.689,357.955 106.332,368.185 106.847,379.007C108.242,385.222 108.709,398.662 105.86,404.939C104.364,411.847 98.44,416.809 93.8951,421.888C88.1761,425.268 81.328,429.951 73.9325,432.863C67.1843,437.281 57.1517,440.693 46.9625,442.851C36.5202,445.972 22.6818,448.036 19.8616,459.934Z" fill="#45448C"/>
<path d="M61.8759,459.91C120.87,459.91 180.074,460.137 239.068,460.137C239.486,451.121 237.435,443.002 235.14,437.938C234.063,434.555 231.173,430.806 229.033,429.851L227,430L225.153,430C215.532,427.549 213.652,419.55 216.625,413.256C219.598,406.961 227.231,402.519 236.96,407.148C239.877,407.309 242.565,409.686 242.852,411.04C246.527,413.555 252.959,415.128 254.881,418.096C267.119,425.297 276.255,436.464 287.911,443.124C290.501,446.087 296.483,447.138 301.061,449.039C305.64,450.94 308.789,453.464 305.886,459.897C356.627,459.897 408.459,460.141 458.06,460.141C448.565,444.823 432.482,435.186 422.083,421.871L421.153,422C419.244,417.374 411.432,416.857 410.128,412.915L408.153,413C401.573,408.797 396.404,398.244 400.143,388.056C393.05,377.73 382.878,369.514 381.148,354.961C367.185,356.392 354.586,360.452 351.852,371.962C349.842,374.935 350.349,380.79 350.108,385.708C349.866,390.627 349.047,394.496 344.023,393.849C328.413,391.029 324.004,376.323 319.12,363.905L318.153,364C297.022,363.117 281.43,348.515 282.153,324.005C280.923,322.157 278.182,319.265 276.952,318.855C266.716,349.674 265.208,380.458 218.024,375.849C210.474,374.117 204.49,369.516 199.08,366.869C194.702,362.993 187.774,360.259 185.12,355.904C180.063,353.392 176.113,348.181 173.102,344.885C166.294,341.387 162.35,333.713 156.089,330.876C153.93,326.5 149.299,323.095 149.153,317.995C147.008,313.871 147.197,307.891 148.138,306.067C147.1,298.839 151.188,294.901 150.151,288.974C150.07,282.626 145.208,282.043 139.51,283.025C133.812,284.008 127.134,286.429 123.005,285.847C107.384,286.94 90.01,281.141 70.9572,283.853C60.326,288.999 46.2187,295.95 45.8469,309.994C53.1884,313.152 71.0936,312.557 81.03,311.15C84.6169,310.204 91.5167,309.531 96.9817,309.152C102.27,310.873 107.72,314.9 108.849,322.026C112.616,327.358 115.87,335.67 115.847,346C116.552,351.946 114.819,365.571 113.848,373.982C113.848,379.228 113.847,387.465 113.847,394C114.939,399.566 115.423,408.521 115.847,416.009C116.598,418.236 115.643,422.137 113.844,425.446C112.045,428.755 109.514,431.317 106.96,430.852C101.88,435.907 91.0047,437.623 83.9218,441.868C76.2296,446.372 65.4241,450.094 61.8759,459.91ZM134.933,401.862C135.27,402.918 134.18,403.012 133.011,402.928C131.843,402.843 130.617,402.864 130.954,403.146C124.79,402.194 122.909,395.698 123.035,388.634C123.161,381.57 125.469,373.875 128.129,370.082C129.316,357.024 126.101,337.648 139,335.153C143.078,335.965 148.928,337.939 152.924,340.133C156.2,342.103 162.036,344.427 164.891,348.108C168.841,350.111 173.481,354.282 176.885,358.102C180.528,362.3 190.024,370.049 183.867,379.924C183.229,385.24 175.404,386.047 168.98,386.848C165.905,387.278 161.05,386.594 156.883,386.77C152.717,386.946 149.109,388.116 148.848,391.982C143.075,392.867 142.661,401.679 134.933,401.862Z" fill="#434189"/>
<path d="M238.847,459.986C261.311,459.986 284.708,460.139 306.064,460.139C308.967,453.706 305.757,450.657 301.179,448.756C296.601,446.855 290.696,445.852 288.105,442.889C276.449,436.229 267.211,425.05 254.972,417.849C249.533,425.775 242.704,433.485 234.904,437.881C237.199,442.945 239.265,450.97 238.847,459.986Z" fill="#232265"/>
<path d="M457.904,460.119L459.153,460C459.153,425.659 459.153,392.539 459.153,357C433.334,365.177 433.749,399.81 421.867,421.924C432.266,435.24 448.409,444.802 457.904,460.119Z" fill="#202260"/>
<path d="M234.907,438.122C242.707,433.726 249.688,426.012 255.127,418.086C253.205,415.118 246.653,413.363 242.978,410.848C238.282,417.14 233.942,425.122 228.908,429.878C231.047,430.833 233.831,434.739 234.907,438.122Z" fill="#252468"/>
<path d="M-0.153167,430C34.3287,415.073 91.6517,424.75 88.1528,372.99C88.8807,367.411 89.7448,359.169 90.1529,352.009C91.0164,343.088 86.7455,336.455 79.0592,334.859C75.8317,332.331 66.9001,334.817 62.9707,335.85C57.358,336.544 50.0247,338.347 43.961,339.852C38.4873,341.387 28.2098,340.798 20.0036,340.847C13.6807,340.511 7.34656,337.362 -0.0648523,336.861C-0.0648523,368.04 -0.153167,399.901 -0.153167,430Z" fill="#494992"/>
<path d="M224.981,430.152L227.153,430C224.362,423.089 232.963,411.927 237.103,407.113C227.374,402.484 219.321,406.83 216.348,413.125C213.375,419.42 215.359,427.701 224.981,430.152Z" fill="#2A296F"/>
<path d="M226.881,430.096L229.153,430C234.187,425.244 238.431,417.377 243.127,411.085C242.84,409.731 239.866,407.017 236.949,406.856C232.809,411.67 224.09,423.185 226.881,430.096Z" fill="#28276C"/>
<path d="M420.882,422.097L422.153,422C434.036,399.886 433.267,365.304 459.086,357.126C459.086,320.13 459.153,282.996 459.153,246L458.153,246C428.171,224.87 420.081,162.695 459.092,146.122C459.092,139.587 459.153,131.246 459.153,126C453.489,127.904 449.994,133.702 446.885,136.899C444.678,140.883 441.548,145.722 439.865,148.928C436.426,155.114 432.52,162.151 428.875,166.911C425.502,174.185 421.268,181.997 422.848,193.022C423.32,200.118 425.109,207.555 427.878,211.092C438.224,227.153 460.891,271.296 430.903,286.882C431.564,295.93 428.208,304.268 430.857,311.054C431.703,319.831 440.22,322.187 436.853,333.959C439.002,368.365 419.05,387.211 409.856,412.949C411.16,416.891 418.973,417.471 420.882,422.097Z" fill="#232462"/>
<path d="M407.953,413.146L410.153,413C419.347,387.262 439.165,368.254 437.015,333.848C436.271,338.256 431.585,340.686 426.941,339.859C425.74,359.286 419.841,382.225 404.045,388.853C404.41,387.77 403.979,387.009 403.394,386.509C402.81,386.009 401.901,385.831 401.873,385.915L399.847,388C396.108,398.189 401.373,408.943 407.953,413.146Z" fill="#252666"/>
<path d="M130.975,403.151C131.848,403.306 133.167,403.293 134.081,403.124C134.996,402.954 135.596,402.337 135.064,401.861C142.793,401.677 143.304,393.017 149.077,392.132C149.338,388.266 152.73,387.252 156.896,387.076C161.062,386.9 165.946,387.582 169.02,387.152C175.444,386.351 183.514,385.336 184.152,380.02C190.309,370.145 180.758,362.097 177.115,357.899C173.711,354.079 169.038,349.878 165.088,347.874C162.233,344.194 156.353,341.838 153.077,339.868C149.081,337.674 143.079,335.659 139,334.847C126.101,337.342 129.034,356.927 127.848,369.985C125.187,373.778 122.854,381.565 122.728,388.628C122.603,395.692 124.811,402.199 130.975,403.151Z" fill="#403E86"/>
<path d="M343.976,394.151C349,394.799 350.172,390.642 350.414,385.723C350.655,380.805 350.121,375.054 352.13,372.081C354.864,360.571 367.045,356.584 381.008,355.153C383.408,355.153 388.082,355.153 389,355.153L390.153,355C397.315,347.635 404.65,350.264 408.665,355.876C412.681,361.487 413.119,369.969 405.895,374.888C406.05,375.761 405.992,377.111 405.823,378.026C405.653,378.94 405.538,379.392 405.062,378.86C415.286,380.494 417.582,371.278 418.503,360.184C419.425,349.091 419.027,336.359 424.118,331.098C422.385,325.951 418.808,320.728 416.071,317.864L415.153,318C406.41,309.662 391.016,306.826 381.044,300.853L380.153,301C377.361,297.602 370.845,295.88 364.987,296.847L363.847,297C366.253,298.95 364.17,302.032 360.367,304.525C356.564,307.018 351.179,308.768 346.985,307.848C343.438,309.453 339.445,312.435 335.05,311.855C332.568,310.224 327.566,309.279 327.149,306.965C322.003,303.856 318.837,297.262 317.144,291.947C314.075,289.061 310.553,287.075 307.915,288.872C273.008,310.874 329.751,321.259 313.864,351.929C315.872,355.42 319.016,359.65 318.847,363.994C323.73,376.411 328.367,391.332 343.976,394.151Z" fill="#2B2A6D"/>
<path d="M403.985,388.848C419.781,382.219 425.951,359.446 427.152,340.019L426.153,340C424.827,337.905 423.187,334.017 424.058,331.142C418.968,336.403 419.119,349.066 418.198,360.159C417.277,371.252 415.236,380.482 405.012,378.847L403.847,379C404.002,379.873 403.992,381.111 403.823,382.026C403.653,382.94 403.551,383.398 403.075,382.866L402.153,386C402.998,385.873 403.288,386.629 403.619,387.383C403.949,388.137 404.151,388.736 403.985,388.848Z" fill="#28286A"/>
<path d="M399.91,388.124L402,386L403.153,383C399.303,372.809 389.107,367.927 389.153,355.001C388.235,355.001 383.332,354.863 380.932,354.863C382.662,369.416 392.817,377.798 399.91,388.124Z" fill="#3D3C83"/>
<path d="M402.867,383.076C403.922,383.413 404.317,382.158 404.233,380.989C404.149,379.821 403.74,378.815 404.021,379.152C405.426,375.01 401.282,374.211 402.12,372.095L401.153,372C399.045,366.884 396.225,360.65 393.062,357.86L391,356L390,355L388.847,355C388.8,367.926 399.016,372.885 402.867,383.076Z" fill="#3A397F"/>
<path d="M403.873,378.914L404.847,379C405.902,379.337 406.317,378.158 406.233,376.989C406.149,375.821 405.746,374.814 406.027,375.151C406.109,371.717 406.586,366.344 406.117,362.475C405.649,358.606 404.106,355.976 400.9,357.884C401.629,360.922 403.611,364.836 402.851,367.964C403.272,369.821 400.992,371.32 401.889,372.105C401.051,374.221 405.278,374.772 403.873,378.914Z" fill="#303073"/>
<path d="M217.975,376.151C265.159,380.761 266.862,349.937 277.097,319.118C275.72,319.777 275.321,318.784 275.066,317.955C274.811,317.126 274.483,316.246 273.88,316.905C265.201,345.222 249.09,365.919 207.023,360.849C198.353,359.212 191.024,355.058 186.1,350.884C180.828,346.19 174.958,340.806 171.114,335.898C166.132,332.282 163.182,325.222 160.129,320.917C156.945,308.51 161.514,300.94 164.147,291.041C167.436,285.39 168.746,276.418 172.125,272.089C174.158,266.21 174.112,256.782 178.103,254.114C179.761,249.237 184.112,245.389 187.092,243.122C210.79,225.776 233.528,248.218 251.984,252.152L252,251L251.153,251C246.376,234.994 232.165,227.352 213.002,226.847C209.58,226.847 204.005,226.847 202,226.847C189.946,226.801 183.004,233.123 177.925,238.867L176.847,241C167.603,248.838 166,264.863 152.047,266.854C146.814,260.419 137.569,256.912 134.109,249.892L132.153,250C123.047,239.62 109.889,221.263 95.2426,210.616C80.5966,199.969 64.2038,196.922 48.8941,216.889C32.3659,223.496 28.7785,243.827 22.8599,259.938C18.4571,263.447 14.7829,269.044 8.93984,269.859C7.05843,271.745 2.60485,273.159 -0.0625143,272.86C-0.0625143,274.928 -0.153167,279.437 -0.153167,280C43.8192,278.841 31.2951,207.055 82.9358,224.139C86.479,226.55 92.1718,229.578 94.8795,234.095C100.457,236.921 102.887,245.613 109.973,248.151L110.847,250C114.298,251.051 114.302,246.429 116.926,248.134C128.265,252.864 136.877,261.035 135.847,276.989C131.273,284.763 117.221,283.901 106,283.847L106,283C102.922,283 97.6408,282.847 96,282.847C91.1943,282.847 84.4558,282.847 81,282.847L78,283L73.8468,283C73.8639,283.299 72.5173,282.87 71.0087,282.783C69.5,282.695 67.8295,282.954 67.8469,284.005L71.1532,284C90.206,281.288 107.373,287.246 122.995,286.153C127.124,286.735 133.864,284.31 139.562,283.327C145.26,282.345 149.766,282.655 149.847,289.002C150.884,294.929 146.811,298.795 147.849,306.023C146.908,307.846 146.717,313.943 148.862,318.067C149.008,323.167 153.714,326.71 155.873,331.086C162.134,333.924 166.107,341.629 172.915,345.127C175.926,348.423 179.854,353.612 184.91,356.124C187.564,360.479 194.531,363.247 198.909,367.123C204.319,369.77 210.425,374.419 217.975,376.151ZM149.925,280.866C149.273,282.946 141.613,281.314 138.038,281.852C148.869,272.554 134.974,256.444 128.068,251.863C132.724,250.58 141.974,260.906 145.869,267.079C147.078,270.045 149.871,274.741 153.962,276.148C157.043,276.648 162.609,269.51 165.135,265.072C165.221,257.448 171.925,253.78 174.142,247.057C178.635,243.493 182.612,236.979 189.057,234.142C192.671,232.866 198.748,231.072 204.018,230.152C210.724,229.752 219.449,230.075 224.948,232.144C230.983,234.166 237.633,238.072 241.885,243.102C247.06,248.058 247.023,248.635 244.87,247.554C242.717,246.473 238.67,243.525 236.109,240.893C231.515,236.388 223.179,232.993 214.018,231.848C201.478,230.475 191.233,233.857 183.907,238.878C178.241,244.38 172.852,252.555 167.869,259.92C167.619,271.523 161.222,279.138 149.925,280.866Z" fill="#454488"/>
<path d="M405.848,374.983C413.072,370.064 412.93,361.309 408.914,355.698C404.899,350.086 397.092,347.499 389.93,354.864L391.153,356C396.261,354.659 399.053,357.754 401.024,358.151C404.23,356.243 405.344,358.643 405.813,362.512C406.282,366.381 405.929,371.55 405.848,374.983Z" fill="#2D2D70"/>
<path d="M400.882,372.097L402.153,372C401.733,370.143 403.958,368.645 403.061,367.86L402.153,368C399.713,364.25 398.474,357.218 392.944,357.857C396.108,360.648 398.774,366.981 400.882,372.097Z" fill="#36367B"/>
<path d="M401.907,368.121L403.153,368C403.913,364.872 401.871,360.982 401.142,357.943C399.172,357.546 396.088,354.507 390.98,355.848L393.153,358C398.683,357.361 399.466,364.372 401.907,368.121Z" fill="#333377"/>
<path d="M317.997,364.153L319.153,364C319.322,359.656 316.108,355.375 314.101,351.884L313,352L310.847,351C311.66,352.532 310.959,352.816 309.96,352.901C308.962,352.987 307.806,353.026 307.988,353.153C299.081,348.752 285.799,340.256 289.138,330.067C286.09,329.002 284.578,323.949 281.933,323.862C281.21,348.372 296.866,363.27 317.997,364.153Z" fill="#3F3E85"/>
<path d="M206.977,361.151C249.044,366.222 265.452,345.397 274.131,317.08L272,315L270,315L268.847,314C260.532,338.871 245.159,356.877 210.018,353.848C200.758,352.461 192.084,349.369 188.112,343.896C182.21,340.857 178.808,333.91 175.113,329.896C169.776,324.138 168.346,307.807 172.139,300.065C173.647,293.318 176.723,286.568 176.153,278.988C178.169,274.124 180.797,268.255 181.153,263.01C181.438,257.106 184.324,252.238 187.096,250.119C209.848,229.672 233.225,261.612 250.093,254.122C249.91,253.221 250.987,253.131 251.986,253.045C252.985,252.96 253.878,252.619 253.065,251.861L252.153,252C233.698,248.066 210.607,225.53 186.909,242.877C183.929,245.143 179.518,249.063 177.859,253.94C173.869,256.608 173.89,266.067 171.857,271.946C168.477,276.275 167.154,285.274 163.866,290.926C161.232,300.824 156.669,308.635 159.852,321.041C162.906,325.346 165.919,332.501 170.901,336.117C174.745,341.025 180.627,346.421 185.899,351.115C190.823,355.289 198.306,359.515 206.977,361.151Z" fill="#48468A"/>
<path d="M209.982,354.152C245.123,357.182 260.829,338.924 269.144,314.053C268.088,312.709 266.24,309.814 266.152,308.984C266.279,308.139 265.494,307.431 264.74,307.101C263.986,306.77 263.019,306.711 262.908,306.877L260,307L260,306L259.153,306C259.125,305.31 258.389,304.598 257.805,304.098C257.221,303.598 256.695,303.45 257.06,303.141L256,303L254,301L253,301L251.847,299C251.688,300.041 250.178,299.988 248.508,299.903C246.838,299.818 245.057,299.586 244.898,299.886C239.79,299.661 233.209,295.69 229.211,290.878C225.213,286.065 224,280.641 230.1,277.116C229.105,268.044 232.833,267.986 237.161,270.592C241.488,273.198 246.173,278.411 246.858,280.058C247.305,281.357 251.759,281.228 252.068,281.137C248.357,277.859 242.253,261.474 250.029,254.15C233.161,261.641 209.652,229.436 186.9,249.884C184.129,252.002 181.132,257.088 180.847,262.993C180.492,268.238 177.874,274.079 175.858,278.943C176.428,286.523 173.359,293.219 171.851,299.965C168.058,307.707 169.551,324.345 174.888,330.104C178.583,334.117 182.009,341.086 187.911,344.125C191.883,349.597 200.722,352.765 209.982,354.152ZM210.024,338.849L209.153,340C195.329,336.117 184.829,322.279 190.149,301.037C191.499,296.379 191.881,283.79 190.116,277.9C191.532,278.332 194.403,278.575 196.39,277.842C198.378,277.109 199.412,275.352 197.045,272.853C196.087,273.162 196.545,271.309 197.597,269.691C198.65,268.072 200.153,266.953 201.903,269.118C206.223,270.268 201.726,276.755 203.901,278.117C204.364,279.04 206.895,279.585 209.019,280.237C211.142,280.89 212.824,281.454 211.868,282.922C211.597,288.793 215.912,293.182 218.879,297.094C223.161,301.912 230.326,306.41 237.915,309.127C239.782,313.567 248.658,313.594 246.85,322.971C245.679,329.159 240.457,333.799 234.926,336.866C230.295,339.377 217.96,341.407 210.024,338.849Z" fill="#4A498A"/>
<path d="M307.934,353.138C309.255,353.741 310.348,353.336 310.849,352.752C311.349,352.167 311.38,351.125 311.059,350.858L311,349L309,349L308,348L306.153,348C301.501,344.741 296.081,340.585 293.112,336.896C291.086,335.5 288.753,332.429 289.027,330.151C285.688,340.34 299.026,348.738 307.934,353.138Z" fill="#3C3B80"/>
<path d="M313,352L314.153,352C330.04,321.33 273.176,311.131 308.083,289.129C310.721,287.331 313.962,289.264 317.03,292.15C319.039,283.261 308.778,284.76 306.072,281.865L303,282L303,281L299.153,281C297.732,280.779 295.847,280.689 294.473,280.9C293.099,281.111 291.938,281.574 291.855,281.95C294.188,282.602 293.832,284.369 292.943,286.223C292.053,288.078 290.626,290.107 290.852,291.039C269.197,320.385 315.627,320.151 310.855,348.952L311,351L313,352Z" fill="#2E2D6F"/>
<path d="M309,349L311.153,349C315.925,320.199 269.472,320.431 291.127,291.085C290.902,290.153 292.329,288.21 293.219,286.356C294.108,284.502 294.354,282.5 292.021,281.848L291,282L289.847,282C289.736,282.607 289.014,282.931 288.26,283.262C287.506,283.592 286.775,284.047 286.902,284.118C285.844,287.519 283.521,291.526 282.854,293.954C268.397,308.42 275.926,315.432 286.397,321.983C296.868,328.534 310.284,334.619 307.856,347.948L309,349Z" fill="#302F72"/>
<path d="M305.949,348.145L308.153,348C310.581,334.672 297.03,328.275 286.559,321.723C276.088,315.172 268.66,308.565 283.117,294.099C283.784,291.672 286.072,287.482 287.13,284.081L286,284L282,284L281.847,285C285.451,292.902 266.762,305.017 271.893,315.109L273.847,317C274.299,317.266 274.812,318.167 275.312,318.751C275.812,319.336 276.498,319.749 277.046,319.146C278.276,319.557 280.676,322.273 281.906,324.121C284.55,324.208 285.96,329.088 289.008,330.153C292.36,328.57 295.056,330.833 296.14,333.281C297.224,335.729 296.651,338.06 292.963,336.851C295.932,340.541 301.297,344.885 305.949,348.145Z" fill="#323174"/>
<path d="M208.979,340.152L209.847,339C217.782,341.559 230.442,339.646 235.074,337.134C240.604,334.067 245.98,329.217 247.15,323.028C248.959,313.652 239.998,313.359 238.13,308.92C230.542,306.202 223.397,301.717 219.116,296.9C216.149,292.987 211.882,288.879 212.153,283.008C213.108,281.54 211.232,280.597 209.109,279.945C206.985,279.292 204.592,278.841 204.13,277.918C201.954,276.556 206.393,270.014 202.072,268.865C200.322,266.699 198.393,267.905 197.341,269.524C196.289,271.142 196.009,273.458 196.967,273.15C199.334,275.648 198.272,276.821 196.284,277.554C194.297,278.288 191.366,278.287 189.95,277.855C191.715,283.745 191.204,296.299 189.853,300.958C184.534,322.199 195.154,336.269 208.979,340.152Z" fill="#4C4B8F"/>
<path d="M425.905,340.12L426.847,340C431.491,340.828 436.407,338.434 437.151,334.026C440.518,322.254 431.998,319.756 431.152,310.978C424.925,308.6 419.102,315.626 415.905,317.88C418.641,320.744 422.122,325.901 423.855,331.049C422.984,333.924 424.578,338.025 425.905,340.12Z" fill="#424285"/>
<path d="M292.928,337.135C296.616,338.344 297.504,335.605 296.42,333.157C295.336,330.709 292.258,328.296 288.905,329.88C288.632,332.158 290.902,335.739 292.928,337.135Z" fill="#353477"/>
<path d="M414.934,318.138L416.153,318C419.351,315.746 424.818,308.768 431.045,311.146C428.397,304.36 431.814,296.037 431.153,286.989C432.579,279.373 428.522,275.392 427.119,271.904L426.153,272C425.911,269.164 420.239,269.536 420.152,267.983L419,268L418,267L415.847,267C416.032,268.058 414.853,268.008 413.51,267.92C412.168,267.832 410.827,267.859 411.012,268.153C412.388,264.709 408.232,264.418 408.143,263.944C401.449,264.203 395.199,257.31 388.007,256.847C381.636,256.682 375.488,254.573 369.964,254.851C363.919,257.703 355.194,254.993 348.442,254.301C341.69,253.61 336.796,255.114 338.849,266.028C340.929,281.704 361.079,280.161 361.848,296.015L364.153,296C361.718,292.591 360.604,285.919 358.103,283.887C355.807,281.03 351.642,278.141 349.091,276.876C340.691,262.117 356.229,256.2 372.895,256.668C389.562,257.136 407.122,264.061 402.856,275.949C402.655,276.62 402.045,277.356 401.396,277.961C400.746,278.566 400.157,278.945 399.956,278.853C396.919,289.519 391.726,299.093 380.95,300.855C390.922,306.827 406.191,309.8 414.934,318.138Z" fill="#444584"/>
<path d="M270,315L272.153,315C267.023,304.908 285.718,292.799 282.113,284.897L280.847,285C277.172,294.351 271.027,302.214 265.873,308.914C265.961,309.744 267.862,312.785 268.918,314.129L270,315Z" fill="#343274"/>
<path d="M334.942,312.142C339.338,312.722 343.531,309.737 347.078,308.132C348.163,307.148 349.34,303.993 350.054,304.143C348.535,299.546 354.757,300.202 354.144,297.947C337.085,289.004 338.059,301.226 331.997,307.847C331.505,307.354 329.998,306.77 328.723,306.475C327.449,306.179 326.288,306.418 326.878,307.093C327.295,309.407 332.461,310.511 334.942,312.142Z" fill="#3C3D7D"/>
<path d="M266.037,308.851C271.19,302.151 277.446,294.446 281.12,285.095L277.847,285C270.814,290.314 265.986,298.803 262.9,306.884C263.983,306.519 264.759,307.221 265.259,307.805C265.759,308.389 266.121,308.823 266.037,308.851Z" fill="#363375"/>
<path d="M332.003,308.153C338.065,301.532 336.902,289.205 353.961,298.148L356.153,298C356.835,295.945 363.379,297.736 364.061,297.14L365,297L364,296L362,296L359,296L355.153,296C349.682,287.767 336.901,285.645 331.112,278.896C326.953,275.401 330.449,259.736 328.028,258.849L327,259L324.847,260C323.936,263.202 321.245,266.312 318.061,265.86C315.532,263.237 313.688,258.31 314.15,254.032L312,252L311.847,253C311.194,258.181 312.047,265.16 311.887,270.982C311.727,276.803 310.647,281.326 305.94,281.859C308.646,284.754 318.86,283.077 316.851,291.966C318.544,297.281 321.874,304.043 327.021,307.152C326.431,306.477 327.38,306.478 328.654,306.773C329.929,307.069 331.512,307.66 332.003,308.153Z" fill="#3F3F7A"/>
<path d="M346.921,307.869C351.116,308.789 356.732,307.274 360.535,304.781C364.338,302.288 366.404,298.797 363.997,296.847C363.315,297.442 356.555,295.86 355.872,297.915L355.847,299C355.346,301.577 353.559,304.74 351.027,303.849L350,305L350.153,304C349.439,303.849 348.006,306.885 346.921,307.869Z" fill="#2E2D6F"/>
<path d="M260,307L263.153,307C266.239,298.919 271.015,290.459 278.048,285.145C265.879,286.001 265.301,299.396 259.921,305.869L260,307Z" fill="#373576"/>
<path d="M258.94,305.859L260.153,306C265.533,299.527 265.836,286.009 278.005,285.153L281,285L282,285L282.153,284C261.489,278.054 259.396,291.949 256.851,302.966C256.878,303.656 257.611,304.402 258.195,304.902C258.779,305.402 259.305,305.55 258.94,305.859Z" fill="#393677"/>
<path d="M350,305L351.153,304C351.702,301.471 355.38,300.063 356.085,299.128L356,298L353.847,298C354.46,300.254 348.353,299.487 349.872,304.084L350,305Z" fill="#343475"/>
<path d="M350.854,303.953C353.386,304.844 355.565,301.716 356.066,299.138C355.361,300.074 351.403,301.424 350.854,303.953Z" fill="#303071"/>
<path d="M256,303L257.153,303C259.698,291.983 261.314,278.206 281.978,284.152L286.153,284C275.801,283.024 263.098,282.836 253.939,281.859C252.446,287.08 252.384,297.151 253.878,301.093L256,303Z" fill="#3C387A"/>
<path d="M253,301L254.153,301C252.659,297.058 252.639,287.297 254.133,282.076L251.847,281C251.538,281.09 247.573,281.212 247.126,279.913L243.847,280C244.091,280.583 245.376,284.297 245.956,287.997C246.537,291.697 246.542,295.231 243.976,295.849C247.159,296.087 251.257,297.729 251.887,299.103L253,301Z" fill="#3F3C7D"/>
<path d="M379.92,301.131L381.153,301C391.929,299.238 397.078,289.767 400.115,279.101C390.042,282.731 387.142,294.411 376.049,295.855C373.773,292.883 369.29,288.411 366.575,283.634C363.86,278.856 362.959,274.038 368.095,270.12C379.695,260.348 397.421,269.87 403.022,276.152C407.288,264.264 389.57,256.83 372.904,256.362C356.238,255.894 340.478,262.333 348.878,277.092C351.43,278.356 355.59,281.246 357.886,284.102C360.387,286.134 361.477,292.717 363.912,296.125L365.153,297C371.011,296.033 377.128,297.733 379.92,301.131Z" fill="#47477E"/>
<path d="M245.059,300.141C245.219,299.841 246.822,300.124 248.492,300.209C250.163,300.294 251.992,300.065 252.151,299.024C251.521,297.65 247.189,296.085 244.006,295.847L241,296L239,294L237,294L235,293L233.153,293C227.961,288.99 228.374,283.504 230.894,280.093C233.414,276.682 237.795,275.468 240.908,280.123L244,280L247.153,280C246.468,278.353 241.646,272.936 237.319,270.329C232.991,267.723 228.853,267.95 229.848,277.022C223.748,280.547 224.978,286.261 228.976,291.073C232.974,295.886 239.951,299.917 245.059,300.141Z" fill="#494783"/>
<path d="M241,296L244.153,296C246.719,295.382 246.839,291.649 246.259,287.95C245.678,284.25 244.362,280.484 244.117,279.902L240.847,280C234.082,282.839 241.976,290.842 238.932,293.863L241,296Z" fill="#434080"/>
<path d="M354.908,296.122L359.153,296C353.686,279.34 327.479,282.731 331.147,258.044L327.847,259C330.268,259.886 326.737,275.618 330.897,279.113C336.685,285.862 349.437,287.89 354.908,296.122Z" fill="#41417B"/>
<path d="M358.872,296.084L362.153,296C361.384,280.146 341.232,281.655 339.152,265.98C337.098,255.066 341.658,253.915 348.41,254.606C355.162,255.298 363.994,258 370.039,255.148C375.563,254.87 381.623,256.988 387.993,257.153C395.185,257.617 401.328,264.41 408.022,264.152C404.744,263.316 403.699,257.868 400.988,257.847C396.879,258.535 393.528,256.351 392.025,255.849L389.153,256C387.065,251.208 376.01,253.433 370.995,252.847C362.349,254.403 365.205,249.805 361.035,247.851L360.153,247C358.943,246.841 356.645,246.901 354.876,246.922C353.107,246.943 351.808,247.046 352.095,246.12C349.901,247.348 346.634,249.48 343.997,248.847C341.073,249.69 338.174,252.741 335.929,252.864C336.056,253.709 335.371,254.288 334.617,254.619C333.863,254.949 333.088,255.015 332.977,254.849C332.949,255.539 332.19,256.169 331.606,256.669C331.022,257.169 330.523,257.795 330.888,258.104C327.22,282.791 353.404,279.424 358.872,296.084Z" fill="#43437A"/>
<path d="M375.927,296.134C387.02,294.69 389.92,282.783 399.994,279.153C400.195,279.245 400.955,278.79 401.604,278.185C402.254,277.58 402.944,276.721 403.145,276.049C397.543,269.767 379.503,260.109 367.903,269.881C362.768,273.799 363.594,279.007 366.309,283.785C369.024,288.563 373.651,293.163 375.927,296.134Z" fill="#49497F"/>
<path d="M237,294L239.153,294C242.197,290.979 234.291,282.982 241.055,280.143C234.64,277.904 232.12,280.44 231.818,283.97C231.515,287.5 233.326,292.027 234.95,293.145L237,294Z" fill="#464484"/>
<path d="M232.945,293.143L235.153,293C233.529,291.882 231.821,287.526 232.123,283.996C232.425,280.466 234.624,277.91 241.039,280.148C237.926,275.494 233.168,276.5 230.648,279.911C228.128,283.322 227.753,289.133 232.945,293.143Z" fill="#484684"/>
<path d="M430.875,286.912C460.863,271.326 438.474,226.976 428.128,210.915C425.358,207.378 423.625,200.086 423.153,192.99C421.573,181.965 425.764,174.342 429.137,167.068C432.782,162.308 436.696,155.26 440.134,149.074C441.818,145.868 444.925,141.063 447.131,137.08C450.24,133.882 453.423,128.03 459.087,126.126C459.087,108.033 459.153,88.9618 459.153,72C450.983,73.112 444.071,77.0628 440.87,81.9189C438.187,88.6424 437.037,98.1686 439.861,104.063C440.628,112.399 439.069,119.827 436.864,123.929C433.514,131.906 429.098,140.067 426.853,147.957C424.023,154.067 420.336,160.701 417.862,165.934C396.584,209.777 449.191,237.189 426.869,271.92C428.272,275.408 432.301,279.296 430.875,286.912Z" fill="#262665"/>
<path d="M28.0043,286.153C39.9153,283.23 49.6651,282.696 66.0025,282.153L65,281C63.2544,281 59.2364,280.848 59.0184,280.848C52.2005,279.152 44.5642,279.693 39.1043,275.888C32.703,255.273 43.9068,238.853 59.2557,232.17C74.6046,225.488 93.8876,228.765 103.894,248.11L107.153,248C101.258,234.487 86.1554,225.893 71.5262,225.3C56.8971,224.707 42.4399,232.079 37.8515,249.962C36.9439,256.414 33.1699,262.627 29.8678,267.923C29.2152,270.147 25.5046,274.057 23.5639,277.703C21.6233,281.349 21.5892,284.962 28.0043,286.153Z" fill="#48488E"/>
<path d="M105.847,284C117.068,284.054 131.561,284.847 136.134,277.073C137.164,261.119 128.331,252.577 116.992,247.847C123.299,251.299 126.98,262.218 125.941,271.123C124.902,280.027 119.175,286.917 106.023,282.849L105.847,284Z" fill="#474680"/>
<path d="M285.993,284.153L287.153,284C287.55,283.679 288.399,283.479 289.144,283.139C289.889,282.8 290.437,282.181 290.06,281.859C287.992,281.859 283.62,281.858 283.056,281.858C288.633,274.61 289.986,263.256 286.726,255.097C283.466,246.939 275.445,241.996 262.91,247.876C261.408,250.834 256.736,252.558 252.942,251.858C253.125,252.759 252.013,252.869 251.014,252.955C250.015,253.04 249.082,253.354 249.895,254.112C242.12,261.436 248.227,277.862 251.938,281.14L253.847,282C263.005,282.977 275.64,283.177 285.993,284.153Z" fill="#4B4A7C"/>
<path d="M73.8724,283.085L78.1532,283C73.3023,278.911 66.9096,274.703 61.0492,272.855C55.2683,270.724 52.1685,264.643 52.1532,258C53.451,252.417 57.5914,248.28 62.0545,247.143C78.9011,237.646 93.1719,246.309 98.5669,257.553C103.962,268.797 100.425,282.326 80.9979,282.847C84.4537,282.847 91.2621,283.137 96.0679,283.137C96.2269,282.096 97.8216,282.012 99.492,282.097C101.162,282.182 102.974,282.375 103.133,282.075C110.353,273.164 109.256,253.596 101.034,247.851C98.4219,248.394 96.4991,245.934 95.0216,246.848C83.362,232.858 64.2992,236.336 53.6182,245.43C42.9371,254.524 40.6116,269.539 61.9954,278.153C63.308,277.713 63.7919,278.441 64.1495,279.338C64.5071,280.235 64.7855,281.295 65.0424,281.147L65.8468,282C66.5295,282.595 73.1903,281.03 73.8724,283.085Z" fill="#4D4D8B"/>
<path d="M77.9405,283.141L81.1532,283C100.58,282.479 104.238,268.664 98.8431,257.42C93.448,246.176 78.7869,237.362 61.9403,246.859C57.4771,247.996 53.1485,252.384 51.8507,257.966C51.866,264.609 55.1692,271.014 60.9501,273.145C66.8106,274.993 73.0896,279.052 77.9405,283.141ZM85.9306,277.863C86.2679,278.919 85.1798,279.012 84.0112,278.928C82.8427,278.843 81.629,278.868 81.9659,279.149C70.9219,275.793 56.5401,271.875 57.153,258.007C57.4571,252.13 62.9914,248.769 69.7461,247.61C76.5007,246.451 84.233,247.613 88.9102,251.124C92.0501,253.23 97.0532,256.237 95.8486,263.977C95.5001,270.286 93.378,277.399 85.9306,277.863Z" fill="#4F4E8B"/>
<path d="M95.8535,282.955C97.4943,282.955 102.899,283.152 105.978,283.152C119.129,287.22 125.207,280.062 126.246,271.158C127.285,262.254 123.384,251.319 117.077,247.868C114.454,246.162 114.435,250.899 110.984,249.848C115.808,252.621 118.649,262.225 117.931,270.265C117.213,278.305 112.908,284.786 102.954,281.854C102.795,282.154 101.178,281.876 99.5076,281.791C97.8372,281.706 96.0126,281.914 95.8535,282.955Z" fill="#494881"/>
<path d="M102.901,281.883C112.855,284.815 117.519,278.332 118.236,270.292C118.954,262.253 115.867,252.626 111.042,249.853L110,248L107,248L104,248L100.847,248C109.069,253.746 110.121,272.971 102.901,281.883Z" fill="#4B4A84"/>
<path d="M137.952,281.855C141.527,281.317 149.483,283.152 150.135,281.073C161.432,279.344 167.903,271.606 168.153,260.004C173.136,252.639 178.436,244.617 184.101,239.115C191.427,234.094 201.442,230.779 213.982,232.152C223.143,233.297 231.298,236.604 235.892,241.109C238.453,243.741 242.579,246.747 244.733,247.828C246.886,248.909 247.283,247.848 242.109,242.892C237.856,237.863 231.086,233.878 225.051,231.856C219.552,229.786 210.689,229.448 203.982,229.848C198.712,230.768 192.558,232.581 188.944,233.857C182.499,236.694 178.384,243.328 173.892,246.892C171.675,253.615 164.932,257.375 164.847,264.998C162.32,269.437 157.117,276.35 154.037,275.851C149.945,274.444 147.35,269.906 146.141,266.94C142.246,260.767 132.596,250.576 127.94,251.859C134.847,256.441 148.783,272.557 137.952,281.855Z" fill="#444381"/>
<path d="M282.917,281.872C283.48,281.872 287.932,282.153 290,282.153L291.153,282C294.417,271.899 297.006,260.031 296.152,246.982C291.259,246.377 282.163,247.99 280.097,245.881C275.074,243.519 264.559,245.003 262.937,247.86C275.472,241.98 283.181,247.053 286.442,255.211C289.702,263.369 288.493,274.624 282.917,281.872Z" fill="#494779"/>
<path d="M290.871,281.917L292.153,282C292.236,281.623 293.145,281.414 294.519,281.203C295.893,280.992 297.638,280.92 299.059,281.141C301.264,270.593 305.576,256.076 306.152,248.022C304.715,248.022 300.957,248.137 301.068,248.137C301.252,247.08 299.833,246.686 298.49,246.774C297.148,246.862 295.794,247.445 295.978,247.152C296.832,260.201 294.135,271.816 290.871,281.917Z" fill="#464577"/>
<path d="M303,282L306.153,282C310.86,281.467 312.033,276.812 312.193,270.99C312.353,265.169 311.413,258.319 312.066,253.138C307.645,261.065 311.186,277.895 302.973,280.849L303,282Z" fill="#404075"/>
<path d="M58.9811,281.152C59.1992,281.152 63.2173,281.149 64.9629,281.149C64.706,281.296 64.7917,280.121 64.434,279.224C64.0764,278.327 63.2873,277.409 61.9747,277.849L59.1532,278C37.5416,268.79 41.4086,252.501 53.2728,242.725C65.1371,232.949 84.7972,229.832 94.9517,247.145C96.4291,246.231 98.4041,248.696 101.016,248.152L104.153,248C94.1473,228.655 74.4823,225.207 59.1334,231.889C43.7845,238.572 32.4558,255.44 38.8572,276.055C44.3171,279.86 52.1632,279.456 58.9811,281.152Z" fill="#49498D"/>
<path d="M298.859,280.941L303.153,281C311.366,278.046 307.681,261.04 312.102,253.114L312.153,252C311.977,249.776 308.011,249.094 308.148,248.039L305.847,248C305.271,256.054 301.064,270.393 298.859,280.941Z" fill="#434176"/>
<path d="M81.9638,279.149C82.8367,279.304 84.1667,279.293 85.0814,279.124C85.9961,278.954 86.5991,278.339 86.0674,277.862C93.5148,277.398 95.8044,270.318 96.1529,264.008C97.3575,256.269 92.2275,252.98 89.0876,250.874C84.4103,247.363 76.4489,246.149 69.6943,247.308C62.9396,248.467 57.1511,252.115 56.847,257.992C56.2341,271.86 70.9198,275.792 81.9638,279.149Z" fill="#50508C"/>
<path d="M58.9681,278.15L62.1532,278C40.7694,269.386 43.1357,254.757 53.8168,245.663C64.4978,236.569 83.3517,233.162 95.0113,247.153C84.8568,229.839 64.9423,232.713 53.078,242.489C41.2138,252.265 37.3565,268.939 58.9681,278.15Z" fill="#4B4B8E"/>
<path d="M-0.153167,273C2.5142,273.299 7.22613,271.995 9.10754,270.109C18.4707,261.305 7.88695,247.861 -0.0555919,245.857C-0.0555919,254.798 -0.153167,265.292 -0.153167,273Z" fill="#39387C"/>
<path d="M425.849,272.026L427.153,272C449.475,237.269 396.86,209.91 418.138,166.067C420.613,160.833 424.31,154.173 427.14,148.063C429.384,140.172 433.79,132.038 437.141,124.06C439.345,119.958 440.92,112.321 440.152,103.985C437.329,98.0904 438.458,88.7829 441.141,82.0593C444.342,77.2032 450.906,73.2449 459.076,72.1329C459.076,59.4463 459.153,45.5103 459.153,34C446.755,33.2699 436.361,35.7858 428.951,38.855C421.536,40.7221 415.028,44.9688 410.893,48.8903C407.213,52.7789 401.524,56.2997 399.859,60.9413C395.963,64.6141 392.374,70.1677 390.854,74.9544C389.2,85.2062 399.726,85.0514 405.984,86.1523C412.967,86.3936 418.193,89.8249 420.879,93.0933C423.288,97.5637 424.504,104.727 423.848,110.984C423.091,117.795 419.164,122.905 416.87,126.918C411.066,132.782 407.927,142.599 407.847,152.999C393.51,198.168 427.853,234.945 419.851,267.964C419.938,269.518 425.607,269.19 425.849,272.026Z" fill="#292969"/>
<path d="M8.94618,269.857C14.7893,269.041 18.7063,263.617 23.109,260.108C16.2891,236.095 27.3704,221.387 45.0729,217.135C46.3434,215.327 48.5002,212.092 49.1298,211.081C52.7843,205.453 58.8317,200.712 57.1509,190.974C56.2136,185.715 54.5306,172.69 58.104,170.112C60.3106,165.095 65.9318,161.991 71.0421,161.147C75.8284,159.054 83.8036,158.569 88.988,158.153C98.0992,160.37 111.123,159.787 116.917,164.129C122.697,166.946 129.285,170.295 131.865,175.073C134.833,180.314 132.921,186.903 129.884,189.9C128.554,193.722 127.249,199.608 127.849,204.024C136.436,212.855 140.114,227.446 139.847,243.997C141.349,249.884 146.514,251.991 151.766,251.746C157.017,251.5 162.63,248.998 165.121,246.094C166.146,243.697 170.391,242.215 170.15,239.971C165.934,239.554 160.352,245.086 153.05,242.855C144.164,239.394 147.3,222.919 143.131,215.921C139.854,210.946 136.652,197.749 141.124,192.09C143.614,185.982 146.44,178.625 145.152,169.977C144.222,160.45 151.173,157.5 154.123,153.091C158.816,148.844 163.821,143.581 169.079,141.131C173.067,137.551 179.295,134.686 184.058,133.142C190.577,129.696 199.842,127.447 200.153,119.006C201.73,114.12 197.339,105.75 194.091,103.877C158.962,61.2421 226.459,53.5182 212.135,-0.0722095C141.551,-0.0722095 72.8462,-0.136996 -0.0684982,-0.136996C-0.0684982,12.2104 -0.153167,25.8329 -0.153167,37C10.6944,38.1603 18.2739,43.9117 23.8963,49.1127C28.582,53.3673 33.5471,58.6261 34.8501,65.0315C36.8083,69.6277 35.8437,78.8928 33.8979,80.8858C10.3888,95.7257 28.4766,139.997 -0.0780782,144.868C-0.0780782,156.196 -0.153167,168.865 -0.153167,179C7.55125,179.136 13.4699,175.867 19.0534,175.144C22.5906,172.422 29.6994,173.75 31.8887,176.105C45.6243,189.913 41.5558,199.406 32.0801,207.063C22.6044,214.719 7.7263,220.324 -0.106567,225.89C-0.106567,232.425 -0.153167,240.754 -0.153167,246C7.78938,248.004 18.3093,261.052 8.94618,269.857Z" fill="#3C3B7F"/>
<path d="M410.983,267.848C410.799,267.554 412.148,268.138 413.49,268.226C414.833,268.314 416.335,268.028 416.15,266.971C415.829,266.574 415.479,265.601 415.139,264.856C414.8,264.111 414.244,263.491 413.923,263.868L413,264L412,262L410,262L408.153,262C407.883,260.751 406.166,259.151 404.539,258.229C402.912,257.307 401.083,257 400.861,257.935C403.572,257.955 404.641,263.294 407.918,264.129C408.007,264.603 412.359,264.404 410.983,267.848Z" fill="#3B3B75"/>
<path d="M419,268L420.153,268C428.155,234.98 393.809,198.214 408.146,153.045C408.226,142.646 411.31,132.965 417.114,127.102C419.408,123.089 423.395,117.828 424.152,111.017C424.808,104.76 423.542,97.3941 421.133,92.9237C418.447,89.6553 412.999,86.0889 406.016,85.8477C399.758,84.7467 389.497,85.2767 391.151,75.0248C392.671,70.2381 396.219,64.7749 400.114,61.1021C401.779,56.4605 407.43,52.9954 411.11,49.1068C415.245,45.1853 421.632,41.0129 429.047,39.1457C436.457,36.0766 446.667,33.4084 459.065,34.1385C459.065,29.3328 459.153,22.4557 459.153,19C444.63,20.546 433.788,26.781 422.941,30.8586C413.171,35.4688 404.278,42.0363 396.903,47.8817C390.402,53.7282 385.22,62.0466 378.895,66.8884C375.218,73.8583 367.736,78.4278 366.848,86.9841C367.992,94.0951 373.797,98.2611 377.931,101.137C384.45,102.873 392.222,104.608 391.847,111.992C388.249,117.676 381.455,121.346 376.921,124.869C371.61,126.782 367.045,131.047 362.916,132.872C360.539,135.938 355.811,140.884 355.847,142.006C349.698,148.519 354.882,156.994 360.981,158.152C372.36,158.781 383.305,160.89 388.901,166.117C393.882,169.392 397.128,175.767 398.855,181.049C400.721,184.681 400.984,191.73 401.852,195.038C403.807,208.026 396.795,220.079 401.868,229.078C409.808,239.112 422.642,248.454 417.864,266.93L419,268Z" fill="#2C2C6D"/>
<path d="M151.931,267.137C165.884,265.146 167.769,248.99 177.013,241.153C168.296,246.478 163.709,256.659 154.018,259.848C148.369,256.214 139.622,254.388 136.082,249.871L133.847,250C137.307,257.019 146.698,260.702 151.931,267.137Z" fill="#42417E"/>
<path d="M416.102,267.114L418.153,267C422.931,248.525 410.063,238.942 402.123,228.908C397.049,219.909 404.106,207.965 402.151,194.977C401.284,191.669 401.004,184.564 399.137,180.932C397.41,175.65 394.072,169.151 389.091,165.877C383.495,160.65 372.397,158.477 361.018,157.848C354.919,156.69 349.971,148.608 356.12,142.095C356.084,140.973 360.729,136.176 363.107,133.11C367.236,131.285 371.758,127.05 377.069,125.137C381.603,121.614 388.534,117.761 392.132,112.077C392.507,104.693 384.58,102.595 378.06,100.859C373.927,97.9836 368.295,94.0867 367.151,86.9758C368.039,78.4194 375.452,74.0512 379.13,67.0812C385.455,62.2394 390.599,53.9621 397.1,48.1157C404.476,42.2703 413.291,35.7509 423.061,31.1407C433.908,27.0631 444.551,20.6799 459.074,19.1339C459.074,17.6975 458.847,13.889 458.847,14C443.46,16.7054 431.803,23.7674 419.935,28.8613C410.744,33.7119 401.812,39.9151 394.901,45.8833C388.477,51.1277 382.602,58.1373 377.885,63.8992C372.691,68.6708 366.873,74.1191 362.893,78.8907C355.622,82.9762 359.726,96.3039 362.882,100.098C366.614,104.621 374.01,106.806 372.849,114.977C370.32,119.329 364.199,121.602 361.89,124.893C356.955,126.838 353.134,131.509 349.905,133.88C343.384,140.046 337.688,148.155 331.904,153.881C325.945,156.863 319.172,160.313 310.998,159.847C304.251,160.404 298.114,158.672 294.043,157.853C290.882,156.555 285.874,155.122 283.047,154.854C277.736,151.329 271.617,151.775 267.827,154.246C264.036,156.717 262.403,161.45 265.877,166.092C272.793,175.403 285.859,183.965 279.867,201.924C284.944,202.691 289.967,205.645 291.992,208.153C295.561,204.497 298.008,197.954 301.112,195.105C311.354,173.659 327.87,182.241 335.941,196.282C344.011,210.323 343.522,229.566 318.999,229.847L319,232L319.847,233C323.146,235.199 326.247,239.668 328.947,241.144C344.083,243.68 352.01,235.362 353.963,224.877C355.916,214.393 352.006,201.455 344.059,194.859L343,194L342.153,193C339.215,185.878 345.492,180.99 349.079,179.131C363.415,168.117 378.444,170.36 387.591,179.121C396.739,187.882 399.805,202.934 389.879,217.906C392.881,220.102 389.379,224.529 388.892,224.891C386.608,241.421 422.179,239.28 413.867,263.924C414.474,264.036 414.931,264.986 415.262,265.74C415.592,266.494 416.03,267.241 416.102,267.114Z" fill="#2E2E6F"/>
<path d="M317.919,266.13C321.103,266.583 324.222,263.277 325.133,260.076L321,260L321.153,259C320.89,258.391 319.848,257.778 319.057,257.316C318.265,256.853 317.65,256.67 318.081,256.13L317.153,256C317.28,255.155 316.494,254.431 315.74,254.101C314.986,253.77 313.98,253.754 313.869,253.92C313.407,258.198 315.39,263.507 317.919,266.13Z" fill="#3E3D74"/>
<path d="M413,264L414.153,264C422.465,239.355 386.858,241.589 389.141,225.059C386.111,226.141 380.058,226.119 377.07,225.864C376.678,224.717 374.319,224.898 372.398,224.908C370.478,224.919 369.026,225.01 370.101,223.115L369.153,223C366.861,213.624 357.975,209.535 355.123,201.908L353.153,202C351.635,198.366 345.882,196.79 344.009,194.847C351.956,201.444 355.615,214.336 353.662,224.821C351.709,235.306 344.183,243.39 329.048,240.854C326.348,239.379 323.26,235.051 319.961,232.852C320.663,244.157 326.12,252.207 335.997,253.153C338.242,253.03 341.154,249.975 344.078,249.132C350.724,237.841 366.663,235.499 381.526,238.767C396.39,242.035 409.955,250.83 411.855,262.049L413,264Z" fill="#303171"/>
<path d="M407.859,262.061L410.153,262C407.29,241.987 366.441,241.51 351.917,245.872C351.63,246.797 353.11,247.249 354.88,247.228C356.649,247.207 358.809,246.993 360.018,247.152C369.189,243.489 381.108,250.453 392.981,249.152C394.607,249.769 395.952,251.372 396.282,252.701C396.613,254.031 395.973,254.784 393.024,253.849L391.847,256C393.35,256.502 396.967,258.82 401.077,258.133C401.298,257.198 402.761,257.574 404.388,258.496C406.015,259.417 407.589,260.812 407.859,262.061Z" fill="#343571"/>
<path d="M409.853,262.042L412.153,262C410.253,250.781 396.456,241.736 381.592,238.468C366.728,235.2 350.533,237.605 343.888,248.896C346.525,249.529 349.868,247.368 352.062,246.14C366.587,241.778 406.99,242.029 409.853,262.042Z" fill="#333370"/>
<path d="M22.9935,260.153C28.9121,244.041 32.5018,223.757 49.03,217.15L44.8468,217C27.1444,221.253 16.1736,236.14 22.9935,260.153Z" fill="#414085"/>
<path d="M153.979,260.152C163.67,256.963 168.328,246.472 177.045,241.146L178.153,239C174.485,238.069 171.852,240.482 169.948,239.856C170.189,242.101 165.884,243.545 164.859,245.941C165.307,247.851 163.449,250.643 160.253,252.722C157.058,254.801 152.701,256.076 148.034,254.851C143.433,253.953 140.759,249.213 135.935,249.861C139.475,254.378 148.33,256.518 153.979,260.152Z" fill="#403E7D"/>
<path d="M321,260L325,260L327,259C325.254,259 321.218,258.847 321,258.847L321,260Z" fill="#3B3A74"/>
<path d="M320.884,259.1C321.102,259.1 325.254,259.153 327,259.153L328,259L331.153,258C331.181,257.31 331.81,256.831 332.394,256.331C332.978,255.831 333.425,255.168 333.06,254.859C331.623,254.859 327.923,255.149 328.034,255.149C321.237,251.64 318.412,242.884 319.143,233.055C316.242,235.307 312.483,238.833 312.847,243.014C314.249,246.917 317.436,255.451 317.875,256.088C317.444,256.628 318.11,257.117 318.902,257.58C319.694,258.043 320.621,258.491 320.884,259.1Z" fill="#343473"/>
<path d="M316.975,255.849L318.153,256C317.714,255.363 314.53,246.819 313.128,242.915C309.8,242.666 307.64,246.169 307.848,248.017C307.71,249.073 311.673,249.8 311.849,252.024L314.153,254C315.236,253.635 315.759,254.221 316.259,254.805C316.759,255.389 317.058,255.821 316.975,255.849Z" fill="#373774"/>
<path d="M388.885,256.101L392,256L393,254L391,254L391.153,253C387.108,251.201 378.055,252.335 374.009,251.847L370.847,253C375.861,253.586 386.797,251.309 388.885,256.101Z" fill="#3C3D75"/>
<path d="M147.966,255.149C152.633,256.374 157.225,255.058 160.42,252.979C163.616,250.9 165.514,247.771 165.065,245.861C162.574,248.765 157.003,251.194 151.751,251.44C146.5,251.685 141.651,249.849 140.149,243.963C140.416,227.412 136.706,212.734 128.119,203.903C127.519,199.488 128.812,193.879 130.142,190.057C133.18,187.06 135.101,180.166 132.133,174.925C129.553,170.146 122.857,166.685 117.077,163.867C111.283,159.526 98.1235,160.064 89.0123,157.847C83.8279,158.263 75.7413,158.76 70.955,160.854C65.8447,161.697 60.0716,164.91 57.865,169.928C54.2917,172.505 55.9119,185.768 56.8492,191.027C58.53,200.765 52.6153,205.224 48.9607,210.852C53.7317,207.711 57.6182,202.226 60.1308,198.08C62.802,193.871 59.4503,182.024 62.1209,179.094C62.8739,173.312 68.0979,170.316 70.1211,167.094C77.1106,162.755 86.7964,160.104 97.9785,161.152C105.191,162.537 112.14,165.514 115.898,169.115C118.574,171.061 122.92,177.539 119.879,180.906C118.972,185.844 114.27,188.711 111.906,190.879C102.926,195.755 103.858,201.521 108.079,206.199C112.3,210.876 119.843,214.726 123.939,216.141C133.793,221.681 127.394,244.473 135.963,250.149C140.786,249.5 143.365,254.252 147.966,255.149Z" fill="#3F3C81"/>
<path d="M327.962,255.148C329.398,255.148 333.087,254.849 332.976,254.849C334.059,255.214 334.991,254.979 335.491,254.394C335.991,253.81 336.116,252.878 336.033,252.85C326.156,251.904 320.854,244.286 320.152,232.981L319,232L318.847,233C318.116,242.829 321.165,251.639 327.962,255.148Z" fill="#333271"/>
<path d="M391,254L392.847,254C395.796,254.935 396.91,253.957 396.58,252.627C396.249,251.298 394.654,249.467 393.029,248.85C386.839,248.85 378.944,248.857 374.054,248.857C370.813,245.148 365.526,248.92 360.985,247.848C365.154,249.802 362.367,254.708 371.014,253.153L374.153,252C377.002,251.365 382.823,250.856 387.222,250.808C391.622,250.761 394.406,251.027 390.961,252.852L391,254Z" fill="#383873"/>
<path d="M391.005,253.153C394.451,251.328 391.618,250.454 387.219,250.502C382.82,250.549 376.822,251.214 373.974,251.849C378.019,252.337 386.96,251.354 391.005,253.153Z" fill="#3A3A73"/>
<path d="M252,252L252.847,252C256.641,252.699 261.635,251.028 263.136,248.07C264.758,245.213 274.93,243.783 279.953,246.146C288.122,247.468 288.379,243.812 286.001,239.765C283.622,235.718 278.731,231.002 277.076,229.867C263.476,224.364 249.681,218.489 253.146,197.047L250,197L249.847,200C256.131,226.732 231.762,223.281 213.997,224.847C211.905,224.734 208.544,224.997 205.897,225.406C203.25,225.814 201.269,226.667 201.949,227.145C203.954,227.145 209.591,227.153 213.013,227.153C236.062,223.229 253.254,231.746 251.848,250.978L252,252Z" fill="#3F3C7F"/>
<path d="M250.868,251.079L252.153,251C253.559,231.768 236.034,222.924 212.985,226.848C232.148,227.353 246.091,235.072 250.868,251.079Z" fill="#413F81"/>
<path d="M131.924,250.133L134,250L136.153,250C127.585,244.324 133.919,221.402 124.065,215.861C119.969,214.447 112.528,210.671 108.307,205.994C104.086,201.316 103.104,196.004 112.084,191.128C114.449,188.959 119.243,185.969 120.15,181.031C123.191,177.664 118.771,170.826 116.095,168.88C112.337,165.279 105.235,162.234 98.0218,160.848C86.8396,159.801 76.8932,162.542 69.9037,166.881C67.8804,170.104 62.6015,173.195 61.8485,178.977C59.1779,181.907 62.5417,193.71 59.8704,197.918C57.3579,202.064 53.6727,207.742 48.9017,210.883C48.2721,211.894 46.1817,215.067 44.9112,216.875L49.1532,217C64.4629,197.033 80.4165,200.217 95.0625,210.864C109.708,221.511 122.818,239.753 131.924,250.133Z" fill="#423F84"/>
<path d="M373.924,249.133C378.814,249.133 386.802,249.153 392.992,249.153C381.119,250.454 369.141,243.187 359.97,246.85L360.847,248C365.388,249.072 370.682,245.424 373.924,249.133Z" fill="#363772"/>
<path d="M300.855,247.949C302.292,247.949 306.111,247.847 306,247.847L308.153,248C307.946,246.152 309.737,242.89 313.064,243.139C312.7,238.958 316.155,235.394 319.055,233.143L319,232L319,230L318.153,230C315.896,226.758 311.463,223.535 307.974,222.849C303.964,225.374 299.252,228.818 293.041,227.852C278.68,221.765 263.307,216.174 263.153,196.998L262,196C260.564,196 256.902,196.153 257.013,196.153C256.14,195.998 254.833,195.707 253.919,195.876C253.004,196.046 252.354,196.626 252.886,197.102C249.422,218.545 263.331,224.634 276.931,230.137C278.586,231.271 283.358,235.874 285.737,239.92C288.115,243.967 288.128,247.175 279.959,245.853C282.025,247.961 291.04,246.532 295.933,247.138C295.748,247.431 297.168,247.168 298.51,247.08C299.853,246.992 301.04,246.892 300.855,247.949Z" fill="#424083"/>
<path d="M457.949,246.144L459.153,246C459.153,212.652 459.153,180.551 459.153,146C420.142,162.573 427.967,225.015 457.949,246.144Z" fill="#20225E"/>
<path d="M152.949,243.144C160.252,245.375 165.752,239.734 169.969,240.15C171.873,240.776 174.37,238.217 178.038,239.148C183.118,233.404 189.988,227.101 202.042,227.147C201.362,226.669 203.297,226.117 205.944,225.709C208.591,225.3 211.973,225.026 214.066,225.138C214.076,219.067 230.825,221.466 234.096,217.119C243.505,215.541 243.722,203.619 250.041,200.148L249.847,197C232.076,222.94 184.951,220.25 157.997,235.847C150.34,231.836 150.757,218.788 147.136,211.93C143.829,204.165 146.025,194.531 149.133,189.075C152.097,183.441 153.647,174.897 155.148,169.039C157.767,162.718 161.881,156.602 166.102,153.115C170.26,148.675 176.06,144.518 182.047,143.146C187.047,140.921 193.832,138.856 198.068,137.137C203.941,133.386 209.972,128.25 211.151,121.025C212.277,112.675 207.529,108.458 205.124,104.909C201.834,101.663 198.258,97.0362 196.13,93.9184C184.707,51.7943 234.129,53.5729 220.136,-0.0708474C217.736,-0.0708474 212.852,-0.137919 211.933,-0.137919C226.258,53.4524 158.763,61.4739 193.892,104.108C197.14,105.981 201.431,114.068 199.854,118.954C199.543,127.395 190.458,129.414 183.938,132.86C179.176,134.403 172.898,137.297 168.909,140.876C163.651,143.326 158.584,148.645 153.891,152.892C150.941,157.301 143.918,160.487 144.848,170.015C146.136,178.663 143.35,185.83 140.86,191.938C136.388,197.598 139.594,211.109 142.872,216.083C147.041,223.081 144.063,239.683 152.949,243.144Z" fill="#39377B"/>
<path d="M158.003,236.153C184.957,220.556 232.32,223.063 250.09,197.124L253.153,197C252.816,195.945 253.82,195.988 254.989,196.072C256.157,196.157 257.396,196.14 257.059,195.859L257,195C255.564,195 251.927,195.148 252.038,195.148C242.986,189.82 228.536,188.901 233.116,171.101C230.241,172.339 226.447,174.643 223.934,174.862C222.647,176.996 217.214,177.149 215.927,177.866C218.203,179.072 216.528,180.46 213.862,181.482C211.196,182.504 207.636,183.143 206.024,182.849C197.73,181.781 195.057,173.105 196.731,165.691C198.405,158.278 204.445,152.425 214.043,157.147C214.263,156.333 215.747,156.246 217.075,156.153C218.403,156.06 219.625,155.692 219.093,154.878L215.153,155C212.764,154.534 210.539,151.831 209.528,148.87C208.517,145.909 208.667,142.807 211.101,141.116C213.283,137.454 215.507,132.045 218.106,130.11C220.655,122.642 221.842,117.859 219.14,111.938C217.756,106.787 213.19,103.08 211.12,99.9046C206.906,97.2384 203.355,92.2951 201.13,88.9196C199.88,85.0805 198.868,74.2903 202.077,73.1325C217.271,55.809 231.403,36.6538 226.147,-0.0421761C224.402,-0.0421761 220.151,-0.137878 219.933,-0.137878C233.927,53.5058 184.43,51.9189 195.853,94.043C197.981,97.1608 201.599,101.858 204.888,105.104C207.294,108.653 211.974,112.63 210.848,120.979C209.669,128.205 203.8,133.114 197.927,136.865C193.691,138.584 186.95,140.63 181.95,142.855C175.963,144.228 170.05,148.452 165.892,152.892C161.671,156.379 157.477,162.622 154.858,168.943C153.357,174.801 151.828,183.294 148.865,188.928C145.756,194.384 143.553,204.296 146.86,212.061C150.481,218.919 150.346,232.142 158.003,236.153Z" fill="#363479"/>
<path d="M317.911,230.124L319.153,230C343.676,229.719 344.276,210.17 336.206,196.129C328.136,182.088 311.107,173.481 300.866,194.927C297.761,197.776 295.456,204.24 291.887,207.896C296.274,213.816 306.098,215.719 307.858,223.057C311.347,223.743 315.654,226.883 317.911,230.124Z" fill="#2B2B6C"/>
<path d="M292.957,228.147C299.168,229.113 304.092,225.64 308.102,223.114C306.342,215.776 296.51,213.827 292.122,207.908C290.097,205.4 285.088,202.615 280.012,201.847L279.153,202C274.902,199.371 268.197,197.2 262.935,196.861C263.089,216.038 278.596,222.06 292.957,228.147Z" fill="#46458A"/>
<path d="M0.153167,226C7.98604,220.434 22.797,214.958 32.2727,207.301C41.7484,199.645 45.8451,189.701 32.1095,175.893C29.9202,173.538 22.4725,172.14 18.9353,174.861C13.3518,175.584 7.70576,178.983 0.00135228,178.847L0.153167,181C4.71575,179.373 13.0129,180.013 16.0385,178.148C39.2194,180.066 39.8133,190.826 32.3969,201.345C24.9805,211.864 9.51516,221.841 -4.97792e-05,221.847L0.153167,226Z" fill="#38387B"/>
<path d="M376.87,226.081C379.857,226.337 386.038,226.22 389.068,225.137C389.554,224.775 393.054,220.052 390.053,217.856L389,218L386.847,217C383.101,217.039 378.795,216.629 375.39,217.24C371.986,217.851 369.483,219.499 369.848,223.017C368.773,224.912 370.479,225.225 372.4,225.215C374.321,225.204 376.478,224.935 376.87,226.081Z" fill="#404184"/>
<path d="M213.847,224.999C231.611,223.433 256.396,226.627 250.112,199.896C243.793,203.367 243.342,215.284 233.933,216.862C230.662,221.209 213.858,218.928 213.847,224.999Z" fill="#3C3A7E"/>
<path d="M368.862,223.067L370.153,223C369.789,219.482 372.04,218.152 375.444,217.541C378.849,216.93 383.323,217.175 387.069,217.137C387.731,208.375 393.949,188.286 384.088,182.874C375.671,173.485 351.866,178.719 346.91,185.876L350,186L353.153,185C366.564,176.018 377.361,181.377 381.925,189.641C386.489,197.904 384.713,208.925 372.046,211.854C368.899,207.089 360.281,206.381 358.11,201.893L354.847,202C357.699,209.627 366.57,213.691 368.862,223.067Z" fill="#333375"/>
<path d="M-0.153167,222C9.36204,221.994 25.2308,212.041 32.6472,201.522C40.0636,191.002 39.1477,179.768 15.9668,177.85C12.9413,179.715 4.53569,179.222 -0.0268917,180.849L-0.153167,185C5.74477,185.106 12.8516,184.577 18.2396,185.335C23.6277,186.093 27.2974,188.126 26.8473,193.988C21.4628,204.673 11.2687,211.304 -0.086241,214.873C-0.086241,216.942 -0.153167,221.437 -0.153167,222Z" fill="#37367A"/>
<path d="M389,218L390.153,218C400.08,203.028 396.951,187.661 387.803,178.9C378.655,170.139 363.251,167.859 348.914,178.873C345.327,180.731 339.066,186.032 342.005,193.153C342.949,190.33 344.121,185.588 347.047,186.146C352.003,178.989 375.48,173.723 383.896,183.113C393.758,188.525 387.511,208.215 386.849,216.977L389,218Z" fill="#313173"/>
<path d="M-0.153167,215C11.2018,211.43 21.7537,204.751 27.1383,194.066C27.5883,188.204 23.6703,185.79 18.2823,185.032C12.8943,184.273 5.83042,184.969 -0.067517,184.863C-0.067517,194.828 -0.153167,206.248 -0.153167,215Z" fill="#353477"/>
<path d="M371.926,212.134C384.594,209.205 386.757,197.756 382.193,189.493C377.629,181.229 366.363,175.872 352.951,184.855L357.153,185C368.716,180.21 375.488,186.579 376.636,193.198C377.783,199.816 373.175,206.534 361.023,202.849L361,202L357.847,202C360.018,206.487 368.779,207.369 371.926,212.134Z" fill="#353577"/>
<path d="M360.847,203C372.999,206.685 378.085,199.764 376.937,193.145C375.79,186.527 368.552,180.058 356.989,184.847C365.94,182.588 371.715,187.669 372.933,192.805C374.151,197.941 370.834,203.132 361.01,201.847L360.847,203Z" fill="#373779"/>
<path d="M278.955,202.146L280.153,202C286.145,184.041 273.038,175.22 266.123,165.909C262.649,161.266 264.204,156.973 267.994,154.502C271.785,152.032 277.633,151.617 282.945,155.143C285.771,155.41 290.793,156.849 293.954,158.146C298.025,158.966 304.255,160.71 311.002,160.153C319.176,160.619 326.124,157.11 332.083,154.129C337.867,148.403 343.58,140.281 350.101,134.115C353.331,131.744 357.147,127.074 362.082,125.129C364.391,121.837 370.607,119.425 373.135,115.073C374.297,106.902 366.85,104.426 363.118,99.9024C359.962,96.1085 355.819,83.2097 363.09,79.1242C367.07,74.3526 372.913,68.8807 378.107,64.1091C382.825,58.3472 388.674,51.3623 395.098,46.1179C402.009,40.1497 410.876,33.9883 420.067,29.1377C431.935,24.0438 443.691,16.8369 459.078,14.1316C459.078,9.67237 459.153,3.09424 459.153,0C448.506,0 436.39,-0.143328 426.946,-0.143328C407.139,22.5689 373.497,36.7963 344.979,46.8483C316.434,44.8839 299.661,30.9342 301.152,0.014713C280.369,0.014713 258.6,-0.13704 238.932,-0.13704C238.056,15.3945 240.948,35.7563 235.862,45.9342C233.969,57.4066 225.979,63.8494 221.864,71.9297C215.826,82.3425 226.315,90.1297 233.983,91.1522C245.337,92.2 254.35,89.617 263.984,90.1523C271.395,91.3391 278.556,94.1918 283.959,96.1476C290.363,97.3126 299.188,97.6481 304.989,98.1528C311.208,98.4693 320.565,97.2774 323.946,99.1431C328.288,99.953 333.281,101.973 335.933,103.138C342.794,106.967 341.096,118.929 335.907,121.878C331.798,128.076 324.99,132.809 318.942,135.858C314.263,137.246 302.505,137.585 299.078,135.868C288.734,128.033 270.832,122.939 256.267,124.861C241.701,126.783 230.25,135.908 232.857,156.056C236.902,154.63 238.44,156.573 238.827,159.167C239.214,161.762 238.461,164.875 237.868,165.923C245.353,176.53 255.504,185.555 261.902,196.118L262.847,197C268.109,197.338 274.704,199.517 278.955,202.146Z" fill="#302F72"/>
<path d="M352.882,202.098L355,202L358,202L360.847,202C370.671,203.285 374.449,197.87 373.231,192.734C372.013,187.598 365.933,182.589 356.981,184.848L353,185L349.847,186C346.984,187.943 345.385,192.812 342.968,193.85L343.847,195C345.72,196.943 351.365,198.464 352.882,202.098Z" fill="#38387B"/>
<path d="M257,196C258.436,196 262.171,195.859 262.06,195.859C255.662,185.296 245.574,176.482 238.089,165.875L236.847,168C237.238,183.341 250.19,187.28 256.923,195.132L257,196Z" fill="#323174"/>
<path d="M251.957,195.147C253.393,195.147 257.165,194.857 257.054,194.857C250.322,187.005 237.544,183.331 237.153,167.99C235.468,168.373 233.935,171.271 232.954,170.854C228.374,188.655 242.905,189.818 251.957,195.147Z" fill="#343276"/>
<path d="M343.153,194C345.571,192.962 347.187,188.088 350.049,186.145L347.153,186C344.227,185.442 342.817,190.092 341.873,192.915L343.153,194Z" fill="#363678"/>
<path d="M205.977,183.151C207.589,183.446 211.306,182.79 213.972,181.768C216.638,180.746 218.285,179.053 216.008,177.847C213.33,178.936 208.415,179.843 206.064,179.861C204.006,175.029 203.048,169.782 203.915,165.531C204.781,161.281 207.412,158.319 213.002,158.153L214.153,157C204.555,152.278 198.106,158.21 196.432,165.624C194.758,173.037 197.683,182.084 205.977,183.151Z" fill="#39367B"/>
<path d="M205.884,180.1C208.235,180.083 213.386,179.227 216.065,178.139C217.352,177.422 222.811,177.252 224.098,175.118C222.352,175.118 218.234,174.848 218.016,174.848C211.104,173.387 211.774,160.896 213.109,158.108C207.519,158.274 204.481,161.22 203.615,165.47C202.748,169.721 203.827,175.268 205.884,180.1Z" fill="#424084"/>
<path d="M217.984,175.152C218.202,175.152 222.261,175.153 224.007,175.153C226.519,174.934 230.126,172.392 233,171.153C233.981,171.571 235.332,168.535 237.017,168.152L238.153,166C238.746,164.952 239.517,161.717 239.13,159.122C238.743,156.528 237.019,154.423 232.973,155.849L232.153,156C231.994,154.959 230.163,154.706 228.492,154.791C226.822,154.876 225.264,155.188 225.105,154.888C223.359,154.888 219.159,154.859 218.941,154.859C219.473,155.673 218.382,155.754 217.053,155.847C215.725,155.94 214.085,156.113 213.865,156.927L212.847,158C211.512,160.788 211.073,173.692 217.984,175.152Z" fill="#444387"/>
<path d="M231.854,156.045L233.153,156C230.546,135.853 241.741,127.087 256.307,125.165C270.872,123.243 288.572,128.293 298.916,136.128C302.343,137.845 314.376,137.531 319.055,136.143C325.103,133.093 332.008,128.295 336.118,122.098C341.307,119.149 342.931,106.692 336.07,102.864C333.418,101.699 328.392,99.6648 324.049,98.8549C320.669,96.9892 311.229,98.1637 305.011,97.8472C299.209,97.3425 290.442,97.0169 284.039,95.8519C278.636,93.8961 271.428,91.0345 264.016,89.8477C254.383,89.3124 245.372,91.8956 234.017,90.8478C226.349,89.8253 216.096,82.4888 222.133,72.076C226.248,63.9957 234.259,57.4984 236.151,46.0261C241.238,35.8481 238.277,15.5487 239.152,0.0171565C237.084,0.0171565 232.495,-0.136996 231.932,-0.136996C231.932,6.39819 231.847,14.7542 231.847,20C232.758,26.756 229.938,31.5809 230.849,37.0254C229.018,45.1603 225.606,52.8528 220.892,56.8913C217.268,62.8908 211.085,67.7713 208.856,73.9469C206.208,79.255 208.657,88.9052 211.914,90.1269C213.487,93.7058 218.114,96.0944 219.905,98.1199C252.513,108.557 213.821,135.906 224.867,155.076C225.026,155.376 226.838,155.182 228.508,155.097C230.178,155.012 231.694,155.004 231.854,156.045Z" fill="#323173"/>
<path d="M214.985,155.152L219,155C219.218,155 223.315,155.141 225.061,155.141C214.015,135.971 252.683,108.303 220.074,97.866C218.283,95.8405 213.703,93.4968 212.129,89.9179C208.872,88.6962 206.49,79.3752 209.138,74.067C211.367,67.8914 217.502,63.0862 221.126,57.0867C225.84,53.0482 229.319,45.1684 231.149,37.0335C230.238,31.5889 233.063,26.7356 232.152,19.9796C232.152,14.7338 232.153,6.53519 232.153,0C230.408,0 226.15,-0.137273 225.932,-0.137273C231.188,36.5587 217.096,55.5585 201.902,72.882C198.694,74.0398 199.605,85.211 200.855,89.0502C203.08,92.4257 206.69,97.4527 210.903,100.119C212.974,103.294 217.468,106.89 218.852,112.041C221.555,117.962 220.407,122.472 217.859,129.941C215.26,131.875 213.058,137.249 210.875,140.911C208.442,142.602 208.227,146.008 209.238,148.969C210.249,151.93 212.596,154.687 214.985,155.152Z" fill="#343376"/>
<path d="M-0.153167,145C28.4015,140.128 10.5819,95.963 34.091,81.1232C36.0368,79.1302 37.0998,69.5378 35.1416,64.9416C33.8386,58.5362 28.789,53.1415 24.1032,48.8869C18.4808,43.6858 10.7848,38.0206 -0.0627809,36.8603C-0.0627809,43.3955 -0.153167,51.7542 -0.153167,57C12.0301,58.0384 15.6569,67.4859 14.4238,77.0848C13.1907,86.6837 7.17032,96.3038 -0.0806641,97.8698C-0.0806641,113.602 -0.153167,130.415 -0.153167,145Z" fill="#39387B"/>
<path d="M-0.153167,98C7.09782,96.434 13.4945,86.7227 14.7276,77.1238C15.9607,67.5249 12.1194,57.8992 -0.0639168,56.8608C-0.0639168,70.5641 -0.153167,85.4622 -0.153167,98Z" fill="#38377A"/>
<path d="M345.02,47.1518C373.538,37.0998 407.269,22.8451 427.076,0.132876C421.924,0.132876 414.748,-0.137186 410.932,-0.137186C410.314,5.08889 405.982,8.35489 402.95,9.85538C375.511,14.9339 363.941,36.3327 332.015,35.8476C315.411,32.677 308.442,19.3766 309.153,0.0112158C306.753,0.0112158 301.85,-0.137028 300.932,-0.137028C299.44,30.7825 316.475,45.1874 345.02,47.1518Z" fill="#333377"/>
<path d="M331.984,36.1524C363.91,36.6375 375.608,15.2245 403.046,10.146C406.079,8.64547 410.531,5.26134 411.149,0.03527C402.551,0.03527 392.313,-0.145999 384.954,-0.145999C370.588,11.6427 357.165,24.9397 333.012,25.8473C321.286,23.5311 318.289,11.7113 317.15,-0.0291777C314.751,-0.0291777 309.85,-0.137015 308.932,-0.137015C308.221,19.2284 315.38,32.9818 331.984,36.1524Z" fill="#36357A"/>
<path d="M332.988,26.1527C357.14,25.2451 370.693,11.9304 385.058,0.141702C362.259,0.141702 338.625,-0.137124 316.932,-0.137124C318.071,11.6034 321.262,23.8365 332.988,26.1527Z" fill="#38377D"/>
</g>
<g>
    <rect x="0" y="0" width="458" height="480" style="opacity:0.2;" fill="black"></rect>
</g>
</svg>
