
<svg id="map__water" class="map__layer" xmlns:xlink="http://www.w3.org/1999/xlink" xmlns="http://www.w3.org/2000/svg" viewBox="0,0,1600,789" style="enable-background:new 0 0 1600 789;" version="1.1">

    <g id="circles_interact">
        <circle id="circle_0" data-id="circle_0" class="circle_interact" cx="160" cy="480" r="80" fill="cyan" opacity="0" />
      
      </g>
      <g id="circles">
        <circle id="circle_0_halo" class="circle_halo" stroke="white" data-id="circle_0" cx="160" cy="480" r="80" fill="white" opacity="0.5" />
       
      </g>

     
      <g id="water_display" data-test="#0014FF">
        <path fill="aqua" d="M47,789C47.3865,782.988 51.2454,770.082 49,761C46.6801,770.618 44.814,777.905 47,789ZM885,789C887.308,777.679 885.549,756.281 897,751C904.741,741.409 915.232,734.564 926,728C936.757,721.425 945.612,712.943 954,704C960.481,688.565 982.97,699.668 984,699C979.114,683.154 955.849,694.718 951,702C944.924,713.256 933.254,718.922 923,726C912.975,733.307 901.682,739.35 894,749C885.222,755.916 880.838,773.435 885,789ZM51,782C57.0787,776.302 56.1112,759.53 57,753C57.6953,741.518 60.4159,730.282 61,720C63.3419,710.165 65.289,698.155 67,689C68.1654,678.167 67.9046,665.903 71,657C71.1628,644.986 73.6824,633.548 75,624C75.439,612.262 80.8825,603.748 84,596C89.6192,588.39 85.5502,572.674 85,564C81.9588,553.178 85.3983,541.188 88,533C91.18,524.003 93.0366,511.903 96,504C100.676,496.499 102.997,484.863 112,483C115.351,479.173 112.286,472.764 118,462C116.087,448.088 128.342,448.341 134,442C143.776,439.599 148.287,430.153 148,419C144.067,406.717 165.1,413.098 169,406C175.288,400.111 178.166,389.032 186,386C187.462,378.251 193.27,361.535 184,376C187.565,387.661 172.943,390.04 171,398C171.328,407.107 148.682,409.34 150,404C156.602,398.425 162.894,390.76 166,383C168.918,373.92 173.172,366.171 178,359C183.189,350.718 180.437,335.794 175,331C169.753,321.382 176.482,308.151 177,300C179.905,290.728 181.342,278.208 184,270C186.1,260.101 189.269,251.268 192,242C194.782,232.604 197.388,221.254 202,215C205.245,206.068 207.85,194.716 210,186C211.11,174.932 216.937,166.803 216,155C211.829,154.962 211.451,172.663 208,179C205.191,188.368 203.805,200.939 201,209C196.067,216.066 193.829,225.831 191,235C188.733,244.91 184.267,254.401 182,263C180.465,273.464 176.963,281.964 176,293C173.539,302.716 170.144,313.278 170,324C170.542,334.672 181.121,341.094 177,352C173.673,360.85 168.508,369.642 165,377C161.834,385.833 157.371,393.373 151,399C143.192,404.355 144.998,418.562 144,427C142.562,437.739 129.833,438.967 124,444C112.658,444.835 116.706,462.84 113,470C110.032,482.691 98.1526,472.889 90,471C81.3845,467.438 73.0158,461.85 67,457C59.1314,452.691 52.5654,445.301 45,442C37.314,437.509 31.5517,429.314 24,426C11.7025,426.557 32.1625,436.034 35,439C41.9692,444.208 50.4719,449.662 57,454C63.5961,459.403 71.7297,463.271 78,469C85.6718,473.505 97.2493,475.885 103,481C100.667,490.665 94.7941,496.795 92,506C89.7543,515.931 86.0541,526.188 84,535C79.1072,541.883 81.0969,559.678 82,568C84.4854,578.705 85.1055,592.661 79,598C74.9511,605.95 72.315,615.316 71,626C69.4386,636.616 68.4582,649.592 66,658C51.8478,658.596 60.0754,638.045 62,633C61.5452,619.075 41.0365,629.63 43,637C40.1363,646.135 36.4096,654.411 32,662C37.1343,669.043 58.6168,661.517 64,667C63.9324,670.636 67.3445,697.263 57,689C48.7985,685.024 35.7399,684.126 26,683C11.6682,677.463 6.2428,682.882 24,685C33.7674,687.41 47.2876,687.846 55,691C67.9899,692.28 59.26,708.909 59,717C57.6361,727.813 54.6075,738.741 55,750C53.7636,760.762 52.6145,771.616 51,782ZM1002,777C1013.56,776.564 1017.82,768.814 1026,765C1034.22,761.221 1044.45,759.444 1048,751C1035.41,750.408 1027.89,754.894 1021,760C1013.18,764.175 1008.5,771.501 1002,777ZM1467,772C1482.06,776.91 1484.82,752.388 1474,766C1460.89,772.669 1468.43,750.409 1467,742C1468.34,728.484 1462.06,720.807 1457,715C1454.11,705.715 1442.14,703.725 1439,696C1430.59,692.235 1416.37,692.497 1406,692C1394.79,694.482 1381.24,692.228 1372,691C1366.12,684.707 1354.03,682.836 1349,677C1341.13,672.872 1335.81,666.189 1331,659C1326.16,651.662 1325.88,637.984 1322,631C1321.99,622.237 1312.01,608.358 1319,603C1329.96,601.784 1325.07,582.938 1327,574C1325.97,562.849 1316.28,558.587 1309,555C1301.22,551.827 1291.58,544.083 1282,547C1270.88,544.606 1258.67,548.207 1247,547C1236.35,549.07 1225.93,542.955 1219,540C1215.08,534.019 1205.98,524.793 1212,515C1216.59,508.048 1219.38,493.165 1214,486C1210.07,477.748 1204.27,469.596 1201,462C1197.96,452.865 1191.97,444.893 1189,437C1185.25,428.576 1177.82,422.049 1171,418C1162.77,414.054 1148.12,414.747 1141,411C1135.13,404.69 1119.31,406.554 1118,397C1114.72,388.099 1107.68,381.187 1103,375C1096.27,366.152 1103.77,356.359 1110,352C1119.03,348.854 1128.6,344.469 1127,332C1123.72,319.995 1127.87,308.331 1131,301C1134.14,291.962 1136.68,280.55 1137,270C1137.35,257.476 1133.01,247.858 1130,240C1123.63,234.196 1123.31,220.557 1119,214C1111.52,209.666 1097.68,212.745 1094,204C1089.5,197.28 1068.88,199.877 1064,203C1053.91,204.912 1045.91,208.916 1033,208C1022.97,205.855 1009.11,205.752 1007,197C1001.49,186.374 998.614,180.19 1011,180C1024.32,185.562 1029.55,172.415 1028,164C1032.06,149.701 1002.61,159.578 1015,144C1008.67,128.364 1032.82,140.484 1038,134C1037.6,118.589 1052.75,122.56 1057,130C1069.66,130.486 1074.48,121.345 1081,117C1088.06,112.062 1094.98,106.984 1103,103C1111.16,98.9828 1105.21,79.0789 1115,78C1124.6,75.4214 1138.7,75.57 1146,72C1153.34,69.1938 1178.64,67.2003 1154,67C1144.62,69.7937 1134.09,73.2224 1123,73C1112.98,76.448 1101.17,79.5978 1098,69C1093.59,62.4523 1084.1,54.5594 1073,59C1068.27,58.1905 1041.5,62.9548 1048,57C1053.75,51.4768 1052.58,35.128 1050,27C1051.01,18.025 1042.06,9.58551 1039,3C1026.57,-3.05701 1044.42,14.8287 1045,18C1048.42,24.3551 1047.68,40.0691 1047,49C1046.55,64.2653 1030.12,51.26 1028,55C1042.92,56.4998 1035.22,67.5064 1033,77C1030.95,91.225 1046.39,89.7412 1046,101C1045.38,112.56 1034.24,115.375 1037,129C1030.54,138.597 1016.42,130.227 1015,123C1009.63,116.197 1001.04,110.83 995,106C986.084,96.5777 975.165,105.909 974,114C969.09,134.024 979.864,110.192 981,106C992.067,102.902 998.945,113.41 1005,117C1012.47,124.601 1017.18,130.815 1012,135C1009.9,145.305 1005.32,159.568 1018,160C1032.89,157.335 1024.79,183.351 1014,177C1002.11,174.231 989.306,183.675 1002,191C996.693,199.974 986.197,188.088 986,180C982.596,171.227 979.251,160.615 974,155C972.849,143.974 960.58,142.286 950,142C941.167,143.09 924.679,149.114 921,140C914.781,133.949 921.178,156.286 909,141C925.938,137.718 902.125,135.117 894,135C880.435,136.388 870.033,132.833 860,132C854.432,131.288 827.105,128.923 837,133C848.472,133.705 861.42,134.714 870,137C877.104,137.842 906.359,136.697 891,141C883.73,145.907 874.145,150.279 868,155C859.796,158.973 850.624,163.758 842,166C833.585,169.762 821.923,172.057 815,176C799.736,185.67 823.936,175.264 828,174C837.35,171.173 848.398,168.264 855,164C863.791,160.792 871.239,156.238 879,152C885.631,146.454 896.828,143.694 904,140C911.307,144.469 918.674,152.908 924,155C929.36,164.857 918.752,173.825 914,178C907.369,183.546 904.147,194.281 901,202C904.675,209.111 908.636,187.108 913,185C915.434,175.257 930.309,176.175 930,165C940.827,163.65 934.796,143.662 947,145C958.583,147.008 968.702,143.35 970,156C976.769,161.408 979.425,172.709 983,180C983.183,191.594 994.713,195.869 993,205C994.135,215.159 999.927,183.505 1007,204C1014.71,209.686 1032,206.65 1019,219C1021.4,220.623 1027,203.69 1042,211C1052.3,209.121 1063.61,206.477 1072,204C1083.25,200.717 1095.32,206.034 1099,212C1105.52,217.478 1124.19,210.814 1120,227C1123.64,235.541 1127.94,245.195 1131,253C1134.38,264.114 1131.88,275.422 1131,286C1123.38,290.555 1122.9,304.035 1122,314C1121.02,325.198 1125.4,343.538 1116,345C1107.12,348.301 1098.37,353.505 1096,362C1089.57,372.923 1101.28,380.79 1105,386C1115.13,393.421 1113.32,404.952 1104,392C1099.63,384.368 1092.87,379.129 1087,373C1081.25,366.577 1071.98,361.883 1065,358C1058.87,351.949 1045.16,351.703 1034,352C1023.2,353.372 1009.13,353.265 1002,357C992.313,359.49 978.675,359.809 973,365C963.781,367.958 953.097,371.231 946,375C937.089,378.266 928.443,383.577 921,387C911.804,389.981 901.959,394.093 895,398C885.613,400.612 879.703,406.704 872,411C864.863,416.04 853.976,419.11 849,425C841.607,429.784 831.74,433.874 826,439C818.018,443.195 808.671,447.805 802,452C793.517,455.695 786.103,462.237 778,465C771.56,470.737 761.92,475.054 755,479C747.717,483.895 738.031,488.165 731,492C723.242,496.419 714.944,502.078 707,505C699.959,509.957 691.448,513.449 684,518C676.371,522.548 667.881,528.015 660,531C651.414,534.591 643.677,540.811 637,545C629.036,549.213 621.153,555.287 614,559C604.656,561.833 595.479,566.613 590,572C581.364,575.541 572.906,581.04 565,584C561.9,563.873 561.291,589.347 557,589C549.826,594.003 540.386,598.52 534,603C525.27,606.269 517.204,610.206 508,613C497.501,614.679 487.771,618.905 477,619C465.534,618.289 452.821,617.045 444,615C432.952,613.871 423.267,609.599 415,607C405.765,604.058 394.392,601.474 387,598C379.503,593.32 369.704,589.162 363,585C354.886,580.937 344.378,577.488 337,574C328.681,570.142 317.822,567.044 310,564C301.052,560.949 293.142,556.857 285,553C275.65,550.173 264.602,547.264 258,543C250.144,538.679 241.44,533.426 233,531C224.58,527.243 214.307,523.559 207,520C199.239,515.584 187.127,513.739 181,509C172.3,505.522 162.817,501.049 155,498C140.447,494.748 155.16,482.529 157,477C160.714,468.537 168.452,462.318 170,453C173.635,444.636 180.815,439.814 184,431C188.661,423.484 192.521,413.387 198,408C203.923,401.746 213.961,397.827 221,394C229.904,390.726 240.737,387.603 248,384C256.63,380.453 263.863,373.729 271,370C276.891,363.714 287.307,360.173 293,355C301.635,351.457 309.079,344.945 317,342C321.065,333.887 333.928,332.794 339,327C344.273,320.274 352.904,316.902 356,308C360.574,300.397 363.133,288.999 365,280C368.282,271.105 370.038,258.904 374,252C375.798,241.621 379.414,231.28 382,223C383.48,212.303 388.585,203.451 390,194C392.266,184.089 394.664,172.53 398,165C401.066,155.889 404.375,145.241 409,139C414.623,132.446 420.334,124.2 428,121C432.782,113.784 443.534,112.532 449,106C456.204,101.027 464.999,95.8655 472,92C478.877,86.6998 487.655,81.5207 492,75C498.828,69.6513 504.728,61.5941 508,54C513.13,46.9526 519.973,39.8394 525,34C528.791,25.6136 535.479,18.345 538,10C548.127,-6.35986 535.249,2.90863 533,12C529.134,20.3115 523.973,29.1068 519,35C513.78,41.7792 508.871,48.8726 503,55C499.134,63.3112 491.823,69.9567 487,76C481.065,82.2424 472.459,87.5925 465,91C457.762,95.9388 449.779,101.913 443,106C436.391,111.568 426.704,115.838 421,121C414.662,126.84 407.818,133.952 404,141C398.263,147.44 397.417,160.551 393,167C390.819,176.997 388.247,188.381 386,197C383.515,206.514 379.719,214.72 378,225C374.133,233.31 372.232,245.366 369,253C366.225,262.402 362.802,272.936 361,282C359.202,292.379 355.971,303.105 351,309C347.729,317.906 337.426,321.56 332,327C324.951,332.128 314.738,335.872 309,341C302.067,346.244 292.393,350.527 286,355C278.192,359.369 270.22,365.354 263,369C257.621,375.62 248.721,378.723 240,382C232.833,387.01 220.938,389.072 214,393C206.115,397.292 197.83,402.964 193,409C188.062,416.239 183.088,425.222 179,432C173.3,438.477 168.702,447.836 165,455C162.16,464.337 155.77,471.904 151,478C151.149,489.69 138.872,495.09 130,488C111.959,479.319 129.302,491.828 135,494C141.662,499.337 153.145,499.856 160,505C168.934,508.243 180.696,510.438 184,518C193.364,520.813 205.92,522.214 207,532C213.148,522.357 224.725,531.708 232,534C241.628,536.549 249.455,542.679 257,546C263.428,551.749 276.745,552.389 284,556C292.423,559.754 300.705,565.429 309,568C318.746,570.431 328.27,574.864 336,578C344.751,581.248 353.295,584.706 361,589C369.256,592.921 378.387,597.747 386,601C394.015,605.162 405.985,607.149 414,610C422.548,613.629 433.507,616.627 442,619C451.915,621.262 465.837,621.297 476,622C487.108,620.931 499.282,619.148 508,617C516.229,613.052 526.531,609.397 534,606C542.609,602.432 550.743,596.609 557,592C565.754,588.755 572.415,583.413 581,580C589.214,576.037 596.904,569.77 604,566C613.364,563.187 621.164,557.03 629,554C637.328,550.151 646.06,544.926 652,540C659.6,535.423 668.777,530.643 676,527C683.944,522.767 692.242,517.108 700,514C707.124,508.947 717.543,505.409 724,501C731.141,495.964 740.919,491.785 747,487C756.466,484.467 762.994,478.992 771,475C776.271,468.094 788.211,466.077 794,461C800.983,455.806 810.431,451.297 817,447C826.292,444.115 833.08,436.946 841,434C848.609,429.432 856.715,423.581 864,420C870.698,414.521 881.526,411.392 887,406C894.799,400.339 905.272,398.201 910,396C916.021,389.844 929.129,388.995 934,383C942.626,379.627 951.08,376.079 960,373C969.231,370.054 978.02,364.886 987,363C999.091,362.913 1006.77,356.634 1018,357C1031.88,357.707 1039.77,352.519 1047,355C1058.12,356.055 1065,363.135 1073,366C1080.52,370.656 1087.21,377.927 1093,383C1097.23,390.948 1105.28,396.856 1111,402C1116.53,408.646 1128.92,410.212 1136,414C1148.42,413.575 1152.88,421.117 1164,422C1177.09,421.082 1180.34,431.798 1185,438C1189.11,446.07 1193.93,455.2 1197,463C1201.34,470.841 1206.35,479.784 1210,487C1218.93,495.553 1209.37,505.855 1207,513C1203.72,524.853 1210.18,534.93 1214,541C1224.88,541.923 1228.73,556.057 1220,562C1211.11,565.291 1205.22,573.35 1200,579C1190.09,581.085 1180.07,583.07 1169,584C1147.27,588.994 1176.62,588.486 1182,586C1191.48,583.306 1205.8,583.662 1207,574C1214.28,569.1 1223.39,564.259 1227,557C1227.91,544.792 1246.6,553.032 1255,552C1265.73,549.364 1282.13,549.963 1283,559C1286.64,567.533 1293.51,574.621 1297,582C1302.49,588.689 1309.54,595.598 1310,606C1313.5,614.495 1313.52,626.48 1318,634C1321.22,642.958 1321.82,656.318 1325,664C1328.59,672.585 1337.82,677.31 1343,683C1349.43,688.747 1360.41,691.725 1368,695C1377.16,698.318 1391.35,698.292 1401,697C1412.23,694.347 1425.11,698.003 1431,702C1439.74,705.442 1450.9,708.235 1453,717C1459.73,722.445 1465.51,730.621 1464,743C1466.24,754.357 1456.49,766.857 1467,772ZM818,765C832.862,757.198 851.417,753.081 871,750C847.333,748.998 829.487,753.823 818,765ZM1288,762C1295.42,762.971 1286.19,748.034 1300,746C1304.97,739.467 1315.31,736.485 1319,730C1326.83,725.828 1328.2,715.202 1335,710C1346.71,698.156 1335.1,698.943 1331,709C1328.35,716.144 1314.03,716.194 1307,715C1304.66,726.85 1330.85,713.153 1318,725C1315.22,734.216 1304.88,735.877 1299,742C1294.76,746.833 1281.93,754.194 1288,762ZM49,757C53.4669,748.159 53.9037,730.372 54,721C51.1865,731.276 49.2109,748.497 49,757ZM679,745C692.594,745.929 698.654,739.319 710,738C718.12,733.943 729.857,731.723 739,730C748.383,727.206 759.297,724.163 768,722C775.638,717.461 787.575,715.441 793,710C782.119,711.785 774.305,716.64 764,719C754.406,721.583 744.318,725.452 736,728C724.436,728.613 714.094,732.228 707,736C696.663,737.84 686.715,741.849 679,745ZM1048,730C1060.31,725.645 1058.33,706.995 1066,698C1072.9,688.659 1077.05,675.036 1084,667C1090.28,656.614 1103.79,653.454 1107,640C1103.07,629.84 1094.82,614.035 1081,621C1069.69,622.083 1053.24,625.779 1047,635C1044.04,646.789 1060.21,653.848 1066,661C1076.77,669.327 1058.95,682.324 1059,694C1055.47,705.772 1049.1,720.189 1048,730ZM1234,727C1239.9,713.571 1248.85,703.186 1257,692C1263.38,679.813 1275.34,670.449 1281,660C1268.88,667.215 1261.91,679.575 1253,690C1247.79,702.964 1233.52,711.135 1234,727ZM1481,710C1486.69,699.174 1470.13,691.935 1456,693C1454.86,699.277 1481.1,696.838 1481,710ZM1221,708C1231.44,700.755 1229.35,686.22 1234,675C1240.58,666.008 1252.55,660.855 1258,652C1249.86,656.47 1237.59,662.456 1232,672C1225.88,681.443 1227.17,699.867 1221,708ZM1495,692C1501.92,691.53 1505.73,667.056 1498,668C1490.65,671.263 1485.99,687.921 1495,692ZM1195,672C1200.15,661.58 1213.62,657.921 1221,651C1229.71,644.381 1240.05,639.38 1247,631C1256.19,614.79 1269.36,627.956 1253,637C1238.75,650.908 1248.91,650.434 1257,637C1264.71,632.436 1267.71,609.445 1272,611C1261.97,616.301 1252.71,622.38 1244,629C1237.27,637.603 1227.25,642.917 1218,649C1211.09,657.423 1195.83,657.496 1195,672ZM982,669C995.96,669.861 990.237,651.735 983,651C970.07,654.182 975.584,664.913 982,669ZM62,661C61.4774,662.58 42.0998,662.295 36,661C43.2213,658.405 56.6171,657.178 62,661ZM119,649C128.315,641.291 106.256,632.843 102,642C98.0953,649.646 116.489,633.644 119,649ZM292,648C300.662,647.256 293.12,638.028 292,637C282.169,637.276 293.438,645.602 292,648ZM1074,648C1075.77,663.759 1060.13,655.766 1056,648C1048.78,637.047 1075.66,635.602 1074,648ZM779,647C789.443,636.779 799.198,625.863 807,613C812.519,598.955 825.941,588.864 842,589C851.544,600.121 858.512,613.823 866,627C883.581,650.652 875.966,634.677 867,619C861.46,605.875 847.328,593.942 846,582C858.634,574.336 873.49,567.574 885,560C888.754,543.09 913.51,547.175 927,540C940.726,533.428 961.404,532.488 973,525C987.536,520.87 1005.26,512.53 1022,516C1050.13,533.011 1029.63,500.722 1011,510C993.021,512.685 980.318,520.654 963,524C949.339,530.637 929.518,532.434 918,540C896.918,539.582 887.927,551.263 877,561C865.695,569.993 847.608,573.524 840,585C822.23,587.894 810.555,596.891 804,611C799.625,626.923 783.776,632.692 779,647ZM152,640C166.506,635.741 149.626,631.092 142,632C132.419,629.433 146.175,640.508 152,640ZM1099,638C1099.55,651.445 1084.27,656.123 1079,665C1070.79,677.979 1087.76,645.713 1077,641C1071.11,628.331 1043.64,638.126 1069,628C1084.43,624.632 1095.92,621.291 1099,638ZM1113,632C1123.34,628.316 1140.58,617.006 1137,610C1120.44,607.277 1102.64,619.886 1113,632ZM1123,590C1139.64,594.289 1143.86,578.479 1132,573C1125.25,566.89 1119.89,557.668 1109,557C1099.76,552.911 1090.35,548.986 1081,545C1071.55,541.593 1059.62,538.935 1055,532C1039.69,519.805 1045.2,535.65 1056,539C1066.06,541.801 1071.24,551.203 1077,557C1085.48,561.857 1095.69,564.978 1103,571C1104.44,582.412 1117.2,584.246 1123,590ZM1322,581C1329.98,599.994 1308.53,603.06 1307,588C1300.45,579.88 1294.34,571.323 1291,560C1275.21,545.756 1291.54,551.144 1302,557C1312.15,561.517 1323.85,564.48 1322,581ZM1128,577C1130,592.456 1111.17,577.618 1111,571C1103.13,565.338 1095.17,558.075 1085,556C1075.97,544.415 1099.26,560.251 1104,560C1114.82,562.717 1123.44,569.318 1128,577ZM770,464C772.821,454.194 766.773,441.37 766,430C763.245,418.756 762.205,405.794 759,395C757.971,382.03 747.67,378.329 734,378C722.743,375.258 711.47,372.529 700,370C701.189,375.796 719.483,376.374 729,379C738.782,383.217 752.798,383.204 756,394C758.431,405.567 760.151,417.851 763,429C765.09,440.908 767.034,452.967 770,464ZM194,372C213.083,374.418 214.783,359.448 230,358C242.004,372.241 254.231,355.055 258,346C270.857,342.192 279.911,334.576 290,328C302.831,324.587 324.361,328.352 330,319C332.181,304.516 349.278,304.943 352,291C349.101,277.609 352.59,261.895 356,249C359.032,233.367 352.317,220.141 352,205C353.499,190.255 351.946,170.937 359,163C364.06,151.395 360.843,131.508 368,122C374.679,112.014 380.512,101.177 385,89C391.803,79.1379 397.064,67.7291 401,55C405.002,39.0225 393.316,29.4665 383,26C372.73,19.6053 364.27,11.3948 354,5C336.987,-6.24451 361.481,16.8916 366,18C375,25.6647 387.482,29.8529 395,39C402.481,51.0311 392.79,67.7928 389,76C382.01,85.6753 378.288,98.6234 373,110C364.556,118.221 359.21,129.545 359,146C357.882,161.547 349.654,169.989 350,187C347.49,202.164 349.836,219.681 352,232C356.443,246.169 349.522,260.205 348,274C354.846,289.652 346.278,303.328 333,305C332.521,321.186 318.757,324.092 301,323C284.628,322.872 278.314,334.323 268,339C249.948,337.613 253.897,358.232 239,360C223.419,357.336 221.639,354.799 224,333C217.541,322.435 225.389,302.154 213,296C211.343,281.412 209.912,265.079 204,256C198.905,228.179 199.536,267.001 207,271C206.992,287.253 209.088,302.921 218,309C214.853,323.386 225.643,336.576 220,351C219.748,365.784 201.482,368.554 194,372ZM215,355C217.962,346.181 215.357,327.731 213,320C213.293,306.375 207.442,298.89 205,288C201.221,278.245 200.459,263.786 197,255C195.481,266.299 199.194,278.426 202,288C205.007,298.528 209.981,308.774 211,320C205.754,323.209 199.898,307.304 190,307C184.18,311 206.241,315.827 205,325C216.663,326.669 211.719,344.949 215,355ZM174,218C174.088,205.742 154.512,200.893 144,194C130.764,188.288 118.817,179.905 104,177C111.267,182.628 128.28,188.921 140,195C152.297,201.651 166.188,208.09 174,218ZM1066,122C1068.08,130.486 1050.69,125.219 1046,120C1039.43,114.114 1056.28,104.093 1048,94C1040.78,87.9701 1033.38,82.4125 1039,69C1041.46,58.9848 1060.4,63.757 1068,63C1079.89,59.2101 1090.78,61.2257 1095,70C1098.73,77.5621 1110.89,82.4924 1104,95C1100.69,104.358 1087.87,104.206 1083,112C1079.49,121.547 1055.84,112.473 1066,122ZM1090,118C1092.55,115.753 1099.61,113.442 1098,110C1095.6,109.436 1090.92,114.118 1090,118ZM486,27C488.532,11.3393 476.362,-6.29071 468,1C458.129,10.0433 491.663,3.63208 486,27Z" />
    </g>
   
    <g id="circles_centres_outer">
        <circle data-id="circle_0" class="circle_centre_outer" id="circle_0_centre" cx="160" cy="480" r="60" fill="orange" opacity="0.2" />
      </g>
      <g id="circles_centres">
        
        <circle class="circle_centre" data-id="circle_0" id="circle_0_centre2" cx="160" cy="480" r="20" fill="#FFEA00" opacity="0.8" />
      </g>
    
    <g id="water_halo">
        <path d="M43.6029,788.97C48.7551,788.97 56.3616,789.356 60.1778,789.356C59.2896,775.357 65.4108,761.819 62.3862,749.903C61.2427,737.092 64.0589,727.335 67.3641,720.161C69.0442,711.535 73.4508,704.111 72.3959,693.958C76.0514,683.371 60.9202,682.2 67.2997,676.262C68.1583,669.209 72.9625,664.252 73.3972,658.028C74.2947,652.39 77.1532,647.021 77.3977,642.02C80.1611,634.818 83.3044,626.8 85.3789,620.122C89.0628,613.159 92.2716,604.521 95.3616,598.167C95.8,590.35 99.0119,583.592 98.3969,575.968C98.7214,547.863 96.1687,504.901 120.191,500.349C121.243,498.324 127.936,499.986 128.989,499.398C195.584,541.751 276.2,567.694 354.823,601.357C361.867,605.64 370.853,609.299 378.902,611.386C386.049,613.178 394.325,615.26 400.906,616.387C406.362,618.156 414.675,618.675 418.915,620.389C425.596,620.588 432.049,622.617 436.885,623.381C441.043,625.413 446.062,628.176 449.79,629.338C451.791,633.182 459.662,633.099 462.907,634.387C533.051,639.816 558.688,594.227 607.156,575.366C679.656,540.577 755.393,511.164 814.203,459.343C821.453,457.652 825.964,451.84 831.185,449.353C880.9,419.342 933.983,391.872 996.08,375.39C1003.02,374.416 1010.99,373.023 1017.02,372.398C1024.33,372.48 1031.1,370.497 1037.96,371.396C1047.08,372.239 1057.94,372.321 1062.72,376.287C1083.28,408.476 1120.62,425.014 1155.87,441.376C1164.66,443.237 1170.85,448.768 1175.75,453.312C1179.96,455.64 1180.13,463.563 1182.69,466.25C1183.55,470.884 1186.01,475.735 1187.68,478.236C1207.89,496.896 1182.59,545.284 1212.76,559.314C1213.52,565.772 1205.9,569.862 1201.78,572.669C1198.24,574.972 1192.56,576.672 1188.96,577.604C1184.55,577.305 1181.03,579.9 1178,579.602C1174.99,579.886 1167.45,581.88 1163.15,584.157C1158.85,586.435 1157.79,589.793 1167,591.398C1182.78,588.753 1201.27,587.565 1210.28,579.279C1213.68,574.418 1219.77,570.761 1223.29,567.272C1226.53,562.746 1230.31,563.878 1235.95,564.395C1248.71,566.376 1262.11,563.55 1271.89,561.382C1280.41,572.294 1288.32,584.182 1294.64,596.177C1288.98,651.831 1326.84,664.005 1344.65,696.19C1360.72,731.647 1428.68,689.701 1446.67,723.225C1451.02,725.758 1455.37,730.023 1457.72,733.279C1471.85,739.017 1448.79,752.39 1457.66,766.202C1458.09,774.725 1464.57,778.848 1470.9,778.931C1477.24,779.014 1484.16,774.931 1485.39,768.076C1487.18,765.509 1490.04,758.388 1487.26,755.701C1481.64,751.838 1473.43,759.198 1472.24,758.682C1471.01,749.669 1471.56,734.105 1470.39,728.913C1467.05,709.14 1492.26,729.933 1489.39,709.943C1481.04,675.086 1444.48,703.219 1425.24,681.684C1409.47,677.186 1390.95,681.911 1374.08,680.611C1364.18,676.81 1361.06,665.479 1354.28,659.718C1345.06,643.296 1316.49,628.058 1331.35,600.196C1348.03,579.228 1331.85,554.553 1314.16,549.636C1300.5,539.827 1283.12,532.905 1263.05,530.605C1254.49,529.333 1242.5,530.221 1233.87,528.23C1225.25,526.239 1220.31,521.909 1225.37,509.146C1230.68,493.501 1226.03,474.473 1217.23,468.676C1209.76,462.443 1206.01,451.863 1204.39,440.939C1200.31,433.018 1195.87,423.808 1188.2,420.657C1182.19,414.657 1173.98,409.526 1165.07,407.608C1154.93,406.087 1148.06,400.221 1137.17,400.639C1135.16,393.364 1125.66,392.363 1122.27,387.704C1115.72,385.992 1111.93,380.085 1108.29,376.722C1106.08,373.441 1108.56,371.519 1111.87,369.201C1115.19,366.883 1119.43,364.594 1120.37,362.147C1123.6,356.434 1128.22,350.707 1130.37,345.148C1133.14,340.349 1134.93,332.867 1135.4,327.032C1134.18,314.83 1136.27,304.862 1139.36,298.166C1141.72,292.761 1144.53,281.758 1142.38,275.866C1143.77,266.562 1139.44,261.395 1137.36,256.823C1135.01,254.017 1132.99,248.933 1131.33,246.776C1130.64,232.718 1137.76,216.054 1127.12,209.621C1110.96,209.036 1105.39,196.875 1093.05,193.605C1089.63,193.605 1083.99,193.602 1081.99,193.602C1074.17,194.041 1066,195.491 1061.12,197.622C1061.07,192.522 1059.1,187.16 1052.76,189.679C1052.63,199.819 1042.1,208.493 1032.22,204.671C1030.12,200.042 1023.32,201.385 1017.7,202.121C1012.09,202.857 1007.83,203.401 1009.39,196.085C1003.81,180.126 1025.03,186.889 1028.37,178.15C1032.11,172.854 1039.21,164.576 1036.37,156.859C1034.56,153.395 1031.32,151.144 1030.06,149.562C1028.8,147.981 1029.25,147.595 1035.1,146.384C1039.75,144.753 1048.41,145.628 1056.11,145.216C1063.82,144.805 1070.87,142.755 1071.4,136.032C1074.4,126.004 1088.52,126.612 1097.13,123.375C1104.83,120.76 1109.34,113.259 1112.36,107.176C1115.6,100.454 1116.31,90.3259 1124.12,89.3796C1132.03,84.7165 1141.74,88.3973 1151.1,86.3848C1158.36,84.0223 1166.55,81.2461 1174.1,80.3861C1179.91,77.9392 1183.08,70.9045 1185.36,66.174C1187.56,61.9793 1186.25,58.3596 1183.61,56.4724C1180.97,54.5852 1176.54,53.8706 1172.9,54.614C1166.33,56.6422 1157.85,58.2398 1151.87,59.6224C1146.96,61.9364 1139.51,63.31 1135.87,65.624C1126.07,66.1284 1116.32,68.2272 1111.71,72.7228C1108.52,76.6507 1106.27,75.4932 1103.79,73.0611C1101.3,70.6291 1099.13,66.8974 1097.26,65.6977C1095.26,61.5073 1090.21,58.7149 1088.3,55.7385C1084.96,54.2767 1080.7,51.3191 1076.96,51.6041C1052.7,54.9302 1050.5,55.1155 1056.39,33.1011C1056.49,18.42 1042.48,12.6991 1044.38,0.114973C1038.19,0.114973 1029.71,-0.3562 1024.82,-0.3562C1024.14,15.0415 1032.12,23.1039 1035.63,33.1517C1037.54,34.8195 1037.51,40.0856 1036.39,44.3034C1035.28,48.5211 1033.74,51.254 1031.28,47.7153C1028.74,46.9267 1026.01,48.633 1025.81,48.6502C1025.21,59.0002 1016.76,78.0479 1028.78,88.3319C1034.49,90.5121 1036.13,99.5782 1034.74,108.264C1033.34,116.949 1029.23,124.538 1022.1,123.615C1012.12,119.291 1009.53,102.761 998.196,98.6536C994.141,94.3838 971.574,92.2287 965.755,98.6865C956.876,101.535 959.305,120.737 963.691,125.251C963.986,129.177 966.879,133.26 969.946,135.023C973.014,136.786 976.948,136.086 978.383,131.108C979.241,119.519 984.738,118.753 991.765,125.321C1001.88,129.545 1002.52,135.714 997.645,144.82C999.072,152.675 1002.47,160.756 1007.9,163.385C1012.66,163.526 1016.68,164.035 1018.31,165.027C1019.93,166.02 1019.18,166.72 1013.92,168.611C1008.1,168.984 1002.34,171.264 998.831,172.64C995.818,174.433 992.616,178.303 991.657,180.799C990.045,181.287 987.541,181.034 985.311,179.989C983.081,178.945 981.832,177.472 983.364,174.161C983.765,167.57 983.26,159.936 982.389,155.916C981.08,148.285 975.804,142.926 972.292,138.73C968.26,135.537 961.056,133.593 955.085,133.611C949.749,131.009 940.243,133.561 935.919,133.61C932.346,135.189 928.294,138.013 925.074,138.609C904.256,124.768 863.455,129.692 839.073,120.609C835.995,120.609 830.478,120.636 828.838,120.636C822.59,133.002 831.755,137.58 842.356,139.651C852.958,141.722 864.76,141.634 864.602,146.986C853.473,157.313 837.518,162.733 819.046,164.604C808.171,160.805 799.601,168.387 796.869,175.75C794.138,183.113 797.366,191.012 808.168,187.361C819.58,179.671 839.171,179.338 851.171,173.36C863.02,168.128 866.586,153.767 881.137,152.374C887.063,147.507 897.38,147.593 901.872,152.377C904.664,151.614 908.889,151.057 911.52,151.461C914.151,151.865 915.014,152.593 911.698,155.74C912.942,167.765 899.662,170.886 895.646,178.818C891.708,185.552 890.187,199.112 894.667,205.218C894.831,210.705 898.462,214.125 901.98,214.751C905.497,215.377 909.629,213.052 910.394,208.06C912.091,198.43 920.003,194.043 924.325,188.23C927.772,181.711 932.841,175.223 933.397,167.028C936.114,161.148 944.683,160.245 950.161,158.364C955.985,154.871 962.531,151.916 964.618,160.113C968.808,164.227 965.509,175.656 965.602,180.009C966.408,186.082 968.753,192.617 971.704,195.266C973.24,205.059 994.665,195.723 991.612,208.911C991.256,213.268 994.175,216.409 996.815,216.9C999.456,217.391 1002.6,215.301 1002.4,210.98C1003.8,208.512 1004.75,209.549 1006.22,211.035C1007.68,212.521 1009.05,214.813 1009.79,215.337C1014.78,217.872 1007.2,222.738 1009.65,227.183C1011.61,238.382 1016.46,239.871 1020.75,237.239C1025.03,234.606 1029.46,227.815 1031.37,223.147C1032.56,217.737 1038.22,217.514 1045.21,218.13C1052.19,218.747 1060.33,220.402 1065.2,219.347C1066.25,217.321 1073.07,218.965 1074.13,218.378C1085.94,217.214 1095.88,218.721 1100.74,223.304C1103.07,224.821 1108.98,224.597 1113.25,225.186C1117.52,225.775 1120.07,226.663 1116.66,231.79C1114.49,238.761 1115.67,250.569 1118.68,254.234C1120.12,260.363 1123.77,265.699 1125.63,270.148C1126.47,282.66 1120.54,289.27 1117.63,296.845C1113.82,301.291 1111.57,308.961 1111.6,316.002C1110.4,320.99 1110.34,328.472 1107.71,330.728C1106.85,334.326 1102.5,336.615 1101.63,338.846C1081.2,365.174 1071.67,324.622 1036.79,335.662C1035.74,337.688 1028.92,336.038 1027.86,336.626C996.229,341.318 962.579,342.884 938.823,356.643C917.035,365.03 898.95,377.725 880.793,388.66C865.074,398.425 846.06,405.593 830.761,414.681C820.115,427.841 799.365,431.655 787.722,442.715C783.196,447.523 781.407,448.003 780.089,446.008C778.771,444.014 778.599,439.813 778.398,434.983C777.708,423.325 776.501,410.963 774.388,401.91C771.363,388.19 763.432,377.961 753.155,372.633C742.91,369.513 730.797,367.051 719.047,366.605C705.883,363.894 700.38,368.319 700.767,372.87C701.154,377.421 707.293,382.88 715.91,382.388C726.506,388.873 744.289,388.406 745.603,403.036C746.668,416.689 749.557,429.615 752.619,440.115C760.03,455.191 751.35,465.551 740.881,467.62C730.61,472.406 720.486,478.46 711.787,483.664C704.739,488.624 697.191,494.251 690.782,498.667C683.649,502.861 675.902,507.566 668.838,510.636C661.096,514.223 653.178,518.879 645.813,521.649C640.423,526.225 631.775,528.886 626.796,532.658C620.536,534.996 614.905,539.462 610.764,542.679C605.785,545.955 599.505,549.422 595.758,552.684C557.193,574.893 532.07,610.967 477.053,615.605C445.261,603.686 412.455,591.866 378.141,583.628C351.188,567.876 316.354,558.979 287.156,546.634C263.401,536.392 232.957,532.841 211.164,520.637C190.006,513.966 171.268,504.407 153.247,495.687C156.479,477.68 171.867,460.901 182.315,446.243C197.078,432.171 217.655,423.361 229.302,407.259C246.409,395.866 265.964,386.501 283.213,376.337C296.335,366.995 311.865,359.377 325.193,351.348C337.423,345.486 348.349,337.208 355.328,327.226C360.884,318.402 365.3,307.388 370.34,299.207C374.391,291.93 377.959,282.834 380.38,275.12C382.778,268.236 384.08,258.709 383.397,249.969C382.801,239.408 383.833,229.216 384.397,221.028C385.982,211.624 388.836,202.253 389.397,193.024C389.168,183.512 392.059,175.919 394.362,170.166C398.042,166.621 397.201,157.119 400.299,154.263C400.694,145.717 407.414,142.141 411.272,138.291C463.849,97.0722 533.024,73.9424 555.341,0.206181C548.805,0.206181 540.069,-0.356511 534.823,-0.356511C533.059,16.646 521.634,25.0824 514.678,35.7655C506.477,42.9589 498.294,50.9662 489.763,56.6797C483.101,62.7036 475.738,69.1333 468.769,73.6754C463.357,78.2288 457.398,83.5128 451.793,86.6599C446.729,90.1935 442.207,95.6814 436.814,97.648C431.813,101.929 425.095,105.909 419.791,108.661C414.712,112.865 408.05,116.953 403.739,120.699C365.067,153.976 376.502,235.95 353.044,285.604C352.886,272.082 357.057,261.81 355.395,247.952C353.166,237.012 354.313,220.802 358.345,214.198C362.002,201.166 356.819,188.951 357.398,177.02C359.622,167.236 362.599,157.256 366.352,150.186C369.441,143.993 372.555,136.346 374.381,130.116C376.779,125.29 378.49,118.245 380.363,114.164C383.211,106.706 386.07,98.1228 390.304,93.2575C393.589,88.975 396.577,82.9033 400.271,80.2914C401.886,75.7163 404.824,70.5131 406.363,67.1625C419.144,23.8702 368.026,23.565 354.261,-0.300858C350.494,-0.300858 344.207,-0.364142 341.839,-0.364142C354.109,22.9043 373.075,37.5359 389.696,55.2566C388.423,57.7997 388.499,64.3614 385.711,66.7257C384.428,71.0429 380.518,75.8674 378.628,80.8575C377.114,84.2331 374.136,89.1993 372.622,93.8749C370.225,99.1864 367.817,107.131 365.622,113.876C364.208,117.708 362.72,124.381 360.638,128.835C358.821,134.377 354.975,140.605 352.629,146.856C349.218,153.236 346.835,163.191 345.605,172.949C341.604,184.158 350.677,194.443 346.621,206.878C344.815,215.349 340.618,228.503 343.614,240.099C345.771,249.042 347.203,266.033 344.618,274.889C348.312,290.094 340.821,296.038 331.771,299.674C328.038,309.162 323.189,319.516 310.906,321.613C298.887,325.538 278.215,323.155 270.708,332.729C264.776,336.587 255.44,339.382 248.756,343.685C243.794,349.557 243.202,355.54 233.147,348.63C229.109,348.273 229.016,345.356 229.354,341.41C229.692,337.463 230.677,332.694 229.363,329.836C226.796,322.823 219.184,312.187 225.352,301.185C228.044,283.057 210.741,271.161 215.389,250.086C216.479,245.655 212.356,242.01 207.542,240.781C202.728,239.551 196.906,240.261 194.071,243.608C194.529,234.967 200.444,229.534 203.368,222.152C211.975,207.718 216.784,187.629 221.388,168.091C221.915,164.071 224.652,157.206 224.884,151.814C225.117,146.423 222.417,142.019 212.962,143.604C200.405,143.927 204.353,163.554 200.625,173.867C195.861,199.203 182.812,217.877 174.624,240.868C165.728,273.19 173.446,316.516 167.61,347.921C148.466,376.201 153.115,425.688 118.808,437.651C111.742,444.83 108.259,457.581 101.899,466.615C94.7045,462.299 84.6536,458.864 76.1838,454.647C72.813,452.772 67.0706,450.319 63.1989,447.655C57.5064,445.291 50.6255,441.511 45.1987,437.655C36.0918,434.146 23.9582,427.767 17.9135,422.611C16.007,434.563 26.3086,443.04 34.7847,448.335C38.1233,450.597 41.6735,455.564 45.7832,458.334C50.5859,461.24 56.2991,465.833 61.7569,469.315C69.0864,477.93 81.8616,483.079 91.7296,490.292C86.9366,500.424 83.0761,513.283 79.6166,525.893C77.6789,530.613 76.2291,538.602 74.6147,544.9C71.2676,553.896 73.2863,566.526 76.643,575.176C77.4121,575.661 77.7282,577.877 77.7145,580.078C77.7008,582.279 77.5873,583.912 76.8729,583.623C76.6652,596.295 71.945,606.699 68.8398,617.635C58.0857,606.419 40.3972,618.985 36.632,627.848C35.7052,631.811 30.3902,634.525 29.6077,639.932C26.8801,642.349 23.7925,651.031 26.6388,657.168C29.0897,662.425 32.113,670.417 43.0798,668.39C44.7857,668.004 50.5628,665.465 55.1609,664.79C59.759,664.115 62.7311,664.76 59.6329,671.846C60.2245,676.109 58.9263,676.045 56.3904,675.311C53.8545,674.578 50.3622,672.94 47.9141,673.611C43.793,674.287 33.3335,675.883 28.0791,673.61C26.0311,673.661 21.8124,671.029 18.2037,670.073C14.595,669.117 11.1199,670.254 11.6029,677.029C12.8065,683.184 17.8953,688.565 22.749,692.309C26.7759,695.991 35.6022,697.833 41.9776,700.398C48.9219,698.462 51.9834,700.107 52.9579,703.432C53.9325,706.756 52.5147,711.136 49.6723,714.774C48.8674,725.136 43.8228,733.92 45.605,748.05C47.8009,760.5 44.1231,774.976 43.6029,788.97ZM143.751,484.689L141.398,486C136.265,481.689 124.374,481.335 119.311,475.751C124.116,463.256 131.447,452.079 144.161,446.364C147.83,444.788 152.232,440.602 154.352,436.186C157.559,432.735 160.823,426.536 163.363,421.164C164.353,414.795 166.877,407.562 172.235,404.322C177.134,399.086 182.333,391.49 186.354,384.183C187.055,378.577 192.358,375.32 201.005,376.398C207.712,375.397 217.097,374.045 222.277,370.286C223.209,364.812 226.233,363.575 230.416,363.894C234.599,364.213 239.62,366.199 243.956,367.396C253.591,366.896 250.618,351.273 263.067,352.393C270.882,348.698 278.016,341.928 286.145,337.371C297.749,335.071 312.624,333.886 321.159,327.365C335.028,326.155 334.979,306.204 346.849,304.368C344.016,314.757 336.513,321.985 326.802,326.654C318.453,332.89 305.979,337.127 296.785,343.665C285.449,349.629 274.569,358.098 263.74,365.698C257.292,375.533 239.634,376.001 227.847,381.632C215.676,385.745 204.484,392.895 192.817,398.647C180.644,405.467 174.836,420.958 169.627,435.861C159.85,450.135 153.409,469.2 143.751,484.689ZM1055.68,119.767L1053.4,121C1052.56,112.029 1059.2,94.5008 1054.37,82.8501C1052.82,77.3919 1043.67,76.9267 1043.39,68.9495C1047.57,71.0792 1058,69.804 1064.97,70.3973C1068.27,70.5603 1073.12,72.3054 1076.86,73.3713C1079.81,74.9485 1082.78,79.1776 1084.64,83.1669C1086.38,87.2607 1096.57,92.3813 1091.7,98.7327C1085.18,103.032 1071.79,102.673 1065.78,108.671C1061.34,109.836 1057.5,114.71 1055.68,119.767Z" stroke="#06E7F9" stroke-width="3.2" stroke-linecap="round" fill="#06E7F9" stroke-linejoin="round"/>
        <path d="M881.664,789.214C888.544,789.214 897.545,789.371 903.146,789.371C906.454,785.165 904.096,779.54 902.228,775.041C900.36,770.541 898.982,767.168 905.144,765.371C916.244,759.509 924.109,748.045 930.349,736.192C932.283,733.593 934.052,727.956 937.25,725.31C941.037,722.439 945.006,716.86 948.309,712.251C953.593,708.091 960.919,704.069 969.876,702.379C972.694,706.524 976.901,706.708 979.232,704.678C981.564,702.648 982.483,697.817 979.339,692.791C977.986,690.328 973.248,687.553 969.045,686.604C966.308,686.604 961.252,686.603 959.974,686.603C917.258,692.304 913.807,735.41 880.792,749.661C878.431,752.191 875.429,757.695 876.607,765.063C875.06,775.015 879.342,781.911 881.664,789.214Z" stroke="#02E7F9" stroke-width="3.2" stroke-linecap="round" fill="#02E7F9" stroke-linejoin="round"/>
        <path d="M1004.84,789.363C1006.9,789.363 1011.55,789.382 1012.11,789.382C1022.39,782.022 1036.22,775.929 1043.31,764.253C1048.24,762.083 1050.68,755.438 1049.5,750.707C1048.32,745.977 1043.15,742.517 1033.93,746.609C1030.25,746.386 1026.52,749.426 1021.9,749.614C1019.17,751.053 1014.11,753.268 1008.95,753.605C1003.01,754.667 997.199,759.152 994.634,764.843C995.178,774.434 998.877,783.994 1004.84,789.363Z" stroke="#03E7F9" stroke-width="3.2" stroke-linecap="round" fill="#03E7F9" stroke-linejoin="round"/>
        <path d="M821.855,779.371L823.398,778C829.868,775.187 830.787,766.135 838.095,765.387C842.689,763.445 847.782,760.321 853.093,760.387C857.48,757.894 865.48,756.965 867.333,753.218C870.377,751.651 873.718,744.527 870.966,741.603C868.572,745.4 860.197,744.853 855.06,744.606C840.326,740.724 825.767,744.673 818.212,751.816C810.658,758.959 809.904,770.061 821.855,779.371Z" stroke="#06E7F9" stroke-width="3.2" stroke-linecap="round" fill="#06E7F9" stroke-linejoin="round"/>
        <path d="M1287.77,767.322C1288.64,767.477 1290.21,767.534 1291.13,767.365C1292.04,767.195 1292.75,766.142 1292.22,765.666C1300.66,763.034 1282.66,753.888 1297.1,751.385C1304.07,748.732 1312.86,746.302 1317.26,742.301C1321.94,738.722 1328.55,735.465 1331.33,731.229C1334.88,727.564 1338.23,721.895 1339.39,717.097C1341.22,713.504 1344.48,704.036 1340.19,701.651C1331.01,696.639 1329.83,714.956 1319.95,713.605C1314.57,715.791 1302.23,713.154 1300.63,717.861C1297.09,722.326 1303.18,727.459 1304.89,728.381C1310.32,728.665 1308.86,720.026 1315.04,722.396C1316.81,721.219 1319.38,720.8 1320.89,721.01C1322.4,721.22 1322.59,721.34 1319.77,722.676C1315.22,730.548 1301.51,734.751 1291.77,740.395C1282.04,746.039 1276.28,753.77 1287.77,767.322Z" stroke="#0AE7F9" stroke-width="3.2" stroke-linecap="round" fill="#0AE7F9" stroke-linejoin="round"/>
        <path d="M1048.8,744.343C1049.67,744.498 1051.21,744.534 1052.13,744.365C1053.04,744.195 1053.78,743.164 1053.25,742.688C1058.64,739.482 1060.93,732.231 1064.31,728.251C1068.16,722.482 1066.68,709.798 1068.39,703.097C1068.7,696.873 1071.95,691.97 1073.37,688.147C1075.06,685.728 1076.41,681.176 1077.27,679.297C1108.45,684.787 1105.67,644.092 1127.24,633.32C1130.76,626.876 1135.99,620.856 1142.22,618.334C1143.23,616.849 1145.76,614.093 1147.08,611.658C1148.4,609.223 1148.35,606.38 1145.05,605.605C1141.49,605.52 1142.25,604.518 1143.51,602.726C1144.77,600.935 1146.8,598.522 1146.33,597.773C1151.83,592.441 1153.28,585.04 1151.48,578.865C1149.67,572.69 1144.28,567.57 1136.99,567.602C1120.84,568.022 1121.31,551.064 1110.16,547.634C1106.11,545.141 1102.19,540.677 1097.02,540.602C1058.23,537.268 1051.9,498.306 1007.97,503.603C960.663,505.556 939.51,532.872 894.862,538.626C868.712,558.472 840.815,576.62 806.837,588.637C802.538,591.218 799.274,596.635 795.739,598.7C795.69,607.013 784.93,620.132 779.105,630.685C773.281,641.237 772.767,649.904 792.114,648.382C812.628,636.045 816.114,606.331 842.955,601.396C864.758,611.105 860.078,647.539 877.745,660.306C882.321,665.684 887.215,663.837 890.356,659.603C893.497,655.37 895.538,648.429 895.398,643.985C885.578,635.376 881.031,620.428 875.349,608.809C867.358,600.731 856.566,594.539 852.357,583.823C859.222,579.36 870.995,579.337 878.158,576.365C894.716,568.781 906.793,556.205 929.027,555.397C946.736,553.668 956.411,542.981 969.124,537.378C983.065,534.575 994.603,528.563 1008.04,526.396C1024.5,525.671 1036.01,530.356 1042.69,538.254C1049.56,547.46 1060.28,553.999 1070.84,558.365C1080.86,563.06 1090.3,569.147 1097.72,575.285C1101.82,582.511 1107.85,589.039 1112.73,594.295C1118.61,597.699 1127.35,599.508 1130.68,604.234C1132.77,606.7 1129.82,607.296 1125.84,608.288C1121.85,609.28 1116.92,610.117 1115.76,611.683C1108.7,612.39 1100.57,617.365 1097.08,617.609C1091.42,614.672 1086.93,609.088 1079.05,609.605C1072.75,607.487 1063.4,609.617 1058.94,610.606C1053.12,610.972 1049.83,615.857 1046.76,617.682C1042.77,622.632 1040.08,630.792 1040.6,639.025C1040.76,645.748 1044.48,650.632 1045.61,655.098C1047.04,660.555 1054.04,662.259 1055.67,666.229C1057.37,666.49 1059.46,667.598 1060.7,668.942C1061.93,670.286 1062.39,671.316 1060.76,672.679C1043.93,682.109 1032.1,728.715 1048.8,744.343Z" stroke="#02E7F9" stroke-width="3.2" stroke-linecap="round" fill="#02E7F9" stroke-linejoin="round"/>
        <path d="M1233.64,723.822C1234.52,723.976 1236.21,724.534 1237.13,724.365C1238.04,724.195 1238.79,723.17 1238.25,722.693C1242.94,719.466 1246.53,714.105 1249.32,710.237C1252.13,706.857 1255.68,702.409 1257.35,699.19C1259.39,696.423 1262.37,692.617 1263.37,690.155C1266.27,685.492 1269.27,679.582 1272.28,676.283C1276.85,672.937 1282.73,669.639 1287.13,667.378C1291.66,666.744 1293.95,657.216 1291.1,653.615C1263.14,667.829 1241.9,695.952 1233.64,723.822Z" stroke="#0EE7F9" stroke-width="3.2" stroke-linecap="round" fill="#0EE7F9" stroke-linejoin="round"/>
        <path d="M1495.91,696.387C1496.82,696.432 1498.47,696.516 1499.63,696.418C1500.78,696.319 1501.83,695.38 1501.29,694.731C1502.71,693.597 1504.29,691.713 1504.94,689.489C1505.59,687.265 1505.18,684.616 1503.18,683.645C1499.72,681.778 1504.4,676.397 1507.01,671.404C1509.63,666.41 1509.93,661.767 1498.93,663.609C1490.34,665.409 1485.81,672.278 1485.48,679.077C1485.14,685.876 1488.99,693.382 1495.91,696.387Z" stroke="#08E7F9" stroke-width="3.2" stroke-linecap="round" fill="#08E7F9" stroke-linejoin="round"/>
        <path d="M978.868,678.376C980.351,678.147 982.972,678.421 985.102,678.479C987.231,678.537 989.399,678.003 989.398,677C993.857,674.923 995.503,668.727 998.292,666.27C999.6,661.734 1002.6,656.658 1001.39,650.917C999.739,644.943 992.556,642.909 985.583,643.293C978.609,643.678 971.158,646.3 968.701,648.737C963.263,660.685 973.098,673.152 978.868,678.376Z" stroke="#02E7F9" stroke-width="3.2" stroke-linecap="round" fill="#02E7F9" stroke-linejoin="round"/>
        <path d="M296.67,660.223C297.543,660.377 299.211,660.534 300.126,660.365C301.041,660.195 301.827,659.209 301.295,658.733C303.439,647.499 298.97,629.635 286.838,628.636C283.805,640.373 293.117,651.358 296.67,660.223Z" stroke="#11E8F9" stroke-width="3.2" stroke-linecap="round" fill="#11E8F9" stroke-linejoin="round"/>
        <path d="M156.907,651.387C158.116,651.228 160.348,651.452 162.117,651.473C163.887,651.494 165.621,650.709 165.334,649.784C174.298,650.149 177.195,643.379 179.355,638.18C181.953,636.266 182.063,632.709 181.083,629.941C180.104,627.173 177.675,624.614 175.996,624.602C170.319,624.77 163.294,625.722 160.738,627.7C154.096,635.609 143.453,622.054 134.73,627.707C134.848,636.433 148.894,646.289 156.907,651.387Z" stroke="#07E7F9" stroke-width="3.2" stroke-linecap="round" fill="#07E7F9" stroke-linejoin="round"/>
        <path d="M1051.89,578.383C1052.88,578.342 1054.75,578.494 1056.13,578.447C1057.5,578.401 1058.81,577.532 1058.32,576.758C1062.86,573.685 1064.73,568.117 1063.49,563.658C1062.26,559.199 1057.53,555.702 1049.92,557.61C1043.75,558.582 1043.11,563.577 1044.73,568.069C1046.35,572.561 1050.2,577.323 1051.89,578.383Z" stroke="#0AE7F9" stroke-width="3.2" stroke-linecap="round" fill="#0AE7F9" stroke-linejoin="round"/>
        <path d="M849.842,394.365C851.052,394.207 853.348,394.452 855.117,394.473C856.887,394.494 858.658,393.782 858.371,392.856C870.883,384.19 867.42,383.19 861.81,385.098C856.2,387.006 847.914,392.331 849.842,394.365Z" stroke="#0CE7F9" stroke-width="3.2" stroke-linecap="round" fill="#0CE7F9" stroke-linejoin="round"/>
        <path d="M707.971,280.397C706.88,272.924 718.855,271.343 715.311,265.752C711.25,263.428 708.72,265.735 707.945,269.138C707.169,272.542 707.809,277.689 707.971,280.397Z" stroke="#1FE9F9" stroke-width="3.2" stroke-linecap="round" fill="#1FE9F9" stroke-linejoin="round"/>
        <path d="M162.831,233.36C163.923,233.253 166.046,233.472 167.623,233.464C169.201,233.456 170.744,232.657 170.341,231.795C175.611,228.704 180.859,219.455 177.301,211.739C170.132,211.339 171.736,200.523 168.257,197.696C165.056,194.708 160.816,190.977 158.228,188.674C152.142,186.163 147.107,180.977 140.108,180.617C135.374,177.783 123.994,180.668 123.396,174.959C123.194,172.698 119.904,170.49 116.712,169.748C113.52,169.007 109.783,169.464 108.752,171.689C104.419,170.633 102.803,173.195 102.653,175.969C102.503,178.744 103.786,182.326 104.719,183.282C123.585,200.413 145.57,214.625 162.831,233.36Z" stroke="#03E7F9" stroke-width="3.2" stroke-linecap="round" fill="#03E7F9" stroke-linejoin="round"/>
        <path d="M486,38.3982C492.885,36.4664 495.126,27.4618 494.452,18.9072C493.778,10.3526 490.299,1.46733 487.111,-0.382403C478.171,-0.382403 467.563,-0.370664 459.855,-0.370664C464.67,5.72284 464.445,24.9068 480.048,18.3952C484.412,19.1009 477.65,36.076 486,38.3982Z" stroke="#04E7F9" stroke-width="3.2" stroke-linecap="round" fill="#04E7F9" stroke-linejoin="round"/>
    </g>
</svg>