<?xml version="1.0" encoding="utf-8"?>
<!-- Generator: Adobe Illustrator 25.3.1, SVG Export Plug-In . SVG Version: 6.00 Build 0)  -->
<svg version="1.1" id="Layer_1" xmlns="http://www.w3.org/2000/svg" xmlns:xlink="http://www.w3.org/1999/xlink" x="0px" y="0px"
	 viewBox="0 0 1600 789" style="enable-background:new 0 0 1600 789;" xml:space="preserve">
<style type="text/css">
	.st0{opacity:0.15;}
	path{
		opacity:0.9;
		<!-- stroke-width:2!important; -->
	}
	
	.element__number{
		pointer-events:none;
		<!-- paint-order: stroke; -->
		<!-- stroke: #000000; -->
		<!-- stroke-width:5px; -->
		transform-origin:center center;
		-webkit-user-select:none;
		user-select-none;
		font-family:'Roboto';
		font-size:75px;
		font-weight: regular;
		fill:beige;
		text-anchor:middle;
		alignment-baseline:middle;
		cursor: pointer;
		display:none;
	}
	.water__halo{
		fill:cyan;
		fill-opacity:0.105;
		<!-- stroke:#000000; -->
		stroke-opacity:0.5;
		stroke-miterlimit:10;
	}
	.water__line{
		fill:cyan;
		fill-opacity:0.89;
		stroke:blue;
		<!-- stroke:#000000; -->
		stroke-miterlimit:10;
	}
	.element__marker{
		
		fill:white;	
		<!-- stroke:beige; -->
		stroke: rgba(186, 186, 110,0.5);
		<!-- stroke-width:0.5px; -->
		stroke-width: 15px;
		cursor: pointer;
		transition: all 1.3s ease;
		animation:pulse 6s infinite;
	}
	
	#element__1{
		animation-delay:0s;
	}
	#element__2{
		animation-delay:1s;
	}
	#element__3{
		animation-delay:2s;
	}
	#element__4{
		animation-delay:3s;
	}
	#element__5{
		animation-delay:4s;
	}
	#element__6{
		animation-delay:5s;
	}
	<!-- .element__group{
		pointer-events:bounding-box;
	} -->
	@keyframes pulse {
        0% {
            
            stroke-width: 15px;
            
        }
        
        70% {
            stroke-width: 20px;
            
        }
        
        100% {
            stroke-width: 15px;
            
        }
    }
	.element__marker:hover{
		fill:yellow;	
		stroke:lime;
		stroke-width:20px;
		cursor: pointer;
		r: 60px;
		animation:none;
	}
	.element__qr{
		display:none;
	}
	.guide{
		
	}
	.guide path{
		stroke:cyan;
		fill:none;
		opacity:0;
	}
	.guide circle{
		stroke:cyan;
		fill:none;
		opacity:0;
	}
</style>
<defs>

		<linearGradient id="fade_horizontal" x1="0%" y1="0%" x2="100%" y2="0%">
			<stop offset="0.00" stop-color="black"></stop>
			<stop offset="0.19" stop-color="white"></stop>
			<stop offset="0.75" stop-color="white"></stop>
			<stop offset="0.99" stop-color="black"></stop>
		</linearGradient>
		<linearGradient id="fade_vertical" x1="0%" y1="0%" x2="0%" y2="100%">
			<stop offset="0.05" stop-color="black"></stop>
			<stop offset="0.4" stop-color="white"></stop>
			<stop offset="0.6" stop-color="white"></stop>
			<stop offset="0.95" stop-color="black"></stop>
		</linearGradient>
		
		<mask id="mask_horizontal">
			<rect x="0" y="0" width="1600" height="789" fill="url(#fade_horizontal)"/>
		</mask>
		<mask id="mask_vertical">
			<rect x="0" y="0" width="1600" height="789" fill="url(#fade_vertical)"/>
		</mask>
		
		<linearGradient id="fade_horizontal_colour" x1="-10%" y1="0%" x2="120%" y2="0%">
			<stop offset="0.05" stop-color="black"/>
			<stop offset="0.3" stop-color="white"/>
			<stop offset="0.7" stop-color="white"/>
			<stop offset="0.95" stop-color="black"/>
		</linearGradient>
		<linearGradient id="fade_vertical_colour" x1="0%" y1="-20%" x2="0%" y2="130%">
			<stop offset="0.05" stop-color="black"/>
			<stop offset="0.4" stop-color="white"/>
			<stop offset="0.6" stop-color="white"/>
			<stop offset="0.95" stop-color="black"/>
		</linearGradient>
		
		<mask id="mask_horizontal_colour">
			<rect x="0" y="0" width="1600" height="789" fill="url(#fade_horizontal)"/>
		</mask>
		<mask id="mask_vertical_colour">
			<rect x="0" y="0" width="1600" height="789" fill="url(#fade_vertical)"/>
		</mask>
	
<filter id="grayscale">
	<feColorMatrix type="matrix" values="0.33 0.33 0.33 0 0
										0.33 0.33 0.33 0 0
										0.33 0.33 0.33 0 0
										0    0    0    1 0"/>
</filter>
<filter id="grayscale50percent">

	<feColorMatrix type="matrix" values="0.5 0.5 0.5 0 0
																			0.5 0.5 0.5 0 0
																			0.5 0.5 0.5 0 0
																			0   0   0   1 0"/>

</filter>
</defs>
<g class="mask__edges horizontal_colour" mask="url(#mask_horizontal)">
		<g class="mask__edges vertical_colour" mask="url(#mask_vertical)">
	<rect x="0" y="0" width="1600" height="789" fill="purple" opacity="0.1"></rect>
<!-- <image style="overflow:visible;opacity:0.5;" width="2451" height="1210" xlink:href="map_B_colour.png"  transform="matrix(0.6536 0 0 0.6536 -1.85 -15.9)"></image> -->
</g>
</g>
<g class="mask__edges horizontal" mask="url(#mask_horizontal)">
		<g class="mask__edges vertical" mask="url(#mask_vertical)">
	<!-- <rect x="0" y="0" width="1600" height="789" fill="purple" opacity="0.4"></rect> -->
<!-- <image style="overflow:visible;opacity:0.4;" filter="url(#grayscale50percent)" width="2451" height="1210" xlink:href="map_B_colour.png"  transform="matrix(0.6536 0 0 0.6536 -1.85 -15.9)"></image> -->
<image style="overflow:visible;opacity:0.35;" width="2451" height="1210" xlink:href="map_B_colour.png"  transform="matrix(0.6536 0 0 0.6536 -1.85 -15.9)"></image>
<image style="overflow:visible;opacity:0.1;" width="2451" height="1210" xlink:href="map_B_colour_mod.png"  transform="matrix(0.6536 0 0 0.6536 -1.85 -15.9)"></image>
<image style="overflow:visible;opacity:0.4;" width="2451" height="1210" xlink:href="map_B_transparent_lines_rendered.png"  transform="matrix(0.6536 0 0 0.6536 -1.85 -15.9)"></image>
</g>
</g>
<!-- <image style="overflow:visible;opacity:0.027;" filter="url(#grayscale)" width="2451" height="1210" xlink:href="map_B_bg.png"  transform="matrix(0.6536 0 0 0.6536 -1.85 -1.6)"> -->
<!-- </image> -->
<g id="layer0" class="st0">
	<!--  -->
	
</g>
<g class="water__line">
	<g>
		<path d="M830.2,443.7c-5-7-10.1-14.1-15.3-21.3c-7.6-10.7-15-21.6-23-32c-5.6-7.2-11.5-14.3-18.4-20.1c-6.1-5.1-13.9-7.6-22.2-8.2
			c-10.5-0.7-20.9-2.3-31.4-3c-4.8-0.3-9.7,0.3-14.6,0.6c-5.5,0.3-11,1.1-16.6,1.1c-11.5-0.2-22.5,1.3-33.2,6.3
			c-9.5,4.4-18.5,9.3-26.5,16.2c-6.4,5.6-13.9,10-20.9,14.9c-3.7,2.5-7.3,5.2-11,7.5c-5.2,3.3-10.7,6.3-15.9,9.6
			c-3.3,2.1-6.3,4.6-9.5,6.8c-5.3,3.8-10.5,7.8-16,11.2c-10.2,6.3-20.7,12.2-31.1,18.4c-7.9,4.7-16.5,6.2-25.5,7.3
			c-6.6,0.7-12.8,0.3-18.9-1.8c-6.9-2.3-13.8-4.6-20.4-7.5c-8.5-3.7-17.1-6.7-26.2-8.6c-3.3-0.7-6.3-2.8-9.5-4.1c-3-1.2-6-2.3-9.1-3
			c-9.2-2.3-18.6-4.1-27.7-6.7c-7.4-2.1-14.8-1.5-22.3-1.9c-7.6-0.4-15.1-1.2-22.6-1.7c-3-0.2-6-0.1-9-0.2c-6.5-0.4-12.9-1-19.4-1.1
			c-2.9-0.1-5.8,0.8-8.7,0.9c-3.6,0.2-7.3,0.7-10.7,0c-8.4-1.6-16.7,0-25-0.2c-10.1-0.2-20.2-0.3-30.2-0.5c-2.2,0-4.4-0.2-6.5-0.6
			c-10-1.9-19.2-5.5-27.5-11.6c-3.7-2.7-7.8-4.7-11.6-7.2c-0.9-0.6-1.4-1.9-2.1-2.9c1.3-0.2,2.8-0.8,3.8-0.4c7,3.1,14,6,20.6,9.7
			c6.3,3.5,12.9,4.3,19.7,4.7c8.3,0.5,16.7,0.9,25,1.3c7.7,0.3,15.3,0.6,23,0.6c4.8,0,9.5-0.6,14.3-0.5c2.5,0,5.1,1,7.6,1.5
			c0.8,0.2,1.6,0.8,2.5,0.8c6.7,0.3,13.5,1.1,20.1,0.6c11.2-0.8,22.3-0.2,33.4,1.1c2.9,0.3,5.9,0.2,8.8,0.5
			c5.3,0.5,10.5,1.4,15.8,1.6c12.9,0.5,24.5,6.1,36.9,8.7c8.4,1.8,16.6,5.2,24.7,8.1c7.7,2.7,15.1,6.3,22.9,8.5
			c7.3,2.1,14.9,2.9,22.3,4.3c2,0.4,4.1,0.8,6.1,1c1.7,0.1,3.6,0.4,5.1-0.3c8.9-3.7,17.7-7.8,26.7-11.3c9.7-3.7,17.4-10.2,25.4-16.5
			c6.9-5.4,14.7-9.7,22-14.6c5.9-4,11.8-8.2,17.7-12.2c7.1-4.8,14.4-9.3,21.4-14.3c4-2.9,7.2-7.2,11.5-9.5
			c8.2-4.6,16.7-8.6,25.4-12.2c7.2-3,14-7.1,22-7.5c6.4-0.3,12.7-0.7,19.1-1c6.6-0.3,13.2-0.7,19.9-0.7c10.9,0,21.7,0.1,32.5,0.7
			c4.6,0.2,9.4,0.4,13.3,4.2c2.2,2.1,5.8,2.7,8.7,4.3c5,2.7,9.2,6.3,12.9,10.8c5.1,6.2,10.8,11.9,16.3,17.8c3.9,4.2,7.1,8.8,9.8,14
			c3.3,6.5,8.2,12.2,12.6,18.1c4.3,5.7,8.8,11.2,13.2,16.9c1.9,2.4,4.3,2.1,6.3,0.8c8-5.5,16.5-10.7,23.7-17.1
			c16.1-14.4,31.5-29.6,47.3-44.3c8.9-8.4,18-16.6,26.8-25.1c1.4-1.4,2.4-3.7,2.7-5.7c0.9-6.3,4-11.7,7.4-16.8
			c2.6-4,6.1-7.3,9.3-10.9c1.1-1.2,2.4-3.1,4.3-1.2c1.6,1.6,1.6,3.4-0.2,5.1c-2,1.9-3.8,3.9-5.6,5.9c-5.3,6.1-8.2,13.5-11.4,20.9
			c-1.9,4.3-5.2,8.2-8.7,11.6c-7.5,7.5-15.6,14.5-23.3,21.8c-4.7,4.5-9.1,9.3-13.8,13.9c-6.2,5.9-12.5,11.7-18.8,17.6
			c-2.1,2-4.7,3.7-6.3,6.1c-5.8,8.2-15,11.5-22.9,16.8c-3.7,2.5-7.1,5.6-10.4,8.7c-0.6,0.6-0.7,2.6-0.1,3.4
			c2.3,3.7,4.8,7.2,7.4,10.7c5.7,7.8,11.5,15.5,17.4,23.2c1.5,2,3.3,3.8,4.8,5.7c11.1,13.9,22.2,27.7,33.2,41.7
			c7.2,9.1,14.3,18.3,21.4,27.4c6.6,8.5,12.8,17.3,19.9,25.3c5.6,6.3,12.6,11.3,18.8,17.1c6.4,6,14,6,21.7,4.6
			c14.3-2.6,28.5-5.7,42.9-8.1c9.8-1.7,19.8-2.5,29.6-3.9c6.9-1,13.7-2.3,20.5-3.5c19.9-3.3,39.8-6.7,59.7-10
			c13.5-2.2,27-4.4,40.5-6.5c1.6-0.3,3.3-0.1,4.9-0.2c6-0.4,11.9-0.6,17.9-1.1c10.7-1,21.3-2.8,31.9-3.2c8.2-0.4,16.5,0.2,24.7,1.3
			c14.3,2,28.4,4.8,42.6,7.4c13,2.3,24.4,8.8,36.3,14.1c8.5,3.8,17.4,6.7,26.2,9.8c0.7,0.3,2-0.1,2.5-0.6c3.9-4,7.8-8,11.6-12.2
			c1-1.1,1.6-2.7,2-4.2c1.2-4.3,1.7-8.8,3.3-12.9c3.2-8.3,5.1-16.7,6.2-25.5c1.5-12,3.9-24,6.9-35.8c2.7-10.7,6.9-21,9.8-31.7
			c2.1-7.6,3.2-15.5,4.3-23.3c0.2-1.4-1-3.5-2.2-4.7c-3.8-4.1-8.4-7.6-11.8-12c-4.2-5.4-5.6-12.3-4.4-18.9
			c2.3-12.2,5.3-24.4,8.5-36.4c2-7.4,4.7-14.7,7.5-21.9c1.9-4.7,4.5-9.1,6.8-13.7c4.4-8.5,1.2-14.9-5.9-19.4
			c-1.3-0.8-2.4-2.1-3.7-3.1c-0.7-0.6-1.4-1.5-2.2-1.9c-5.8-2.1-11.6-4.1-17.4-6.2c-9.1-3.3-16.5-8.2-20.8-17.7
			c-5.6-12.3-11.6-24.7-21.9-34c-2.2-2-4.9-3.6-7.3-5.4c-4.8-3.7-9.4-7.8-14.5-11.1c-6.8-4.4-13.9-8.6-21.2-12
			c-7-3.2-13.6-6.8-19.3-11.9c-2.4-2.1-4.5-4.8-5.9-7.7c-5.1-10.6-9.4-21.6-11.1-33.3c-1-6.9-0.3-14.1-0.8-21
			c-0.5-6.1,0-12,2.2-17.6c5-12.8,12.8-22.8,27.3-25.8c4.5-0.9,8.8-2.9,13.3-4.3c2.7-0.8,5.4-1.6,8.2-2c4.9-0.7,9.9-0.9,14.9-1.5
			c1.6-0.2,3.2-1.3,4.8-1.8c1.7-0.5,3.5-0.9,5.3-1.3c3.5-0.7,6.9-1.3,10.4-2c2.5-0.5,5-1.3,7.5-1.9c0.5-0.1,1.2-0.1,1.6-0.3
			c7.5-5,16.7-5.1,24.7-8.9c0.3-0.1,0.6-0.2,0.9-0.4c8.6-5.7,18.6-6.5,28.2-9.1c9.4-2.5,19.2-2.3,28.4-5.1c3.3-1,6.4-2.5,9.7-3.5
			c1.9-0.6,4-0.9,6-1.4c5.7-1.6,11.3-3.7,15.5-8.2c0.2,0.4,0.5,0.7,0.7,1.1c-3.3,2.4-6.4,5.5-10.1,7.2c-11.8,5.5-24,10-37.1,11.3
			c-2.3,0.2-4.6,1.2-6.8,1.9c-0.6,0.2-1.2,0.5-1.8,0.6c-7.2,1.6-14.4,3.1-21.6,4.7c-1.4,0.3-2.8,0.6-4,1.4
			c-7.4,4.7-15.7,6.7-24.2,8.3c-0.4,0.1-1,0-1.3,0.3c-5.1,4.3-12,3.4-17.6,6.5c-0.7,0.4-1.4,0.6-2.2,0.7
			c-10.7,2.4-21.5,4.5-32.2,7.2c-6.2,1.6-12.2,3.8-18.1,6.1c-4.4,1.7-9,3.3-12.8,5.9c-8,5.5-12.5,13.8-14.7,23.1
			c-3.9,16.7-2.4,33,4,48.8c1.2,3,2.4,6.1,3.4,9.2c2.5,7.5,7.4,12.6,14.5,15.8c7.8,3.5,15.6,7.2,23.4,10.5
			c8.9,3.8,16.3,9.4,21.5,17.8c1.1,1.8,3.3,3.4,5.3,4.1c9.7,3.6,15.3,11.4,19.8,19.8c3.4,6.5,5.9,13.5,8.5,20.4
			c1.3,3.4,2.8,6.3,6.3,7.9c4.6,2,9.2,3.9,13.7,6c3.7,1.7,7.3,3.7,11,5.5c1.4,0.7,3,1.8,4.4,1.7c2.8-0.2,4.4,1.2,6.2,2.9
			c6.5,6.2,9.6,13.6,7.6,22.6c-1,4.5-2.1,9-3.4,13.4c-2.9,10-6,20-9,29.9c-2.7,9-5.9,17.9-8.1,27.1c-2.2,9.3,0,17.6,7.5,24.4
			c6,5.5,8.6,12.7,9,20.9c0.5,9.4-2.5,18-5,26.7c-3.2,11-6.9,22-9.4,33.2c-2.2,9.5-2.7,19.3-4.5,28.9c-2.2,11.1-5,22-7.6,33
			c-1.4,6.1-6.1,9.5-10.7,13c-1.6,1.1-3.2,2.4-4.3,3.9c-1.8,2.5-1,4.8,1.9,5.9c11,4,20.8,10.2,31.2,15.4c8.7,4.4,18.2,7,27.5,10
			c7.8,2.5,15.2,5.7,21.9,10.6c2.7,2,5.9,3.2,8.9,4.6c16.2,7.4,32.3,14.9,48.7,21.9c5.5,2.4,11.6,3.4,17.4,4.9
			c0.8,0.2,1.8-0.4,2.8-0.6c2.4-0.6,3.7,0.5,4,2.9c0.1,0.9,0.8,2,1.6,2.4c2.4,1.3,4.9,2.3,7.4,3.3c5.8,2.2,11.5,4.5,17.3,6.6
			c6.1,2.2,12.5,3.8,18.4,6.4c6.3,2.8,12.3,6.4,18.3,9.9c1,0.6,1.1,2.5,1.6,3.9c-0.3,0.2-0.6,0.4-0.9,0.6c-1.1-0.3-2.3-0.5-3.3-0.9
			c-9-3-18-5.7-26.9-9c-4.8-1.8-9.2-4.7-13.8-7.1c-1-0.5-2.1-1.1-3.2-1.5c-4.4-1.5-8.9-2.7-13.1-4.6c-5.2-2.3-10.2-5.4-15.4-7.8
			c-2.6-1.2-5.7-1.4-8.4-2.5c-7.9-3.1-15.8-6.2-23.4-9.8c-12.6-5.9-24.9-12.3-37.4-18.3c-8-3.8-15.8-8.8-24.3-10.8
			c-17-4-31.8-12.4-47.4-19.5c-13.4-6.1-26.8-12.4-40.9-17c-5.5-1.8-10.6-4.5-15.9-6.7c-7.4-3.1-14.8-6.3-22.4-8.9
			c-3-1-6.5-0.3-9.6-1c-10.9-2.4-21.7-5.6-32.7-7.5c-16.6-2.9-33.2-2.9-49.9-0.1c-11.9,2-23.8,3.2-35.8,4.8
			c-13.4,1.8-26.9,3.4-40.3,5.3c-11.1,1.6-22.1,3.4-33.1,5.2c-3.3,0.6-6.7,1.3-9.8,2.4c-9.4,3.4-19.3,3.9-29.1,5.3
			c-8.7,1.2-17.4,2.6-26,4.4c-12.2,2.4-24.3,6-36.7,7.6c-9.8,1.3-19.9,0.7-29.9,0.2c-5.4-0.2-10.1-3.2-13.9-7.1
			c-0.5-0.5-1-1.1-1.7-1.5c-9.2-5.1-15.9-12.8-21.9-21.1c-9.3-12.9-18.2-26.2-27.6-39.1c-4.5-6.2-10.1-11.6-14.7-17.7
			c-6.4-8.5-12.3-17.4-18.6-26c-3.1-4.3-6.8-8.2-10-12.4c-2.8-3.7-5.4-7.6-8.1-11.4c-5.4-7.7-10.8-15.5-16.3-23.2
			c-1.7-2.4-8.6-2.4-10.9-0.2c-9.1,8.9-19.6,15.8-30.1,22.7c-4.3,2.8-8.5,5.6-12.4,8.9c-2.4,1.9-3.8,5.1-6.3,6.9
			c-7.7,5.5-15.7,10.6-23.6,15.8c-0.6,0.4-1.4,0.7-1.9,1.2c-6.2,6.9-14.7,10.2-22.5,14.6c-1.5,0.9-3,1.7-4.5,2.6
			c-10.3,6.2-20.7,12.4-30.9,18.7c-9,5.6-17.9,11.5-26.9,17.2c-10.8,6.8-22.5,11.7-34.8,15.2c-4.7,1.3-8.9,4-13.5,5.6
			c-16.1,5.8-32,12.3-48.6,17c-11.9,3.4-23.3,8.8-35,13.2c0.3,0.3,0.5,0.6,0.8,0.9c-0.4,0.8-0.5,2.1-1.1,2.3
			c-2.7,1.2-5.4,2.5-8.2,2.9c-7.8,1.1-15.8,2.8-23.5,2.2c-9.6-0.8-19,1-28.5,0.4c-3.8-0.2-7.7,1.1-11.6,1.1c-2.2,0-4.4-1.3-6.6-2.2
			c-5.2-2.2-8.9-6.4-13.4-9.4c-2.9-1.9-7.8-2-11.5-1.2c-4.7,0.9-9,3.7-13.6,5.3c-9.6,3.4-15.1,10.7-18.9,19.7
			c-2.1,4.9-4.7,9.3-8.5,13.3c-5.4,5.6-9.9,12.1-15,18c-1.8,2.1-4.2,3.8-6.2,5.8c-3.1,3.1-5.9,6.6-9.2,9.5
			c-6.1,5.3-12.5,10.4-18.9,15.5c-9.3,7.4-18.6,14.9-28.3,21.9c-9.2,6.7-18.7,12.9-28.3,19.1c-5.9,3.8-12,7.3-18.2,10.4
			c-2.8,1.4-6.2,1.6-9.3,2.2c-0.5,0.1-1.5-0.3-1.6-0.7c-0.2-0.6,0-1.6,0.4-2c2.9-2,5.7-4.4,8.9-5.8c16-6.8,30.3-16.5,44-27
			c2.9-2.2,6.4-3.7,9.1-6.1c5.6-4.9,10.8-10.3,16.4-15.3c2-1.8,4.4-3,6.5-4.7c4.1-3.3,8.3-6.7,12.2-10.3c5-4.7,9.5-10.1,14.8-14.5
			c6.7-5.5,12.3-11.8,17.1-18.8c3.3-4.8,5.9-10.1,8.8-15.1c0.7-1.3,1.6-2.5,2.7-3.5c1.3-1.2,4.3-1.1,2.6-4.2c-0.1-0.2,0.5-0.7,0.7-1
			c4.3-5.6,9.6-10.2,16.3-12.4c7.7-2.6,15.6-4.7,23.5-6.4c5.4-1.2,7.7,1.1,11.1,5.8c3.3,4.7,7.4,8.3,14,9.3
			c9.1,1.3,17.6-2.1,26.5-1.7c6,0.3,11.9,0,17.7,1.9c2.2,0.7,5.2,0,7.5-0.9c8.5-3.4,16.9-6.9,25.1-10.9c8.2-4,15.9-8.9,24.2-12.7
			c5.3-2.4,11.2-3.6,16.9-5.4c1.5-0.5,3.2-0.7,4.7-1.2c12.1-4.5,24.1-9.4,36.4-13.4c19.9-6.5,38.7-15.3,56.9-25.6
			c12-6.8,24.4-12.9,36.3-19.7c6.9-4,13.3-8.9,19.9-13.4c2.3-1.6,4.8-2.9,7.1-4.6c3.9-2.9,7.6-6,11.6-8.9c7.8-5.7,15.6-11.4,23.4-17
			c3.2-2.4,6.4-4.8,9.7-7.1c5.5-3.9,11.2-7.5,16.4-11.7c5-4.1,9.6-8.8,14.3-13.2C823.6,450.2,826.7,447.1,830.2,443.7z"/>
		<path d="M49.3,195.1c1-5.3,0-9.5-4.5-12.5c-1.4-0.9-2.5-2.4-3.3-3.9c-0.5-0.8-0.1-2.1,0.7-3c3,4.2,6.1,8.3,9,12.6
			c1.7,2.5,1.7,5.3,0.4,8.1c-0.4,0.9-0.2,2.3,0.4,3.2c6.9,10.8,13.8,21.6,20.8,32.3c3.6,5.4,7.3,10.8,11,16.2
			c5.3,7.8,10.7,15.5,16,23.3c6.1,9.1,11.9,18.4,18.1,27.4c10,14.5,20.1,28.8,30.2,43.2c1.1,1.5,2.1,3,3,4.7c3,5.8,6.8,11,11.4,15.8
			c4.4,4.5,7.6,10.1,12.1,14.4c3.8,3.6,5.6,9,10.7,11.5c1.1,0.5,2.3,3.2,1.8,4c-1.3,2.3-3,1.1-4.8-0.1c-2.4-1.7-5.3-2.8-7.9-4.3
			c-0.8-0.5-1.7-1-2.4-1.7c-7.3-7.7-13.5-16.2-19.1-25.3c-5.6-9.1-12.4-17.5-18.6-26.2c-6.1-8.6-11.5-17.8-18.5-25.6
			c-6.1-6.8-10-14.8-15.1-22.1c-5-7.2-9.1-15-14.5-21.9c-5.7-7.3-10-15.1-14.2-23.2c-2.5-4.9-5.9-9.3-9-13.9
			c-3.6-5.3-7.1-10.7-10.9-15.8c-6.2-8.3-11.7-17.2-19.1-24.2c-7.6-7.2-16.8-13.1-27.8-14.7c-2.7-0.4-3.2-1.9-2.8-4.1
			c0.4-2.1,1.8-2.6,3.9-2.2c11.6,1.9,21.5,7.6,30.3,15C40.9,185.7,44.8,190.4,49.3,195.1z"/>
		<path d="M1119.7,148.4c2.2-1.4,3.9-2.8,5.8-3.7c3.1-1.6,5-3.8,6.1-7.2c2.9-8.8,6-17.5,9.3-26.1c1.9-4.9,4.2-9.5,6.5-14.2
			c1.9-3.9,0.8-7.1-1.7-10.2c-10.1-12-8.1-30.2,5.1-38.2c6.6-4,10.1-9.8,13.9-15.8c2-3.2,4-6.5,6.3-9.5c0.7-0.9,2.7-1.6,3.8-1.2
			c1.7,0.6,1.9,2.3,1,4.1c-2.4,4.8-3.9,10.2-7,14.5c-2.7,3.8-6.7,6.9-10.6,9.7c-6.4,4.4-10.7,10.1-13.1,17.4
			c-2.1,6.6-1.6,13.1,3.6,18.2c4.8,4.6,4.3,9.3,1.8,14.8c-2.5,5.4-4.4,11.1-6.6,16.6c-3.2,8.3-6.2,16.7-9.8,24.8
			C1131.8,147.8,1126.9,150.6,1119.7,148.4z"/>
		<path d="M1473.3,67c2.3-3.7,4.6-7.3,7-11c3.3-4.9,8.6-6.8,13.7-9c11.5-5,22.7-10.4,32.7-18.1c2.5-2,5.7-3.2,8.7-4.4
			c2.9-1.1,8.7,1.9,10.4,5.2c1,1.9,1.7,4,2.1,6.1c0.8,3.8,2.8,6.8,5.7,9.3c2.2,2,4.6,2.4,7.2,0.9c3.6-2,7.1-4.3,10.7-6.2
			c8.1-4.4,16.2-8.8,24.4-13c0.8-0.4,2.1,0.3,3.2,0.4c-0.3,0.9-0.4,2.3-1.1,2.7c-4.2,2.6-8.3,5.2-12.7,7.2
			c-8.1,3.7-16.3,7.1-24.5,10.5c-3.9,1.6-10.1-1-13.2-5.6c-1.6-2.3-2.8-4.9-3.7-7.6c-2-6-5.8-8-11.5-5.3c-3.4,1.6-6.6,3.8-9.5,6.2
			c-7.4,5.9-15.9,9.8-24.6,13.3c-8.2,3.3-14.9,8.3-20.7,14.8c-1.2,1.3-2.3,2.7-3.5,4.1C1473.8,67.5,1473.6,67.3,1473.3,67z"/>
		<path d="M949.5,455.6c3.4-0.1,5.5,2.3,4.2,5.5c-1.2,3-0.1,4.6,1.8,6.5c5.1,5.1,10.2,10.3,15,15.7c6,6.6,3.7,14.1-5,16.3
			c-2.6,0.7-5.3,0.7-8,0.7c-4.3,0-8.6-0.1-12.9-0.6c-2.4-0.2-5-0.8-6.9-2.1c-6.9-4.6-7.9-16-2.1-21.8c4.4-4.3,8.8-8.6,13.5-12.6
			c2.8-2.4,3.2-4.4,0.4-6.9c-0.1-0.1-0.2-0.4-0.2-0.6C949.4,455.8,949.5,455.7,949.5,455.6z M951.5,465.4
			c-5.2,4.7-9.5,8.6-13.7,12.6c-4.9,4.7-4.3,13.5,1.4,17.5c1.8,1.2,4.3,1.5,6.6,1.7c3.2,0.3,6.5-0.2,9.7,0.4
			c3.5,0.7,6.7,0.5,10.1-0.8c6.9-2.7,8.5-6.9,3.8-12.4C963.6,477.8,957.3,471.6,951.5,465.4z"/>
		<path d="M295.1,676.5c-0.6,1.4-1.3,4.2-2.6,6.6c-1.1,2.1-3.2,2.7-4.8,0.7c-2-2.6-3.4-5.6-5-8.5c-0.2-0.4-0.1-1.1,0.1-1.6
			c0.5-1.9,5.6-3.8,8.6-3.3C294,670.9,295.1,672.3,295.1,676.5z"/>
		<path d="M1102,165.4c-2,2.7-3.8,5.7-6.2,7.9c-3.2,3-6.9,5.5-10.6,7.8c-1.2,0.7-3.1,0.1-4.7,0.1c0.7-1.6,1-3.6,2.2-4.5
			c3.5-2.6,7.4-4.8,11.2-7.2c2.4-1.6,4.8-3.2,7.1-4.9C1101.3,164.9,1101.7,165.1,1102,165.4z"/>
		<path d="M1030.7,508.5c-3.5-1.3-5.6-3.5-5.9-6.8c-0.1-1.3,0.9-2.7,1.7-3.9c0.2-0.2,2.3,0.3,2.4,0.7
			C1029.6,501.7,1030.1,504.9,1030.7,508.5z"/>
	</g>
</g>
<g class="guide">
	<path class="guide__path" d="M1.64,173.5l18.8,6.71,17,12.09,12.08,16.12L61.63,229,78.2,253.19,97.9,280.5l17.9,27.76,11.64,18.35,13.88,21,15.22,19.25,13,14.78,13.88,13.43,22.83,20.59,22.83,7.61L264,425.55l39.85-.44,29.1.89L375,428.24l47.46,8.51L457,448.83l28.21,9.85L510.68,460l15.22-7.17,16.56-8.5,18.81-12.54,23.28-15.22,19.81-13.44,23-17.31,25.84-16.42L680.73,361l26.32-.89h31.77L761,363.71l18.37,11.13,18.13,18,13.88,20.28L825,432.46l14.57,18.67,12.9,18.4,17.31,25.11L887.83,519l18.23,23.16L930,573.93l19.9,23,19.7,16L994,616.56l37.69-8.71,30.17-2.06,28.4-4,30.81-6.46,32.3-5.43,32.12-4.22,42.88-5.09,31.52.28,31.17,6.55,33.17,8.21,31.24,12L1382.27,619l37.79,16.6,30.22,12.74,25.17,10.17,31.32,17.44L1539,687.15l33.19,14.1,27,10.44" transform="translate(-0.43 -0.44)"/>
</g>
<g class="element__group">
	<circle id="element__1" class="element__marker" cx="187.1" cy="389.7" r="32"/>
</g>
<text class="element__number element__1" transform="matrix(1 0 0 1 176.39 405.2912)" >1</text>
<circle id="element__2" class="element__marker " cx="316.5" cy="417" r="32"/>
<text class="element__number element__2" transform="matrix(1 0 0 1 303.634 434.7022)" >2</text>
<circle id="element__3" class="element__marker " cx="761.5" cy="347.4" r="32"/>
<text class="element__number element__3" transform="matrix(1 0 0 1 749 363)" >3</text>
<circle id="element__4" class="element__marker " cx="844.5" cy="464" r="32"/>
<text class="element__number element__4" transform="matrix(1 0 0 1 829.4996 485.0004)">4</text>
<circle id="element__5" class="element__marker " cx="1040.5" cy="592.5" r="32"/>
<text class="element__number element__5" transform="matrix(1 0 0 1 1030.1 611.5078)">5</text>
<circle id="element__6"  class="element__marker " cx="1462" cy="655.5" r="32"/>
<text class="element__number element__6" transform="matrix(1 0 0 1 1445.577 673.2319)">6</text>



<g id="QpzRSK_1_">
	
		<image class="element__qr" style="overflow:visible;" width="256" height="256" id="QpzRSK" xlink:href="C601CAA704BC2681.jpg"  transform="matrix(0.3593 0 0 0.3593 143.7473 445.3835)">
	</image>
</g>
<g id="lOSt6j_1_">
	
		<image class="element__qr" style="overflow:visible;" width="256" height="256" id="lOSt6j" xlink:href="C601CAA704BC2687.jpg"  transform="matrix(0.3592 0 0 0.3592 270.5287 476.0287)">
	</image>
</g>
<g id="xMtsbV_1_">
	
		<image class="element__qr" style="overflow:visible;" width="256" height="256" id="xMtsbV" xlink:href="C601CAA704BC2680.jpg"  transform="matrix(0.351 0 0 0.351 713.566 403.8687)">
	</image>
</g>
<g id="DSLZSL_1_">
	
		<image class="element__qr" style="overflow:visible;" width="256" height="256" id="DSLZSL" xlink:href="C601CAA704BC2683.jpg"  transform="matrix(0.351 0 0 0.351 798.066 521.5882)">
	</image>
</g>
<g id="ykOHhn_1_">
	
		<image class="element__qr" style="overflow:visible;" width="256" height="256" id="ykOHhn" xlink:href="C601CAA704BC268F.jpg"  transform="matrix(0.351 0 0 0.351 995.566 651.066)">
	</image>
</g>
<g id="J3sr0Q_1_">
	
		<image class="element__qr" style="overflow:visible;" width="256" height="256" id="J3sr0Q" xlink:href="C601CAA704BC2682.jpg"  transform="matrix(0.351 0 0 0.351 1416.066 693.4301)">
	</image>
</g>

</svg>
