<svg xmlns="http://www.w3.org/2000/svg" viewBox="0 0 1440 320">
    <style>
        .wave__bottom{
            transform:rotate(180deg);
            transform-origin: 50% 50%;
            <!-- fill: #000080; -->
            fill:navy;
            <!-- fill: red; -->
        }
    </style>
    <path class="wave__bottom" fill-opacity="1" d="M0,288L40,282.7C80,277,160,267,240,229.3C320,192,400,128,480,117.3C560,107,640,149,720,176C800,203,880,213,960,181.3C1040,149,1120,75,1200,69.3C1280,64,1360,128,1400,160L1440,192L1440,320L1400,320C1360,320,1280,320,1200,320C1120,320,1040,320,960,320C880,320,800,320,720,320C640,320,560,320,480,320C400,320,320,320,240,320C160,320,80,320,40,320L0,320Z"></path>
</svg>
