<?xml version='1.0' encoding='utf-8'?>
<!-- Generator: imaengine 6.0   -->
<svg xmlns:xlink="http://www.w3.org/1999/xlink" xmlns="http://www.w3.org/2000/svg" viewBox="0,0,396,189" style="enable-background:new 0 0 396 189;" version="1.1">
<defs/>
<g id="layer0">
<path d="M0,189C3.07825,189 8.40167,189.088 10.0424,189.088C12.8459,178.527 27.1405,178.321 33.0762,172.061C33.0396,171.151 33.4212,170.065 33.8666,169.255C34.312,168.446 34.7707,167.948 35.0258,168.094C35.9891,163.998 33.5808,163.539 30.7886,164.427C27.9963,165.315 24.7334,167.379 23.9392,167.924C17.5358,175.224 7.96251,180.358 -0.0266947,184.906L0,189Z" fill="#5F6055"/>
<path d="M9.91388,188.954C27.3323,188.954 45.7592,189.088 62.0427,189.088C62.4257,187.402 65.4918,185.918 65.0742,184.937L62.0975,185C60.9341,181.768 64.5702,180.996 64.0711,179.933L62.0975,180C58.6885,178.603 52.7087,177.721 52.0549,174.919C49.6934,177.017 41.5205,175.34 38.9892,175.903L39,175L38,175L35.0975,175C34.7761,174.603 34.428,173.624 34.0887,172.879C33.7494,172.134 33.2479,171.559 32.9265,171.936C26.9909,178.196 12.7173,178.393 9.91388,188.954Z" fill="#848586"/>
<path d="M61.9112,188.96C126.116,188.96 189.722,189.089 255.041,189.089C253.902,186.346 250.278,183.454 247.611,180.647C244.944,177.839 243.269,175.089 246.076,172.061C246.491,170.407 247.641,167.088 247.021,165.905C244.282,168.464 242.005,163.299 238.005,162.903C235.268,162.903 230.282,162.903 229.004,162.903C221.697,162.298 210.584,164.057 206.059,161.923C204.251,155.296 196.774,157.328 190.985,157.904C185.598,159.052 181.135,162.859 177.948,164.917C174.794,166.806 172.985,178.936 167.022,179.905C162.907,176.715 167.258,170.243 156.993,170.903C147.338,171.603 156.928,178.962 147.017,176.904C141.371,176.064 139.693,181.132 136.008,180.903C131.443,180.436 128.78,179.817 127.687,178.863C126.594,177.909 127.107,176.802 129.044,175.087C119.859,174.156 111.791,175.774 107.935,178.928C102.192,185.639 97.7092,182.432 94.3313,177.642C90.9533,172.853 88.7172,166.46 87.972,166.907L85,167L84,168L83.0975,167C79.9921,166.632 77.0158,168.821 76.9034,169.987C79.9661,171.276 79.4502,172.943 77.9097,174.234C76.3691,175.526 73.873,176.363 72.9726,175.906C71.9448,180.377 65.5837,181.485 64.9044,184.981C65.322,185.962 62.2942,187.274 61.9112,188.96Z" fill="#838283"/>
<path d="M254.925,189.062C259.038,189.062 265.302,189.091 268.034,189.091C262.45,183.013 255.552,173.409 256.096,165.015C257.496,165.213 261.95,166.956 265.382,167.487C268.815,168.018 271.185,167.242 268.055,162.92L267.097,163C268.123,156.565 271.841,156.232 266.034,153.909C258.653,151.325 254.744,143.92 248.009,141.903C244.913,142.228 242.363,145.478 242.906,148.026C245.685,149.858 247.445,158.251 244.954,160.914L244.903,162C244.743,163.041 243.176,163.044 241.505,162.958C239.835,162.873 238.089,162.633 237.93,162.933C241.93,163.329 244.263,168.656 247.002,166.097C248.147,167.078 248.704,168.733 248.621,170.118C248.538,171.502 247.79,172.423 245.977,171.905C243.17,174.933 244.803,177.974 247.47,180.781C250.137,183.588 253.786,186.319 254.925,189.062Z" fill="#46433C"/>
<path d="M267.953,189.086C287.392,189.086 307.727,189.087 326.043,189.087C324.785,181.22 312.065,180.891 314.059,174.078C309.013,177.251 305.779,178.167 304.485,179.283C303.191,180.398 303.725,181.718 305.948,185.082C286.389,182.424 278.466,171.346 267.989,162.903C271.118,167.226 268.844,167.825 265.412,167.294C261.98,166.763 257.361,165.109 255.961,164.911C255.416,173.305 262.369,183.008 267.953,189.086Z" fill="#817F7C"/>
<path d="M325.907,189.03L328.097,189C329.966,181.928 334.752,176.408 336.09,170.038L335.903,168C334.649,168.492 333.184,170.828 332.07,169.932C332.486,168.481 332.254,167.146 331.775,166.203C331.297,165.261 330.442,164.703 329.941,164.923C329.665,177.273 317.404,167.072 312.953,171.914L313.902,174C311.909,180.813 324.649,181.162 325.907,189.03Z" fill="#393B2F"/>
<path d="M327.914,188.954C335.138,188.954 344.089,189.087 350.043,189.087C348.32,179.822 344.27,171.393 335.963,169.91C334.625,176.28 329.783,181.883 327.914,188.954Z" fill="#323524"/>
<path d="M349.909,189.034C354.021,189.034 360.273,189.097 363.005,189.097C358.656,188.641 356.836,183.617 355.067,181.93C342.001,169.304 348.682,161.857 360.426,156.211C372.171,150.566 388.979,146.862 396.067,142.071C396.067,99.7799 396.097,58.4566 396.097,15C389.106,15.2331 384.624,19.7193 382.911,23.9604C379.888,27.4723 377.533,33.2242 373.97,34.9073C364.512,36.4372 356.049,40.3253 353.907,47.9723C350.675,53.3389 344.229,56.8259 338.957,58.9127C335.251,61.3968 334.197,68.3981 333.903,72.9938C333.795,79.291 338.292,82.8522 340.95,85.0838C351.094,87.9037 350.919,92.2575 348.44,97.4175C345.96,102.577 341.13,108.473 341.903,114.014C337.68,131.151 356.757,137.748 346.946,150.919L344.903,150C348.834,154.561 345.382,155.318 341.512,156.353C337.642,157.388 333.381,158.77 335.93,164.068L336,168L335.903,170C344.209,171.484 348.186,179.769 349.909,189.034Z" fill="#313616"/>
<path d="M362.995,189.097C373.983,189.097 386.254,189.087 396.044,189.087C396.044,173.355 396.097,156.585 396.097,142C389.01,146.791 372.087,150.39 360.342,156.036C348.597,161.682 341.865,169.444 354.932,182.07C356.701,183.757 358.646,188.641 362.995,189.097Z" fill="#282B0F"/>
<path d="M-0.0975,185C7.8917,180.451 17.6452,175.385 24.0485,168.085C19.2651,168.062 19.1047,161.246 14.9922,161.903L13.9025,162C13.7705,165.635 9.51013,167.042 7.0027,166.903L4.9025,165C5.38575,168.22 0.99969,168.69 -0.0513508,168.917C-0.0513508,174.069 -0.0975,181.184 -0.0975,185Z" fill="#929393"/>
<path d="M61.9209,185.057L65.0975,185C65.7768,181.504 72.0608,180.511 73.0886,176.041L73.0975,175C67.4017,173.763 66.7505,179.614 63.9558,179.913C64.4549,180.976 60.7575,181.825 61.9209,185.057Z" fill="#60605A"/>
<path d="M306.032,185.092C303.81,181.727 303.318,180.546 304.612,179.43C305.907,178.315 308.984,177.266 314.029,174.093L312.903,172C310.472,172.113 308.437,168.512 307.929,165.19C307.422,161.868 308.564,158.921 313.023,160.095C314.354,158.688 316.295,155.591 317.06,155.077C313.534,151.378 308.632,147.294 306.053,143.918L305.098,144C304.834,143.391 303.82,142.826 303.028,142.364C302.237,141.901 301.621,141.623 302.052,141.083L301.097,141C300.347,140.106 299.683,138.799 299.415,137.629C299.147,136.46 299.238,135.505 300.061,135.076C299.289,132.559 302.85,131.932 302.079,130.943C300.117,126.411 299.005,128.973 297.971,130.907C295.846,129.371 299.789,123.875 297.017,122.904C280.52,122.926 283.695,129.615 282.905,135.977C274.407,136.221 273.626,127.433 272.089,121.96C266.383,120.442 258.972,119.014 258.083,113.949C250.725,117.391 247.483,120.404 247.001,127.903C246.792,123.104 242.475,122.526 237.874,122.936C233.272,123.346 228.43,124.756 227.044,123.913C223.817,122.708 225.816,121.062 227.361,119.587C228.905,118.112 229.933,116.798 224.981,116.904C222.311,118.002 217.678,119.204 215.009,118.903C216.462,118.81 221.39,122.078 224.779,125.151C228.167,128.224 230.035,131.106 225.029,130.907C220.247,127.435 215.138,122.812 211.033,119.908L209,120L206.903,118C206.903,119.436 207.097,123.111 207.097,123C208.13,124.704 208.183,129.418 207.906,130.973C209.913,131.416 211.367,133.744 211.593,135.778C211.82,137.812 210.923,139.482 208.01,138.903L206.902,138C200.262,144.046 193.044,150.436 184.001,152.903C168.127,148.38 175.297,160.494 163.051,157.917C163.51,153.698 159.397,151.346 155.359,149.854C151.32,148.362 147.356,147.897 148.049,147.084C142.551,147.084 135.149,146.906 130.973,146.906C128.702,148.472 130.42,150.811 126.01,149.903L125.903,149C120.756,153.478 104.554,148.177 102.918,154.947C109.795,153.14 116.141,154.265 119.455,156.336C122.77,158.407 123.08,161.395 117.947,163.918C111.785,170.211 95.1192,163.291 88.0034,166.903C88.7486,166.456 90.794,172.965 94.1719,177.755C97.5498,182.545 102.328,185.778 108.071,179.067C111.927,175.913 119.78,174.161 128.965,175.091C127.028,176.807 126.466,178.055 127.559,179.01C128.652,179.964 131.427,180.63 135.992,181.097C139.677,181.326 141.337,176.256 146.983,177.096C156.894,179.154 147.351,171.797 157.007,171.097C167.271,170.437 162.858,176.904 166.973,180.094C172.936,179.124 174.897,166.972 178.051,165.083C181.238,163.024 185.628,159.245 191.015,158.096C196.804,157.521 204.1,155.407 205.909,162.035C210.433,164.169 221.689,162.493 228.996,163.097L229,162L228.097,162C232.142,160.201 240.993,161.578 245.038,161.09C247.529,158.427 245.809,149.74 243.031,147.907L242.097,148C236.716,146.309 237.221,143.171 239.587,141.236C241.953,139.302 246.008,138.634 247.925,142.063C254.66,144.08 258.602,151.512 265.983,154.096C272.411,154.12 272.998,155.277 271.969,157.047C270.939,158.818 268.214,161.085 267.904,162.981C278.382,171.424 286.473,182.433 306.032,185.092Z" fill="#A3A09E"/>
<path d="M61.9804,180.096L64.0975,180C66.8923,179.701 67.2936,173.86 72.9895,175.097L73.9025,173C63.0231,178.523 58.0284,172.402 51.9423,174.921C52.5961,177.723 58.5714,178.699 61.9804,180.096Z" fill="#929296"/>
<path d="M39.0975,176C41.6287,175.437 49.6944,177.178 52.0559,175.08C58.142,172.561 63.158,178.613 74.0373,173.09C74.709,172.889 75.5391,172.216 76.1442,171.567C76.7494,170.917 77.1815,170.162 77.0893,169.961C77.2017,168.795 79.91,166.728 83.0153,167.096C67.5299,159.638 79.7702,154.494 76.0834,145.95C69.4845,143.131 65.7775,158.56 58.9642,159.909C60.3558,160.898 59.7575,162.123 58.6221,162.983C57.4866,163.842 55.8734,164.331 55.0237,163.905L54.9025,163C51.0206,164.27 49.7279,169.951 48.9143,172.954L47.9025,174C46.8499,176.026 40.027,174.318 38.9738,174.906L39.0975,176Z" fill="#A1A1A7"/>
<path d="M72.9025,176C73.8029,176.456 76.4944,175.676 78.035,174.384C79.5755,173.092 80.0361,171.195 76.9735,169.906C77.0657,170.107 76.6067,170.784 76.0016,171.434C75.3964,172.083 74.6572,172.702 73.9856,172.904L73,175L72.9025,176Z" fill="#65655F"/>
<path d="M35.0648,175.073L38,175L38,174L37,174L37,173L36.0975,173C36.9038,170.448 34.2642,169.092 35.0702,168.068C34.8151,167.922 34.1411,168.352 33.6958,169.161C33.2504,169.971 32.8661,171.097 32.9027,172.007C33.5098,172.118 33.9821,172.964 34.3125,173.718C34.6429,174.472 34.9934,175.2 35.0648,175.073Z" fill="#939499"/>
<path d="M38,175L39.0975,175C40.1507,174.412 47.015,176.096 48.0676,174.07C44.9894,174.07 39.6408,173.903 38,173.903L38,175Z" fill="#9799A2"/>
<path d="M37,174L38,174C39.6408,174 44.9217,174.097 48,174.097L49,173C45.2331,173 39.3683,172.902 37,172.902L37,174Z" fill="#999BA4"/>
<path d="M35.9176,172.948L37,173C39.3683,173 45.2755,173.088 49.0424,173.088C49.856,170.085 51.1445,164.364 55.0263,163.094C56.7116,162.711 58.0085,159.679 58.9896,160.097C65.8029,158.748 69.3807,143.277 75.9796,146.095L77,144L76.0975,144C77.4536,138.185 72.9401,136.09 71.0288,134.907L70,134L69,133L66.9025,131C64.7928,131.371 63.5194,134.115 62.2792,136.417C61.0391,138.719 59.9647,140.489 58.0349,138.909C57.3445,138.937 56.6402,139.647 56.1402,140.231C55.6402,140.815 55.3194,141.268 55.01,140.903C53.4978,142.128 49.9072,143.517 48.0156,142.904L46.9025,141C38.9327,143.337 37.9629,153.767 32.0002,156.903C29.0104,155.314 29.4742,152.048 30.7831,148.621C32.092,145.194 34.3188,141.768 35.073,140.065L34.0975,140C31.264,137.681 29.8528,131.833 25.9566,131.913C24.2832,139.18 19.1532,144.418 14.9458,147.919C12.7816,148.833 9.82552,151.057 8.03849,150.91C5.42428,147.706 1.81,152.657 -0.0310797,151.908C-0.0310797,155.329 -0.0975,160.996 -0.0975,163C4.75881,164.778 5.12755,159.871 7.99437,161.097C8.66603,160.896 9.53909,160.216 10.1442,159.567C10.7494,158.917 11.1799,158.159 11.0877,157.957C13.7523,154.356 15.3186,154.007 16.0213,155.187C16.724,156.367 16.4143,159.041 14.9389,161.924C19.0514,161.267 19.2429,168.072 24.0263,168.094C24.8206,167.549 28.0554,165.501 30.8477,164.613C33.6399,163.725 35.8689,163.88 34.9056,167.975C34.0997,168.999 36.7239,170.396 35.9176,172.948Z" fill="#AEAEB0"/>
<path d="M245.909,171.965C247.722,172.483 248.733,171.514 248.816,170.13C248.899,168.745 248.13,166.884 246.985,165.904C247.605,167.087 246.324,170.311 245.909,171.965Z" fill="#7E7A79"/>
<path d="M313.036,172.091C317.487,167.249 329.822,177.355 330.097,165.004L332,163C330.564,163 326.909,163.096 327.02,163.096C323.923,161.706 321.503,160.392 318.981,157.904C319.198,159.322 317.899,159.781 316.44,159.907C314.981,160.033 313.383,159.824 313.003,159.903C308.543,158.729 307.229,161.897 307.736,165.219C308.244,168.541 310.605,172.204 313.036,172.091Z" fill="#3F4035"/>
<path d="M331.908,169.968C333.022,170.864 334.766,168.588 336.019,168.096L336,164L333,164L332,163L330.097,165C330.599,164.78 331.123,165.349 331.601,166.291C332.08,167.234 332.324,168.518 331.908,169.968Z" fill="#797B6B"/>
<path d="M0.0975,169C1.14854,168.773 5.57663,168.192 5.09338,164.972C3.65702,164.972 -0.111021,165.097 0,165.097L0.0975,169Z" fill="#818480"/>
<path d="M84,168L85.0975,167C83.5916,157.828 102.128,160.832 103.096,155.016C104.732,148.247 120.925,153.544 126.072,149.066C126.61,146.868 129.061,144.451 130.984,145.096L134.097,145C132.647,140.073 148.943,143.905 144.088,133.959C144.466,131.844 140.624,131.569 136.65,131.364C132.676,131.158 128.578,131.041 128.095,128.978C129.205,121.109 136.296,116.802 140.077,107.06L139.097,107C139.134,106.091 138.75,104.971 138.304,104.161C137.859,103.352 137.192,102.78 136.937,102.926C133.863,117.488 124.489,124.526 114.942,128.922C111.191,138.607 96.8984,140.632 85.0023,137.903C87.2144,138.304 87.9037,140.024 87.6191,141.37C87.3346,142.716 86.092,143.69 84.0181,142.904L82.9025,140C81.1208,140.618 79.8322,143.796 78.0233,142.905L77,144L75.9025,146C79.5892,154.545 67.4918,159.636 82.9772,167.095L84,168Z" fill="#C1BFC5"/>
<path d="M6.9025,167C9.40993,167.139 13.9654,165.639 14.0974,162.004C14.6382,160.429 14.1172,159.231 13.3629,158.564C12.6086,157.898 11.4661,157.679 10.9424,157.921C11.0346,158.123 10.6067,158.784 10.0016,159.434C9.39643,160.083 8.61802,160.717 7.94637,160.919C7.56337,162.604 4.50815,164.082 4.92576,165.063L6.9025,167Z" fill="#6F7267"/>
<path d="M84.9074,167.03L88.0975,167C95.2133,163.388 111.9,170.368 118.062,164.075C123.195,161.552 122.873,158.241 119.559,156.17C116.245,154.1 109.824,153.112 102.947,154.918C101.98,160.734 83.4015,157.859 84.9074,167.03Z" fill="#A3A2A8"/>
<path d="M0,165C1.43637,165 5.15177,164.911 5.04075,164.911C4.62314,163.93 7.70976,162.715 8.09276,161.03C5.22593,159.804 4.87386,164.682 0.0175572,162.904L0,165Z" fill="#A2A5A6"/>
<path d="M54.9025,164C55.7522,164.425 57.6043,163.997 58.7398,163.138C59.8752,162.279 60.4414,160.905 59.0499,159.916C58.0688,159.499 56.6743,162.52 54.989,162.903L54.9025,164Z" fill="#898A8F"/>
<path d="M333,164L336.097,164C333.549,158.702 337.692,157.577 341.562,156.541C345.432,155.506 349.008,154.501 345.077,149.94C342.715,144.39 341.836,135.74 336.014,134.904C330.651,134.09 328.454,137.272 328.752,140.639C329.05,144.006 331.784,147.741 335.956,148.087C337.597,152.018 326.131,156.432 331.952,163.085L333,164Z" fill="#3C3F23"/>
<path d="M229,163C230.278,163 235.302,163.089 238.039,163.089C238.199,162.789 239.825,163.068 241.495,163.153C243.166,163.238 244.934,163.069 245.093,162.029C239.941,162.029 232.816,161.903 229,161.903L229,163Z" fill="#979392"/>
<path d="M266.907,162.97L268.097,163C268.407,161.104 271.108,158.916 272.137,157.145C273.167,155.375 272.41,153.928 265.982,153.904C271.789,156.227 267.933,156.535 266.907,162.97Z" fill="#94928B"/>
<path d="M326.979,163.095C328.415,163.095 332.145,162.909 332.034,162.909C326.214,156.256 337.719,151.871 336.077,147.941C331.905,147.595 329.244,143.989 328.946,140.622C328.648,137.255 330.675,134.276 336.038,135.09C335.016,128.4 335.285,121.96 333.079,115.942C331.642,115.942 327.889,116.097 328,116.097L326,116L326.098,118C330.833,115.678 332.04,117.64 331.556,119.961C331.073,122.283 328.817,124.868 326.017,123.904L323.903,123C323.862,123.993 323.998,125.736 323.952,127.11C323.905,128.485 323.838,129.418 323.065,128.927C324.503,124.41 320.049,123.694 320.097,122.006C317.36,122.006 312.278,121.902 311,121.902L310.902,121C310.007,123.526 308.504,127.419 306.985,127.904L305.903,130C305.903,134.459 305.903,140.906 305.903,144C308.481,147.375 313.437,151.391 316.962,155.09C317.808,154.963 318.339,155.607 318.67,156.36C319,157.114 319.108,157.811 318.941,157.922C321.463,160.41 323.883,161.706 326.979,163.095Z" fill="#41442E"/>
<path d="M13.9196,161.945L15.0975,162C16.5729,159.117 16.8915,156.267 16.1888,155.087C15.4861,153.908 13.6347,154.306 10.97,157.907C11.4937,157.665 12.4795,158.044 13.2337,158.71C13.988,159.377 14.4604,160.37 13.9196,161.945Z" fill="#A9AAAB"/>
<path d="M227.979,161.905L229,162C232.816,162 239.848,162.097 245,162.097L244.902,161C240.857,161.488 232.024,160.105 227.979,161.905Z" fill="#9A9695"/>
<path d="M224.906,161.025C227.228,161.242 227.678,159.526 227.106,158.145C226.533,156.765 224.967,155.621 223.935,156.927C221.652,157.694 221.866,158.581 222.667,159.259C223.468,159.937 224.829,160.504 224.906,161.025Z" fill="#676362"/>
<path d="M312.965,159.909C313.346,159.83 314.998,160.227 316.457,160.101C317.916,159.975 319.314,159.402 319.096,157.985C319.461,156.902 318.942,156.051 318.358,155.551C317.774,155.051 316.938,154.879 316.91,154.962C316.146,155.476 314.296,158.502 312.965,159.909Z" fill="#93918B"/>
<path d="M162.904,157.983C175.15,160.56 168.125,148.575 183.999,153.097C193.043,150.631 200.432,144.112 207.072,138.065C206.192,134.785 208.316,132.108 208.091,130.964L206.097,131C201.071,129.766 204.914,126.527 205.097,124.007C207.053,117.968 202.235,114.102 197.862,111.599C193.488,109.097 189.512,108.035 193.049,107.084C192.377,105.888 191.235,106.056 190.257,106.648C189.279,107.239 188.433,108.075 188.018,107.904C184.049,108.048 181.535,111.714 177.992,110.903C176.757,111.413 174.319,112.98 174.027,112.906C171.352,111.993 171.656,110.694 172.704,109.444C173.751,108.195 175.557,107.176 176.043,107.088C177.578,105.201 182.618,104.677 185.036,105.091C186.114,102.056 190.499,100.305 193.022,100.095C202.714,96.2462 194.845,85.0492 208.007,83.0972L210.097,82C210.904,79.4481 208.246,78.1063 209.052,77.0823L206.903,77C206.732,79.9075 202.123,80.375 200.011,79.9031L199,79L198.097,79C197.359,73.548 190.793,71.9755 186.972,70.9066C184.576,74.7009 180.766,78.8715 177.933,80.9288C178.443,82.1643 179.985,84.6664 179.912,84.9577C180.905,84.9986 182.736,85.0018 184.11,85.0482C185.485,85.0947 186.417,85.1642 185.925,85.9374C187.749,86.8251 187.959,88.3624 187.491,89.6446C187.024,90.9267 185.993,91.9272 185.04,91.9109C183.938,89.934 181.475,87.053 178.984,87.9039L176.903,88C173.882,92.891 169.55,97.8297 161.969,96.9075C164.157,99.6247 161.665,103.623 159.95,103.916C159.989,105.155 158.81,105.699 157.443,105.918C156.077,106.137 154.564,106.017 153.991,105.903C152.755,106.413 150.318,107.979 150.026,107.906C147.474,107.1 146.072,109.721 145.048,108.915C142.662,108.271 143.219,107.497 144.337,106.566C145.455,105.636 147.181,104.611 147.095,103.978C145.224,103.647 143.053,103.62 141.622,104.1C140.192,104.58 139.318,105.625 139.91,107.038C136.129,116.78 129.014,121.118 127.903,128.986C128.386,131.049 132.666,131.353 136.64,131.558C140.614,131.764 144.281,131.867 143.904,133.982C148.759,143.928 132.461,140.116 133.912,145.043C135.947,145.449 140.38,145.046 143.794,144.967C147.207,144.887 149.614,145.022 147.927,146.936C147.234,147.748 151.253,148.545 155.291,150.037C159.329,151.529 163.364,153.764 162.904,157.983Z" fill="#B7B4B1"/>
<path d="M31.9998,157.097C37.9625,153.962 39.0748,143.423 47.0447,141.087C48.4128,139.718 51.67,137.999 53.0383,138.09C53.7021,136.552 55.1732,136.086 56.3976,136.359C57.6219,136.633 58.4728,137.516 57.9115,138.959C59.8413,140.539 61.2108,138.812 62.4509,136.51C63.691,134.207 64.9348,131.458 67.0445,131.087C69.0391,128.042 68.6527,125.287 67.3241,123.998C65.9955,122.71 63.5996,122.748 61.9193,124.945C62.1372,128.241 57.4294,128.686 57.0058,129.903C56.8947,129.296 56.1146,128.839 55.3607,128.509C54.6067,128.179 53.91,128.162 54.0368,128.09C52.1799,127.67 50.7872,129.799 50.0017,128.903C45.8401,133.339 38.7138,136.361 34.9278,139.934C34.1737,141.638 31.9099,145.124 30.601,148.551C29.2921,151.978 29.01,155.509 31.9998,157.097Z" fill="#757766"/>
<path d="M-0.0975,152C1.74358,152.749 5.40082,147.892 8.01504,151.096C7.14186,147.471 9.01156,145.056 11.0318,144.382C13.052,143.708 15.1157,144.646 14.9079,147.968C19.1154,144.467 24.4208,139.292 26.0942,132.025C28.345,129.817 30.9091,126.076 33.0221,125.095L32.0975,125C32.0697,124.31 31.3531,123.64 30.7688,123.14C30.1846,122.64 29.6731,122.399 30.0381,122.09L27.9025,123C23.4861,125.119 18.2495,128.014 15.926,130.936C11.3908,134.999 5.5458,139.161 -0.0548831,140.919C-0.0548831,144.341 -0.0975,149.996 -0.0975,152Z" fill="#7A7C66"/>
<path d="M7.9109,151.04C9.69794,151.186 12.8944,148.992 15.0586,148.078C15.2664,144.756 12.9903,143.523 10.9701,144.197C8.94984,144.871 7.03772,147.414 7.9109,151.04Z" fill="#838571"/>
<path d="M347.097,151C356.909,137.829 337.871,131.16 342.095,114.023C341.321,108.483 346.136,102.662 348.615,97.5019C351.095,92.342 351.185,87.7317 341.042,84.9119C338.383,82.6802 333.99,79.2989 334.097,73.0017C334.392,68.406 335.342,61.5693 339.047,59.0852C344.32,56.9984 350.854,53.4147 354.085,48.0481C356.228,40.4011 364.57,36.6234 374.028,35.0935C377.591,33.4104 380.054,27.5716 383.077,24.0597C384.79,19.8186 389.053,15.3197 396.045,15.0866C396.045,12.3495 396.098,7.27814 396.098,6C389.618,7.77542 382.663,10.6185 377.951,12.9157C374.629,15.438 363.932,12.4224 361.92,14.9441C362.241,32.1094 353.162,19.6534 343.934,25.9286C341.137,38.0078 343.147,55.8469 319.97,48.9072C327.222,63.9895 312.88,73.6119 320.918,85.0522C319.205,101.145 336.624,99.0388 332.905,115.979C335.111,121.997 334.883,128.335 335.906,135.025C341.728,135.861 342.564,144.513 344.926,150.063L347.097,151Z" fill="#373C20"/>
<path d="M125.903,150C130.312,150.908 128.761,148.658 131.032,147.092L130,147L131.097,145C129.174,144.355 126.451,146.759 125.912,148.957L125.903,150Z" fill="#B6B4BA"/>
<path d="M241.985,148.096L243.097,148C242.555,145.453 244.946,142.413 248.043,142.088C246.125,138.659 241.83,139.151 239.464,141.085C237.098,143.02 236.603,146.406 241.985,148.096Z" fill="#5E5954"/>
<path d="M130,147L131,147C135.175,147 142.536,147.091 148.034,147.091C149.722,145.178 147.202,144.692 143.789,144.772C140.376,144.851 136.044,145.309 134.01,144.903L131,145L130,147Z" fill="#B0ADB3"/>
<path d="M75.9116,143.959L77,144L78,143L77.0975,143C77.9477,139.972 77.0712,137.237 75.6826,135.659C74.2939,134.081 72.2306,133.587 70.9349,134.927C72.8462,136.11 77.2678,138.143 75.9116,143.959Z" fill="#BEBDC2"/>
<path d="M304.926,144.064L306.097,144C306.097,140.906 306.097,134.459 306.097,130C305.225,129.845 303.843,129.761 302.929,129.931C302.014,130.101 301.4,130.593 301.932,131.07C302.703,132.059 299.136,132.515 299.908,135.032C301.109,136.231 301.546,140.512 301.92,141.056C301.489,141.596 302.138,142.069 302.93,142.532C303.722,142.995 304.663,143.454 304.926,144.064Z" fill="#515245"/>
<path d="M47.9025,143C49.7941,143.613 53.5533,142.297 55.0654,141.072C54.744,140.675 54.428,139.624 54.0887,138.879C53.7494,138.134 53.2754,137.537 52.954,137.914C51.5856,137.824 48.3245,139.544 46.9564,140.913L47.9025,143Z" fill="#BEC0B7"/>
<path d="M76.915,142.952L77.9025,143C79.7114,143.891 81.235,140.714 83.0167,140.096L84.9025,138C96.7986,140.729 111.335,138.731 115.086,129.046C124.634,124.65 134.016,117.6 137.09,103.038L136.098,101C135.834,100.391 134.82,99.8264 134.028,99.3637C133.237,98.901 132.621,98.6225 133.052,98.0826L132.097,98C131.171,96.8582 130.503,92.9698 130.007,92.9027L129.097,93C128.03,87.8778 118.434,89.5875 120.087,83.044L117.097,83C116.521,81.3526 115.275,80.2282 114.68,79.3553C114.085,78.4825 114.064,77.9564 116.021,77.0952L111.903,77C107.096,78.7284 104.462,84.0947 101.027,85.9064C100.275,81.5067 95.9197,78.8547 94.0448,76.9134L93.0975,77C94.0091,73.8127 90.1161,72.1254 87.2211,70.8733C84.3261,69.6212 82.3643,68.8962 87.0327,67.0919C83.575,65.9902 81.2292,61.8863 81.0134,57.9084C80.7976,53.9304 82.7119,50.0783 88.0329,49.0918C89.1304,48.4201 89.0715,47.4739 88.62,46.8688C88.1685,46.2637 87.2659,45.8138 86.9742,45.906C85.1173,46.3266 83.7372,44.0188 82.9517,44.9153L80.9025,46C79.4664,46.6321 77.0174,48.3643 75.9924,47.9028C72.2736,50.374 67.3643,53.3517 64.0295,54.9071C64.2159,51.6842 62.3249,49.6666 61.3074,48.1948C60.2899,46.723 60.1683,45.9725 64.0518,45.0826C63.9226,41.8751 70.073,42.5759 68.0689,38.931C57.1874,37.9809 70.9748,35.1687 64.9881,31.9032C62.6672,34.1399 58.7299,36.1271 55.2148,36.4366C51.6997,36.7462 48.7062,35.4318 48.0874,30.9569C40.965,34.4028 36.684,25.2068 32.928,30.9342C29.2246,32.383 25.7227,35.8297 22.9812,36.9043L22.9025,38C23.8771,44.4627 20.4441,46.1414 15.9423,47.9214C15.9145,48.6118 15.2264,49.2116 14.6421,49.7116C14.0578,50.2117 13.5856,50.7746 13.9506,51.084C16.3966,51.7163 18.4943,54.9979 21.0483,54.0847C22.8218,52.1487 27.9211,55.9314 28.9925,56.0972L31.0975,55C32.5337,51.5667 33.8759,51.0236 35.0146,51.8204C36.1532,52.6172 36.8935,54.7553 36.9025,57.0013C38.2238,56.3982 39.158,56.8272 39.6581,57.4115C40.1582,57.9957 40.258,58.66 39.9364,58.9261C41.6507,60.5592 40.8708,61.9499 39.4215,62.8663C37.9722,63.7827 35.9328,64.2023 35.0157,63.9038L34.9025,63C33.8372,64.0029 31.4437,65.7475 30.0478,64.915C29.5716,64.673 29.2923,63.7898 29.1226,62.8752C28.9529,61.9605 28.8749,61.1922 29.0298,61.0928L28,61L25.9025,63C24.887,65.4063 22.8638,68.8256 21.95,69.9163L23.0975,71C27.5159,69.3188 27.9541,73.8951 29.0372,74.0901C28.9102,73.245 29.6065,72.6607 30.3604,72.3303C31.1144,71.9999 31.8847,71.9306 31.996,72.0974C35.4007,67.7665 37.1206,68.6342 37.301,70.6952C37.4813,72.7562 36.0985,75.8197 32.9723,75.9065C23.5661,82.3265 23.7022,103.814 17.9693,109.907C21.7936,108.82 23.6811,112.068 23.9458,113.081C25.4579,111.856 29.1368,110.48 31.0284,111.093C32.7572,107.77 38.6392,105.528 41.9649,108.091L44.0975,106C46.5305,98.4382 51.417,97.9277 53.8304,99.7742C56.2439,101.621 56.0334,105.742 47.9468,107.918C47.7482,111.142 43.0293,111.963 40.9691,111.908C39.4062,113.423 38.371,117.848 38.9053,120.023C39.8458,125.618 47.0053,126.789 49.9544,129.086C51.8113,129.507 53.2198,127.201 54.0053,128.097C54.9297,126.755 56.601,125.04 58.1842,124.149C59.7674,123.257 61.2393,123.189 61.9819,125.096C63.6622,122.898 65.8598,122.85 67.1884,124.138C68.5169,125.427 68.9355,127.878 66.9409,130.922L69,133L70,134L71.0975,135C72.3931,133.66 74.1475,134.21 75.5362,135.788C76.9248,137.366 77.7652,139.924 76.915,142.952Z" fill="#D6D5D3"/>
<path d="M83.9025,143C85.9764,143.786 87.5253,142.757 87.8099,141.411C88.0945,140.065 87.2209,138.304 85.0088,137.903L83,140L83.9025,143Z" fill="#76757B"/>
<path d="M-0.0975,141C5.50319,139.242 11.5367,135.129 16.0719,131.066C15.8707,130.394 15.2159,129.461 14.5665,128.856C13.9171,128.251 13.1626,127.818 12.9613,127.91C9.52109,129.276 3.55367,130.018 0.983448,130.904L-0.0975,130C-0.0975,133.422 -0.0975,138.996 -0.0975,141Z" fill="#B8B9B5"/>
<path d="M55.0664,141.071C55.7568,141.044 56.3598,140.353 56.8598,139.769C57.3598,139.185 57.7032,138.732 58.0126,139.097C58.5739,137.654 57.6645,136.443 56.4401,136.169C55.2158,135.895 53.5848,136.405 52.9209,137.943C53.528,138.054 53.9821,138.964 54.3125,139.718C54.6429,140.472 54.995,141.198 55.0664,141.071Z" fill="#BDBEB6"/>
<path d="M300.95,141.084L302.097,141C301.723,140.456 301.218,136.102 300.017,134.904C299.193,135.333 298.956,136.504 299.225,137.673C299.493,138.842 300.199,140.19 300.95,141.084Z" fill="#535347"/>
<path d="M33.9631,140.09L35.0975,140C38.8835,136.427 45.9067,133.506 50.0683,129.07C47.1193,126.773 40.0244,125.545 39.0838,119.95C36.7624,121.051 34.6491,124.581 32.971,124.907C30.858,125.888 28.2089,129.704 25.9581,131.912C29.8543,131.832 31.1296,137.772 33.9631,140.09Z" fill="#BEBFC0"/>
<path d="M207.902,139C210.816,139.579 212.014,137.79 211.787,135.756C211.56,133.722 209.971,131.352 207.964,130.909C208.19,132.053 206.034,134.766 206.914,138.046L207.902,139Z" fill="#686361"/>
<path d="M283.044,136.087C283.834,129.725 280.531,123.115 297.028,123.093C302.23,119.172 306.736,125.218 306.904,128.017C308.423,127.531 310.184,123.582 311.08,121.056L311,118L308.098,118C308.708,106.062 293.387,108.763 290.076,101.939C287.508,101.439 286.758,105.071 285.031,103.908L285,103L283.902,103C284.518,105.563 281.661,108.328 278.993,108.903C276.141,108.713 273.779,106.309 272.762,103.624C271.745,100.938 272.135,98.1482 275.055,97.0808C275.565,95.8452 277.16,93.2475 277.087,92.9562L277,90L274,89L273,88L271,88L270.097,87C263.485,85.1931 262.881,91.3592 260.973,92.9064C262.231,92.6817 262.668,93.8936 262.856,95.1265C263.044,96.3595 262.914,97.6997 262.903,97.9926L261.903,100C262.898,102.706 262.064,103.973 260.619,104.6C259.174,105.226 257.223,105.115 256.008,104.903L254.903,107C254.854,110.127 259.349,110.881 257.911,113.96C258.8,119.025 266.242,120.564 271.948,122.082C273.484,127.555 274.546,136.33 283.044,136.087Z" fill="#595949"/>
<path d="M1.0975,131C3.66772,130.114 9.60955,129.449 13.0498,128.084C15.6871,125.223 18.9227,120.975 18.0925,115.969L17,116L15.9025,115C9.11919,115.785 5.96758,121.62 -0.0453228,121.914C-0.0453228,124.313 -0.0975,129.082 -0.0975,130L1.0975,131Z" fill="#A3A293"/>
<path d="M15.9715,131.093C18.295,128.171 23.6064,125.214 28.0227,123.095L27.0975,123C25.2189,120.953 26.2711,119.133 28.0405,118.068C29.8099,117.003 32.2112,116.79 33.0123,118.097C32.606,115.766 29.8717,113.543 31.079,111.057C29.1874,110.444 25.4466,111.703 23.9345,112.928C22.7183,114.449 20.3629,117.021 17.971,115.907C18.8012,120.912 15.6149,125.044 12.9777,127.905C13.1789,127.813 13.7842,128.393 14.4336,128.998C15.083,129.604 15.7704,130.422 15.9715,131.093Z" fill="#AEADA3"/>
<path d="M205.988,131.097L208.097,131C208.374,129.445 208.095,124.629 207.062,122.925L204.903,124C204.719,126.52 200.962,129.863 205.988,131.097Z" fill="#8A8685"/>
<path d="M224.965,131.091C229.971,131.29 228.298,128.08 224.91,125.007C221.521,121.934 216.45,118.809 214.997,118.903L212,119L210.903,120C215.008,122.904 220.182,127.618 224.965,131.091Z" fill="#6E6A66"/>
<path d="M298.018,131.096C299.051,129.162 300.042,126.565 302.004,131.097C301.667,130.042 302.824,129.933 303.993,130.017C305.161,130.101 306.375,130.191 306.038,129.91L307.097,128C306.93,125.202 302.153,118.995 296.951,122.916C299.723,123.887 295.893,129.559 298.018,131.096Z" fill="#747664"/>
<path d="M57.0186,129.904C57.4422,128.687 62.3152,128.29 62.0973,124.993C61.3547,123.087 59.6718,123.088 58.0886,123.979C56.5053,124.87 54.8476,126.598 53.9232,127.94C54.3199,128.261 55.2948,128.749 56.0399,129.089C56.7849,129.428 57.3955,129.583 57.0186,129.904Z" fill="#C4C3C8"/>
<path d="M322.91,128.963C323.683,129.455 324.1,128.491 324.147,127.117C324.193,125.742 324.056,124.001 324.097,123.008L323.097,123C322.201,121.395 321.444,119.287 321.539,117.755C321.635,116.224 322.506,115.366 325.02,116.095C322.762,113.958 321.118,114.628 320.289,116.316C319.461,118.003 319.337,120.651 319.909,122.036C319.861,123.725 324.348,124.446 322.91,128.963Z" fill="#474C30"/>
<path d="M246.999,128.097C247.481,120.599 250.7,117.521 258.058,114.079C259.496,110.999 255.049,110.13 255.097,107.003L253.097,107C252.715,105.315 249.657,104.044 250.074,103.063L247.097,103C246.699,102.365 245.376,101.924 244.346,101.533C243.316,101.142 242.556,100.863 243.075,100.062C238.739,97.7873 230.119,95.2254 226.922,98.9416C228.195,105.971 217.758,111.57 224.966,117.091C229.918,116.985 228.771,117.971 227.226,119.446C225.681,120.921 223.731,122.883 226.959,124.088C228.344,124.931 233.29,123.54 237.891,123.13C242.492,122.72 246.79,123.299 246.999,128.097Z" fill="#BEB8B2"/>
<path d="M31.9619,124.91L33.0975,125C34.7756,124.674 36.7382,121.177 39.0597,120.077C38.5254,117.902 39.5111,113.579 41.074,112.064C40.6534,110.207 42.9594,108.711 42.0629,107.925C38.7371,105.363 32.6422,107.632 30.9134,110.955C29.7061,113.441 32.4976,115.686 32.904,118.017C32.521,119.702 29.4921,121.056 29.9097,122.037C29.9375,122.727 30.6469,123.36 31.2312,123.86C31.8154,124.36 32.3269,124.601 31.9619,124.91Z" fill="#7D8066"/>
<path d="M204.918,123.947L207.097,123C207.097,121.564 206.903,117.889 206.903,118C206.581,117.603 206.428,116.624 206.089,115.879C205.749,115.134 205.272,114.539 204.951,114.916L204.097,117C203.075,114.121 203.717,111.939 204.934,110.783C206.152,109.626 207.83,109.591 208.984,111.096C205.998,108.929 205.673,102.034 203.987,99.9033C202.944,102.973 195.452,101.792 194.905,103.977C194.878,104.667 194.226,105.212 193.642,105.712C193.058,106.212 192.585,106.774 192.95,107.084C189.412,108.035 193.392,109.266 197.765,111.769C202.138,114.271 206.874,117.908 204.918,123.947Z" fill="#ADA8A2"/>
<path d="M325.903,124C328.703,124.964 331.263,122.323 331.747,120.001C332.231,117.679 330.682,115.596 325.947,117.918C324.944,118.984 323.105,121.679 323.937,123.075L325.903,124Z" fill="#959987"/>
<path d="M26.9533,123.086L28,123L30.0975,122C29.6799,121.019 32.7118,119.708 33.0948,118.023C32.2937,116.716 29.7094,116.836 27.94,117.901C26.1706,118.966 25.0748,121.038 26.9533,123.086Z" fill="#C5C6BC"/>
<path d="M322.935,123.073L324.097,123C323.265,121.604 325.043,119.151 326.046,118.086L326,116L325.097,116C322.583,115.271 321.44,116.212 321.345,117.743C321.249,119.275 322.039,121.468 322.935,123.073Z" fill="#60644C"/>
<path d="M-0.0975,122C5.91541,121.706 9.2638,115.87 16.0471,115.085C15.5474,112.517 19.2423,111.67 18.0792,109.943C23.8121,103.849 23.6603,82.4913 33.0665,76.0713C33.4871,74.2144 31.1566,72.8672 32.0532,72.0817C30.9699,71.7167 30.051,72.0576 29.5509,72.6418C29.0508,73.2261 28.8663,74.0556 28.9498,74.0836C27.4041,76.3048 23.5618,78.0814 22.0159,78.9038C19.0133,75.372 24.1428,74.0146 23.0802,70.9445L22,70L20.0975,70C18.7565,69.2728 16.9682,66.72 17.0917,66.033L16.0975,66C12.0616,61.7003 20.1854,60.0186 19.0815,56.9465C14.1884,56.5126 12.575,61.3481 9.04744,60.9148C8.93635,60.3077 8.11461,59.8393 7.36066,59.5089C6.60672,59.1785 5.88106,59.1685 6.00792,59.0972C3.76325,59.9308 2.31874,63.6205 -0.0339211,62.9086C-0.0339211,71.5065 -0.0975,81.6409 -0.0975,89L3.0975,88C3.89077,86.0562 8.288,85.6325 10.0273,86.0936C12.5501,82.4848 16.8687,80.2064 19.4087,80.0925C21.9487,79.9786 22.6063,81.8754 17.9233,86.9398C18.8583,95.067 7.88834,99.2348 4.91275,104.956C4.42289,106.696 4.15268,109.171 3.5177,111.092C2.88272,113.012 1.93369,114.333 -0.0365241,113.91C-0.0365241,116.309 -0.0975,121.082 -0.0975,122Z" fill="#8A8971"/>
<path d="M311,122C312.278,122 317.304,122.089 320.041,122.089C319.469,120.703 319.636,118.089 320.464,116.401C321.293,114.713 322.7,113.951 324.958,116.088L326,116L328.097,116C328.539,111.792 324.143,110.171 323.036,108.909C319.131,109.81 316.896,114.338 313.005,113.903L311.903,112C312.522,114.688 311.398,117.755 310.983,117.904L311,121L311,122Z" fill="#4B4F35"/>
<path d="M68.9171,120.051C70.8085,120.892 72.6183,120.205 73.473,119.269C74.3276,118.334 74.3507,117.009 73.0408,116.911C72.1994,115.587 70.9568,116.069 70.1023,117.005C69.2478,117.941 68.6575,119.47 68.9171,120.051Z" fill="#ABAAA9"/>
<path d="M153.941,120.078C157.238,120.935 160.603,120.307 162.655,119.026C164.708,117.745 165.537,115.641 164.03,113.907C162.221,114.539 158.854,115.122 156.404,116.006C153.955,116.89 152.333,118.243 153.941,120.078Z" fill="#6E6B6A"/>
<path d="M209,120L211,120L212.097,119C213.203,115.494 208.967,115.088 210.073,113.065C208.77,112.796 207.07,112.647 205.971,112.969C204.872,113.291 204.238,114.093 204.937,115.074C205.544,115.185 205.982,115.964 206.313,116.718C206.643,117.472 206.993,118.2 207.065,118.073L209,120Z" fill="#77726D"/>
<path d="M211.918,118.948L214.903,119C217.572,119.301 222.376,118.183 225.046,117.086C217.837,111.564 228.365,105.995 227.091,98.9657C224.447,99.0582 221.041,100.682 218.985,99.9037C218.341,100.46 217.02,100.939 215.906,101.41C214.793,101.882 213.807,102.462 213.904,103.019C218.742,108.447 206.043,105.888 209.939,112.076L209.903,113C208.797,115.024 213.023,115.442 211.918,118.948Z" fill="#AFA7A2"/>
<path d="M307.903,117.99L311.097,118C311.512,117.851 312.712,114.655 312.092,111.967C309.159,111.133 310.22,104.24 310.097,101.995C311.292,96.3407 307.643,93.3183 303.952,93.915C304.542,95.705 303.563,96.4617 302.289,96.7725C301.014,97.0832 299.521,96.9399 299.029,96.9069C297.489,95.8789 297.831,95.1932 298.493,94.5264C299.154,93.8597 300.185,93.2498 300.08,92.9448L297,93L295,91L294.098,91C289.692,88.1696 279.429,87.5672 276.958,89.9119L276.903,93C280.172,95.2411 287.476,93.9705 287.903,100.014L289.903,102C293.213,108.824 308.513,106.052 307.903,117.99Z" fill="#ABAC9F"/>
<path d="M203.921,117.056L205.097,115C204.399,114.019 204.927,113.478 206.026,113.156C207.125,112.834 208.687,112.828 209.99,113.097L210,112L209,112L209.097,111C207.943,109.495 206.017,109.485 204.8,110.641C203.583,111.798 202.898,114.178 203.921,117.056Z" fill="#736E69"/>
<path d="M17,116L17.9025,116C20.2944,117.114 22.8632,114.578 24.0793,113.057C23.8147,112.043 21.7758,108.828 17.9515,109.915C19.1146,111.642 15.4094,112.467 15.9091,115.035L17,116Z" fill="#B8B7AD"/>
<path d="M327.905,115.98C329.341,115.98 333.154,115.912 333.043,115.912C336.762,98.9725 319.384,101.104 321.097,85.0113C313.059,73.5709 327.322,64.0147 320.07,48.9324L321.097,47C313.632,45.3791 318.394,57.7991 312.969,56.9074C311.11,59.507 303.812,58.8493 304.914,63.0453L304.903,67C305.927,79.001 319.811,79.2174 315.905,94.9764C315.117,97.5106 316.886,99.8135 316.904,100.014C322.74,100.854 322.385,106.456 322.905,109.022C324.012,110.283 328.346,111.772 327.905,115.98Z" fill="#3E4326"/>
<path d="M-0.0975,114C1.87272,114.423 3.06786,113.074 3.70284,111.153C4.33782,109.232 4.59509,106.788 5.08496,105.048L3,105L3,103L-0.0975,104C-0.0975,107.078 -0.0975,112.359 -0.0975,114Z" fill="#8B8A73"/>
<path d="M312.903,114C316.794,114.435 319.146,109.984 323.051,109.083C322.531,106.517 322.798,100.75 316.961,99.9104C317.137,101.454 315.661,101.867 313.987,101.941C312.313,102.015 310.424,101.76 309.945,101.92C310.067,104.165 309.053,111.262 311.986,112.097L312.903,114Z" fill="#474937"/>
<path d="M173.972,113.093C174.263,113.167 176.821,111.59 178.056,111.08C177.546,109.844 176.01,107.342 176.083,107.051C175.597,107.14 173.602,108.07 172.554,109.319C171.507,110.569 171.296,112.18 173.972,113.093Z" fill="#7A7674"/>
<path d="M40.9595,112.089C43.0198,112.144 47.8981,111.235 48.0968,108.012L47.0975,108C47.2245,107.155 46.4718,106.482 45.7178,106.152C44.9639,105.821 44.0528,105.755 43.9415,105.922L41.9025,108C42.3231,109.857 40.063,111.303 40.9595,112.089Z" fill="#CCCCC3"/>
<path d="M209,112L210.097,112C206.201,105.812 218.885,108.343 214.048,102.915L213.098,103C210.387,102.289 210.143,96.7423 207.974,96.9059C207.297,97.2629 206.143,97.7517 205.247,98.2768C204.351,98.8019 203.653,99.5021 203.913,100.045C205.599,102.175 205.981,108.925 208.967,111.092L209,112Z" fill="#9F9A93"/>
<path d="M177.919,111.054C181.461,111.865 184.075,108.231 188.043,108.087C187.842,107.416 187.216,106.461 186.567,105.856C185.917,105.251 185.188,104.811 184.987,104.903C182.569,104.49 177.456,105.056 175.921,106.943C175.848,107.234 177.409,109.818 177.919,111.054Z" fill="#939090"/>
<path d="M79.9234,109.94C82.0214,110.784 83.0664,108.971 83.2275,106.945C83.3886,104.918 82.706,102.648 81.9636,102.91C78.7055,104.446 81.3248,107.447 79.9234,109.94Z" fill="#A9A7A9"/>
<path d="M144.96,109.089C145.984,109.895 147.48,107.286 150.032,108.092C150.821,105.557 146.454,105.897 148.048,104.085L146.902,104C146.988,104.633 145.33,105.486 144.212,106.417C143.094,107.347 142.574,108.444 144.96,109.089Z" fill="#8A8889"/>
<path d="M279.007,109.097C281.675,108.522 284.703,105.521 284.088,102.958L283.097,103C279.614,102.024 278.077,96.9048 274.984,96.9039C272.064,97.9713 271.563,101.007 272.58,103.693C273.597,106.378 276.155,108.908 279.007,109.097Z" fill="#A2A495"/>
<path d="M46.9839,107.904L48.0975,108C56.1841,105.824 56.3623,101.466 53.9489,99.6193C51.5355,97.7728 46.3629,98.3704 43.93,105.932C45.0132,105.567 45.8009,106.184 46.301,106.769C46.801,107.353 47.0674,107.876 46.9839,107.904Z" fill="#92917C"/>
<path d="M149.913,107.957C150.204,108.03 152.784,106.606 154.02,106.095L153.098,103C151.154,100.008 148.755,104.191 147.979,103.905C146.385,105.717 150.702,105.422 149.913,107.957Z" fill="#918F8F"/>
<path d="M187.91,108.038C188.326,108.209 189.38,107.406 190.358,106.814C191.336,106.223 192.341,105.901 193.013,107.097C193.04,106.406 193.774,105.788 194.358,105.288C194.942,104.788 195.436,104.242 195.071,103.933C195.842,101.415 192.277,101.074 193.049,100.085C190.526,100.294 186.018,101.888 184.94,104.923C185.141,104.831 185.784,105.393 186.434,105.998C187.083,106.604 187.709,107.367 187.91,108.038Z" fill="#787673"/>
<path d="M138.903,106.992L140.097,107C139.506,105.588 140.254,104.764 141.684,104.285C143.115,103.805 145.142,103.765 147.013,104.097C145.161,103.211 146.372,96.8803 146.055,95.9195C143.072,97.742 137.354,98.8767 135.943,100.921L137.097,103C137.353,102.854 137.688,103.446 138.133,104.255C138.579,105.065 138.939,106.083 138.903,106.992Z" fill="#BEBCBC"/>
<path d="M252.911,107.04L255,107L256.097,105C256.125,104.31 256.774,103.788 257.358,103.288C257.942,102.788 258.403,102.22 258.038,101.91L257.097,102C257.463,100.917 256.942,100.051 256.358,99.5509C255.774,99.0508 254.941,98.8724 254.913,98.9559C253.876,99.2875 252.502,99.7709 251.432,100.449C250.362,101.127 249.59,102.074 249.908,103.031C249.49,104.012 252.528,105.355 252.911,107.04Z" fill="#7F7361"/>
<path d="M153.903,106C154.476,106.114 156.108,106.329 157.474,106.111C158.841,105.892 160.136,105.235 160.097,103.997C160.07,103.307 159.353,102.64 158.769,102.14C158.185,101.64 157.615,101.405 157.98,101.095C157.76,101.91 156.257,101.81 154.929,101.903C153.601,101.996 152.408,102.263 152.941,103.077L153.903,106Z" fill="#807F7B"/>
<path d="M3,105L5.0975,105C8.07309,99.2783 19.0241,95.0878 18.0892,86.9606C16.5332,87.8044 12.8858,88.9232 11.9569,88.9125C11.316,95.84 2.76063,96.5557 2.90259,103.004L3,105Z" fill="#C8C6BC"/>
<path d="M255.954,105.086C257.169,105.298 259.251,105.405 260.696,104.779C262.142,104.152 263.058,102.631 262.062,99.925C260.809,100.417 259.092,102.802 257.977,101.905C257.95,102.596 257.226,103.212 256.642,103.712C256.058,104.212 255.589,104.776 255.954,105.086Z" fill="#908778"/>
<path d="M-0.0975,104L3.0975,103C2.95553,96.5514 11.455,95.9452 12.0959,89.0177L11.0975,89C7.54498,88.8693 6.95921,93.8213 4.04933,92.9159C3.37895,91.944 2.8326,90.9459 2.57972,90.0358C2.32683,89.1258 2.34475,88.4816 3.02667,88.0938L-0.0975,89C-0.0975,93.8057 -0.0975,100.544 -0.0975,104Z" fill="#8B8A76"/>
<path d="M27.9245,104.062C30.0411,103.697 32.7709,102.214 34.5342,100.435C36.2976,98.6563 37.2231,96.438 36.0531,94.9182L33,95L31.9025,94C30.9548,97.5116 26.3621,99.405 27.9245,104.062Z" fill="#898871"/>
<path d="M146.977,104.095L147.903,104C148.678,104.287 151.056,100.105 153,103.097C152.468,102.283 153.615,102.19 154.943,102.097C156.271,102.004 157.866,101.86 158.086,101.046C159.107,101.033 159.611,99.9084 159.98,98.856C160.349,97.8036 160.475,96.8729 160.979,97.0952L160,95L159.097,95C158.435,90.5101 150.244,91.4457 146.964,90.9095C147.77,93.4614 145.115,95.0325 145.921,96.0566C146.238,97.0174 145.126,103.209 146.977,104.095Z" fill="#C6C4C0"/>
<path d="M159.971,103.907C161.685,103.614 164.239,99.6344 162.051,96.9172L161.097,97C160.593,96.7777 160.165,97.7391 159.796,98.7915C159.427,99.8439 158.977,100.9 157.956,100.913C157.984,101.603 158.647,102.36 159.231,102.86C159.815,103.36 160.336,103.598 159.971,103.907Z" fill="#89887F"/>
<path d="M195.002,103.903C195.549,101.718 203.049,103.101 204.092,100.032C203.831,99.4896 204.45,98.9702 205.346,98.445C206.242,97.9199 207.383,97.4336 208.06,97.0765C206.833,93.9657 209.131,93.9419 211.494,94.0723C213.858,94.2028 216.295,94.3413 215.068,91.9305L213,90L211.097,90C210.652,87.3676 208.034,84.7122 208.097,83.0084C194.934,84.9604 202.641,96.0684 192.948,99.9172C192.177,100.907 195.774,101.385 195.002,103.903Z" fill="#828075"/>
<path d="M284.903,104C286.629,105.163 287.423,101.597 289.991,102.097L288.097,100C287.077,99.8519 286.413,100.786 286.055,101.682C285.698,102.579 285.585,103.349 285.036,102.909L284.903,104Z" fill="#6D6F61"/>
<path d="M212.987,103.097L214.097,103C214,102.443 214.869,102.061 215.982,101.59C217.096,101.118 218.419,100.632 219.062,100.075C215.81,97.629 221.764,95.4759 220.058,92.922L218,93L214.903,92C216.129,94.4108 213.868,94.0081 211.505,93.8776C209.141,93.7472 206.699,93.9527 207.926,97.0635C210.094,96.8999 210.276,102.386 212.987,103.097Z" fill="#85847B"/>
<path d="M246.939,103.076L250.097,103C249.78,102.043 250.466,101.291 251.536,100.614C252.606,99.9356 253.969,99.4289 255.006,99.0973C252.995,99.4662 252.381,98.4175 252.282,97.3542C252.182,96.2908 252.604,95.212 253.014,95.0965L252.097,94C249.278,93.4835 244.942,92.0451 243.913,93.9553C244.828,96.9378 242.37,98.9376 242.913,100.044C242.394,100.845 243.247,101.324 244.277,101.715C245.307,102.106 246.54,102.441 246.939,103.076Z" fill="#877967"/>
<path d="M282.986,103.097L284,103L284.903,103C285.451,103.44 285.879,102.652 286.236,101.755C286.594,100.858 287.018,99.9414 288.039,100.09C287.612,94.0464 280.246,95.1464 276.977,92.9053C277.05,93.1966 275.435,95.7024 274.925,96.9379C278.018,96.9388 279.503,102.121 282.986,103.097Z" fill="#6F7164"/>
<path d="M256.969,101.908L257.903,102C259.017,102.896 260.766,100.588 262.019,100.096L263,98L262.097,98C261.479,96.2183 258.179,94.8773 259.069,93.0684L257.903,93C257.394,94.5596 253.883,95.2189 253.003,94.9026C252.594,95.018 251.988,96.309 252.087,97.3724C252.187,98.4357 253.005,99.4651 255.016,99.0962C255.861,98.9692 256.339,99.6065 256.67,100.36C257,101.114 257.136,101.796 256.969,101.908Z" fill="#AEA293"/>
<path d="M309.917,101.948C310.397,101.789 312.322,102.21 313.996,102.136C315.669,102.062 317.272,101.533 317.097,99.989C317.08,99.7881 315.294,97.5858 316.083,95.0515L315.098,95C314.956,93.0848 315.247,90.2243 315.177,87.8993C315.108,85.5743 314.534,83.6997 312.952,83.9149C312.489,85.8548 312.939,89.3295 313.055,92.1623C313.17,94.9951 313.046,97.1859 311.047,96.9147C312.134,93.0904 308.98,91.1731 307.966,90.9085C307.638,92.1196 305.455,91.9813 303.426,91.8623C301.397,91.7433 299.484,91.801 299.928,93.0659C301.785,92.6453 303.27,94.9767 304.055,94.0802C307.746,93.4835 311.112,96.2945 309.917,101.948Z" fill="#525541"/>
<path d="M135.988,101.097C137.4,99.0525 143.076,97.8999 146.059,96.0774C145.253,95.0534 147.889,93.4998 147.082,90.9479L144.903,90C142.42,90.2543 139.423,92.0942 137.961,91.9105C137.377,94.7474 133.763,96.7796 132.922,97.9421C132.491,98.4821 133.138,99.0694 133.93,99.5321C134.722,99.9948 135.725,100.487 135.988,101.097Z" fill="#7B7971"/>
<path d="M218.95,100.084C221.007,100.862 224.391,99.1831 227.036,99.0906C230.233,95.3744 238.687,97.8196 243.023,100.095C242.48,98.9882 245.007,96.9532 244.093,93.9707C244.752,92.5938 243.858,92.0814 243.029,91.8263C242.2,91.5712 241.39,91.6876 242.048,91.0847C232.555,89.5033 226.505,92.7952 219.962,92.9103C221.667,95.4643 215.698,97.6377 218.95,100.084Z" fill="#726C60"/>
<path d="M131.949,98.083L133.098,98C133.939,96.8375 137.506,94.8713 138.091,92.0344C136.585,91.8962 134.545,91.7566 132.952,91.912C131.36,92.0674 130.033,92.446 129.91,92.9625C130.406,93.0295 131.022,96.9412 131.949,98.083Z" fill="#C3C1BC"/>
<path d="M261.92,98.0556L263.097,98C263.109,97.7071 263.237,96.3301 263.049,95.0971C262.861,93.8642 262.25,92.6782 260.991,92.9029L258.903,93C258.012,94.8089 261.302,96.2739 261.92,98.0556Z" fill="#B1A698"/>
<path d="M57.9283,96.934C63.9327,94.3405 72.0046,92.2696 72.0974,85.0033C65.1775,86.6812 59.4982,91.1447 57.9283,96.934Z" fill="#8F8F89"/>
<path d="M161,97L162.097,97C160.191,92.0149 165.062,91.6098 165.097,90.0043C162.052,90.0369 158.947,92.443 159.922,95.0583L161,97Z" fill="#79776B"/>
<path d="M161.919,97.0547C169.5,97.9769 174.04,92.9668 177.061,88.0758L177,87C175.254,87 171.175,86.9124 170.957,86.9124C170.482,89.174 164.791,88.6176 164.903,90.0078C164.868,91.6133 160.012,92.0696 161.919,97.0547Z" fill="#727064"/>
<path d="M298.966,97.0913C299.458,97.1243 301.06,97.2727 302.335,96.9619C303.609,96.6512 304.664,95.7264 304.074,93.9365C302.217,94.3571 300.708,92.0437 299.923,92.9402C300.028,93.2453 299.015,93.7224 298.354,94.3891C297.693,95.0558 297.426,96.0633 298.966,97.0913Z" fill="#8A8D7D"/>
<path d="M310.913,96.9565C312.912,97.2277 313.365,94.9872 313.249,92.1543C313.134,89.3215 312.623,85.9857 313.086,84.0457C310.902,84.2629 309.478,80.9997 308.435,78.3546C307.391,75.7094 306.549,73.6114 305.906,75.9748C306.255,78.9856 304.68,82.6393 304.055,85.5859C303.431,88.5325 303.837,90.8937 307.985,91.0964C308.999,91.361 312,93.1322 310.913,96.9565Z" fill="#575B45"/>
<path d="M33,95L36.0975,95C39.8172,90.3737 38.4494,87.8589 36.3801,87.6816C34.3108,87.5043 31.3482,89.6889 31.9056,94.0243L33,95Z" fill="#99978A"/>
<path d="M158.906,95.0276L160.098,95C159.123,92.3847 161.998,90.1197 165.044,90.0871C164.932,88.6968 170.614,89.2994 171.09,87.0378L170,84L166,84L166,81C164.254,81 160.187,80.9078 159.968,80.9078C156.776,83.9049 147.786,82.9142 145.922,85.941C147.277,86.7836 146.891,87.5287 146.229,88.1954C145.568,88.8621 144.647,89.584 144.937,90.0745L146.903,91C150.182,91.5362 158.244,90.5377 158.906,95.0276Z" fill="#929087"/>
<path d="M252.903,95C253.782,95.3164 257.584,94.5904 258.093,93.0308C257.74,92.2406 256.597,90.6864 255.504,89.7848C254.411,88.8832 253.179,88.5842 252.904,89.9807C253.801,92.3138 251.546,93.7823 251.966,94.0915L252.903,95Z" fill="#8B7E6F"/>
<path d="M314.904,95.0142L316.097,95C320.003,79.241 306.121,78.9846 305.096,66.9836L303.903,67C304.24,70.0846 304.885,75.2271 306.021,76.0951C306.664,73.7317 307.21,75.781 308.253,78.4261C309.296,81.0712 310.827,84.314 313.011,84.0968C314.592,83.8816 314.913,85.5801 314.982,87.9051C315.052,90.2301 314.762,93.099 314.904,95.0142Z" fill="#4B4F35"/>
<path d="M244.014,93.9035C245.042,91.9933 249.194,93.5801 252.013,94.0966C252.49,93.8545 252.899,92.8254 253.069,91.9108C253.239,90.9961 253.187,90.0072 253.032,89.9078C252.341,89.8801 251.788,89.2264 251.288,88.6421C250.788,88.0578 250.261,87.5506 249.951,87.9156C248.212,87.8874 245.723,87.5991 243.895,87.8431C242.068,88.0871 240.864,88.9928 241.913,91.045C242.179,91.4973 243.004,92.0026 243.588,92.5026C244.173,93.0027 244.617,93.3559 244.014,93.9035Z" fill="#B2A496"/>
<path d="M3.93153,93.0694C6.84141,93.9748 7.44568,88.9668 10.9982,89.0975L10.0975,86C8.35822,85.5389 3.7072,86.0104 2.91393,87.9542C2.23201,88.342 2.13895,89.178 2.39184,90.088C2.64472,90.9981 3.26115,92.0975 3.93153,93.0694Z" fill="#B2B09F"/>
<path d="M128.91,93.0375L130.097,93C130.22,92.4835 131.379,92.2615 132.971,92.1061C134.564,91.9506 136.483,91.9588 137.989,92.0969C139.451,92.2807 142.56,90.3421 145.042,90.0878C144.752,89.5972 145.706,88.9994 146.368,88.3327C147.029,87.666 147.384,86.7495 146.029,85.9069L144,86L142,85L140.097,86C139.605,84.7467 137.155,83.1972 138.051,82.0828L137.097,82C134.605,81.0707 131.543,78.3708 130.007,77.9027C125.852,78.5535 122.551,82.0689 119.946,82.9191C118.292,89.4627 127.842,87.9153 128.91,93.0375Z" fill="#7E7D6B"/>
<path d="M218,93L220,93L219.903,90C219.456,91.2987 215.323,90.9939 215.014,90.9035L214,88L213,90L215,92L218,93Z" fill="#6F6D62"/>
<path d="M220.097,93C226.641,92.885 232.54,89.5101 242.034,91.0915C240.984,89.0393 242.093,88.2804 243.921,88.0364C245.749,87.7924 248.304,88.0593 250.043,88.0875C250.043,86.6511 249.903,82.889 249.903,83L249,83L248,82C242.156,82 234.533,81.9025 230,81.9025L229.903,81C227.577,81.753 224.401,83.7083 222.962,83.9101C222.267,84.5834 222.024,86.3998 221.731,87.8544C221.438,89.309 221.151,90.3964 220.021,89.9047L220.097,93Z" fill="#B9AEA5"/>
<path d="M257.927,93.0649L259,93L261.097,93C263.006,91.4528 263.374,85.2897 269.987,87.0966L271,85C269.254,85 265.246,84.9066 265.028,84.9066C264.342,84.3923 263.031,83.9646 262.036,83.3747C261.04,82.7847 260.396,82.2002 261.063,81.0745L258.903,80C257.206,82.0702 251.999,82.5958 249.951,82.9158C249.951,84.3522 250.097,88.111 250.097,88C250.788,88.0278 251.212,88.7736 251.712,89.3579C252.212,89.9422 252.769,90.423 253.078,90.0581C253.353,88.6616 254.286,89.0336 255.38,89.9352C256.473,90.8368 257.575,92.2747 257.927,93.0649Z" fill="#746D60"/>
<path d="M297,93L300.097,93C299.653,91.7351 301.386,91.938 303.415,92.057C305.444,92.176 307.759,92.2558 308.087,91.0447C303.938,90.842 303.621,88.5729 304.246,85.6263C304.87,82.6797 306.446,78.997 306.097,75.9861C304.96,75.118 304.432,70.0638 304.095,66.9792L303.903,66C302.676,66.4848 302.822,68.8853 302.952,71.0865C303.081,73.2877 303.303,75.1926 302.011,74.9031L299.903,76C300.029,76.8452 299.393,77.3393 298.64,77.6697C297.886,78.0001 297.099,78.0701 296.987,77.9033C297.432,79.8872 295.615,80.1407 293.586,80.0217C291.557,79.9028 289.27,79.4301 288.942,79.9219L289,79L288.097,79C287.256,75.7284 280.399,76.4703 283.07,71.0684C281.249,71.0596 280.426,69.9305 280.33,68.9069C280.235,67.8833 280.839,66.9854 282.041,67.0886C282.185,64.4513 284.104,64.5288 286.305,64.848C288.505,65.1672 290.985,65.729 292.038,64.0896C295.809,65.631 298.364,63.2034 298.909,66.035L302.097,67C302.097,65.5636 301.903,61.889 301.903,62C296.99,59.4526 290.186,64.0381 286.043,63.9124C286.482,62.6003 286.354,61.3664 285.908,60.5571C285.463,59.7479 284.62,59.361 283.962,59.91L284,62L281.903,63C280.076,64.9404 278.532,69.082 275.986,68.9036C279.837,70.4359 279.651,73.3479 278.255,75.896C276.859,78.4442 274.258,80.6279 272.989,80.9031L273.902,83C273.886,84.7288 272.159,87.0755 272.948,88.0822L274.098,89C279.029,83.8922 292.114,86.9105 294.942,91.0785L297,93Z" fill="#606351"/>
<path d="M184.934,92.0719C185.888,92.0882 187.207,90.9935 187.674,89.7114C188.142,88.4293 187.855,86.7955 186.032,85.9078C184.356,85.6012 182.558,85.7942 181.234,86.2177C179.909,86.6411 178.93,87.375 178.903,87.9877C181.395,87.1368 183.833,90.095 184.934,92.0719Z" fill="#9D978C"/>
<path d="M214.903,91C215.211,91.0904 219.616,91.3733 220.063,90.0747C221.193,90.5663 221.629,89.3476 221.922,87.893C222.216,86.4383 222.347,84.761 223.042,84.0878L219.097,84C219.237,82.9875 217.724,82.8614 216.48,82.8503C215.237,82.8391 214.215,83.0273 215.049,82.0844C213.997,82.067 213.751,83.4968 213.838,85.0054C213.926,86.514 214.302,87.9196 214.003,87.9025L214.903,91Z" fill="#6E6C61"/>
<path d="M293.97,91.0928L295.097,91C292.27,86.832 278.886,83.8056 273.955,88.9134L277.098,90C279.569,87.6553 289.564,88.2624 293.97,91.0928Z" fill="#636553"/>
<path d="M210.908,90.0313L213,90L213.903,88C214.201,88.0171 214.12,86.5027 214.033,84.9941C213.945,83.4855 213.948,82.0801 214.999,82.0975L215.097,80C212.824,79.7946 210.781,82.1085 210.013,81.9034L207.903,83C207.839,84.7038 210.462,87.3989 210.908,90.0313Z" fill="#98978A"/>
<path d="M11,89L11.9025,89C12.8313,89.0107 16.4994,87.9241 18.0553,87.0803C22.7382,82.0159 21.94,79.7838 19.4,79.8977C16.8599,80.0116 12.4661,82.3119 9.94328,85.9207L11,89Z" fill="#CAC9B8"/>
<path d="M177,88L179.097,88C179.124,87.3873 179.968,86.8269 181.293,86.4034C182.618,85.9799 184.356,85.7858 186.031,86.0924C186.523,85.3191 185.491,84.8998 184.117,84.8533C182.742,84.8069 181.01,84.945 180.017,84.904C178.934,84.539 178.051,85.0576 177.551,85.6418C177.051,86.2261 176.9,87.0682 176.984,87.0962L177,88Z" fill="#979388"/>
<path d="M271,88L273.097,88C272.309,86.9934 274.081,84.7301 274.097,83.0013C272.721,82.3427 272.081,83.1419 271.826,83.9711C271.571,84.8004 271.65,85.5728 271.047,84.9144L270,87L271,88Z" fill="#656653"/>
<path d="M171,87C171.218,87 175.298,87.0874 177.043,87.0874C176.916,86.2422 177.607,85.6607 178.36,85.3303C179.114,84.9999 179.901,84.93 180.012,85.0968C180.085,84.8055 178.585,82.1735 178.075,80.9379L175,81L171.903,81C172.268,82.0832 171.816,82.8009 171.231,83.301C170.647,83.801 170.109,84.0292 170.081,83.9457L171,87Z" fill="#B0AEA3"/>
<path d="M50.9026,86.0031C53.9058,87.4876 55.591,85.8935 56.0867,83.8404C56.5824,81.7874 56.0224,79.1818 55.0364,78.9096C54.737,78.732 53.6069,80.107 52.6769,81.6934C51.7469,83.2797 50.8833,85.171 50.9026,86.0031Z" fill="#959389"/>
<path d="M100.918,86.0531C104.352,84.2413 107.243,78.8125 112.049,77.0841C116.601,71.6702 124.173,67.9956 130.023,65.0946L128.903,62C126.497,63.0166 123.502,65.4416 120.965,64.9089C121.303,65.9644 120.176,66.0675 119.007,65.9832C117.839,65.899 116.625,65.8085 116.962,66.09L115.902,65C115.109,67.2846 109.357,66.7502 108.916,67.9502C107.231,68.3332 106.016,71.3265 105.035,70.9089C103.719,70.4788 102.2,68.1536 103.079,67.0566C103.5,65.1996 101.143,63.8748 102.039,63.0893L101.097,63C94.3603,58.9374 95.4563,51.4279 93.0012,45.9025C94.0806,48.1818 92.9571,48.8393 91.5056,48.973C90.0541,49.1068 88.2333,48.7253 87.96,48.9111C82.639,49.8976 80.6029,53.941 80.8187,57.9189C81.0345,61.8969 83.5554,65.995 87.0131,67.0966C89.9975,65.0701 91.5558,67.4259 92.5168,70.3936C93.4778,73.3614 93.7617,76.9157 93.9333,77.0711C95.8081,79.0124 100.166,81.6533 100.918,86.0531Z" fill="#C3C1B5"/>
<path d="M139.923,86.0602L142.098,85C142.641,82.3883 140.158,80.5427 141.072,79.0653C139.76,78.6255 138.975,79.348 138.618,80.2449C138.26,81.1419 138.241,82.0516 137.984,81.9038C137.088,83.0182 139.431,84.807 139.923,86.0602Z" fill="#C5C3B3"/>
<path d="M144,86L146.097,86C147.961,82.9732 156.878,84.0643 160.071,81.0671C162.794,76.61 159.51,75.5063 155.349,75.651C151.189,75.7957 146.067,77.0251 144.987,76.9034C143.751,77.4134 141.262,78.9801 140.971,78.9069C140.057,80.3844 142.453,82.3508 141.91,84.9625L144,86Z" fill="#C7C6B8"/>
<path d="M264.966,85.0913C265.184,85.0913 269.278,85.0945 271.024,85.0945C271.476,84.8287 272.003,83.996 272.503,83.4117C273.003,82.8274 273.405,82.4823 273.953,83.0854L273,81L272.098,81C271.986,80.3929 271.115,79.8393 270.361,79.5089C269.607,79.1785 268.848,79.1656 268.975,79.0943C269.565,80.8842 268.563,81.4617 267.289,81.7725C266.014,82.0832 264.536,81.9458 264.044,81.9129C263.78,81.2134 262.802,80.5786 262.01,80.3138C261.218,80.0489 260.484,80.2894 260.915,81.0483C260.249,82.1741 260.941,82.9524 261.936,83.5424C262.931,84.1324 264.28,84.5769 264.966,85.0913Z" fill="#A8A49A"/>
<path d="M166,84L169.902,84C170.748,84.127 171.518,83.4718 171.848,82.7178C172.179,81.9639 172.198,81.0188 172.031,80.9075L171,81L171.097,80C168.563,79.2114 166.197,80.8854 165.996,80.9026L166,84Z" fill="#858478"/>
<path d="M218.906,83.9741L223.097,84C224.536,83.7982 227.69,81.8492 230.016,81.0962L232.903,80C237.011,80.6864 240.035,78.1515 242.985,79.0963L243.903,79C246.033,79.5914 248.003,79.4157 249.259,78.7618C250.516,78.1078 251.251,76.9567 251.096,75.981C248.53,74.0745 248.583,72.1965 249.765,71.0644C250.947,69.9323 253.179,69.6613 255.016,71.0962C252.686,66.8912 244.253,67.0566 244.093,61.9706C242.482,64.1264 237.149,64.653 235.037,64.9098C233.228,60.0054 234.671,58.1119 237.224,57.2998C239.777,56.4876 243.396,56.9443 245.995,57.0974C235.843,57.6252 236.657,45.6371 232.986,40.9036C233.605,43.5918 232.396,46.7559 231.981,46.9044C234.63,47.0156 234.424,48.289 233.562,49.3803C232.701,50.4716 231.293,51.4392 231.09,50.9628C231.273,50.0621 230.034,49.881 229.035,49.7956C228.036,49.7102 227.214,49.8515 228.027,49.0938C224.8,49.98 220.638,51.843 218.97,52.9071L218.903,54C221.15,54.6658 220.124,55.9406 218.148,56.955C216.172,57.9693 213.368,58.629 212.025,57.9059L212,56L210.097,57C210.93,53.765 209.512,52.1397 207.502,51.4318C205.493,50.7239 202.809,50.837 201.015,50.9037C198.197,49.8609 197.035,51.6041 196.84,53.5681C196.645,55.532 197.393,57.9102 197.992,58.0972C200.202,57.7713 202.279,58.0571 203.783,58.7863C205.287,59.5154 206.129,60.575 205.904,61.9843C206.426,63.5307 211.515,63.0159 211.997,63.0974C217.765,62.5309 219.058,63.5627 218.301,64.6715C217.543,65.7803 214.707,66.7765 211.968,65.908C212.365,67.5056 211.169,68.0765 209.97,68.463C208.772,68.8495 207.514,69.1835 207.911,70.04C207.031,73.3199 209.199,75.7625 208.974,76.9061C210.297,74.5338 212.005,74.1353 213.287,74.8141C214.57,75.4929 215.362,77.3113 214.908,79.9685L214.903,82C214.069,82.9429 215.235,83.0341 216.479,83.0453C217.722,83.0564 219.046,82.9615 218.906,83.9741Z" fill="#7F7667"/>
<path d="M116.92,83.0559L120.098,83C122.703,82.1498 125.891,78.7368 130.046,78.086C128.918,75.7732 130.983,73.3726 133.671,71.7518C136.358,70.131 139.648,69.2978 141.026,70.0939C140.609,67.6078 143.666,66.2644 144.049,66.0843C145.292,65.0872 148.128,63.6558 149.98,62.1933C151.832,60.7308 152.671,59.0575 150.021,57.9047L149.097,57C146.462,55.0362 144.189,57.2523 142.008,56.9028L138.903,56C136.904,58.8075 131.802,60.2699 129.981,61.9043C132.374,60.9385 133.072,62.2602 132.987,63.493C132.902,64.7257 132.04,65.8687 130.988,64.9033C127.712,70.5683 123.561,76.7777 115.98,76.9046C114.023,77.7657 113.924,78.5923 114.519,79.4652C115.114,80.338 116.343,81.4085 116.92,83.0559Z" fill="#BBBAAB"/>
<path d="M249,83L250.097,83C252.146,82.68 257.379,82.1316 259.076,80.0615C257.422,77.9482 254.09,75.144 250.948,75.9176C251.103,76.8932 250.425,77.9348 249.169,78.5888C247.913,79.2427 246.1,79.499 243.969,78.9076C243.137,80.7733 244.584,81.1568 245.999,81.1621C247.415,81.1675 248.777,80.8061 247.946,81.919L249,83Z" fill="#9F9285"/>
<path d="M136.982,82.0958L137.903,82C138.159,82.1479 138.441,81.2141 138.799,80.3172C139.156,79.4203 139.66,78.6537 140.972,79.0935C141.264,79.1667 143.784,77.6055 145.02,77.0955L145,76L144.097,76C143.149,74.2115 141.502,70.8067 141.083,69.9482C139.704,69.1521 136.257,69.964 133.57,71.5848C130.883,73.2057 128.794,75.745 129.921,78.0578C131.458,78.5258 134.49,81.1665 136.982,82.0958Z" fill="#959383"/>
<path d="M209.913,81.9566C210.681,82.1617 212.766,79.8836 215.04,80.0889C215.494,77.4318 214.661,75.3205 213.379,74.6417C212.096,73.9629 210.239,74.5783 208.916,76.9506C208.11,77.9747 210.719,79.4046 209.913,81.9566Z" fill="#BAB7AA"/>
<path d="M230,82C234.533,82 242.192,82.0905 248.036,82.0905C248.867,80.9777 247.416,80.9725 246,80.9671C244.584,80.9618 243.241,80.9306 244.073,79.0649L242.903,79C243.027,81.0075 240.955,81.1432 238.586,81.0078C236.218,80.8725 233.613,80.3759 232.963,80.9098L233,80L230,81L230,82Z" fill="#B7AAA0"/>
<path d="M263.92,82.0561C264.412,82.089 266.06,82.2727 267.335,81.9619C268.609,81.6512 269.683,80.7601 269.093,78.9702C269.065,78.2798 268.353,77.6402 267.769,77.1402C267.185,76.6402 266.673,76.3992 267.038,76.0898L265.097,76C265.07,75.3096 264.353,74.6402 263.769,74.1402C263.185,73.6402 262.679,73.3966 263.044,73.0871C260.296,72.7565 257.168,70.3963 255.019,70.9044C253.182,69.4695 250.813,69.7914 249.63,70.9235C248.448,72.0556 248.413,74.1887 250.979,76.0952C254.121,75.3216 257.294,77.9689 258.948,80.0822L261.097,81C260.667,80.2411 261.156,80.2338 261.948,80.4987C262.74,80.7636 263.657,81.3566 263.92,82.0561Z" fill="#C0BAAF"/>
<path d="M159.938,80.9245C160.156,80.9245 164.259,81.0974 166.004,81.0974C166.205,81.0802 168.496,79.3039 171.031,80.0926C172.197,77.1461 174.949,73.7134 177.051,73.0832C177.884,71.5167 180.212,69.171 181.046,69.0862C180.24,66.5687 180.245,66.0725 181.051,65.0831L178.097,65C178.435,63.9445 177.162,63.738 175.993,63.8223C174.825,63.9065 173.701,64.3714 174.038,64.09L172,64L170.902,63C170.137,65.6566 163.566,64.5245 162.952,65.915C159.863,64.3128 160.732,62.6949 162.511,61.3304C164.289,59.9659 167.064,59.0288 168.039,59.0892C169.307,55.4213 166.024,54.0066 166.096,53.0163C158.385,54.1274 156.046,55.6189 149.964,57.9095C152.614,59.0623 151.711,60.5778 149.859,62.0403C148.007,63.5028 145.183,64.9258 143.94,65.9229C145.936,67.3495 144.347,74.6342 144.924,76.0613L144.903,77C145.983,77.1217 151.196,75.9906 155.356,75.8459C159.517,75.7012 162.661,76.4674 159.938,80.9245Z" fill="#73725F"/>
<path d="M171,81L172,81L175.097,81C175.852,78.2032 180.151,75.213 177.018,72.9042C174.917,73.5344 172.09,76.993 170.924,79.9395L171,81Z" fill="#ADACA1"/>
<path d="M174.914,80.9537L178.098,81C180.93,78.9427 184.665,74.8708 187.061,71.0764L186,69C184.564,69 180.884,69.0974 180.995,69.0974C180.162,69.1822 177.751,71.3811 176.918,72.9477C180.05,75.2564 175.668,78.1569 174.914,80.9537Z" fill="#777369"/>
<path d="M233.098,81C233.748,80.466 236.207,81.0671 238.575,81.2025C240.944,81.3379 243.221,80.9983 243.097,78.9908C240.148,78.046 237.116,80.5892 233.008,79.9028L233.098,81Z" fill="#B6A89F"/>
<path d="M271.962,80.9103L273.097,81C274.366,80.7249 277.03,78.5379 278.426,75.9897C279.822,73.4416 279.9,70.4475 276.048,68.9152C273.732,66.731 271.876,67.5233 270.588,68.9557C269.299,70.3882 268.491,72.4559 267.962,72.9104L266.903,76C266.93,76.6904 267.647,77.3598 268.231,77.8598C268.815,78.3598 269.302,78.6158 268.937,78.9252C269.334,79.2466 270.295,79.7494 271.04,80.0887C271.785,80.428 272.339,80.5889 271.962,80.9103Z" fill="#53513F"/>
<path d="M199.903,80C202.015,80.4719 206.926,79.9141 207.097,77.0066C205.824,75.6524 203.627,75.6795 201.912,76.3305C200.197,76.9815 198.776,78.282 198.908,79.0323L199.903,80Z" fill="#8E8175"/>
<path d="M289.097,80C289.426,79.5082 291.545,80.0975 293.574,80.2164C295.603,80.3354 297.539,79.9606 297.095,77.9766C296.18,76.7671 293.981,76.5873 292.168,76.9609C290.354,77.3345 288.742,78.3265 288.912,79.0417L289.097,80Z" fill="#BFC3B5"/>
<path d="M21.9785,79.0951C23.5244,78.2727 27.5185,76.2947 29.0642,74.0734C27.9811,73.8783 27.3627,69.2387 22.9443,70.92C24.007,73.99 18.976,75.5633 21.9785,79.0951Z" fill="#DFDDD1"/>
<path d="M197.906,79.0255L199.097,79C198.966,78.2497 200.266,77.1638 201.981,76.5128C203.696,75.8618 205.681,75.7319 206.954,77.0861L209.097,77C209.323,75.8565 207.206,73.3261 208.086,70.0461L207.097,70C206.361,67.9994 203.043,66.3403 203.097,65.0079L201.097,65C201.435,63.9445 200.162,63.738 198.993,63.8223C197.825,63.9065 196.643,64.3769 196.98,64.0955C196.205,66.7422 189.938,65.8375 187.998,65.9025L186.903,65C187.323,66.857 185.064,68.3038 185.961,69.0893L186.903,71C190.724,72.0689 197.168,73.5735 197.906,79.0255Z" fill="#9F9287"/>
<path d="M287.913,79.0446L289.097,79C288.928,78.2848 290.393,77.5255 292.207,77.1519C294.021,76.7783 296.019,76.862 296.934,78.0715C298.017,78.4366 298.949,77.9424 299.449,77.3582C299.949,76.7739 300.138,75.9473 300.055,75.9193C299.64,74.2656 298.466,71.2299 299.086,70.0464C297.407,67.5613 294.252,72.3287 291.979,70.9048C291.093,72.7562 284.945,71.5865 283.984,71.9038L282.903,71C280.232,76.402 287.072,75.773 287.913,79.0446Z" fill="#737665"/>
<path d="M92.9154,76.9516L94.0975,77C93.9259,76.8446 93.6633,73.3014 92.7023,70.3336C91.7413,67.3658 89.9369,64.8883 86.9525,66.9148C82.2841,68.7192 84.2487,69.8002 87.1437,71.0523C90.0387,72.3044 93.8269,73.7643 92.9154,76.9516Z" fill="#D4D3CF"/>
<path d="M111.95,76.9162L116.097,77C123.679,76.8731 127.788,70.7388 131.064,65.0737L129.903,65C124.052,67.9009 116.502,71.5023 111.95,76.9162Z" fill="#807F6E"/>
<path d="M32.9623,75.9101C36.0884,75.8233 37.6756,72.7392 37.4952,70.6782C37.3149,68.6172 35.3249,67.613 31.9202,71.944C31.4996,73.801 33.8588,75.1246 32.9623,75.9101Z" fill="#8A8878"/>
<path d="M143.933,76.0709L145.098,76C144.52,74.5729 146.005,67.3295 144.009,65.9029C143.626,66.083 140.486,67.5308 140.904,70.0169C141.324,70.8755 142.984,74.2825 143.933,76.0709Z" fill="#7D7C6A"/>
<path d="M264.962,75.9102L267,76L268,73L265,74L262.903,73C262.93,73.6904 263.647,74.3598 264.231,74.8598C264.815,75.3598 265.327,75.6008 264.962,75.9102Z" fill="#676456"/>
<path d="M299.913,76.0437L302.097,75C302.097,72.6002 302.097,67.9182 302.097,67L299,66L298.902,70C298.283,71.1834 299.498,74.39 299.913,76.0437Z" fill="#646852"/>
<path d="M301.903,75C303.194,75.2895 303.276,73.2762 303.147,71.075C303.017,68.8739 302.808,66.5762 304.034,66.0914C302.735,65.6444 302.994,61.3577 303.084,61.0493L301.903,62C301.903,63.4364 301.903,67.111 301.903,67C301.903,67.9182 301.903,72.6002 301.903,75Z" fill="#5F624B"/>
<path d="M265,74L268.098,73C268.627,72.5455 269.444,70.5186 270.733,69.0862C272.021,67.6537 273.639,66.9022 275.955,69.0865C278.502,69.2649 280.219,65.0265 282.046,63.0861C280.609,63.0861 276.889,63.0975 277,63.0975L277.097,60C277.724,56.8592 278.637,52.0588 281.037,52.0904C287.462,42.8055 298.203,36.985 308.03,35.0926C309.617,34.279 312.689,32.5828 313.08,32.0555C312.817,31.4461 311.82,30.8264 311.028,30.3637C310.237,29.901 309.604,29.6308 310.035,29.0909C303.486,31.14 298.899,36.4861 291.964,36.9095C290.82,38.1655 287.171,39.132 286.027,38.9062C283.188,37.8071 283.498,36.27 284.46,34.7038C285.421,33.1377 287.105,31.634 287.097,30.9978C285.352,30.9978 281.218,30.9025 281,30.9025L281.097,30C278.84,29.5206 277.185,26.23 278.075,24.0619L275.097,24C273.563,20.3975 277.22,19.6578 277.091,18.9661C275.346,18.9661 271.242,18.9056 271.024,18.9056C269.526,18.0041 268.409,14.6463 269.075,13.0627L268.097,13C268.097,8.88715 268.097,2.73169 268.097,0C259.842,0 249.97,-0.0892722 242.961,-0.0892722C239.688,5.92055 244.717,21.5654 239.998,24.9025C236.271,22.5337 232.755,26.0089 231.097,30.3075C229.44,34.6061 229.594,39.9094 232.95,41.0838C236.621,45.8173 235.808,57.6166 245.96,57.0887C246.376,58.539 246.08,59.7662 245.601,60.7086C245.123,61.651 244.471,62.1273 243.97,61.9073C244.13,66.9933 252.616,66.8761 254.946,71.0812C257.095,70.5731 260.246,72.7667 262.994,73.0973L265,74Z" fill="#6B6959"/>
<path d="M57.9967,73.0974C58.9925,73.0424 59.9486,71.4782 60.3797,70.1188C60.8107,68.7595 60.7002,67.412 59.9803,67.9045C57.8428,67.4118 57.0404,68.724 56.9625,70.0833C56.8845,71.4426 57.5473,73.042 57.9967,73.0974Z" fill="#CCCACF"/>
<path d="M284.098,72C285.058,71.6827 291.203,72.8925 292.088,71.0411C292.86,68.5236 289.281,68.0715 290.053,67.0821C287.653,67.0821 282.922,66.9026 282.004,66.9026C280.802,66.7993 280.041,67.9014 280.136,68.925C280.232,69.9486 281.179,71.0887 283,71.0975L284.098,72Z" fill="#B2B1A2"/>
<path d="M104.966,71.0915C105.947,71.5091 107.366,68.4656 109.052,68.0826C109.089,66.4006 107.514,65.7921 105.995,65.8733C104.477,65.9546 102.866,66.6541 102.903,67.0112C102.024,68.1082 103.651,70.6613 104.966,71.0915Z" fill="#8B8A79"/>
<path d="M291.909,70.9642C294.182,72.3881 297.263,67.5933 298.942,70.0784L299.097,66C298.553,63.1683 295.746,65.447 291.976,63.9056C293.842,67.0116 292.007,67.1425 289.969,66.9077C289.197,67.8971 292.681,68.4468 291.909,70.9642Z" fill="#888B78"/>
<path d="M19.9745,70.0941L22.0975,70C23.0113,68.9093 25.059,65.4692 26.0745,63.0629L25,62L24,62L22.9025,61C21.0281,62.5474 17.9224,64.9307 16.925,65.9377C16.8014,66.6247 18.6334,69.3669 19.9745,70.0941Z" fill="#979687"/>
<path d="M206.921,70.0578L208.098,70C207.7,69.1435 208.831,69.0351 210.03,68.6486C211.229,68.2621 212.485,67.5541 212.087,65.9565L212.097,63C211.616,62.9185 206.522,63.4489 206,61.9025C206.431,63.2062 205.764,64.0469 204.972,64.5096C204.18,64.9724 203.237,65.0609 202.973,64.9063C202.919,66.2386 206.185,68.0572 206.921,70.0578Z" fill="#B5A297"/>
<path d="M180.918,69.0526C182.354,69.0526 186.154,68.9124 186.043,68.9124C185.622,67.0554 187.968,65.7189 187.071,64.9334C186.634,63.6246 183.413,62.6864 182.976,62.9054L182,64L180.903,65C180.097,65.9895 180.112,66.5351 180.918,69.0526Z" fill="#B5B0A5"/>
<path d="M108.921,67.9428C109.362,66.7428 115.295,67.3242 116.089,65.0397C114.734,64.1971 115.109,63.4713 115.771,62.8046C116.432,62.1379 117.376,61.4437 117.086,60.9532C117.086,59.2076 117.097,55.2181 117.097,55L114.902,55C109.06,56.0371 106.96,62.3212 101.953,62.9146C101.532,64.7715 103.918,66.1193 103.021,66.9048C102.984,66.5478 104.487,66.1493 106.005,66.068C107.524,65.9868 108.958,66.2608 108.921,67.9428Z" fill="#B2B1A0"/>
<path d="M281.903,66.9894C282.821,66.9894 287.595,67.0973 289.994,67.0973C292.033,67.3322 293.868,67.0085 292.001,63.9025C290.948,65.5419 288.533,64.9742 286.333,64.655C284.132,64.3359 282.048,64.352 281.903,66.9894Z" fill="#828372"/>
<path d="M304,67L305,67L305.098,63C305.403,60.1723 305.014,59.317 304.55,59.3944C304.086,59.4718 303.372,60.4226 302.923,60.9408C302.832,61.2493 302.685,65.6491 303.983,66.0961L304,67Z" fill="#484D31"/>
<path d="M15.9542,66.0861L17.0975,66C18.0949,64.9929 21.1954,62.6154 23.0699,61.068C23.5915,59.5123 22.2757,59.0097 21.1356,58.7288C19.9956,58.4478 19.0137,58.4026 20.0523,57.0823L18.9025,57C20.0064,60.0722 11.9183,61.7864 15.9542,66.0861Z" fill="#CECDBC"/>
<path d="M116.903,66C117.775,66.1547 119.157,66.2387 120.071,66.0691C120.986,65.8995 121.572,65.3873 121.04,64.911L119.098,65C118.493,64.7315 118.294,63.466 118.096,62.4093C117.898,61.3526 117.536,60.4347 116.932,60.9299C117.223,61.4204 116.294,62.0006 115.632,62.6673C114.971,63.334 114.616,64.2505 115.971,65.0931L116.903,66Z" fill="#8C8B76"/>
<path d="M163.024,66.0945C163.638,64.7039 170.328,65.684 171.094,63.0273C171.99,60.6942 169.613,59.4007 170.034,59.0915L168.098,59C167.122,58.9396 164.171,59.8111 162.392,61.1757C160.614,62.5402 159.935,64.4922 163.024,66.0945Z" fill="#B8B7A6"/>
<path d="M188.098,66C190.037,65.935 196.305,66.7027 197.08,64.0559C195.653,64.2824 194.205,63.793 193.227,63.186C192.249,62.579 191.664,61.8961 192.004,61.0974C191.762,61.5736 190.79,61.7077 189.875,61.8774C188.961,62.0471 188.159,62.078 188.06,61.9231L185.903,61C185.506,61.3214 184.624,61.572 183.879,61.9113C183.134,62.2506 182.61,62.7753 182.987,63.0967C183.424,62.8777 186.482,63.7453 186.919,65.0541L188.098,66Z" fill="#A9A297"/>
<path d="M211.903,66C214.642,66.8685 217.704,65.8902 218.462,64.7815C219.219,63.6727 217.764,62.3361 211.995,62.9026L211.903,66Z" fill="#CBBAAC"/>
<path d="M29.9449,64.9196C31.3408,65.7521 34.0072,64.0681 35.0725,63.0652C35.8282,61.0838 38.909,59.2299 40.0442,59.0869C40.8576,57.5553 39.9807,56.9346 38.9818,56.8491C37.9829,56.7637 36.8479,57.2194 37.03,57.0928C36.3396,57.1205 35.6402,57.6469 35.1402,58.2312C34.6402,58.8155 34.3356,59.271 34.0261,58.9061C32.59,59.5382 29.9981,61.3678 28.9731,60.9063C28.0764,63.2394 30.3651,64.6104 29.9449,64.9196Z" fill="#DDDCD8"/>
<path d="M118.979,65.0952L120.903,65C123.44,65.5327 126.615,63.112 129.02,62.0954L130.097,62C131.919,60.3656 137.066,58.8806 139.065,56.073C140.848,55.6871 143.697,53.4478 145.939,52.541C148.182,51.6341 149.66,51.9586 148.907,56.9719L150.097,58C156.179,55.7094 158.307,54.2067 166.019,53.0956C170.115,52.0395 173.723,48.5039 175.084,46.049C171.326,41.1621 174.08,36.341 176.773,32.3992C179.466,28.4575 182.037,25.2511 178.023,23.9052C163.024,21.8226 159.295,7.54545 140.994,9.9027L139.098,11C135.778,10.3857 136.791,12.098 138.093,14.2071C139.394,16.3162 140.848,18.7326 137.961,19.9104C140.084,20.8886 142.637,26.9464 143.162,32.5564C143.687,38.1665 142.192,43.3259 135.969,42.9076C137.47,44.5404 135.165,44.705 132.246,44.6316C129.327,44.5582 125.759,44.2672 124.934,44.9279C128.813,50.0145 127.574,51.6824 124.966,52.5051C122.358,53.3279 118.371,53.3184 116.922,54.9409C116.922,55.1589 116.903,59.2544 116.903,61C117.507,60.5048 117.706,61.3885 117.904,62.4452C118.102,63.5019 118.375,64.8267 118.979,65.0952Z" fill="#83826D"/>
<path d="M130,65L130.903,65C131.955,65.9654 133.097,64.7392 133.182,63.5064C133.267,62.2736 132.374,60.9386 129.981,61.9044L129,62L130,65Z" fill="#BCBBAB"/>
<path d="M177.96,64.911L181,65L182.097,64C181.339,61.2448 179.493,60.2872 177.816,60.5453C176.139,60.8035 174.455,62.2187 173.922,63.9412C174.795,63.7864 176.121,63.953 177.036,64.1226C177.95,64.2922 178.492,64.4348 177.96,64.911Z" fill="#777467"/>
<path d="M200.96,64.911L202.903,65C203.166,65.1547 204.278,65.1407 205.07,64.678C205.862,64.2153 206.524,63.2737 206.093,61.9699C206.318,60.5606 205.372,59.34 203.868,58.6108C202.364,57.8817 200.161,57.5894 197.952,57.9153C198.145,58.9813 197.274,59.522 196.278,59.7807C195.282,60.0394 194.233,60.006 194.023,59.9052L191.903,61C191.563,61.7986 192.146,62.7447 193.124,63.3517C194.102,63.9587 195.59,64.3226 197.016,64.0962C197.889,63.9414 199.121,63.953 200.036,64.1226C200.95,64.2922 201.492,64.4348 200.96,64.911Z" fill="#C8BBB0"/>
<path d="M234.926,65.063C237.037,64.8062 242.42,64.2483 244.031,62.0925C244.533,62.3125 245.297,61.7393 245.775,60.7969C246.254,59.8544 246.502,58.4039 246.086,56.9536C243.488,56.8006 239.718,56.3018 237.165,57.114C234.612,57.9261 233.116,60.1586 234.926,65.063Z" fill="#BCBAAB"/>
<path d="M34.9025,64C35.8197,64.2986 38.0764,63.9475 39.5257,63.0311C40.975,62.1147 41.7497,60.5422 40.0354,58.9092C38.9003,59.0521 35.6782,60.9595 34.9225,62.9409L34.9025,64Z" fill="#A7A69E"/>
<path d="M172,64L174.097,64C174.63,62.2775 176.168,60.9963 177.846,60.7381C179.523,60.4799 181.156,61.2918 181.915,64.047L183.097,63C183.209,62.3929 183.964,62.0179 184.718,61.6875C185.472,61.3571 186.153,60.9775 186.026,60.9061L186.097,60C178.596,59.3417 178.967,56.0718 172.023,60.9051C172.408,59.5564 171.738,58.6629 171.045,58.299C170.353,57.9352 169.532,58.2484 169.918,59.0525C170.394,59.2945 170.708,60.2102 170.877,61.1248C171.047,62.0395 171.125,62.8078 170.97,62.9072L172,64Z" fill="#9A968A"/>
<path d="M285.918,63.9469C290.061,64.0726 297.063,59.547 301.976,62.0944L303.098,61C301.388,55.9818 302.816,54.0305 305.117,53.3875C307.419,52.7445 310.528,53.5022 312.031,54.0925C312.87,49.1066 308.292,45.8451 305.276,43.1685C302.261,40.492 300.788,38.4046 308.012,35.0967C298.184,36.9891 287.388,42.6251 280.963,51.91C283.686,50.897 284.118,52.7412 284.058,54.873C283.998,57.0047 283.481,59.6114 283.997,60.0975C284.655,59.5485 285.292,59.842 285.738,60.6512C286.183,61.4604 286.358,62.6348 285.918,63.9469Z" fill="#5D5F4B"/>
<path d="M-0.0975,63C2.25516,63.7119 3.80524,59.9173 6.04991,59.0838C8.38787,56.2695 11.7275,52.5503 14.0655,51.0722C14.0933,50.3818 14.7736,49.7884 15.3579,49.2884C15.9422,48.7883 16.403,48.2197 16.0381,47.9102L15.0975,48C14.4498,47.2791 12.7397,46.8896 11.3338,46.5474C9.9279,46.2052 8.81243,45.9603 9.08375,45.0499L6.9025,45C7.8636,49.3829 3.538,50.4265 1.01004,49.903L-0.0975,50C-0.0975,54.1129 -0.0975,60.2683 -0.0975,63Z" fill="#868665"/>
<path d="M26,63L28.0975,61C27.6769,59.143 29.9408,57.6986 29.0443,56.9131C25.9764,56.5824 24.423,60.2774 24.9148,62.0474L26,63Z" fill="#C7C6BA"/>
<path d="M100.972,63.0933L102.097,63C107.105,62.4067 109.166,56.1342 115.009,55.0971L114.097,55C113.811,53.9175 113.472,52.2864 113.002,51.0084C112.532,49.7303 111.823,48.7084 110.989,48.9032L110.097,49C112.48,37.0771 95.5289,39.205 96.0959,33.0176L96.0975,31C96.1207,28.8329 93.5946,27.4222 90.8658,26.9317C88.1371,26.4411 85.0327,26.8089 83.9245,27.9383C83.9436,29.8302 85.7389,33.5747 86.5165,37.0575C87.2942,40.5402 87.1271,43.7256 82.9973,44.9025C84.8543,44.4819 86.2922,46.9554 87.0777,46.0589C86.8395,44.5494 88.7653,43.9017 90.5775,43.936C92.3897,43.9702 93.9304,44.5721 92.9197,45.9446C95.3749,51.47 94.2347,59.0307 100.972,63.0933Z" fill="#A3A28E"/>
<path d="M277,63C278.436,63 282.111,62.9025 282,62.9025L284,62C282.254,62 278.218,61.9025 278,61.9025L277,60L277,63Z" fill="#5A594A"/>
<path d="M304.988,62.9033C303.886,58.7073 311.196,59.6795 313.056,57.0799L312.097,54C310.595,53.4097 307.366,52.5567 305.065,53.1997C302.763,53.8427 301.263,56.0753 302.972,61.0935C303.422,60.5753 304.118,59.6641 304.582,59.5868C305.046,59.5094 305.293,60.0755 304.988,62.9033Z" fill="#51553D"/>
<path d="M24,62L25.0975,62C24.6057,60.2301 25.9269,56.7667 28.9948,57.0974L29.0975,56C28.0261,55.8342 22.7267,51.9785 20.9533,53.9144L19.9025,57C18.8639,58.3203 19.9489,58.6371 21.0889,58.9181C22.229,59.1991 23.4406,59.39 22.919,60.9457L24,62Z" fill="#CAC9BB"/>
<path d="M187.903,62C190.236,62.8967 191.636,60.6604 191.945,61.0806L194,60C191.6,60 186.918,59.9025 186,59.9025L186,61L187.903,62Z" fill="#A1998E"/>
<path d="M278,62C278.218,62 282.254,62.0975 284,62.0975L284.097,60C283.581,59.5139 284.193,57.0102 284.253,54.8784C284.313,52.7467 283.707,50.8911 280.983,51.904C278.583,51.8725 277.535,56.8231 276.909,59.9639L278,62Z" fill="#535443"/>
<path d="M8.95595,60.913C12.4835,61.3463 14.1026,56.6636 18.9957,57.0974L20,57L20.9025,54C18.3485,54.9132 16.4318,51.5358 13.9858,50.9035C11.6478,52.3816 8.26598,56.12 5.92802,58.9342C6.32482,59.2556 7.29483,59.7494 8.03986,60.0887C8.78489,60.428 9.33285,60.5916 8.95595,60.913Z" fill="#B7B6A1"/>
<path d="M27.9609,61.0893L28.9025,61C29.9275,61.4616 32.6225,59.71 34.0586,59.0779C33.6756,57.3926 30.6566,56.0443 31.0742,55.0632L29,56L28.9025,57C29.3231,58.857 27.0644,60.3038 27.9609,61.0893Z" fill="#B0AFA8"/>
<path d="M171.944,60.9205C178.888,56.0871 178.494,59.4391 185.996,60.0974C186.914,60.0974 191.58,60.0953 193.979,60.0953C194.189,60.1961 195.331,60.2282 196.327,59.9694C197.323,59.7107 198.287,59.0398 198.094,57.9739C197.495,57.7869 196.839,55.5513 197.034,53.5874C197.229,51.6234 198.162,50.0527 200.98,51.0955C204.192,51.2289 206.385,47.8883 205.073,44.9352C201.995,44.9352 196.677,44.9097 195.037,44.9097C196.463,42.9144 203.592,44.6729 205.019,44.0956C207.756,44.0956 212.729,44.0973 214.007,44.0973C216.007,43.808 216.033,45.8269 215.973,47.9587C215.913,50.0905 215.769,52.3349 217.009,52.0971L219.098,53C220.765,51.9359 224.804,49.9789 228.03,49.0927C229.284,48.6003 230.868,46.1995 231.982,47.0959C232.397,46.9473 233.712,43.6564 233.092,40.9682C229.736,39.7938 229.622,34.6763 231.279,30.3777C232.937,26.0791 236.276,22.7287 240.002,25.0975C244.722,21.7604 239.793,6.08164 243.066,0.0718171C212.222,0.0718171 180.72,-0.0872215 150.956,-0.0872215C150.915,0.90595 150.998,2.73564 150.952,4.11023C150.905,5.48482 150.749,6.39706 149.976,5.90554C149.762,6.72629 148.585,7.17207 147.555,7.56312C146.525,7.95417 145.58,8.42932 145.913,9.04438C146.098,10.1019 144.849,10.0635 143.507,9.97576C142.164,9.888 140.761,9.7873 140.945,10.0808C159.247,7.72354 162.979,22.0125 177.978,24.095C181.993,25.441 179.305,28.3475 176.612,32.2892C173.919,36.231 171.163,41.1706 174.921,46.0576C173.56,48.5124 170.043,51.8618 165.947,52.918C165.875,53.9083 169.188,55.2767 167.92,58.9445L170.097,59C169.712,58.1959 170.262,58.1078 170.955,58.4717C171.648,58.8355 172.33,59.5717 171.944,60.9205Z" fill="#908D7F"/>
<path d="M33.9119,59.0418C34.6023,59.014 35.3598,58.3531 35.8598,57.7688C36.3598,57.1845 36.7081,56.7309 37.0176,57.0959C37.0086,54.8499 36.265,52.4574 35.1264,51.6606C33.9877,50.8638 32.3463,51.5291 30.9101,54.9623C30.4925,55.9434 33.5289,57.3565 33.9119,59.0418Z" fill="#ADACA6"/>
<path d="M211.903,58C213.245,58.7232 216.261,58.1428 218.237,57.1284C220.213,56.1141 221.262,54.5693 219.014,53.9036C216.946,53.9036 212.563,53.9025 212,53.9025L212,56L211.903,58Z" fill="#ADA599"/>
<path d="M141.903,57C144.083,57.3495 146.388,55.1309 149.023,57.0947C149.777,52.0814 148.109,51.4534 145.866,52.3602C143.624,53.2671 140.773,55.5172 138.99,55.9031L141.903,57Z" fill="#7A7965"/>
<path d="M209.913,56.9554L212,56L212.097,54C211.873,52.7412 212.894,52.332 214.127,52.1439C215.359,51.9558 216.696,52.0857 216.989,52.0969C215.749,52.3347 216.107,50.096 216.168,47.9642C216.228,45.8324 215.955,43.6242 213.955,43.9135C212.902,45.9392 205.992,44.3363 204.939,44.9239C206.251,47.877 204.216,51.036 201.004,50.9026C202.798,50.8359 205.428,50.9078 207.438,51.6157C209.447,52.3236 210.745,53.7204 209.913,56.9554Z" fill="#968F82"/>
<path d="M312.903,57C318.328,57.8917 313.557,45.474 321.022,47.0949C324.191,44.231 320.729,40.4959 318.303,37.422C315.877,34.3481 314.471,31.9378 322.005,31.0973L322.097,30C318.457,29.7816 315.609,32.5381 312.973,31.9064C312.582,32.4338 309.543,34.0989 307.957,34.9125C300.733,38.2203 302.131,40.6378 305.147,43.3144C308.163,45.9909 312.747,48.983 311.908,53.9689L312.903,57Z" fill="#4C4F3B"/>
<path d="M63.9044,54.9808C67.2392,53.4255 72.3467,50.5433 76.0655,48.0722C75.7929,47.145 73.9466,46.9949 72.495,46.8613C71.0433,46.7277 69.9773,46.6178 71.0566,45.0794C68.9883,45.0794 64.5526,44.9031 63.9892,44.9031C60.1057,45.793 60.1295,46.8339 61.147,48.3057C62.1645,49.7775 64.0908,51.758 63.9044,54.9808Z" fill="#C2C2B7"/>
<path d="M113.914,55.0456L115,55L117.097,55C118.546,53.3775 122.417,53.5138 125.025,52.6911C127.633,51.8683 128.953,50.0233 125.074,44.9367C125.898,44.276 129.322,44.7531 132.241,44.8265C135.16,44.8999 137.544,44.5454 136.043,42.9126C142.266,43.3309 143.881,38.1483 143.356,32.5383C142.831,26.9282 140.161,20.8889 138.039,19.9107C140.926,18.7329 139.56,16.2138 138.259,14.1047C136.957,11.9956 135.672,10.4828 138.991,11.0971L137,9L135.097,10C131.118,8.13464 127.648,3.95256 127.094,-0.0261821C109.675,-0.0261821 91.2429,-0.0886503 74.9594,-0.0886503C73.7014,2.77761 74.1951,7.59806 74.7844,11.3649C75.3736,15.1317 76.1516,17.8514 75.0527,16.9179C63.6317,12.9113 58.5541,24.0962 47.0092,21.9029L46.9025,21C46.4556,22.2987 42.3249,21.9943 42.0164,21.9039C34.7619,21.5631 31.7443,17.5623 27.9369,19.9257C27.3048,21.3618 25.4489,24.0135 25.9104,25.0385C25.7902,29.2716 32.5581,28.7605 32.9609,31.0893C36.7169,25.3619 40.9379,34.5225 48.0604,31.0766C48.6291,27.8784 51.6942,25.1587 54.0013,25.0975L56,24L59.0975,25C63.3865,21.2861 65.2671,26.6735 66.9964,27.0974C75.7762,25.6168 77.1255,27.7773 84.0309,28.0925C85.1391,26.9631 88.1026,26.633 90.8313,27.1236C93.5601,27.6141 95.9257,28.8318 95.9025,30.9989C96.2722,32.1683 98.5482,32.1822 100.543,32.0976C102.538,32.013 104.26,31.7906 103.911,32.9598C113.124,35.9026 105.501,39.6985 110.948,49.0823C111.782,48.8876 112.349,49.7976 112.819,51.0757C113.289,52.3538 113.628,53.963 113.914,55.0456Z" fill="#807F5D"/>
<path d="M211.908,54.0328C212.472,54.0328 216.932,54.0975 219,54.0975L219,53L217.097,52C216.805,51.9888 215.33,51.763 214.097,51.9511C212.864,52.1392 211.683,52.774 211.908,54.0328Z" fill="#ADA498"/>
<path d="M230.928,50.9342C231.131,51.4106 232.854,50.5924 233.715,49.5011C234.577,48.4098 234.68,47.0188 232.031,46.9075C230.917,46.0112 229.196,48.4286 227.943,48.921C227.76,49.8217 228.966,50.119 229.965,50.2044C230.964,50.2898 231.741,50.1765 230.928,50.9342Z" fill="#A5998D"/>
<path d="M-0.0975,50L1.0975,50C1.17428,46.3099 4.94799,44.4062 7.00729,44.0972L7,43L6.0975,43C2.11628,41.2835 2.56713,35.3437 2.08002,33.9443L-0.0975,34C-0.0975,39.1522 -0.0975,46.1839 -0.0975,50Z" fill="#8A8A6D"/>
<path d="M0.902558,49.9966C3.43051,50.5201 8.05039,49.3438 7.08929,44.9608L6.9025,44C4.8432,44.309 0.979343,46.3065 0.902558,49.9966Z" fill="#AAA993"/>
<path d="M23.9118,50.0416C29.6163,50.9404 31.8027,46.1336 31.0917,41.9668C26.543,42.2239 22.608,45.282 23.9118,50.0416Z" fill="#949381"/>
<path d="M88.0023,48.9025C88.2756,48.7167 90.0719,49.3009 91.5235,49.1672C92.975,49.0335 94.1666,48.2356 93.0872,45.9563C94.0978,44.5838 92.3934,43.7752 90.5812,43.741C88.769,43.7067 86.6731,44.5308 86.9112,46.0403C87.2028,45.9481 88.0122,46.3803 88.4637,46.9854C88.9152,47.5905 89.0998,48.2309 88.0023,48.9025Z" fill="#C4C3B0"/>
<path d="M109.909,48.9638L111.098,49C105.651,39.6162 113.228,35.8465 104.015,32.9037C101.616,32.9037 96.8747,32.9127 95.9565,32.9127C95.3895,39.1002 112.292,37.041 109.909,48.9638Z" fill="#8D8C71"/>
<path d="M319.903,49C343.079,55.9397 341.297,38.1067 344.094,26.0275C353.322,19.7523 362.418,32.1632 362.097,14.998C364.109,12.4762 374.731,15.6039 378.053,13.0816C382.765,10.7844 389.574,7.85697 396.053,6.08155C396.053,4.33592 396.097,0.218079 396.097,0C394.352,0 390.192,-0.0939207 389.974,-0.0939207C377.136,8.52458 358.055,11.6619 343.96,17.9109C335.901,21.52 328.43,26.8936 321.966,30.9087C314.432,31.7491 315.724,34.4689 318.15,37.5428C320.575,40.6167 324.129,44.0473 320.96,46.9111L319.903,49Z" fill="#3D4029"/>
<path d="M14.9526,48.0852L16.0975,48C20.5994,46.22 24.0662,44.4293 23.0916,37.9665C17.2373,38.9923 13.3742,43.7431 8.94812,44.9174C8.6768,45.8278 9.88178,46.3947 11.2877,46.7369C12.6936,47.0791 14.3049,47.3643 14.9526,48.0852Z" fill="#A9A89B"/>
<path d="M75.9098,48.0371C76.9349,48.4987 79.6232,46.7095 81.0593,46.0774C81.1587,41.6042 79.0915,40.9045 76.8276,41.6331C74.5638,42.3616 71.9863,44.3623 70.9424,44.9213C69.8631,46.4597 71.0254,46.9219 72.4771,47.0555C73.9287,47.1891 75.6372,47.1099 75.9098,48.0371Z" fill="#CDCDC2"/>
<path d="M259.924,47.061C263.95,47.32 266.579,44.0349 268.009,43.0971C266.683,43.6541 264.211,43.4237 262.32,43.7658C260.429,44.1078 259.033,44.9863 259.924,47.061Z" fill="#AFB0A5"/>
<path d="M80.9026,45.9957L83.0975,45C87.2273,43.823 87.4845,40.4977 86.7069,37.015C85.9292,33.5322 84.1166,29.8901 84.0975,27.9981C77.192,27.6829 75.7391,25.4308 66.9593,26.9114C65.8155,28.1674 62.1536,29.1288 61.0096,28.903L59.9025,28C59.0798,31.2901 54.6165,32.7763 51.0117,31.9032L47.9025,31C48.5212,35.475 51.7168,36.9405 55.2319,36.6309C58.747,36.3213 62.7417,34.3114 65.0627,32.0747C68.8472,29.8032 70.6875,31.7803 71.1158,34.2407C71.5441,36.7011 70.4669,39.4777 67.969,38.9076C69.9731,42.5524 63.7736,41.8004 63.9028,45.0078C64.4663,45.0078 68.9541,45.0949 71.0224,45.0949C72.0663,44.5359 74.6235,42.5472 76.8874,41.8187C79.1513,41.0901 81.002,41.5225 80.9026,45.9957Z" fill="#B3B4A3"/>
<path d="M7,45L9.0975,45C13.5236,43.8256 17.1543,39.1229 23.0085,38.0971L23.0975,37C15.7743,33.525 11.9612,42.4169 6.99524,42.9026L7,44L7,45Z" fill="#DCDBD2"/>
<path d="M194.944,44.9201C196.585,44.9201 201.922,45.0975 205,45.0975L204.903,44C203.475,44.5773 196.371,42.9248 194.944,44.9201Z" fill="#9E978B"/>
<path d="M205.097,45C206.151,44.4124 213.015,46.0959 214.068,44.0703C212.789,44.0703 207.737,43.9025 205,43.9025L205.097,45Z" fill="#969084"/>
<path d="M5.97945,43.0953L7.0975,43C12.0635,42.5143 15.6733,33.6225 22.9966,37.0974C25.738,36.0228 29.3538,32.5277 33.0572,31.079C32.6544,28.7501 25.9764,29.2457 26.0967,25.0126C19.78,29.3433 11.4112,32.8833 3.98686,34.9034L1.9025,34C2.38961,35.3994 1.99823,41.3788 5.97945,43.0953Z" fill="#A09F8D"/>
<path d="M67.985,39.0963C70.4829,39.6665 71.7362,36.6677 71.3079,34.2073C70.8796,31.7469 68.7357,29.6441 64.9511,31.9156C70.9378,35.1812 57.1035,38.1462 67.985,39.0963Z" fill="#CDCDC1"/>
<path d="M251.912,39.041C254.078,40.0075 255.381,39.3662 255.903,38.3029C256.425,37.2396 256.341,35.668 256.086,34.9547C252.353,33.6215 251.458,37.669 251.912,39.041Z" fill="#A8A595"/>
<path d="M285.972,39.0935C287.116,39.3193 290.903,38.3414 292.047,37.0855L291,36L290.098,36C289.028,34.2183 289.94,32.7413 289.07,30.9324L286.902,31C286.91,31.6362 285.255,33.0356 284.293,34.6018C283.332,36.168 283.134,37.9944 285.972,39.0935Z" fill="#5D5C4B"/>
<path d="M292.097,37C299.033,36.5766 303.497,31.1352 310.046,29.0861C313.706,25.3627 315.956,22.4691 316.014,20.3698C316.073,18.2706 313.89,16.7822 308.995,15.9026C304.711,17.1169 299.285,19.1942 298.903,22.9881C300.381,24.1814 299.548,25.2768 298.242,26.1853C296.935,27.0938 295.204,27.7426 294.951,27.9154C293.716,28.4255 291.256,29.9823 290.965,29.9092C290.965,31.6548 290.903,35.7819 290.903,36L292.097,37Z" fill="#4F4F3D"/>
<path d="M289.938,36.0749L291.097,36C291.097,35.7819 291.097,31.7456 291.097,30L290,30L288.903,31C289.772,32.8089 288.868,34.2933 289.938,36.0749Z" fill="#555443"/>
<path d="M4.0975,35C11.5219,32.9799 19.7484,29.4033 26.065,25.0726C25.6035,24.0476 27.4555,21.4789 28.0876,20.0428C22.3117,13.7852 7.46164,19.34 0.00285794,18.9025L0.0975,20C2.91157,19.1089 6.09489,19.6509 7.80299,20.4757C9.51109,21.3006 9.6822,22.3177 6.03574,22.9093C6.7387,21.0064 5.22443,20.7033 3.5617,20.7808C1.89897,20.8583 0.048924,21.3096 -0.00310103,20.9025C-0.00310103,25.0154 -0.0975,31.2683 -0.0975,34L2,34L4.0975,35Z" fill="#807F5C"/>
<path d="M96,33C96.9182,33 101.642,33.0879 104.042,33.0879C104.391,31.9188 102.529,31.8181 100.535,31.9028C98.54,31.9874 96.4521,32.1173 96.0824,30.9479L96,33Z" fill="#838265"/>
<path d="M50.9025,32C54.5073,32.8731 59.2645,31.3337 60.0872,28.0436L59,25L55.9025,24C55.6033,25.7263 56.1821,27.1844 56.4197,28.0946C56.6574,29.0047 56.683,29.2747 55.0317,28.9078C54.5555,28.6657 54.2923,27.7898 54.1226,26.8752C53.9529,25.9605 53.8736,25.1926 54.0284,25.0933C51.7214,25.1545 48.4768,27.7691 47.9081,30.9673L50.9025,32Z" fill="#A5A688"/>
<path d="M312.92,32.0553C315.556,32.687 318.386,29.8755 322.026,30.0939C325.298,27.521 327.363,21.9142 330.06,20.0771C335.148,14.8584 335.56,3.73411 342.02,1.09553L342,0C337.887,0 331.69,-0.0880702 328.958,-0.0880702C325.987,8.94844 311.122,7.34871 308.911,15.9612C313.805,16.8407 315.878,18.2651 315.819,20.3644C315.761,22.4636 313.59,25.2099 309.929,28.9333C309.498,29.4732 310.138,30.0694 310.93,30.5321C311.722,30.9948 312.656,31.446 312.92,32.0553Z" fill="#5E5E4E"/>
<path d="M281,31C281.218,31 285.254,31.0975 287,31.0975L289,31L290,30C287.263,30 282.278,29.9025 281,29.9025L281,31Z" fill="#757366"/>
<path d="M322.097,31C328.562,26.9848 336,21.6866 344.059,18.0775C344.424,16.0976 343.831,15.8535 343.247,16.1826C342.663,16.5118 342.124,17.3183 342.096,16.9815C337.873,17.565 331.876,18.4012 329.941,19.922C327.245,21.7592 325.236,27.3364 321.964,29.9093L322.097,31Z" fill="#4B4D39"/>
<path d="M280.99,30.097C282.268,30.097 287.263,30.0975 290,30.0975L290.903,30C291.194,30.0732 293.81,28.5961 295.046,28.086C293.818,27.1537 294.484,25.8069 295.614,24.7489C296.743,23.691 298.326,22.9266 299.036,23.0907C299.417,19.2969 304.769,17.2962 309.053,16.0819C311.264,7.46947 326.11,9.09009 329.081,0.0535727C321.513,0.0535727 312.264,-0.0875161 305.957,-0.0875161C307.421,7.56663 297.521,5.71302 296.904,9.98606C297.783,16.018 291.455,16.6056 288.95,17.9163C285.788,20.2523 280.585,22.3968 277.938,23.9247C277.048,26.0929 278.732,29.6176 280.99,30.097Z" fill="#78766A"/>
<path d="M54.9562,28.9129C56.6075,29.2798 56.846,28.9554 56.6084,28.0453C56.3708,27.1352 55.7929,25.7583 56.0921,24.0319L53.9025,25C53.0058,27.3331 55.3764,28.6037 54.9562,28.9129Z" fill="#A7A888"/>
<path d="M60.9025,29C62.0466,29.2259 65.9135,28.3349 67.0573,27.0789C65.328,26.6549 63.2503,21.1966 58.9613,24.9105L60,28L60.9025,29Z" fill="#959772"/>
<path d="M294.998,28.0975C295.25,27.9247 297.047,27.2539 298.353,26.3454C299.659,25.4369 300.525,24.1078 299.047,22.9145C298.337,22.7505 296.61,23.5487 295.48,24.6066C294.351,25.6645 293.77,27.1652 294.998,28.0975Z" fill="#666556"/>
<path d="M274.926,24.0632L278.097,24C280.745,22.4721 285.871,20.4274 289.034,18.0915L286,18L285.903,17C283.241,17.7599 279.918,19.8544 276.967,18.9081C277.096,19.5998 273.392,20.4607 274.926,24.0632Z" fill="#636154"/>
<path d="M5.9272,22.9351C9.57366,22.3435 9.59589,21.125 7.88779,20.3001C6.17969,19.4753 2.79882,19.0126 -0.0152478,19.9037L-0.0975,21C-0.045475,21.4071 1.90804,21.053 3.57078,20.9756C5.23351,20.8981 6.63016,21.0323 5.9272,22.9351Z" fill="#7D7D59"/>
<path d="M41.9842,22.0962C42.2927,22.1866 46.6268,22.3625 47.0737,21.0638C52.6423,22.1623 53.5572,18.1628 53.3607,13.2973C53.1641,8.43189 51.854,2.70275 53.0716,0.0661527C35.3162,0.0661527 16.5791,-0.0872066 -0.0436033,-0.0872066C-0.0436033,6.10278 -0.0975,14.1098 -0.0975,19C7.36128,19.4375 22.2093,13.8388 27.9853,20.0964C31.7927,17.7331 34.7296,21.7554 41.9842,22.0962Z" fill="#727144"/>
<path d="M46.9025,22C58.4474,24.1933 63.5341,13.0799 74.9551,17.0866C76.0541,18.02 75.5663,15.1015 74.977,11.3347C74.3878,7.56792 73.8153,2.93058 75.0733,0.0643205C67.8489,0.0643205 58.9137,-0.0887812 52.9597,-0.0887812C51.7421,2.54782 52.9693,8.43976 53.1659,13.3052C53.3624,18.1707 52.5782,22.0014 47.0096,20.903L46.9025,22Z" fill="#858851"/>
<path d="M329.993,19.9027C331.928,18.3819 337.826,17.6684 342.048,17.085C343.775,8.82997 337.418,5.18722 342.018,1.09576C335.559,3.73434 335.081,14.684 329.993,19.9027Z" fill="#565546"/>
<path d="M270.972,19.0934C271.19,19.0934 275.24,19.0964 276.985,19.0964C279.936,20.0427 283.381,17.8474 286.043,17.0875C289.118,14.3183 293.024,10.5947 297.048,10.085C297.665,5.81195 307.555,7.61931 306.091,-0.0348392C293.744,-0.0348392 280.123,-0.0872066 268.956,-0.0872066C268.956,4.02565 268.903,10.2683 268.903,13C268.237,14.5836 269.474,18.1919 270.972,19.0934Z" fill="#89877F"/>
<path d="M286,18L289.098,18C291.603,16.6893 297.972,16.0011 297.092,9.9691C293.069,10.4788 289.035,14.1419 285.96,16.9111L286,18Z" fill="#626053"/>
<path d="M343.943,17.9206C358.038,11.6715 377.194,8.71093 390.031,0.0924315C373.962,0.0924315 356.925,-0.0975 342,-0.0975L341.903,1C337.302,5.09146 343.686,8.65668 341.959,16.9117C342.804,15.8324 343.352,16.021 343.683,16.4356C344.013,16.8502 344.11,17.4996 343.943,17.9206Z" fill="#434530"/>
<path d="M263.903,15.0122C265.91,14.9628 266.332,12.6058 266.194,10.0733C266.056,7.54087 265.444,4.91776 265.989,4.09692C265.012,7.23194 263.725,12.102 263.903,15.0122Z" fill="#727062"/>
<path d="M267.903,13L269.097,13C269.097,10.2683 269.097,4.11285 269.097,0L267.903,0C267.903,2.73169 267.903,8.88715 267.903,13Z" fill="#848277"/>
<path d="M139,11L141.097,10C140.913,9.70651 142.152,10.0826 143.494,10.1703C144.836,10.2581 146.277,10.0254 146.092,8.96784C143.355,8.96784 138.278,8.9025 137,8.9025L139,11Z" fill="#999884"/>
<path d="M134.978,10.0949L137,9C138.278,9 143.302,9.08926 146.039,9.08926C145.706,8.4742 146.595,8.13647 147.625,7.74542C148.655,7.35438 149.881,6.84491 150.094,6.02416C150.094,4.27854 150.097,0.218079 150.097,0C142.529,0 133.263,-0.0873733 126.957,-0.0873733C127.511,3.89137 130.999,8.22957 134.978,10.0949Z" fill="#A6A590"/>
<path d="M149.903,6C150.676,6.49152 151.1,5.4914 151.147,4.11681C151.193,2.74223 151.056,1.00119 151.097,0.00801384L149.903,0C149.903,0.218079 149.903,4.25438 149.903,6Z" fill="#A4A38E"/>
</g>
</svg>
