<?xml version='1.0' encoding='utf-8'?>
<!-- Generator: imaengine 6.0   -->
<svg xmlns:xlink="http://www.w3.org/1999/xlink" xmlns="http://www.w3.org/2000/svg" viewBox="0,0,1597,1600" style="enable-background:new 0 0 1597 1600;" version="1.1">
<defs/>
<g id="layer0">
<path d="M-0.532833,1600C27.632,1600 57.1599,1600.48 84.237,1600.48C89.2278,1557.21 88.3175,1508.27 94.5275,1465.08C94.5275,1455.45 94.5328,1444.4 94.5328,1436C86.9828,1380.96 94.7169,1316.04 88.5299,1256.94C92.9585,1211.03 101.475,1154.28 88.5146,1106.86C86.0484,1057.65 125.975,1031.39 160.094,1026.52C165.463,1025.36 173.366,1024.99 177.137,1023.51C201.374,1020.29 203.58,1005.58 196.827,991.531C190.074,977.479 174.458,963.091 164.233,959.521C139.133,941.365 159.312,881.563 169.501,852.181C186.876,821.286 177.054,778.276 165.492,750.795C154.566,721.439 159.993,678.587 173.445,658.294C191.537,630.351 168.353,598.717 160.498,577.812C151.217,555.245 135.87,538.03 122.436,520.694C116.448,501.194 111.309,472.688 113.531,443.04C117.718,427.621 120.072,402.247 121.531,382.038C122.049,361.409 121.943,340.35 116.496,326.805C113.176,313.718 109.48,300.113 105.503,288.825C102.918,278.047 100.286,266.273 97.5117,256.852C96.0201,247.015 93.0333,237.606 92.5321,227.972C90.4438,219.413 89.0376,208.831 87.5235,200.9C86.0052,189.732 86.5628,175.479 86.5328,163.999C87.2126,151.992 90.1537,141.376 93.492,133.204C96.7027,126.791 101.519,120.901 105.388,116.365C109.622,113.031 114.833,109.37 119.243,107.474C123.188,104.884 128.536,102.19 133.112,101.521C140.025,99.4931 147.572,96.8039 155.009,96.5328C212.176,96.705 222.035,48.7016 230.503,0.175583C153.844,0.175583 76.4207,-0.476581 -0.23829,-0.476581C-0.23829,532.803 -0.532833,1066.72 -0.532833,1600Z" fill="#03027D"/>
<path d="M83.4808,1599.88C88.9792,1599.88 97.0624,1600.48 101.238,1600.48C96.9127,1545.16 111.084,1507.55 111.533,1457C111.756,1455.26 111.7,1451.18 111.493,1448.6C111.285,1446.02 110.28,1444.42 109.888,1448.48C101.188,1420.84 102.664,1382.15 108.525,1348.09C108.491,1314.13 100.002,1288.58 103.53,1251.05C105.961,1226.66 109.234,1202.46 110.532,1178.03C111.864,1149.55 106.167,1128.64 103.529,1107.93C101.873,1085.21 113.748,1068.27 132.288,1058.45C144.393,1047.64 172.71,1048.19 188.061,1044.53C212.943,1044.73 218.785,1019.01 211.505,997.829C206.455,978.4 193.572,966.034 185.473,950.755C178.982,934.783 174.402,916.513 175.532,894.027C175.357,876.191 180.015,861.751 183.52,846.117C186.891,832.744 189.141,817.193 188.532,800.98C187.725,788.423 182.632,779.133 183.532,766.037C181.156,756.744 177.652,747.293 176.529,737.936C174.673,727.785 176.058,713.271 175.532,702.973C175.746,696.533 175.796,690.248 176.647,686.148C177.499,682.048 178.692,680.687 182.071,683.528C186.143,676.952 188.581,666.857 192.452,661.283C192.452,652.343 192.533,641.708 192.533,634C191.855,626.423 194.339,613.554 189.314,611.57C188.231,604.054 184.127,598.453 181.471,593.75C180.349,587.648 176.385,582.805 174.476,578.76C173.351,577.304 172.086,574.489 170.862,572.202C169.638,569.914 168.124,567.881 167.143,568.487C166.905,563.762 161.707,558.738 165.43,554.315C164.368,546.095 162.368,537.285 163.528,528.068C161.772,522.944 163.345,512.299 160.398,509.645C160.267,507.809 160.602,503.355 160.61,499.658C160.618,495.962 159.397,493.203 158.497,495.824C157.496,498.009 158.393,495.574 158.448,492.218C158.504,488.862 158.734,484.614 158.512,483.854C161.203,447.166 151.454,423.078 151.533,389.002L150.533,389C148.27,369.807 144.306,350.619 140.103,334.477C138.864,336.645 137.523,334.952 136.163,333.752C134.802,332.552 133.319,331.835 133,336.467C132.399,327.786 130.29,320.135 128.513,313.855C126.832,307.281 124.439,300.013 123.526,293.917C120.997,289.035 119.312,277.031 117.37,275.617C114.948,265.013 113.593,252.592 110.504,243.828C110.478,233.206 106.779,225.236 107.531,215.039C107.531,206.441 107.533,196.359 107.533,189C106.492,167.848 109.93,150.746 117.455,139.278C114.733,130.165 117.581,121.835 127.307,118.436C127.423,114.785 132.502,114.211 134.166,113.506C146.189,110.886 148.997,105.982 161.013,104.533C177.237,105.676 189.205,104.936 194.37,98.3839C196.938,97.2413 200.839,93.741 204.293,91.0094C207.746,88.2779 209.923,86.2029 210.542,88.2716C213.996,88.3042 216.288,83.9087 216.516,82.1327L215.533,82C215.115,79.5139 217.944,78.6008 218.327,78.4207C219.439,72.6524 224.038,68.3101 225.503,64.1749C228.895,47.5071 237.72,48.1613 237.533,31.9932C238.912,30.0749 239.274,26.4696 239.612,23.9821C239.951,21.4947 239.787,20.6621 241.053,23.5302C240.275,14.8403 242.327,6.48746 242.532,0.0337217C238.765,0.0337217 232.133,-0.477995 229.765,-0.477995C221.296,48.048 212.158,95.6395 154.991,95.4672C147.554,95.7384 139.797,98.452 132.884,100.48C128.308,101.149 122.683,103.946 118.738,106.536C114.327,108.432 108.882,112.265 104.648,115.6C100.779,120.135 95.7325,126.351 92.5219,132.765C89.1836,140.937 86.1478,151.963 85.468,163.97C85.498,175.45 84.9538,189.904 86.4721,201.072C87.9862,209.002 89.3937,219.566 91.482,228.125C91.9831,237.758 94.9817,247.245 96.4734,257.081C99.2477,266.502 101.896,278.347 104.482,289.126C108.459,300.414 112.164,314.047 115.484,327.134C120.932,340.679 120.985,361.357 120.467,381.987C119.008,402.195 116.672,427.443 112.485,442.863C110.263,472.51 115.507,501.67 121.495,521.17C134.929,538.506 150.226,555.635 159.507,578.202C167.362,599.107 190.645,629.767 172.553,657.71C159.101,678.003 153.576,721.832 164.501,751.187C176.064,778.668 185.906,820.852 168.531,851.747C158.342,881.129 138.638,942.308 163.738,960.464C173.963,964.034 189.114,977.94 195.867,991.992C202.62,1006.04 201.108,1019.26 176.871,1022.48C173.099,1023.96 165.274,1024.31 159.905,1025.48C125.786,1030.34 85.0017,1057.81 87.4679,1107.03C100.428,1154.45 91.8982,1211.04 87.4696,1256.95C93.6566,1316.05 85.9221,1381.04 93.4721,1436.07C94.4787,1444.25 95.0484,1458.07 93.4805,1464.88C87.2705,1508.08 88.4716,1556.61 83.4808,1599.88Z" fill="#241E74"/>
<path d="M100.474,1600.08C107.009,1600.08 115.992,1600.48 121.238,1600.48C122.337,1551.84 129.885,1507.98 132.532,1462.03C126.087,1429.05 115.481,1385.63 129.498,1350.19C130.618,1314.01 115.917,1289.91 122.526,1250.09C127.441,1223.49 138.197,1202.15 140.531,1174.05C142.571,1170.24 140.737,1161.54 141.218,1157.49C139.218,1161.33 140.796,1170.35 138.584,1172.67C137.423,1185.55 133.664,1197.12 130.495,1206.83C127.383,1213.69 126.054,1222.73 124.037,1229.47C123.281,1216.16 129.199,1204.38 129.533,1191.01C134.188,1175.74 138.328,1152.57 133.514,1134.86C128.794,1118.72 128.702,1093.56 139.297,1085.44C142.525,1083.78 145.995,1080.71 147.1,1079.04C148.204,1077.38 146.36,1076.22 140.714,1079.55C133.946,1084.45 128.872,1092.84 127.473,1101.92C125.06,1117.3 130.948,1132.89 132.471,1146.06C133.374,1159.36 131.546,1181.81 129.183,1182.5C132.048,1167.75 132.249,1147.42 129.522,1133.89C126.939,1123.12 123.096,1107.01 127.495,1096.2C130.199,1086.55 136.356,1079.84 143.182,1075.5C145.743,1075.3 153.508,1073.76 158.528,1072.54C163.549,1071.31 165.692,1069.36 157.05,1070.47C147.691,1067.39 140.05,1073.81 135.656,1077.59C131.09,1081.28 127.588,1087.87 125.507,1092.8C123.983,1099.58 124.494,1098.87 124.743,1096.07C124.993,1093.26 125.786,1089.01 127.312,1088.43C127.334,1082.02 128.567,1080.2 133.276,1078.46C135.819,1075.15 139.432,1071.31 143.16,1070.51C147.154,1068.74 148.655,1066.57 148.181,1066.12C147.706,1065.68 144.819,1066 141.724,1067.54C136.197,1072.1 134.713,1073.03 134.953,1071.82C135.194,1070.61 137.646,1068.22 142.212,1066.49C148.343,1063.34 155.596,1060.15 164.035,1060.53C166.828,1060.03 170.327,1059.51 173.145,1059.5C175.963,1059.49 177.533,1059.43 177.468,1060.97C197.049,1073.12 210.079,1070.72 217.719,1060.43C225.358,1050.14 228.67,1032.05 230.53,1014.05C229.986,1004.29 225.047,997.649 225.528,988.069C224.679,988.265 224.235,987.717 223.859,986.507C223.484,985.297 222.667,982.824 222.017,979.467C220.921,983.812 214.828,981.228 215.968,990.532C215.063,986.285 213.859,980.051 212.421,977.674C203.159,972.614 203.006,962.619 207.509,948.158C208.068,946.105 208.132,937.928 207.764,932.072C207.395,926.217 205.579,922.357 204.495,928.831L203.533,929C204.319,922.369 200.077,919.075 200.524,914.094L199.533,914C199.951,896.326 198.869,876.358 200.53,861.057C200.53,852.802 200.533,843.009 200.533,836C200.533,828.088 200.533,818.658 200.533,812C200.533,801.012 200.533,788.79 200.533,779C201.853,769.768 198.816,763.349 198.532,756.975C195.962,751.977 194.57,743.48 193.226,738.517C191.848,739.95 191.651,738.513 191.494,735.711C191.337,732.908 191.527,729.223 191.533,727.001C191.531,692.082 190.083,674.389 200.471,655.248C199.575,652.915 201.795,650.93 201.375,650.621C201.375,643.741 201.533,635.6 201.533,630C197.881,602.746 182.683,582.845 177.482,560.773L176,558L175.533,558C165.511,516.26 165.645,465.212 160.53,414.945C157.72,403.375 158.825,386.629 154.475,377.758C152.087,374.148 150.464,376.674 150.378,380.1C150.293,383.527 150.758,387.946 150.488,388.851C150.409,422.927 160.16,447.273 157.469,483.96C157.69,484.721 157.438,488.844 157.383,492.2C157.327,495.556 158.485,498.403 159.486,496.218C160.386,493.598 159.552,495.96 159.544,499.656C159.536,503.352 159.338,508.209 159.469,510.045C162.416,512.699 160.738,523.045 162.495,528.169C161.334,537.386 163.411,545.857 164.473,554.077C160.75,558.499 166.241,564.386 166.479,569.111C167.46,568.505 168.699,570.417 169.922,572.704C171.146,574.992 172.443,577.855 173.568,579.312C175.477,583.356 179.355,587.999 180.477,594.102C183.133,598.805 187.396,604.594 188.479,612.11C193.503,614.094 190.792,626.47 191.469,634.047C191.469,641.756 191.467,652.06 191.467,661C187.596,666.574 185.969,675.901 181.897,682.477C178.518,679.636 176.456,681.831 175.604,685.931C174.752,690.032 174.681,696.543 174.467,702.982C174.993,713.28 173.619,727.944 175.476,738.095C176.599,747.452 180.108,756.838 182.483,766.13C181.583,779.226 186.661,788.477 187.468,801.034C188.076,817.247 185.854,832.497 182.483,845.87C178.978,861.504 174.293,876.169 174.467,894.005C173.337,916.492 178.016,935.233 184.508,951.205C192.607,966.484 205.435,978.707 210.485,998.135C217.765,1019.31 212.823,1043.67 187.941,1043.47C172.59,1047.13 143.783,1046.77 131.677,1057.58C113.138,1067.4 100.813,1085.32 102.469,1108.04C105.107,1128.75 110.8,1149.5 109.468,1177.98C108.17,1202.41 104.9,1226.55 102.47,1250.95C98.9412,1288.47 107.432,1314.04 107.467,1348C101.606,1382.06 101.337,1421.89 110.037,1449.53C110.429,1445.47 110.223,1446.11 110.43,1448.69C110.638,1451.27 110.694,1455.19 110.471,1456.93C110.023,1507.48 96.1486,1544.76 100.474,1600.08Z" fill="#392E6C"/>
<path d="M120.468,1599.98C123.546,1599.98 129.597,1600.48 131.238,1600.48C130.096,1554.35 132.156,1517.29 143.509,1481.16C143.195,1475 142.756,1467.44 146.293,1466.45C143.587,1442.98 128.568,1412.92 137.517,1377.13C137.794,1371.56 141.157,1367.09 140.528,1361.93C145.172,1353.89 143.798,1338.82 144.531,1328.05C139.29,1324.12 138.684,1308 135.513,1296.85C129.345,1274 130.121,1249.2 133.528,1225.07C134.314,1203.06 143.235,1188.67 150.482,1174.23C151.003,1158.58 156.478,1157.6 163.34,1161.79C170.201,1165.97 177.505,1175.36 180.537,1181.26C193.275,1194.01 194.269,1218.93 198.478,1239.11C200.557,1257.48 204.587,1274.58 205.468,1293.03C207.307,1306.58 207.889,1322.4 209.471,1335.07C209.766,1346.1 211.551,1356.92 213.481,1365.12C213.957,1367.81 214.903,1374.76 215.884,1380.07C216.865,1385.39 218.928,1389.03 219.527,1385.08C217.648,1372.58 213.655,1361.05 212.531,1348.95C212.187,1337.29 209.954,1326.43 210.532,1315.03C209.958,1306.32 208.109,1297.51 208.532,1289.03C208.47,1278.65 207.726,1278.05 208.148,1280.82C208.571,1283.59 209.099,1289.75 209.47,1293.06C210.123,1302.37 211.493,1312.22 211.467,1321C213.205,1327.52 212.734,1337.92 214.494,1343.17C213.966,1351.95 216.609,1358.84 216.467,1365.99C218.119,1373.62 220.756,1381.71 221.47,1389.05C223.475,1394.96 224.742,1403.27 226.497,1408.17C226.71,1470.33 219.153,1537.32 228.489,1600.15C259.333,1600.15 291.475,1600.48 321.238,1600.48C321.347,1584.64 317.972,1571.18 318.531,1556.04L317.533,1556C317.533,1540.61 317.533,1524.24 317.533,1510C316.425,1493.35 312.288,1478.75 309.522,1464.9C306.993,1453.05 304.108,1440.62 303.532,1427.98C301.822,1416.66 300.8,1403.52 299.529,1392.94C298.123,1380.64 294.922,1369.08 293.529,1357.93C291.012,1348.78 287.91,1339.01 286.527,1329.92C284.418,1323.09 282.156,1315.03 281.531,1307.95C279.75,1302.16 278.596,1294.13 277.522,1288.89C283.362,1199.99 256.876,1142.45 248.52,1068.88L247.533,1069C248.018,1064.75 245.545,1061.5 246.506,1058.17C235.388,1046.51 236.764,1045.2 237.532,1024.02C237.987,1020.7 237.697,1016.06 237.317,1013.88C236.938,1011.7 235.403,1011.95 235.467,1018.01C235.494,1021.32 235.708,1019.54 234.559,1017.45C233.41,1015.37 231.059,1012.59 229.629,1013.62C227.769,1031.61 224.503,1049.51 216.863,1059.8C209.224,1070.08 197.937,1072.76 178.356,1060.6C178.421,1059.07 175.96,1058.43 173.142,1058.44C170.324,1058.44 166.757,1058.96 163.964,1059.47C155.525,1059.09 147.91,1062.36 141.779,1065.52C137.213,1067.24 134.148,1070.4 133.908,1071.61C133.668,1072.82 136.779,1072.99 142.306,1068.44C145.401,1066.89 146.978,1066.46 147.453,1066.9C147.928,1067.35 146.824,1067.72 142.83,1069.5C139.102,1070.3 135.179,1074.31 132.636,1077.61C127.927,1079.35 126.489,1081.58 126.467,1088C124.941,1088.57 123.931,1093.17 123.682,1095.97C123.432,1098.77 124.995,1099.9 126.519,1093.12C128.6,1088.19 131.772,1082.1 136.339,1078.41C140.733,1074.63 147.59,1068.46 156.948,1071.53C165.59,1070.42 163.296,1070.28 158.276,1071.5C153.255,1072.73 145.403,1074.29 142.843,1074.49C136.017,1078.83 129.191,1086.21 126.488,1095.85C122.089,1106.66 125.898,1123.35 128.482,1134.12C131.209,1147.65 131.397,1168 128.532,1182.75C130.895,1182.06 134.434,1159.26 133.532,1145.96C132.009,1132.8 126.113,1117.46 128.526,1102.08C129.925,1093 134.53,1085.34 141.298,1080.44C146.944,1077.11 147.316,1076.79 146.212,1078.46C145.107,1080.12 141.954,1082.88 138.726,1084.54C128.131,1092.66 127.769,1119 132.488,1135.15C137.303,1152.86 133.144,1175.57 128.489,1190.85C128.156,1204.22 123.065,1217.19 123.821,1230.5C125.838,1223.77 128.375,1214.07 131.487,1207.22C134.656,1197.51 138.369,1185.94 139.53,1173.06C141.742,1170.73 138.939,1161.37 140.939,1157.53C140.458,1161.58 141.564,1169.96 139.524,1173.76C137.19,1201.86 126.392,1223.31 121.476,1249.9C114.867,1289.72 129.587,1313.8 128.467,1349.98C114.45,1385.42 125.032,1429.12 131.477,1462.1C128.83,1508.05 121.566,1551.34 120.468,1599.98Z" fill="#423638"/>
<path d="M130.468,1600.03C163.32,1600.03 197.46,1600.48 229.236,1600.48C219.9,1537.65 227.746,1470.16 227.533,1408C225.778,1403.09 224.511,1394.74 222.506,1388.83C221.792,1381.49 219.173,1373.52 217.521,1365.89C217.663,1358.74 215.004,1351.82 215.532,1343.03C213.772,1337.78 214.253,1327.38 212.515,1320.86C212.541,1312.09 211.184,1302.28 210.532,1292.96C210.16,1289.65 209.624,1283.42 209.202,1280.66C208.779,1277.89 207.405,1278.63 207.467,1289C207.044,1297.48 208.894,1306.33 209.468,1315.04C208.89,1326.44 211.124,1337.35 211.467,1349.02C212.591,1361.11 216.594,1372.58 218.473,1385.08C217.874,1389.03 217.913,1385.19 216.932,1379.88C215.951,1374.56 215.001,1367.59 214.525,1364.91C212.595,1356.7 210.827,1346.02 210.533,1334.99C208.95,1322.32 208.367,1306.48 206.528,1292.93C205.648,1274.48 201.608,1257.31 199.529,1238.94C195.321,1218.76 194.136,1193.39 181.399,1180.65C178.367,1174.74 170.756,1165.06 163.895,1160.88C157.033,1156.69 149.989,1158.33 149.467,1173.98C142.22,1188.43 133.254,1202.97 132.468,1224.98C129.061,1249.11 128.318,1274.29 134.486,1297.14C137.657,1308.28 138.383,1324.45 143.624,1328.38C142.891,1339.15 144.175,1353.7 139.531,1361.75C140.159,1366.91 136.744,1371.41 136.468,1376.97C127.518,1412.76 142.77,1442.63 145.476,1466.09C141.939,1467.09 142.153,1474.87 142.468,1481.03C131.114,1517.16 129.325,1553.9 130.468,1600.03Z" fill="#614949"/>
<path d="M320.467,1599.99C327.002,1599.99 335.991,1600.48 341.237,1600.48C342.212,1592.51 342.875,1582.03 342.532,1573.98C342.405,1537.93 344.375,1507.55 337.435,1483.69C336.377,1483.88 336.371,1482.88 336.459,1481.53C336.546,1480.19 336.375,1478.29 336.081,1478.47C334.01,1475.77 333.816,1472.79 333.391,1470.64C332.966,1468.49 332.286,1467.16 331.057,1469.47C329.214,1458.97 331.051,1444.62 330.532,1433.97C330.969,1422.21 327.797,1412.74 326.52,1403.88C325.364,1403.52 324.492,1407.09 324.496,1410.16C324.5,1413.23 325.272,1415.57 323.411,1413.66C320.879,1401.81 320.108,1387.66 320.533,1374.02C318.889,1362.82 315.5,1370.44 314.514,1366.86C313.641,1362.54 313.567,1357.92 313.364,1355.14C313.162,1352.36 311.932,1351.19 310.615,1354.63C308.691,1354.27 310.003,1349.62 310.307,1346.06C310.611,1342.5 310.343,1339.86 308.052,1345.47C308.44,1331 307.375,1343.22 303.928,1337.47C303.399,1348.28 302.504,1345.21 300.893,1338.64C299.283,1332.08 297.485,1322.28 296.456,1320.72C296.456,1305.67 296.533,1289.9 296.533,1276C296.533,1263.65 296.533,1250.17 296.533,1239C297.493,1228.07 294.571,1219.76 295.53,1210.05C295.449,1201.54 294.456,1192.35 293.527,1185.92C291.666,1179.53 290.764,1170.51 288.484,1165.78C286.318,1154.24 282.713,1143.3 281.53,1131.94C279.057,1122.75 276.347,1112.72 277.53,1101.05C277.057,1093.61 278.529,1082.41 276.491,1077.79C274.595,1062.94 270.942,1049.14 269.53,1034.95C268.585,1032.42 267.357,1034.75 267.387,1037.77C267.416,1040.79 267.945,1044.07 267.774,1044.52C265.38,1042.73 258.347,1038.58 258.016,1033.47C257.402,1039.04 259.183,1048.68 257.088,1051.47C257.088,1036.76 257.533,1021.56 257.533,1008C251.068,971.759 232.459,946.337 224.481,912.771L223.533,913C223.834,872.606 223.063,830.077 224.532,792.021C223.683,783.93 221.61,775.435 220.505,768.831L219,769L218,766L217.533,763C216.838,760.255 218.106,750.372 217.528,745.93C206.929,709.756 225.564,680.259 226.533,648.016C226.533,639.761 226.533,630.009 226.533,623C225.414,607.037 218.065,596.083 213.465,584.739C204.224,580.547 209.044,556.177 202.313,553.569C203.621,541.481 199.894,553.917 200.531,546.043C202.249,535.929 198.553,532.421 197.366,531.613C197.366,519.945 197.533,507.479 197.533,497C197.533,488.06 197.533,477.708 197.533,470C195.923,464.385 195.069,456.362 194.53,450.947C192.993,444.229 191.89,435.622 191.532,428.971C192.461,343.305 149.373,300.638 141.522,224.892L140.533,225C140.533,211.974 140.533,197.853 140.533,186C140.088,182.074 140.345,175.975 140.712,172.876C141.079,169.777 140.49,169.653 140.468,177.975C144.74,169.9 146.634,157.976 154.279,154.454C165.319,143.702 184.933,140.935 200.181,135.501C194.586,133.46 195.198,132.063 198.006,130.759C200.814,129.456 205.896,128.209 209.259,126.466C213.924,123.562 220.264,121.016 225.081,119.527L227.533,118C230.623,112.649 224.944,112.181 221.25,112.549C217.556,112.918 215.583,114.584 224.269,110.46C235.024,101.776 251.216,97.2876 257.479,85.2343C258.494,73.5505 268.263,70.8417 279.544,72.3864C290.825,73.9311 302.713,79.8144 307.573,86.3193C318.397,100.644 325.069,119.874 336.62,132.374C349.346,143.118 364.773,152.158 381.803,157.495C396.83,165.268 404.081,180.887 409.494,197.167C412.392,208.04 414.26,224.134 412.971,235.468C413.705,231.718 413.5,226.815 412.696,224.239C411.891,221.664 409.984,221.984 410.468,229.037C411.879,251.568 407.058,268.618 408.468,290.035C408.341,308.254 408.092,327.505 410.474,342.085C411.647,356.644 414.36,370.571 415.469,384.047C420.666,392.553 416.262,412.135 422.592,418.343C421.403,439.105 427.306,422.997 425.47,440.946C425.47,450.57 425.467,461.595 425.467,470C425.467,477.568 425.467,486.693 425.467,493C425.246,498.969 421.879,503.634 423.483,510.128C422.295,514.785 420.397,520.034 418.548,522.718C418.127,527.181 418.71,524.219 418.366,521.515C418.023,518.811 416.672,516.63 416.467,522.983C415.041,533.173 413.637,518.477 412.471,528.937C408.745,535.176 405.271,542.651 401.563,547.695C399.014,552.714 395.109,557.954 392.555,561.707C387.061,571.944 380.882,581.722 377.044,592.469C376.16,579.06 385.545,572 385.533,555.999L384.533,556C384.533,552.922 384.533,547.641 384.533,546C384.076,541.609 381.751,544.514 380.459,547.181C379.166,549.848 378.906,552.244 378.532,545.968C380.073,539.928 380.404,535.08 378.98,529.468C373.968,561.395 343.377,581.951 350.475,622.093C349.893,626.316 352.248,634.138 350.141,635.486C350.141,631.027 350.533,625.094 350.533,622L349.533,622C349.822,613.984 345.507,608.784 348.488,602.213C350.916,590.224 358.398,574.579 364.468,564.255C364.801,561.27 368.258,555.577 370.393,550.625C372.527,545.672 372.681,540.706 367.81,540.502C353.724,559.603 342.794,583.151 339.471,611.939C338.857,618.205 340.606,628.216 338.533,631.743C343.401,654.035 352.016,673.44 354.47,697.055C354.042,714.045 355.149,733.334 353.471,747.939C351.516,765.087 346.197,779.76 346.467,798.008C346.467,802.467 346.467,808.906 346.467,812C348.356,829.55 355.43,843.077 362.545,854.277C367.888,866.353 374.306,878.076 378.495,890.171C380.467,904.276 382.301,928.353 379.485,939.865C372.991,949.919 367.56,966.005 361.775,972.517C359.526,972.224 357.55,978.814 356.143,983.763C354.737,988.713 354.102,991.972 352.979,986.468C353.865,996.183 345.988,1007.93 351.561,1015.3C353.563,1022.24 357.632,1028.67 361.627,1032.38C365.614,1036.99 370.669,1042.13 375.709,1044.45C380.108,1049.67 387.348,1053.41 392.713,1056.45C398.08,1060.71 405.627,1064.03 410.656,1067.41C413.686,1072.29 420.871,1074.32 423.557,1078.3C426.079,1082.31 430.857,1085.33 430.468,1090.96C430.468,1101.61 430.467,1113.56 430.467,1123C419.076,1182.71 440.837,1222.3 446.471,1270.06C447.529,1276.06 448.103,1288.24 446.497,1292.83C444.126,1301.78 442.517,1312.85 441.471,1321.94C439.318,1330.77 441.087,1344.79 440.468,1353.96C440.972,1363.09 440.764,1367.7 440.209,1368.27C439.654,1368.84 439.817,1365.38 439.533,1356.98C439.43,1354.63 439.615,1347.38 439.608,1341.95C439.601,1336.53 438.344,1332.87 437.475,1337.91C438.8,1348.52 435.949,1356.39 435.468,1363.97C435.386,1371.27 437.371,1378.08 436.472,1384.93C436.784,1391.78 436.493,1399.64 435.481,1403.88C434.792,1409.72 431.509,1414.12 427.702,1415.56C425.747,1419.79 423.829,1426.26 422.499,1429.82C414.147,1499.48 466.502,1520.11 454.49,1599.85C468.532,1599.85 484.359,1600.48 497.238,1600.48C495.78,1564.61 498.841,1524.87 490.466,1494.74L488.533,1496C485.226,1479.43 468.995,1462.34 477.506,1437.17C478.549,1423.49 486.105,1415.15 486.533,1402.02C487.146,1395.75 485.393,1385.79 487.466,1382.26C485.886,1376.61 484.784,1368.37 483.463,1363.74L482.533,1367C482.533,1364.93 482.533,1360.56 482.533,1360L481.533,1360C482.114,1351.3 480.536,1339.25 482.508,1333.16C483.045,1329.59 481.22,1322.09 483.3,1321.44C484.064,1307.83 489.01,1296.68 488.533,1282.98C489.147,1277.41 487.347,1268.09 489.442,1265.3C487.521,1255.89 487,1243.48 484.507,1235.84C481.832,1227.18 479.514,1216.91 476.493,1209.8C475.291,1202.06 472.96,1194.15 471.519,1187.88C470.471,1181.02 470.24,1171.97 470.532,1165.02C471.837,1154.32 475.991,1145.31 476.532,1135.03C479.291,1127.48 481.092,1117.76 482.524,1110.1C482.83,1100.51 482.809,1089.54 480.495,1083.8C478.764,1079 476.282,1073.19 474.472,1069.75C469.244,1058.91 458.61,1052.1 450.255,1045.53C446.67,1044.66 441.309,1042.4 438.375,1040.35C435.44,1038.29 434.674,1037.45 440.997,1037.53C438.259,1037.53 433.278,1036.47 432,1036.47L432,1036L432,1035L430,1035L430,1034C423.12,1034 414.698,1033.48 409.098,1033.48C401.5,1030.43 394.032,1026.4 389.37,1021.62C384.646,1017.74 380.636,1012.25 380.533,1004.99C379.672,996.22 381.332,988.889 384.424,985.323C385.945,979.62 389.706,974.395 391.485,970.22C394.381,966.236 399.85,963.005 400.527,958.081C405.01,952.599 408.948,945.409 411.493,939.202C432.464,885.673 386.376,863.386 386.533,825.002C386.768,821.689 382.883,820.478 383.471,818.249L382.533,818C383.12,809.647 381.517,797.897 383.503,792.175C385.923,785.312 384.819,773.5 386.514,767.139C399.529,730.114 391.416,673.529 377.394,642.642L376.533,643C376.533,641.254 376.533,637.218 376.533,637L375.533,637C376.07,633.425 374.22,626.093 376.3,625.441C376.255,624.523 376.411,622.607 376.51,621.452C376.609,620.296 376.471,619.979 377.12,620.519C377.86,611.976 380.496,603.483 384.41,599.34C392.948,577.369 405.353,558.703 419.414,543.336C418.687,541.576 419.022,540.425 419.776,539.758C420.531,539.092 421.427,539.088 422.136,539.515C423.263,535.022 430.381,534.401 435.281,532.453C448.182,516.184 451.732,489.3 452.533,462.016C450.54,438.682 454.144,416.899 447.498,399.811C444.236,384.644 440.2,369.573 438.53,353.943C435.811,340.929 436.602,323.513 436.533,308.997C436.326,304.675 436.294,300.669 436.582,298.091C436.869,295.512 437.018,294.892 438.075,296.528C437.136,287.676 439.712,279.823 439.533,272.986C437.792,256.446 443.559,243.454 440.52,229.885C440.714,216.714 447.462,209.089 446.532,195.962C446.341,184.484 444.685,172.961 440.451,166.716C438.045,159.157 432.196,153.324 427.242,149.526C418.476,147.713 418.437,143.593 416.39,140.636C410.516,138.088 407.535,132.905 403.119,135.481C401.095,131.315 390.052,134.679 386.288,133.552C384.904,129.493 379.577,125.115 376.125,127.482C375.409,124.945 372.802,123.465 370.885,123.616C368.969,123.767 367.131,126.283 368.513,130.217C372.255,132.657 371.137,133.131 368.562,133.504C365.987,133.877 362.887,133.641 362.445,132.707C360.526,131.885 358.573,130.323 357.942,129.234C357.312,128.145 357.738,128.326 361.178,129.502C361.592,125.845 363.524,122.645 364.092,120.516C364.661,118.388 363.878,116.331 360.189,115.502C354.629,112.121 351.275,105.502 347.409,101.659C347.161,98.9694 345.857,95.9985 344.499,93.91C343.14,91.8216 341.308,90.424 340.99,91.4673C333.299,69.1598 325.692,38.873 322.526,-0.0854956C303.087,-0.0854956 282.08,-0.47769 263.764,-0.47769C263.535,1.00479 263.49,3.99739 263.548,6.12699C263.606,8.25658 263.771,9.52114 262.768,9.52029C252.23,50.0264 246.568,82.0835 213.061,97.4707C214.262,96.5012 218.951,97.2101 222.291,97.4013C225.632,97.5925 227.35,97.3066 222.788,98.5113C216.4,103.112 208.63,107.661 200.724,109.545C200.041,111.599 193.303,110.031 192.62,110.626C191.967,111.814 182.254,112.201 173.514,112.801C164.775,113.402 157.307,115.116 161.919,116.527C167.764,116.527 175.369,116.524 179.902,116.524C175.488,118.3 166.433,115.992 162.018,116.467C161.145,116.313 159.764,116.333 158.849,116.503C157.935,116.672 157.25,118.01 157.782,118.486C163.281,118.486 170.741,118.526 174.916,118.526C169.768,120.258 160.13,118.015 154.982,118.467C153.072,118.429 149.278,119.158 147.317,119.89C145.357,120.622 145.255,122.423 150.007,122.533C151.466,122.462 155.182,122.398 157.815,122.509C160.448,122.62 161.926,121.844 158.935,122.471C155.301,122.605 151.217,124.249 148.072,123.472C125.154,122.902 161.765,124.447 144.823,127.497C132.275,135.061 119.725,144.025 116.507,159.799L116,163L114.467,160C109.712,205.513 118.224,244.771 126.017,281.533C125.635,278.67 126.547,274.629 127.35,271.891C128.154,269.152 128.469,267.572 129.635,268.388C138.835,303.903 151.048,336.893 153.468,378.033C157.818,386.904 157.222,403.962 160.032,415.532C160.032,410.033 160.533,402.175 160.533,398C164.985,407.935 164.667,383.907 164.467,402.994C166.379,455.88 178.911,507.137 175.472,557.929L177.533,561C179.245,555.488 178.09,545.555 178.531,540.043C179.694,532.39 179.357,535.177 180.05,538.831C180.743,542.484 181.934,547.494 182.999,543.533C184.664,549.78 189.055,553.915 190.486,559.142C193.162,567.454 197.487,575.455 200.514,582.219C203.165,587.823 205.937,594.695 207.489,600.152C228.773,638.594 200.357,673.791 195.474,704.912C197.324,708.215 195.96,716.779 196.473,720.081C196.55,730.653 200.306,738.799 201.473,747.077C204.264,753.91 206.31,762.962 208.498,769.179C212.648,778.733 211.339,794.596 211.467,807.006C211.588,817.433 211.977,829.198 209.499,835.818C209.285,838.666 209.598,844.013 209.573,847.885C209.549,851.758 209.614,853.81 207.926,851.472C206.966,855.665 206.129,862.888 206.469,867.044C202.821,882.201 212.951,892.512 209.917,900.474C205.121,893.545 204.022,899.34 204.271,907.198C204.521,915.057 206.235,924.972 205.033,928.468C206.117,921.995 206.332,926.284 206.7,932.139C207.069,937.995 207.045,945.807 206.486,947.859C201.983,962.321 202.416,973.365 211.677,978.424C213.116,980.802 215.113,986.286 216.019,990.533C214.878,981.229 220.891,984.878 221.987,980.533C222.636,983.889 222.466,985.613 222.842,986.823C223.217,988.033 223.955,988.692 224.804,988.495C224.322,998.075 228.941,1004.38 229.485,1014.14C230.916,1013.11 232.477,1015.88 233.626,1017.97C234.775,1020.05 236.559,1021.31 236.533,1018C236.468,1011.94 235.888,1011.88 236.267,1014.06C236.647,1016.24 236.926,1020.61 236.472,1023.93C235.704,1045.11 234.987,1046.86 246.105,1058.52C246.105,1052.33 246.533,1043.89 246.533,1039C246.533,1035.23 246.533,1029.37 246.533,1027C247.12,1018.65 244.969,1007.25 246.956,1001.53C247.116,1006.18 248.253,1010.67 247.476,1014.9C247.476,1033 247.467,1052.04 247.467,1069C255.824,1142.57 282.308,1200.06 276.468,1288.96C277.543,1294.2 278.709,1302.37 280.49,1308.15C281.116,1315.24 283.381,1323.32 285.49,1330.15C286.874,1339.25 289.969,1348.99 292.486,1358.14C293.879,1369.28 297.065,1380.76 298.471,1393.06C299.742,1403.64 300.763,1416.76 302.473,1428.08C303.049,1440.72 305.949,1453.26 308.479,1465.11C311.245,1478.97 315.361,1493.39 316.468,1510.04C317.882,1524.35 317.201,1541.69 317.467,1556.01C316.908,1571.15 320.576,1584.15 320.467,1599.99ZM384.467,729L384.533,730C384.731,727.469 384.489,717.869 384.444,710.453C384.398,703.037 383.49,697.89 384.474,704.085C385.613,708.251 386.155,719.044 384.534,721.741C384.534,722.305 384.467,726.932 384.467,729Z" fill="#827284"/>
<path d="M340.482,1599.87C346.327,1599.87 354.704,1600.48 359.238,1600.48C359.014,1597.73 359.356,1589.32 359.56,1584.29C359.764,1579.25 359.061,1577.13 359.468,1586.03C361.345,1588.95 359.972,1597.25 360.499,1600.18C392.012,1600.18 424.802,1600.48 455.236,1600.48C467.249,1520.74 415.177,1499.72 423.529,1430.07C424.859,1426.5 426.489,1420.53 428.444,1416.29C432.25,1414.86 435.839,1409.91 436.529,1404.06C437.541,1399.83 437.845,1391.82 437.532,1384.98C438.431,1378.12 436.45,1371.31 436.533,1364.01C437.014,1356.43 439.854,1348.54 438.529,1337.93C439.398,1332.89 438.535,1336.53 438.542,1341.96C438.549,1347.38 438.365,1354.67 438.468,1357.02C438.752,1365.42 440.418,1369.58 440.972,1369.01C441.527,1368.44 442.036,1363.09 441.532,1353.97C442.151,1344.8 440.366,1330.96 442.518,1322.12C443.565,1313.04 445.145,1302.09 447.516,1293.13C447.516,1285.57 447.533,1276.31 447.533,1270C441.899,1222.23 420.133,1182.81 431.524,1123.1C431.524,1113.65 431.533,1101.65 431.533,1091C431.921,1085.37 426.972,1081.73 424.45,1077.71C421.764,1073.74 414.457,1071.56 411.426,1066.68C406.398,1063.3 398.676,1059.82 393.309,1055.57C387.944,1052.53 380.759,1048.83 376.36,1043.61C371.32,1041.29 366.381,1036.25 362.394,1031.64C358.399,1027.93 354.511,1021.78 352.508,1014.84C346.936,1007.47 353.933,996.185 353.047,986.469C354.17,991.974 355.762,989.004 357.169,984.055C358.575,979.105 359.91,973.216 362.159,973.509C367.943,966.997 373.963,950.328 380.457,940.274C383.273,928.763 381.499,904.03 379.527,889.925C375.338,877.83 368.827,865.853 363.484,853.777C356.369,842.576 349.41,829.438 347.521,811.888L346.533,812C347.115,807.777 345.252,799.742 347.359,798.393C347.089,780.145 352.575,765.208 354.529,748.06C354.958,731.07 353.851,711.666 355.529,697.061C353.076,673.446 344.389,654.179 339.521,631.887C340.135,625.621 338.395,615.783 340.468,612.255C343.791,583.468 354.358,560.396 368.444,541.295C370.935,529.344 367.602,513.762 360.341,509.591C357.34,500.584 359.009,485.608 349.259,484.535C347.765,459.204 342.755,437.458 340.53,413.95C339.246,393.106 337.141,372.292 333.522,354.893C334.52,336.138 330.595,321.289 325.484,309.777C319.857,300.686 316.356,288.312 310.426,280.68C305.635,273.123 300.997,264.214 295.398,258.646C291.925,251.813 287.057,245.191 283.444,239.705C280.275,235.185 275.969,225.322 273.293,224.555C273.002,222.46 271.308,218.169 269.71,215.85C268.113,213.531 265.79,213.687 266.47,220.056C266.652,225.07 266.617,223.494 265.301,220.85C263.985,218.206 262.219,213.997 261.302,213.561C258.58,209.748 257.768,203.074 258.529,197.067C260.736,182.852 250.156,180.165 249.532,169.966C245.032,158.591 252.097,159.23 250.529,146.932C249.453,139.413 254.53,137.834 258.31,136.433C257.899,132.109 258.107,126.269 258.522,124.107C256.096,120.115 260.214,117.28 263.595,114.459C266.975,111.638 269.199,108.202 263.102,105.477C251.124,106.109 243.489,119.578 227.034,117.468L224.467,119C220.774,123.218 213.134,124.105 208.857,126.487L208.467,126C205.104,127.743 200.365,128.489 197.557,129.793C194.749,131.097 194.348,133.488 199.942,135.53C207.118,134.528 204.682,134.687 200.225,136.16C195.768,137.633 189.259,139.365 187.912,139.475C175.177,142.809 164.325,149.124 153.788,153.511C146.142,157.033 144.795,169.688 140.523,177.763C140.523,193.495 140.467,210.416 140.467,225C148.318,300.747 191.396,343.328 190.467,428.994C190.825,435.645 191.943,444.4 193.48,451.118C194.019,456.533 194.877,464.53 196.487,470.144C196.487,477.853 196.467,488.06 196.467,497C196.467,507.479 196.467,520.332 196.467,532C197.655,532.808 201.192,535.797 199.475,545.911C198.837,553.785 202.781,541.829 201.474,553.917C208.204,556.525 203.444,581.237 212.684,585.429C217.285,596.773 224.351,607.089 225.47,623.052C226.289,623.433 226.451,625.035 226.577,626.494C226.703,627.953 227.143,629.719 227.82,629.501C227.237,633.725 228.748,641.258 226.641,642.606C226.686,643.524 226.589,645.393 226.49,646.548C226.391,647.704 226.528,648.022 225.879,647.481C224.91,679.725 205.925,710.067 216.525,746.241C217.565,746.4 217.609,747.802 217.524,749.473C217.439,751.143 217.563,753.356 217.863,753.515L218.467,756C220.373,758.554 218.939,766.555 219.479,769.11C220.583,775.713 222.62,783.965 223.47,792.056C223.47,832.358 223.467,871.525 223.467,913C231.445,946.565 250.011,971.853 256.476,1008.09C258.1,1015.41 257.076,1026.71 257.468,1034.03C257.799,1039.14 265.715,1043.73 268.109,1045.52C268.281,1045.07 268.482,1040.78 268.452,1037.76C268.423,1034.74 267.554,1032.65 268.499,1035.18C269.911,1049.37 273.576,1063.22 275.472,1078.07C277.51,1082.69 275.995,1093.6 276.468,1101.03C275.285,1112.7 278.012,1122.94 280.485,1132.14C281.668,1143.49 285.311,1154.57 287.477,1166.1C289.758,1170.83 290.626,1179.75 292.488,1186.15C293.417,1192.58 294.386,1201.49 294.467,1210.01C293.508,1219.72 296.429,1228.03 295.469,1238.95C295.469,1250.12 295.467,1263.65 295.467,1276C295.467,1289.9 295.467,1305.94 295.467,1321C296.496,1322.55 298.248,1332.33 299.858,1338.9C301.469,1345.46 303.91,1349.11 304.438,1338.3C307.886,1344.05 307.957,1331.22 307.569,1345.69C309.861,1340.07 309.549,1342.41 309.245,1345.97C308.941,1349.53 309.266,1355.13 311.189,1355.5C312.506,1352.05 312.099,1352.43 312.301,1355.22C312.504,1358 312.605,1362.79 313.478,1367.11C314.464,1370.68 317.829,1362.88 319.473,1374.08C319.048,1387.72 319.951,1402.28 322.483,1414.13C324.344,1416.03 325.566,1413.23 325.562,1410.16C325.557,1407.09 324.546,1404.08 325.702,1404.44C326.979,1413.3 329.904,1422.22 329.468,1433.98C329.986,1444.63 329.006,1460.01 330.849,1470.51C332.078,1468.2 331.92,1468.69 332.345,1470.84C332.771,1473 333.687,1476.78 335.758,1479.47C336.815,1479.29 336.629,1480.12 336.541,1481.47C336.454,1482.81 336.576,1484.7 336.869,1484.52C343.809,1508.38 341.34,1537.95 341.467,1574C341.81,1582.05 341.457,1591.91 340.482,1599.87ZM358.467,1569L358.533,1570C358.533,1555.42 358.533,1538.73 358.533,1523C358.974,1517.49 357.248,1508.04 358.96,1502.53C358.96,1507.42 358.467,1514.81 358.467,1521C358.467,1523.37 358.467,1529.23 358.467,1533C358.467,1536.09 358.467,1542.54 358.467,1547C358.467,1552.95 358.467,1561.78 358.467,1569Z" fill="#D5C8B1"/>
<path d="M358.474,1600.09L360.533,1600C360.533,1595.54 360.533,1589.09 360.533,1586C360.126,1577.11 358.699,1579.21 358.495,1584.24C358.291,1589.28 358.251,1597.33 358.474,1600.09Z" fill="#B1A798"/>
<path d="M359.467,1600L361.533,1600C361.006,1597.07 361.8,1588.4 359.923,1585.47C359.923,1588.57 359.467,1595.54 359.467,1600Z" fill="#B4AB9A"/>
<path d="M496.469,1600.04C500.236,1600.04 506.87,1600.48 509.238,1600.48C509.052,1574.17 510.718,1545.13 507.527,1522.92C504.624,1501.35 502.673,1477.88 493.455,1463.72C492.831,1461.81 492.244,1453.99 492.318,1447.91C492.392,1441.83 492.71,1438.31 495.038,1444.53C492.967,1431.81 498.804,1424.66 497.529,1413.94C499.199,1392.15 495.791,1379.78 495.533,1362.99C495.254,1358.17 495.677,1348.14 496.46,1340.43C497.242,1332.71 497.881,1327.85 499.03,1332.53C498.081,1318.56 501.469,1306.84 502.53,1296.05C501.652,1287.27 506.455,1277.94 504.525,1266.91C504.01,1257.12 502.981,1246.54 501.523,1238.9C499.712,1231.43 499.201,1221.1 496.48,1215.77C495.462,1209.22 493.306,1202.45 492.527,1196.92C491.166,1192.79 490.04,1186.72 490.53,1182.06C490.53,1176.9 490.533,1169.82 490.533,1166C491.138,1161.11 488.782,1152.59 490.891,1150.52C490.945,1151.85 490.372,1154.42 490.409,1156.75C490.446,1159.09 491.616,1161 492.414,1159.34C497.929,1158.43 497.83,1146.57 499.516,1140.13C500.814,1134.21 502.747,1127.15 502.533,1120.98C502.533,1114.1 502.533,1105.6 502.533,1100C501.223,1085.1 498.832,1066.9 487.244,1066.53C486.153,1052.56 476.531,1045.75 468.9,1039.48C468.224,1041.2 462.797,1040.26 462.093,1040.48C458.305,1037.38 447.32,1040.13 445.293,1036.55C443.436,1036.98 441.521,1034.64 440.736,1035.54L441.533,1037C435.21,1036.92 434.83,1039.17 437.764,1041.22C440.698,1043.27 446.2,1045.61 449.785,1046.49C458.141,1053.06 468.293,1059.39 473.521,1070.23C475.331,1073.67 477.768,1079.38 479.499,1084.18C481.813,1089.92 481.773,1100.39 481.467,1109.98C480.036,1117.65 478.257,1127.27 475.498,1134.82C474.957,1145.1 470.776,1154.23 469.471,1164.94C469.178,1171.89 469.425,1181.22 470.473,1188.08C471.914,1194.35 474.272,1202.35 475.474,1210.08C478.495,1217.2 480.816,1227.5 483.491,1236.16C485.984,1243.8 486.557,1255.7 488.478,1265.11C487.864,1270.68 489.652,1279.91 487.557,1282.7C488.034,1296.4 483.233,1307.35 482.468,1320.97C482.468,1335.35 482.467,1350.78 482.467,1364C483.789,1368.63 484.906,1376.5 486.486,1382.14C485.872,1388.41 487.605,1398.22 485.532,1401.75C485.104,1414.88 477.512,1423.28 476.469,1436.96C471.565,1465.67 485.557,1476.33 489.479,1495.11C497.854,1525.24 495.011,1564.18 496.469,1600.04Z" fill="#463E84"/>
<path d="M508.467,1600.01C511.889,1600.01 518.234,1600.48 520.238,1600.48C521.188,1547.78 521.951,1493.85 510.459,1454.73L509.533,1455C509.784,1453.37 509.521,1450.68 509.452,1448.38C509.383,1446.08 509.243,1444.62 510.269,1444.46C510.138,1436.42 512.344,1428.59 513.521,1423.11C513.637,1416.35 516.341,1410.35 515.529,1403.93C504.885,1331.86 529.547,1250.8 507.445,1183.71L506.533,1184C507.115,1179.78 505.252,1171.74 507.359,1170.39C506.858,1157.21 511.026,1147.03 511.532,1136.02C513.951,1124.74 515.705,1111.7 515.533,1098.99C514.816,1087.02 513.109,1074.76 510.51,1065.85C507.376,1059.36 503.455,1052.02 499.409,1047.66C496.897,1042.6 491.684,1038.65 488.388,1035.64C486.461,1031.72 480.341,1030.27 478.413,1027.66C473.981,1023.84 466.794,1021 462.257,1018.53C457.84,1016.07 451.104,1014.18 447.184,1012.5C441.877,1010.93 435.828,1008.56 432.254,1006.53C429.007,1004.89 425.724,1001.67 428.433,998.311C435.428,970.31 455.912,955.42 458.531,923.043C458.531,919.965 458.533,914.641 458.533,913C453.556,871.706 432.325,847.243 412.442,819.702C399.568,787.919 419.065,755.803 423.526,727.083C432.896,694.901 417.459,668.112 408.496,645.806C401.242,611.121 426.081,595.524 439.42,577.328C454.553,562.287 473.056,550.134 486.383,534.37C503.722,522.204 500.692,488.577 500.533,459.997C501.719,434.669 500.089,411.206 492.482,395.772C488.622,380.193 481.17,367.584 478.526,351.912C477.809,334.789 479.208,318.992 480.53,305.05C482.371,289.798 484.605,289.399 486.528,275.071C488.663,265.879 491.871,256.512 492.532,247.037C494.39,237.568 497.606,228.16 496.53,216.949C496.53,203.246 496.533,188.538 496.533,176C495.785,164.061 495.34,150.217 489.4,144.648C487.414,136.667 479.41,133.439 475.422,128.675C472.838,123.347 464.405,122.411 462.447,117.71C457.309,116.313 451.76,113.229 447.226,112.518C444.739,109.507 437.164,109.841 435.282,107.548C373.677,106.373 361.046,56.0384 355.523,-0.102864C351.756,-0.102864 345.131,-0.476887 342.762,-0.476887C340.535,27.2344 348.761,45.5401 355.501,63.1877C361.155,83.0929 371.351,104.377 389.836,107.507C404.711,115.432 424.694,118.905 440.799,124.494C453.604,130.791 464.857,139.049 472.57,149.314C479.146,159.735 483.427,177.256 481.472,191.929C477.936,206.822 479.056,226.961 472.535,237.74C472.188,253.508 463.671,267.284 465.475,281.092C458.796,284.891 466.237,309.425 460.578,315.675C460.078,327.843 460.736,340.293 461.469,350.04C461.495,356.818 463.041,368.67 465.513,374.217C468.359,380.653 469.236,390.567 472.56,395.3C473.295,396.586 466.508,406.226 470.545,412.278C471.657,418.39 476.323,423.344 479.097,426.524C479.545,420.806 480.342,420.896 481.42,423.272C482.497,425.649 483.253,429.619 482.495,431.831C482.113,438.748 484.461,444.683 483.474,450.917C493.89,524.287 453.658,543.905 418.644,565.604C418.467,584.529 405.422,590.86 400.054,603.47C400.054,602.034 399.467,598.889 399.467,599C396.672,604.46 391.178,608.779 392.474,617.084C391.453,619.92 391.234,623.049 391.505,624.907C391.777,626.766 393.019,627.802 393.954,625.531C394.721,631.104 391.513,634.691 392.479,639.113C393.614,647.944 389.936,663.43 395.687,666.431C399.701,672.267 398.335,657.203 400.48,667.115C404.602,677.374 407.265,690.04 408.47,702.057C409.765,704.403 410.242,713.766 408.662,714.588C406.668,739.419 397.66,758.409 395.469,781.951C395.469,792.939 395.467,805.21 395.467,815C398.549,821.883 400.664,831.689 406.679,834.425C408.736,841.309 413.35,846.808 416.563,851.304C419.533,856.246 422.849,862.347 425.557,866.297C428.343,871.079 430.782,877.791 433.568,881.312C437.004,890.223 439.898,900.346 438.471,912.94C437.604,921.356 440.824,934.704 435.656,937.593C434.696,943.857 430.996,949.371 429.497,953.826C427.547,957.72 426.237,963.699 423.626,965.621C424.866,982.931 412.595,988.293 415.476,1006.1C409.53,1012.05 412.45,1015.82 417.012,1018.28C421.574,1020.74 428.011,1022.25 429.711,1024.45L430.467,1024C431.95,1024.23 434.997,1024.51 437.127,1024.45C439.257,1024.39 440.468,1024 440.467,1025L442.467,1026C450.582,1029.55 459.009,1034.88 464.854,1039.51C465.727,1039.36 467.042,1039.38 467.956,1039.55C468.871,1039.72 469.181,1039.12 468.649,1039.6C476.281,1045.87 485.383,1053.11 486.473,1067.08C498.061,1067.45 500.16,1085.15 501.469,1100.05C501.469,1105.65 501.467,1114.12 501.467,1121C501.682,1127.17 499.778,1133.96 498.48,1139.89C496.794,1146.32 497.263,1157.62 491.747,1158.53C490.949,1160.2 491.512,1159.07 491.475,1156.73C491.438,1154.4 491.568,1151.19 491.514,1149.86C489.405,1151.93 490.076,1161.04 489.471,1165.93C489.471,1169.75 489.467,1176.85 489.467,1182C488.977,1186.67 490.132,1193.03 491.493,1197.16C492.271,1202.69 494.456,1209.54 495.474,1216.09C498.195,1221.42 498.67,1231.65 500.482,1239.12C501.94,1246.77 502.953,1257.24 503.468,1267.03C505.398,1278.06 500.591,1287.27 501.47,1296.05C500.409,1306.84 497.949,1318.55 498.898,1332.52C497.749,1327.84 496.182,1332.6 495.4,1340.32C494.617,1348.03 494.189,1358.21 494.468,1363.03C494.727,1379.82 498.139,1392.18 496.469,1413.96C497.744,1424.68 492.846,1431.81 494.917,1444.53C492.589,1438.3 491.326,1441.82 491.252,1447.9C491.179,1453.97 491.872,1462.27 492.497,1464.17C501.715,1478.33 503.568,1501.5 506.472,1523.07C509.663,1545.28 508.281,1573.7 508.467,1600.01Z" fill="#261F7E"/>
<path d="M519.468,1599.98C877.906,1599.98 1236.73,1600.48 1597.24,1600.48C1597.24,1067.2 1597.53,533.28 1597.53,0C1184.12,0 770.241,-0.477038 354.763,-0.477038C360.286,55.6642 373.199,107.321 434.804,108.495C436.686,110.789 444.199,110.42 446.687,113.431C451.221,114.143 456.583,117.057 461.721,118.454C463.679,123.155 471.944,123.919 474.528,129.247C478.515,134.012 486.503,137.169 488.489,145.149C494.429,150.719 494.721,164.094 495.468,176.033C495.468,188.571 495.467,203.297 495.467,217C496.543,228.211 493.335,237.428 491.477,246.898C490.817,256.373 487.616,265.687 485.481,274.88C483.557,289.207 481.312,289.684 479.471,304.936C478.148,318.878 476.751,334.899 477.468,352.022C480.112,367.694 487.624,380.554 491.484,396.133C499.091,411.566 500.654,434.647 499.468,459.975C499.627,488.555 503.002,521.422 485.663,533.587C472.335,549.352 453.745,561.594 438.611,576.635C425.273,594.831 400.225,611.427 407.479,646.112C416.442,668.418 431.858,694.671 422.488,726.853C418.026,755.573 398.637,788.429 411.511,820.211C431.394,847.752 452.495,871.782 457.473,913.076C458.204,913.726 458.569,916.212 458.572,918.581C458.575,920.949 458.535,922.633 457.793,922.509C455.174,954.886 434.482,969.857 427.487,997.858C424.777,1001.22 428.504,1005.83 431.751,1007.47C435.324,1009.5 441.515,1011.93 446.822,1013.5C450.742,1015.18 457.325,1017 461.742,1019.47C466.28,1021.94 473.199,1024.56 477.631,1028.38C479.558,1030.99 485.608,1032.34 487.535,1036.26C490.831,1039.27 496.021,1043.2 498.532,1048.26C502.579,1052.61 506.383,1059.74 509.517,1066.23C512.116,1075.14 513.752,1087.06 514.468,1099.03C514.64,1111.74 512.898,1124.61 510.479,1135.89C509.973,1146.89 505.966,1156.83 506.468,1170.02C506.468,1174.48 506.467,1180.91 506.467,1184C528.569,1251.09 503.829,1332 514.473,1404.08C515.285,1410.49 512.583,1416.23 512.467,1422.99C511.29,1428.47 509.337,1435.97 509.467,1444.01C509.467,1447.43 509.467,1453 509.467,1455C520.959,1494.12 520.418,1547.29 519.468,1599.98Z" fill="#00007F"/>
<path d="M357.467,1570L359.533,1569C359.533,1561.78 359.533,1552.95 359.533,1547C359.533,1542.54 359.533,1536.09 359.533,1533C359.533,1529.23 359.533,1523.37 359.533,1521C359.533,1514.81 359.533,1506.89 359.533,1502C357.821,1507.51 357.91,1517.44 357.469,1522.96C357.469,1538.69 357.467,1555.42 357.467,1570Z" fill="#C0B6A4"/>
<path d="M316.467,1556L318.533,1556C318.266,1541.68 318.401,1523.79 316.987,1509.47C316.987,1523.71 316.467,1540.61 316.467,1556Z" fill="#4F4A45"/>
<path d="M487.505,1496.2L490.533,1495C486.612,1476.22 472.157,1466.24 477.06,1437.53C468.55,1462.7 484.198,1479.63 487.505,1496.2Z" fill="#524E8B"/>
<path d="M93.4672,1465C95.035,1458.19 94.9903,1443.65 93.9837,1435.47C93.9837,1443.87 93.4672,1455.38 93.4672,1465Z" fill="#130C7C"/>
<path d="M434.891,1463.48C436.515,1456.16 435.717,1445.84 436.109,1438.52C434.485,1445.84 435.283,1456.16 434.891,1463.48Z" fill="#B1ABB1"/>
<path d="M463.792,1455.51C465.818,1454.46 464.62,1448.54 465.208,1447.49C463.182,1448.54 464.38,1454.46 463.792,1455.51Z" fill="#746F98"/>
<path d="M508.491,1454.84L510.533,1455C510.533,1453 510.533,1447.42 510.533,1444C509.508,1444.16 508.318,1446.11 508.387,1448.41C508.456,1450.71 508.742,1453.21 508.491,1454.84Z" fill="#1F1B80"/>
<path d="M485.7,1401.56C487.773,1398.03 486.686,1388.71 487.3,1382.44C485.227,1385.97 486.314,1395.29 485.7,1401.56Z" fill="#5B548B"/>
<path d="M481.467,1367L483.533,1364C483.533,1350.78 483.533,1335.38 483.533,1321C481.453,1321.65 482.011,1329.35 481.473,1332.92C481.473,1341.86 481.467,1352.29 481.467,1360C481.467,1360.56 481.467,1364.93 481.467,1367Z" fill="#544C86"/>
<path d="M480.472,1359.93L482.533,1360C482.533,1352.29 482.533,1341.94 482.533,1333C480.561,1339.09 481.053,1351.23 480.472,1359.93Z" fill="#574F87"/>
<path d="M446.467,1293C448.074,1288.42 448.035,1275.47 446.977,1269.47C446.977,1275.77 446.467,1285.43 446.467,1293Z" fill="#C2B3A4"/>
<path d="M470.812,1282.5C472.662,1279.2 471.674,1271.8 472.188,1268.5C470.338,1271.8 471.326,1279.2 470.812,1282.5Z" fill="#8C7C91"/>
<path d="M487.647,1282.6C489.742,1279.81 488.739,1270.97 489.353,1265.4C487.258,1268.19 488.261,1277.03 487.647,1282.6Z" fill="#605486"/>
<path d="M505.486,1183.86L507.533,1184C507.533,1180.91 507.533,1174.46 507.533,1170C505.426,1171.35 506.069,1179.64 505.486,1183.86Z" fill="#1D177F"/>
<path d="M460.833,1179.49C462.632,1175.45 461.679,1167.55 462.167,1163.51C460.368,1167.55 461.321,1175.45 460.833,1179.49Z" fill="#6F628D"/>
<path d="M471.833,1111.49C473.632,1107.45 472.679,1099.55 473.167,1095.51C471.368,1099.55 472.321,1107.45 471.833,1111.49Z" fill="#77668A"/>
<path d="M452.823,1109.5C454.647,1105.82 453.677,1098.18 454.177,1094.5C452.353,1098.18 453.323,1105.82 452.823,1109.5Z" fill="#A38D97"/>
<path d="M447.707,1072.55C450.02,1072.2 449.68,1071.11 448.237,1069.88C446.794,1068.65 444.835,1068.18 445.293,1067.45C442.98,1067.8 443.32,1068.89 444.763,1070.12C446.206,1071.35 448.165,1071.82 447.707,1072.55Z" fill="#8E7C92"/>
<path d="M246.481,1068.88L248.533,1069C248.533,1052.04 248.533,1033.09 248.533,1015C249.31,1010.77 247.492,1005.23 247.331,1000.58C245.345,1006.3 246.056,1018.61 245.468,1026.96C245.468,1029.33 245.467,1035.23 245.467,1039C245.467,1043.89 245.467,1051.81 245.467,1058C244.506,1061.33 246.966,1064.63 246.481,1068.88Z" fill="#62565A"/>
<path d="M256.467,1052C258.562,1049.21 257.916,1039.63 258.53,1034.06C258.138,1026.74 258.595,1014.78 256.971,1007.47C256.971,1021.03 256.467,1037.28 256.467,1052Z" fill="#81736A"/>
<path d="M461.886,1041.52C462.589,1041.31 468.821,1041.92 469.497,1040.19C469.834,1039.14 468.13,1038.3 466.962,1038.39C465.793,1038.47 464.868,1039.77 465.205,1039.49C463.137,1039.49 458.671,1038.48 458.108,1038.48C454.8,1036.98 448.658,1036.08 444.764,1036.52C446.791,1040.1 458.097,1038.43 461.886,1041.52Z" fill="#3D3581"/>
<path d="M457.882,1039.52C458.446,1039.52 463.09,1039.51 465.158,1039.51C459.313,1034.87 451.229,1029.03 443.114,1025.48C440.036,1025.48 434.641,1025.47 433,1025.47C428.541,1025.47 422.262,1025.49 419.168,1025.49C421.346,1023.56 428.888,1026.08 431.067,1025.53L431,1024L430,1024C426.922,1024 421.744,1023.48 420.103,1023.48C416.986,1022.14 411.274,1021.09 407.737,1021.54C407.742,1029.86 431.782,1026.1 435.594,1034.35C439.657,1034.67 439.113,1034.17 437.154,1034.41C435.195,1034.64 432.489,1034.79 432.263,1034.54L432,1036C434.737,1036 439.78,1036.53 441.059,1036.53C442.915,1036.11 444.507,1038.34 445.292,1037.45C449.186,1037.01 454.575,1038.02 457.882,1039.52Z" fill="#423A82"/>
<path d="M432,1037C433.278,1037 438.263,1037.53 441,1037.53L441,1036C439.722,1036 434.737,1035.47 432,1035.47L432,1037Z" fill="#514885"/>
<path d="M430,1035L431.467,1035C431.693,1035.26 435.32,1035.7 437.279,1035.47C439.238,1035.23 440.084,1033.79 436.021,1033.47C434.276,1033.47 430.218,1033.47 430,1033.47L430,1035Z" fill="#4F4684"/>
<path d="M408.895,1034.52C414.496,1034.52 423.12,1034.53 430,1034.53C430.218,1034.53 434.475,1034.49 436.22,1034.49C432.408,1026.24 408.538,1030.32 408.533,1022C400.423,1021.11 396.579,1013.61 395.561,1004.86C394.542,996.112 396.295,986.355 399.477,980.238C402.647,969.366 409.752,961.424 414.466,953.259C417.859,944.305 422.652,935.334 423.531,925.045C423.531,919.201 423.533,911.533 423.533,907C423.153,890.636 416.75,878.836 411.367,868.614L409.533,871C409.533,866.541 409.533,860.094 409.533,857C403.594,845.311 389.389,828.03 385.893,824.478C385.736,862.862 431.475,885.277 410.504,938.805C407.959,945.012 404.05,952.207 399.567,957.689C398.89,962.613 393.455,965.716 390.559,969.7C388.78,973.875 385.011,979.144 383.49,984.847C380.398,988.414 378.609,996.28 379.47,1005.05C379.573,1012.31 383.926,1018.53 388.65,1022.4C393.311,1027.18 401.297,1031.47 408.895,1034.52Z" fill="#5F578B"/>
<path d="M418.784,1025.51C421.878,1025.51 428.541,1026.53 433,1026.53L433,1025L430.467,1025C428.288,1025.55 420.962,1023.58 418.784,1025.51Z" fill="#433D83"/>
<path d="M433,1026C434.641,1026 439.922,1026.53 443,1026.53L441,1025C438.6,1025 433.918,1024.47 433,1024.47L433,1026Z" fill="#342E80"/>
<path d="M431,1025L433,1025C433.918,1025 438.839,1025.48 441.238,1025.48C441.239,1024.47 439.228,1023.33 437.098,1023.39C434.968,1023.44 432.523,1023.7 431.041,1023.47L431,1025Z" fill="#342E80"/>
<path d="M419.888,1024.52C421.529,1024.52 427.118,1024.5 430.196,1024.5C428.496,1022.3 422.08,1019.81 417.518,1017.34C412.957,1014.88 410.462,1012.29 416.409,1006.34C413.528,988.535 425.771,983.262 424.531,965.952C427.142,964.03 428.53,958.128 430.479,954.233C431.979,949.779 435.562,944.371 436.522,938.107C441.69,935.218 438.664,921.471 439.53,913.055C440.957,900.46 437.928,889.705 434.491,880.794C431.706,877.273 429.244,870.51 426.458,865.727C423.749,861.777 420.424,855.661 417.453,850.72C414.241,846.224 409.548,840.679 407.492,833.795C401.477,831.058 399.479,821.528 396.397,814.645L395.533,815C396.073,804.212 394.636,790.369 396.52,782.117C398.711,758.576 407.537,739.873 409.531,715.043C409.531,710.93 409.533,704.732 409.533,702C408.328,689.984 405.618,677.064 401.496,666.806C399.352,656.893 400.414,671.484 396.4,665.648C390.649,662.647 394.663,647.763 393.528,638.932C392.562,634.51 394.893,630.055 394.125,624.482C393.19,626.753 392.831,626.612 392.56,624.753C392.288,622.895 392.481,620.013 393.503,617.177C392.207,608.871 397.577,604.841 400.372,599.381L401.533,599C401.585,596.283 401.815,589.728 401.542,585.396C401.269,581.064 399.453,578.794 397.492,584.838C396.099,593.069 389.891,597.898 388.479,604.89C387.543,606.845 385.6,607.419 384.977,615.468C385.935,608.665 384.189,604.049 384.486,599.219C380.572,603.362 377.208,611.411 376.469,619.954C376.469,627.523 376.467,636.693 376.467,643C390.488,673.888 398.511,729.8 385.497,766.825C383.801,773.186 384.916,784.965 382.496,791.827C382.496,800.425 382.467,810.641 382.467,818C381.879,820.229 385.704,821.643 385.469,824.956C388.964,828.508 402.666,845.668 408.604,857.357C410.606,857.585 410.694,859.703 410.555,862.397C410.417,865.091 409.982,868.261 410.533,869.257C415.916,879.479 422.087,890.648 422.467,907.013C423.606,911.179 424.156,922.044 422.534,924.741C421.656,935.03 416.894,943.859 413.501,952.813C408.972,967.166 404.231,967.212 399.039,984.469C399.039,983.032 398.467,979.889 398.467,980C395.285,986.117 393.484,996.235 394.502,1004.98C395.52,1013.73 399.895,1021.65 408.004,1022.53C411.541,1022.09 416.771,1023.18 419.888,1024.52Z" fill="#433C83"/>
<path d="M399.533,985C404.725,967.743 409.548,967.881 414.077,953.527C409.362,961.693 401.658,968.982 398.488,979.854C398.488,981.29 399.533,985.111 399.533,985Z" fill="#57508A"/>
<path d="M202.482,928.877L205.533,929C206.734,925.504 205.586,915.023 205.336,907.165C205.087,899.307 205.256,894.602 210.052,901.53C213.086,893.569 203.87,882.281 207.518,867.123C207.178,862.967 207.224,856.693 208.184,852.5C209.872,854.837 210.614,851.764 210.639,847.892C210.663,844.019 210.318,838.888 210.531,836.041C213.009,829.421 212.654,817.421 212.533,806.994C212.404,794.585 213.64,778.344 209.49,768.79C207.302,762.573 205.287,753.638 202.496,746.804C201.329,738.527 197.609,730.563 197.533,719.992L196.533,720C196.533,715.194 196.533,708.456 196.533,705C201.416,673.878 229.755,638.194 208.471,599.751C206.919,594.295 204.133,587.377 201.482,581.773C198.455,575.01 194.183,567.15 191.508,558.838C190.076,553.611 184.665,548.714 183.001,542.467C181.935,546.428 181.79,542.286 181.097,538.632C180.404,534.979 178.637,532.267 177.473,539.92C177.032,545.433 178.203,555.331 176.491,560.843C181.692,582.916 196.834,602.884 200.485,630.138L202,630L203.533,628C204.115,623.777 201.753,615.863 203.861,614.514C204.84,624.844 205,639.905 203.475,648.911C203.629,649.784 203.619,651.042 203.449,651.956C203.28,652.871 203.736,653.067 203.26,652.535L201.467,656C201.622,656.873 201.619,658.042 201.449,658.956C201.28,659.871 201.899,660.208 201.423,659.676C201.468,658.758 201.651,657.517 201.552,656.361C201.453,655.205 200.275,654.081 199.626,654.621C189.237,673.762 190.466,692.081 190.467,727C190.461,729.221 190.273,732.967 190.43,735.77C190.587,738.573 191.53,740.957 192.907,739.525C194.251,744.488 194.95,752.234 197.52,757.232C197.804,763.607 200.792,769.693 199.472,778.925C199.472,788.715 199.467,801.012 199.467,812C199.467,818.658 199.467,828.088 199.467,836C199.467,843.009 199.467,852.745 199.467,861C199.467,878.755 199.467,897.377 199.467,914C199.019,918.981 203.268,922.246 202.482,928.877ZM202.467,866L202.533,867C202.533,866.082 202.533,861.4 202.533,859L201.533,859C201.918,838.937 200.926,816.773 202.531,799.048C203.018,791.223 202.291,793.475 202.462,798.322C202.633,803.168 202.64,810.525 202.468,812.963C202.468,829.585 202.467,848.245 202.467,866Z" fill="#605A89"/>
<path d="M403.476,924.901C404.532,925.238 405.696,924.13 405.612,922.962C405.528,921.793 404.814,921.187 405.095,921.524C405.095,916.719 405.533,909.456 405.533,906C404.544,901.823 403.331,905.743 403.38,911.121C403.428,916.498 403.682,923.233 403.476,924.901Z" fill="#8A7E9B"/>
<path d="M422.467,925C424.088,922.303 424.103,910.635 422.964,906.468C422.964,911.002 422.467,919.156 422.467,925Z" fill="#595089"/>
<path d="M457.467,923C458.21,923.124 459.641,920.948 459.638,918.579C459.635,916.211 458.614,913.13 457.883,912.48C457.883,914.121 457.467,919.922 457.467,923Z" fill="#1A147F"/>
<path d="M404.467,921C405.686,917.931 406.498,907.045 404.89,905.479C404.89,908.934 404.467,916.194 404.467,921Z" fill="#847998"/>
<path d="M198.468,913.975L200.533,914C200.533,897.377 200.533,878.755 200.533,861C198.872,876.301 198.886,896.3 198.468,913.975Z" fill="#5A4F72"/>
<path d="M222.467,912.992L224.533,913C224.533,871.525 224.533,832.302 224.533,792C223.063,830.057 222.768,872.598 222.467,912.992Z" fill="#938893"/>
<path d="M408.467,871L411.533,869C410.981,868.004 411.481,865.146 411.62,862.452C411.758,859.758 410.784,856.742 408.783,856.513C408.783,859.608 408.467,866.541 408.467,871Z" fill="#4E4786"/>
<path d="M201.467,867L203.533,866C203.533,848.245 203.533,829.623 203.533,813C203.704,810.562 203.698,803.131 203.527,798.284C203.356,793.438 201.956,791.142 201.468,798.967C201.468,819.078 201.467,840.007 201.467,859C201.467,861.4 201.467,866.082 201.467,867Z" fill="#4F4986"/>
<path d="M200.468,858.98L202.533,859C202.533,840.007 202.533,819.112 202.533,799C200.928,816.725 200.853,838.917 200.468,858.98Z" fill="#4B4585"/>
<path d="M381.472,817.926L383.533,818C383.533,810.641 383.533,800.598 383.533,792C381.546,797.722 382.059,809.573 381.472,817.926Z" fill="#504B89"/>
<path d="M394.47,814.947L396.533,815C396.533,805.21 396.533,792.988 396.533,782C394.649,790.251 395.01,804.159 394.47,814.947Z" fill="#2D2981"/>
<path d="M345.486,811.858L347.533,812C347.533,808.906 347.533,802.459 347.533,798C345.426,799.349 346.069,807.635 345.486,811.858Z" fill="#B2A8B5"/>
<path d="M219,769L220.533,769C219.993,766.446 220.823,758.027 218.918,755.474C218.689,756.956 218.49,759.997 218.548,762.127C218.606,764.257 219.003,765.468 218,765.467L219,769Z" fill="#948DA1"/>
<path d="M217.467,766C218.47,766.001 219.671,764.228 219.614,762.098C219.556,759.968 219.281,757.639 219.509,756.157L217.467,753C217.239,754.482 217.49,756.997 217.548,759.127C217.606,761.257 218.003,762.468 217,762.467L217.467,766Z" fill="#928BA0"/>
<path d="M216.525,763.241C217.528,763.241 218.671,761.228 218.614,759.098C218.556,756.968 218.293,754.591 218.522,753.109C218.222,752.95 218.503,751.197 218.588,749.527C218.673,747.857 217.832,745.669 216.792,745.51C217.369,749.951 215.829,760.496 216.525,763.241Z" fill="#90899F"/>
<path d="M353.935,747.471C355.613,732.866 354.637,714.519 355.065,697.529C353.387,712.134 354.363,730.481 353.935,747.471Z" fill="#C7BBBB"/>
<path d="M383.474,729.917L385.533,729C385.533,726.932 385.533,722.563 385.533,722C385.533,716.156 385.533,708.533 385.533,704C384.549,697.806 383.332,703.044 383.378,710.46C383.424,717.875 383.672,727.387 383.474,729.917Z" fill="#786C91"/>
<path d="M205.887,726.479C207.527,719.521 206.712,709.479 207.113,702.521C205.473,709.479 206.288,719.521 205.887,726.479Z" fill="#857F9A"/>
<path d="M384.467,722C386.088,719.303 386.103,707.635 384.964,703.468C384.964,708.002 384.467,716.156 384.467,722Z" fill="#72678F"/>
<path d="M195.467,720L197.533,720C197.019,716.697 197.781,707.774 195.931,704.472C195.931,707.927 195.467,715.194 195.467,720Z" fill="#6E6992"/>
<path d="M408.467,715C410.048,714.178 410.227,703.818 408.932,701.472C408.932,704.203 408.467,710.887 408.467,715Z" fill="#2E2780"/>
<path d="M200.469,659.96C201.524,660.297 202.696,659.13 202.612,657.962C202.528,656.793 201.814,656.187 202.095,656.524C202.095,655.088 201.467,650.889 201.467,651L200.467,651C199.991,651.242 199.673,652.095 199.503,653.01C199.333,653.924 199.877,655.433 200.031,655.532C200.681,654.992 200.391,655.296 200.49,656.452C200.589,657.607 200.514,659.042 200.469,659.96Z" fill="#4C4786"/>
<path d="M202.533,656L203.533,653C203.533,644.745 203.533,635.009 203.533,628L201.467,630C201.467,636.88 201.467,645.4 201.467,651C201.467,652.436 202.533,656.111 202.533,656Z" fill="#464285"/>
<path d="M202.467,653C203.523,653.337 204.696,652.13 204.612,650.962C204.528,649.793 203.814,649.187 204.095,649.524C204.095,637.856 204.533,624.479 204.533,614C202.426,615.349 203.055,623.704 202.472,627.928C202.472,634.937 202.467,644.745 202.467,653Z" fill="#4A4586"/>
<path d="M200.467,651L202.533,651C202.533,645.4 202.533,636.88 202.533,630L200.467,630C200.467,635.6 200.467,644.12 200.467,651Z" fill="#433F85"/>
<path d="M203.467,649C204.992,639.994 204.967,623.797 203.987,613.467C203.987,623.947 203.467,637.332 203.467,649Z" fill="#4E4987"/>
<path d="M225.467,648C226.117,648.54 227.453,647.795 227.552,646.639C227.651,645.483 227.577,643.892 227.532,642.974C228.115,638.751 225.966,630.876 228.073,629.528C227.397,629.745 227.764,627.862 227.638,626.402C227.512,624.943 226.658,622.873 225.838,622.492C225.838,629.502 225.467,639.745 225.467,648Z" fill="#857D9B"/>
<path d="M226.544,642.724C228.651,641.376 227.873,633.499 228.456,629.276C226.349,630.624 227.127,638.501 226.544,642.724Z" fill="#87809D"/>
<path d="M375.467,643L377.533,643C377.533,636.693 377.533,627.568 377.533,620C376.883,619.46 375.547,620.205 375.448,621.361C375.349,622.517 375.423,624.108 375.468,625.026C375.468,628.793 375.467,634.632 375.467,637C375.467,637.218 375.467,641.254 375.467,643Z" fill="#564E87"/>
<path d="M374.49,636.847L376.533,637C376.533,634.632 376.533,628.767 376.533,625C374.453,625.652 375.027,633.271 374.49,636.847Z" fill="#595188"/>
<path d="M349.467,636C351.574,634.651 350.931,626.365 351.514,622.142L349.467,622C349.467,625.094 349.467,631.541 349.467,636Z" fill="#A297A3"/>
<path d="M358.842,634.491C360.618,630.077 359.682,621.923 360.158,617.509C358.382,621.923 359.318,630.077 358.842,634.491Z" fill="#877C96"/>
<path d="M366.781,634.514C368.716,632.336 367.666,625.665 368.219,623.486C366.284,625.664 367.334,632.335 366.781,634.514Z" fill="#6A618C"/>
<path d="M338.7,631.56C340.773,628.033 339.686,618.706 340.3,612.44C338.227,615.967 339.314,625.294 338.7,631.56Z" fill="#B8ABAB"/>
<path d="M348.469,621.962L350,622L351.533,622C344.434,581.858 374.02,562.459 379.032,530.532C380.457,536.144 379.025,539.83 377.483,545.87C377.857,552.146 380.125,550.313 381.418,547.646C382.71,544.979 383.022,541.717 383.478,546.108L385.533,545C386.3,543.994 385.618,546.655 385.618,549.488C385.618,552.32 385.877,554.802 385.11,554.479L384.467,556C384.479,572 375.907,580.081 376.791,593.49C380.629,582.743 387.972,572.496 393.466,562.258C396.02,558.505 399.921,553.27 402.47,548.251C406.178,543.207 409.74,535.497 413.466,529.258C414.633,518.798 416.101,533.264 417.528,523.074C417.732,516.721 416.966,518.946 417.309,521.649C417.653,524.353 419.109,527.517 419.53,523.055C421.379,520.371 423.329,514.789 424.516,510.132C422.912,503.637 426.311,498.988 426.532,493.02C426.532,486.713 426.533,477.568 426.533,470C426.533,461.595 426.533,450.624 426.533,441C428.369,423.051 422.342,438.798 423.532,418.036C417.201,411.828 421.661,392.244 416.464,383.738C415.355,370.263 412.704,356.516 411.531,341.957C409.149,327.377 409.406,308.223 409.533,290.004C408.122,268.587 412.943,251.498 411.532,228.967C411.047,221.914 410.874,221.981 411.678,224.557C412.483,227.133 413.751,231.717 413.017,235.467C414.306,224.134 413.412,207.735 410.515,196.862C405.101,180.582 397.236,164.283 382.209,156.51C365.179,151.173 350.083,142.349 337.357,131.604C325.806,119.105 319.249,100.004 308.425,85.6792C303.565,79.1742 290.97,72.8753 279.689,71.3306C268.408,69.7858 257.485,73.2674 256.469,84.9512C250.207,97.0046 234.456,100.876 223.701,109.559C215.015,113.683 217.662,113.978 221.356,113.61C225.05,113.241 229.715,112.271 226.625,117.622C243.079,119.732 250.929,107.157 262.907,106.525C269.004,109.249 266.293,110.82 262.912,113.641C259.531,116.461 255.111,120.271 257.536,124.262C257.121,126.424 257.061,131.751 257.472,136.074C253.692,137.475 248.397,139.556 249.473,147.075C251.041,159.373 244.003,158.815 248.502,170.19C249.127,180.389 259.68,182.704 257.473,196.918C256.712,202.925 257.888,210.551 260.611,214.364C261.527,214.8 263.031,218.68 264.347,221.325C265.663,223.969 267.714,224.994 267.532,219.981C266.853,213.611 267.236,214.136 268.833,216.454C270.43,218.773 272.188,223.019 272.479,225.113C275.155,225.88 279.393,235.784 282.562,240.304C286.175,245.789 291.063,252.43 294.537,259.263C300.136,264.831 304.764,273.735 309.554,281.292C315.485,288.924 318.915,301.182 324.542,310.273C329.653,321.785 333.467,336.217 332.468,354.971C336.088,372.37 338.184,393.189 339.468,414.033C341.693,437.541 346.976,459.726 348.47,485.056C358.22,486.13 356.511,501.206 359.512,510.213C366.773,514.385 369.997,528.851 367.505,540.802C372.376,541.006 371.549,545.25 369.414,550.203C367.28,555.156 363.805,560.951 363.471,563.937C357.402,574.261 349.906,589.901 347.479,601.891C344.498,608.462 348.757,613.945 348.469,621.962Z" fill="#A27C71"/>
<path d="M385.013,615.467C385.637,607.418 388.549,607.177 389.484,605.222C390.896,598.229 397.132,593.319 398.525,585.088C398.141,580.056 398.502,576.353 399.417,573.959C400.332,571.565 401.452,570.894 403.176,571.503C404.569,560.549 413.127,555.115 417.455,548.277C418.087,546.841 419.572,543.504 419.11,542.479C405.05,557.846 392.039,576.842 383.501,598.813C383.205,603.642 385.971,608.665 385.013,615.467Z" fill="#625283"/>
<path d="M400.533,604C405.901,591.39 419.356,584.93 419.533,566.005C423.28,554.554 420.816,552.871 417.828,555.229C414.84,557.587 410.371,563.661 408.574,566.68C397.136,573.319 405.478,585.763 400.576,598.678L399.467,599C399.467,600.436 400.533,604.111 400.533,604Z" fill="#514280"/>
<path d="M400.542,598.727C405.445,585.813 397.891,574.058 409.33,567.419C411.126,564.4 415.501,558.424 418.488,556.066C421.476,553.708 422.448,554.109 418.7,565.56C453.715,543.861 494.943,524.296 484.528,450.925C485.515,444.692 483.15,438.947 483.532,432.03C484.291,429.818 483.468,425.209 482.39,422.832C481.313,420.456 479,419.994 478.552,425.712C475.778,422.532 472.635,418.009 471.523,411.897C467.485,405.845 474.195,396.015 473.459,394.73C470.136,389.996 469.333,380.221 466.487,373.784C464.015,368.238 462.56,356.776 462.533,349.998C461.8,340.251 461.032,328.193 461.532,316.025C467.191,309.776 459.667,285.204 466.346,281.405C464.542,267.597 473.186,253.78 473.533,238.013C480.054,227.233 478.983,207.015 482.519,192.122C484.474,177.449 480.023,159.131 473.447,148.71C465.735,138.444 454.015,129.808 441.21,123.51C425.105,117.922 405.056,114.424 390.181,106.499C371.696,103.368 362.165,82.7577 356.512,62.8525C349.772,45.2049 341.298,27.7959 343.526,0.0845823C340.789,0.0845823 335.04,-0.476581 333.762,-0.476581C333.762,3.98265 333.467,10.9058 333.467,14C334.93,29.9178 341.254,51.0141 343.552,54.2889C348.073,70.2159 354.589,84.9441 362.561,96.3023C371.875,111.286 383.344,116.666 400.857,120.513C414.271,125.192 428.461,129.786 439.742,135.466C449.155,141.448 452.125,154.529 458.576,162.322C462.702,171.222 463.004,184.588 462.468,196.977C462.051,208.908 459.783,220.073 458.472,229.929C456.001,239.126 454.787,250.659 452.491,258.842C447.303,265.323 448.369,279.297 446.479,287.887C446.479,299.555 446.467,312.521 446.467,323C446.467,332.282 446.467,342.943 446.467,351C447.299,358.423 447.972,367.649 449.487,373.143C451.328,378.182 453.494,384.37 453.467,389.997C456.17,397.261 458.221,406.731 460.505,413.198C463.956,416.805 463.167,430.761 464.578,432.325C467.32,467.643 461.946,516.028 434.763,531.523C429.863,533.471 422.612,534.369 421.485,538.863C424.811,544.288 417.084,544.99 417.477,549.1L416.467,548C412.139,554.839 403.896,559.856 402.502,570.809C400.779,570.201 399.337,571.185 398.422,573.579C397.506,575.973 397.462,580.477 397.846,585.51C399.807,579.466 400.206,581.131 400.478,585.463C400.751,589.795 400.595,596.01 400.542,598.727Z" fill="#392B77"/>
<path d="M174.52,558.231L176.533,558C179.972,507.208 167.444,455.866 165.532,402.981C165.733,383.893 164.396,407.405 159.943,397.47C159.943,401.645 159.467,409.502 159.467,415C164.582,465.267 164.498,516.491 174.52,558.231Z" fill="#48405C"/>
<path d="M383.467,556L385,556L385.533,555C385.533,551.922 385.533,546.641 385.533,545L383.467,546C383.467,547.641 383.467,552.922 383.467,556Z" fill="#A08690"/>
<path d="M384.467,555C385.234,555.323 386.684,552.32 386.684,549.488C386.684,546.655 385.326,543.695 384.558,544.702C384.558,546.343 384.467,551.922 384.467,555Z" fill="#9F858F"/>
<path d="M418.533,549C418.14,544.89 425.749,544.102 422.423,538.677C421.714,538.249 419.825,538.293 419.071,538.96C418.316,539.627 417.782,541.444 418.508,543.204C418.969,544.229 417.232,546.212 416.6,547.648L418.533,549Z" fill="#67517C"/>
<path d="M434.88,531.481C462.063,515.986 468.273,467.27 465.531,431.953C464.12,430.389 464.861,416.267 461.41,412.66C459.125,406.192 457.204,397.083 454.501,389.82C454.528,384.192 452.343,377.858 450.501,372.819C448.986,367.325 448.362,358.364 447.53,350.941C447.53,342.884 447.533,332.282 447.533,323C447.533,312.521 447.533,299.668 447.533,288C449.423,279.41 448.245,265.791 453.433,259.31C455.729,251.127 457.044,239.333 459.515,230.137C460.826,220.281 463.116,208.949 463.533,197.019C464.069,184.629 463.602,170.661 459.476,161.761C453.026,153.968 449.681,140.521 440.269,134.54C428.987,128.859 414.561,124.167 401.147,119.488C383.634,115.641 372.764,110.699 363.45,95.715C355.478,84.3568 349.03,69.7708 344.509,53.8438C342.211,50.569 335.987,29.8215 334.524,13.9037L333.533,14C333.533,9.54077 333.533,3.09424 333.533,0C330.111,0 323.767,-0.476894 321.762,-0.476894C324.929,38.4816 333.318,70.2253 341.009,92.5328C341.327,91.4895 342.247,92.4026 343.605,94.4911C344.964,96.5795 346.222,99.368 346.47,102.057C350.336,105.9 354.229,113.108 359.789,116.489C363.478,117.318 363.631,118.113 363.063,120.241C362.494,122.369 360.909,125.173 360.495,128.83C357.055,127.654 356.39,128.679 357.02,129.768C357.651,130.857 359.774,132.613 361.693,133.435C362.135,134.369 366.14,134.932 368.715,134.558C371.29,134.185 373.096,132.043 369.354,129.602C367.972,125.669 369.052,124.829 370.969,124.679C372.886,124.528 374.97,125.893 375.685,128.43C379.138,126.063 384.144,130.188 385.528,134.247C389.291,135.374 400.756,132.32 402.78,136.485C407.196,133.91 409.832,138.896 415.705,141.444C417.752,144.4 418.03,148.679 426.796,150.492C431.75,154.29 437.089,159.613 439.496,167.172C443.73,173.417 445.277,184.531 445.467,196.009C446.398,209.135 439.661,216.821 439.467,229.992C442.506,243.562 436.729,256.515 438.47,273.056C438.649,279.893 436.746,287.579 437.685,296.43C436.628,294.794 435.81,295.394 435.522,297.973C435.235,300.551 435.261,304.703 435.468,309.025C435.537,323.541 434.76,341.095 437.478,354.108C439.148,369.739 443.217,384.948 446.48,400.115C453.126,417.203 449.476,438.712 451.469,462.045C450.669,489.33 447.781,515.212 434.88,531.481Z" fill="#503B73"/>
<path d="M149.481,389.122L151.533,389C151.802,388.095 151.358,383.553 151.444,380.127C151.529,376.701 151.69,374.917 154.078,378.527C151.659,337.387 139.707,303.35 130.507,267.835C129.34,267.019 127.132,268.852 126.328,271.591C125.524,274.329 125.091,278.21 125.472,281.072C131.24,298.104 135.449,317.458 139.481,335.119C143.683,351.26 147.219,369.929 149.481,389.122Z" fill="#524D7B"/>
<path d="M133,337.533C133.319,332.901 134.097,333.351 135.458,334.551C136.818,335.751 139.23,337.42 140.469,335.253C136.437,317.591 132.273,297.863 126.506,280.832C118.713,244.07 110.775,205.569 115.53,160.055C115.3,156.975 115.413,156.577 116.157,156.936C116.902,157.295 117.793,157.825 117.045,159.469C120.263,143.695 132.652,136.057 145.2,128.494C162.142,125.443 125.012,123.958 147.93,124.528C151.075,125.305 155.431,123.663 159.064,123.529C162.055,122.902 160.493,121.555 157.86,121.444C155.227,121.333 151.452,121.396 149.993,121.467C145.242,121.357 145.73,121.62 147.69,120.888C149.651,120.156 153.085,119.495 154.995,119.533L158.533,118C158.196,116.945 158.793,117.367 159.961,117.451C161.13,117.535 162.542,116.79 162.205,116.508L162.533,116C157.921,114.59 164.848,114.465 173.587,113.865C182.327,113.264 192.705,112.582 193.358,111.394C189.591,111.394 183.452,110.474 181.084,110.474C186.232,108.742 195.936,110.978 201.084,110.526C208.991,108.642 216.793,104.102 223.181,99.5013C219.068,99.5013 212.732,98.4672 210,98.4672L213.533,98C247.039,82.6128 252.978,50.6382 263.516,10.1321C263.516,7.05385 263.533,1.64075 263.533,0C256.653,0 247.362,-0.476628 241.762,-0.476628C241.557,5.97711 240.001,14.795 240.779,23.4849C239.512,20.6168 238.895,21.351 238.556,23.8384C238.218,26.3259 237.931,29.7931 236.552,31.7114C236.74,47.8795 227.87,47.224 224.478,63.8918C223.013,68.027 218.589,72.1268 217.478,77.8951C219.073,81.2357 214.773,81.2968 215.562,82.3036C215.334,84.0796 214.231,87.5486 210.777,87.516C208.156,94.1775 198.715,95.3166 193.835,98.4933L193.467,98C188.302,104.552 177.211,104.611 160.987,103.467C148.971,104.917 145.761,109.916 133.738,112.536C132.475,115.041 129.764,117.911 126.953,117.469C117.227,120.869 113.771,130.049 116.492,139.162C108.967,150.63 105.427,167.874 106.468,189.026C106.468,196.385 106.467,206.402 106.467,215C105.715,225.197 109.441,233.38 109.467,244.001C112.556,252.766 114.065,265.542 116.488,276.146C118.429,277.56 119.992,289.353 122.522,294.235C123.434,300.331 125.803,307.558 127.484,314.132C129.261,320.412 132.399,328.852 133,337.533Z" fill="#493D7C"/>
<path d="M139.467,225L141.533,225C141.533,210.416 141.533,193.732 141.533,178C141.555,169.677 140.021,169.651 139.654,172.75C139.287,175.85 139.025,182.133 139.471,186.06C139.471,197.913 139.467,211.974 139.467,225Z" fill="#999290"/>
<path d="M159.837,168.507C160.401,167.872 162.073,167.268 163.043,166.653C164.014,166.038 164.88,164.595 164.433,163.689C160.7,162.356 159.383,167.135 159.837,168.507Z" fill="#ACA49B"/>
<path d="M116,163L117.533,160C118.281,158.356 117.365,156.336 116.62,155.976C115.876,155.617 114.243,156.998 114.473,160.079L116,163Z" fill="#514C7F"/>
<path d="M153.886,153.479C164.424,149.093 175.356,143.86 188.091,140.525C189.438,140.416 196.103,138.645 200.56,137.172C205.017,135.699 207.052,133.48 199.876,134.482C184.628,139.915 164.926,142.728 153.886,153.479Z" fill="#9D9598"/>
<path d="M209.533,127C213.81,124.619 221.481,123.722 225.175,119.503C220.357,120.993 213.506,122.587 208.842,125.491L209.533,127Z" fill="#877C8D"/>
<path d="M155.533,119C160.681,118.548 169.941,120.258 175.088,118.525C170.913,118.525 163.498,117.467 158,117.467L155.533,119Z" fill="#4E4B84"/>
<path d="M126.468,117.971C129.278,118.413 132.997,115.969 134.26,113.465C132.596,114.169 126.584,114.32 126.468,117.971Z" fill="#28257F"/>
<path d="M162.533,117C166.947,116.524 175.691,118.298 180.105,116.522C175.572,116.522 167.844,115.467 162,115.467L162.533,117Z" fill="#4E4A84"/>
<path d="M180.912,110.475C183.28,110.475 189.399,111.506 193.166,111.506C193.849,110.911 200.748,112.369 201.43,110.315C196.282,110.767 186.059,108.742 180.912,110.475Z" fill="#4F4983"/>
<path d="M194.533,99C199.413,95.8232 208.876,94.8541 211.497,88.1926C210.878,86.1239 207.085,87.4421 203.632,90.1736C200.178,92.9052 196.453,96.3373 193.884,97.4799L194.533,99Z" fill="#332D7F"/>
<path d="M210,99C212.732,99 218.955,99.5285 223.067,99.5285C227.63,98.3239 225.693,96.5286 222.352,96.3374C219.012,96.1462 214.001,96.5364 212.8,97.5059L210,99Z" fill="#554A81"/>
<path d="M236.771,89.519C240.225,89.5516 242.265,85.9778 242.493,84.2018C240.042,85.1727 237.804,88.5478 236.771,89.519Z" fill="#67557C"/>
<path d="M214.495,82.1698L216.533,82C215.744,80.9932 219.853,80.8745 218.258,77.5339C217.875,77.714 214.077,79.6837 214.495,82.1698Z" fill="#322A7E"/>
<path d="M332.467,14L334.533,14C334.533,10.9058 334.533,4.45923 334.533,0L332.467,0C332.467,3.09424 332.467,9.54077 332.467,14Z" fill="#42327A"/>
<path d="M262.467,10C263.47,10.0009 264.671,8.22762 264.614,6.09803C264.556,3.96843 264.281,1.63942 264.509,0.156937L262.467,0C262.467,1.64075 262.467,6.92175 262.467,10Z" fill="#594377"/>
</g>
</svg>
