<?xml version="1.0" standalone="no"?>
<!DOCTYPE svg PUBLIC "-//W3C//DTD SVG 20010904//EN"
 "http://www.w3.org/TR/2001/REC-SVG-20010904/DTD/svg10.dtd">
<svg version="1.0" xmlns="http://www.w3.org/2000/svg"
 width="500.000000pt" height="500.000000pt" viewBox="0 0 500.000000 500.000000"
 preserveAspectRatio="xMidYMid meet">
<metadata>
Created by potrace 1.14, written by Peter Selinger 2001-2017
</metadata>
<g transform="translate(0.000000,500.000000) scale(0.100000,-0.100000)"
fill="#000000" stroke="none">
<path d="M4901 4988 c-12 -4 -21 -9 -21 -12 0 -6 65 4 100 15 20 6 17 8 -16 7
-23 -1 -51 -5 -63 -10z"/>
<path d="M4880 4953 c0 -5 9 -18 19 -27 16 -15 26 -16 63 -8 l43 10 -44 1
c-26 1 -52 8 -63 18 -10 9 -18 12 -18 6z"/>
<path d="M1971 4673 c31 -4 39 -10 54 -44 10 -21 20 -37 22 -35 3 2 -5 22 -17
45 -19 38 -23 41 -58 39 l-37 -1 36 -4z"/>
<path d="M3791 4625 c0 -5 6 -21 14 -35 8 -14 14 -20 14 -15 0 6 -6 21 -14 35
-8 14 -14 21 -14 15z"/>
<path d="M1260 4566 c19 -13 39 -21 44 -18 5 3 -6 13 -25 23 -49 26 -59 23
-19 -5z"/>
<path d="M756 4561 c-4 -6 -3 -18 2 -27 8 -14 10 -14 15 -2 7 19 -8 44 -17 29z"/>
<path d="M1292 4510 c0 -14 2 -19 5 -12 2 6 2 18 0 25 -3 6 -5 1 -5 -13z"/>
<path d="M1486 4371 c-3 -5 -25 -7 -49 -4 -23 3 -39 2 -35 -2 3 -4 -9 -37 -28
-73 -19 -37 -34 -76 -34 -87 -1 -31 -43 -108 -60 -111 -11 -1 -15 9 -16 35 -1
20 -6 52 -13 71 l-11 35 4 -37 c4 -31 -1 -43 -25 -69 -16 -17 -29 -36 -29 -43
0 -6 9 0 20 14 17 21 19 22 14 5 -6 -20 -5 -20 10 -1 19 24 19 21 3 -24 -8
-22 -20 -36 -32 -38 -18 -2 -19 -2 -2 8 9 6 17 18 17 26 0 13 -2 13 -13 2 -20
-20 -47 -79 -41 -89 3 -5 2 -9 -3 -8 -4 1 -21 -3 -38 -10 -37 -15 -155 -11
-148 5 7 18 -68 6 -91 -14 -11 -10 -16 -11 -12 -4 6 10 2 10 -18 0 -14 -6 -26
-15 -26 -20 0 -4 -9 -8 -20 -8 -11 0 -20 -4 -20 -10 0 -5 -3 -9 -7 -8 -17 4
-53 -14 -47 -23 3 -6 0 -9 -7 -8 -8 2 -32 -4 -53 -11 l-39 -15 29 -6 29 -7
-32 -1 c-18 0 -33 4 -33 10 0 5 -4 8 -9 5 -5 -3 -7 -15 -4 -26 4 -16 0 -20
-21 -20 -14 0 -26 -6 -26 -12 0 -10 -32 -12 -134 -10 l-134 3 -7 -61 c-6 -49
-12 -64 -31 -77 -13 -8 -24 -21 -24 -28 0 -17 -106 -95 -153 -111 -22 -8 -50
-14 -63 -14 l-24 0 0 -894 c0 -492 3 -901 6 -910 5 -12 9 -13 19 -3 7 7 10 16
7 21 -3 5 0 6 6 2 6 -4 23 -4 37 0 21 5 25 12 25 40 0 19 3 34 8 34 4 0 21 13
38 28 17 15 58 39 90 54 130 59 172 77 239 101 39 14 96 37 127 51 31 14 60
26 64 26 14 0 148 82 192 117 58 47 114 125 142 198 18 47 24 87 28 180 2 66
8 124 12 128 4 5 14 1 23 -7 20 -20 58 -22 51 -2 -7 18 12 30 22 15 5 -8 3 -9
-7 -4 -11 6 -12 5 -2 -5 11 -11 17 -9 39 11 33 31 59 79 43 79 -9 0 -10 21 -6
74 4 60 13 88 46 153 23 44 41 89 41 100 0 18 24 33 62 37 4 1 21 22 37 48
l30 47 75 -1 c74 -2 106 9 106 37 0 12 -51 25 -104 25 l-28 0 18 28 c16 22 19
46 19 135 l0 108 53 -7 c55 -7 102 6 132 36 26 26 52 91 47 117 -3 16 0 23 7
20 8 -3 18 14 26 42 7 25 20 56 28 69 20 31 5 42 -19 13 -10 -13 -19 -19 -19
-13 0 5 9 21 21 36 11 15 18 33 15 42 -3 9 -2 12 5 8 7 -4 9 9 5 42 -4 32 -3
40 3 24 7 -24 8 -23 19 15 14 49 15 102 2 141 -5 16 -11 45 -14 64 -11 76
-170 180 -253 166 -18 -2 -33 -1 -33 5 0 12 -37 12 -44 0z m138 -53 c7 -5 6
-8 -4 -8 -13 0 -13 -1 0 -11 12 -8 12 -10 1 -7 -8 2 -16 17 -17 34 -2 16 0 22
3 14 3 -8 11 -18 17 -22z m21 24 c14 -10 17 -32 5 -32 -5 0 -10 7 -10 16 0 8
-4 12 -10 9 -5 -3 -10 -1 -10 4 0 13 11 14 25 3z m81 -44 c19 -23 19 -23 -1
-7 -11 9 -27 14 -35 12 -13 -4 -13 -3 0 6 8 6 15 11 16 11 0 0 9 -10 20 -22z
m-52 -6 c2 -4 -4 -8 -14 -8 -10 0 -16 4 -14 8 3 4 9 8 14 8 5 0 11 -4 14 -8z
m117 -59 c13 -14 18 -23 11 -19 -7 4 -21 2 -30 -6 -15 -12 -16 -11 -3 5 11 14
11 20 1 32 -21 26 -5 16 21 -12z m-151 -23 c0 -5 -9 -10 -20 -10 -11 0 -20 5
-20 10 0 6 9 10 20 10 11 0 20 -4 20 -10z m-380 -64 c0 -3 -4 -8 -10 -11 -5
-3 -10 -1 -10 4 0 6 5 11 10 11 6 0 10 -2 10 -4z m12 -88 c-7 -7 -12 -8 -12
-2 0 14 12 26 19 19 2 -3 -1 -11 -7 -17z m-25 -10 c-3 -8 -6 -5 -6 6 -1 11 2
17 5 13 3 -3 4 -12 1 -19z m583 -18 c0 -5 -2 -10 -4 -10 -3 0 -8 5 -11 10 -3
6 -1 10 4 10 6 0 11 -4 11 -10z m-60 -97 c-11 -17 -11 -17 -6 0 3 10 7 31 7
45 l2 27 4 -27 c2 -15 -1 -35 -7 -45z m-900 -3 c8 -5 11 -10 5 -10 -5 0 -17 5
-25 10 -8 5 -10 10 -5 10 6 0 17 -5 25 -10z m-58 -19 c-8 -4 -13 -11 -13 -15
1 -3 -1 -6 -4 -6 -3 0 -10 0 -17 0 -6 0 -3 7 8 15 10 8 24 14 29 15 6 0 4 -4
-3 -9z m68 -5 c0 -2 -13 -9 -30 -15 -35 -12 -41 -5 -7 9 25 10 37 12 37 6z
m891 -29 c-10 -9 -11 -8 -5 6 3 10 9 15 12 12 3 -3 0 -11 -7 -18z m-1008 -114
c-24 -2 -62 -2 -85 0 -24 2 -5 4 42 4 47 0 66 -2 43 -4z m924 -85 c-3 -8 -6
-5 -6 6 -1 11 2 17 5 13 3 -3 4 -12 1 -19z m-209 -23 c-3 -3 -9 2 -12 12 -6
14 -5 15 5 6 7 -7 10 -15 7 -18z m-358 -845 c0 -5 -5 -10 -11 -10 -5 0 -7 5
-4 10 3 6 8 10 11 10 2 0 4 -4 4 -10z m24 -56 c6 2 8 1 4 -1 -5 -3 -8 -13 -8
-24 0 -10 -4 -19 -10 -19 -5 0 -7 7 -4 15 4 8 0 23 -7 33 -11 14 -11 15 0 5 7
-6 19 -10 25 -9z m46 -17 c-1 -17 -39 -61 -47 -53 -4 3 3 13 15 22 12 8 22 20
22 26 0 7 -6 6 -15 -2 -18 -15 -20 -5 -2 14 13 15 27 11 27 -7z"/>
<path d="M257 4349 c7 -7 15 -10 18 -7 3 3 -2 9 -12 12 -14 6 -15 5 -6 -5z"/>
<path d="M353 4353 c-45 -3 -61 -7 -57 -17 3 -9 18 -10 57 -5 29 4 73 8 100 8
26 1 47 6 47 11 0 10 -17 10 -147 3z"/>
<path d="M568 4278 c12 -13 19 -28 15 -31 -3 -4 -1 -7 5 -7 22 0 12 28 -15 45
l-28 18 23 -25z"/>
<path d="M574 4215 c3 -23 12 -26 13 -5 1 11 -2 20 -7 20 -4 0 -7 -7 -6 -15z"/>
<path d="M566 4163 c-6 -14 -5 -15 5 -6 7 7 10 15 7 18 -3 3 -9 -2 -12 -12z"/>
<path d="M4678 3993 c7 -3 16 -2 19 1 4 3 -2 6 -13 5 -11 0 -14 -3 -6 -6z"/>
<path d="M2138 3933 c7 -3 16 -2 19 1 4 3 -2 6 -13 5 -11 0 -14 -3 -6 -6z"/>
<path d="M3085 3930 c17 -4 41 -8 55 -8 23 -1 23 0 5 8 -11 5 -36 8 -55 8
l-35 0 30 -8z"/>
<path d="M1 3744 c0 -11 3 -14 6 -6 3 7 2 16 -1 19 -3 4 -6 -2 -5 -13z"/>
<path d="M3350 3559 c0 -5 5 -7 10 -4 6 3 10 8 10 11 0 2 -4 4 -10 4 -5 0 -10
-5 -10 -11z"/>
<path d="M2328 3463 c7 -3 16 -2 19 1 4 3 -2 6 -13 5 -11 0 -14 -3 -6 -6z"/>
<path d="M2550 3405 c-13 -25 -84 -54 -134 -56 -20 0 -20 -1 -1 -8 17 -7 17
-9 3 -17 -9 -5 -40 -29 -69 -54 -29 -25 -71 -61 -94 -80 -55 -47 -117 -68
-149 -51 -13 7 -33 10 -45 6 -28 -9 -121 -99 -156 -153 -27 -41 -28 -43 -9
-58 10 -9 13 -13 7 -9 -7 3 -13 1 -13 -5 0 -6 -17 -44 -37 -83 l-37 -72 -2
-173 c-2 -168 -3 -175 -28 -213 -15 -21 -32 -39 -39 -39 -49 0 -177 -96 -161
-121 4 -8 3 -10 -4 -5 -15 9 -116 -90 -107 -104 4 -6 1 -9 -7 -8 -7 2 -12 -3
-10 -10 1 -6 -4 -11 -10 -10 -7 2 -11 -4 -10 -12 2 -8 1 -12 -3 -8 -7 7 -17 1
-58 -37 -12 -11 -58 -52 -102 -90 -44 -38 -79 -73 -78 -77 2 -4 -4 -5 -12 -2
-8 4 -15 1 -15 -5 0 -6 -6 -11 -14 -11 -8 0 -18 -5 -22 -12 -5 -7 -3 -8 6 -3
8 5 11 4 6 -3 -4 -6 -13 -9 -20 -6 -16 6 -56 -26 -59 -47 -2 -9 -15 -27 -31
-40 -19 -17 -25 -30 -21 -41 4 -10 11 -16 15 -13 5 3 7 -3 6 -12 -2 -10 17
-58 41 -107 23 -49 43 -95 43 -101 0 -18 103 -27 155 -14 25 6 43 14 41 18 -3
4 3 7 12 8 26 1 214 72 242 91 14 9 27 17 30 17 19 2 49 28 44 37 -4 7 -3 8 5
4 14 -9 78 42 73 58 -2 6 0 8 4 4 6 -7 53 26 101 71 12 12 26 21 31 21 4 0 19
10 32 23 14 12 27 22 30 22 3 1 37 17 76 37 51 27 77 47 92 73 12 19 21 38 21
42 -1 3 6 10 15 15 9 5 14 13 11 19 -4 5 -2 9 3 9 6 0 21 17 33 38 13 20 33
51 44 69 66 104 108 179 108 190 0 7 4 13 9 13 10 0 43 70 40 83 -1 4 2 7 8 7
12 0 51 75 43 84 -4 3 -1 6 5 6 16 0 44 58 36 73 -4 7 -4 9 1 5 11 -10 47 50
39 64 -4 6 -3 8 4 4 6 -4 16 8 23 29 7 19 17 35 22 35 5 0 7 7 3 15 -3 8 -1
15 4 15 9 0 60 73 60 85 0 3 -8 1 -19 -4 -18 -10 -19 -3 -26 123 -7 129 4 216
27 216 4 0 8 6 8 13 0 8 11 19 25 25 22 10 25 18 25 64 -1 44 -7 62 -38 107
-20 30 -42 56 -48 58 -6 2 -16 -8 -24 -22z m-1047 -1270 c-3 -9 -8 -14 -10
-11 -3 3 -2 9 2 15 9 16 15 13 8 -4z"/>
<path d="M2057 3399 c11 -9 119 -22 110 -13 -4 5 -32 11 -62 14 -30 3 -52 3
-48 -1z"/>
<path d="M3990 3156 c0 -2 7 -6 15 -10 8 -3 15 -1 15 4 0 6 -7 10 -15 10 -8 0
-15 -2 -15 -4z"/>
<path d="M3791 2994 c0 -11 3 -14 6 -6 3 7 2 16 -1 19 -3 4 -6 -2 -5 -13z"/>
<path d="M3955 2991 c-3 -5 -2 -12 3 -15 5 -3 9 1 9 9 0 17 -3 19 -12 6z"/>
<path d="M3844 2978 c-3 -5 9 -8 28 -7 18 2 55 -7 82 -19 27 -12 57 -22 67
-22 11 0 19 -5 19 -12 0 -6 3 -9 6 -5 3 3 -1 15 -9 27 -9 13 -16 17 -19 10 -3
-9 -17 -6 -49 9 -48 23 -117 33 -125 19z"/>
<path d="M1429 2839 c-23 -19 -23 -20 -2 -10 12 6 25 16 28 21 10 16 -1 12
-26 -11z"/>
<path d="M4627 2403 c-4 -3 -7 -16 -6 -27 0 -19 1 -19 10 3 10 24 8 36 -4 24z"/>
<path d="M4635 1825 c-16 -8 -69 -28 -117 -46 -49 -17 -88 -36 -88 -40 0 -18
-56 -88 -71 -89 -13 0 -14 -10 -7 -72 10 -83 43 -160 88 -203 27 -26 38 -30
88 -29 45 1 74 9 136 40 44 21 86 49 94 62 14 21 13 22 -3 15 -15 -5 -17 -3
-11 13 21 53 29 135 18 184 -11 47 -79 181 -92 179 -3 0 -18 -7 -35 -14z"/>
<path d="M25 1360 c-18 -5 -2 -6 40 -3 39 3 72 7 74 9 8 7 -84 2 -114 -6z"/>
<path d="M4408 1313 c6 -2 18 -2 25 0 6 3 1 5 -13 5 -14 0 -19 -2 -12 -5z"/>
<path d="M1894 908 c-3 -4 23 -7 58 -7 66 1 62 6 -10 11 -24 2 -46 0 -48 -4z"/>
<path d="M560 802 c0 -5 12 -19 27 -33 l27 -24 -23 33 c-23 32 -31 39 -31 24z"/>
<path d="M70 775 c0 -7 39 -26 71 -35 44 -13 34 3 -14 23 -43 17 -57 21 -57
12z"/>
<path d="M690 575 c0 -12 16 -15 88 -14 48 0 96 4 106 8 18 7 18 8 -5 14 -13
4 -61 7 -106 7 -67 0 -83 -3 -83 -15z"/>
<path d="M1024 567 c-9 -5 -40 -10 -69 -11 -46 -2 -57 -6 -79 -33 -34 -40
-111 -72 -194 -80 -57 -5 -75 -12 -117 -44 -51 -38 -125 -75 -250 -125 -215
-85 -315 -161 -315 -241 l0 -33 609 0 609 0 15 33 c20 42 40 118 33 125 -3 3
-1 11 5 18 7 8 6 14 -2 20 -8 5 -10 3 -4 -7 5 -8 4 -11 -1 -6 -5 5 -9 61 -9
125 0 110 -2 121 -30 176 -37 73 -72 97 -138 94 -26 -2 -55 -7 -63 -11z"/>
<path d="M586 493 c-6 -14 -5 -15 5 -6 7 7 10 15 7 18 -3 3 -9 -2 -12 -12z"/>
<path d="M4920 403 c18 -24 35 -43 37 -43 7 0 -35 56 -54 71 -9 8 -2 -5 17
-28z"/>
<path d="M4981 274 c0 -11 3 -14 6 -6 3 7 2 16 -1 19 -3 4 -6 -2 -5 -13z"/>
<path d="M4926 21 c-4 -5 -2 -12 3 -15 5 -4 12 -2 15 3 4 5 2 12 -3 15 -5 4
-12 2 -15 -3z"/>
</g>
</svg>
