<?xml version='1.0' encoding='utf-8'?>
<!-- Generator: imaengine 6.0   -->
<svg xmlns:xlink="http://www.w3.org/1999/xlink" xmlns="http://www.w3.org/2000/svg" viewBox="0,0,1600,116" style="enable-background:new 0 0 1600 116;" version="1.1">
<defs/>
<g id="layer0">
<path d="M-0.286,116C532.994,116 1066.85,116.256 1600.13,116.256C1600.13,97.1535 1600.29,76.9778 1600.29,59C1587.6,59 1573.51,58.714 1562,58.714L1561,58L1558.71,58C1555.41,59.8501 1547.28,58.2013 1543.98,58.7149L1540.71,60C1521.58,65.6289 1504.62,59.6026 1494.76,72.8411C1494.99,74.0999 1494.08,74.4817 1492.85,74.6698C1491.61,74.8579 1490.3,74.7252 1490.01,74.7141L1489.71,74C1488.2,75.2249 1484.94,76.3311 1483.05,75.7177L1480,77L1479,75L1477.71,75C1477.75,75.9094 1477.41,76.8445 1476.97,77.6537C1476.52,78.4629 1476.33,78.8711 1476.08,78.725L1473.71,78C1473.04,78.6933 1472.93,80.4937 1472.8,82.1075C1472.66,83.7213 1472.68,84.8836 1471.89,84.7353C1472.02,85.5804 1471.32,86.1666 1470.56,86.497C1469.81,86.8274 1469.35,87.0169 1469.24,86.8501C1467.05,77.7341 1461.13,90.5293 1460.28,81.9719C1461.76,74.2754 1457.4,68.7822 1452.31,66.5768C1447.22,64.3714 1440.87,65.352 1438.75,69.87C1432.34,77.3984 1429.19,57.8037 1419.81,68.7837C1416.9,69.9199 1416.33,68.5981 1414.89,69.7341L1413.29,69C1409.02,67.9883 1407.02,71.2582 1406.11,73.9417C1405.21,76.6253 1405.31,78.5075 1403.19,74.7852L1400.29,76C1401.08,73.4649 1396.56,74.0508 1398.16,72.2382C1392.68,71.5383 1389.15,76.7378 1386.18,80.1012C1383.22,83.4645 1380.8,84.4988 1376.13,74.7452C1372.76,76.4991 1372.78,70.9944 1370.78,75.8172L1370.71,72C1364.92,79.3001 1358.54,67.0352 1353.92,74.7254C1351.79,73.2957 1350.17,70.5685 1348.25,68.6512C1346.33,66.7338 1343.99,65.7011 1341.8,67.8C1338.32,72.2048 1333.89,68.5901 1331.09,68.7286C1316.82,54.2063 1310.72,74.7926 1301.91,72.7287C1299.46,77.2106 1296.36,73.2071 1292.9,69.6742C1289.43,66.1414 1285.44,63.2462 1282.73,69.8956C1283.09,72.9916 1280.01,74.4793 1278.97,74.7158L1279,73L1277.29,73C1277.88,71.21 1276.65,70.1657 1275.38,69.8549C1274.1,69.5442 1272.51,69.6819 1272.02,69.7149C1266.39,68.4061 1264.89,77.0067 1262.1,76.7338C1258.53,73.3703 1255.02,73.4362 1252.79,76.8009C1248.83,78.0681 1245.08,81.6328 1241.53,83.254C1237.97,84.8751 1235.08,84.6345 1232.26,77.8827C1225.14,68.6312 1216.53,83.9842 1208.96,75.7174C1209.47,77.2704 1208.62,78.0943 1207.59,78.4854C1206.56,78.8766 1205.3,78.8481 1204.9,78.7307C1204.07,81.9486 1201.63,79.0665 1200.79,80.8019L1200.29,80C1198.39,79.2967 1195.7,77.0878 1193.29,75.9128C1190.87,74.7378 1188.19,74.455 1186.75,76.8584C1187.19,78.1709 1186.51,78.6685 1185.61,79.0261C1184.72,79.3837 1183.66,79.959 1183.81,80.2159L1182,78L1181,79L1178.29,80C1179.09,77.4481 1176.43,76.1869 1177.24,75.1628C1177.28,68.0505 1172.97,64.8739 1169.07,65.4117C1165.17,65.9496 1161.15,70.0661 1161.72,76.027C1162.2,85.2722 1160.45,87.9041 1158.14,87.0566C1155.83,86.209 1153.53,81.8311 1153.29,75.9762L1150.29,77C1150.29,74.6002 1150.29,69.9182 1150.29,69C1148.97,69.3581 1147.74,68.5762 1147.03,68.2236C1146.33,67.8709 1145.58,67.9855 1145.72,69.0379C1146.08,70.1211 1145.69,70.6577 1145.11,71.1578C1144.52,71.6578 1144.3,71.9925 1144.27,71.909C1144.61,70.8536 1143.15,70.55 1141.98,70.6342C1140.81,70.7185 1139.84,71.5021 1140.18,71.2207C1125.46,59.4458 1114.74,73.3398 1110.73,83.9015C1110.73,86.9797 1110.71,92.3592 1110.71,94C1111.34,100.124 1110.85,106.313 1108.08,107.726C1108.03,102.624 1108.77,95.1413 1107.24,92.8517C1107.67,87.2794 1106.48,82.2769 1105.04,80.82C1103.61,79.363 1101.4,81.5766 1100.71,89.9767C1100.71,92.7138 1100.71,97.7219 1100.71,99C1100.98,100.303 1100.98,101.822 1100.66,102.921C1100.34,104.02 1100.18,104.494 1099.2,103.795C1099.2,101.058 1099.29,96.2781 1099.29,95L1098,92L1097.29,92C1097.29,87.8871 1097.29,81.7317 1097.29,79C1094.72,79.264 1093.75,84.3229 1093.45,89.2951C1093.15,94.2672 1093.35,98.8955 1091.13,98.743C1089.15,94.5262 1090.01,85.5232 1086.92,83.7251C1086.89,85.676 1086.91,89.7677 1086.78,92.6947C1086.66,95.6216 1086.6,97.4102 1085.14,95.7515L1084.29,96C1084.29,92.5771 1084.53,86.2847 1083.08,85.7266C1082.05,85.5013 1081.51,83.4121 1080.91,81.9673C1080.3,80.5225 1079.27,79.9439 1078.72,82.9485C1078.84,84.6137 1078.93,86.7969 1078.69,88.4668C1078.45,90.1366 1078.07,91.0764 1076.9,90.7317C1076.35,94.9904 1077.15,102.315 1074.11,102.737C1073.68,99.9908 1073.86,95.5327 1073.6,91.6186C1073.33,87.7044 1072.35,84.3571 1070.84,84.7602C1071.22,91.1948 1070,96.0621 1068.69,97.3685C1067.38,98.6748 1066.43,96.6495 1066.29,88.9896L1065.29,89C1063.65,85.1346 1064.42,77.0364 1064.29,72.9906C1061.63,65.1306 1052.03,61.2314 1043.92,60.7268C1043.03,61.5499 1042.58,63.745 1042.17,65.4092C1041.76,67.0734 1041.56,68.205 1040.08,67.7251C1037.88,67.1861 1035.59,65.0823 1036.24,63.1593L1035.29,63C1032.4,61.4377 1028.39,60.9627 1026.93,61.7232L1025,63L1023,62L1019.71,61C1019.9,62.0576 1018.86,61.8754 1017.52,61.7877C1016.18,61.6999 1014.64,61.9303 1014.82,62.2238L1015.29,61C1012.01,60.1198 1009.17,61.9407 1008.03,61.7154L1007.71,61C1004.05,61.3833 1002.74,59.2779 1001.75,60.8564C1001.98,62.1153 1001.08,62.4817 999.845,62.6698C998.612,62.8579 997.409,62.7497 997.116,62.7385C996.717,62.1032 995.443,61.7475 994.413,61.3565C993.383,60.9655 992.633,61.0427 993.152,60.2422C986.93,61.2253 980.482,58.086 977.939,59.7206C974.212,59.0718 970.095,60.3735 968.842,60.7616C968.29,62.9465 964.935,64.3039 964.078,64.725C963.868,64.0622 963.573,63.1613 963.029,62.4511C962.485,61.7408 961.439,61.2687 960.827,61.7725C951.785,67.6052 950.792,59.8354 947.026,69.7152C947.017,51.7842 936.728,76.1857 931.246,62.8542C928.913,61.9575 927.47,64.1836 927.161,63.7634L924,63L922.286,63C921.966,61.9518 919.638,61.7859 917.943,61.7329C916.248,61.6799 915.125,61.915 916.226,60.1751C913.075,58.1745 915.353,56.5139 916.221,55.1815C919.479,53.3438 923.585,51.5283 925.989,54.2858C928.212,52.0894 932.207,49.6078 935.741,48.9186C939.274,48.2295 942.307,49.3283 942.949,54.2814C946.722,43.3999 947.54,45.544 951.77,53.1701C956.407,55.4231 965.581,49.0392 968.804,54.2084C970.145,54.4067 972.672,54.2487 974.625,54.2063C976.577,54.164 977.877,53.9449 977.727,54.916C979.455,54.9328 982.112,57.049 983.118,56.2604C986.86,55.8895 991.571,54.6152 994.972,55.2846L996.286,55C997.051,53.0435 998.18,52.6435 999.463,52.7906C1000.75,52.9377 1001.61,53.6738 1001.72,55.0419C1003.53,55.0961 1005.74,54.2778 1007.2,53.7419C1008.66,53.2059 1009.4,53.0324 1009.74,55.1221C1012.26,54.3166 1013.08,54.4726 1014.07,55.2783C1014.12,54.3451 1015.89,54.0711 1017.55,54.1639C1019.21,54.2566 1020.6,54.1721 1019.89,54.7345L1021.29,55C1025.11,51.3178 1027.73,55.412 1034.03,54.2849L1035.29,54C1036.61,48.7833 1038.41,46.9159 1040.27,47.2709C1042.13,47.6259 1043.49,50.217 1043.71,55.0136C1044.24,56.5601 1049.63,56.1826 1050.11,56.2641C1049.02,49.6741 1058.71,51.7762 1060.25,49.1433C1059.43,47.6117 1060.05,47.3167 1061.05,47.2312C1062.05,47.1458 1063.38,46.9198 1063.2,46.7932C1062.56,34.8242 1066.69,26.5456 1065,14.714C1065.69,20.7339 1066.11,23.8922 1066.49,23.8088C1066.87,23.7253 1067.5,20.734 1068.28,16.0479C1067.35,12.9802 1068.39,11.5469 1069.41,11.4785C1070.42,11.41 1070.88,12.4996 1068.76,15.8411C1071.31,18.7867 1068.34,29.7114 1070.94,31.2801C1072.43,31.033 1073.25,27.2715 1073.5,23.3338C1073.74,19.3962 1073.72,15.1202 1074.26,13.118C1076.79,12.6236 1076.43,18.0098 1076.88,22.6215C1077.33,27.2332 1078.58,31.129 1082.22,27.1766C1082.83,22.2835 1080.83,13.3465 1082.94,11.28C1082.82,12.9703 1082.57,17.3102 1082.71,20.4411C1082.85,23.572 1083.73,25.2513 1084.28,21.0374C1084.25,18.3625 1085.32,17.7584 1086.27,17.8768C1087.23,17.9952 1087.64,18.5533 1085.85,19.7545C1087.7,20.6402 1086.6,27.312 1086.91,28.2729C1088.19,26.8123 1088.42,21.8528 1089.11,21.2629L1088.29,21C1089.17,19.4853 1088.93,17.7612 1088.97,16.7726C1089.01,15.7839 1089.08,15.8117 1091.05,17.281C1092.03,15.2316 1092.34,15.794 1092.66,17.0681C1092.98,18.3421 1093.16,19.7815 1092.89,19.7348C1093.4,21.6377 1093.25,28.0126 1093.63,32.4544C1094.01,36.8962 1095.31,39.7772 1097.27,35.107C1097.88,29.8737 1096.12,20.603 1098.23,18.1732C1100.75,8.9966 1100.54,11.8248 1100.68,17.3659C1100.83,22.907 1100.92,31.2103 1102.82,32.2225C1104.52,37.667 1105.33,34.2711 1105.84,29.9318C1106.34,25.5926 1106.65,20.3681 1108.94,21.2805L1109,20L1108.29,20C1108.51,18.5175 1108.26,16.0094 1108.2,13.8798C1108.15,11.7502 1107.94,10.2787 1108.94,10.2795C1113.04,12.2435 1109.52,27.9952 1110.72,34.0768C1114.25,35.7024 1113.82,43.7489 1118.14,43.2494C1118.01,38.308 1118.71,37.9339 1119.41,39.1611C1120.11,40.3882 1120.51,42.7378 1118.83,43.7707C1127.5,53.4659 1143.04,39.0562 1150.06,45.2805C1149.34,42.7936 1149.95,39.9052 1150.71,38.4083C1151.47,36.9114 1152.34,36.8112 1153.02,39.2856C1154.31,28.6863 1156.5,26.435 1158.63,28.4994C1160.76,30.5637 1162.52,36.6668 1162.71,43.0089C1164.89,49.5987 1168.82,50.6738 1171.9,48.9436C1174.98,47.2135 1177.78,42.7444 1178.28,39.0752L1177.29,39C1177.43,37.7793 1177.72,36.3129 1178.35,35.1903C1178.97,34.0676 1179.66,33.5744 1181.01,34.2857C1184.74,31.8414 1186.03,34.8942 1187.38,37.7381C1188.73,40.5821 1190.35,43.1031 1193.23,39.1714C1198.57,32.7353 1203.62,37.1442 1206.09,34.2723C1208.35,35.0919 1209.8,38.2531 1209.71,39.9778C1212.37,40.6551 1214.48,38.8297 1215.74,37.0297C1216.99,35.2298 1217.45,33.6519 1218.77,35.1745C1221.27,42.4906 1224.06,43.4342 1226.75,41.547C1229.45,39.6599 1232.27,35.0532 1235.99,31.2857C1244.07,41.3506 1259.99,36.6784 1266.03,43.2848C1267.53,40.7351 1270.65,44.2625 1272.18,43.2225C1273.48,41.6437 1274.26,42.704 1275.28,43.7664C1276.29,44.8287 1277.62,45.7713 1278.27,44.1006C1278.46,42.1882 1279.61,41.9447 1280.81,42.3405C1282.02,42.7363 1282.85,43.432 1281.84,44.7612L1283.71,47C1291.18,48.3224 1298.66,40.91 1305.86,42.2488C1312.36,58.8811 1324.75,46.5477 1336.12,46.2589C1336.88,44.5642 1338.2,44.2931 1339.41,44.83C1340.62,45.3669 1341.36,46.3098 1340.75,47.8571C1350.32,51.3389 1347.97,39.0189 1355.87,39.2549C1357.89,51.9992 1362.96,37.184 1365.81,42.2115C1368.12,42.2756 1371.59,42.1593 1373.87,41.6759C1376.15,41.1926 1377.63,39.9238 1376.2,38.793C1380.15,31.5553 1382.82,32.3016 1385.36,34.6507C1387.9,36.9998 1389.96,41.3937 1391.84,42.235C1394.21,46.2019 1398.44,44.3857 1401.68,42.48C1404.93,40.5744 1407.06,38.3166 1406.72,41.9722C1409.63,49.0872 1416.5,46.0206 1421.88,47.2585C1428.66,53.8692 1432.57,48.2126 1435.03,42.2839C1438.43,47.3427 1445.24,53.3164 1452.06,48.2789C1455.58,49.1099 1457.41,46.3026 1458.33,42.7942C1459.26,39.2858 1459.5,34.8736 1460.28,32.0762C1461.3,27.7352 1462.4,29.0473 1463.94,30.859C1465.48,32.6708 1467.45,35.0164 1468.26,33.1104C1469.7,28.6308 1470.43,28.8059 1471.56,30.2299C1472.68,31.6539 1473.74,34.4208 1474.8,35.2044C1475.46,38.6847 1477.53,40.1407 1479.45,40.4597C1481.37,40.7787 1483.43,40.0284 1484.09,39.272C1492.37,42.1262 1503.89,44.129 1509.9,53.2689C1520.21,48.2503 1523.72,50.0928 1538.86,54.2499C1542.04,58.636 1555.44,54.408 1558.89,57.2643L1561,57L1564,57C1576.01,57 1589.3,57.2558 1600.13,57.2558C1600.13,38.1535 1600.29,17.9778 1600.29,0C1067.01,0 533.152,-0.255806 -0.127903,-0.255806C-0.127903,38.4282 -0.286,78.4923 -0.286,116ZM79.7351,81.8921L77.714,83C75.8622,83.4282 76.1813,78.7465 75.8932,75.0597C75.6052,71.373 74.7381,68.5575 72.7421,72.8763C70.13,76.9513 69.788,74.4519 68.8791,71.4126C67.9702,68.3733 66.5499,64.7156 63.7977,66.7978C63.1802,71.7564 62.4764,72.6202 61.2115,71.5714C59.9467,70.5226 58.3223,67.4775 56.9994,64.714C52.9736,73.2152 50.701,64.1222 46.8117,68.7847C45.6652,69.217 44.1121,71.4635 42.3719,72.9789C40.6318,74.4943 39.1301,75.3342 37.2373,72.8403C37.303,70.2065 35.8871,67.3607 34.4585,66.5145C33.0299,65.6682 31.066,66.9604 30.7148,71.9792C29.7002,74.3257 28.1491,71.8061 25.7644,69.6811C23.3797,67.5561 20.4845,65.5629 18.0378,68.7165C16.247,63.0472 14.5706,62.631 13.3158,64.406C12.0609,66.1811 10.9191,70.3387 9.72926,73.9078C7.00812,79.8591 6.09781,78.0095 5.17316,73.9576C4.2485,69.9056 3.84364,63.6322 3.26341,60.8886L2.286,61C2.39356,59.9077 2.21254,57.9576 2.22013,56.3799C2.22773,54.8023 2.22266,53.8702 3.08472,54.2732C2.15576,48.9039 4.04546,43.9212 6.28891,41.6826C8.53235,39.444 10.7633,39.7266 11.7185,45.0504C12.2434,48.3727 15.3456,48.7465 18.3343,47.8659C21.323,46.9853 24.6519,45.0283 26.1721,44.2284C27.7065,41.5403 29.7548,44.9128 31.8364,47.1631C33.9181,49.4135 36.1468,50.3188 36.2859,43.0055C37.5296,37.5169 38.5583,38.08 40.1406,40.0211C41.7228,41.9623 43.3939,45.4992 44.8213,46.2233C46.0398,51.6158 48.1699,50.5046 49.734,48.7425C51.2981,46.9805 52.1953,44.4046 52.7204,47.0602C60.4474,58.1841 60.2876,36.0139 67.0331,49.2841C65.9553,35.0736 75.9389,45.7098 75.2781,41.9331C76.8178,41.1617 77.0336,37.5522 77.3785,34.5157C77.7234,31.4792 77.7043,29.2711 79.7849,31.1885C79.7581,36.3675 80.6375,42.4385 81.7512,45.141C84.6993,46.5072 85.9828,43.0645 86.2457,40.1841C86.5085,37.3036 85.7268,34.9303 86.7272,38.0859C88.0132,42.9851 89.2636,44.3626 89.9527,43.6454C90.6419,42.9282 91.0732,40.3147 92.0306,37.2844C94.5139,42.1002 97.0396,42.9346 99.9202,47.2747C110.455,40.9954 113.832,44.713 123.141,42.2488C120.943,38.842 122.328,37.7578 124.049,38.1778C125.77,38.5979 127.507,40.051 125.82,42.7776L130.286,43C130.33,41.4017 130.723,40.4515 131.33,39.8955C131.937,39.3395 132.511,39.4611 133.039,40.2833C133.337,38.0279 133.771,39.2317 134.564,41.1084C135.358,42.9851 136.607,45.5042 137.134,45.2528C138.074,44.6739 138.138,41.2374 138.234,38.7847C138.33,36.332 138.082,34.7633 139.758,37.153C138.667,48.4115 154.662,46.8387 160.044,53.2827C160.777,50.5836 161.915,50.3365 163.143,51.0296C164.371,51.7226 165.418,53.2472 165.773,54.1741L168.286,54C167.53,50.0289 168.949,48.3435 171.076,47.7312C173.203,47.1188 175.61,47.8281 176.859,49.2486L177.286,48C180,45.2158 176.289,34.7477 179.002,33.286C181.028,34.3386 179.159,41.0792 179.746,42.1323C179.188,47.1496 183.78,49.4153 184.004,52.286C184.251,46.2835 185.576,44.2611 187.323,44.5018C189.07,44.7425 191.274,47.2439 193.038,50.2834C193.071,45.4624 193.977,43.2225 195.241,42.4524C196.505,41.6823 197.927,42.3342 199.838,43.2356C201.835,46.0858 203.903,47.0593 205.309,46.5663C206.715,46.0734 207.905,43.9213 208.283,41.043C209.567,39.7016 209.799,42.1808 210.619,44.3517C211.439,46.5225 212.813,48.4828 214.249,46.1406C214.502,40.6643 214.618,41.053 215.608,42.61C216.597,44.1671 218.383,46.9811 220.171,46.2293C219.359,41.1887 221.024,39.3716 223.391,39.3198C225.759,39.2681 228.487,40.9814 229.829,43.2289C236.822,42.5898 245.138,45.2437 257.914,53.2728L259.286,53C259.822,48.1522 260.868,46.8538 262.416,47.0245C263.963,47.1952 265.688,49.1182 266.962,51.2834C267.466,50.7535 268.013,49.1947 268.382,48.1423C268.751,47.0898 269.041,46.5394 270.062,47.2791C269.544,45.7261 270.383,44.9057 271.413,44.5146C272.443,44.1234 273.696,44.1523 274.095,44.2697C276.69,35.5826 278.18,39.4992 279.708,43.7154C281.236,47.9316 282.99,52.2221 284.283,44.0444C284.54,39.894 286.687,43.7961 289.691,46.9584C292.695,50.1208 296.551,52.5716 298.277,46.0726C297.876,43.4289 298.819,41.4681 299.826,40.8149C300.833,40.1618 301.347,40.6888 300.719,43.9452C301.721,47.1787 304.871,49.016 307.552,48.9558C310.232,48.8956 312.885,47.2297 313.16,44.2368C315.558,48.5069 322.266,48.7565 323.723,55.0699C325.259,57.1969 331.169,54.3694 332.141,54.2491C331.931,51.6403 335.447,50.5488 337.088,51.272C337.205,49.29 342.168,47.7281 347.414,47.6857C352.659,47.6432 357.836,48.9622 358.738,53.114L361.286,54C362.307,53.9873 362.789,52.9707 363.158,51.9183C363.527,50.8659 363.584,50.0499 364.088,50.2722C364.212,49.141 365.194,46.8615 365.95,45.5686C366.706,44.2756 366.862,43.6763 366.715,45.9794C369.661,49.5688 376.381,49.1455 377.751,55.1399C381.323,54.4842 389.567,57.7947 391.246,53.1453C397.324,51.83 402.997,52.5485 408.988,45.2857C411.179,48.5058 412.609,50.4521 413.668,50.6218C414.727,50.7916 415.564,49.1497 416.138,45.2506C418.769,49.1548 424.376,51.1343 424.717,56.0394L428,57C430.068,57 434.517,57.2744 435.081,57.2744C436.865,55.981 442.329,56.0015 443.186,55.2174C447.004,52.4587 450.333,53.4491 452.815,55.2181C454.196,57.0671 455.471,55.161 456.09,55.2715C458.313,51.9959 462.892,49.3397 464.013,46.2857C468.076,55.0065 486.014,48.5781 490.157,47.2394C493.953,37.0557 496.504,38.5017 499.15,42.1818C501.796,45.8619 504.519,51.7864 507.14,50.2496C508.491,49.551 510.031,48.3559 511.235,47.9232C512.439,47.4906 512.882,47.5485 512.715,49.9778C518.57,56.7886 524.673,40.6999 527.74,54.1189L530.286,54C530.726,52.4913 531.438,53.0341 532.515,53.5538C533.591,54.0736 534.911,54.8038 535.165,54.2335C539.187,55.6716 540.579,56.827 540.495,58.0467C540.41,59.2665 538.539,60.0712 534.854,60.754C534.743,61.3611 533.961,61.8095 533.207,62.1398C532.453,62.4702 531.924,63.2101 532.051,63.2815C531.171,62.0927 527.393,60.7933 526.884,60.7387C524.83,77.1438 517.241,55.0005 510.925,65.7241C504.862,61.3488 503.038,64.3849 501.866,68.275C500.694,72.1652 500.379,76.9307 496.13,76.7454C494.335,67.9356 481.039,61.0784 475.026,66.7152C470.028,59.641 461.208,74.4377 456.266,60.8953C454.557,58.5955 450.829,63.3809 448.082,61.7262L446.714,61C443.525,63.2584 439.607,56.678 434.939,58.7206C432.871,58.7206 428.563,58.714 428,58.714L424.714,60C422.699,65.2096 415.389,66.7237 415.997,73.286C416.709,66.8645 415.002,63.6434 413.232,63.7986C411.461,63.9538 409.533,67.4687 409.903,72.2692C406.484,62.6809 402.57,76.4495 401.179,62.777C398.344,67.0359 392.838,59.7225 390.999,65.714C391.805,63.1621 389.347,62.2655 390.153,61.2414L388,61L385.714,59C382.082,63.1347 377.756,57.8733 376.723,61.9303C376.269,66.6289 369.093,66.1867 366.848,67.7576C367.89,68.2876 367.985,69.8274 367.71,70.8798C367.434,71.9323 367.087,72.4945 366.147,71.7548C364.849,71.3079 365.183,67.3919 365.274,67.0835C364.325,65.295 362.624,61.6587 362.205,60.8001L358.714,62C356.079,72.6171 340.995,61.7368 337.027,69.7153C337.296,68.4121 337.534,67.0169 337.212,65.918C336.89,64.819 335.885,64.0316 334.904,64.7306L333.286,65C332.776,63.7644 331.195,61.3899 331.268,61.0986C329.731,60.5122 328.026,59.4233 326.793,59.2157C325.561,59.0082 324.266,59.4781 323.734,60.8947C321.247,64.7253 317.05,68.7399 313.902,67.7313C313.671,72.7094 312.615,70.4868 310.733,68.0848C308.85,65.6828 305.984,63.2433 303.744,67.8732C300.747,72.9368 299.271,70.6386 297.534,67.9886C295.797,65.3386 293.807,62.3227 291.751,65.8592C290.231,69.2497 288.012,71.5063 285.932,71.8575C283.852,72.2088 282.413,70.6638 282.254,65.8682C280.148,69.6064 280.304,77.3909 276.12,77.7402C276.071,71.5983 272.137,67.4032 267.926,66.7237C263.784,70.6345 257.022,60.4181 250.811,65.7857C243.402,72.721 242.54,72.0369 238.946,68.7191C236.97,75.5504 236.353,73.9852 235.378,71.4049C234.403,68.8246 232.874,65.3702 230.751,68.8601C230.781,80.0298 225.72,69.2846 223.736,73.8899C222.795,78.3493 222.278,75.2867 220.992,72.3936C219.707,69.5004 217.647,66.7889 215.731,71.902C214.846,77.6089 214.819,74.152 213.88,70.8622C212.941,67.5723 211.091,64.4467 208.732,70.8994C207.867,72.5633 207.326,70.4245 206.152,68.979C204.978,67.5335 203.171,66.7786 201.733,70.8967C198.955,74.1326 196.866,74.865 195.299,73.7366C193.732,72.6082 193.086,69.976 194.132,65.2537C190.896,68.9391 188.819,70.9904 187.431,71.2373C186.043,71.4842 185.456,69.5265 184.246,63.8534C178.38,65.5559 181.939,78.283 178.072,80.7233C181.838,63.7702 172.83,68.5624 169.199,63.7948C168.581,63.5402 168.373,62.4683 168.016,61.5713C167.658,60.6743 166.762,59.943 165.811,60.7855C157.699,67.8656 149.102,62.7659 141.748,75.8651C140.25,80.9125 139.501,80.5707 138.615,78.2464C137.73,75.9222 136.963,72.0363 137.001,69.286C136.759,81.183 128.17,66.6838 126.722,72.9334C125.296,76.1011 124.561,75.7096 123.188,74.4179C121.814,73.1261 120.129,70.7186 118.048,69.718C116.938,69.862 114.996,72.4979 113.279,73.6332C111.563,74.7684 110.094,74.4072 109.068,68.7222C105.256,76.4585 98.8535,61.1634 96.7364,74.8889C90.992,73.3116 86.8732,83.0148 85.2832,70.9601C83.4349,67.7839 81.8203,69.5405 81.1312,72.5993C80.4421,75.6582 80.1304,79.9512 79.7351,81.8921ZM815.714,70.9868L815.286,72C816.52,65.5203 804.16,69.7372 807.271,60.0911C806.628,58.9238 804.95,58.647 803.836,59.1033C802.722,59.5597 801.631,60.7477 801.728,61.0897C799.827,62.9549 798.878,67.175 795.053,65.719L794,63L793,63L790.714,61C788.412,63.2095 784.897,55.0981 781.756,59.8514C778.473,75.7835 767.803,58.2006 762.906,68.73C758.089,65.0061 751.48,62.7356 744.048,66.7181C739.59,61.3005 729.048,62.2386 724.022,62.7148C720.797,61.8892 718.809,64.547 717.066,63.7217L717,62L717,61L714.714,60C714.357,60.6771 713.917,61.6629 713.392,62.5588C712.867,63.4547 712.714,64.0319 712.172,63.7712C711.908,63.1618 710.915,62.6636 710.124,62.201C709.332,61.7383 708.649,61.8146 709.08,61.2747C699.743,65.5888 694.878,56.9667 685.066,61.7217C683.63,59.2611 681.214,62.41 680.189,61.7854C680.078,61.1783 679.19,60.6666 678.436,60.3362C677.682,60.0059 676.918,60.3538 677.045,60.2825C665.551,62.7918 656.103,61.2524 646.963,59.7165C643.931,61.1436 641.285,64.8976 639.008,65.7141C630.123,61.9825 625.097,63.896 614.936,61.7212C613.251,63.1912 611.814,61.3573 610.833,62.7678L608,63L607.286,61C605.012,59.9655 602.531,59.8064 601.762,60.8413C601.987,62.1001 601.078,62.4817 599.845,62.6698C598.612,62.8579 597.17,62.7527 596.878,62.7415C597.062,63.7991 595.861,63.8754 594.519,63.7877C593.177,63.6999 591.637,63.9303 591.822,64.2238L592.286,62C589.366,59.2947 585.078,58.0907 582.77,60.8299C582.282,63.0791 580.539,65.8594 578.175,64.7737C578.011,63.7382 576.522,63.2975 575.247,62.9868C573.973,62.6761 572.969,62.8901 573.231,62.1683L572,62L571.714,61C569.362,62.7609 566.17,65.0511 563.134,64.7474C562.933,64.0758 562.344,63.323 561.695,62.7179C561.046,62.1127 560.137,61.629 559.936,61.7212L557.714,63C557.155,63.6408 555.883,63.6165 554.517,63.8353C553.15,64.0541 551.691,64.5452 551.715,65.0292L551,62L550.286,62C550.552,60.7002 549.081,60.0507 547.894,59.8162C546.708,59.5816 545.714,59.9717 546.195,59.2096C543.635,58.8379 544.374,57.586 545.647,56.6669C546.919,55.7478 548.316,54.7637 547.785,55.8118C548.806,55.9599 549.762,55.2843 550.12,54.3873C550.478,53.4904 550.51,52.8404 551.059,53.2799C551.819,50.9251 553.714,50.8069 555.55,51.4669C557.385,52.1269 558.998,53.0188 558.896,53.7336C562.052,47.8856 568.013,50.8391 570.897,54.2666C573.551,53.5351 576.632,51.6422 578.919,50.9993C581.205,50.3564 582.515,50.7233 582.715,55.0265L585.286,56C598.434,48.245 606.507,57.1882 618.102,54.2673C626.314,49.599 636.752,53.3925 640.973,52.2847C644.67,54.0856 649.164,57.0448 654.129,56.2553C655.84,53.6109 664.876,53.1887 665.819,54.2213C674.156,57.5007 680.014,53.5368 689.102,54.2671C691.103,51.1159 692.646,53.4171 693.979,54.2852C696.987,52.888 707,56.6061 709.211,54.193C710.915,52.3146 711.823,52.246 712.438,52.9323C713.053,53.6187 713.17,54.5811 712.006,55.7141C716.384,51.0851 728.815,51.8394 730.987,54.2857C732.052,53.2828 734.68,51.4433 736.076,52.2758C735.851,51.017 736.922,50.5183 738.155,50.3302C739.388,50.1421 740.707,50.2748 741,50.286C746.004,50.0866 757.697,51.5024 763.954,46.2823C768.291,54.7499 777.357,40.318 779.718,54.0499C780.846,56.8721 784.193,57.6144 787.041,57.0397C789.889,56.4651 792.791,54.6088 793.273,53.0852C794.053,49.309 795.912,49.0183 797.969,49.9801C800.026,50.9419 801.721,53.0698 801.714,54.9988C802.285,56.082 803.863,56.4465 804.961,56.2174C806.06,55.9882 807.247,55.2226 807.28,55.0559C806.976,50.0362 809.495,46.7284 812.176,45.8466C814.857,44.9648 817.135,46.43 816.715,51.977C819.005,56.1988 822.242,55.9746 824.818,54.3007C827.393,52.6269 829.757,49.76 831.165,49.2338C831.715,47.0727 832.652,46.5505 833.724,46.8076C834.795,47.0646 835.554,47.9128 835.718,49.0457C839.014,53.0624 842.303,59.0747 847.105,55.2659L847.286,53C846.489,47.9088 849.616,49.8822 851.095,50.2696C852.897,45.3912 854.68,45.6518 856.643,47.5332C858.606,49.4146 860.479,52.8741 861.826,54.2268C872.424,58.5237 883.322,42.9929 888.884,53.2613C893.043,51.1344 901.876,52.0112 907.369,54.1034C912.863,56.1955 915.004,58.9878 905.868,61.7461C901.821,65.7451 894.246,61.4231 889.906,64.7298C887.945,64.6225 887.444,61.3874 887.983,60.2855C884.751,70.3193 881.713,66.4964 875.097,61.7309L874.286,62C873.821,58.5681 871.044,61.2475 869.915,60.7268C869.524,62.7357 866.753,64.4355 865.166,63.7671C864.911,63.1488 863.68,62.8419 862.783,62.4843C861.886,62.1267 861.144,62.2372 861.986,61.2857C858.749,65.8076 857.584,70.0459 852.034,68.716L851,66L848.286,67C847.81,66.758 847.478,65.7554 847.308,64.8408C847.138,63.9261 847.035,63.3129 847.19,63.2136C847.829,61.0358 846.242,59.8712 844.495,59.7075C842.749,59.5438 840.551,59.9 839.898,59.7326C839.479,62.0502 837.818,65.4164 836.869,65.7458C835.202,67.1569 834.623,71.6496 832.051,70.7186L832,67L829.286,67C829.031,66.3818 827.68,65.8419 826.783,65.4843C825.886,65.1267 825.298,65.2005 826.141,64.249L825,62L824.286,62C824.655,59.9888 823.453,58.9993 822.39,58.8997C821.327,58.8001 819.842,59.5056 819.727,59.9151C818.201,61.8448 815.823,66.2896 815.714,70.9868Z" fill="#000000"/>
<path d="M1107.71,108.01C1110.48,106.597 1111.91,100.067 1111.28,93.9427L1109,94L1109,93L1106.71,93C1108.24,95.2896 1107.66,102.908 1107.71,108.01Z" fill="#AEAEAE"/>
<path d="M1098.71,104C1099.69,104.699 1100.89,104.181 1101.21,103.082C1101.53,101.983 1101.53,100.194 1101.26,98.8908L1100.29,99C1100.44,98.1271 1100.42,96.8091 1100.25,95.8944C1100.08,94.9797 1099.25,94.2945 1098.77,94.8263C1098.77,96.1044 1098.71,101.263 1098.71,104Z" fill="#2E2E2E"/>
<path d="M1073.73,103.098C1076.76,102.676 1076.74,95.2952 1077.28,91.0364C1076.83,87.5073 1078.08,83.7692 1079.18,83.2235C1079.73,80.2189 1079.78,80.7431 1080.38,82.1879C1080.98,83.6327 1081.94,86.059 1082.97,86.2843L1084.71,85C1085.44,85.6497 1085.82,88.2119 1085.82,90.5804C1085.82,92.949 1085.77,94.8388 1085.02,94.715L1084.71,96C1086.17,97.6587 1087.23,95.6468 1087.36,92.7198C1087.48,89.7928 1087.26,85.968 1087.29,84.0171C1090.38,85.8152 1088.81,94.9709 1090.78,99.1877C1093,99.3403 1093.72,94.3019 1094.02,89.3298C1094.33,84.3576 1094.38,79.5464 1096.95,79.2824C1097.77,79.6627 1097.7,81.0135 1097.82,82.4727C1097.95,83.932 1098.38,85.4983 1099.05,85.281C1100.15,85.2227 1099.77,86.5788 1099.73,88.041C1099.69,89.5031 1100.13,90.9938 1101.2,90.2035C1101.89,81.8034 1103.2,79.7645 1104.63,81.2214C1106.07,82.6784 1107.15,87.384 1106.72,92.9563L1109.29,93C1110.51,92.5152 1110.37,90.1036 1110.24,87.9024C1110.11,85.7013 1109.81,83.979 1111.1,84.2685C1115.11,73.7068 1125.33,59.5056 1140.06,71.2804C1141.34,67.7949 1144.58,70.8742 1146.22,69.1806C1146.08,68.1282 1146.07,68.3824 1146.78,68.735C1147.48,69.0877 1148.63,69.6399 1149.95,69.2818C1151.72,70.5955 1152.4,74.7541 1152.72,76.0681C1152.97,81.923 1155.64,86.746 1157.95,87.5935C1160.26,88.4411 1162.77,85.2303 1162.29,75.9851C1161.72,70.0242 1165.25,66.5163 1169.15,65.9784C1173.05,65.4405 1176.76,67.8829 1176.71,74.9953C1179.85,74.2575 1180.27,79.0511 1180.95,79.282L1182.29,78C1182.02,75.6571 1182.81,75.9356 1184.08,76.4012C1185.36,76.8669 1187.11,77.6103 1187.27,77.0905C1188.71,74.6872 1190.62,75.2522 1193.04,76.4272C1195.45,77.6022 1198.2,79.5669 1200.09,80.2702C1200.07,79.1984 1201.33,78.075 1202.58,77.535C1203.83,76.995 1204.7,76.7889 1204.71,78.0205C1206.09,77.0802 1207.12,75.7788 1207.52,75.0539C1207.93,74.3291 1207.74,74.3068 1208.75,76.1466C1216.33,84.4133 1224.65,68.9142 1231.77,78.1657C1234.59,84.9175 1238.21,85.3956 1241.76,83.7744C1245.32,82.1532 1249.19,78.5126 1253.15,77.2455C1255.37,73.8807 1258.29,73.8884 1261.86,77.252C1264.65,77.5248 1266.44,68.9677 1272.07,70.2766C1273.22,69.0206 1276.75,68.0394 1277.89,68.2653C1279.04,69.1156 1280.54,68.7484 1281.55,68.5935C1282.56,68.4386 1283.12,67.9568 1282.92,69.7261C1285.62,63.0767 1289.02,66.5418 1292.49,70.0746C1295.95,73.6074 1299.71,77.7187 1302.16,73.2367C1310.98,75.3007 1316.61,54.7362 1330.88,69.2585C1333.67,69.12 1338.75,72.5886 1342.22,68.1838C1344.41,66.0848 1345.93,67.1386 1347.85,69.0559C1349.76,70.9732 1351.92,73.8517 1354.05,75.2814C1358.67,67.5912 1365.44,79.476 1371.23,72.1759C1372.51,70.4079 1373.56,70.8394 1374.61,71.8577C1375.65,72.876 1376.22,74.1512 1375.76,74.8461C1380.43,84.5996 1383.65,83.8427 1386.61,80.4793C1389.57,77.1159 1392.5,71.5851 1397.98,72.285C1400.29,72.3729 1402.85,73.9043 1402.72,74.9606C1404.83,78.6829 1405.75,76.8077 1406.66,74.1242C1407.56,71.4407 1408.83,68.2553 1413.1,69.267C1413.28,68.3983 1415.22,68.1032 1417.07,68.1634C1418.92,68.2236 1420.59,68.0861 1420.01,68.7141C1429.38,57.734 1432.82,77.704 1439.23,70.1756C1441.35,65.6577 1447,64.8962 1452.09,67.1016C1457.17,69.307 1461.22,74.1733 1459.75,81.8698C1462.87,81.0781 1466.02,81.1285 1468.22,81.5207C1470.41,81.913 1471.61,82.7993 1471.71,85.0221C1472.5,85.1704 1473.23,83.7687 1473.37,82.155C1473.5,80.5412 1473.54,78.877 1474.22,78.1837C1473.7,76.6307 1474.38,75.9057 1475.41,75.5146C1476.44,75.1234 1477.56,75.1655 1477.96,75.283L1479.29,75C1479.68,73.5323 1480.52,73.9315 1481.55,74.4977C1482.58,75.0639 1483.42,75.5281 1482.9,75.731C1484.79,76.3444 1488.69,75.4224 1490.21,74.1974C1490.13,72.0061 1490.4,72.3912 1491.36,72.9838C1492.31,73.5763 1493.95,74.3788 1495.2,73.1999C1505.06,59.9615 1521.93,65.908 1541.06,60.2791C1511.85,55.9715 1477.77,68.9068 1451.04,60.7173C1448.31,60.7173 1443.29,60.7141 1442.01,60.7141C1428.46,60.0265 1406.3,61.2938 1399.95,61.7184C1382.99,66.8301 1381.9,62.9027 1363.98,61.7145C1351.85,63.9672 1341.77,58.6708 1328.02,60.7145C1313.59,56.6829 1306.57,64.7517 1297.08,62.7245C1285.93,58.7512 1280.03,62.815 1268.95,60.7184C1262.85,64.5794 1247.52,60.6005 1242.9,64.7314C1236.08,63.8998 1226.39,61.5835 1221.94,62.72C1217.08,63.4781 1207.69,61.5716 1202.99,63.7143C1193.86,60.4427 1182.07,66.0031 1176.15,61.7566C1172.56,60.0928 1168.17,60.0423 1164.86,61.0728C1161.56,62.1034 1158.91,64.394 1158.72,66.9356C1153.81,64.9704 1150.87,59.418 1143.97,60.7153C1137.44,60.7153 1129.24,60.714 1124,60.714C1119.06,60.7816 1111.04,63.1049 1109.96,68.7164C1106.31,59.1846 1101.11,69.3055 1098,65.714C1090.19,74.2741 1079.95,57.4497 1073.78,69.8118C1069.17,70.4003 1059.78,55.1021 1042.96,59.7167L1043.71,61C1051.83,61.5046 1061.07,65.2294 1063.73,73.0894C1063.24,78.8842 1067.57,85.9656 1065.75,88.8573C1065.89,96.5173 1067.78,99.0798 1069.09,97.7734C1070.4,96.4671 1071.66,91.408 1071.28,84.9734C1072.8,84.5703 1072.76,87.743 1073.03,91.6572C1073.29,95.5714 1073.3,100.351 1073.73,103.098Z" fill="#FBFBFB"/>
<path d="M1100.15,99.2454L1101.29,99C1101.29,97.7219 1101.29,92.7371 1101.29,90C1100.21,90.7903 1100.26,89.5192 1100.3,88.057C1100.34,86.5949 1100.06,84.6571 1098.97,84.7155C1097.93,84.8746 1097.57,86.8439 1097.66,88.5143C1097.74,90.1847 1098.23,91.5642 1097.93,91.7236L1099.29,95C1100.34,94.6627 1099.88,95.8107 1099.8,96.9792C1099.71,98.1478 1099.87,99.5824 1100.15,99.2454Z" fill="#FBFBFB"/>
<path d="M1083.71,95.9998L1085,96L1085.29,95C1085.29,91.9217 1085.29,86.6408 1085.29,85L1082.71,86C1084.16,86.558 1083.72,92.5769 1083.71,95.9998Z" fill="#828282"/>
<path d="M1084.71,95C1085.46,95.1238 1086.39,92.9483 1086.39,90.5797C1086.39,88.2112 1085.67,85.3706 1084.94,84.7209C1084.94,86.3617 1084.71,91.9217 1084.71,95Z" fill="#FBFBFB"/>
<path d="M1109,94L1111.29,94C1111.29,92.3592 1111.29,87.0783 1111.29,84C1109.99,83.7105 1109.54,85.7349 1109.67,87.936C1109.79,90.1372 1110.17,92.2346 1108.94,92.7194L1109,94Z" fill="#CCCCCC"/>
<path d="M1096.71,92L1098.29,92C1098.59,91.8406 1098.31,90.1556 1098.23,88.4852C1098.14,86.8148 1097.94,85.4442 1098.98,85.2851C1098.3,85.5024 1098.52,83.8827 1098.39,82.4235C1098.27,80.9642 1097.73,79.1078 1096.91,78.7275C1096.91,81.4592 1096.71,87.8871 1096.71,92Z" fill="#2E2E2E"/>
<path d="M1076.72,91.0557C1077.88,91.4005 1079.01,90.2181 1079.25,88.5482C1079.49,86.8783 1079.4,84.5896 1079.28,82.9244C1078.18,83.4701 1076.27,87.5266 1076.72,91.0557Z" fill="#2E2E2E"/>
<path d="M1064.78,89.1846L1066.29,89C1068.1,86.1083 1063.51,79.0807 1063.99,73.286C1064.12,77.3318 1063.15,85.3192 1064.78,89.1846Z" fill="#828282"/>
<path d="M1468.73,87.0973C1469.81,87.4623 1471.09,87.065 1471.59,86.4807C1472.09,85.8965 1472.25,84.7931 1472.16,84.7651C1472.06,82.5423 1470.51,81.3499 1468.32,80.9577C1466.12,80.5654 1462.97,80.9675 1459.85,81.7591C1460.69,90.3166 1466.54,77.9813 1468.73,87.0973Z" fill="#C3C3C3"/>
<path d="M78.0328,83.2841L80.286,82C80.6813,80.0591 81.0001,75.7839 81.6892,72.725C82.3783,69.6662 82.9002,67.9601 84.7486,71.1363C86.3385,83.191 91.356,73.6905 97.1005,75.2678C99.2175,61.5423 105.16,77.0209 108.972,69.2846C109.998,74.9696 111.879,75.2455 113.595,74.1102C115.311,72.975 116.847,70.4266 117.957,70.2827C120.038,71.2833 121.422,73.5428 122.796,74.8346C124.169,76.1263 125.837,76.2818 127.262,73.1141C128.71,66.8645 136.757,81.183 136.999,69.286C136.961,72.0363 137.196,76.1258 138.081,78.45C138.966,80.7743 140.776,81.1322 142.273,76.0849C149.627,62.9857 157.968,68.3548 166.08,61.2747C138.75,67.4512 99.7323,56.8971 77.0823,67.7261C75.6627,61.6953 65.8602,62.2992 61.0172,61.7145L58,63L55.714,61C37.6375,64.7312 20.9731,59.8274 2.86902,60.7458C3.44925,63.4894 3.69083,70.0329 4.61549,74.0848C5.54015,78.1367 7.53991,80.0681 10.261,74.1168C11.4509,70.5477 12.528,66.5113 13.7828,64.7362C15.0377,62.9612 16.1343,63.6067 17.9251,69.276C20.3718,66.1225 22.9992,67.9832 25.3838,70.1082C27.7685,72.2332 30.2496,74.4559 31.2642,72.1095C31.6154,67.0906 32.7383,66.1603 34.167,67.0066C35.5956,67.8529 36.7799,70.3583 36.7141,72.9921C38.607,75.486 41.0074,74.9257 42.7476,73.4103C44.4877,71.8948 46.0004,69.6776 47.1469,69.2454C51.0362,64.5828 52.9748,73.7872 57.0006,65.286C58.3235,68.0495 59.5816,70.9629 60.8464,72.0117C62.1113,73.0605 63.6651,72.0024 64.2826,67.0438C67.0348,64.9616 67.4222,68.5372 68.3311,71.5765C69.24,74.6158 70.6313,77.2251 73.2434,73.1502C75.2394,68.8313 75.0349,71.4175 75.323,75.1043C75.611,78.791 76.181,83.7123 78.0328,83.2841Z" fill="#F8F8F8"/>
<path d="M177.796,80.7998C181.662,78.3595 178.036,65.9713 183.902,64.2687C185.113,69.9418 186.143,72.0474 187.531,71.8004C188.919,71.5535 190.991,68.8594 194.227,65.174C193.584,62.6182 190.426,60.9293 187.367,60.8288C184.308,60.7283 180.867,61.9075 179.748,63.8655C179.999,66.2333 178.853,63.7954 176.627,62.0292C174.401,60.263 171.095,59.1694 168.747,63.8662C172.378,68.6338 181.562,63.8467 177.796,80.7998Z" fill="#F9F9F9"/>
<path d="M1201.29,81C1202.12,79.2646 1204.42,82.3494 1205.25,79.1315L1205.29,78C1205.27,76.7684 1203.61,76.4699 1202.36,77.0099C1201.11,77.5498 1199.69,78.9394 1199.71,80.0112L1201.29,81Z" fill="#D1D1D1"/>
<path d="M1177.76,79.8472L1181.29,79C1180.6,78.7691 1180.01,74.0086 1176.87,74.7464C1176.06,75.7704 1178.56,77.2953 1177.76,79.8472Z" fill="#343434"/>
<path d="M1184.29,80C1184.14,79.7431 1184.93,79.9151 1185.82,79.5574C1186.72,79.1998 1187.44,78.0266 1187,76.714C1186.83,77.2338 1185.55,76.3296 1184.28,75.864C1183,75.3983 1181.46,75.7197 1181.72,78.0626L1184.29,80Z" fill="#D0D0D0"/>
<path d="M1204.71,79C1205.11,79.1174 1206.76,79.4113 1207.79,79.0202C1208.82,78.6291 1209.79,77.4592 1209.27,75.9062C1208.26,74.0664 1207.43,74.051 1207.02,74.7759C1206.62,75.5007 1206.28,76.789 1204.91,77.7294L1204.71,79Z" fill="#818181"/>
<path d="M1475.71,79C1475.97,79.1461 1477.02,78.7387 1477.47,77.9295C1477.91,77.1204 1478.32,75.8915 1478.29,74.9821C1477.89,74.8646 1476.24,74.5887 1475.21,74.9798C1474.18,75.3709 1473.24,76.6059 1473.76,78.1589L1475.71,79Z" fill="#C2C2C2"/>
<path d="M275.714,78.0049C279.898,77.6556 279.857,70.0218 281.963,66.2836C282.123,71.0792 283.947,72.7728 286.027,72.4216C288.107,72.0703 290.74,69.5101 292.26,66.1196C294.316,62.5831 295.319,65.6521 297.055,68.3021C298.792,70.9522 301.251,73.2069 304.248,68.1432C306.488,63.5133 308.4,66.0356 310.282,68.4376C312.165,70.8396 314.053,73.0159 314.283,68.0378C317.432,69.0465 321.684,65.0596 324.171,61.229C286.465,62.1188 228.201,59.6951 193.859,64.7512C192.813,69.4735 193.398,73.0723 194.965,74.2007C196.532,75.3292 199.449,74.4097 202.227,71.1738C203.665,67.0556 204.534,67.8942 205.708,69.3397C206.882,70.7852 208.39,72.7929 209.255,71.1289C211.614,64.6763 212.391,67.7293 213.33,71.0192C214.269,74.3091 215.398,77.7519 216.282,72.045C218.198,66.9318 219.184,69.7327 220.47,72.6258C221.755,75.519 223.338,78.5203 224.279,74.0609C226.264,69.4556 231.316,80.1688 231.286,68.9992C233.409,65.5092 233.868,69.0268 234.843,71.6071C235.818,74.1874 237.154,76.0862 239.13,69.255C242.724,72.5727 243.785,73.1462 251.193,66.2109C257.405,60.8433 263.955,71.1797 268.097,67.2689C272.308,67.9484 275.666,71.863 275.714,78.0049Z" fill="#F8F8F8"/>
<path d="M495.734,77.104C499.982,77.2892 501.241,72.3302 502.414,68.44C503.586,64.5499 504.985,61.9067 511.048,66.2819C517.364,55.5584 525.224,77.4746 527.277,61.0695L526.714,60C515.879,60.7605 503.002,58.0466 495.986,63.7144C485.581,56.8494 468.706,62.2168 458.033,59.7159L455.714,61C460.656,74.5425 469.969,60.21 474.967,67.2841C480.98,61.6473 493.938,68.2941 495.734,77.104Z" fill="#F6F6F6"/>
<path d="M1149.71,77L1153.29,76C1152.96,74.686 1151.69,70.0363 1149.93,68.7226C1149.93,69.6408 1149.71,74.6002 1149.71,77Z" fill="#828282"/>
<path d="M1480,77L1483.29,76C1483.8,75.7971 1482.86,74.5626 1481.83,73.9964C1480.8,73.4302 1479.15,73.3957 1478.75,74.8635L1480,77Z" fill="#828282"/>
<path d="M1371.29,76C1373.29,71.1771 1372.8,76.985 1376.17,75.2311C1376.63,74.5361 1376.05,72.4662 1375.01,71.448C1373.96,70.4297 1372.12,69.9966 1370.84,71.7646L1371.29,76Z" fill="#C7C7C7"/>
<path d="M1399.76,75.8488L1403.29,75C1403.42,73.9438 1400.22,71.8185 1397.9,71.7306C1396.31,73.5432 1400.55,73.3137 1399.76,75.8488Z" fill="#2E2E2E"/>
<path d="M1279.29,75C1280.33,74.7635 1283.64,73.0631 1283.28,69.9671C1283.48,68.1978 1282.48,67.8732 1281.46,68.0281C1280.45,68.183 1279.08,68.5724 1277.93,67.7221C1278.11,68.8112 1279.22,70.6621 1279.94,71.721C1280.66,72.78 1281.08,73.0396 1279.02,72.7149L1279.29,75Z" fill="#CECECE"/>
<path d="M1489.71,75C1490.01,75.0112 1491.7,75.4233 1492.93,75.2352C1494.16,75.0471 1495.41,74.0408 1495.19,72.782C1493.94,73.9608 1492.61,73.0901 1491.66,72.4976C1490.7,71.905 1489.64,71.8282 1489.71,74.0195L1489.71,75Z" fill="#C0C0C0"/>
<path d="M416.002,72.714C415.394,66.1517 423.178,65.4207 425.193,60.2111C415.713,62.9046 409.9,59.341 400.962,61.7165L400.714,63C402.105,76.6726 406.604,62.6968 410.023,72.285C409.653,67.4845 411.511,64.5237 413.282,64.3684C415.052,64.2132 416.714,66.2925 416.002,72.714Z" fill="#F5F5F5"/>
<path d="M1276.76,72.8426L1278.71,73C1280.77,73.3248 1281.14,72.4586 1280.42,71.3997C1279.7,70.3408 1278.46,69.012 1278.28,67.9229C1277.13,67.6971 1273.02,68.4882 1271.87,69.7441C1272.36,69.7112 1273.97,70.0999 1275.24,70.4107C1276.52,70.7214 1277.35,71.0526 1276.76,72.8426Z" fill="#555555"/>
<path d="M365.872,72.2559C366.812,72.9956 367.988,72.0771 368.263,71.0247C368.539,69.9723 368.113,68.2528 367.07,67.7228L366,68L364.714,67C364.624,67.3085 364.574,71.809 365.872,72.2559Z" fill="#333333"/>
<path d="M814.733,71.8982L816.286,71C816.395,66.3028 818.501,62.2143 820.028,60.2847C815.931,63.9224 811.087,61.7891 806.922,59.7248C803.811,69.3709 815.967,65.4185 814.733,71.8982Z" fill="#F3F3F3"/>
<path d="M1143.86,71.7491C1144.71,71.8761 1145.69,71.5474 1146.02,70.7935C1146.35,70.0396 1146.14,68.8267 1145.97,68.7154C1144.33,70.409 1141.08,67.3223 1139.79,70.8078C1140.66,70.653 1142.09,71.1383 1143,71.308C1143.92,71.4776 1144.39,71.2729 1143.86,71.7491Z" fill="#343434"/>
<path d="M831.714,71C834.286,71.931 835.511,67.6349 837.178,66.2237C834.263,64.2027 833.396,66.3459 831.963,66.7164L831.714,71Z" fill="#C9C9C9"/>
<path d="M336.942,69.72C340.91,61.7415 356.625,72.7349 359.261,62.1179C351.217,61.3523 336.086,61.8646 333.921,60.7252C333.5,62.5821 335.882,63.9289 334.985,64.7144C335.966,64.0154 336.341,64.9799 336.663,66.0789C336.985,67.1778 337.211,68.4168 336.942,69.72Z" fill="#EFEFEF"/>
<path d="M946.714,70.0042C950.48,60.1244 952.047,68.1048 961.088,62.2722L961.286,60C948.291,59.8514 942.605,60.7577 930.012,59.7142L928,62L930.714,63C936.196,76.3315 946.705,52.0732 946.714,70.0042Z" fill="#F1F1F1"/>
<path d="M1074.13,70.2543C1080.29,57.8921 1090.18,74.8461 1098,66.286C1101.11,69.8775 1106.36,59.7536 1110.02,69.2853C1111.09,63.6739 1119.06,61.3536 1124,61.286C1129.25,61.286 1137.49,61.2848 1144.03,61.2848C1150.92,59.9876 1154.18,65.3058 1159.09,67.271C1159.28,64.7294 1161.73,62.6495 1165.03,61.6189C1168.34,60.5884 1172.27,60.5864 1175.86,62.2503C1181.78,66.4968 1193.88,61.0142 1203.01,64.2858C1207.72,62.1431 1217.19,64.0385 1222.06,63.2803C1226.5,62.1438 1236.25,64.4442 1243.08,65.2758C1247.7,61.1449 1262.95,65.1411 1269.06,61.2801C1280.14,63.3767 1285.78,59.3015 1296.92,63.2747C1306.41,65.3019 1313.55,57.2538 1327.98,61.2854C1341.74,59.2417 1351.88,64.5383 1364.02,62.2855C1381.94,63.4737 1383.09,67.3929 1400.05,62.2812C1406.4,61.8565 1428.56,60.5781 1442.11,61.2657C1442.59,60.4965 1444.88,60.1596 1447.08,60.1733C1449.28,60.187 1451.05,60.1356 1450.76,60.85C1477.48,69.0395 1511.77,55.9776 1540.98,60.2852L1544.29,59C1544.72,57.6912 1547.49,57.0584 1547.93,57.2774C1551.35,57.2774 1557.08,57.2725 1559.09,57.2725C1555.64,54.4163 1542.23,58.1041 1539.05,53.718C1532.85,58.5085 1521.45,52.6187 1515.95,55.7183C1479.47,48.7777 1463.63,51.6861 1423.99,54.7142C1420.57,54.7142 1415,54.714 1413,54.714L1412.71,54C1390.54,56.8106 1384.68,45.1997 1367.94,53.7208C1354.1,52.9192 1338.97,54.5443 1324,54.714C1307.95,55.0783 1304.76,50.2462 1287.97,53.7161C1278.84,54.0521 1266.53,53.572 1257.03,52.7156C1246.31,51.3773 1236.28,49.2556 1228.97,52.7155C1219.58,50.374 1210.96,53.6305 1203.03,51.7154C1194.34,52.0602 1186.86,53.6252 1180.99,50.7144C1177.74,52.779 1170.49,57.0118 1166.19,53.7852C1159.61,44.8211 1154.8,51.8859 1146.99,53.7142C1137.24,52.0856 1127.69,56.2813 1121,53.714C1114.69,55.9264 1112.32,47.1988 1106.88,46.74C1106.44,51.912 1104.76,50.8134 1102.77,49.2025C1100.77,47.5915 1098.32,45.5651 1097.76,48.837C1094.33,46.8574 1089.13,47.9241 1086.04,45.7169C1084.67,46.2226 1082.46,49.2453 1080.68,50.6024C1078.89,51.9595 1077.78,51.8845 1077.28,45.9502C1074.98,46.0509 1073.01,48.0235 1071.71,49.3114C1070.41,50.5992 1069.51,50.9659 1068,47.714C1065.06,54.6156 1055.86,55.647 1050.02,55.7149C1049.54,55.6333 1044.78,56.4157 1044.25,54.8692C1040.92,53.8327 1037.83,53.6872 1035.92,54.7241L1035,54L1033.71,54C1033.3,55.9923 1030.94,55.9294 1028.09,55.7928C1025.23,55.6561 1022.11,55.1673 1020.93,55.7217L1021,55L1019.71,55C1019.73,56.0515 1018.53,55.8666 1017.02,55.779C1015.51,55.6914 1013.7,55.7337 1013.72,56.0325L1014.29,55C1013.3,54.1942 1012.4,53.9324 1009.89,54.7379C1007.99,55.9161 1003.92,56.9742 1002.02,56.7147L1002,56C1000.25,56 996.218,55.714 996,55.714L996,55L994.714,55C994.486,57.0015 992.284,56.9402 989.59,56.8019C986.896,56.6637 983.919,56.1729 982.924,56.7244L982.714,56C981.707,56.7886 979.622,54.7515 977.893,54.7346C976.467,56.7299 969.466,55.1393 968.039,55.7166C964.961,53.2304 958.895,57.2662 955.056,55.7196L952.286,55C947.224,54.4892 936.491,54.559 927.981,55.7147L925.714,55C924.828,56.8514 918.914,55.4005 917.953,55.7178L915.714,55C914.846,56.3324 912.781,58.2773 915.932,60.2779C920.32,59.7267 921.159,59.7128 924.109,60.2642C924.161,59.331 925.887,59.0711 927.55,59.1639C929.213,59.2566 930.585,59.1772 929.882,59.7395C942.475,60.783 948.004,60.1374 960.998,60.286C963.398,60.286 968.193,60.2634 969.111,60.2634C969.596,59.4942 971.878,59.1596 974.079,59.1733C976.28,59.187 978.159,59.0312 977.869,59.7456C980.413,58.1109 986.801,61.2683 993.023,60.2851C995.091,60.2851 999.559,60.2584 1000.12,60.2584C1000.8,58.2034 1007.43,59.8576 1008.11,59.2622C1014.3,59.2622 1022.09,59.2852 1026.98,59.2852C1028.32,59.4835 1030.67,59.2487 1032.62,59.2063C1034.58,59.164 1035.87,58.9807 1035.72,59.9518C1037.91,62.9205 1042.01,62.0415 1043.2,60.2006C1060.03,55.5861 1069.52,70.8427 1074.13,70.2543Z" fill="#828282"/>
<path d="M1415.29,70C1416.72,68.864 1417.23,70.3828 1420.14,69.2466C1420.73,68.6186 1418.93,67.6519 1417.08,67.5917C1415.23,67.5315 1412.92,68.0208 1412.74,68.8894L1415.29,70Z" fill="#828282"/>
<path d="M763.052,69.2812C767.95,58.7517 778.977,76.0527 782.259,60.1206C764.383,62.1284 739.206,58.4221 716.985,60.7144L716.714,62C717.806,62.1076 720.042,62.2125 721.62,62.2201C723.198,62.2277 724.205,61.9314 723.802,62.7935C728.828,62.3172 739.477,61.8608 743.934,67.2784C751.367,63.2959 758.236,65.5572 763.052,69.2812Z" fill="#F3F3F3"/>
<path d="M851.714,69C857.264,70.3299 858.998,65.6842 862.236,61.1623C862.826,60.085 864.615,60.039 866.493,60.2241C868.371,60.4091 870.119,60.3776 870.015,60.7144C870.354,58.6238 872.579,58.7584 874.275,59.192C875.971,59.6257 876.964,60.4059 874.841,61.762C881.458,66.5274 884.988,70.216 888.22,60.1822C890.911,60.7595 894.936,60.3186 898.63,60.152C902.324,59.9854 905.235,60.0795 905.769,62.1684C914.904,59.4101 913.067,55.661 907.573,53.5688C902.079,51.4767 893.226,50.5949 889.066,52.7218C883.504,42.4534 872.509,58.0254 861.91,53.7285C862.037,54.5736 861.318,55.1666 860.564,55.497C859.81,55.8274 859.353,56.0142 859.242,55.8474C857.427,51.3023 849.376,55.4274 846.95,54.7184C842.147,58.5273 839.445,52.7725 836.149,48.7558C834.712,48.7558 830.84,49.2817 830.951,49.2817C829.543,49.8079 827.082,52.1472 824.506,53.8211C821.93,55.495 819.404,55.9596 817.114,51.7379C816.442,52.0891 809.463,54.5724 806.867,54.7468C806.834,54.9134 805.944,55.4283 804.845,55.6574C803.746,55.8865 802.768,55.8757 802.197,54.7925L800.286,56C799.894,54.8533 797.318,54.7651 795.398,54.7756C793.477,54.7862 791.901,55.1805 792.976,53.285C792.494,54.8086 789.775,55.9044 786.928,56.479C784.08,57.0537 781.347,56.6393 780.22,53.817C761.587,54.5119 748.152,54.4815 730.99,55.7142L731.286,54C729.115,51.5537 716.245,51.1182 711.866,55.7472L709,56L708.714,54C706.502,56.4131 696.833,52.3767 693.825,53.7739C694.018,54.8399 693.226,55.3396 692.23,55.5983C691.235,55.857 690.277,55.8227 690.067,55.7219L689.286,54C680.198,53.2697 674.246,57.0084 665.909,53.729C665.681,55.7305 663.284,55.9402 660.59,55.8019C657.896,55.6637 654.897,55.18 653.902,55.7315C648.937,56.5209 644.628,53.5235 640.931,51.7225C636.801,59.6695 624.371,53.1253 616.951,55.7183L617.714,54C606.119,56.9209 597.967,48.0231 584.819,55.7782C585.858,57.8512 584.96,58.3939 583.82,58.6749C582.68,58.956 581.304,59.4237 581.825,60.2266L583.286,61C585.594,58.2608 589.125,59.5771 592.045,62.2824C592.757,60.6887 593.408,61.2884 594.302,62.1499C595.195,63.0115 596.429,64.101 597.141,63.2486C597.434,63.2598 598.698,63.4233 599.931,63.2352C601.164,63.0471 602.506,62.207 602.281,60.9482C601.538,59.1539 603.116,59.0067 604.987,59.088C606.859,59.1692 608.657,59.2579 607.914,59.7273L610.286,60C610.269,58.9485 611.475,59.1334 612.983,59.221C614.492,59.3086 616.301,59.2605 616.283,58.9617C627.015,60.6382 638.566,60.1764 646.975,60.2849C656.115,61.8208 665.591,62.7823 677.085,60.273C678.871,59.5029 682.284,59.0374 684.599,59.2413C686.915,59.4451 688.029,59.7599 684.982,61.7145C694.794,56.9595 699.839,65.5394 709.176,61.2253C709.159,60.1738 710.475,60.1334 711.983,60.221C713.492,60.3086 715.301,60.2663 715.284,59.9675L717.286,61C739.507,58.7077 764.246,62.266 782.123,60.2582C785.264,55.5049 788.915,63.396 791.217,61.1866C790.819,58.9784 791.683,59.0314 792.882,59.5728C794.081,60.1143 795.369,60.6731 794.971,60.7155C798.611,61.0656 800.853,59.3208 802.029,61.2846C801.931,60.9425 802.939,60.0889 804.053,59.6326C805.166,59.1763 806.126,59.0015 806.769,60.1688C810.934,62.2331 816.115,63.8305 820.211,60.1927C821.002,56.6977 822.443,57.4523 824.525,58.8048C826.606,60.1574 829.158,62.198 831.042,61.2829C834.769,61.9318 838.754,60.6739 840.007,60.2859C840.66,60.4533 842.696,60.1133 844.442,60.277C846.188,60.4407 847.405,60.6568 846.767,62.8346C849.253,62.4168 850.611,65.8124 850.792,66.1958L851.714,69Z" fill="#A3A3A3"/>
<path d="M76.7816,68.1846C99.4316,57.3557 138.789,67.437 166.118,61.2605C167.069,60.4181 167.127,60.8862 167.484,61.7831C167.842,62.6801 168.458,64.021 169.077,64.2756C171.424,59.5787 174.046,60.7111 176.272,62.4773C178.498,64.2434 180.536,66.3356 180.284,63.9678C181.404,62.0098 184.289,61.3 187.348,61.4005C190.408,61.501 193.111,62.5898 193.754,65.1457C228.096,60.0896 286.417,62.1476 324.124,61.2578C324.656,59.8413 325.466,59.5723 326.698,59.7798C327.931,59.9873 329.555,60.6841 331.093,61.2705C331.204,59.7667 331.767,59.9805 332.521,60.4793C333.275,60.9782 334.33,61.2899 334.203,60.7983C336.368,61.9378 350.943,61.5201 358.986,62.2857L361.714,61C366.468,61.3981 375.187,60.3288 377.05,62.2816C378.084,58.2246 382.587,63.3182 386.219,59.1835C384.998,57.3912 386.098,57.299 387.616,57.9102C389.135,58.5213 390.731,59.3931 389.879,60.741C391.947,59.9803 394.713,60.279 396.906,60.4715C399.099,60.664 400.578,61.1241 400.738,62.1146C409.676,59.7391 415.56,62.9766 425.04,60.2832L428,59L428,57L425.286,56C414.807,55.0283 406.408,51.8773 394.089,55.7283C393.835,55.11 392.68,54.8419 391.783,54.4843C390.886,54.1267 390.117,54.2345 390.959,53.2831C389.279,57.9324 381.546,54.0595 377.974,54.7152L376.286,56C372.213,54.0468 370.496,54.4444 367.03,53.7156L365,55L363.714,54C363.907,55.066 363.226,55.3396 362.23,55.5983C361.235,55.857 360.373,55.8661 360.163,55.7653C360.584,55.1582 361.388,55.1523 361.803,54.8219C362.218,54.4915 362.089,53.7855 361.009,53.7142L358.714,53C353.308,53.2267 348.268,54.6467 345.112,54.7369C344.633,53.8476 342.696,53.7321 341.022,53.6579C339.348,53.5838 337.871,54.0964 338.046,53.2822C337.721,53.991 336.964,54.6325 336.298,55.3869C335.631,56.1412 335.105,56.4572 334.097,55.7309L331.714,54C330.743,54.1203 325.718,56.9057 324.181,54.7787C310.055,52.6627 293.192,55.1463 281.11,54.736C277.411,49.81 273.355,53.9434 268.883,53.7392C268.436,55.0379 264.467,54.8524 264.159,54.762C264.217,53.6696 262.405,53.6577 260.943,53.6988C259.481,53.7399 258.37,54.3088 259.161,53.2367L257.714,53C258.815,55.4696 257.753,55.7747 256.058,55.8278C254.363,55.8809 252.222,55.4137 251.901,55.7318C225.906,51.0395 203.596,54.3334 185.882,52.7393C186.009,53.5845 185.318,54.1666 184.564,54.497C183.81,54.8274 183.288,54.9421 183.177,54.7753C179.229,54.6103 180.114,47.3142 176.982,47.7146L176.714,49C178.453,52.9684 176.865,53.5598 174.505,53.7559C172.146,53.952 169.042,53.6289 168.742,54.876L168,54L166,54L164.286,56C164.623,54.9445 163.148,54.55 161.98,54.6342C160.811,54.7185 159.773,55.5454 160.11,55.2639L158.286,56C152.146,54.5714 143.247,53.8671 140.082,50.7259C136.655,51.7306 128.711,53.9645 125.023,52.7149C118.447,53.8391 109.419,52.4587 102.952,53.7181C98.6161,54.3483 91.6613,48.7508 88.8412,51.7621C87.523,52.0074 85.2408,53.0466 83.2235,53.0289C81.2063,53.0112 79.8816,52.2723 80.2688,48.0978C58.1213,60.4918 23.6412,50.2159 3.86193,53.7495C3.10899,55.3964 2.32174,59.8012 2.76427,61.162C20.8683,60.2436 38.0677,64.9782 56.1442,61.247C56.6358,59.8736 57.9356,59.9194 59.2102,60.4003C60.4848,60.8813 61.4713,61.2902 60.8813,61.7398C65.7242,62.3245 75.362,62.1539 76.7816,68.1846Z" fill="#838383"/>
<path d="M366,68L367.286,68C369.531,66.429 376.831,66.7304 377.284,62.0318C375.421,60.079 366.646,61.1334 361.892,60.7353C362.311,61.5939 363.855,65.4196 364.804,67.2081L366,68Z" fill="#EFEFEF"/>
<path d="M1039.92,68.2753C1041.4,68.7552 1042.32,67.2094 1042.72,65.5452C1043.13,63.881 1043.23,62.0826 1044.12,61.2595L1042.71,60C1041.52,61.8409 1038.36,62.7318 1036.16,59.7631L1035.71,63C1035.07,64.923 1037.72,67.7364 1039.92,68.2753Z" fill="#FAFAFA"/>
<path d="M828.779,67.1818L832.286,67C831.212,60.7091 827.79,65.3615 825.986,63.7144C825.143,64.6659 825.674,65.6581 826.571,66.0156C827.468,66.3732 828.525,66.5636 828.779,67.1818Z" fill="#2E2E2E"/>
<path d="M831.74,67.119C833.173,66.7486 834.044,64.262 836.958,66.283C837.907,65.9536 839.834,62.4491 840.254,60.1315C839.001,60.5195 834.746,61.3634 831.019,60.7146C830.026,60.7556 828.251,60.6185 826.877,60.6649C825.502,60.7114 824.332,61.4515 824.823,62.2248L825.714,64C827.519,65.6471 830.666,60.8281 831.74,67.119Z" fill="#F2F2F2"/>
<path d="M847.901,66.7316L851.286,66C851.106,65.6166 849.347,62.3324 846.861,62.7502C845.964,65.0833 848.321,66.4224 847.901,66.7316Z" fill="#A9A9A9"/>
<path d="M391.001,65.714C392.84,59.7225 398.336,67.4876 401.172,63.2287L401.286,62C401.126,61.0095 399.149,60.0942 396.956,59.9017C394.763,59.7092 391.921,59.9943 389.852,60.755C389.046,61.7791 391.807,63.1621 391.001,65.714Z" fill="#F6F6F6"/>
<path d="M638.992,66.2859C641.27,65.4694 644.035,61.7051 647.067,60.2779C638.659,60.1695 626.754,60.3915 616.022,58.7149L614.714,62C624.875,64.1748 630.108,62.5543 638.992,66.2859Z" fill="#F1F1F1"/>
<path d="M794.714,66C798.538,67.456 800.309,63.0584 802.211,61.1932C801.035,59.2295 798.654,61.0645 795.014,60.7143L794,63L794.714,66Z" fill="#F3F3F3"/>
<path d="M332.779,65.1821L335.286,65C335.707,63.143 333.306,61.9876 334.202,61.2022C333.806,60.5713 332.665,59.7676 331.92,59.7675C331.175,59.7675 330.374,60.5088 330.751,61.1399C330.677,61.4312 332.269,63.9465 332.779,65.1821Z" fill="#F7F7F7"/>
<path d="M552.286,65C552.261,64.5161 553.241,64.6189 554.607,64.4001C555.974,64.1813 557.665,63.8182 558.224,63.1774C558.827,61.8561 558.422,60.5506 557.838,60.0505C557.254,59.5504 556.118,59.4336 555.852,59.7552L552,60L551,62L552.286,65Z" fill="#F3F3F3"/>
<path d="M562.749,65.1364C565.784,65.44 569.748,63.0287 572.1,61.2678L569,60C567.254,60 563.276,59.72 563.058,59.72C561.737,59.1169 560.551,59.5778 560.051,60.1621C559.55,60.7463 559.638,62.017 559.959,62.2831C560.161,62.1909 560.656,62.5312 561.305,63.1363C561.955,63.7415 562.547,64.4648 562.749,65.1364Z" fill="#F3F3F3"/>
<path d="M577.721,65.0623C580.085,66.1479 582.774,63.363 583.262,61.1138L582,60C580.254,60 576.263,59.7176 576.045,59.7176C574.962,59.3525 573.908,59.935 573.408,60.5193C572.908,61.1035 572.758,62.2104 572.842,62.2384C572.579,62.9601 573.837,63.2319 575.112,63.5425C576.387,63.8532 577.556,64.0268 577.721,65.0623Z" fill="#F2F2F2"/>
<path d="M890.076,65.2757C894.415,61.969 902.171,66.1844 906.218,62.1854C905.684,60.0964 902.298,59.414 898.604,59.5806C894.91,59.7471 890.595,60.3076 887.905,59.7302C887.367,60.8322 888.115,65.1684 890.076,65.2757Z" fill="#F2F2F2"/>
<path d="M963.815,65.2181C964.672,64.797 968.703,63.314 969.255,61.129L969,60C968.082,60 963.4,59.714 961,59.714L961.286,62C961.899,61.4962 962.031,62.0888 962.575,62.799C963.119,63.5093 963.605,64.5553 963.815,65.2181Z" fill="#F2F2F2"/>
<path d="M496.013,64.2857C503.03,58.6179 516.236,61.0375 527.071,60.2771C529.854,58.9108 532.915,59.7148 534.925,61.2759C538.609,60.5931 540.981,59.306 541.065,58.0862C541.15,56.8664 538.942,55.1634 534.92,53.7253C535.734,55.2569 534.948,55.6833 533.949,55.7688C532.95,55.8542 531.724,56.1435 531.906,56.2701L530,54L528.286,54C505.674,53.7084 483.21,53.5355 456.988,55.7142L455.714,55C454.333,56.849 453.49,54.6339 452.872,54.7444C451.445,56.7397 444.37,55.1423 442.943,55.7197L442.714,55C441.857,55.7841 436.687,55.4377 434.903,56.7311L435.286,59C439.954,56.9574 444.009,63.4641 447.199,61.2057C447.145,59.4859 449.717,59.0675 452.494,59.1231C455.271,59.1787 457.771,59.4537 457.718,59.951C468.391,62.4518 485.609,57.4207 496.013,64.2857Z" fill="#858585"/>
<path d="M592.286,64C592.102,63.7065 593.139,64.2707 594.482,64.3584C595.824,64.4462 597.338,63.8158 597.153,62.7583C596.441,63.6107 595.592,62.5996 594.698,61.7381C593.804,60.8765 592.499,60.2157 591.787,61.8094L592.286,64Z" fill="#BFBFBF"/>
<path d="M711.753,64.1448C712.296,64.4056 713.361,63.7439 713.886,62.848C714.411,61.9521 714.608,60.961 714.965,60.2839C714.982,60.5827 713.525,59.7375 712.016,59.6499C710.508,59.5624 708.697,59.9538 708.714,61.0053C708.283,61.5452 709.043,62.2322 709.835,62.6948C710.627,63.1575 711.49,63.5355 711.753,64.1448Z" fill="#F3F3F3"/>
<path d="M716.714,64C718.458,64.8253 720.866,62.4451 724.092,63.2708C724.495,62.4088 723.2,61.6557 721.623,61.6481C720.045,61.6405 718.106,61.8219 717.014,61.7143L716.714,64Z" fill="#C2C2C2"/>
<path d="M864.753,64.1435C866.339,64.8119 869.89,63.0642 870.281,61.0553C870.385,60.7185 868.427,59.8399 866.549,59.6548C864.671,59.4697 862.345,59.7772 861.754,60.8544C860.911,61.8059 861.674,62.6581 862.571,63.0156C863.468,63.3732 864.498,63.5253 864.753,64.1435Z" fill="#F2F2F2"/>
<path d="M927.286,64C927.528,63.5239 928.245,63.4776 929.159,63.308C930.074,63.1383 930.725,63.0707 930.824,63.2256L928,62L927,62L926,61L924,63L927.286,64Z" fill="#303030"/>
<path d="M58,63L61.286,62C61.876,61.5503 60.6868,60.3461 59.4122,59.8652C58.1376,59.3842 56.2591,59.4602 55.7675,60.8335L58,63Z" fill="#ACACAC"/>
<path d="M531.958,63.283C532.355,62.9616 533.454,62.5996 534.199,62.2603C534.944,61.921 535.559,61.1013 535.183,60.7799C533.173,59.2188 529.715,58.356 526.932,59.7222L526.714,61C527.223,61.0546 531.079,62.0942 531.958,63.283Z" fill="#F5F5F5"/>
<path d="M558.167,63.2322L560.286,62C559.473,60.4684 560.052,60.3167 561.051,60.2312C562.05,60.1458 563.378,59.9186 563.196,59.792C563.014,58.9234 560.766,58.5315 558.916,58.5917C557.065,58.6519 555.361,59.6528 555.946,60.2808C557.477,59.4674 557.683,60.052 557.769,61.0509C557.854,62.0498 558.04,63.4143 558.167,63.2322Z" fill="#BFBFBF"/>
<path d="M608,63L611,63L610,60L608,60L607,61L608,63Z" fill="#F1F1F1"/>
<path d="M611.286,63C612.267,61.5896 613.429,63.7321 615.114,62.2622L615.714,59C615.731,59.2988 614.525,58.7375 613.016,58.6499C611.508,58.5624 609.697,58.9579 609.714,60.0095L611.286,63Z" fill="#BFBFBF"/>
<path d="M793,63L794,63L795.286,61C795.683,60.9577 794.316,59.593 793.117,59.0515C791.919,58.5101 790.333,58.8888 790.731,61.0969L793,63Z" fill="#C8C8C8"/>
<path d="M921.756,63.1491L924,63L926,61L924.286,60C921.336,59.4486 920.263,59.1918 915.874,59.743C914.774,61.4829 916.23,62.2517 917.925,62.3046C919.62,62.3576 921.436,62.1009 921.756,63.1491Z" fill="#F2F2F2"/>
<path d="M996.817,63.2198C997.11,63.231 998.698,63.4233 999.931,63.2352C1001.16,63.0471 1002.49,62.1627 1002.27,60.9038L1000,60C999.437,60 994.958,59.7363 992.889,59.7363C992.371,60.5368 993.18,61.5002 994.21,61.8913C995.24,62.2823 996.418,62.5844 996.817,63.2198Z" fill="#F6F6F6"/>
<path d="M1025,63L1027,62L1027.29,60C1025.97,59.5607 1024.28,59.4811 1023.47,59.9264C1022.66,60.3718 1022.3,61.5873 1022.85,62.2453L1025,63Z" fill="#F9F9F9"/>
<path d="M1034.93,63.2761L1036,63L1036.29,60C1036.44,59.0289 1034.56,58.5921 1032.61,58.6345C1030.66,58.6768 1028.36,58.9131 1027.02,58.7148L1027,60L1027.29,62C1028.75,61.2395 1032.04,61.7137 1034.93,63.2761Z" fill="#CCCCCC"/>
<path d="M447.714,62C450.46,63.6547 454.131,58.9375 455.84,61.2373L458.286,60C458.339,59.5026 455.282,58.6068 452.505,58.5512C449.729,58.4956 446.661,59.298 446.715,61.0178L447.714,62Z" fill="#A6A6A6"/>
<path d="M549.735,61.8918L551,62L552.286,60C552.303,58.9485 550.492,58.5624 548.984,58.6499C547.475,58.7375 546.212,59.4703 546.229,59.1715C545.749,59.9336 546.597,60.1428 547.784,60.3773C548.97,60.6118 550.001,60.592 549.735,61.8918Z" fill="#BFBFBF"/>
<path d="M572,62L573.286,62C573.159,61.1548 573.682,60.8334 574.436,60.503C575.19,60.1726 575.926,60.1167 576.038,60.2835C575.855,59.4149 573.766,58.5315 571.916,58.5917C570.065,58.6519 568.28,59.6239 568.865,60.2519L572,61L572,62Z" fill="#BEBEBE"/>
<path d="M679.826,61.7732C680.851,62.3978 683.476,59.8116 684.913,62.2723C687.959,60.3176 686.965,58.8753 684.65,58.6715C682.334,58.4676 678.647,58.9802 676.861,59.7503C677.257,60.0717 678.217,60.921 678.962,61.2603C679.707,61.5996 680.203,61.4518 679.826,61.7732Z" fill="#C2C2C2"/>
<path d="M823.731,61.9015L825.286,62C824.794,61.2267 825.522,61.2831 826.896,61.2366C828.271,61.1902 829.951,61.3215 830.944,61.2805C829.061,62.1956 826.918,59.6777 824.836,58.3252C822.755,56.9727 820.782,56.2191 819.992,59.7141C820.107,59.3046 821.273,59.3696 822.337,59.4692C823.4,59.5688 824.1,59.8903 823.731,61.9015Z" fill="#C9C9C9"/>
<path d="M873.724,62.0748L875.286,62C877.409,60.6439 876.113,59.0715 874.417,58.6378C872.72,58.2042 870.059,58.846 869.721,60.9366C870.85,61.4574 873.259,58.6429 873.724,62.0748Z" fill="#CBCBCB"/>
<path d="M927,62L928,62L930.286,60C930.989,59.4377 929.244,58.6855 927.582,58.5928C925.919,58.5 923.767,59.0354 923.716,59.9686L926,61L927,62Z" fill="#CCCCCC"/>
<path d="M1007.71,62C1008.86,62.2253 1011.82,60.3869 1015.1,61.2671C1015.04,60.2565 1016.56,60.037 1018.02,60.1711C1019.49,60.3051 1020.71,60.2516 1019.92,60.7261L1023.29,62C1022.74,61.342 1022.93,60.8729 1023.74,60.4275C1024.55,59.9822 1025.64,59.8427 1026.95,60.2821L1027,59C1022.11,59 1014.19,58.714 1008,58.714L1008,61L1007.71,62Z" fill="#CCCCCC"/>
<path d="M1015.29,62C1015.1,61.7065 1016.14,62.2707 1017.48,62.3584C1018.82,62.4462 1020.46,61.9936 1020.28,60.936C1021.07,60.4616 1019.54,59.7355 1018.08,59.6014C1016.61,59.4674 1014.66,60.0222 1014.72,61.0328L1015.29,62Z" fill="#F8F8F8"/>
<path d="M1.71939,60.9447L3.286,61C2.84346,59.6393 3.45812,55.8398 4.21106,54.193L3.286,54C2.42395,53.597 1.65573,54.7995 1.64814,56.3772C1.64054,57.9548 1.82695,59.8524 1.71939,60.9447Z" fill="#ACACAC"/>
<path d="M388,61L390.286,61C391.138,59.6521 389.348,57.9906 387.83,57.3795C386.311,56.7684 384.609,57.4383 385.831,59.2306L388,61Z" fill="#ACACAC"/>
<path d="M601.955,61.2825C602.724,60.2476 604.663,60.2444 606.937,61.2789L608.286,60C609.029,59.5306 606.884,58.5978 605.012,58.5165C603.14,58.4353 601.212,59.4882 601.955,61.2825Z" fill="#BEBEBE"/>
<path d="M969.286,61C970.539,60.612 974.375,59.6182 978.102,60.2671C978.392,59.5526 976.284,58.615 974.083,58.6013C971.881,58.5876 969.307,59.0068 968.822,59.7759L969.286,61Z" fill="#F3F3F3"/>
<path d="M1002.29,61C1003.28,59.4215 1004.35,61.6689 1008.01,61.2856L1007.71,59C1007.03,59.5954 1000.44,57.7868 999.762,59.8418L1002.29,61Z" fill="#848484"/>
<path d="M1441.82,60.7759C1443.1,60.7759 1448.38,61.2595 1451.12,61.2595C1451.41,60.5451 1449.28,59.615 1447.08,59.6013C1444.88,59.5876 1442.31,60.0068 1441.82,60.7759Z" fill="#BFBFBF"/>
<path d="M551.714,59.9905L556.286,60C555.702,59.372 557.084,59.2236 558.934,59.1634C560.785,59.1032 562.554,59.242 562.736,60.1106C562.954,60.1106 567.353,60.2686 569.098,60.2686C568.514,59.6406 570.084,59.2236 571.934,59.1634C573.785,59.1032 575.554,59.242 575.736,60.1106C575.954,60.1106 580.365,60.2637 582.111,60.2637C581.589,59.4609 582.817,59.5113 583.957,59.2303C585.097,58.9492 586.241,57.8705 585.202,55.7975L582.714,55C580.185,55.7537 576.09,55.5993 571.996,55.714L571.286,57C569.01,54.8166 559.982,57.1996 559.241,54.8465C557.512,54.8633 555.139,56.5349 554.132,55.7464C551.52,55.2029 549.562,57.6408 548.085,56.7268L548.286,56C548.818,54.9519 546.585,55.2841 545.312,56.2032C544.039,57.1223 543.298,58.876 545.857,59.2477C545.84,59.5465 547.508,59.3086 549.017,59.221C550.525,59.1334 551.732,58.939 551.714,59.9905Z" fill="#868686"/>
<path d="M428,59C428.563,59 432.932,59.286 435,59.286L435,57C434.437,57 430.068,56.714 428,56.714L428,59Z" fill="#4A4A4A"/>
<path d="M1543.78,58.8218C1547.08,58.3083 1555.78,60.1255 1559.08,58.2754C1555.66,58.2754 1550,57.714 1548,57.714L1548.29,57C1547.85,56.781 1544.21,57.513 1543.78,58.8218Z" fill="#C6C6C6"/>
<path d="M1562,59C1573.51,59 1587.31,59.286 1600,59.286L1600,58C1587.99,58 1574.82,57.714 1564,57.714L1564,57L1561,57L1561,58L1562,59Z" fill="#454545"/>
<path d="M1548,58C1550,58 1555.58,58.286 1559,58.286L1561,58L1561,57L1559,57C1557,57 1551.42,56.714 1548,56.714L1548,58Z" fill="#F8F8F8"/>
<path d="M1564,58C1574.82,58 1587.99,58.286 1600,58.286L1600,57C1589.18,57 1576.01,56.714 1564,56.714L1564,58Z" fill="#7E7E7E"/>
<path d="M547.714,57C549.191,57.914 551.487,55.7249 554.099,56.2684C553.844,55.6502 552.68,54.8419 551.783,54.4843C550.886,54.1267 550.363,54.1501 551.206,53.1986C550.657,52.759 549.946,53.2786 549.589,54.1755C549.231,55.0724 549.042,55.8629 548.021,55.7147L547.714,57Z" fill="#BFBFBF"/>
<path d="M570.876,57.2579L572,56L571.286,54C568.403,50.5724 561.962,47.9421 558.806,53.7902L558.714,55C559.455,57.3532 568.6,55.0744 570.876,57.2579Z" fill="#F3F3F3"/>
<path d="M983.286,57C984.282,56.4486 986.867,57.2349 989.561,57.3732C992.255,57.5114 995.053,57.0551 995.281,55.0536C991.88,54.3842 986.728,55.3435 982.986,55.7144L983.286,57Z" fill="#ADADAD"/>
<path d="M1001.71,57C1003.61,57.2595 1008.29,56.3917 1010.19,55.2136C1009.85,53.1239 1008.47,52.6689 1007.01,53.2049C1005.55,53.7408 1003.82,54.7682 1002,54.714L1002,56L1001.71,57Z" fill="#F6F6F6"/>
<path d="M157.967,56.2841L160,55L160.286,53C154.905,46.5561 139.193,48.2888 140.284,37.0303C138.608,34.6406 137.758,36.3097 137.662,38.7623C137.566,41.215 137.8,44.1716 136.86,44.7505C136.333,45.0019 135.885,42.7622 135.091,40.8855C134.297,39.0088 133.018,37.6823 132.721,39.9378C131.422,40.178 131.158,42.0141 130.851,43.6178C130.545,45.2214 130.537,46.3758 129.062,45.7208L130,43L126,43L124,43L122.714,42C113.405,44.4642 110.587,40.4396 100.053,46.7189C97.1719,42.3788 94.4632,41.5305 91.9798,36.7147C91.0225,39.7451 90.2294,42.5318 89.5403,43.2491C88.8511,43.9663 88.5625,42.8261 87.2765,37.9269C86.2761,34.7714 85.9389,37.2516 85.676,40.1321C85.4132,43.0125 85.1185,46.1365 82.1703,44.7702C81.0567,42.0677 80.2592,36.1808 80.286,31.0018C78.2054,29.0844 77.1551,31.4146 76.8102,34.4511C76.4653,37.4876 76.3609,41.0054 74.8212,41.7768C75.482,45.5535 65.7583,35.024 66.8362,49.2344C60.0907,35.9642 60.9687,57.971 53.2416,46.847C52.7166,44.1914 50.8703,46.6008 49.3062,48.3628C47.7421,50.1248 46.4918,51.3081 45.2733,45.9156C43.8459,45.1915 42.1662,41.6009 40.5839,39.6597C39.0017,37.7186 36.9646,37.4489 35.7209,42.9375C35.5817,50.2509 34.338,49.0251 32.2563,46.7747C30.1747,44.5243 27.3048,41.1413 25.7704,43.8294C24.2502,44.6293 21.1613,46.4367 18.1726,47.3173C15.1839,48.1979 12.8074,48.2776 12.2825,44.9553C11.3273,39.6315 8.12832,39.0391 5.88487,41.2777C3.64143,43.5163 1.80077,48.7242 2.72972,54.0935L4.286,54C24.0653,50.4664 57.7727,60.6686 79.9202,48.2746C79.533,52.4491 81.2013,53.5832 83.2185,53.6008C85.2357,53.6185 87.8022,52.5047 89.1204,52.2594C91.9406,49.2481 98.712,54.9122 103.048,54.282C109.515,53.0226 118.402,54.4093 124.978,53.2851C128.666,54.5347 136.511,52.284 139.938,51.2793C143.104,54.4205 151.827,54.8555 157.967,56.2841Z" fill="#F9F9F9"/>
<path d="M163.883,55.739L166.286,54C165.93,53.0731 164.652,51.2245 163.424,50.5314C162.196,49.8384 160.482,50.1643 159.749,52.8634L160.286,55C161.159,54.8453 162.087,55.1383 163.001,55.308C163.916,55.4776 164.415,55.2627 163.883,55.739Z" fill="#F9F9F9"/>
<path d="M252.074,56.2763C252.395,55.9582 254.38,56.4526 256.075,56.3995C257.77,56.3464 259.35,55.3292 258.249,52.8596C245.473,44.8305 237.096,42.094 230.103,42.7331C228.762,40.4856 225.747,38.6962 223.379,38.748C221.011,38.7997 218.909,41.0239 219.721,46.0645C217.933,46.8163 217.08,43.8602 216.09,42.3032C215.101,40.7462 213.968,40.5094 213.714,45.9857C212.278,48.3279 211.974,46.3205 211.154,44.1496C210.334,41.9787 209.062,39.479 207.777,40.8204C207.399,43.6987 206.526,45.5336 205.12,46.0265C203.714,46.5195 202.208,45.6564 200.21,42.8062C198.299,41.9048 196.207,41.1939 194.943,41.964C193.679,42.7341 192.749,45.15 192.715,49.971C190.951,46.9314 189.148,44.1759 187.401,43.9352C185.654,43.6945 183.962,45.9742 183.715,51.9766L185.714,53C203.428,54.594 226.079,51.5839 252.074,56.2763Z" fill="#F8F8F8"/>
<path d="M333.714,56C334.722,56.7262 336.06,56.52 336.726,55.7656C337.393,55.0113 337.885,53.9022 338.211,53.1934L337.286,51C335.645,50.2769 331.509,51.4364 331.718,54.0453L333.714,56Z" fill="#AFAFAF"/>
<path d="M359.894,56.2656C360.104,56.3664 361.378,56.4106 362.374,56.1519C363.37,55.8932 364.47,54.9926 364.276,53.9267C364.971,53.6582 365.328,52.4839 365.328,51.4272C365.328,50.3706 364.664,49.2205 363.969,49.7157C363.465,49.4934 362.987,50.6768 362.618,51.7292C362.25,52.7816 361.993,53.7027 360.972,53.7154C362.686,54.0368 361.895,54.3926 360.981,54.7319C360.068,55.0712 358.954,55.9442 359.894,56.2656Z" fill="#F6F6F6"/>
<path d="M375.933,56.2781L378.286,55C376.917,49.0056 369.9,49.3072 366.954,45.7178C367.755,49.8554 365.267,53.512 366.907,54.2704C370.373,54.9992 371.86,54.3249 375.933,56.2781Z" fill="#F6F6F6"/>
<path d="M393.818,56.2209C406.137,52.3699 414.639,55.2886 425.118,56.2604C424.778,51.3553 418.59,48.6211 415.959,44.7169C415.386,48.616 414.817,50.2268 413.758,50.057C412.7,49.8873 411.205,47.9344 409.014,44.7143C403.024,51.9771 396.952,51.428 390.874,52.7433C390.031,53.6948 390.674,54.6581 391.571,55.0156C392.468,55.3732 393.564,55.6027 393.818,56.2209Z" fill="#F5F5F5"/>
<path d="M443.286,56C444.713,55.4227 451.793,57.1785 453.22,55.1832C450.738,53.4142 446.721,51.9723 442.903,54.731L443.286,56Z" fill="#F6F6F6"/>
<path d="M457.286,56C483.508,53.8212 505.512,53.9661 528.124,54.2577C525.057,40.8387 518.999,56.5637 513.144,49.7528C511.398,49.7528 507.148,49.7227 506.93,49.7227C504.309,51.2595 502.26,45.528 499.614,41.8479C496.969,38.1678 493.547,36.6763 489.751,46.86C485.608,48.1987 468.051,54.435 463.989,45.7142C462.868,48.7682 458.053,51.4941 455.83,54.7698L457.286,56Z" fill="#F6F6F6"/>
<path d="M531.714,56C533.035,56.6031 534.449,56.4222 534.949,55.8379C535.45,55.2537 535.271,53.9846 534.95,53.7185C534.695,54.2888 533.84,53.5585 532.763,53.0387C531.687,52.519 530.193,52.3473 529.753,53.856L531.714,56Z" fill="#F4F4F4"/>
<path d="M553.744,56.1267C554.75,56.9153 557.273,55.3028 559.001,55.286L559.286,54C559.388,53.2852 557.579,51.5887 555.743,50.9287C553.908,50.2686 551.491,50.548 550.731,52.9028C549.889,53.8543 550.674,54.6581 551.571,55.0156C552.468,55.3732 553.489,55.5085 553.744,56.1267Z" fill="#F3F3F3"/>
<path d="M572.286,56C576.38,55.8853 580.63,55.9913 583.159,55.2376C582.959,50.9344 581.05,49.8058 578.764,50.4487C576.477,51.0916 573.616,52.9852 570.961,53.7167L572.286,56Z" fill="#F2F2F2"/>
<path d="M617.286,56C624.706,53.407 637.033,60.1827 641.162,52.2357C636.941,53.3435 626.134,49.0567 617.922,53.7249L617.286,56Z" fill="#F1F1F1"/>
<path d="M653.911,55.7281C654.907,55.1767 657.867,56.2349 660.561,56.3732C663.255,56.5114 666.055,56.0386 666.284,54.0371C665.34,53.0045 655.623,53.0837 653.911,55.7281Z" fill="#F1F1F1"/>
<path d="M689.714,56C689.924,56.1008 691.378,56.4106 692.374,56.1519C693.37,55.8932 694.472,55.0011 694.279,53.9351C692.946,53.067 690.824,50.6242 688.823,53.7753L689.714,56Z" fill="#F2F2F2"/>
<path d="M709,56L712.286,56C713.45,54.867 713.479,53.2369 712.864,52.5506C712.249,51.8643 710.566,51.8712 708.862,53.7495L709,56Z" fill="#F3F3F3"/>
<path d="M731.286,56C748.448,54.7674 761.498,54.9495 780.13,54.2546C777.769,40.5228 768.412,54.1918 764.075,45.7241C757.819,50.9443 745.876,49.5445 740.873,49.7439C740.663,50.4067 740.119,51.4907 739.575,52.201C739.031,52.9112 738.722,53.2393 738.109,52.7355L736.286,52C734.89,51.1675 731.943,52.7383 730.878,53.7412L731.286,56Z" fill="#F3F3F3"/>
<path d="M799.764,56.1615L802.286,55C802.293,53.0709 800.268,50.4238 798.212,49.462C796.155,48.5002 793.5,49.1627 792.721,52.9389C791.645,54.8344 793.48,55.3582 795.401,55.3476C797.322,55.337 799.372,55.0148 799.764,56.1615Z" fill="#F3F3F3"/>
<path d="M858.754,56.1461C859.837,56.5111 861.092,56.065 861.592,55.4807C862.092,54.8965 862.22,53.7765 862.136,53.7485C860.789,52.3958 859.002,49.0017 857.039,47.1202C855.076,45.2388 852.532,45.0236 850.731,49.902C850.266,51.5053 848.198,53.288 847.069,52.7226L846.714,55C849.14,55.709 856.939,51.601 858.754,56.1461Z" fill="#F2F2F2"/>
<path d="M918.286,56C919.247,55.6827 925.321,57.0491 926.207,55.1977L926.286,54C923.882,51.2425 919.18,52.887 915.922,54.7247L918.286,56Z" fill="#F2F2F2"/>
<path d="M928.286,56C936.796,54.8444 946.923,54.7749 951.986,55.2856L952.286,53C948.056,45.3739 946.794,42.8332 943.02,53.7147C942.378,48.7617 939.165,47.668 935.631,48.3572C932.097,49.0464 928.096,51.5472 925.873,53.7436L926,55L928.286,56Z" fill="#F1F1F1"/>
<path d="M954.714,56C958.552,57.5465 964.816,53.7789 967.893,56.2652L969.286,54C966.062,48.8308 956.705,54.9751 952.068,52.7221L952,55L954.714,56Z" fill="#F2F2F2"/>
<path d="M968.286,56C969.713,55.4227 976.814,57.1504 978.24,55.1551C978.391,54.184 976.565,53.5921 974.612,53.6345C972.66,53.6768 970.362,53.9131 969.021,53.7148L968.286,56Z" fill="#F3F3F3"/>
<path d="M996,56C996.218,56 1000.25,56.286 1002,56.286L1002.29,55C1002.18,53.6319 1000.81,52.3695 999.528,52.2224C998.245,52.0753 996.54,52.8673 995.775,54.8238L996,56Z" fill="#F5F5F5"/>
<path d="M1014.29,56C1014.27,55.7012 1015.48,56.2625 1016.98,56.3501C1018.49,56.4376 1020.3,56.0457 1020.29,54.9942C1020.99,54.4318 1019.24,53.6855 1017.58,53.5928C1015.92,53.5 1013.77,54.0354 1013.72,54.9686L1014.29,56Z" fill="#F7F7F7"/>
<path d="M1021.29,56C1022.46,55.4456 1025.2,56.2274 1028.06,56.3641C1030.91,56.5007 1033.84,56.1207 1034.26,54.1284C1027.96,55.2556 1024.7,51.0601 1020.88,54.7424L1021.29,56Z" fill="#F7F7F7"/>
<path d="M1049.73,56.0909C1055.56,56.023 1065.07,55.1876 1068,48.286C1069.51,51.5378 1070.81,51.0053 1072.11,49.7175C1073.41,48.4297 1074.58,46.3588 1076.88,46.2582C1077.38,52.1924 1079.24,52.4146 1081.02,51.0575C1082.8,49.7004 1084.59,46.7895 1085.96,46.2838C1089.05,48.491 1094.65,47.2958 1098.08,49.2754C1098.64,46.0035 1100.41,48.0369 1102.41,49.6478C1104.41,51.2588 1106.84,52.2248 1107.28,47.0527C1112.72,47.5115 1114.68,56.4984 1121,54.286C1127.68,56.8532 1137.26,52.6573 1147.01,54.2859C1154.81,52.4576 1159.2,45.22 1165.78,54.1842C1170.08,57.4108 1177.77,53.3502 1181.02,51.2856C1186.89,54.1964 1194.28,52.6294 1202.97,52.2846C1210.9,54.1997 1219.64,50.9432 1229.03,53.2847C1236.33,49.8248 1246.25,51.946 1256.97,53.2844C1266.47,54.1407 1278.91,54.6199 1288.03,54.284C1304.83,50.8141 1307.96,55.6503 1324,55.286C1338.98,55.1163 1354.22,53.479 1368.06,54.2805C1384.8,45.7594 1390.83,57.0965 1413,54.286C1414.63,54.5374 1417.31,54.2747 1419.61,54.2056C1421.92,54.1365 1423.57,54.0659 1423.73,55.091C1463.37,52.0629 1479.56,49.342 1516.04,56.2826C1521.54,53.183 1532.95,59.0407 1539.14,54.2502C1523.99,50.0931 1520.37,47.7021 1510.06,52.7207C1504.05,43.5808 1492.22,41.5753 1483.94,38.7211C1483.28,39.4775 1481.47,40.2144 1479.55,39.8954C1477.63,39.5764 1475.93,38.3787 1475.27,34.8984L1473.29,35C1472.39,34.2536 1471.26,33.0488 1470.37,32.5051C1469.48,31.9615 1468.28,31.9401 1467.75,32.8611C1466.94,34.7671 1465.92,32.3002 1464.38,30.4885C1462.84,28.6767 1460.75,27.5929 1459.72,31.9339C1458.94,34.7313 1458.71,39.1399 1457.78,42.6483C1456.85,46.1567 1455.47,48.5498 1451.95,47.7189C1445.13,52.7563 1438.37,46.7738 1434.98,41.715C1432.51,47.6437 1428.94,53.3702 1422.15,46.7595C1416.78,45.5216 1410.18,49.01 1407.27,41.8951C1407.61,38.2395 1404.64,40.0813 1401.39,41.9869C1398.15,43.8925 1394.6,45.7867 1392.22,41.8198C1390.34,40.9785 1388.29,36.5798 1385.75,34.2307C1383.21,31.8816 1379.71,31.6081 1375.76,38.8458C1377.19,39.9766 1376.03,40.633 1373.75,41.1164C1371.47,41.5997 1368.43,41.8032 1366.12,41.7391C1363.27,36.7116 1358.29,51.6602 1356.27,38.9159C1348.37,38.6799 1350.62,51.2004 1341.05,47.7186L1339.29,48C1339.41,47.1548 1338.55,46.3095 1337.79,45.9791C1337.04,45.6487 1335.94,45.6068 1335.83,45.7736C1324.45,46.0624 1312.74,58.4758 1306.24,41.8435C1299.04,40.5047 1291.48,48.0371 1284.02,46.7147C1283.33,46.7424 1282.5,47.5243 1282,48.1086C1281.5,48.6929 1281.53,49.1868 1281.22,48.8219C1280.96,48.3695 1280.12,47.8541 1279.53,47.3541C1278.95,46.8541 1278.52,46.808 1279.12,46.2604L1277.71,46C1277.9,47.0576 1276.86,46.8754 1275.52,46.7877C1274.18,46.6999 1272.64,46.9303 1272.82,47.2238L1272,45L1270.29,45C1270.43,43.9875 1268.73,43.6729 1267.48,43.6618C1266.24,43.6506 1265.38,44.1331 1266.21,43.1902C1260.18,36.5839 1244.1,40.7794 1236.02,30.7144C1232.3,34.4819 1229.12,39.1912 1226.43,41.0784C1223.73,42.9655 1221.77,42.2146 1219.27,34.8984C1217.95,33.3759 1216.52,34.9025 1215.27,36.7025C1214.01,38.5024 1212.69,40.3936 1210.04,39.7163L1207.29,40C1208.2,37.0175 1205.5,35.389 1206.04,34.2825C1203.58,37.1544 1198.12,32.3839 1192.78,38.82C1189.9,42.7516 1189.24,40.3369 1187.89,37.4929C1186.54,34.6489 1184.55,31.3321 1180.82,33.7764C1180.29,34.4468 1179.88,36.0268 1179.47,37.2086C1179.07,38.3904 1178.77,39.1248 1177.91,38.7271C1177.41,42.3963 1174.7,46.7147 1171.62,48.4449C1168.54,50.1751 1165.45,49.5023 1163.27,42.9124C1163.08,36.5704 1161.15,30.153 1159.02,28.0887C1156.9,26.0244 1154.01,28.3595 1152.72,38.9588C1152,39.6065 1151.71,41.2157 1151.36,42.6216C1151.02,44.0275 1151.04,45.015 1150.13,44.7437C1143.11,38.5194 1127.81,53.4456 1119.14,43.7504L1118,44L1117.71,43C1113.4,43.4995 1114.59,35.3469 1111.06,33.7213L1110.29,34C1110.01,29.8188 1110.96,22.0335 1109.14,20.7525C1106.85,19.8401 1105.77,25.5269 1105.27,29.8661C1104.77,34.2053 1104.96,37.3342 1103.26,31.8898C1101.36,30.8776 1101.4,22.892 1101.25,17.3509C1101.11,11.8098 1100.24,8.74876 1097.72,17.9253C1096.94,25.7083 1099.59,31.0049 1096.76,34.838C1094.81,39.5082 1094.58,36.8471 1094.2,32.4053C1093.82,27.9635 1093.76,21.7675 1093.25,19.8646L1090,21L1088.71,21C1088.03,21.5899 1088.13,26.2912 1086.86,27.7518L1086.29,28C1086.25,27.0068 1086.38,25.2514 1086.34,23.8768C1086.29,22.5022 1085.58,21.2963 1084.81,21.7878C1084.58,23.2708 1084.85,26.0934 1084.84,28.1537C1084.83,30.214 1084.9,31.4946 1083.17,30.7705C1083.33,29.8976 1083.42,28.8091 1083.25,27.8944C1083.08,26.9797 1082.26,26.2767 1081.79,26.8085C1078.14,30.7608 1077.9,27.1771 1077.45,22.5654C1076.99,17.9537 1076.39,12.2592 1073.85,12.7536C1073.31,14.7558 1073.17,19.3611 1072.92,23.2988C1072.68,27.2365 1072.54,30.4713 1071.05,30.7184C1068.44,29.1497 1071.7,18.698 1069.14,15.7523L1067.71,16C1066.93,20.686 1066.75,23.1666 1066.37,23.2501C1065.99,23.3336 1065.7,20.7339 1065,14.714C1066.7,26.5456 1062.07,35.0466 1062.71,47.0157C1063.26,48.5906 1062.86,49.4816 1062.11,50.1484C1061.35,50.8151 1060.59,50.9633 1060.06,50.7213L1059.71,49C1058.17,51.6329 1048.64,49.501 1049.73,56.0909Z" fill="#FBFBFB"/>
<path d="M169.286,55C169.586,53.7529 172.193,54.5221 174.553,54.3259C176.912,54.1298 178.996,52.8443 177.258,48.8759C176.009,47.4555 173.045,46.5692 170.918,47.1815C168.791,47.7939 166.977,50.1307 167.733,54.1018L169.286,55Z" fill="#F9F9F9"/>
<path d="M182.949,55.2814C184.032,55.6465 185.092,55.065 185.592,54.4807C186.092,53.8965 186.131,52.7459 186.047,52.7179L184.286,52C184.062,49.1293 179.721,47.0794 180.279,42.0621L179.286,42C179.286,39.2629 179.286,34.2781 179.286,33C176.572,34.4617 179.603,44.9523 176.889,47.7365C180.021,47.3361 179.001,55.1165 182.949,55.2814Z" fill="#F9F9F9"/>
<path d="M263.715,54.9762C264.023,55.0666 268.823,55.3937 269.27,54.095C269.928,52.7182 268.914,51.9012 268.084,51.6461C267.255,51.3911 266.548,51.8009 267.206,51.198C265.933,49.0328 264.026,46.6266 262.478,46.4559C260.931,46.2853 259.253,48.1175 258.716,52.9653C257.926,54.0374 259.497,54.3117 260.959,54.2706C262.421,54.2294 263.773,53.8838 263.715,54.9762Z" fill="#F8F8F8"/>
<path d="M280.837,55.2349C292.919,55.6452 309.984,53.1479 324.11,55.2639C322.653,48.9505 315.361,47.9863 312.964,43.7163C312.689,46.7092 310.22,48.3238 307.539,48.3839C304.858,48.4441 302.265,47.1213 301.263,43.8877C299.886,43.2291 298.901,44.0864 298.646,44.9157C298.391,45.745 298.555,46.3764 297.952,45.718C296.226,52.217 293.11,49.7268 290.106,46.5645C287.101,43.4021 283.972,39.8318 283.715,43.9822C282.422,52.16 281.774,47.7367 280.246,43.5205C278.717,39.3042 276.322,35.2279 273.727,43.9151C272.894,45.4816 270.819,47.6296 269.985,47.7144L270.286,47C269.265,46.2603 268.211,46.9008 267.842,47.9532C267.474,49.0057 267.288,50.2825 266.784,50.8124C267.05,51.2648 267.881,52.1458 268.466,52.6459C269.05,53.1459 269.478,53.195 268.875,53.7426C273.348,53.9468 277.138,50.3089 280.837,55.2349Z" fill="#F7F7F7"/>
<path d="M344.809,55.2128C347.965,55.1226 353.724,53.4815 359.13,53.2548C358.228,49.103 352.654,47.0712 347.409,47.1137C342.164,47.1561 336.833,48.9845 336.716,50.9665L337.714,53C337.539,53.8142 339.323,54.1553 340.997,54.2294C342.671,54.3035 344.33,54.3235 344.809,55.2128Z" fill="#F3F3F3"/>
<path d="M365,55L367.286,54C365.646,53.2416 368.083,50.0836 367.281,45.946C367.428,43.6429 366.212,43.9869 365.456,45.2799C364.701,46.5729 363.871,48.7356 363.747,49.8668C364.442,49.3716 364.756,50.3705 364.756,51.4272C364.756,52.4839 364.64,53.4507 363.946,53.7192L365,55Z" fill="#C5C5C5"/>
<path d="M806.716,55.0369C809.312,54.8626 816.509,52.572 817.182,52.2208C817.602,46.6738 814.679,44.4214 811.997,45.3033C809.316,46.1851 806.411,50.0172 806.716,55.0369Z" fill="#F3F3F3"/>
<path d="M1036.29,55C1038.19,53.9631 1040.76,54.2319 1044.1,55.2684C1043.88,50.4718 1042.24,47.064 1040.38,46.709C1038.51,46.354 1036.07,48.654 1034.74,53.8707L1036.29,55Z" fill="#FAFAFA"/>
<path d="M1413,55C1415,55 1420.7,55.2564 1424.13,55.2564C1423.97,54.2313 1421.9,53.5647 1419.6,53.6339C1417.29,53.703 1414.65,53.9663 1413.02,53.7148L1413,55Z" fill="#C1C1C1"/>
<path d="M737.714,53C738.327,53.5038 739.485,53.2592 740.029,52.5489C740.573,51.8387 741.034,50.8116 741.244,50.1488C740.951,50.1376 739.302,49.5767 738.069,49.7648C736.836,49.9529 735.506,50.8373 735.731,52.0962L737.714,53Z" fill="#C4C4C4"/>
<path d="M846.72,53.0602C847.849,53.6257 850.795,51.7226 851.26,50.1193C849.78,49.7319 845.923,47.9691 846.72,53.0602Z" fill="#A9A9A9"/>
<path d="M1059.71,51C1060.24,51.242 1061.73,51.2437 1062.49,50.5769C1063.24,49.9101 1063.8,48.4517 1063.26,46.8768C1061.94,46.2737 1060.55,46.5779 1060.05,47.1621C1059.55,47.7463 1059.57,48.9981 1059.89,49.2643L1059.71,51Z" fill="#B4B4B4"/>
<path d="M506.928,49.7231C507.146,49.7231 511.382,50.2559 513.128,50.2559C513.294,47.8267 512.246,46.9523 511.042,47.385C509.838,47.8176 508.28,49.0245 506.928,49.7231Z" fill="#C1C1C1"/>
<path d="M830.745,48.8702C832.181,48.8702 836.238,48.7437 836.127,48.7437C835.964,47.6108 834.929,46.5084 833.857,46.2514C832.785,45.9943 831.295,46.7091 830.745,48.8702Z" fill="#CACACA"/>
<path d="M1280.89,48.7373C1281.58,48.7095 1282.5,48.4757 1283,47.8914C1283.5,47.3071 1283.55,46.8814 1283.85,47.2463L1282,45L1278.71,46C1278.06,47.3768 1279.09,48.0988 1279.92,48.3539C1280.74,48.6089 1281.55,48.1345 1280.89,48.7373Z" fill="#CECECE"/>
<path d="M270.286,48C271.119,47.9152 273.389,45.746 274.223,44.1795C273.824,44.0621 272.24,43.5887 271.21,43.9798C270.18,44.3709 269.243,45.6059 269.762,47.1589L270.286,48Z" fill="#2D2D2D"/>
<path d="M1338.95,47.7179L1341.29,48C1341.9,46.4527 1340.86,44.8438 1339.64,44.3069C1338.43,43.7701 1336.59,44.0738 1335.83,45.7685C1336.92,45.4035 1337.66,46.3069 1338.16,46.8912C1338.66,47.4755 1339.04,47.6899 1338.95,47.7179Z" fill="#2F2F2F"/>
<path d="M1273.29,47C1273.1,46.7065 1274.14,47.2707 1275.48,47.3584C1276.82,47.4462 1278.45,46.9632 1278.27,45.9056L1277.71,44C1277.06,45.6707 1276.71,44.4338 1275.69,43.3715C1274.68,42.3091 1273.15,41.177 1271.85,42.7558L1272,45L1273.29,47Z" fill="#828282"/>
<path d="M128.714,46C130.189,46.655 131.107,45.3288 131.413,43.7251C131.72,42.1215 131.833,40.494 133.132,40.2537C132.604,39.4315 131.551,38.9177 130.944,39.4737C130.337,40.0297 129.758,41.386 129.714,42.9843L128.714,46Z" fill="#838383"/>
<path d="M297.757,46.151C298.209,45.8852 299.146,45.1186 299.646,44.5342C300.146,43.9499 300.503,43.6784 301.051,44.2815C301.678,41.0252 300.522,39.6819 299.515,40.335C298.508,40.9882 297.356,43.5073 297.757,46.151Z" fill="#2E2E2E"/>
<path d="M1278,46L1279,46L1282.29,45C1283.29,43.6708 1282.19,42.1929 1280.99,41.7971C1279.79,41.4013 1277.91,42.031 1277.72,43.9434L1278,46Z" fill="#303030"/>
<path d="M1149.74,45.1156C1150.65,45.3869 1151.58,44.1628 1151.92,42.7569C1152.26,41.351 1152.49,39.8403 1153.21,39.1926C1152.53,36.7182 1150.96,36.6528 1150.2,38.1497C1149.44,39.6466 1149.03,42.6287 1149.74,45.1156Z" fill="#828282"/>
<path d="M1269.72,44.9239L1272,45L1271.71,43C1270.19,44.04 1267.26,40.2978 1265.76,42.8476C1264.92,43.7905 1266.23,44.2226 1267.48,44.2338C1268.72,44.2449 1269.86,43.9114 1269.72,44.9239Z" fill="#ADADAD"/>
<path d="M1118,44L1119.29,44C1120.96,42.9671 1120.61,40.1046 1119.91,38.8774C1119.21,37.6503 1117.59,38.0732 1117.71,43.0146L1118,44Z" fill="#828282"/>
<path d="M124,43L126.286,43C127.973,40.2734 125.906,38.0422 124.185,37.6221C122.464,37.2021 120.627,38.8193 122.825,42.2261L124,43Z" fill="#4D4D4D"/>
<path d="M178.714,42L180.286,42C179.698,40.9468 180.943,33.7789 178.917,32.7263C178.917,34.0045 178.714,39.2629 178.714,42Z" fill="#363636"/>
<path d="M1206.76,39.8505L1210.29,40C1210.37,38.2754 1208.18,34.5454 1205.92,33.7258C1205.38,34.8323 1207.67,36.868 1206.76,39.8505Z" fill="#818181"/>
<path d="M1176.72,38.9326L1177.71,39C1178.57,39.3976 1179.61,38.5752 1180.02,37.3934C1180.42,36.2116 1180.67,34.8717 1181.2,34.2013C1179.85,33.4901 1178.47,33.7892 1177.85,34.9119C1177.22,36.0345 1176.87,37.7119 1176.72,38.9326Z" fill="#313131"/>
<path d="M1096.82,34.778C1099.65,30.945 1097.43,25.9668 1098.22,18.1839C1096.12,20.6137 1097.43,29.5447 1096.82,34.778Z" fill="#2D2D2D"/>
<path d="M1472.89,35.2641L1475.29,35C1474.22,34.2164 1473.13,31.2994 1472.01,29.8754C1470.88,28.4514 1469.4,28.2371 1467.96,32.7167C1468.49,31.7957 1469.18,32.4501 1470.07,32.9938C1470.97,33.5374 1471.99,34.5177 1472.89,35.2641Z" fill="#C1C1C1"/>
<path d="M1109.72,34.0377L1111.29,34C1110.08,27.9184 1113.01,11.6911 1108.91,9.72721C1108.91,12.8055 1108.71,18.3592 1108.71,20L1108.71,21C1110.53,22.281 1109.44,29.8565 1109.72,34.0377Z" fill="#B7B7B7"/>
<path d="M1083.08,31.2742C1084.81,31.9982 1085.4,30.2172 1085.41,28.1569C1085.42,26.0966 1085.05,23.567 1085.27,22.084L1085,21L1083.71,21C1083.16,25.214 1083.42,23.5463 1083.28,20.4154C1083.14,17.2845 1083.14,12.8134 1083.26,11.123C1081.15,13.1895 1082.34,22.0107 1081.73,26.9039C1082.79,26.5666 1082.88,27.8107 1082.8,28.9792C1082.71,30.1478 1082.8,31.6111 1083.08,31.2742Z" fill="#6F6F6F"/>
<path d="M1085.71,28.0235L1087.29,28C1086.97,27.0391 1087.92,20.6076 1086.07,19.7218L1085,21L1085.29,22C1086.06,21.5085 1085.72,22.5215 1085.76,23.8961C1085.81,25.2707 1085.67,27.0304 1085.71,28.0235Z" fill="#B6B6B6"/>
<path d="M1083.71,21.0081L1085,21L1086.29,20C1088.07,18.7988 1087.3,17.4276 1086.34,17.3092C1085.39,17.1908 1083.68,18.3332 1083.71,21.0081Z" fill="#2D2D2D"/>
<path d="M1087.81,20.7828L1089,21L1090.29,21C1089.87,19.143 1092.08,17.566 1091.18,16.7805C1089.21,15.3112 1088.44,15.7628 1088.4,16.7514C1088.36,17.7401 1088.7,19.2682 1087.81,20.7828Z" fill="#2D2D2D"/>
<path d="M1089.89,21.262L1092.71,20C1092.98,20.0467 1093.54,18.2018 1093.21,16.9278C1092.89,15.6538 1091.72,14.8311 1090.74,16.8805C1091.16,18.7375 1088.99,20.4765 1089.89,21.262Z" fill="#585858"/>
<path d="M1107.73,19.9157L1109.29,20C1109.29,18.3592 1109.29,13.0783 1109.29,10C1108.28,9.99915 1107.58,11.7657 1107.63,13.8953C1107.69,16.0249 1107.96,18.4333 1107.73,19.9157Z" fill="#FBFBFB"/>
<path d="M1067.76,16.1487L1069.29,16C1071.4,12.6586 1070.38,10.8393 1069.37,10.9078C1068.35,10.9762 1066.82,13.0809 1067.76,16.1487Z" fill="#828282"/>
</g>
</svg>
